<?xml version="1.0" encoding="UTF-8"?>
<svg width="16px" height="16px" viewBox="0 0 16 16" version="1.1" xmlns="http://www.w3.org/2000/svg" xmlns:xlink="http://www.w3.org/1999/xlink">
    <title>Shift Icon/2h Hours@3x</title>
    <g id="Symbols" stroke="none" stroke-width="1" fill="none" fill-rule="evenodd">
        <g id="Shift/24H-Shift" transform="translate(0.000000, -1.000000)">
            <g id="Icon" transform="translate(0.000000, 1.000000)">
                <g id="ic_NightShift" fill="#5C63AB" opacity="0">
                    <rect id="Icon-Spacing" x="0" y="0" width="15.9192002" height="15.9192002" rx="3.31650003"></rect>
                </g>
                <g id="Group-5" transform="translate(1.000000, 1.000000)" fill="#64B7FF" fill-rule="nonzero">
                    <path d="M7.00012187,4.5 L7.00715654,4.5 C7.69359444,4.50172778 8.31643408,4.78125908 8.76752997,5.23247482 C9.2204583,5.68366844 9.5,6.30998749 9.5,7 C9.5,7.69001251 9.22046778,8.31633156 8.76752997,8.76752518 C8.3163393,9.2187188 7.69359444,9.49826233 7.00715654,9.5 L6.93458881,9.5 L6.92755414,9.49827222 L6.89571393,9.49827222 L6.87090777,9.49654441 L6.8638731,9.49654441 L6.83906693,9.49481663 L6.83203226,9.49481663 L6.80722609,9.49308882 L6.80019142,9.49308882 L6.77538526,9.49136104 L6.76835059,9.48963323 L6.74354442,9.48790545 L6.73823761,9.48617763 L6.71343145,9.48444985 L6.70639678,9.48272204 L6.68159061,9.48099426 L6.67455594,9.47926645 L6.64974978,9.47568748 L6.64444297,9.47568748 L6.6196368,9.47210852 L6.61260213,9.47038071 L6.58779597,9.46680174 L6.58248916,9.46507396 L6.55768299,9.461495 L6.55237619,9.45976722 L6.52584247,9.45618825 L6.52053567,9.45446044 L6.4957295,9.4491536 L6.4904227,9.4491536 L6.46561653,9.44384676 L6.46030972,9.44211898 L6.43550356,9.43681214 L6.43019675,9.43508436 L6.40539058,9.42977752 L6.40008378,9.4280497 L6.37527761,9.42274286 L6.3699708,9.42101505 L6.34516464,9.41398034 L6.33985783,9.41225252 L6.31505167,9.40521781 L6.30974486,9.40521781 L6.28493869,9.39818309 L6.28135975,9.39645528 L6.25655358,9.38942057 L6.25124678,9.38769279 L6.22644061,9.37880698 L6.22286167,9.37880698 L6.1980555,9.36992117 L6.1927487,9.36819336 L6.16794253,9.35930755 L6.16436359,9.35757977 L6.13955742,9.34869397 L6.13597848,9.34869397 L6.11117231,9.33808029 L6.10759337,9.33635251 L6.0827872,9.3274667 L6.07920826,9.32573889 L6.05440209,9.31685308 L6.05082315,9.3151253 L6.02601698,9.30451162 L6.02243804,9.30278384 L5.99763187,9.29217016 L5.99405293,9.29044238 L5.96924676,9.2798287 L5.96751896,9.27810092 L5.9427128,9.26748724 L5.93913385,9.26575946 L5.91432769,9.25514577 L5.91259992,9.25341799 L5.88779375,9.24107675 L5.88421481,9.23934894 L5.86126004,9.2270077 L5.8576811,9.2270077 L5.83287493,9.21466646 L5.83114713,9.21293868 L5.80634096,9.20059744 L5.80461316,9.19886963 L5.77980699,9.18467698 L5.77807919,9.18467698 L5.75512442,9.17048434 L5.75154548,9.16875652 L5.72859071,9.15456388 L5.72686294,9.15456388 L5.70205677,9.14037123 L5.700329,9.13864342 L5.67737423,9.12445077 L5.67564646,9.12272296 L5.6508403,9.10680244 L5.6491125,9.10680244 L5.62615773,9.09088191 L5.62442993,9.09088191 L5.60147515,9.07496139 L5.59974735,9.07323361 L5.57679258,9.05731309 L5.57506478,9.05731309 L5.55211001,9.03966501 L5.55038221,9.03966501 L5.52742744,9.02201693 L5.52569964,9.02201693 L5.47979073,8.98672013 L5.47806296,8.98672013 L5.45510819,8.96907205 L5.45510819,8.96734424 L5.43215342,8.94969616 L5.40919864,8.93019667 L5.38624387,8.91254859 L5.38624387,8.91082081 L5.34033496,8.8718212 L5.31910774,8.85232172 L5.29615297,8.83282223 L5.29615297,8.83109442 L5.27492574,8.81159493 L5.23247003,8.76913894 C4.7795417,8.31794532 4.5,7.69162627 4.5,7.00161376 C4.5,6.31160125 4.77953222,5.6852822 5.23247003,5.23408858 C5.6836607,4.78115729 6.30997565,4.50161376 6.99998365,4.50161376 L7.00012187,4.5 Z M7.26545901,5.04843989 L7.26545901,8.95156011 C7.70246408,8.89318391 8.09530105,8.68967446 8.39247208,8.39250464 C8.74815477,8.03681962 8.96931118,7.54329007 8.96931118,7.00015797 C8.96931118,6.45702587 8.74815477,5.96336994 8.39247208,5.6078113 C8.09529473,5.31063201 7.70246408,5.10710991 7.26545901,5.04875583 L7.26545901,5.04843989 Z" id="Shape"></path>
                    <path d="M6.5,0.406454173 C6.5,0.181487325 6.723489,0 7,0 C7.27674319,0 7.5,0.181676072 7.5,0.406454173 L7.5,2.59354583 C7.5,2.81851268 7.276511,3 7,3 C6.72325681,3 6.5,2.81832393 6.5,2.59354583 L6.5,0.406454173 Z" id="Path" stroke="#64B7FF" stroke-width="0.5"></path>
                    <path d="M10.5,1.40645417 C10.5,1.18148732 10.723489,1 11,1 C11.2767432,1 11.5,1.18167607 11.5,1.40645417 L11.5,3.59354583 C11.5,3.81851268 11.276511,4 11,4 C10.7232568,4 10.5,3.81832393 10.5,3.59354583 L10.5,1.40645417 Z" id="Path-Copy" stroke="#64B7FF" stroke-width="0.5" transform="translate(11.000000, 2.500000) rotate(45.000000) translate(-11.000000, -2.500000) "></path>
                    <path d="M2.5,1.40645417 C2.5,1.18148732 2.723489,1 3,1 C3.27674319,1 3.5,1.18167607 3.5,1.40645417 L3.5,3.59354583 C3.5,3.81851268 3.276511,4 3,4 C2.72325681,4 2.5,3.81832393 2.5,3.59354583 L2.5,1.40645417 Z" id="Path-Copy-3" stroke="#64B7FF" stroke-width="0.5" transform="translate(3.000000, 2.500000) scale(-1, 1) rotate(45.000000) translate(-3.000000, -2.500000) "></path>
                    <path d="M10.5,9.40645417 C10.5,9.18148732 10.723489,9 11,9 C11.2767432,9 11.5,9.18167607 11.5,9.40645417 L11.5,11.5935458 C11.5,11.8185127 11.276511,12 11,12 C10.7232568,12 10.5,11.8183239 10.5,11.5935458 L10.5,9.40645417 Z" id="Path-Copy-2" stroke="#64B7FF" stroke-width="0.5" transform="translate(11.000000, 10.500000) scale(1, -1) rotate(45.000000) translate(-11.000000, -10.500000) "></path>
                    <path d="M2.5,9.40645417 C2.5,9.18148732 2.723489,9 3,9 C3.27674319,9 3.5,9.18167607 3.5,9.40645417 L3.5,11.5935458 C3.5,11.8185127 3.276511,12 3,12 C2.72325681,12 2.5,11.8183239 2.5,11.5935458 L2.5,9.40645417 Z" id="Path-Copy-4" stroke="#64B7FF" stroke-width="0.5" transform="translate(3.000000, 10.500000) scale(-1, -1) rotate(45.000000) translate(-3.000000, -10.500000) "></path>
                    <path d="M6.5,11.4064542 C6.5,11.1814873 6.723489,11 7,11 C7.27674319,11 7.5,11.1816761 7.5,11.4064542 L7.5,13.5935458 C7.5,13.8185127 7.276511,14 7,14 C6.72325681,14 6.5,13.8183239 6.5,13.5935458 L6.5,11.4064542 Z" id="Path" stroke="#64B7FF" stroke-width="0.5"></path>
                    <path d="M13.5935458,6 C13.8185127,6 14,6.223489 14,6.5 C14,6.77674319 13.8183239,7 13.5935458,7 L11.4064542,7 C11.1814873,7 11,6.776511 11,6.5 C11,6.22325681 11.1816761,6 11.4064542,6 L13.5935458,6 Z" id="Path" stroke="#64B7FF" stroke-width="0.5"></path>
                    <path d="M2.59354583,6 C2.81851268,6 3,6.223489 3,6.5 C3,6.77674319 2.81832393,7 2.59354583,7 L0.406454173,7 C0.181487325,7 0,6.776511 0,6.5 C0,6.22325681 0.181676072,6 0.406454173,6 L2.59354583,6 Z" id="Path" stroke="#64B7FF" stroke-width="0.5"></path>
                </g>
            </g>
        </g>
    </g>
</svg>