<?xml version="1.0" encoding="UTF-8"?>
<svg width="16px" height="18px" viewBox="0 0 16 18" version="1.1" xmlns="http://www.w3.org/2000/svg" xmlns:xlink="http://www.w3.org/1999/xlink">
    <title>@@3x</title>
    <g id="Chat" stroke="none" stroke-width="1" fill="none" fill-rule="evenodd">
        <g id="Group-chat" transform="translate(-127.000000, -223.000000)" fill="#5C63AB" fill-rule="nonzero">
            <g id="Group-14" transform="translate(102.000000, 209.000000)">
                <g id="Group-8" transform="translate(25.000000, 12.000000)">
                    <path d="M0,11.8571775 C0,16.348587 3.58744361,20 8.00015038,20 C8.46332331,20 8.84218045,19.6143562 8.84218045,19.1429373 C8.84218045,18.6715184 8.46330075,18.2858746 8.00015038,18.2858746 C4.51804511,18.2858746 1.6843609,15.4016012 1.6843609,11.8573305 L1.6843609,10.1432052 C1.6843609,6.59893453 4.51804511,3.71466108 8.00015038,3.71466108 C11.4822556,3.71466108 14.3159398,6.59893453 14.3159398,10.1432052 L14.3159398,12.7147759 C14.3159398,13.4217856 13.7476241,14.0005612 13.0527068,14.0005612 C12.3580977,14.0005612 11.7894737,13.4220994 11.7894737,12.7147759 L11.7894737,10.1432052 C11.7894737,8.0174234 10.0883459,6.28623178 8.00015038,6.28623178 C5.91165414,6.28623178 4.21082707,8.01772952 4.21082707,10.1432052 L4.21082707,11.8573305 C4.21082707,13.9831123 5.91195489,15.7143039 8.00015038,15.7143039 C9.06541353,15.7143039 10.0296241,15.26439 10.7201504,14.5400232 C11.2590977,15.2515176 12.1055639,15.7143039 13.0527068,15.7143039 C14.6780451,15.7143039 16,14.3684423 16,12.7143932 L16,10.1428225 C16,5.65141305 12.4127068,2 8,2 C3.58729323,2 0,5.65133652 0,10.1428225 L0,11.8571775 Z M8,14 C6.89592857,14 6,13.040052 6,11.8570882 L6,10.1429118 C6,8.95994796 6.89592857,8 8,8 C9.10407143,8 10,8.95994796 10,10.1429118 L10,11.8573943 C10,13.040052 9.10407143,14 8,14 Z" id="@"></path>
                </g>
            </g>
        </g>
    </g>
</svg>