<?xml version="1.0" encoding="UTF-8"?>
<svg width="23px" height="18px" viewBox="0 0 23 18" version="1.1" xmlns="http://www.w3.org/2000/svg" xmlns:xlink="http://www.w3.org/1999/xlink">
    <title>Scheduling@3x</title>
    <g id="Side-panel-" stroke="none" stroke-width="1" fill="none" fill-rule="evenodd">
        <g id="Side-panel-Copy" transform="translate(-27.000000, -454.000000)">
            <g id="Scheduling" transform="translate(0.000000, 434.000000)">
                <g transform="translate(26.500000, 17.000000)" id="Group-14">
                    <rect id="Icon-Spacing" opacity="0.2" x="0" y="0" width="24" height="24" rx="5"></rect>
                    <g id="folder" transform="translate(2.000000, 4.000000)" stroke="#5C63AB" stroke-linecap="round" stroke-width="2">
                        <path d="M0,6.5 L20,6.5 M20,5 L20,13 C20,14.6569 18.6569,16 17,16 L3,16 C1.34315,16 0,14.6569 0,13 L0,3 C0,1.34315 1.34315,0 3,0 L5.79844,0 C6.25258,0 6.6932,0.15456 7.04783,0.43826 L8.4522,1.56174 C8.8068,1.84544 9.2474,2 9.7016,2 L17,2 C18.6569,2 20,3.34315 20,5 Z" id="Shape"></path>
                    </g>
                </g>
            </g>
        </g>
    </g>
</svg>