<?xml version="1.0" encoding="UTF-8"?>
<svg width="21px" height="22px" viewBox="0 0 21 22" version="1.1" xmlns="http://www.w3.org/2000/svg" xmlns:xlink="http://www.w3.org/1999/xlink">
    <title>Setting@3x</title>
    <g id="Side-panel-" stroke="none" stroke-width="1" fill="none" fill-rule="evenodd">
        <g id="Side-panel-Copy" transform="translate(-28.000000, -858.000000)" fill="#5C63AB">
            <g id="Setting" transform="translate(0.000000, 840.000000)">
                <g transform="translate(26.500000, 17.000000)" id="ic_cettings">
                    <rect id="Icon-Spacing" opacity="0" x="0" y="0" width="24" height="24" rx="5"></rect>
                    <path d="M12,1 C13.4041928,1 14.6164305,1.97583981 14.9057089,3.33906813 L14.9620487,3.60456997 C16.0187125,3.97100667 16.9989315,4.53018512 17.8496972,5.25659712 L18.1073986,5.17297607 C19.4420195,4.73990725 20.8999631,5.29353062 21.6020595,6.5 C22.3041559,7.70646938 22.05845,9.23593256 21.0131075,10.1660921 L20.8112628,10.3456961 C21.0199755,11.4398721 21.0179809,12.5616563 20.8095169,13.6527504 L21.0131075,13.8339079 C22.05845,14.7640674 22.3041559,16.2935306 21.6020595,17.5 C20.8999631,18.7064694 19.4420195,19.2600928 18.1073986,18.8270239 L17.8489013,18.7431446 C17.4276368,19.1020768 16.9710069,19.4233955 16.4827465,19.7030681 C15.9944861,19.9827406 15.4856874,20.2144133 14.9617381,20.3968937 L14.9057089,20.6609319 C14.6164305,22.0241602 13.4041928,23 12,23 C10.5958072,23 9.38356954,22.0241602 9.0942911,20.6609319 L9.03795134,20.39543 C7.98128749,20.0289933 7.00106848,19.4698149 6.15030275,18.7434029 L5.89260144,18.8270239 C4.55798045,19.2600928 3.10003691,18.7064694 2.3979405,17.5 C1.69584409,16.2935306 1.94155,14.7640674 2.98689254,13.8339079 L3.18873722,13.6543039 C2.98002452,12.5601279 2.98201905,11.4383437 3.19048306,10.3472496 L2.98689254,10.1660921 C1.94155,9.23593256 1.69584409,7.70646938 2.3979405,6.5 C3.10003691,5.29353062 4.55798045,4.73990725 5.89260144,5.17297607 L6.15109873,5.2568554 C6.57236321,4.89792321 7.02899307,4.57660445 7.51725346,4.29693193 C8.00551386,4.01725941 8.51431259,3.78558668 9.03826194,3.60310626 L9.0942911,3.33906813 C9.38356954,1.97583981 10.5958072,1 12,1 Z M12,3 C11.5491051,3 11.1598482,3.31334814 11.0669591,3.75108909 L10.8892944,4.58833634 C10.8114745,4.95506343 10.5335057,5.24783893 10.1691714,5.34681839 C9.59910534,5.50168945 9.04776943,5.72966298 8.52520831,6.02898274 C8.00264718,6.3283025 7.52797783,6.68801842 7.10775559,7.10037836 C6.83918785,7.36392123 6.44463546,7.45636169 6.08560413,7.33986025 L5.26592651,7.0738845 C4.83737155,6.93482345 4.36921696,7.1125953 4.1437695,7.5 C3.91832205,7.8874047 3.99721972,8.37852469 4.33288561,8.67720459 L4.97652843,9.24992642 C5.25789505,9.50029012 5.37443941,9.88577875 5.27840989,10.2484464 C4.97455841,11.39598 4.97134193,12.6029051 5.27656206,13.7523709 C5.37290836,14.1152132 5.25641136,14.5010301 4.97485801,14.7515599 L4.33288561,15.3227954 C3.99721972,15.6214753 3.91832205,16.1125953 4.1437695,16.5 C4.36921696,16.8874047 4.83737155,17.0651766 5.26592651,16.9261155 L6.08555244,16.6601565 C6.44502026,16.5435134 6.84005392,16.6363288 7.10861106,16.9005297 C7.95938633,17.7375049 9.014537,18.3382039 10.1681615,18.6509044 C10.5327541,18.7497305 10.8109805,19.0426087 10.8888433,19.4095381 L11.0669591,20.2489109 C11.1598482,20.6866519 11.5491051,21 12,21 C12.4508949,21 12.8401518,20.6866519 12.9330409,20.2489109 L13.1107056,19.4116637 C13.1885255,19.0449366 13.4664943,18.7521611 13.8308286,18.6531816 C14.4008947,18.4983105 14.9522306,18.270337 15.4747917,17.9710173 C15.9973528,17.6716975 16.4720222,17.3119816 16.8922444,16.8996216 C17.1608121,16.6360788 17.5553645,16.5436383 17.9143959,16.6601398 L18.7340735,16.9261155 C19.1626285,17.0651766 19.630783,16.8874047 19.8562305,16.5 C20.081678,16.1125953 20.0027803,15.6214753 19.6671144,15.3227954 L19.0234716,14.7500736 C18.742105,14.4997099 18.6255606,14.1142212 18.7215901,13.7515536 C19.0254416,12.60402 19.0286581,11.3970949 18.7234379,10.2476291 C18.6270916,9.88478681 18.7435886,9.49896992 19.025142,9.24844006 L19.6671144,8.67720459 C20.0027803,8.37852469 20.081678,7.8874047 19.8562305,7.5 C19.630783,7.1125953 19.1626285,6.93482345 18.7340735,7.0738845 L17.9144476,7.33984347 C17.5549797,7.45648656 17.1599461,7.36367124 16.8913889,7.09947025 C16.0406137,6.26249509 14.985463,5.6617961 13.8318385,5.34909564 C13.4672459,5.25026949 13.1890195,4.95739134 13.1111567,4.59046192 L12.9330409,3.75108909 C12.8401518,3.31334814 12.4508949,3 12,3 Z M12,8.36842105 C14.0216204,8.36842105 15.6604676,9.99433433 15.6604676,12 C15.6604676,14.0056657 14.0216204,15.6315789 12,15.6315789 C9.97837957,15.6315789 8.33953241,14.0056657 8.33953241,12 C8.33953241,9.99433433 9.97837957,8.36842105 12,8.36842105 Z M12,10.3684211 C11.0917358,10.3684211 10.3554421,11.0989038 10.3554421,12 C10.3554421,12.9010962 11.0917358,13.6315789 12,13.6315789 C12.9082642,13.6315789 13.6445579,12.9010962 13.6445579,12 C13.6445579,11.0989038 12.9082642,10.3684211 12,10.3684211 Z" id="Combined-Shape"></path>
                </g>
            </g>
        </g>
    </g>
</svg>