<?xml version="1.0" encoding="UTF-8"?>
<svg width="21px" height="20px" viewBox="0 0 21 20" version="1.1" xmlns="http://www.w3.org/2000/svg" xmlns:xlink="http://www.w3.org/1999/xlink">
    <title>PCP@3x</title>
    <g id="Side-panel-" stroke="none" stroke-width="1" fill="none" fill-rule="evenodd">
        <g id="Side-panel-Copy" transform="translate(-28.000000, -627.000000)">
            <g id="PCP" transform="translate(0.000000, 608.000000)">
                <g transform="translate(26.500000, 17.000000)" id="medical_information_black_24dp">
                    <rect id="Rectangle" x="0" y="0" width="24" height="24"></rect>
                    <path d="M20,7 L15,7 L15,4 C15,2.9 14.1,2 13,2 L11,2 C9.9,2 9,2.9 9,4 L9,7 L4,7 C2.9,7 2,7.9 2,9 L2,20 C2,21.1 2.9,22 4,22 L20,22 C21.1,22 22,21.1 22,20 L22,9 C22,7.9 21.1,7 20,7 Z M11,4 L13,4 L13,9 L11,9 L11,4 Z M20,20 L4,20 L4,9 L9,9 C9,10.1 9.9,11 11,11 L13,11 C14.1,11 15,10.1 15,9 L20,9 L20,20 Z M11,16 L9,16 L9,18 L7,18 L7,16 L5,16 L5,14 L7,14 L7,12 L9,12 L9,14 L11,14 L11,16 Z M13,14.5 L13,13 L19,13 L19,14.5 L13,14.5 Z M13,17.5 L13,16 L17,16 L17,17.5 L13,17.5 Z" id="Shape" fill="#5C63AB" fill-rule="nonzero"></path>
                </g>
            </g>
        </g>
    </g>
</svg>