<?xml version="1.0" encoding="UTF-8"?>
<svg width="17px" height="20px" viewBox="0 0 17 20" version="1.1" xmlns="http://www.w3.org/2000/svg" xmlns:xlink="http://www.w3.org/1999/xlink">
    <title>Manage Credentials@3x</title>
    <g id="Side-panel-" stroke="none" stroke-width="1" fill="none" fill-rule="evenodd">
        <g id="Side-panel-Copy" transform="translate(-30.000000, -279.000000)">
            <g id="Manage-Credentials" transform="translate(0.000000, 260.000000)">
                <g transform="translate(26.500000, 17.000000)" id="Group-13">
                    <rect id="Icon-Spacing" opacity="0.2" x="0" y="0" width="24" height="24" rx="5"></rect>
                    <g id="document" transform="translate(4.000000, 2.000000)" fill="#5C63AB" fill-rule="nonzero">
                        <path d="M15,8 L16,8 C16,7.73478 15.8946,7.48043 15.7071,7.29289 L15,8 Z M8,1 L8.7071,0.29289 C8.5196,0.10536 8.2652,0 8,0 L8,1 Z M13,18 L3,18 L3,20 L13,20 L13,18 Z M2,17 L2,3 L0,3 L0,17 L2,17 Z M14,8 L14,17 L16,17 L16,8 L14,8 Z M3,2 L8,2 L8,0 L3,0 L3,2 Z M15.7071,7.29289 L8.7071,0.29289 L7.2929,1.70711 L14.2929,8.7071 L15.7071,7.29289 Z M7,1 L7,7.5 L9,7.5 L9,1 L7,1 Z M8.5,9 L15,9 L15,7 L8.5,7 L8.5,9 Z M3,18 C2.44771,18 2,17.5523 2,17 L0,17 C0,18.6569 1.34315,20 3,20 L3,18 Z M13,20 C14.6569,20 16,18.6569 16,17 L14,17 C14,17.5523 13.5523,18 13,18 L13,20 Z M7,7.5 C7,8.3284 7.6716,9 8.5,9 L8.5,7 C8.7761,7 9,7.22386 9,7.5 L7,7.5 Z M2,3 C2,2.44772 2.44772,2 3,2 L3,0 C1.34315,0 0,1.34315 0,3 L2,3 Z" id="Shape"></path>
                    </g>
                </g>
            </g>
        </g>
    </g>
</svg>