<?xml version="1.0" encoding="UTF-8"?>
<svg width="96px" height="96px" viewBox="0 0 96 96" version="1.1" xmlns="http://www.w3.org/2000/svg" xmlns:xlink="http://www.w3.org/1999/xlink">
    <title>Active trial period@3x</title>
    <g id="Accounts-(Float-Care)" stroke="none" stroke-width="1" fill="none" fill-rule="evenodd">
        <g id="Super-Admin-Panel/Manage-Accounts/Float-Care/Trial-Accounts-(Grid-View)-Copy-7" transform="translate(-865.000000, -471.000000)">
            <g id="Group-23" transform="translate(553.000000, 344.000000)">
                <g id="Group-22" transform="translate(35.000000, 106.000000)">
                    <g id="Group-21" transform="translate(225.000000, 0.000000)">
                        <g id="Group-19" transform="translate(13.000000, 21.000000)">
                            <g id="Active-trial-period" transform="translate(39.000000, 0.000000)">
                                <rect id="Rectangle" stroke-opacity="0.4" stroke="#5563AB" fill-opacity="0.1" fill="#5563AB" x="0.5" y="0.5" width="95" height="95" rx="15"></rect>
                                <g id="Group-15" transform="translate(27.000000, 20.000000)" fill="#5C63AB" fill-rule="nonzero">
                                    <path d="M21.5,20 C13.5031464,20 7,26.5031464 7,34.5 C7,42.4968536 13.5031464,49 21.5,49 C29.4968536,49 36,42.4968536 36,34.5 C36,26.5031464 29.4968536,20 21.5,20 Z M29.6057071,26.8972357 L22.3557071,34.1472357 C22.1182179,34.3843211 21.8095336,34.5000207 21.5000311,34.5000207 C21.1905286,34.5000207 20.88143,34.3822911 20.644355,34.1472357 C20.1730221,33.6791446 20.1730221,32.910075 20.644355,32.4387214 L27.894355,25.1887214 C28.3624461,24.7198225 29.1315157,24.7198225 29.6028693,25.1887214 C30.0737982,25.6596504 30.0762218,26.4235 29.6057013,26.8972357 L29.6057071,26.8972357 Z" id="Shape"></path>
                                    <path d="M15.2494908,9 L27.7498563,9 C28.4374996,9 29,8.49376446 29,7.87490357 L28.9995815,1.12509643 C28.9995815,0.506235536 28.4370811,0 27.7494378,0 L15.2501437,0 C14.5599932,0 14,0.506235536 14,1.12509643 L14,7.87490357 C14,8.49376446 14.5599932,9 15.2501437,9 L15.2494908,9 Z" id="Path"></path>
                                    <path d="M26.2777095,12.7758563 L26.2777095,11 L16.721881,11 L16.721881,12.7758563 C7.16165,14.9988301 0,23.7072498 0,34.1080236 C0,46.1798849 9.64623095,56 21.5,56 C33.353769,56 43,46.1804061 43,34.1080236 C43,23.7142344 35.8381452,15.0004981 26.278119,12.7758563 L26.2777095,12.7758563 Z M21.4997952,51.1347689 C12.2787524,51.1347689 4.77791429,43.4945733 4.77791429,34.1080236 C4.77791429,24.7214738 12.2789571,17.0812783 21.4997952,17.0812783 C30.7184833,17.0812783 38.2216762,24.7214738 38.2216762,34.1080236 C38.2216762,43.4945733 30.7182786,51.1347689 21.4997952,51.1347689 L21.4997952,51.1347689 Z" id="Shape"></path>
                                </g>
                            </g>
                        </g>
                    </g>
                </g>
            </g>
        </g>
    </g>
</svg>