<?xml version="1.0" encoding="UTF-8"?>
<svg width="20px" height="18px" viewBox="0 0 20 18" version="1.1" xmlns="http://www.w3.org/2000/svg" xmlns:xlink="http://www.w3.org/1999/xlink">
    <title>E-Notify@3x</title>
    <g id="Side-panel-" stroke="none" stroke-width="1" fill="none" fill-rule="evenodd">
        <g id="Side-panel-Copy" transform="translate(-28.000000, -686.000000)" fill="#5C63AB">
            <g id="E-Notify" transform="translate(0.000000, 666.000000)">
                <g transform="translate(26.000000, 17.000000)" id="ic_cettings">
                    <rect id="Icon-Spacing" opacity="0" x="0" y="0" width="24" height="24" rx="5"></rect>
                    <path d="M22,9.98 L22,19 C22,20.1 21.1,21 20,21 L4,21 C2.9,21 2,20.1 2,19 L2.01,7 C2.01,5.9 2.9,5 4,5 L14.1,5 C14.04,5.32 14,5.66 14,6 C14,6.34 14.04,6.68 14.1,7 L4,7 L12,12 L15.67,9.71 C16.14,10.14 16.69,10.47 17.3,10.69 L12,14 L4,9 L4,19 L20,19 L20,10.9 C20.74,10.75 21.42,10.42 22,9.98 Z M16,6 C16,7.66 17.34,9 19,9 C20.66,9 22,7.66 22,6 C22,4.34 20.66,3 19,3 C17.34,3 16,4.34 16,6 Z" id="Shape" fill-rule="nonzero"></path>
                </g>
            </g>
        </g>
    </g>
</svg>