<?xml version="1.0" encoding="UTF-8"?>
<svg width="33px" height="33px" viewBox="0 0 33 33" version="1.1" xmlns="http://www.w3.org/2000/svg" xmlns:xlink="http://www.w3.org/1999/xlink">
    <title>Add@3x</title>
    <defs>
        <path d="M13.75,0 C6.16,0 0,6.16 0,13.75 C0,21.34 6.16,27.5 13.75,27.5 C21.34,27.5 27.5,21.34 27.5,13.75 C27.5,6.16 21.34,0 13.75,0 L13.75,0 Z M20.625,15.125 L15.125,15.125 L15.125,20.625 L12.375,20.625 L12.375,15.125 L6.875,15.125 L6.875,12.375 L12.375,12.375 L12.375,6.875 L15.125,6.875 L15.125,12.375 L20.625,12.375 L20.625,15.125 L20.625,15.125 Z" id="path-1"></path>
        <rect id="path-3" x="0" y="0" width="68.75" height="68.75"></rect>
    </defs>
    <g id="Chat" stroke="none" stroke-width="1" fill="none" fill-rule="evenodd">
        <g id="Chat-/Privat-/-New-conversation" transform="translate(-411.000000, -149.000000)">
            <g id="Add" transform="translate(411.000000, 149.000000)">
                <g id="Icons/ic_add_circle" transform="translate(2.750000, 2.750000)">
                    <mask id="mask-2" fill="white">
                        <use xlink:href="#path-1"></use>
                    </mask>
                    <g id="Mask"></g>
                    <g id="🎨-Color" mask="url(#mask-2)">
                        <g transform="translate(-20.625000, -20.625000)">
                            <mask id="mask-4" fill="white">
                                <use xlink:href="#path-3"></use>
                            </mask>
                            <use id="Color" stroke="none" fill="#0070FF" fill-rule="evenodd" xlink:href="#path-3"></use>
                        </g>
                    </g>
                </g>
            </g>
        </g>
    </g>
</svg>