<?xml version="1.0" encoding="UTF-8"?>
<svg width="93px" height="118px" viewBox="0 0 93 118" version="1.1" xmlns="http://www.w3.org/2000/svg" xmlns:xlink="http://www.w3.org/1999/xlink">
    <title>Added@3x</title>
    <g id="Symbols" stroke="none" stroke-width="1" fill="none" fill-rule="evenodd">
        <g id="Card/Documents" transform="translate(-84.000000, -45.000000)" fill="#1F3D5A" fill-rule="nonzero">
            <g id="Added" transform="translate(84.000000, 45.000000)">
                <path d="M79.8326719,18.9997917 L89,18.9997917 L74,4 L74,13.1672007 C74,14.7692659 74.6522283,16.2154937 75.7148597,17.2851641 C76.7821342,18.3477808 78.2284416,19 79.8328803,19 L79.8326719,18.9997917 Z" id="Path"></path>
                <path d="M79.7111508,24.0982948 C73.758273,24.0878609 68.9266382,19.2536469 68.9174452,13.2960714 L68.9174452,12 C68.9174452,5.372583 63.5448622,2.89253516e-15 56.9174452,0 L12,0 C5.372583,2.99379359e-15 9.64732338e-16,5.372583 0,12 L0,106 C8.11624501e-16,112.627417 5.372583,118 12,118 L81,118 C87.627417,118.000592 93,112.628009 93,106.000592 C93,106.000395 93,106.000197 92.9994079,106 L92.9959586,36.0985915 C92.9947713,29.4715105 87.6224475,24.0993318 80.9953665,24.0983235 L79.7111508,24.0982948 L79.7111508,24.0982948 Z M14.1120628,28.2532243 C14.1120628,26.8759839 15.2275823,25.7607414 16.6025803,25.7607414 L29.8881675,25.7607414 C31.2631654,25.7607414 32.378685,26.8759839 32.378685,28.2532243 C32.378685,29.6293073 31.2631654,30.7457081 29.8881675,30.7457081 L16.6025803,30.7457081 C15.2287389,30.7468665 14.1120628,29.6293073 14.1120628,28.2532243 Z M68.083556,80.605337 L24.9063614,80.605337 C23.5313635,80.605337 22.4158439,79.4889371 22.4158439,78.1128541 C22.4158439,76.7356137 23.5313635,75.6203712 24.9063614,75.6203712 L68.083556,75.6203712 C69.4585539,75.6203712 70.5740744,76.7356137 70.5740744,78.1128541 C70.5752318,79.4877797 69.4597105,80.605337 68.083556,80.605337 Z M68.083556,63.9856187 L24.9063614,63.9856187 C23.5313635,63.9856187 22.4158439,62.8692188 22.4158439,61.4931358 C22.4158439,60.1158954 23.5313635,59.0006529 24.9063614,59.0006529 L68.083556,59.0006529 C69.4585539,59.0006529 70.5740744,60.1158954 70.5740744,61.4931358 C70.5752318,62.8680614 69.4597105,63.9856187 68.083556,63.9856187 Z M68.083556,47.3659004 L24.9063614,47.3659004 C23.5313635,47.3659004 22.4158439,46.2495005 22.4158439,44.8734175 C22.4158439,43.4961771 23.5313635,42.3809346 24.9063614,42.3809346 L68.083556,42.3809346 C69.4585539,42.3809346 70.5740744,43.4961771 70.5740744,44.8734175 C70.5752318,46.2483431 69.4597105,47.3659004 68.083556,47.3659004 Z" id="Shape"></path>
            </g>
        </g>
    </g>
</svg>