<?xml version="1.0" encoding="UTF-8"?>
<svg width="18px" height="18px" viewBox="0 0 18 18" version="1.1" xmlns="http://www.w3.org/2000/svg" xmlns:xlink="http://www.w3.org/1999/xlink">
    <title>Shape@3x</title>
    <g id="Chat" stroke="none" stroke-width="1" fill="none" fill-rule="evenodd">
        <g id="Group-chat-/Unarchive-chat" transform="translate(-127.000000, -270.000000)" fill="#5C63AB" fill-rule="nonzero">
            <g id="Group-14" transform="translate(102.000000, 209.000000)">
                <g id="Group-13" transform="translate(25.000000, 59.000000)">
                    <path d="M16,2 L2,2 C0.9,2 0,2.9 0,4 L0,18 C0,19.1 0.9,20 2,20 L16,20 C17.1,20 18,19.1 18,18 L18,4 C18,2.9 17.1,2 16,2 Z M16,13 L12.44,13 C12.08,13 11.76,13.19 11.58,13.5 C11.06,14.4 10.11,15 9,15 C7.89,15 6.94,14.4 6.42,13.5 C6.24,13.19 5.91,13 5.56,13 L2,13 L2,4 L16,4 L16,13 Z M11.79,9 L10,9 L10,6 C10,5.45 9.55,5 9,5 L9,5 C8.45,5 8,5.45 8,6 L8,9 L6.21,9 C5.76,9 5.54,9.54 5.86,9.85 L8.65,12.64 C8.85,12.84 9.16,12.84 9.36,12.64 L12.15,9.85 C12.46,9.54 12.24,9 11.79,9 Z" id="Shape"></path>
                </g>
            </g>
        </g>
    </g>
</svg>