<?xml version="1.0" encoding="UTF-8"?>
<svg width="96px" height="96px" viewBox="0 0 96 96" version="1.1" xmlns="http://www.w3.org/2000/svg" xmlns:xlink="http://www.w3.org/1999/xlink">
    <title>Ask for payment@3x</title>
    <g id="Accounts-(Float-Care)" stroke="none" stroke-width="1" fill="none" fill-rule="evenodd">
        <g id="Super-Admin-Panel/Manage-Accounts/Float-Care/Trial-Accounts-(Grid-View)-Copy-7" transform="translate(-640.000000, -471.000000)">
            <g id="Group-23" transform="translate(553.000000, 344.000000)">
                <g id="Group-22" transform="translate(35.000000, 106.000000)">
                    <g id="Group-17" transform="translate(13.000000, 21.000000)">
                        <g id="Ask-for-payment" transform="translate(39.000000, 0.000000)">
                            <rect id="Rectangle" stroke-opacity="0.4" stroke="#5563AB" fill-opacity="0.1" fill="#5563AB" x="0.5" y="0.5" width="95" height="95" rx="15"></rect>
                            <g id="Group-12" transform="translate(22.000000, 22.000000)" fill="#5C63AB" fill-rule="nonzero">
                                <path d="M6,13 C6,12.7 6,12.3 5.9,12 L3,12 C1.3,12 0,13.3 0,15 L0,19 C3.3,19 6,16.3 6,13 Z" id="Path"></path>
                                <path d="M26,38 C27.7,38 29,36.7 29,35 L29,24 L23,24 L23,35 C23,36.7 24.3,38 26,38 Z M25,33 C25,32.4 25.4,32 26,32 C26.6,32 27,32.4 27,33 L27,35 C27,35.6 26.6,36 26,36 C25.4,36 25,35.6 25,35 L25,33 Z" id="Shape"></path>
                                <path d="M50.7011429,24 L31.0005714,24 L31.0005714,35.0002245 C31.0005714,37.8002816 28.8005714,40.0003265 26.0005714,40.0003265 C23.2005714,40.0003265 21.0005714,37.8002816 21.0005714,35.0002245 L21.0005714,24 L1.3,24 C0.7,24 0,25.1000224 0,26.500051 L0,26.7000551 L0,26.9000592 L0,47.5999102 C0,49.9999592 1.2,52 2.5,52 L49.5,52 C50.8,52 52,49.9999592 52,47.6999122 L52,27.0000612 L52,26.8000571 L52,26.6000531 C52,25.1000224 51.3,24 50.7,24 L50.7011429,24 Z" id="Path"></path>
                                <path d="M31,21 C30.4897959,18.3104999 27.7346939,16.5174998 24.9795918,17.1151665 C22.9387755,17.513611 21.4081633,19.0077777 21,21 L31,21 Z" id="Path"></path>
                                <path d="M19.0994286,21.4711538 C19.6994286,17.4519231 23.2994286,14.7019231 27.0994286,15.2307692 C30.0994286,15.7596154 32.4994286,18.1923077 32.9994286,21.4711538 L50.7,21.4711538 C51.2,21.4711538 51.6,21.5769231 52,21.8942308 L52,20.4134615 C48,19.8846154 45,16.2884615 45,12.0576923 C45,11.7403846 45,11.3173077 45.1,11 L7.9,11 C7.9,11.3173077 8,11.7403846 8,12.0576923 C8,16.7115385 4.4,20.5192308 0,20.5192308 L0,22 C0.4,21.5769231 0.9,21.4711538 1.3,21.4711538 L19.0994286,21.4711538 Z" id="Path"></path>
                                <path d="M47.1,11 C47,11.3043478 47,11.7101449 47,12.0144928 C47,14.9565217 49.1,17.4927536 52,18 L52,14.0434783 C52,12.3188406 50.7,11 49,11 L47.1,11 Z" id="Path"></path>
                                <path d="M49,10 C50.1,10 51.1,10.3 52,11 L52,9 C52,7.3 50.7,6 49,6 L3,6 C1.3,6 0,7.3 0,9 L0,11 C0.9,10.3 1.9,10 3,10 L49,10 Z" id="Path"></path>
                                <path d="M3,4 L49,4 C50.1,4 51.1,4.4 52,5 L52,3 C52,1.3 50.7,0 49,0 L3,0 C1.3,0 0,1.3 0,3 L0,5 L0.1,5 C0.9,4.4 1.9,4 3,4 Z" id="Path"></path>
                            </g>
                        </g>
                    </g>
                </g>
            </g>
        </g>
    </g>
</svg>