<?xml version="1.0" encoding="UTF-8"?>
<svg width="24px" height="24px" viewBox="0 0 24 24" version="1.1" xmlns="http://www.w3.org/2000/svg" xmlns:xlink="http://www.w3.org/1999/xlink">
    <title>Attachment@3x</title>
    <defs>
        <path d="M7.91666667,4.16666667 L7.91666667,13.75 C7.91666667,15.5916667 6.425,17.0833333 4.58333333,17.0833333 C2.74166667,17.0833333 1.25,15.5916667 1.25,13.75 L1.25,3.33333333 C1.25,2.18333333 2.18333333,1.25 3.33333333,1.25 C4.48333333,1.25 5.41666667,2.18333333 5.41666667,3.33333333 L5.41666667,12.0833333 C5.41666667,12.5416667 5.04166667,12.9166667 4.58333333,12.9166667 C4.125,12.9166667 3.75,12.5416667 3.75,12.0833333 L3.75,4.16666667 L2.5,4.16666667 L2.5,12.0833333 C2.5,13.2333333 3.43333333,14.1666667 4.58333333,14.1666667 C5.73333333,14.1666667 6.66666667,13.2333333 6.66666667,12.0833333 L6.66666667,3.33333333 C6.66666667,1.49166667 5.175,-8.8817842e-16 3.33333333,-8.8817842e-16 C1.49166667,-8.8817842e-16 -8.8817842e-16,1.49166667 -8.8817842e-16,3.33333333 L-8.8817842e-16,13.75 C-8.8817842e-16,16.2833333 2.05,18.3333333 4.58333333,18.3333333 C7.11666667,18.3333333 9.16666667,16.2833333 9.16666667,13.75 L9.16666667,4.16666667 L7.91666667,4.16666667 L7.91666667,4.16666667 Z" id="path-1"></path>
        <rect id="path-3" x="0" y="0" width="41.6666667" height="41.6666667"></rect>
    </defs>
    <g id="Chat" stroke="none" stroke-width="1" fill="none" fill-rule="evenodd">
        <g id="Group-chat-/Menu" transform="translate(-1055.000000, -954.000000)">
            <g id="Group-5" transform="translate(483.000000, 929.000000)">
                <g id="Attachment" transform="translate(572.000000, 25.000000)">
                    <rect id="Rectangle" x="0" y="0" width="24" height="24"></rect>
                    <g id="Material-Icons/ic_folder-Copy-8" transform="translate(7.833333, 2.833333)">
                        <mask id="mask-2" fill="white">
                            <use xlink:href="#path-1"></use>
                        </mask>
                        <g id="Mask"></g>
                        <g id="🎨-Color" mask="url(#mask-2)">
                            <g transform="translate(-16.666667, -11.666667)">
                                <mask id="mask-4" fill="white">
                                    <use xlink:href="#path-3"></use>
                                </mask>
                                <use id="Color" stroke="none" fill="#B5B5BE" fill-rule="evenodd" xlink:href="#path-3"></use>
                            </g>
                        </g>
                    </g>
                </g>
            </g>
        </g>
    </g>
</svg>