<?xml version="1.0" encoding="UTF-8"?>
<svg width="1403px" height="270px" viewBox="0 0 1403 270" version="1.1" xmlns="http://www.w3.org/2000/svg" xmlns:xlink="http://www.w3.org/1999/xlink">
    <title>BG with color@3x</title>
    <defs>
        <rect id="path-1" x="0" y="0" width="1403" height="270" rx="25"></rect>
    </defs>
    <g id="BG-with-color" stroke="none" stroke-width="1" fill="none" fill-rule="evenodd">
        <g id="Shape-+-Group-18-+-Group-27-+-Group-27-Copy-+-Group-30-+-Group-31-+-noun-legal-document-4389618-+-Group-32-+-Group-32-Copy-+-Group-38-+-Group-38-Copy-+-Group-40-+-Group-40-Copy-Mask">
            <mask id="mask-2" fill="white">
                <use xlink:href="#path-1"></use>
            </mask>
            <use id="Mask" fill="#3E8ACC" xlink:href="#path-1"></use>
            <g id="BG" mask="url(#mask-2)">
                <g transform="translate(75.767001, 45.000000)">
                    <path d="M719.775994,140.189233 C719.775994,138.743651 720.638127,138.001763 721.494066,138 C722.350006,138.001785 723.212138,138.743716 723.212138,140.189233 L723.212138,140.953058 C723.80482,141.323121 724.265461,141.881153 724.510212,142.542212 L733.184902,142.542212 C733.637841,142.542212 734.02951,142.817911 734.196323,143.208103 L734.19864,143.213204 L739.011916,156.928634 C739.037909,157.00234 739.037394,157.076555 738.994416,157.141845 C738.951181,157.207644 738.88324,157.243605 738.804235,157.243605 L736.913486,157.243605 C736.821613,157.243605 736.733595,157.195913 736.705806,157.1092 L733.194753,146.365761 L729.717696,157.108547 C729.689387,157.195258 729.601375,157.243462 729.509496,157.243462 L727.619999,157.243462 C727.540993,157.243462 727.473049,157.207501 727.429817,157.14221 C727.386585,157.076919 727.386582,157.003215 727.411545,156.929 L731.531216,144.719805 L724.510824,144.719805 C724.266086,145.381387 723.805425,145.939419 723.21275,146.309482 L723.21275,168.870375 C723.21275,169.291697 723.326245,169.653331 723.566352,170.000477 C724.905866,171.937234 727.041103,171.536093 729.52176,171.893359 C731.223362,172.137941 731.147993,174 729.80562,174 L713.184237,174 C711.84189,174 711.766455,172.138196 713.468096,171.893359 C715.948424,171.536047 718.083727,171.937226 719.423504,170.000477 C719.663612,169.65337 719.777107,169.291756 719.777107,168.870375 L719.777107,146.309482 C719.184425,145.939419 718.723784,145.381387 718.479032,144.719805 L711.458641,144.719805 L715.59017,156.929 C715.615648,157.002705 715.615134,157.076411 715.571899,157.14221 C715.528664,157.2075 715.461237,157.243462 715.382231,157.243462 L713.493788,157.243462 C713.401144,157.243462 713.313897,157.195769 713.285587,157.108547 L709.794893,146.365761 L706.318297,157.108547 C706.290502,157.195258 706.202489,157.243462 706.110096,157.243462 L704.220599,157.243462 C704.142364,157.243462 704.074163,157.207501 704.030931,157.14221 C703.987699,157.076919 703.986666,157.002705 704.012144,156.929 L708.790635,143.212916 L708.792951,143.207816 C708.959712,142.81735 709.351407,142.541925 709.804373,142.541925 L718.479063,142.541925 C718.723801,141.880866 719.184462,141.323095 719.777137,140.952771 L719.777137,140.188945 L719.775994,140.189233 Z M715.978907,159.261575 C715.338934,161.969428 712.681108,164 709.500534,164 C706.319224,164 703.661646,161.969428 703.021626,159.261575 C702.946657,158.94341 703.026328,158.640613 703.252537,158.387238 C703.478487,158.134124 703.788286,158 704.148472,158 L714.852475,158 C715.212427,158 715.522521,158.134124 715.748945,158.387238 C715.974895,158.640825 716.054825,158.943379 715.979335,159.261575 L715.978907,159.261575 Z M739.00134,159.261575 C738.361877,161.969428 735.704215,164 732.522845,164 C729.34201,164 726.684315,161.969428 726.04435,159.261575 C725.968858,158.94341 726.049052,158.640613 726.275265,158.387238 C726.501219,158.134124 726.811024,158 727.171217,158 L737.875423,158 C738.235381,158 738.544945,158.134124 738.771374,158.387238 C738.99785,158.640825 739.07726,158.943379 739.001768,159.261575 L739.00134,159.261575 Z M721.512353,142.000608 L721.491949,142 C720.674026,142 720.010885,142.671932 720.010885,143.5 C720.010885,144.328068 720.674011,145 721.491949,145 L721.512353,144.999392 L721.532756,145 C722.350679,145 723.01382,144.328068 723.01382,143.5 C723.01382,142.671932 722.350695,142 721.532756,142 L721.512353,142.000608 Z" id="Shape" fill="#FFFFFF" fill-rule="nonzero" opacity="0.08" transform="translate(721.011863, 156.000000) rotate(-24.000000) translate(-721.011863, -156.000000) "></path>
                    <g id="Group-18" opacity="0.08" fill-rule="evenodd" stroke-width="1" fill="none" transform="translate(224.583292, 66.000000)">
                        <path d="M23.0516596,20.1165049 C22.6629301,19.7281553 22.6629301,19.1456311 23.0516596,18.7572816 L23.926301,17.8834951 L20.1361883,14.0970874 L19.2615469,14.9708738 C18.8728174,15.3592233 18.2897232,15.3592233 17.9009937,14.9708738 L17.5122642,14.5825243 C16.7348052,13.8058252 15.3742519,13.8058252 14.5967929,14.5825243 C14.2080634,14.9708738 14.0136986,15.4563107 14.0136986,16.038835 C14.0136986,16.6213592 14.2080634,17.1067961 14.5967929,17.4951456 L20.5249178,23.4174757 C21.3023768,24.1941748 22.6629301,24.1941748 23.4403891,23.4174757 C23.8291186,23.0291262 24.0234834,22.5436893 24.0234834,21.961165 C24.0234834,21.3786408 23.8291186,20.8932039 23.4403891,20.5048544 L23.0516596,20.1165049 Z" id="Path" fill="#FFFFFF" fill-rule="nonzero"></path>
                        <path d="M28.999221,4.01960784 C29.3879505,4.41176471 29.3879505,5 28.999221,5.39215686 L28.221762,6.17647059 L31.9146923,9.90196078 L32.7893337,9.01960784 C33.1780632,8.62745098 33.7611574,8.62745098 34.149887,9.01960784 L34.5386165,9.41176471 C35.3160755,10.1960784 36.6766287,10.1960784 37.4540877,9.41176471 C37.8428172,9.01960784 38.037182,8.52941176 38.037182,7.94117647 C38.037182,7.35294118 37.8428172,6.8627451 37.4540877,6.47058824 L31.5259628,0.588235294 C30.7485038,-0.196078431 29.3879505,-0.196078431 28.6104915,0.588235294 C27.8330325,1.37254902 27.8330325,2.74509804 28.6104915,3.52941176 L28.999221,4.01960784 Z" id="Path" fill="#FFFFFF" fill-rule="nonzero"></path>
                        <polygon id="Path" fill="#FFFFFF" fill-rule="nonzero" points="0.911605396 41 0 41 0 47 17.0166341 47 17.0166341 41"></polygon>
                        <polygon id="Path" fill="#FFFFFF" fill-rule="nonzero" points="2.00195695 37 15.0146771 37 15.0146771 40 2.00195695 40"></polygon>
                        <path d="M26.7261252,7.2 C26.6260274,7.2 26.5259295,7.1 26.4258317,7 C26.3257339,6.9 26.3257339,6.8 26.225636,6.7 L24.6240705,5 L19.018591,10.6 L27.4268102,19 L33.0322896,13.4 L26.7261252,7.2 Z" id="Path" fill="#FFFFFF" fill-rule="nonzero"></path>
                        <path d="M6.72085547,32.7073171 C6.5301929,32.902439 6.33953033,33 6.05353648,33 C5.76754263,33 5.57688007,32.902439 5.3862175,32.7073171 L3.28892927,30.6585366 C2.90760414,30.2682927 2.90760414,29.6829268 3.28892927,29.2926829 C3.6702544,28.902439 4.2422421,28.902439 4.62356724,29.2926829 L6.72085547,31.3414634 C7.1021806,31.7317073 7.1021806,32.3170732 6.72085547,32.7073171 Z" id="Path" fill="#FFFFFF" fill-rule="nonzero"></path>
                        <path d="M10.0097847,28 L10.0097847,31 C10.0097847,31.5 9.5092955,32 9.00880626,32 C8.50831703,32 8.00782779,31.5 8.00782779,31 L8.00782779,28 C8.00782779,27.5 8.50831703,27 9.00880626,27 C9.5092955,27 10.0097847,27.5 10.0097847,28 Z" id="Path" fill="#FFFFFF" fill-rule="nonzero"></path>
                        <path d="M13.7207293,30.6585366 L11.6699442,32.7073171 C11.4746313,32.902439 11.2793184,33 10.9863491,33 C10.6933798,33 10.4980669,32.902439 10.302754,32.7073171 C9.9121283,32.3170732 9.9121283,31.7317073 10.302754,31.3414634 L12.3535392,29.2926829 C12.744165,28.902439 13.3301036,28.902439 13.7207293,29.2926829 C14.1113551,29.6829268 14.1113551,30.2682927 13.7207293,30.6585366 Z" id="Path" fill="#FFFFFF" fill-rule="nonzero"></path>
                        <polygon id="Path" fill="#FFFFFF" fill-rule="nonzero" points="30.0293542 17.4333096 31.4640663 16 52.0508806 36.5666904 50.6161685 38"></polygon>
                    </g>
                    <g id="Group-27" opacity="0.08" fill-rule="evenodd" stroke-width="1" fill="none" transform="translate(88.893957, 38.000000) rotate(32.000000) translate(-88.893957, -38.000000) translate(65.370963, 9.000000)">
                        <path d="M45.2091309,0 L1.81775004,0 C0.816648894,0 0,0.812040648 0,1.81691831 L0,56.1830817 C0,57.1884233 0.816682221,58 1.8273037,58 L45.2186846,58 C46.2297726,58 47.0459883,57.1879594 47.0459883,56.1830817 L47.0459883,1.81691831 C47.0268943,0.812007511 46.2102209,0 45.2091309,0 L45.2091309,0 Z M43.3818272,54.3661634 L3.64527591,54.3661634 L3.64527591,3.62411634 L43.3918252,3.62411634 L43.3918252,54.3661634 L43.3818272,54.3661634 Z" id="Shape" fill="#FFFFFF" fill-rule="nonzero"></path>
                        <path d="M13.978616,32.9207889 C14.147171,32.9703511 14.3351831,33 14.5139196,33 C14.6922031,33 14.8704867,32.9703511 15.0492232,32.9207889 C17.9132891,32.0685008 19.9346362,30.5019284 21.0644524,28.2522023 C22.9570304,24.4854774 21.4705678,20.2823787 21.4015625,20.1040682 C21.2130975,19.588531 20.8167105,19.1920336 20.3114983,18.993785 C19.8062861,18.8052675 19.2311626,18.8450984 18.7556228,19.102645 C17.2394992,19.9354707 16.2189726,18.9539585 15.9512415,18.6468543 C15.2478358,17.7843819 13.771113,17.7843819 13.067696,18.6468543 C12.9486893,18.7858096 11.8984677,20.0049144 10.2730545,19.102645 C9.79748075,18.8349187 9.23253869,18.7955408 8.71717899,18.993785 C8.21196678,19.1823025 7.80539832,19.588531 7.62711478,20.1040682 C7.55765871,20.2824014 6.07123923,24.4854774 7.96422492,28.2522023 C9.08304417,30.4921859 11.1144822,32.0583505 13.978548,32.9207889 L13.978616,32.9207889 Z M10.7579151,23.1274173 C12.2346265,23.3057504 13.532624,22.8596909 14.5036588,22.2450294 C15.4747164,22.8495066 16.7731442,23.3057504 18.2494026,23.1274173 C18.3484994,24.1385762 18.308684,25.4369578 17.714099,26.5967692 C17.1195185,27.7663231 16.0591267,28.6191323 14.4933981,29.1740021 C12.9277827,28.6089027 11.8770175,27.7663231 11.2726972,26.5967692 C10.6980267,25.4471534 10.6586485,24.1483413 10.7577452,23.1274173 L10.7579151,23.1274173 Z" id="Shape" fill="#FFFFFF" fill-rule="nonzero"></path>
                        <path d="M13.8402428,12 L33.2057456,12 C34.2174961,12 35.0342466,11.1061341 35.0342466,10 C35.0342466,8.89335522 34.2170293,8 33.2057456,8 L13.8402428,8 C12.8284923,8 12.0117417,8.89386589 12.0117417,10 C12.0113077,11.1066448 12.8380744,12 13.8402428,12 Z" id="Path" fill="#FFFFFF" fill-rule="nonzero"></path>
                        <path d="M24.0234834,20 C24.0234834,21.1066448 24.8500355,22 25.8728706,22 L38.1897517,22 C39.2130591,22 40.0391389,21.1061341 40.0391389,20 C40.0391389,18.8933552 39.2125868,18 38.1897517,18 L25.8627518,18 C24.849552,18 24.0234834,18.8938659 24.0234834,20 L24.0234834,20 Z" id="Path" fill="#FFFFFF" fill-rule="nonzero"></path>
                        <path d="M38.1897517,25 L25.8728706,25 C24.8495633,25 24.0234834,25.8938659 24.0234834,27 C24.0234834,28.1066448 24.8500355,29 25.8728706,29 L38.1897517,29 C39.2130591,29 40.0391389,28.1061341 40.0391389,27 C40.0391389,25.8933552 39.202929,25 38.1897517,25 L38.1897517,25 Z" id="Path" fill="#FFFFFF" fill-rule="nonzero"></path>
                        <path d="M38.1897517,31 L25.8728706,31 C24.8495633,31 24.0234834,31.8938659 24.0234834,33 C24.0234834,34.1066448 24.8500355,35 25.8728706,35 L38.1897517,35 C39.2130591,35 40.0391389,34.1061341 40.0391389,33 C40.0391389,31.8938294 39.202929,31 38.1897517,31 Z" id="Path" fill="#FFFFFF" fill-rule="nonzero"></path>
                        <path d="M9.79892348,42 L38.2480433,42 C39.2390966,42 40.0391389,41.1061341 40.0391389,40 C40.0391389,38.8933552 39.2386393,38 38.2480433,38 L9.79892348,38 C8.80787013,38 8.00782779,38.8938659 8.00782779,40 C8.00782779,41.1066448 8.81768092,42 9.79892348,42 Z" id="Path" fill="#FFFFFF" fill-rule="nonzero"></path>
                        <path d="M9.79892348,49 L38.2480433,49 C39.2390966,49 40.0391389,48.1061341 40.0391389,47 C40.0391389,45.8933552 39.2386393,45 38.2480433,45 L9.79892348,45 C8.80787013,45 8.00782779,45.8938659 8.00782779,47 C8.00782779,48.1061706 8.81768092,49 9.79892348,49 Z" id="Path" fill="#FFFFFF" fill-rule="nonzero"></path>
                    </g>
                    <g id="Group-27-Copy" opacity="0.08" fill-rule="evenodd" stroke-width="1" fill="none" transform="translate(979.893957, 38.000000) rotate(32.000000) translate(-979.893957, -38.000000) translate(956.370963, 9.000000)">
                        <path d="M45.2091309,0 L1.81775004,0 C0.816648894,0 0,0.812040648 0,1.81691831 L0,56.1830817 C0,57.1884233 0.816682221,58 1.8273037,58 L45.2186846,58 C46.2297726,58 47.0459883,57.1879594 47.0459883,56.1830817 L47.0459883,1.81691831 C47.0268943,0.812007511 46.2102209,0 45.2091309,0 L45.2091309,0 Z M43.3818272,54.3661634 L3.64527591,54.3661634 L3.64527591,3.62411634 L43.3918252,3.62411634 L43.3918252,54.3661634 L43.3818272,54.3661634 Z" id="Shape" fill="#FFFFFF" fill-rule="nonzero"></path>
                        <path d="M13.978616,32.9207889 C14.147171,32.9703511 14.3351831,33 14.5139196,33 C14.6922031,33 14.8704867,32.9703511 15.0492232,32.9207889 C17.9132891,32.0685008 19.9346362,30.5019284 21.0644524,28.2522023 C22.9570304,24.4854774 21.4705678,20.2823787 21.4015625,20.1040682 C21.2130975,19.588531 20.8167105,19.1920336 20.3114983,18.993785 C19.8062861,18.8052675 19.2311626,18.8450984 18.7556228,19.102645 C17.2394992,19.9354707 16.2189726,18.9539585 15.9512415,18.6468543 C15.2478358,17.7843819 13.771113,17.7843819 13.067696,18.6468543 C12.9486893,18.7858096 11.8984677,20.0049144 10.2730545,19.102645 C9.79748075,18.8349187 9.23253869,18.7955408 8.71717899,18.993785 C8.21196678,19.1823025 7.80539832,19.588531 7.62711478,20.1040682 C7.55765871,20.2824014 6.07123923,24.4854774 7.96422492,28.2522023 C9.08304417,30.4921859 11.1144822,32.0583505 13.978548,32.9207889 L13.978616,32.9207889 Z M10.7579151,23.1274173 C12.2346265,23.3057504 13.532624,22.8596909 14.5036588,22.2450294 C15.4747164,22.8495066 16.7731442,23.3057504 18.2494026,23.1274173 C18.3484994,24.1385762 18.308684,25.4369578 17.714099,26.5967692 C17.1195185,27.7663231 16.0591267,28.6191323 14.4933981,29.1740021 C12.9277827,28.6089027 11.8770175,27.7663231 11.2726972,26.5967692 C10.6980267,25.4471534 10.6586485,24.1483413 10.7577452,23.1274173 L10.7579151,23.1274173 Z" id="Shape" fill="#FFFFFF" fill-rule="nonzero"></path>
                        <path d="M13.8402428,12 L33.2057456,12 C34.2174961,12 35.0342466,11.1061341 35.0342466,10 C35.0342466,8.89335522 34.2170293,8 33.2057456,8 L13.8402428,8 C12.8284923,8 12.0117417,8.89386589 12.0117417,10 C12.0113077,11.1066448 12.8380744,12 13.8402428,12 Z" id="Path" fill="#FFFFFF" fill-rule="nonzero"></path>
                        <path d="M24.0234834,20 C24.0234834,21.1066448 24.8500355,22 25.8728706,22 L38.1897517,22 C39.2130591,22 40.0391389,21.1061341 40.0391389,20 C40.0391389,18.8933552 39.2125868,18 38.1897517,18 L25.8627518,18 C24.849552,18 24.0234834,18.8938659 24.0234834,20 L24.0234834,20 Z" id="Path" fill="#FFFFFF" fill-rule="nonzero"></path>
                        <path d="M38.1897517,25 L25.8728706,25 C24.8495633,25 24.0234834,25.8938659 24.0234834,27 C24.0234834,28.1066448 24.8500355,29 25.8728706,29 L38.1897517,29 C39.2130591,29 40.0391389,28.1061341 40.0391389,27 C40.0391389,25.8933552 39.202929,25 38.1897517,25 L38.1897517,25 Z" id="Path" fill="#FFFFFF" fill-rule="nonzero"></path>
                        <path d="M38.1897517,31 L25.8728706,31 C24.8495633,31 24.0234834,31.8938659 24.0234834,33 C24.0234834,34.1066448 24.8500355,35 25.8728706,35 L38.1897517,35 C39.2130591,35 40.0391389,34.1061341 40.0391389,33 C40.0391389,31.8938294 39.202929,31 38.1897517,31 Z" id="Path" fill="#FFFFFF" fill-rule="nonzero"></path>
                        <path d="M9.79892348,42 L38.2480433,42 C39.2390966,42 40.0391389,41.1061341 40.0391389,40 C40.0391389,38.8933552 39.2386393,38 38.2480433,38 L9.79892348,38 C8.80787013,38 8.00782779,38.8938659 8.00782779,40 C8.00782779,41.1066448 8.81768092,42 9.79892348,42 Z" id="Path" fill="#FFFFFF" fill-rule="nonzero"></path>
                        <path d="M9.79892348,49 L38.2480433,49 C39.2390966,49 40.0391389,48.1061341 40.0391389,47 C40.0391389,45.8933552 39.2386393,45 38.2480433,45 L9.79892348,45 C8.80787013,45 8.00782779,45.8938659 8.00782779,47 C8.00782779,48.1061706 8.81768092,49 9.79892348,49 Z" id="Path" fill="#FFFFFF" fill-rule="nonzero"></path>
                    </g>
                    <g id="Group-30" opacity="0.15" fill-rule="evenodd" stroke-width="1" fill="none" transform="translate(782.071550, 8.000000)">
                        <polygon id="Path" fill="#FFFFFF" fill-rule="nonzero" points="25.0244618 25.362311 22.3526483 28 18.0176125 23.637689 20.6891884 21"></polygon>
                        <path d="M21.8702736,29.0000221 C22.071944,29.2000504 22.071944,29.4999838 21.8702736,29.700018 L20.8621293,30.6999532 C20.4587825,31.1000156 19.803664,31.1000156 19.4506441,30.6999532 L15.3171872,26.5499481 C14.9138404,26.1498857 14.9138404,25.5001016 15.3171872,25.1499564 L16.3253315,24.1500212 C16.527002,23.9499929 16.8293977,23.9499929 17.0310741,24.1500212 L21.8702736,29.0000221 Z" id="Path" fill="#FFFFFF" fill-rule="nonzero"></path>
                        <path d="M27.7328325,23.8500436 L26.731057,24.8499788 C26.5806991,25.0500071 26.2301751,25.0500071 26.0297727,24.8499788 L21.1708453,19.9999779 C20.9704488,19.7999496 20.9704488,19.5000162 21.1708453,19.299982 L22.1726209,18.3000468 C22.5734197,17.8999844 23.2243996,17.8999844 23.5751893,18.3000468 L27.6825342,22.4500519 C28.1336018,22.8501143 28.1336018,23.4502227 27.7328066,23.8500436 L27.7328325,23.8500436 Z" id="Path" fill="#FFFFFF" fill-rule="nonzero"></path>
                        <path d="M29.6296176,33.4578201 C29.5311029,33.6057925 29.0873308,34 28.6435412,34 L28.5447999,34 C27.1642116,33.8520277 24.5018228,30.746456 23.0225049,28.873228 L24.8961023,27 C26.7696997,28.4787939 29.8758781,31.1408901 30.0238854,32.5212061 C30.0731433,32.9154195 29.7773692,33.309842 29.6295943,33.4578201 L29.6296176,33.4578201 Z" id="Path" fill="#FFFFFF" fill-rule="nonzero"></path>
                        <path d="M33.0245864,12.6124663 L30.2818853,25.7245457 C30.1265475,26.4388372 29.5056537,26.9489852 28.7812035,26.9489852 L27.5392452,26.9489852 C27.1251717,26.5919597 26.7113543,26.2346938 26.2972869,25.928629 C26.6594205,25.8776587 26.9700778,25.7245156 27.177142,25.5203963 L28.2120971,24.5000401 C29.039988,23.6838273 29.039988,22.4081565 28.2120971,21.5919437 L23.9167499,17.4084171 C23.1405184,16.6431349 21.7949365,16.6431349 21.0187049,17.4084171 L19.9837499,18.4287733 C19.5696763,18.8879727 19.4145825,19.5000601 19.6216162,20.0614394 L16.7235712,22.9186052 C16.2060998,22.7144919 15.5332723,22.8166658 15.1192048,23.2756307 L14.0842498,24.2959869 C13.3597385,25.0612691 13.2563589,26.1837872 13.928912,27 L4.25148123,27 C3.52696998,27 2.90589935,26.4898279 2.75079941,25.7755605 L0.00785435574,12.6123701 C-0.0438452153,12.3063173 0.163192153,12 0.525325795,12 L32.5583717,12 C32.8690473,12 33.076081,12.3062933 33.024379,12.6123701 L33.0245864,12.6124663 Z" id="Path" fill="#FFFFFF" fill-rule="nonzero"></path>
                        <polygon id="Path" fill="#FFFFFF" fill-rule="nonzero" points="7.00684932 7 25.0244618 7 25.0244618 9 7.00684932 9"></polygon>
                        <path d="M29.4944245,3.06753795 L13.5806303,3.06753795 C13.4219285,3.06753795 13.263476,3.01470419 13.2106543,2.90879235 L11.2015993,0.528823739 C10.8844451,0.158745602 10.4613982,0 9.98552349,0 L3.58797756,0 C2.74215806,0 2.00195695,0.687550642 2.00195695,1.58645875 L2.00195695,11 L4.59250506,11 L4.59250506,9.14914184 C4.59250506,8.88472997 4.80402225,8.6203181 5.12118275,8.6203181 L6.12571025,8.6203181 L6.12571025,6.55785316 C6.12571025,6.24061128 6.33722743,6.02902942 6.65438794,6.02902942 L26.3748061,6.02902942 C26.639145,6.02902942 26.9034838,6.24060504 26.9034838,6.55785316 L26.9034838,8.6203181 L27.9080113,8.6203181 C28.1723502,8.6203181 28.436689,8.88472997 28.436689,9.14914184 L28.436689,11 L31.0272371,11 L31.0274805,4.65366636 C31.0802997,3.75450893 30.393147,3.06720761 29.4943003,3.06720761 L29.4944245,3.06753795 Z M5.6495925,10.9471637 L27.431906,10.9471637 L27.431906,9.6251044 L5.6495925,9.6251044 L5.6495925,10.9471637 Z" id="Shape" fill="#FFFFFF" fill-rule="nonzero"></path>
                    </g>
                    <g id="Group-31" opacity="0.08" fill-rule="evenodd" stroke-width="1" fill="none" transform="translate(562.914016, 0.000000)">
                        <path d="M50.0489237,7.69979007 L50.0489237,8 L40.9028749,8 L40.9028749,7.69979007 C40.9028749,6.59994903 41.882816,5.69987551 43.0803363,5.69987551 L44.3871468,5.69987551 L44.3871468,2.09969932 L24.7888393,1.9997967 L24.6800676,5.69991558 L25.9868781,5.69991558 C27.18436,5.69991558 28.1643395,6.59995374 28.1643395,7.69983014 L28.1643395,8 L19.018591,8 L19.018591,7.69983014 C19.018591,6.5999891 19.998532,5.69991558 21.1960524,5.69991558 L22.5028629,5.69991558 L22.5028629,2.09973939 C22.5028629,0.999898348 23.4828039,0 24.7890113,0 L44.3873187,0 C45.5848006,0 46.6734671,0.900038156 46.6734671,2.09973939 L46.6734671,5.69991558 L47.9802776,5.69991558 C49.0689955,5.69945524 50.0489237,6.5994941 50.0489237,7.69983014 L50.0489237,7.69979007 Z" id="Path" fill="#FFFFFF" fill-rule="nonzero"></path>
                        <path d="M28.0270086,11.1027324 L28.0270086,33 C26.5376257,32.8972974 24.9420465,32.7945973 23.4526636,32.588722 L19.3038567,28.5795338 C18.559416,27.8601456 17.4951323,27.4488676 16.4314128,27.4488676 C15.3676933,27.4488676 14.3038484,27.8601456 13.5589689,28.5795338 L12.0695861,30.0187948 C9.62268015,29.0935313 7.70775936,27.9628288 6.32519984,26.7290553 C6.11264401,26.5236526 6.00587084,26.3177773 6.00587084,26.0096672 L6.00587084,16.4489225 C6.00587084,13.4677778 8.55897318,11.0004733 11.6440607,11.0004733 L28.0273973,11 L28.0270086,11.1027324 Z" id="Path" fill="#FFFFFF" fill-rule="nonzero"></path>
                        <path d="M63.0613576,16.3963476 L63.0613576,26.0473371 C63.0613576,26.3588326 62.9507852,26.5661741 62.7291291,26.7735157 C58.6338304,30.6132422 48.8942072,32.4811875 40.0396485,33 L40.0391389,11 L57.1951726,11 C60.4047544,11 63.0616438,13.3863909 63.0616438,16.3961641 L63.0613576,16.3963476 Z" id="Path" fill="#FFFFFF" fill-rule="nonzero"></path>
                        <path d="M30.0293542,10 L30.0293542,36.9585635 C30.0293542,37.1706319 30.1470069,37.4892285 30.2646569,37.7012969 L33.0909813,41.5224803 C33.5621279,42.1591732 34.5044906,42.1591732 34.9750126,41.5224803 L37.8013371,37.7012969 C37.9189898,37.4892285 38.0366397,37.2766723 38.0366397,36.9585635 L38.037182,10 L30.0293542,10 Z" id="Path" fill="#FFFFFF" fill-rule="nonzero"></path>
                        <path d="M26.4528903,40.2069531 L25.0332694,41.5782448 C24.2691502,42.3163506 22.9585972,42.3163506 22.1940276,41.5782448 L21.7571766,41.1562659 L12.6937897,49.8051869 L13.1306407,50.3325456 C13.8947599,51.0706514 13.8947599,52.3365882 13.1306407,53.075129 L11.7110198,54.4464207 C10.9469006,55.1845264 9.63634764,55.1845264 8.871778,54.4464207 L0.573089411,46.4302505 C-0.191029804,45.6921448 -0.191029804,44.426208 0.573089411,43.6876671 L1.99271031,42.3163754 C2.75682952,41.5782697 4.06738245,41.5782697 4.8319521,42.3163754 L5.26880307,42.7383544 L14.33219,34.0894333 L13.8958409,33.6674544 C13.1317217,32.9293486 13.1317217,31.6634118 13.8958409,30.924871 L15.3154618,29.5535793 C16.079581,28.8154736 17.390134,28.8154736 18.1547036,29.5535793 L26.4533922,37.5697495 C27.2175114,38.2029727 27.2175114,39.4688723 26.4528895,40.2070402 L26.4528903,40.2069531 Z" id="Path" fill="#FFFFFF" fill-rule="nonzero"></path>
                        <path d="M36.7865194,62.8505183 L33.7871814,65.7195753 C33.3427793,66.1446741 32.7873977,66.0385277 32.3430218,65.7195753 L15.0146771,49.1439151 L19.457782,45 L36.7861267,61.5756602 C37.1195625,61.8946127 37.1195625,62.4258703 36.7861267,62.8505183 L36.7865194,62.8505183 Z" id="Path" fill="#FFFFFF" fill-rule="nonzero"></path>
                        <path d="M11.7112594,32.264945 C11.7112594,32.8824786 11.811266,33.3971748 12.0117417,33.9118468 L9.00880626,37 L9.00880626,30 C9.80978174,30.5146962 10.8107091,30.926543 11.8117662,31.3383655 C11.8113053,31.7502123 11.7112995,32.0592218 11.7112995,32.2649086 L11.7112594,32.264945 Z" id="Path" fill="#FFFFFF" fill-rule="nonzero"></path>
                        <path d="M27.1696324,35.8753592 L25.0244618,34 C26.1687832,34.1249051 27.1696324,34.1249051 28.0273973,34.2498072 L28.0273973,37 C27.8845219,36.6252818 27.5987677,36.2500037 27.1694976,35.8752855 L27.1696324,35.8753592 Z" id="Path" fill="#FFFFFF" fill-rule="nonzero"></path>
                        <path d="M61.0596869,46.6842696 C61.0596869,48.5026588 59.5250273,50 57.6613183,50 L28.7225399,49.9995077 L23.0225049,44.4380805 L23.3515414,44.4380805 C25.8728325,44.4380805 26.74991,42.6196913 27.8459662,41.7644459 C28.6130376,41.0160274 29.0515764,40.0534509 29.0515764,39.0908113 C29.0515764,39.1976584 29.4901152,39.6255383 31.7918462,42.8338493 C33.1075271,44.5448444 35.7382429,44.5448444 37.1628318,42.8338493 L39.7935476,39.3044651 C40.2320863,38.7697382 40.0391389,38.120706 40.0391389,37.4786102 L40.0391389,34.6913174 C45.4106413,34.2639342 55.0303053,33.2083363 61.0596869,30 L61.0596869,46.6842696 Z" id="Path" fill="#FFFFFF" fill-rule="nonzero"></path>
                    </g>
                    <g id="noun-legal-document-4389618" opacity="0.08" fill-rule="evenodd" stroke-width="1" fill="none" transform="translate(500.916488, 110.984326) rotate(31.000000) translate(-500.916488, -110.984326) translate(480.604185, 84.827091)">
                        <path d="M5.34984685,0.000911508697 C2.7063098,0.000911508697 0.585466677,2.22499273 0.585466677,4.98971254 L0.585466677,38 C1.79785948,36.7021256 3.48512157,35.8912246 5.34984685,35.8912246 L40.6246056,35.8912246 L40.6246056,4.98880104 C40.6246056,2.22396728 38.4964635,5.68434189e-14 35.8529265,5.68434189e-14 L5.34984685,0.000911508697 Z M20.5916365,2.98011448 C21.1265535,2.97394672 21.5601781,3.42925523 21.5542191,3.98871648 L21.5542191,5.03819341 C23.572114,5.15302072 25.1713526,5.58741159 26.9029532,6.01379257 C28.9042892,6.5064858 31.1694778,6.98538108 34.9028502,6.98538108 L34.9032757,6.98538108 C35.1598838,6.97915012 35.4075479,7.08151676 35.5909592,7.26933883 C35.7743705,7.45671083 35.8777763,7.71396137 35.8777763,7.98234372 C35.8777763,8.25072606 35.7743683,8.50753224 35.5909592,8.69534861 C35.4075479,8.88272061 35.1598838,8.98509443 34.9032757,8.97930635 C33.5861916,8.97930635 32.4742414,8.90542402 31.4406191,8.80617667 L34.8474985,18.6044394 C34.8845206,18.7130366 34.9032452,18.8278616 34.9032452,18.9431446 C34.9032452,21.6843931 32.7619214,23.9337687 30.1409349,23.9337687 L30.1332751,23.9337687 C27.5122886,23.9337687 25.3709648,21.6843931 25.3709648,18.9431446 C25.3709648,18.827873 25.3896894,18.7130457 25.4267116,18.6044394 L28.9511371,8.47096935 C28.0468483,8.30851571 27.2102766,8.13181975 26.4676329,7.94890274 C24.725465,7.52029996 23.3155641,7.14110095 21.5542228,7.03205032 L21.5542228,22.9321802 L24.4194527,22.9321802 C24.4194527,22.9321802 25.0952181,22.9166025 25.7990683,23.2846834 C26.5029185,23.652762 27.2753137,24.4605296 27.2753137,25.9190574 L27.2753137,28.9157562 C27.2736115,29.4636413 26.8497724,29.9069308 26.3259238,29.9087082 L14.8839599,29.9091533 C14.3601112,29.907373 13.9362694,29.4640863 13.9345699,28.9162013 L13.9345699,25.9195025 C13.9345699,24.4396681 14.7086428,23.65315 15.4128851,23.2851284 C16.1163105,22.9166054 16.792065,22.9321808 16.792065,22.9321808 L19.6479261,22.9321808 L19.6479261,7.03205101 C17.8903977,7.14198351 16.4831113,7.52118936 14.7438849,7.94934779 C14.0013065,8.13227619 13.1629482,8.30896075 12.2583107,8.47141439 L15.7827363,18.6044287 C15.8197585,18.7130258 15.8384831,18.8278509 15.8384831,18.9431339 C15.8384831,21.6843824 13.6971592,23.933758 11.0761727,23.933758 L11.0689385,23.933758 C8.447952,23.933758 6.30662816,21.6843824 6.30662816,18.9431339 C6.30662816,18.8278623 6.32535276,18.713035 6.36237492,18.6044287 L9.76925426,8.80616596 C8.73559925,8.90497236 7.62368177,8.97929564 6.30659766,8.97929564 C6.04998959,8.98508167 5.80232548,8.88271446 5.61891417,8.6953379 C5.43550285,8.50752153 5.33209704,8.25071535 5.33209704,7.98233301 C5.33209704,7.71395066 5.43550503,7.45670012 5.61891417,7.26932812 C5.80232548,7.08151175 6.04998959,6.97913793 6.30659766,6.98537037 C10.0399701,6.98537037 12.3072285,6.50603073 14.3085645,6.01378186 C16.0379863,5.5882896 17.6337389,5.15568757 19.6483655,5.03996015 L19.64794,3.98869438 C19.6419823,3.43769876 20.0653979,2.98594366 20.5918067,2.98011448 L20.5916365,2.98011448 Z M11.0687589,10.8993652 L8.21289792,19.124364 C8.30056081,20.6389496 9.50187551,21.9399004 11.0687589,21.9399004 L11.0764187,21.9399004 C12.6437379,21.9399004 13.8450189,20.6389496 13.9322798,19.124364 L11.0764187,10.8993652 L11.0725888,10.9091568 L11.0687589,10.8993652 Z M30.1332518,10.8993652 L27.2773908,19.124364 C27.3650537,20.6389496 28.5663684,21.9399004 30.1332518,21.9399004 L30.1370817,21.9399004 L30.1409116,21.9399004 C31.7082308,21.9399004 32.9095117,20.6389496 32.9967726,19.124364 L30.1409116,10.8993652 L30.1370817,10.9087117 L30.1332518,10.8993652 Z M16.7924644,24.9263447 C16.7924644,24.9263447 16.5128809,24.9441476 16.2635064,25.074556 C16.014132,25.2049587 15.8426387,25.3843322 15.8426387,25.9197525 L15.8426387,27.9136777 L25.3693292,27.9136777 L25.3693292,25.9197525 C25.3693292,25.3950083 25.1961364,25.2049701 24.946762,25.074556 C24.6978124,24.9441533 24.4199392,24.9263447 24.4199392,24.9263447 L16.7924644,24.9263447 Z" id="Shape" fill="#FFFFFF" fill-rule="nonzero"></path>
                        <path d="M4.7638855,38.7674246 L40.0391389,38.7674246 L40.0391389,43.2630026 C40.0391389,45.7584777 37.910967,47.7674246 35.2673929,47.7674246 L22.8774776,47.7674246 L22.8774776,44.1680828 L36.2271674,44.1680828 L36.2267419,44.1680828 C36.7539969,44.1680828 37.1812545,43.7651622 37.1812545,43.2674452 C37.1812545,42.7701293 36.7539969,42.3668076 36.2267419,42.3668076 L4.76444045,42.3668076 C4.73422662,42.3656024 4.70358682,42.3656024 4.6733719,42.3668076 C4.14654177,42.3909109 3.73971068,42.8131054 3.76524656,43.3104316 C3.79035431,43.8077476 4.23760596,44.191787 4.76444699,44.1680828 L9.53619305,44.1680828 L9.53619305,47.7674246 L4.76444699,47.7674246 C2.12087287,47.7674246 0,45.7584777 0,43.2630026 C0.000425525448,40.7675275 2.12098181,38.7674246 4.76444699,38.7674246 L4.7638855,38.7674246 Z" id="Path" fill="#FFFFFF" fill-rule="nonzero"></path>
                        <path d="M11.8273203,43.3144687 L20.8360236,43.3144687 L20.8360236,52.3139906 L17.2372398,50.9250449 L17.2372398,47.49768 C17.2468976,46.9047516 16.8292012,46.4201326 16.3181356,46.4313316 C15.8199573,46.4420698 15.4251872,46.9196797 15.4344484,47.49768 L15.4344484,50.9213397 L11.8272173,52.3144687 L11.8273203,43.3144687 Z" id="Path" fill="#FFFFFF" fill-rule="nonzero"></path>
                    </g>
                    <g id="Group-32" opacity="0.08" fill-rule="evenodd" stroke-width="1" fill="none" transform="translate(26.616551, 143.826455) rotate(50.000000) translate(-26.616551, -143.826455) translate(6.768585, 125.735436)">
                        <path d="M9.90300009,4.26325641e-14 L32.2889859,4.26325641e-14 C32.008884,0.296428117 31.7655932,0.665692506 31.5815077,1.03762295 C31.0080407,2.19629214 31.0171718,3.33530866 31.0171718,3.33530866 L31.0171718,12 L21.3929095,11.9997025 L14.988447,5.53001549 C14.8647431,5.40415466 14.6962658,5.33363359 14.5207233,5.33333652 L7.26452411,5.33333652 L7.26452411,2.66605887 C7.26452411,2.66605887 7.27100397,1.97335584 7.60471358,1.2991324 C7.93842605,0.624878496 8.47416962,4.26325641e-14 9.90355806,4.26325641e-14 L9.90300009,4.26325641e-14 Z" id="Path" fill="#FFFFFF" fill-rule="nonzero"></path>
                        <path d="M36.1920586,0.290977778 C37.9569715,0.290977778 38.8033317,1.03434743 39.2455414,1.82263347 C39.6877912,2.61091951 39.6959319,3.41762912 39.6959319,3.41762912 L39.6959319,5.29069214 L32.6890826,5.29069214 L32.6890826,3.41734348 C32.6890826,3.41734348 32.6972201,2.61063387 33.1394731,1.82234783 C33.581723,1.0340618 34.4342928,0.290692141 36.1917541,0.290692141 L36.1920586,0.290977778 Z" id="Path" fill="#FFFFFF" fill-rule="nonzero"></path>
                        <path d="M1.97127133,7.18203783 C0.972328167,7.18203783 0.512355612,7.63394022 0.26261982,8.13585313 C0.0128840284,8.63777358 0,9.15647467 0,9.15647467 L0,34.2009049 C0,34.2009049 0.0128825294,34.7210596 0.26261982,35.2229574 C0.512355612,35.7248779 0.979628367,36.1817436 1.97127133,36.1817436 L36.0723489,36.1820378 C37.0730909,36.1820378 37.5312647,35.7248407 37.7810004,35.2232516 C38.0307362,34.7213312 38.037182,34.201199 38.037182,34.201199 L38.037182,15.7500247 C38.037182,15.7500247 38.0307409,15.2298699 37.7810004,14.7279721 C37.5312647,14.2263454 37.0783375,13.7741568 36.0723489,13.7741568 L20.3341972,13.7741568 C20.1597044,13.7738626 19.9922346,13.7041353 19.8692704,13.5796881 L13.5034061,7.1827086 L1.97127133,7.18203783 Z M17.7918689,15.2823881 C18.332331,15.2497314 19.1070291,15.5189289 19.5441417,16.2800379 L20.5278699,17.9919948 C20.7085161,18.3076787 20.599893,18.7104518 20.2857416,18.8916571 L19.7183421,19.2211693 L21.0287805,21.5044814 L21.5973491,21.1737943 C21.6875224,21.1214256 21.7894104,21.0914125 21.8933445,21.0861177 C22.1392728,21.0743494 22.3702784,21.2020382 22.4929503,21.4168048 L23.4754792,23.1287617 C23.9125918,23.8898406 23.7597673,24.6942268 23.461426,25.1481628 C23.1630846,25.6021213 22.7596399,25.8289613 22.7596399,25.8289613 L19.3511061,27.8033981 C19.3511061,27.8033981 18.9526381,28.048766 18.4121985,28.0814235 C17.8717363,28.1140802 17.1022848,27.8448827 16.6651722,27.0837737 L15.6776215,25.3718168 C15.4969753,25.0561329 15.6055984,24.6521849 15.9197498,24.4709494 L16.4886108,24.1414373 L16.1607014,23.5700895 L10.4773384,26.8652111 C9.71876214,27.3029915 9.06526684,26.1599948 9.82415784,25.7221993 L15.5036984,22.4258727 L15.175789,21.8556999 L14.606928,22.1852121 C14.2939488,22.3673287 13.893727,22.2611166 13.7116417,21.9471951 L12.7291128,20.2340332 C12.2920002,19.4729542 12.4448247,18.6647268 12.743166,18.2104896 C13.0415073,17.756531 13.4452444,17.5346922 13.4452444,17.5346922 L16.8537782,15.5549831 C16.8537782,15.5549831 17.2522462,15.3146163 17.7926858,15.2822525 L17.7918689,15.2823881 Z M18.0032524,16.5901183 C17.9610926,16.5883531 17.9177636,16.5924719 17.8700425,16.5951198 C17.6785659,16.6065936 17.5113883,16.6980933 17.5113883,16.6980933 L14.1028545,18.6728314 C14.1028545,18.6728314 13.9421227,18.7799247 13.8364272,18.9405609 C13.7307317,19.1011972 13.64202,19.1921049 13.8607277,19.5725163 L14.5191847,20.7166578 L19.0598491,18.0793555 L18.4066686,16.9363437 C18.2427139,16.6509598 18.1299955,16.5950671 18.0032239,16.5900585 L18.0032524,16.5901183 Z M18.5797283,19.8799676 L16.3086466,21.1980163 L17.6229074,23.4813284 L19.8939891,22.1632798 L18.5797283,19.8799676 Z M21.6846367,22.6472672 L17.1439724,25.2795233 L17.7971529,26.422535 C18.0158591,26.8029465 18.1437999,26.7749963 18.3352765,26.763518 C18.5267531,26.7520397 18.692754,26.6655456 18.692754,26.6655456 L22.1012878,24.6858365 C22.1012878,24.6858365 22.2620196,24.584038 22.3677151,24.423108 C22.4734106,24.2624718 22.5621223,24.166563 22.3434146,23.7858579 L21.6846367,22.6472672 Z M16.3982877,29.5902955 L24.2696121,29.5902955 C24.2696121,29.5902955 24.7345389,29.5799981 25.2187879,29.8233114 C25.7033293,30.0666232 26.2358692,30.5985499 26.2358692,31.5650185 L26.2358692,33.5447275 C26.2346981,33.9068972 25.9430967,34.1999257 25.5826887,34.2011007 L15.0858406,34.2011007 C14.7254326,34.1999238 14.4338294,33.9068972 14.4326601,33.5447275 L14.4326601,31.5650185 C14.4326601,30.5782143 14.9652225,30.0668868 15.4497414,29.8236127 C15.9336982,29.5803009 16.3986175,29.590303 16.3986175,29.590303 L16.3982877,29.5902955 Z M16.3982877,30.9083441 C16.3982877,30.9083441 16.2059341,30.9148166 16.0343645,31.0010217 C15.8627948,31.0872221 15.7448074,31.2231468 15.7448074,31.5647248 L15.7448074,32.8827734 L24.9225227,32.8827734 L24.9225227,31.5647248 C24.9225227,31.2346251 24.8045353,31.0872296 24.6329656,31.0010217 C24.461396,30.9148213 24.2690424,30.9083441 24.2690424,30.9083441 L16.3982877,30.9083441 Z" id="Shape" fill="#FFFFFF" fill-rule="nonzero"></path>
                    </g>
                    <g id="Group-32-Copy" opacity="0.08" fill-rule="evenodd" stroke-width="1" fill="none" transform="translate(917.616551, 143.826455) rotate(50.000000) translate(-917.616551, -143.826455) translate(897.768585, 125.735436)">
                        <path d="M9.90300009,4.26325641e-14 L32.2889859,4.26325641e-14 C32.008884,0.296428117 31.7655932,0.665692506 31.5815077,1.03762295 C31.0080407,2.19629214 31.0171718,3.33530866 31.0171718,3.33530866 L31.0171718,12 L21.3929095,11.9997025 L14.988447,5.53001549 C14.8647431,5.40415466 14.6962658,5.33363359 14.5207233,5.33333652 L7.26452411,5.33333652 L7.26452411,2.66605887 C7.26452411,2.66605887 7.27100397,1.97335584 7.60471358,1.2991324 C7.93842605,0.624878496 8.47416962,4.26325641e-14 9.90355806,4.26325641e-14 L9.90300009,4.26325641e-14 Z" id="Path" fill="#FFFFFF" fill-rule="nonzero"></path>
                        <path d="M36.1920586,0.290977778 C37.9569715,0.290977778 38.8033317,1.03434743 39.2455414,1.82263347 C39.6877912,2.61091951 39.6959319,3.41762912 39.6959319,3.41762912 L39.6959319,5.29069214 L32.6890826,5.29069214 L32.6890826,3.41734348 C32.6890826,3.41734348 32.6972201,2.61063387 33.1394731,1.82234783 C33.581723,1.0340618 34.4342928,0.290692141 36.1917541,0.290692141 L36.1920586,0.290977778 Z" id="Path" fill="#FFFFFF" fill-rule="nonzero"></path>
                        <path d="M1.97127133,7.18203783 C0.972328167,7.18203783 0.512355612,7.63394022 0.26261982,8.13585313 C0.0128840284,8.63777358 0,9.15647467 0,9.15647467 L0,34.2009049 C0,34.2009049 0.0128825294,34.7210596 0.26261982,35.2229574 C0.512355612,35.7248779 0.979628367,36.1817436 1.97127133,36.1817436 L36.0723489,36.1820378 C37.0730909,36.1820378 37.5312647,35.7248407 37.7810004,35.2232516 C38.0307362,34.7213312 38.037182,34.201199 38.037182,34.201199 L38.037182,15.7500247 C38.037182,15.7500247 38.0307409,15.2298699 37.7810004,14.7279721 C37.5312647,14.2263454 37.0783375,13.7741568 36.0723489,13.7741568 L20.3341972,13.7741568 C20.1597044,13.7738626 19.9922346,13.7041353 19.8692704,13.5796881 L13.5034061,7.1827086 L1.97127133,7.18203783 Z M17.7918689,15.2823881 C18.332331,15.2497314 19.1070291,15.5189289 19.5441417,16.2800379 L20.5278699,17.9919948 C20.7085161,18.3076787 20.599893,18.7104518 20.2857416,18.8916571 L19.7183421,19.2211693 L21.0287805,21.5044814 L21.5973491,21.1737943 C21.6875224,21.1214256 21.7894104,21.0914125 21.8933445,21.0861177 C22.1392728,21.0743494 22.3702784,21.2020382 22.4929503,21.4168048 L23.4754792,23.1287617 C23.9125918,23.8898406 23.7597673,24.6942268 23.461426,25.1481628 C23.1630846,25.6021213 22.7596399,25.8289613 22.7596399,25.8289613 L19.3511061,27.8033981 C19.3511061,27.8033981 18.9526381,28.048766 18.4121985,28.0814235 C17.8717363,28.1140802 17.1022848,27.8448827 16.6651722,27.0837737 L15.6776215,25.3718168 C15.4969753,25.0561329 15.6055984,24.6521849 15.9197498,24.4709494 L16.4886108,24.1414373 L16.1607014,23.5700895 L10.4773384,26.8652111 C9.71876214,27.3029915 9.06526684,26.1599948 9.82415784,25.7221993 L15.5036984,22.4258727 L15.175789,21.8556999 L14.606928,22.1852121 C14.2939488,22.3673287 13.893727,22.2611166 13.7116417,21.9471951 L12.7291128,20.2340332 C12.2920002,19.4729542 12.4448247,18.6647268 12.743166,18.2104896 C13.0415073,17.756531 13.4452444,17.5346922 13.4452444,17.5346922 L16.8537782,15.5549831 C16.8537782,15.5549831 17.2522462,15.3146163 17.7926858,15.2822525 L17.7918689,15.2823881 Z M18.0032524,16.5901183 C17.9610926,16.5883531 17.9177636,16.5924719 17.8700425,16.5951198 C17.6785659,16.6065936 17.5113883,16.6980933 17.5113883,16.6980933 L14.1028545,18.6728314 C14.1028545,18.6728314 13.9421227,18.7799247 13.8364272,18.9405609 C13.7307317,19.1011972 13.64202,19.1921049 13.8607277,19.5725163 L14.5191847,20.7166578 L19.0598491,18.0793555 L18.4066686,16.9363437 C18.2427139,16.6509598 18.1299955,16.5950671 18.0032239,16.5900585 L18.0032524,16.5901183 Z M18.5797283,19.8799676 L16.3086466,21.1980163 L17.6229074,23.4813284 L19.8939891,22.1632798 L18.5797283,19.8799676 Z M21.6846367,22.6472672 L17.1439724,25.2795233 L17.7971529,26.422535 C18.0158591,26.8029465 18.1437999,26.7749963 18.3352765,26.763518 C18.5267531,26.7520397 18.692754,26.6655456 18.692754,26.6655456 L22.1012878,24.6858365 C22.1012878,24.6858365 22.2620196,24.584038 22.3677151,24.423108 C22.4734106,24.2624718 22.5621223,24.166563 22.3434146,23.7858579 L21.6846367,22.6472672 Z M16.3982877,29.5902955 L24.2696121,29.5902955 C24.2696121,29.5902955 24.7345389,29.5799981 25.2187879,29.8233114 C25.7033293,30.0666232 26.2358692,30.5985499 26.2358692,31.5650185 L26.2358692,33.5447275 C26.2346981,33.9068972 25.9430967,34.1999257 25.5826887,34.2011007 L15.0858406,34.2011007 C14.7254326,34.1999238 14.4338294,33.9068972 14.4326601,33.5447275 L14.4326601,31.5650185 C14.4326601,30.5782143 14.9652225,30.0668868 15.4497414,29.8236127 C15.9336982,29.5803009 16.3986175,29.590303 16.3986175,29.590303 L16.3982877,29.5902955 Z M16.3982877,30.9083441 C16.3982877,30.9083441 16.2059341,30.9148166 16.0343645,31.0010217 C15.8627948,31.0872221 15.7448074,31.2231468 15.7448074,31.5647248 L15.7448074,32.8827734 L24.9225227,32.8827734 L24.9225227,31.5647248 C24.9225227,31.2346251 24.8045353,31.0872296 24.6329656,31.0010217 C24.461396,30.9148213 24.2690424,30.9083441 24.2690424,30.9083441 L16.3982877,30.9083441 Z" id="Shape" fill="#FFFFFF" fill-rule="nonzero"></path>
                    </g>
                    <g id="Group-38" opacity="0.08" fill-rule="evenodd" stroke-width="1" fill="none" transform="translate(358.714408, 7.000000)">
                        <path d="M11.0522649,14.958841 L11.0522649,8.89336996 C11.0522649,8.64751343 11.2608605,8.4016569 11.5526618,8.4016569 L16.0154801,8.4016569 C16.8495494,8.4016569 17.5585717,7.70497558 17.5585717,6.88534404 L17.5588626,2.45913613 C17.5588626,2.17211323 17.7674581,1.96742307 18.0592595,1.96742307 L29.4870295,1.96742307 C30.2795406,1.96742307 30.9469301,2.62322344 30.9469301,3.40198867 L30.9469301,12.1314543 L33.0322896,9.91849669 L33.0319987,3.44253297 C33.0319987,1.51631286 31.447051,0 29.5286692,0 L17.8506561,0 C16.8914652,0 16.0154652,0.368784793 15.3480757,1.02458516 L10.051486,6.22955099 C9.38410394,6.88535136 9.00880626,7.74586385 9.00880626,8.68870175 L9.00880626,15 C9.34250102,14.8770717 9.67618833,14.7950244 10.051486,14.7950244 C10.3851808,14.7950244 10.760471,14.8359046 11.0523096,14.9588336 L11.0522649,14.958841 Z" id="Path" fill="#FFFFFF" fill-rule="nonzero"></path>
                        <path d="M31.0540777,25.4019652 C31.0540777,26.2062736 30.4209842,26.8835979 29.6691835,26.8835979 L23.3785199,26.8835979 C23.4577263,27.2644822 23.4179846,27.6453515 23.3390552,27.9840514 C23.2598487,28.3227135 23.1411768,28.6613681 23.0225049,29 L29.7089535,29 C31.5684787,29 33.0322896,27.3914588 33.0322896,25.4019652 L33.0322896,21 L31.0540713,23.2855631 L31.0540777,25.4019652 Z" id="Path" fill="#FFFFFF" fill-rule="nonzero"></path>
                        <path d="M26.3528632,17 L15.950171,17 C15.4263078,17 15.0146771,17.2200071 15.0146771,17.5 C15.0146771,17.7799929 15.4263078,18 15.950171,18 L25.5670483,18 L27.0264188,17.1400714 C26.8392665,17.0599929 26.6147881,17 26.3529968,17 L26.3528632,17 Z" id="Path" fill="#FFFFFF" fill-rule="nonzero"></path>
                        <path d="M25.9583014,11 L14.0808374,11 C13.482707,11 13.0127202,11.2200071 13.0127202,11.5 C13.0127202,11.7799929 13.482707,12 14.0808374,12 L25.9583014,12 C26.5564318,12 27.0264188,11.7799929 27.0264188,11.5 C27.0267167,11.2200071 26.556737,11 25.9586066,11 L25.9583014,11 Z" id="Path" fill="#FFFFFF" fill-rule="nonzero"></path>
                        <path d="M26.0849851,7 L20.997851,7 C20.4500273,7 20.0195695,7.22000714 20.0195695,7.5 C20.0195695,7.77999286 20.4500273,8 20.997851,8 L26.0456442,8 C26.5934679,8 27.0239258,7.77999286 27.0239258,7.5 C27.0632317,7.22000714 26.6327738,7 26.0849152,7 L26.0849851,7 Z" id="Path" fill="#FFFFFF" fill-rule="nonzero"></path>
                        <path d="M25.0505858,24.2586438 C24.9086252,24.7142037 25.3701828,25.1345762 25.8319623,24.9593272 L28.3891945,23.9081457 C28.6379348,23.8030526 28.8509931,23.6627657 29.0283757,23.4877732 L26.2580409,21 C26.1160802,21.2101862 25.9738722,21.4203725 25.9027682,21.6657712 L25.0505858,24.2586438 Z" id="Path" fill="#FFFFFF" fill-rule="nonzero"></path>
                        <path d="M37.7474524,11.9163169 L35.8094327,10.2182119 C35.4383888,9.90222394 34.9022746,9.9416193 34.5723253,10.2576066 L27.0264188,18.1564253 L30.283794,21 L37.8297005,13.1011813 C38.1187688,12.7851933 38.1187688,12.2323113 37.7474377,11.916288 L37.7474524,11.9163169 Z" id="Path" fill="#FFFFFF" fill-rule="nonzero"></path>
                        <path d="M18.6345109,20.9353358 C18.5115042,20.6968947 18.3063978,20.5776742 18.0603916,20.5377495 L13.5904219,20.5773967 C13.3853155,19.9813011 12.9342029,19.464473 12.3600617,19.1464948 L12.3600617,18.3116601 C12.3600617,17.5963511 11.7450353,17 11.0067459,17 C10.2687202,17 9.65343018,17.5960956 9.65343018,18.3116601 L9.65343018,19.1464948 C9.07931087,19.4645085 8.62819098,19.9813295 8.4230699,20.5773967 L3.95310022,20.5377495 C3.70708675,20.5377495 3.50198032,20.6966179 3.37898091,20.9353358 L0.0981422323,27.2550815 C0.0160425417,27.4538746 -0.0248645025,27.6526678 0.0160425417,27.851177 C0.590161848,29.7988644 2.14861331,31.0706353 3.99397064,31.0706353 C5.83932798,31.0706353 7.39776479,29.7985805 7.97189875,27.851177 C8.01280506,27.6523839 8.01280506,27.4535907 7.88979906,27.2550815 L5.34727907,22.3662377 L8.42299667,22.3662377 C8.6281031,22.9623332 9.07921567,23.4791614 9.65335695,23.7971395 L9.65335695,30.4349344 C9.65335695,32.0246834 8.42299667,33.3364145 6.82362352,33.4955455 L4.28110353,33.7739113 C3.99389741,33.8135585 3.78907659,34.0522771 3.78907659,34.290711 L3.78907659,35.4832003 C3.78907659,35.761566 4.03509006,36 4.32228885,36 L17.691408,36 C17.9786142,36 18.2246203,35.7615589 18.2246203,35.4832003 L18.2246203,34.290711 C18.2246203,34.0123453 18.0195139,33.7739113 17.7325934,33.7739113 L15.1900734,33.4955455 C13.5498371,33.3366771 12.36034,32.0249673 12.36034,30.4349344 L12.3600539,23.7575342 C12.9341732,23.4395205 13.3852931,22.9626597 13.5904142,22.3266323 L16.6661318,22.3266323 L14.1233189,27.2154761 C14.0412192,27.4142693 14.0003121,27.6130624 14.0412192,27.8115717 C14.6153385,29.7592591 16.17379,31.03103 18.0191473,31.03103 C19.8645046,31.03103 21.4229414,29.7589752 21.9970754,27.8115717 C22.0379817,27.6127785 22.0379817,27.4139854 21.9149757,27.2154761 L18.6345109,20.9353358 Z M6.08558311,26.9769925 L1.8615976,26.9769925 L3.99387544,22.8830232 L6.08558311,26.9769925 Z M15.8868699,26.9769925 L18.0191477,22.8830232 L20.1517185,26.9769925 L15.8868699,26.9769925 Z" id="Shape" fill="#FFFFFF" fill-rule="nonzero"></path>
                    </g>
                    <g id="Group-38-Copy" opacity="0.08" fill-rule="evenodd" stroke-width="1" fill="none" transform="translate(1293.714408, 7.000000)">
                        <path d="M11.0522649,14.958841 L11.0522649,8.89336996 C11.0522649,8.64751343 11.2608605,8.4016569 11.5526618,8.4016569 L16.0154801,8.4016569 C16.8495494,8.4016569 17.5585717,7.70497558 17.5585717,6.88534404 L17.5588626,2.45913613 C17.5588626,2.17211323 17.7674581,1.96742307 18.0592595,1.96742307 L29.4870295,1.96742307 C30.2795406,1.96742307 30.9469301,2.62322344 30.9469301,3.40198867 L30.9469301,12.1314543 L33.0322896,9.91849669 L33.0319987,3.44253297 C33.0319987,1.51631286 31.447051,0 29.5286692,0 L17.8506561,0 C16.8914652,0 16.0154652,0.368784793 15.3480757,1.02458516 L10.051486,6.22955099 C9.38410394,6.88535136 9.00880626,7.74586385 9.00880626,8.68870175 L9.00880626,15 C9.34250102,14.8770717 9.67618833,14.7950244 10.051486,14.7950244 C10.3851808,14.7950244 10.760471,14.8359046 11.0523096,14.9588336 L11.0522649,14.958841 Z" id="Path" fill="#FFFFFF" fill-rule="nonzero"></path>
                        <path d="M31.0540777,25.4019652 C31.0540777,26.2062736 30.4209842,26.8835979 29.6691835,26.8835979 L23.3785199,26.8835979 C23.4577263,27.2644822 23.4179846,27.6453515 23.3390552,27.9840514 C23.2598487,28.3227135 23.1411768,28.6613681 23.0225049,29 L29.7089535,29 C31.5684787,29 33.0322896,27.3914588 33.0322896,25.4019652 L33.0322896,21 L31.0540713,23.2855631 L31.0540777,25.4019652 Z" id="Path" fill="#FFFFFF" fill-rule="nonzero"></path>
                        <path d="M26.3528632,17 L15.950171,17 C15.4263078,17 15.0146771,17.2200071 15.0146771,17.5 C15.0146771,17.7799929 15.4263078,18 15.950171,18 L25.5670483,18 L27.0264188,17.1400714 C26.8392665,17.0599929 26.6147881,17 26.3529968,17 L26.3528632,17 Z" id="Path" fill="#FFFFFF" fill-rule="nonzero"></path>
                        <path d="M25.9583014,11 L14.0808374,11 C13.482707,11 13.0127202,11.2200071 13.0127202,11.5 C13.0127202,11.7799929 13.482707,12 14.0808374,12 L25.9583014,12 C26.5564318,12 27.0264188,11.7799929 27.0264188,11.5 C27.0267167,11.2200071 26.556737,11 25.9586066,11 L25.9583014,11 Z" id="Path" fill="#FFFFFF" fill-rule="nonzero"></path>
                        <path d="M26.0849851,7 L20.997851,7 C20.4500273,7 20.0195695,7.22000714 20.0195695,7.5 C20.0195695,7.77999286 20.4500273,8 20.997851,8 L26.0456442,8 C26.5934679,8 27.0239258,7.77999286 27.0239258,7.5 C27.0632317,7.22000714 26.6327738,7 26.0849152,7 L26.0849851,7 Z" id="Path" fill="#FFFFFF" fill-rule="nonzero"></path>
                        <path d="M25.0505858,24.2586438 C24.9086252,24.7142037 25.3701828,25.1345762 25.8319623,24.9593272 L28.3891945,23.9081457 C28.6379348,23.8030526 28.8509931,23.6627657 29.0283757,23.4877732 L26.2580409,21 C26.1160802,21.2101862 25.9738722,21.4203725 25.9027682,21.6657712 L25.0505858,24.2586438 Z" id="Path" fill="#FFFFFF" fill-rule="nonzero"></path>
                        <path d="M37.7474524,11.9163169 L35.8094327,10.2182119 C35.4383888,9.90222394 34.9022746,9.9416193 34.5723253,10.2576066 L27.0264188,18.1564253 L30.283794,21 L37.8297005,13.1011813 C38.1187688,12.7851933 38.1187688,12.2323113 37.7474377,11.916288 L37.7474524,11.9163169 Z" id="Path" fill="#FFFFFF" fill-rule="nonzero"></path>
                        <path d="M18.6345109,20.9353358 C18.5115042,20.6968947 18.3063978,20.5776742 18.0603916,20.5377495 L13.5904219,20.5773967 C13.3853155,19.9813011 12.9342029,19.464473 12.3600617,19.1464948 L12.3600617,18.3116601 C12.3600617,17.5963511 11.7450353,17 11.0067459,17 C10.2687202,17 9.65343018,17.5960956 9.65343018,18.3116601 L9.65343018,19.1464948 C9.07931087,19.4645085 8.62819098,19.9813295 8.4230699,20.5773967 L3.95310022,20.5377495 C3.70708675,20.5377495 3.50198032,20.6966179 3.37898091,20.9353358 L0.0981422323,27.2550815 C0.0160425417,27.4538746 -0.0248645025,27.6526678 0.0160425417,27.851177 C0.590161848,29.7988644 2.14861331,31.0706353 3.99397064,31.0706353 C5.83932798,31.0706353 7.39776479,29.7985805 7.97189875,27.851177 C8.01280506,27.6523839 8.01280506,27.4535907 7.88979906,27.2550815 L5.34727907,22.3662377 L8.42299667,22.3662377 C8.6281031,22.9623332 9.07921567,23.4791614 9.65335695,23.7971395 L9.65335695,30.4349344 C9.65335695,32.0246834 8.42299667,33.3364145 6.82362352,33.4955455 L4.28110353,33.7739113 C3.99389741,33.8135585 3.78907659,34.0522771 3.78907659,34.290711 L3.78907659,35.4832003 C3.78907659,35.761566 4.03509006,36 4.32228885,36 L17.691408,36 C17.9786142,36 18.2246203,35.7615589 18.2246203,35.4832003 L18.2246203,34.290711 C18.2246203,34.0123453 18.0195139,33.7739113 17.7325934,33.7739113 L15.1900734,33.4955455 C13.5498371,33.3366771 12.36034,32.0249673 12.36034,30.4349344 L12.3600539,23.7575342 C12.9341732,23.4395205 13.3852931,22.9626597 13.5904142,22.3266323 L16.6661318,22.3266323 L14.1233189,27.2154761 C14.0412192,27.4142693 14.0003121,27.6130624 14.0412192,27.8115717 C14.6153385,29.7592591 16.17379,31.03103 18.0191473,31.03103 C19.8645046,31.03103 21.4229414,29.7589752 21.9970754,27.8115717 C22.0379817,27.6127785 22.0379817,27.4139854 21.9149757,27.2154761 L18.6345109,20.9353358 Z M6.08558311,26.9769925 L1.8615976,26.9769925 L3.99387544,22.8830232 L6.08558311,26.9769925 Z M15.8868699,26.9769925 L18.0191477,22.8830232 L20.1517185,26.9769925 L15.8868699,26.9769925 Z" id="Shape" fill="#FFFFFF" fill-rule="nonzero"></path>
                    </g>
                    <g id="Group-40" opacity="0.08" fill-rule="evenodd" stroke-width="1" fill="none" transform="translate(350.706580, 125.000000)">
                        <polygon id="Path" fill="#FFFFFF" fill-rule="nonzero" points="7.00684932 0 1.00097847 8 7.00684932 8"></polygon>
                        <path d="M31.0303327,10.0046554 L31.0303327,3.40211046 C31.0303327,1.52586582 29.5133806,0 27.6410555,0 L7.92200519,0 L7.92200519,7.96207351 C7.92200519,8.29446803 7.66122602,8.55579311 7.32952587,8.55579311 L0,8.55579311 L0,34.6036277 C0,36.4741342 1.52267827,38 3.39500342,38 L27.6405387,38 C29.5128638,38 31.0298159,36.4741342 31.0298159,34.6036277 L31.0298159,27.75784 L22.8769754,24.3735039 C21.9762872,23.9995566 21.5378844,22.9545642 21.9110645,22.0459025 L22.2073042,21.3275104 C21.834138,21.1435458 21.537633,20.8286457 21.371769,20.4309549 C21.1761846,19.9796541 21.1761846,19.4630221 21.3834986,19.0120152 C22.4263639,16.4767197 25.365297,15.1823404 28.0728781,16.2569194 L28.9438878,16.6191105 L29.7496747,14.6714885 C29.4237007,13.6857813 29.453435,12.6052542 29.8563285,11.6315831 C30.1231062,10.9785503 30.5320052,10.4320937 31.0298487,10.0045994 L31.0303327,10.0046554 Z M18.6687409,31.3947679 L6.06413518,31.3947679 C5.73652716,31.3947679 5.47165587,31.1287963 5.47165587,30.8010483 C5.47165587,30.4730274 5.73679951,30.2073287 6.06413518,30.2073287 L18.6687409,30.2073287 C18.996349,30.2073287 19.2612205,30.4733003 19.2612205,30.8010483 C19.2614931,31.1290693 18.996349,31.3947679 18.6690133,31.3947679 L18.6687409,31.3947679 Z M24.9710438,25.9168362 C25.2986518,25.9168362 25.5635231,26.1828078 25.5635231,26.5105558 C25.5635231,26.8385767 25.2983795,27.1042754 24.9710438,27.1042754 L6.06413518,27.1045487 C5.73652716,27.1045487 5.47165587,26.8385771 5.47165587,26.5108291 C5.47165587,26.1828082 5.73679951,25.9171095 6.06413518,25.9171095 L24.9710438,25.9168362 Z M21.3264622,22.2203291 C21.3264622,22.5483501 21.0613186,22.8140487 20.7339829,22.8140487 L6.06445641,22.8140487 C5.73684839,22.8140487 5.47197709,22.5480771 5.47197709,22.2203291 C5.47197709,21.8923082 5.73712073,21.6266093 6.06445641,21.6266093 L20.7339829,21.6266093 C21.0613186,21.6263362 21.3264622,21.8923082 21.3264622,22.2203291 Z M20.8234581,18.5235422 L6.06384887,18.5235422 C5.73624086,18.5235422 5.47136956,18.2575706 5.47136956,17.9298226 C5.47136956,17.6018017 5.7365132,17.336103 6.06384887,17.336103 L20.8234581,17.336103 C21.1510662,17.336103 21.4159375,17.6020746 21.4159375,17.9298226 C21.4159375,18.2575706 21.1510662,18.5235422 20.8234581,18.5235422 Z M24.9711067,14.2330636 L11.8839645,14.2330636 C11.5563565,14.2330636 11.2914852,13.967092 11.2914852,13.639344 L11.2914852,12.4428637 C11.2914852,10.245421 12.9707259,8.43446561 15.1104363,8.22810109 C13.6791676,8.02800659 12.5703114,6.8061523 12.5703114,5.31744469 C12.5703114,3.68745191 13.8913859,2.36144268 15.5155295,2.36144268 C17.1421172,2.36144268 18.4653564,3.68745191 18.4653564,5.31744469 C18.4653564,6.80559248 17.3553829,8.02719484 15.9225081,8.22782118 C18.063266,8.43283513 19.7441827,10.2443013 19.7441827,12.4425838 L19.7441827,13.0453235 L24.9714279,13.0453235 C25.2990359,13.0453235 25.5639072,13.3112951 25.5639072,13.6390431 C25.5639072,13.967064 25.2990359,14.2330636 24.9714279,14.2330636 L24.9711067,14.2330636 Z" id="Shape" fill="#FFFFFF" fill-rule="nonzero"></path>
                        <path d="M15.5151663,9 C13.8594871,9 12.5122309,10.4981512 12.5122309,12.3395759 L12.5122309,13 L18.5181018,13 L18.5181018,12.3395759 C18.5181018,10.4981512 17.1708456,9 15.5151663,9 Z" id="Path" fill="#FFFFFF" fill-rule="nonzero"></path>
                        <path d="M17.5171233,5.30245622 C17.5171233,4.19810633 16.6179876,3.3 15.5125489,3.3 C14.4104414,3.3 13.5132094,4.19818556 13.5132094,5.30245622 C13.5132094,6.4036368 14.4102035,7.3 15.5125489,7.3 C16.6180669,7.3 17.5171233,6.40371603 17.5171233,5.30245622 Z" id="Path" fill="#FFFFFF" fill-rule="nonzero"></path>
                        <path d="M36.035225,25.940329 L35.730442,26.6369935 C35.6310403,26.865255 35.3944342,27 35.1518075,27 C35.0710248,27 34.9899635,26.9824827 34.9154801,26.953108 L23.4111351,22.4690114 C23.0937463,22.3461258 22.9382015,22.0006291 23.0688207,21.7023217 L23.3799103,21 L36.035225,25.940329 Z" id="Path" fill="#FFFFFF" fill-rule="nonzero"></path>
                        <path d="M37.7392885,25.6349814 C37.6528835,25.8645081 37.4342111,26 37.20971,26 C37.1349622,26 37.0599566,25.9883475 36.9910375,25.9588099 L23.3809217,20.1903276 C23.236997,20.1315231 23.1275285,20.0196082 23.0700156,19.8724617 C23.006668,19.7312743 23.006668,19.5662435 23.0700156,19.425063 C23.6629425,17.9476317 25.0563,17 26.6164625,17 C27.1229775,17 27.6181203,17.0999939 28.0904506,17.2942931 L35.6608994,20.5022274 C36.6108527,20.9084395 37.3476771,21.6617928 37.7391935,22.6330113 C38.1365115,23.5982636 38.1365115,24.6697256 37.7391935,25.634978 L37.7392885,25.6349814 Z" id="Path" fill="#FFFFFF" fill-rule="nonzero"></path>
                        <path d="M36.796498,14.0942582 C36.4464152,14.8777246 35.7577023,15.4831512 34.9089234,15.7555474 L33.9116851,18 L30.0293542,16.4944874 L31.0205757,14.2500348 C30.6286766,13.4944629 30.5991667,12.6053775 30.9435056,11.8278044 C31.4362479,10.7166769 32.5818756,10 33.8701557,10 C34.2858279,10 34.6952175,10.0777573 35.0811278,10.2279026 C36.6957107,10.8497057 37.4614447,12.5885165 36.7965959,14.094291 L36.796498,14.0942582 Z" id="Path" fill="#FFFFFF" fill-rule="nonzero"></path>
                    </g>
                    <g id="Group-40-Copy" opacity="0.08" fill-rule="evenodd" stroke-width="1" fill="none" transform="translate(1285.706580, 125.000000)">
                        <polygon id="Path" fill="#FFFFFF" fill-rule="nonzero" points="7.00684932 0 1.00097847 8 7.00684932 8"></polygon>
                        <path d="M31.0303327,10.0046554 L31.0303327,3.40211046 C31.0303327,1.52586582 29.5133806,0 27.6410555,0 L7.92200519,0 L7.92200519,7.96207351 C7.92200519,8.29446803 7.66122602,8.55579311 7.32952587,8.55579311 L0,8.55579311 L0,34.6036277 C0,36.4741342 1.52267827,38 3.39500342,38 L27.6405387,38 C29.5128638,38 31.0298159,36.4741342 31.0298159,34.6036277 L31.0298159,27.75784 L22.8769754,24.3735039 C21.9762872,23.9995566 21.5378844,22.9545642 21.9110645,22.0459025 L22.2073042,21.3275104 C21.834138,21.1435458 21.537633,20.8286457 21.371769,20.4309549 C21.1761846,19.9796541 21.1761846,19.4630221 21.3834986,19.0120152 C22.4263639,16.4767197 25.365297,15.1823404 28.0728781,16.2569194 L28.9438878,16.6191105 L29.7496747,14.6714885 C29.4237007,13.6857813 29.453435,12.6052542 29.8563285,11.6315831 C30.1231062,10.9785503 30.5320052,10.4320937 31.0298487,10.0045994 L31.0303327,10.0046554 Z M18.6687409,31.3947679 L6.06413518,31.3947679 C5.73652716,31.3947679 5.47165587,31.1287963 5.47165587,30.8010483 C5.47165587,30.4730274 5.73679951,30.2073287 6.06413518,30.2073287 L18.6687409,30.2073287 C18.996349,30.2073287 19.2612205,30.4733003 19.2612205,30.8010483 C19.2614931,31.1290693 18.996349,31.3947679 18.6690133,31.3947679 L18.6687409,31.3947679 Z M24.9710438,25.9168362 C25.2986518,25.9168362 25.5635231,26.1828078 25.5635231,26.5105558 C25.5635231,26.8385767 25.2983795,27.1042754 24.9710438,27.1042754 L6.06413518,27.1045487 C5.73652716,27.1045487 5.47165587,26.8385771 5.47165587,26.5108291 C5.47165587,26.1828082 5.73679951,25.9171095 6.06413518,25.9171095 L24.9710438,25.9168362 Z M21.3264622,22.2203291 C21.3264622,22.5483501 21.0613186,22.8140487 20.7339829,22.8140487 L6.06445641,22.8140487 C5.73684839,22.8140487 5.47197709,22.5480771 5.47197709,22.2203291 C5.47197709,21.8923082 5.73712073,21.6266093 6.06445641,21.6266093 L20.7339829,21.6266093 C21.0613186,21.6263362 21.3264622,21.8923082 21.3264622,22.2203291 Z M20.8234581,18.5235422 L6.06384887,18.5235422 C5.73624086,18.5235422 5.47136956,18.2575706 5.47136956,17.9298226 C5.47136956,17.6018017 5.7365132,17.336103 6.06384887,17.336103 L20.8234581,17.336103 C21.1510662,17.336103 21.4159375,17.6020746 21.4159375,17.9298226 C21.4159375,18.2575706 21.1510662,18.5235422 20.8234581,18.5235422 Z M24.9711067,14.2330636 L11.8839645,14.2330636 C11.5563565,14.2330636 11.2914852,13.967092 11.2914852,13.639344 L11.2914852,12.4428637 C11.2914852,10.245421 12.9707259,8.43446561 15.1104363,8.22810109 C13.6791676,8.02800659 12.5703114,6.8061523 12.5703114,5.31744469 C12.5703114,3.68745191 13.8913859,2.36144268 15.5155295,2.36144268 C17.1421172,2.36144268 18.4653564,3.68745191 18.4653564,5.31744469 C18.4653564,6.80559248 17.3553829,8.02719484 15.9225081,8.22782118 C18.063266,8.43283513 19.7441827,10.2443013 19.7441827,12.4425838 L19.7441827,13.0453235 L24.9714279,13.0453235 C25.2990359,13.0453235 25.5639072,13.3112951 25.5639072,13.6390431 C25.5639072,13.967064 25.2990359,14.2330636 24.9714279,14.2330636 L24.9711067,14.2330636 Z" id="Shape" fill="#FFFFFF" fill-rule="nonzero"></path>
                        <path d="M15.5151663,9 C13.8594871,9 12.5122309,10.4981512 12.5122309,12.3395759 L12.5122309,13 L18.5181018,13 L18.5181018,12.3395759 C18.5181018,10.4981512 17.1708456,9 15.5151663,9 Z" id="Path" fill="#FFFFFF" fill-rule="nonzero"></path>
                        <path d="M17.5171233,5.30245622 C17.5171233,4.19810633 16.6179876,3.3 15.5125489,3.3 C14.4104414,3.3 13.5132094,4.19818556 13.5132094,5.30245622 C13.5132094,6.4036368 14.4102035,7.3 15.5125489,7.3 C16.6180669,7.3 17.5171233,6.40371603 17.5171233,5.30245622 Z" id="Path" fill="#FFFFFF" fill-rule="nonzero"></path>
                        <path d="M36.035225,25.940329 L35.730442,26.6369935 C35.6310403,26.865255 35.3944342,27 35.1518075,27 C35.0710248,27 34.9899635,26.9824827 34.9154801,26.953108 L23.4111351,22.4690114 C23.0937463,22.3461258 22.9382015,22.0006291 23.0688207,21.7023217 L23.3799103,21 L36.035225,25.940329 Z" id="Path" fill="#FFFFFF" fill-rule="nonzero"></path>
                        <path d="M37.7392885,25.6349814 C37.6528835,25.8645081 37.4342111,26 37.20971,26 C37.1349622,26 37.0599566,25.9883475 36.9910375,25.9588099 L23.3809217,20.1903276 C23.236997,20.1315231 23.1275285,20.0196082 23.0700156,19.8724617 C23.006668,19.7312743 23.006668,19.5662435 23.0700156,19.425063 C23.6629425,17.9476317 25.0563,17 26.6164625,17 C27.1229775,17 27.6181203,17.0999939 28.0904506,17.2942931 L35.6608994,20.5022274 C36.6108527,20.9084395 37.3476771,21.6617928 37.7391935,22.6330113 C38.1365115,23.5982636 38.1365115,24.6697256 37.7391935,25.634978 L37.7392885,25.6349814 Z" id="Path" fill="#FFFFFF" fill-rule="nonzero"></path>
                        <path d="M36.796498,14.0942582 C36.4464152,14.8777246 35.7577023,15.4831512 34.9089234,15.7555474 L33.9116851,18 L30.0293542,16.4944874 L31.0205757,14.2500348 C30.6286766,13.4944629 30.5991667,12.6053775 30.9435056,11.8278044 C31.4362479,10.7166769 32.5818756,10 33.8701557,10 C34.2858279,10 34.6952175,10.0777573 35.0811278,10.2279026 C36.6957107,10.8497057 37.4614447,12.5885165 36.7965959,14.094291 L36.796498,14.0942582 Z" id="Path" fill="#FFFFFF" fill-rule="nonzero"></path>
                    </g>
                    <g id="Group-18-Copy" opacity="0.08" fill-rule="evenodd" stroke-width="1" fill="none" transform="translate(1101.583292, 54.000000)">
                        <path d="M23.0516596,20.1165049 C22.6629301,19.7281553 22.6629301,19.1456311 23.0516596,18.7572816 L23.926301,17.8834951 L20.1361883,14.0970874 L19.2615469,14.9708738 C18.8728174,15.3592233 18.2897232,15.3592233 17.9009937,14.9708738 L17.5122642,14.5825243 C16.7348052,13.8058252 15.3742519,13.8058252 14.5967929,14.5825243 C14.2080634,14.9708738 14.0136986,15.4563107 14.0136986,16.038835 C14.0136986,16.6213592 14.2080634,17.1067961 14.5967929,17.4951456 L20.5249178,23.4174757 C21.3023768,24.1941748 22.6629301,24.1941748 23.4403891,23.4174757 C23.8291186,23.0291262 24.0234834,22.5436893 24.0234834,21.961165 C24.0234834,21.3786408 23.8291186,20.8932039 23.4403891,20.5048544 L23.0516596,20.1165049 Z" id="Path" fill="#F5F8FA" fill-rule="nonzero"></path>
                        <path d="M28.999221,4.01960784 C29.3879505,4.41176471 29.3879505,5 28.999221,5.39215686 L28.221762,6.17647059 L31.9146923,9.90196078 L32.7893337,9.01960784 C33.1780632,8.62745098 33.7611574,8.62745098 34.149887,9.01960784 L34.5386165,9.41176471 C35.3160755,10.1960784 36.6766287,10.1960784 37.4540877,9.41176471 C37.8428172,9.01960784 38.037182,8.52941176 38.037182,7.94117647 C38.037182,7.35294118 37.8428172,6.8627451 37.4540877,6.47058824 L31.5259628,0.588235294 C30.7485038,-0.196078431 29.3879505,-0.196078431 28.6104915,0.588235294 C27.8330325,1.37254902 27.8330325,2.74509804 28.6104915,3.52941176 L28.999221,4.01960784 Z" id="Path" fill="#F5F8FA" fill-rule="nonzero"></path>
                        <polygon id="Path" fill="#F5F8FA" fill-rule="nonzero" points="0.911605396 41 0 41 0 47 17.0166341 47 17.0166341 41"></polygon>
                        <polygon id="Path" fill="#F5F8FA" fill-rule="nonzero" points="2.00195695 37 15.0146771 37 15.0146771 40 2.00195695 40"></polygon>
                        <path d="M26.7261252,7.2 C26.6260274,7.2 26.5259295,7.1 26.4258317,7 C26.3257339,6.9 26.3257339,6.8 26.225636,6.7 L24.6240705,5 L19.018591,10.6 L27.4268102,19 L33.0322896,13.4 L26.7261252,7.2 Z" id="Path" fill="#F5F8FA" fill-rule="nonzero"></path>
                        <path d="M6.72085547,32.7073171 C6.5301929,32.902439 6.33953033,33 6.05353648,33 C5.76754263,33 5.57688007,32.902439 5.3862175,32.7073171 L3.28892927,30.6585366 C2.90760414,30.2682927 2.90760414,29.6829268 3.28892927,29.2926829 C3.6702544,28.902439 4.2422421,28.902439 4.62356724,29.2926829 L6.72085547,31.3414634 C7.1021806,31.7317073 7.1021806,32.3170732 6.72085547,32.7073171 Z" id="Path" fill="#F5F8FA" fill-rule="nonzero"></path>
                        <path d="M10.0097847,28 L10.0097847,31 C10.0097847,31.5 9.5092955,32 9.00880626,32 C8.50831703,32 8.00782779,31.5 8.00782779,31 L8.00782779,28 C8.00782779,27.5 8.50831703,27 9.00880626,27 C9.5092955,27 10.0097847,27.5 10.0097847,28 Z" id="Path" fill="#F5F8FA" fill-rule="nonzero"></path>
                        <path d="M13.7207293,30.6585366 L11.6699442,32.7073171 C11.4746313,32.902439 11.2793184,33 10.9863491,33 C10.6933798,33 10.4980669,32.902439 10.302754,32.7073171 C9.9121283,32.3170732 9.9121283,31.7317073 10.302754,31.3414634 L12.3535392,29.2926829 C12.744165,28.902439 13.3301036,28.902439 13.7207293,29.2926829 C14.1113551,29.6829268 14.1113551,30.2682927 13.7207293,30.6585366 Z" id="Path" fill="#F5F8FA" fill-rule="nonzero"></path>
                        <polygon id="Path" fill="#F5F8FA" fill-rule="nonzero" points="30.0293542 17.4333096 31.4640663 16 52.0508806 36.5666904 50.6161685 38"></polygon>
                    </g>
                </g>
            </g>
        </g>
    </g>
</svg>