<?xml version="1.0" encoding="UTF-8"?>
<svg width="60px" height="60px" viewBox="0 0 60 60" version="1.1" xmlns="http://www.w3.org/2000/svg" xmlns:xlink="http://www.w3.org/1999/xlink">
    <title>Business Location</title>
    <g id="Accounts-(Float-Care)" stroke="none" stroke-width="1" fill="none" fill-rule="evenodd">
        <g id="Reporting-manager/View-profile" transform="translate(-158.000000, -434.000000)">
            <g id="Business-Location" transform="translate(158.000000, 434.000000)">
                <rect id="Rectangle" fill="#5C63AB" x="0" y="0" width="60" height="60" rx="30"></rect>
                <path d="M30,25 L30,23 C30,21.9 29.1,21 28,21 L22,21 C20.9,21 20,21.9 20,23 L20,37 C20,38.1 20.9,39 22,39 L38,39 C39.1,39 40,38.1 40,37 L40,27 C40,25.9 39.1,25 38,25 L30,25 Z M28,37 L22,37 L22,35 L28,35 L28,37 Z M28,33 L22,33 L22,31 L28,31 L28,33 Z M28,29 L22,29 L22,27 L28,27 L28,29 Z M28,25 L22,25 L22,23 L28,23 L28,25 Z M38,37 L30,37 L30,27 L38,27 L38,37 Z M36,29 L32,29 L32,31 L36,31 L36,29 Z M36,33 L32,33 L32,35 L36,35 L36,33 Z" id="Shape" fill="#FFFFFF" fill-rule="nonzero"></path>
            </g>
        </g>
    </g>
</svg>