<?xml version="1.0" encoding="UTF-8"?>
<svg width="96px" height="96px" viewBox="0 0 96 96" version="1.1" xmlns="http://www.w3.org/2000/svg" xmlns:xlink="http://www.w3.org/1999/xlink">
    <title>Business Location hover@3x</title>
    <g id="Welcome" stroke="none" stroke-width="1" fill="none" fill-rule="evenodd">
        <g id="Manage-Business" transform="translate(-227.000000, -167.000000)">
            <g id="Group-8" transform="translate(89.136039, 141.000000)">
                <g id="Business-Location-hover" transform="translate(137.863961, 26.000000)">
                    <rect id="Rectangle-Copy-2" fill="#F1F1F5" x="0" y="0" width="96" height="96" rx="15"></rect>
                    <g id="Group-7" transform="translate(17.000000, 20.000000)" fill-rule="nonzero">
                        <polygon id="Path" fill="#5C63AB" points="19 32 22 32 22 35 19 35"></polygon>
                        <polygon id="Path" fill="#5C63AB" points="25 32 28 32 28 35 25 35"></polygon>
                        <polygon id="Path" fill="#5C63AB" points="13 32 16 32 16 35 13 35"></polygon>
                        <path d="M54.5638949,18.6667333 L34.9398248,18.6667333 L34.9398248,8.70501554 C34.9398248,7.91204413 34.2968525,7.26911298 33.5039197,7.26911298 L28.1055004,7.26911298 C26.4792946,3.0218054 22.3788799,0 17.5894628,0 C12.7996457,0 8.69963107,3.0219054 7.07342526,7.26911298 L1.43590513,7.26911298 C0.642932296,7.26911298 0,7.91208413 0,8.70501554 L0,54.5640974 C0,55.3570689 0.642972296,56 1.43590513,56 L54.5640949,56 C55.3570677,56 56,55.3570289 56,54.5640974 L56,20.1030359 C56,19.3100645 55.3570277,18.6671333 54.5640949,18.6671333 L54.5638949,18.6667333 Z M17.5897628,2.87170513 C22.2174793,2.87170513 25.9827928,6.6651119 25.9827928,11.3279202 C25.9827928,17.0279304 19.8268708,22.4829401 17.5729628,24.2889434 C15.3155547,22.5436403 9.19673285,17.2631308 9.19673285,11.3279202 C9.19673285,6.6650119 12.9619463,2.87170513 17.5897628,2.87170513 Z M23.5725842,53.1277949 L18.5467662,53.1277949 L18.5467662,41.4007739 L23.5725842,41.4007739 L23.5725842,53.1277949 Z M32.0685765,53.1281855 L26.4444944,53.1281855 L26.4444944,39.9657714 C26.4444944,39.1728 25.8015221,38.5298688 25.0085893,38.5298688 L9.93153547,38.5302594 C9.13856264,38.5302594 8.49563034,39.1732306 8.49563034,39.966162 L8.49563034,53.1281855 L2.87181026,53.1281855 L2.87181026,10.1403591 L6.38702281,10.1403591 C6.34639767,10.5309488 6.32530359,10.9270495 6.32530359,11.3278202 C6.32530359,20.0977359 16.3583394,26.9858482 16.7853409,27.2748487 C17.2806527,27.6100093 17.932645,27.6029693 18.4208468,27.2564897 C18.8470183,26.9541491 28.8548841,19.7568763 28.8548841,11.3274612 C28.8548841,10.9266805 28.83379,10.5305798 28.7931648,10.1403591 L32.0685765,10.1403591 L32.0685765,53.1281855 Z M41.8804496,48.1023859 L39.0085393,48.1023859 L39.0085393,44.8714801 L41.8804496,44.8714801 L41.8804496,48.1023859 Z M41.8804496,38.8886694 L39.0085393,38.8886694 L39.0085393,35.6577637 L41.8804496,35.6577637 L41.8804496,38.8886694 Z M41.8804496,30.0339536 L39.0085393,30.0339536 L39.0085393,26.8030479 L41.8804496,26.8030479 L41.8804496,30.0339536 Z M49.0597752,48.1019859 L46.187865,48.1019859 L46.187865,44.8710801 L49.0597752,44.8710801 L49.0597752,48.1019859 Z M49.0597752,38.8882694 L46.187865,38.8882694 L46.187865,35.6573637 L49.0597752,35.6573637 L49.0597752,38.8882694 Z M49.0597752,30.0335536 L46.187865,30.0335536 L46.187865,26.8026479 L49.0597752,26.8026479 L49.0597752,30.0335536 Z" id="Shape" fill="#4394AD"></path>
                        <polygon id="Path" fill="#5C63AB" points="16.3836911 16 18.6163089 16 18.6163089 13.1163089 21.5 13.1163089 21.5 10.8836911 18.6163089 10.8836911 18.6163089 8 16.3836911 8 16.3836911 10.8836911 13.5 10.8836911 13.5 13.1163089 16.3836911 13.1163089"></polygon>
                    </g>
                </g>
            </g>
        </g>
    </g>
</svg>