<?xml version="1.0" encoding="UTF-8"?>
<svg width="16px" height="14px" viewBox="0 0 16 14" version="1.1" xmlns="http://www.w3.org/2000/svg" xmlns:xlink="http://www.w3.org/1999/xlink">
    <title>Camera@3x</title>
    <g id="Chat" stroke="none" stroke-width="1" fill="none" fill-rule="evenodd">
        <g id="Group-chat-/Picture-remove" transform="translate(-1388.000000, -336.000000)" fill="#5C63AB" fill-rule="nonzero">
            <g id="Group-22" transform="translate(1262.000000, 228.000000)">
                <g id="Group-14" transform="translate(74.000000, 0.000000)">
                    <g id="Camera" transform="translate(52.000000, 108.000000)">
                        <path d="M8,11.4722222 C9.05333333,11.4722222 9.95,11.1125 10.69,10.3930556 C11.43,9.67361111 11.8,8.80185185 11.8,7.77777778 C11.8,6.7537037 11.43,5.88194444 10.69,5.1625 C9.95,4.44305556 9.05333333,4.08333333 8,4.08333333 C6.94666667,4.08333333 6.05,4.44305556 5.31,5.1625 C4.57,5.88194444 4.2,6.7537037 4.2,7.77777778 C4.2,8.80185185 4.57,9.67361111 5.31,10.3930556 C6.05,11.1125 6.94666667,11.4722222 8,11.4722222 Z M8,10.3055556 C7.28,10.3055556 6.66666667,10.0592593 6.16,9.56666667 C5.65333333,9.07407407 5.4,8.47777778 5.4,7.77777778 C5.4,7.07777778 5.65333333,6.48148148 6.16,5.98888889 C6.66666667,5.4962963 7.28,5.25 8,5.25 C8.72,5.25 9.33333333,5.4962963 9.84,5.98888889 C10.3466667,6.48148148 10.6,7.07777778 10.6,7.77777778 C10.6,8.47777778 10.3466667,9.07407407 9.84,9.56666667 C9.33333333,10.0592593 8.72,10.3055556 8,10.3055556 Z M12.8,5.25 C12.9733333,5.25 13.1166667,5.19490741 13.23,5.08472222 C13.3433333,4.97453704 13.4,4.83518519 13.4,4.66666667 C13.4,4.49814815 13.3433333,4.3587963 13.23,4.24861111 C13.1166667,4.13842593 12.9733333,4.08333333 12.8,4.08333333 C12.6266667,4.08333333 12.4833333,4.13842593 12.37,4.24861111 C12.2566667,4.3587963 12.2,4.49814815 12.2,4.66666667 C12.2,4.83518519 12.2566667,4.97453704 12.37,5.08472222 C12.4833333,5.19490741 12.6266667,5.25 12.8,5.25 Z M1.2,14 C0.88,14 0.6,13.8833333 0.36,13.65 C0.12,13.4166667 0,13.1444444 0,12.8333333 L0,2.85833333 C0,2.54722222 0.12,2.275 0.36,2.04166667 C0.6,1.80833333 0.88,1.69166667 1.2,1.69166667 L4.14,1.69166667 L5.42,0.213888889 C5.48666667,0.149074074 5.55666667,0.0972222222 5.63,0.0583333333 C5.70333333,0.0194444444 5.78666667,0 5.88,0 L10.12,0 C10.2133333,0 10.2966667,0.0194444444 10.37,0.0583333333 C10.4433333,0.0972222222 10.5133333,0.149074074 10.58,0.213888889 L11.86,1.69166667 L14.8,1.69166667 C15.12,1.69166667 15.4,1.80833333 15.64,2.04166667 C15.88,2.275 16,2.54722222 16,2.85833333 L16,12.8333333 C16,13.1444444 15.88,13.4166667 15.64,13.65 C15.4,13.8833333 15.12,14 14.8,14 L1.2,14 Z" id="Shape"></path>
                    </g>
                </g>
            </g>
        </g>
    </g>
</svg>