<?xml version="1.0" encoding="UTF-8"?>
<svg width="167px" height="296px" viewBox="0 0 167 296" version="1.1" xmlns="http://www.w3.org/2000/svg" xmlns:xlink="http://www.w3.org/1999/xlink">
    <title>Case @3x</title>
    <defs>
        <polygon id="path-1" points="0 0 41.5001175 0 41.5001175 36.1276006 0 36.1276006"></polygon>
        <polygon id="path-3" points="0 0 41.5001175 0 41.5001175 36.1276006 0 36.1276006"></polygon>
        <polygon id="path-5" points="-1.13686838e-13 36.704 41.69407 36.704 41.69407 -2.84217094e-14 -1.13686838e-13 -2.84217094e-14"></polygon>
    </defs>
    <g id="Cases" stroke="none" stroke-width="1" fill="none" fill-rule="evenodd">
        <g id="Client-Cases/Dashboard" transform="translate(-1293.000000, -140.000000)">
            <g id="Group-2" transform="translate(137.000000, 140.000000)">
                <g id="Case-" transform="translate(1239.499824, 148.000000) scale(-1, 1) translate(-1239.499824, -148.000000) translate(1156.000426, 0.000000)">
                    <g id="Group-5" transform="translate(0.000000, 0.000000)">
                        <g id="Group-17" transform="translate(27.230062, 187.731890) scale(-1, -1) rotate(30.000000) translate(-27.230062, -187.731890) translate(6.383027, 169.379890)">
                            <g id="Group-3" transform="translate(0.111199, 0.410541)">
                                <mask id="mask-2" fill="white">
                                    <use xlink:href="#path-1"></use>
                                </mask>
                                <g id="Clip-2"></g>
                                <path d="M0,2.86677056 L0,36.1279183 L41.5001175,36.1279183 L41.5001175,2.86677056 C41.5001175,1.28372346 40.1830159,0 38.5573511,0 L2.94276645,0 C1.31775398,0 0,1.28372346 0,2.86677056" id="Fill-1" fill="#FF725E" mask="url(#mask-2)"></path>
                            </g>
                            <g id="Group-6" transform="translate(0.111199, 0.410541)">
                                <mask id="mask-4" fill="white">
                                    <use xlink:href="#path-3"></use>
                                </mask>
                                <g id="Clip-5"></g>
                                <path d="M0,2.86677056 L0,36.1279183 L41.5001175,36.1279183 L41.5001175,2.86677056 C41.5001175,1.28372346 40.1830159,0 38.5573511,0 L2.94276645,0 C1.31775398,0 0,1.28372346 0,2.86677056" id="Fill-4" fill="#FFFFFF" mask="url(#mask-4)"></path>
                            </g>
                            <polyline id="Fill-7" fill="#4394AD" points="2.68260977 19.4349026 2.95736835 7.93975701 39.2027132 7.93975701 39.2027132 14.4985829"></polyline>
                            <path d="M39.0574138,14.1238207 C39.0502785,13.807446 39.0405487,13.3836455 39.0282242,12.849468 C39.0158997,11.7091023 38.9983859,10.0983063 38.9769802,8.09381262 L39.089198,8.19592611 C34.0335563,8.20832139 26.6180961,8.22661918 18.358083,8.24727798 C12.6725942,8.23783396 7.38667879,8.22898019 2.97904655,8.22189717 L3.11980537,8.09617363 C3.01342543,11.4954313 2.92455926,14.3215549 2.86163942,16.3307706 C2.82207127,17.2987829 2.79028702,18.0684707 2.76758399,18.625668 C2.75331351,18.8712126 2.74163766,19.0701273 2.73190779,19.2283147 C2.72152926,19.3646627 2.71244804,19.4349026 2.7053128,19.4349026 C2.69817756,19.4349026 2.69233964,19.3640725 2.68844769,19.2277244 C2.68715038,19.0689468 2.6852044,18.8700321 2.68260977,18.6238972 C2.68650172,18.0661097 2.69233964,17.2958316 2.69947488,16.3278194 C2.73320511,14.3180134 2.78055715,11.4907093 2.83828773,8.09086136 L2.8402337,7.96572807 L2.97904655,7.96572807 C7.38667879,7.9580548 12.6725942,7.94920103 18.358083,7.93975701 C26.6180961,7.96041581 34.0335563,7.9787136 39.089198,7.99169913 L39.2027132,7.99169913 L39.2014159,8.09381262 C39.1800102,10.0983063 39.1624964,11.7091023 39.1501719,12.849468 C39.1378474,13.3836455 39.1281175,13.807446 39.1203336,14.1238207 C39.1106037,14.4136341 39.1002252,14.5647385 39.089198,14.5647385 C39.0781708,14.5647385 39.0677923,14.4136341 39.0574138,14.1238207 Z" id="Fill-9" fill="#1F3D5A"></path>
                            <mask id="mask-6" fill="white">
                                <use xlink:href="#path-5"></use>
                            </mask>
                            <g id="Clip-12"></g>
                            <polygon id="Fill-11" fill="#4394AD" mask="url(#mask-6)" points="6.46922809 6.05600756 38.0093174 6.05600756 38.0093174 2.77168024 6.46922809 2.77168024"></polygon>
                            <path d="M6.54130648,2.92049395 C6.53744514,2.91705979 6.58699904,2.91362563 6.6880375,2.91019147 C6.80838267,2.90732966 6.95768792,2.90446786 7.1423888,2.89988898 C7.57228494,2.8953101 8.16500102,2.88844177 8.91731925,2.87985636 C10.4991826,2.86898152 12.7490582,2.85410014 15.5350168,2.83578461 C21.1996063,2.81975852 29.0362009,2.79743646 37.841349,2.7722526 L38.0086739,2.77168024 L38.0086739,2.92049395 C38.0086739,3.86775048 38.0086739,4.87396014 38.0093174,5.891617 C37.6740242,6.19210623 37.9102096,5.97518162 37.8329828,6.0421478 L37.8226859,6.0421478 L37.8027356,6.0421478 L37.7621915,6.0421478 L37.6804597,6.0421478 L37.5182834,6.0421478 L37.1939306,6.0421478 L36.5471557,6.0421478 C36.116616,6.0421478 35.6886506,6.04157543 35.2626158,6.04157543 C34.4111897,6.04100307 33.5674864,6.04100307 32.73408,6.04043071 C31.0672671,6.03871363 29.4390677,6.03756891 27.8578479,6.03585183 C24.6992697,6.02955587 21.7311844,6.02383226 19.0237398,6.01810866 C13.6403847,5.99120772 9.30023572,5.97003038 6.54130648,5.95629373 L6.46922809,5.95572137 L6.4705152,5.89276172 C6.48789124,4.9352027 6.50140594,4.19113413 6.51041574,3.66284545 C6.51749487,3.42989475 6.52328688,3.24559468 6.52779178,3.10135985 C6.53229668,2.97715764 6.53680158,2.91648743 6.54130648,2.92049395 C6.54581138,2.92450048 6.55031628,2.99318373 6.55546474,3.12425427 C6.55932608,3.2713509 6.5651181,3.46080221 6.57219722,3.69947651 C6.58120702,4.21917979 6.59472172,4.9512288 6.61209776,5.89276172 L6.54130648,5.82980207 C9.30023572,5.81606542 13.6403847,5.79488809 19.0237398,5.76798714 C21.7311844,5.76226354 24.6992697,5.75653994 27.8578479,5.75024397 C29.4390677,5.74852689 31.0672671,5.74738217 32.73408,5.74566509 C33.5674864,5.74509273 34.4111897,5.74509273 35.2626158,5.74452037 C35.6886506,5.74452037 36.116616,5.74452037 36.5471557,5.74394801 L37.1939306,5.74394801 L37.5182834,5.74394801 L37.6804597,5.74394801 L37.7621915,5.74394801 L37.8027356,5.74394801 L37.8226859,5.74394801 L37.8329828,5.74394801 C37.7609044,5.80976946 38.0086739,5.59685137 37.6740242,5.891617 C37.6740242,4.87396014 37.6746677,3.86775048 37.6746677,2.92049395 L37.841349,3.06873531 C29.0838242,3.04355145 21.2897043,3.02122939 15.6560055,3.0052033 C12.853958,2.98688777 10.5905677,2.97200639 8.99969456,2.96113155 C8.23064384,2.95254614 7.62570018,2.94567781 7.18679424,2.94052657 C6.99308356,2.93652005 6.83669919,2.93308588 6.71120555,2.93079644 C6.60244441,2.92736228 6.54516783,2.92392812 6.54130648,2.92049395" id="Fill-13" fill="#1F3D5A" mask="url(#mask-6)"></path>
                            <path d="M0.0421528295,36.9741338 L42.2537766,37.7042028 L42.2537766,14.7422184 L23.6737448,14.7422184 L20.0697678,11.6562028 L0.30577429,11.6562028 C-0.977869179,11.6562028 -1.96954164,12.7543711 -1.804906,13.9934104 L0.0421528295,36.9741338 Z" id="Fill-14" fill="#535671" mask="url(#mask-6)"></path>
                            <path d="M30.3248816,22.5502748 C30.3248816,22.573922 25.8651292,22.5929711 20.3651734,22.5929711 C14.8639373,22.5929711 10.4048251,22.573922 10.4048251,22.5502748 C10.4048251,22.5266277 14.8639373,22.5075786 20.3651734,22.5075786 C25.8651292,22.5075786 30.3248816,22.5266277 30.3248816,22.5502748" id="Fill-15" stroke="#FFFFFF" stroke-linecap="square" stroke-linejoin="round" mask="url(#mask-6)"></path>
                            <path d="M29.9396761,28.4589048 C29.9396761,28.482552 25.4799238,28.5016011 19.979968,28.5016011 C14.4787319,28.5016011 10.0196197,28.482552 10.0196197,28.4589048 C10.0196197,28.4352577 14.4787319,28.4162086 19.979968,28.4162086 C25.4799238,28.4162086 29.9396761,28.4352577 29.9396761,28.4589048" id="Fill-16" stroke="#FFFFFF" stroke-linecap="square" stroke-linejoin="round" mask="url(#mask-6)"></path>
                        </g>
                        <g id="Group-4" transform="translate(10.165333, 0.000000)">
                            <g id="Head/Front" transform="translate(50.867167, 0.000000)">
                                <path d="M22.6264055,46.9992846 C30.8569448,46.9992846 33.8502874,37.0609157 38.5263029,31.6070085 C41.871896,27.7048498 47.5817895,28.8684071 49.2719222,23.4054698 C53.5219127,9.66842317 42.1468452,0 27.3073747,0 C12.4679041,0 2.46223076,8.47949541 0.301783463,21.226445 C-1.85866383,33.9733945 7.78693497,46.9992846 22.6264055,46.9992846 Z" id="Hair-Back" fill="#232323"></path>
                                <g id="Head" transform="translate(17.585362, 13.074149)" fill="#FFBC65">
                                    <path d="M27.4688929,6.63435563 C31.6420206,14.4796599 31.1461446,34.3799248 25.7527488,35.7820996 C23.6018626,36.3412868 19.019827,34.9714953 14.3563918,32.1364515 L17.2835784,53.0229382 L0,53.0229382 L5.94980138,25.0512976 C2.6315664,21.1227547 0.385747006,16.3083141 0.761036524,10.9136125 C1.8423792,-4.63044277 23.2957652,-1.21094866 27.4688929,6.63435563 Z" id="Head-[skin]"></path>
                                </g>
                                <path d="M46.0911392,19.7525166 C42.7857086,20.3783584 36.1285302,23.5612713 30.8208664,28.1269696 C30.1934494,27.7912732 29.4739659,27.6009815 28.7092661,27.6009815 C26.2606084,27.6009815 24.275579,29.5521469 24.275579,31.9590313 C24.275579,32.9416949 24.6064558,33.8483965 25.164673,34.5773661 C24.1134472,36.3236899 23.3966316,38.1583927 23.1616483,40.044501 C19.5204277,40.044501 6.23118887,26.1482983 19.4698409,13.0741492 C32.7084929,-4.28101998e-13 51.8399839,18.6640451 46.0911392,19.7525166 Z" id="Hair" fill="#232323"></path>
                            </g>
                            <g id="Bottom/Skinny-Jeans-1" transform="translate(21.994856, 125.214979)">
                                <polygon id="Leg" fill="#1B1B1B" points="40.5926483 0 66.8727364 90.9140181 86.0469602 157.922551 100.031883 157.922551 79.6565297 0"></polygon>
                                <path d="M33.5645692,0 C32.9567133,46.8581392 30.883936,72.4158417 30.2457122,76.6731073 C29.6074884,80.930373 19.9572101,108.013521 1.29487744,157.922551 L15.7823106,157.922551 C39.5408879,110.043364 52.8035336,82.9602165 55.5702478,76.6731073 C58.3369619,70.3859982 66.8753115,44.8282957 79.7355592,0 L33.5645692,0 Z" id="Leg" fill="#1B1B1B"></path>
                                <g id="Left-[shoe]" transform="translate(0.000000, 155.778806)" fill="#282828">
                                    <path d="M0.0506351801,13.9579669 L0.678894767,0.95175169 C0.704636598,0.418844918 1.14420201,7.64141343e-16 1.67773014,0 L15.9471118,0 L15.9471118,0 C23.012637,4.89643717 32.1913385,8.87991559 43.4832164,11.9504353 C43.9166433,12.0710636 44.2170413,12.4656067 44.2169919,12.9155055 L44.2169919,14.0062152 C44.2169919,14.5585 43.7692767,15.0062152 43.2169919,15.0062152 L16.7473809,15.0062152 C16.6971852,15.0062152 16.6470608,15.0024358 16.5974327,14.9949091 L7.95518972,13.684202 C7.61971456,13.6333229 7.30651255,13.8640336 7.25563343,14.1995088 C7.25100917,14.2299992 7.2486872,14.2607945 7.2486872,14.2916335 C7.2486872,14.6862861 6.92875808,15.0062152 6.53410552,15.0062152 L1.04947055,15.0062152 C0.497185802,15.0062152 0.0494705522,14.5585 0.0494705522,14.0062152 C0.0494705522,13.9901254 0.0498588746,13.974038 0.0506351801,13.9579669 Z" id="Shoe"></path>
                                </g>
                                <g id="Right-[shoe]" transform="translate(84.084771, 155.778806)" fill="#282828">
                                    <path d="M0.0506351801,13.9579669 L0.678894767,0.95175169 C0.704636598,0.418844918 1.14420201,5.42096738e-16 1.67773014,0 L15.9471118,0 L15.9471118,0 C23.012637,4.89643717 32.1913385,8.87991559 43.4832164,11.9504353 C43.9166433,12.0710636 44.2170413,12.4656067 44.2169919,12.9155055 L44.2169919,14.0062152 C44.2169919,14.5585 43.7692767,15.0062152 43.2169919,15.0062152 L16.7473809,15.0062152 C16.6971852,15.0062152 16.6470608,15.0024358 16.5974327,14.9949091 L7.95518972,13.684202 C7.61971456,13.6333229 7.30651255,13.8640336 7.25563343,14.1995088 C7.25100917,14.2299992 7.2486872,14.2607945 7.2486872,14.2916335 C7.2486872,14.6862861 6.92875808,15.0062152 6.53410552,15.0062152 L1.04947055,15.0062152 C0.497185802,15.0062152 0.0494705522,14.5585 0.0494705522,14.0062152 C0.0494705522,13.9901254 0.0498588746,13.974038 0.0506351801,13.9579669 Z" id="Shoe"></path>
                                </g>
                            </g>
                            <g id="Body/Long-Sleeve-1" transform="translate(0.000000, 48.033287)">
                                <path d="M116.109492,70.3828336 L138.279575,88.5241235 C144.441922,90.5429405 149.554901,92.9184907 153.618511,95.6507738 C154.562472,96.6056998 155.665418,98.4964559 151.574237,97.9616792 C147.483056,97.4269024 143.156037,97.0482932 142.517199,98.4184962 C141.87836,99.7886991 144.277742,101.596005 143.03483,103.424453 C142.206222,104.643418 138.760514,101.292359 132.697705,93.3712778 L110.368212,82.6969302 L116.109492,70.3828336 Z" id="Arm" fill="#FFBC65" fill-rule="nonzero" transform="translate(132.434927, 87.025569) rotate(9.000000) translate(-132.434927, -87.025569) "></path>
                                <path d="M42.6021045,68.6011601 C32.0925766,94.8050696 25.8472024,109.155362 23.8659819,111.652036 C22.4131319,113.482874 13.5590049,118.101253 7.57685646,120.543829 C5.17570321,121.524246 5.65604988,123.534087 6.34538837,124.18729 C11.9523134,129.500297 17.1868619,125.73969 23.3122397,124.352151 C30.0231172,122.831983 27.8148157,130.682862 33.1165498,129.563129 C32.3316913,125.941134 30.1607827,119.050188 32.6631164,115.360423 C33.7752647,113.720527 42.0325345,99.2052099 57.4349257,71.8144726 L42.6021045,68.6011601 Z" id="Arm" fill="#FFBC65" fill-rule="nonzero" transform="translate(31.609673, 99.137032) rotate(-12.000000) translate(-31.609673, -99.137032) "></path>
                                <path d="M75.0561377,6.67108959 L81.219169,5.05978105 C94.3242487,30.7962252 115.250094,53.3920555 143.996705,72.8472719 L125.853144,99.0523174 C96.3011279,70.3551324 76.9571557,39.7723821 75.0561377,6.67108959 Z" id="Coat-Back" fill="#1B1B1B" transform="translate(109.526422, 52.056049) rotate(5.000000) translate(-109.526422, -52.056049) "></path>
                                <path d="M51.7670405,82.0906198 L107.688449,82.0906198 C94.7327437,50.8566849 88.2548911,24.3238277 88.2548911,2.4920482 L71.3861647,0 C58.1289308,21.1407878 54.385053,47.1693781 51.7670405,82.0906198 Z" id="Shirt" fill="#DDE3E9"></path>
                                <path d="M72.1367782,0 C73.454365,0.0449864774 75.4612188,0.126038549 78.1573396,0.243156214 L78.1573396,0.243156214 L82.2334292,11.7928793 C82.6645891,25.8746918 85.1824974,54.2533437 89.7871541,96.9288351 L89.7871541,96.9288351 L53.129531,96.9282922 C53.2256268,99.8758899 53.3840823,102.851024 53.6048974,105.853694 L53.6048974,105.853694 L26.3482185,105.853694 C30.4253369,60.2458474 45.3144634,24.9612827 71.0155979,0 L71.0155979,0 L71.0282185,0.012 L71.035657,0 Z" id="Coat-Front" fill="#1B1B1B"></path>
                                <path d="M63.3870734,97.2125761 L53.1389738,97.2121139 C52.6904101,83.9952466 53.4941329,71.3313534 55.550142,59.2204343 C56.5947849,77.5911059 59.2067092,90.2549244 63.3870734,97.2125761 Z" id="Shade" fill-opacity="0.1" fill="#000000"></path>
                                <polygon id="Light" fill-opacity="0.2" fill="#FFFFFF" points="61.2888578 74.8896883 79.3646187 66.5576861 79.3646187 74.8896883"></polygon>
                            </g>
                        </g>
                    </g>
                    <path d="M88.9992214,50 L97.872982,51.2329074 C97.8127943,55.730699 97.7041808,58.6923891 97.5471415,60.1179775 L97.5442214,60.117 L97.6092621,60.8190529 C98.7730527,73.3757482 100.183212,83.4317731 101.398998,90.791216 L101.543931,91.661393 C102.671489,98.3761918 103.611721,102.701366 103.998551,104.474196 C104.024084,104.631844 103.31979,106.140446 101.885667,109 L97.7553538,106.392088 L96.8782214,60.097 L88.9992214,50 Z" id="Combined-Shape" fill="#173E67"></path>
                </g>
            </g>
        </g>
    </g>
</svg>