<?xml version="1.0" encoding="UTF-8"?>
<svg width="51px" height="50px" viewBox="0 0 51 50" version="1.1" xmlns="http://www.w3.org/2000/svg" xmlns:xlink="http://www.w3.org/1999/xlink">
    <title>Case info@3x</title>
    <g id="Cases" stroke="none" stroke-width="1" fill="none" fill-rule="evenodd">
        <g id="Client-Cases/Dashboard" transform="translate(-257.000000, -228.000000)">
            <g id="Group-2" transform="translate(137.000000, 140.000000)">
                <g id="Group-42" transform="translate(40.000000, 62.000000)">
                    <g id="Group-21" transform="translate(26.000000, 26.000000)">
                        <g id="Case-info" transform="translate(54.500000, 0.000000)">
                            <path d="M11.5374834,-4.66128138e-16 L38.4625166,4.66128138e-16 C42.4743509,-2.70833872e-16 43.929139,0.41771525 45.3958057,1.20209717 C46.8624723,1.98647908 48.0135209,3.13752767 48.7979028,4.60419433 C49.5822847,6.070861 50,7.52564907 50,11.5374834 L50,38.4625166 C50,42.4743509 49.5822847,43.929139 48.7979028,45.3958057 C48.0135209,46.8624723 46.8624723,48.0135209 45.3958057,48.7979028 C43.929139,49.5822847 42.4743509,50 38.4625166,50 L11.5374834,50 C7.52564907,50 6.070861,49.5822847 4.60419433,48.7979028 C3.13752767,48.0135209 1.98647908,46.8624723 1.20209717,45.3958057 C0.41771525,43.929139 1.80555915e-16,42.4743509 -3.10752092e-16,38.4625166 L3.10752092e-16,11.5374834 C-1.80555915e-16,7.52564907 0.41771525,6.070861 1.20209717,4.60419433 C1.98647908,3.13752767 3.13752767,1.98647908 4.60419433,1.20209717 C6.070861,0.41771525 7.52564907,2.70833872e-16 11.5374834,-4.66128138e-16 Z" id="Rectangle" fill-opacity="0.1" fill="#3D6083"></path>
                            <g id="medical_services_black_24dp-copy" transform="translate(6.000000, 6.000000)">
                                <rect id="Rectangle" x="0" y="0" width="38" height="38"></rect>
                                <g id="Group" transform="translate(3.166667, 3.166667)" fill="#3D6083" fill-rule="nonzero">
                                    <path d="M28.5,6.33333333 L22.1666667,6.33333333 L22.1666667,3.16666667 C22.1666667,1.425 20.7416667,0 19,0 L12.6666667,0 C10.925,0 9.5,1.425 9.5,3.16666667 L9.5,6.33333333 L3.16666667,6.33333333 C1.425,6.33333333 0,7.75833333 0,9.5 L0,28.5 C0,30.2416667 1.425,31.6666667 3.16666667,31.6666667 L28.5,31.6666667 C30.2416667,31.6666667 31.6666667,30.2416667 31.6666667,28.5 L31.6666667,9.5 C31.6666667,7.75833333 30.2416667,6.33333333 28.5,6.33333333 Z M12.6666667,3.16666667 L19,3.16666667 L19,6.33333333 L12.6666667,6.33333333 L12.6666667,3.16666667 Z M28.5,28.5 L3.16666667,28.5 L3.16666667,9.5 L28.5,9.5 L28.5,28.5 Z" id="Shape"></path>
                                </g>
                            </g>
                        </g>
                    </g>
                </g>
            </g>
        </g>
    </g>
</svg>