<?xml version="1.0" encoding="UTF-8"?>
<svg width="40px" height="40px" viewBox="0 0 40 40" version="1.1" xmlns="http://www.w3.org/2000/svg" xmlns:xlink="http://www.w3.org/1999/xlink">
    <title>Chat@3x</title>
    <g id="Chat" stroke="none" stroke-width="1" fill="none" fill-rule="evenodd">
        <g id="Chat-/Scan-chat" transform="translate(-1237.000000, -23.000000)">
            <g id="Group-39" transform="translate(1127.000000, 19.000000)">
                <g id="Chat" transform="translate(110.000000, 4.000000)">
                    <circle id="Oval-Copy" fill="#5C63AB" cx="20" cy="20" r="20"></circle>
                    <g transform="translate(8.000000, 8.000000)" id="ic-chat">
                        <circle id="Oval" cx="12" cy="12" r="12"></circle>
                        <g id="Group-42" transform="translate(1.000000, 1.000000)" fill="#FFFFFF">
                            <path d="M11,0 C17.0751322,0 22,4.92486775 22,11 C22,12.7021791 21.6122731,14.3503463 20.8785888,15.8438773 L21.6352963,19.2490613 C21.8749111,20.3273278 21.1950496,21.3956816 20.1167831,21.6352963 C19.8310279,21.6987975 19.5348166,21.6987975 19.2490613,21.6352963 L15.8438773,20.8785888 C14.3503463,21.6122731 12.7021791,22 11,22 C4.92486775,22 0,17.0751322 0,11 C0,4.92486775 4.92486775,0 11,0 Z M11,2 C6.02943725,2 2,6.02943725 2,11 C2,15.9705627 6.02943725,20 11,20 C12.5,20 13.9448808,19.6334516 15.2372774,18.9423497 C15.4481146,18.8296056 15.692369,18.7961326 15.9257646,18.8479983 L19.6829222,19.6829222 L18.8479983,15.9257646 C18.7961326,15.692369 18.8296056,15.4481146 18.9423497,15.2372774 C19.6334516,13.9448808 20,12.5 20,11 C20,6.02943725 15.9705627,2 11,2 Z M8,9 C9.1045695,9 10,9.8954305 10,11 C10,12.1045695 9.1045695,13 8,13 C6.8954305,13 6,12.1045695 6,11 C6,9.8954305 6.8954305,9 8,9 Z M14,9 C15.1045695,9 16,9.8954305 16,11 C16,12.1045695 15.1045695,13 14,13 C12.8954305,13 12,12.1045695 12,11 C12,9.8954305 12.8954305,9 14,9 Z" id="Combined-Shape"></path>
                        </g>
                    </g>
                </g>
            </g>
        </g>
    </g>
</svg>