<?xml version="1.0" encoding="UTF-8"?>
<svg width="32px" height="32px" viewBox="0 0 32 32" version="1.1" xmlns="http://www.w3.org/2000/svg" xmlns:xlink="http://www.w3.org/1999/xlink">
    <title>Chat 2@3x</title>
    <g id="Chat" stroke="none" stroke-width="1" fill="none" fill-rule="evenodd">
        <g id="Chat-/Scan-chat" transform="translate(-128.000000, -145.000000)">
            <g id="Chat" transform="translate(127.000000, 144.000000)">
                <g id="ic-chat" transform="translate(-0.000000, 0.000000)">
                    <ellipse id="Oval" cx="16.8" cy="17" rx="16.8" ry="17"></ellipse>
                    <g id="Group-42" transform="translate(1.400000, 1.416667)" fill="#5C63AB">
                        <path d="M15.4,0 C23.9051851,0 30.8,6.97689598 30.8,15.5833333 C30.8,17.9947537 30.2571824,20.3296573 29.2300243,22.4454929 L30.2894149,27.2695035 C30.6248756,28.7970477 29.6730694,30.3105489 28.1634964,30.6500031 C27.763439,30.7399631 27.3487432,30.7399631 26.9486858,30.6500031 L22.1814282,29.5780008 C20.0904849,30.6173869 17.7830507,31.1666667 15.4,31.1666667 C6.89481485,31.1666667 0,24.1897707 0,15.5833333 C0,6.97689598 6.89481485,0 15.4,0 Z M15.4,2.83333333 C8.44121215,2.83333333 2.8,8.54170277 2.8,15.5833333 C2.8,22.6249639 8.44121215,28.3333333 15.4,28.3333333 C17.4999932,28.3333333 19.5228331,27.8140565 21.3321883,26.8349954 C21.6273604,26.6752746 21.9693166,26.6278545 22.2960705,26.7013309 L27.5560911,27.8841398 L26.3871976,22.5614999 C26.3145857,22.2308561 26.3614479,21.884829 26.5192895,21.5861429 C27.4868323,19.7552478 28,17.7083264 28,15.5833333 C28,8.54170277 22.3587878,2.83333333 15.4,2.83333333 Z M11.2,12.75 C12.7463973,12.75 14,14.0185265 14,15.5833333 C14,17.1481401 12.7463973,18.4166667 11.2,18.4166667 C9.6536027,18.4166667 8.4,17.1481401 8.4,15.5833333 C8.4,14.0185265 9.6536027,12.75 11.2,12.75 Z M19.6,12.75 C21.1463973,12.75 22.4,14.0185265 22.4,15.5833333 C22.4,17.1481401 21.1463973,18.4166667 19.6,18.4166667 C18.0536027,18.4166667 16.8,17.1481401 16.8,15.5833333 C16.8,14.0185265 18.0536027,12.75 19.6,12.75 Z" id="Combined-Shape"></path>
                    </g>
                </g>
            </g>
        </g>
    </g>
</svg>