<?xml version="1.0" encoding="UTF-8"?>
<svg width="102px" height="102px" viewBox="0 0 102 102" version="1.1" xmlns="http://www.w3.org/2000/svg" xmlns:xlink="http://www.w3.org/1999/xlink">
    <title>Chat@3x</title>
    <g id="Chat" stroke="none" stroke-width="1" fill="none" fill-rule="evenodd">
        <g id="Chat-/Privat-/-New-conversation" transform="translate(-231.000000, -542.000000)">
            <g id="Chat" transform="translate(231.000000, 542.000000)">
                <ellipse id="Oval" fill-opacity="0.1" fill="#5563AB" cx="51" cy="50.9445652" rx="51" ry="50.9445652"></ellipse>
                <g id="ic-chat" transform="translate(27.000000, 28.000000)">
                    <circle id="Oval" cx="23" cy="23" r="23"></circle>
                    <g id="Group-42" transform="translate(1.916667, 1.916667)" fill="#5C63AB">
                        <path d="M21.0833333,0 C32.7273368,0 42.1666667,9.43932986 42.1666667,21.0833333 C42.1666667,24.3458433 41.4235235,27.5048305 40.0172952,30.3674315 L41.4676513,36.8940342 C41.926913,38.9607115 40.623845,41.0083897 38.5571677,41.4676513 C38.0094701,41.5893619 37.4417318,41.5893619 36.8940342,41.4676513 L30.3674315,40.0172952 C27.5048305,41.4235235 24.3458433,42.1666667 21.0833333,42.1666667 C9.43932986,42.1666667 0,32.7273368 0,21.0833333 C0,9.43932986 9.43932986,0 21.0833333,0 Z M21.0833333,3.83333333 C11.5564214,3.83333333 3.83333333,11.5564214 3.83333333,21.0833333 C3.83333333,30.6102453 11.5564214,38.3333333 21.0833333,38.3333333 C23.958324,38.3333333 26.7276881,37.6307823 29.2047816,36.3061702 C29.6088863,36.0900774 30.0770406,36.0259208 30.5243822,36.1253301 L37.7256009,37.7256009 L36.1253301,30.5243822 C36.0259208,30.0770406 36.0900774,29.6088863 36.3061702,29.2047816 C37.6307823,26.7276881 38.3333333,23.958324 38.3333333,21.0833333 C38.3333333,11.5564214 30.6102453,3.83333333 21.0833333,3.83333333 Z M15.3333333,17.25 C17.4504249,17.25 19.1666667,18.9662418 19.1666667,21.0833333 C19.1666667,23.2004249 17.4504249,24.9166667 15.3333333,24.9166667 C13.2162418,24.9166667 11.5,23.2004249 11.5,21.0833333 C11.5,18.9662418 13.2162418,17.25 15.3333333,17.25 Z M26.8333333,17.25 C28.9504249,17.25 30.6666667,18.9662418 30.6666667,21.0833333 C30.6666667,23.2004249 28.9504249,24.9166667 26.8333333,24.9166667 C24.7162418,24.9166667 23,23.2004249 23,21.0833333 C23,18.9662418 24.7162418,17.25 26.8333333,17.25 Z" id="Combined-Shape"></path>
                    </g>
                </g>
            </g>
        </g>
    </g>
</svg>