<?xml version="1.0" encoding="UTF-8"?>
<svg width="277px" height="210px" viewBox="0 0 277 210" version="1.1" xmlns="http://www.w3.org/2000/svg" xmlns:xlink="http://www.w3.org/1999/xlink">
    <title>Group 8</title>
    <defs>
        <polygon id="path-1" points="0 0 28.3486957 0 28.3486957 24.8109131 0 24.8109131"></polygon>
        <polygon id="path-3" points="0 0 28.3486957 0 28.3486957 24.8109131 0 24.8109131"></polygon>
        <polygon id="path-5" points="0 24.8109131 29.4826436 24.8109131 29.4826436 0 0 0"></polygon>
    </defs>
    <g id="Client-Case---View-Case" stroke="none" stroke-width="1" fill="none" fill-rule="evenodd">
        <g id="Client-cases" transform="translate(-1218.000000, -115.000000)">
            <g id="Group-8" transform="translate(1218.943399, 115.000000)">
                <g id="Group-7" transform="translate(0.000000, 6.719678)">
                    <g id="Group-5">
                        <g id="Group-17" transform="translate(19.039573, 128.725498) scale(-1, -1) rotate(30.000000) translate(-19.039573, -128.725498) translate(4.298251, 116.179071)">
                            <g id="Group-3" transform="translate(0.075960, 0.281942)">
                                <mask id="mask-2" fill="white">
                                    <use xlink:href="#path-1"></use>
                                </mask>
                                <g id="Clip-2"></g>
                                <path d="M0,1.96877717 L0,24.8111313 L28.3486957,24.8111313 L28.3486957,1.96877717 C28.3486957,0.881607157 27.4489847,0 26.3384944,0 L2.01020131,0 C0.900156649,0 0,0.881607157 0,1.96877717" id="Fill-1" fill="#FF725E" mask="url(#mask-2)"></path>
                            </g>
                            <g id="Group-6" transform="translate(0.075960, 0.281942)">
                                <mask id="mask-4" fill="white">
                                    <use xlink:href="#path-3"></use>
                                </mask>
                                <g id="Clip-5"></g>
                                <path d="M0,1.96877717 L0,24.8111313 L28.3486957,24.8111313 L28.3486957,1.96877717 C28.3486957,0.881607157 27.4489847,0 26.3384944,0 L2.01020131,0 C0.900156649,0 0,0.881607157 0,1.96877717" id="Fill-4" fill="#000000" mask="url(#mask-4)"></path>
                            </g>
                            <polyline id="Fill-7" fill="#4394AD" points="1.8324885 13.3470719 2.02017586 5.45269042 26.7793408 5.45269042 26.7793408 9.95701559"></polyline>
                            <path d="M26.7017986,10.0024484 C26.694266,10.0024484 26.6871764,9.89867633 26.6800868,9.69964469 C26.6752128,9.48237185 26.6685663,9.19132354 26.6601474,8.82447295 C26.6517286,8.04131788 26.6397649,6.93509108 26.6251427,5.55848932 L26.7017986,5.62861656 C23.248294,5.63712911 18.1827993,5.64969526 12.5403912,5.66388286 C8.65663854,5.6573971 5.04583413,5.6513167 2.03498422,5.64645239 L2.13113645,5.56011075 C2.0584684,7.89457765 1.997764,9.83544021 1.95478351,11.2152849 C1.92775454,11.8800749 1.90604274,12.408664 1.89053432,12.7913236 C1.88078617,12.9599533 1.8728104,13.0965595 1.86616394,13.2051959 C1.85907437,13.298834 1.852871,13.3470719 1.84799692,13.3470719 C1.84312285,13.3470719 1.83913497,13.2984287 1.83647638,13.2047906 C1.83559018,13.0957488 1.83426089,12.9591426 1.8324885,12.7901075 C1.83514709,12.4070426 1.83913497,11.8780481 1.84400904,11.2132581 C1.86705013,9.83300805 1.89939628,7.89133477 1.93883198,5.55646252 L1.94016128,5.47052625 L2.03498422,5.47052625 C5.04583413,5.46525657 8.65663854,5.45917617 12.5403912,5.45269042 C18.1827993,5.46687801 23.248294,5.47944416 26.7017986,5.48836208 L26.7793408,5.48836208 L26.7784546,5.55848932 C26.7638323,6.93509108 26.7518687,8.04131788 26.7434498,8.82447295 C26.735031,9.19132354 26.7283845,9.48237185 26.7230673,9.69964469 C26.7164209,9.89867633 26.7093313,10.0024484 26.7017986,10.0024484" id="Fill-9" fill="#FFFFFF"></path>
                            <mask id="mask-6" fill="white">
                                <use xlink:href="#path-5"></use>
                            </mask>
                            <g id="Clip-12"></g>
                            <polygon id="Fill-11" fill="#4394AD" mask="url(#mask-6)" points="4.41912432 4.15901071 25.9641331 4.15901071 25.9641331 1.90347315 4.41912432 1.90347315"></polygon>
                            <path d="M4.46836101,2.00567214 C4.46572333,2.0033137 4.49957356,2.00095526 4.56859285,1.99859682 C4.65080054,1.99663146 4.75279083,1.99466609 4.87895985,1.99152151 C5.17262154,1.98837692 5.5775054,1.98366005 6.09141336,1.97776395 C7.17198288,1.97029556 8.70887101,1.96007567 10.611957,1.94749733 C14.4814334,1.93649128 19.8346047,1.92116144 25.849394,1.90386622 L25.9636935,1.90347315 L25.9636935,2.00567214 C25.9636935,2.65620799 25.9636935,3.34723036 25.9641331,4.0461142 C25.7350946,4.25247753 25.8964326,4.10350286 25.843679,4.1494924 L25.8366452,4.1494924 L25.8230172,4.1494924 L25.7953216,4.1494924 L25.7394907,4.1494924 L25.6287081,4.1494924 L25.407143,4.1494924 L24.9653316,4.1494924 C24.6712303,4.1494924 24.3788875,4.14909933 24.0878635,4.14909933 C23.5062551,4.14870625 22.929922,4.14870625 22.3606228,4.14831318 C21.2220243,4.14713396 20.1098026,4.14634782 19.0296727,4.1451686 C16.8720506,4.14084479 14.844554,4.13691406 12.9951008,4.13298333 C9.31773545,4.1145089 6.35298328,4.0999652 4.46836101,4.09053145 L4.41912432,4.09013837 L4.42000355,4.04690034 C4.43187311,3.38928918 4.44110499,2.87829425 4.44725957,2.51548785 C4.45209532,2.35550713 4.45605184,2.22893761 4.45912913,2.12988321 C4.46220643,2.04458636 4.46528372,2.00292062 4.46836101,2.00567214 C4.47143831,2.00842365 4.4745156,2.05559241 4.47803251,2.14560613 C4.48067019,2.2466259 4.48462671,2.37673307 4.48946245,2.54064452 C4.49561704,2.89755482 4.50484892,3.40029522 4.51671848,4.04690034 L4.46836101,4.00366231 C6.35298328,3.99422856 9.31773545,3.97968486 12.9951008,3.96121042 C14.844554,3.95727969 16.8720506,3.95334896 19.0296727,3.94902516 C20.1098026,3.94784594 21.2220243,3.94705979 22.3606228,3.94588058 C22.929922,3.9454875 23.5062551,3.9454875 24.0878635,3.94509443 C24.3788875,3.94509443 24.6712303,3.94509443 24.9653316,3.94470136 L25.407143,3.94470136 L25.6287081,3.94470136 L25.7394907,3.94470136 L25.7953216,3.94470136 L25.8230172,3.94470136 L25.8366452,3.94470136 L25.843679,3.94470136 C25.7944423,3.98990475 25.9636935,3.84368159 25.7350946,4.0461142 C25.7350946,3.34723036 25.7355342,2.65620799 25.7355342,2.00567214 L25.849394,2.10747805 C19.8671361,2.09018284 14.5429793,2.07485299 10.6946043,2.06384694 C8.78052798,2.05126861 7.23440797,2.04104871 6.14768386,2.03358032 C5.62234595,2.02768423 5.20910944,2.02296735 4.90929316,2.01942969 C4.77696956,2.01667818 4.67014352,2.01431974 4.58441893,2.01274745 C4.51012428,2.01038901 4.47099869,2.00803057 4.46836101,2.00567214" id="Fill-13" fill="#263238" mask="url(#mask-6)"></path>
                            <path d="M0.00230573593,25.5435465 L28.2374824,26.0492892 L28.2374824,10.1427725 L15.8093777,10.1427725 L13.3986928,8.00498873 L0.178641017,8.00498873 C-0.679982674,8.00498873 -1.34330819,8.76572575 -1.23318411,9.62404877 L0.00230573593,25.5435465 Z" id="Fill-14" fill="#5C63AB" mask="url(#mask-6)"></path>
                            <path d="M20.7149013,15.4865782 C20.7149013,15.502818 17.6684482,15.5159001 13.911433,15.5159001 C10.1535432,15.5159001 7.10752738,15.502818 7.10752738,15.4865782 C7.10752738,15.4703383 10.1535432,15.4572562 13.911433,15.4572562 C17.6684482,15.4572562 20.7149013,15.4703383 20.7149013,15.4865782" id="Fill-15" stroke="#FFFFFF" stroke-linecap="square" stroke-linejoin="round" mask="url(#mask-6)"></path>
                            <path d="M20.4517678,19.5443762 C20.4517678,19.560616 17.4053147,19.5736982 13.6482995,19.5736982 C9.89040972,19.5736982 6.84439387,19.560616 6.84439387,19.5443762 C6.84439387,19.5281363 9.89040972,19.5150542 13.6482995,19.5150542 C17.4053147,19.5150542 20.4517678,19.5281363 20.4517678,19.5443762" id="Fill-16" stroke="#FFFFFF" stroke-linecap="square" stroke-linejoin="round" mask="url(#mask-6)"></path>
                        </g>
                        <g id="Group-4" transform="translate(7.799702, 0.000000)">
                            <g id="Head/Front" transform="translate(34.792432, 0.000000)">
                                <path d="M15.4560788,32.2771274 C21.0783533,32.2771274 23.1231032,25.4518746 26.3172854,21.7063611 C28.6026573,19.026523 32.5030808,19.8256051 33.657609,16.07389 C36.560774,6.63986546 28.7904749,0 18.6536449,0 C8.51681492,0 1.68194778,5.82336 0.206148032,14.5774276 C-1.26965172,23.3314952 5.3192488,32.2771274 15.4560788,32.2771274 Z" id="Hair-Back" fill="#232323"></path>
                                <g id="Head" transform="translate(12.012546, 8.978775)" fill="#FFBC65">
                                    <path d="M18.7639779,4.55619578 C21.614638,9.94402004 21.2759054,23.6106831 17.5916813,24.5736376 C16.1224545,24.9576529 12.9926063,24.0170023 9.80711154,22.0701266 L11.806398,36.4139188 L0,36.4139188 L4.0645254,17.2044382 C1.79772055,14.5064325 0.263495126,11.199983 0.519863416,7.49500901 C1.2585277,-3.1799929 15.9133178,-0.831628489 18.7639779,4.55619578 Z" id="Head-[skin]"></path>
                                </g>
                                <path d="M31.4848188,13.5651958 C29.2269942,13.9949761 24.6798214,16.1806704 21.0542493,19.315949 C20.6259588,19.086098 20.1340873,18.9551906 19.6112758,18.9551906 C17.9385997,18.9551906 16.5826278,20.2951687 16.5826278,21.9481154 C16.5826278,22.6227232 16.8084859,23.2452012 17.1895532,23.7457339 C16.4723318,24.9444057 15.9822943,26.2049725 15.8217026,27.5008752 C13.3343879,27.5008752 4.25651993,17.957549 13.2998321,8.9787745 C22.3431443,-2.57571742e-13 35.4118499,12.8176794 31.4848188,13.5651958 Z" id="Hair" fill="#232323"></path>
                            </g>
                            <g id="Bottom/Skinny-Jeans-1" transform="translate(15.069780, 85.992369)">
                                <polygon id="Leg" fill="#1B1B1B" points="27.7288043 0 45.6807105 62.4359152 58.7786069 108.454551 68.3316962 108.454551 54.4133091 0"></polygon>
                                <path d="M22.9279293,0 C22.5127034,32.1801947 21.096791,49.7321474 20.6608208,52.655858 C20.2248507,55.5795686 13.6327536,74.1791328 0.884529702,108.454551 L10.7808832,108.454551 C27.0103476,75.5731437 36.0700499,56.9735795 37.95999,52.655858 C39.8499301,48.3381365 45.6824696,30.7861838 54.4672941,0 L22.9279293,0 Z" id="Leg" fill="#1B1B1B"></path>
                                <g id="Left-[shoe]" transform="translate(0.000000, 106.982317)" fill="#282828">
                                    <path d="M0.0503531014,9.25764417 L0.449415869,0.952008138 C0.475025643,0.418995601 0.914636175,9.86204187e-16 1.4482636,0 L10.8934588,0 L10.8934588,0 C15.671763,3.32911965 21.8649181,6.04370523 29.4729241,8.14375676 C29.9053983,8.26413022 30.204569,8.6580162 30.2045904,9.10693011 L30.2045904,9.32414688 C30.2045904,9.86620837 29.7651627,10.305636 29.2231012,10.305636 L11.4644156,10.305636 C11.4139549,10.305636 11.3635667,10.3018166 11.3136825,10.2942105 L5.43670976,9.3981183 C5.20653231,9.36302196 4.9914854,9.52116645 4.95638906,9.75134391 C4.95318241,9.77237456 4.95157219,9.79361775 4.95157219,9.81489146 C4.95157219,10.0859222 4.73185836,10.305636 4.46082762,10.305636 L1.04920083,10.305636 C0.496916078,10.305636 0.0492008281,9.85792078 0.0492008281,9.30563603 C0.0492008281,9.28963183 0.0495850299,9.27362993 0.0503531014,9.25764417 Z" id="Shoe"></path>
                                </g>
                                <g id="Right-[shoe]" transform="translate(57.438237, 106.982317)" fill="#282828">
                                    <path d="M0.0503531014,9.25764417 L0.449415869,0.952008138 C0.475025643,0.418995601 0.914636175,9.86204187e-16 1.4482636,0 L10.8934588,0 L10.8934588,0 C15.671763,3.32911965 21.8649181,6.04370523 29.4729241,8.14375676 C29.9053983,8.26413022 30.204569,8.6580162 30.2045904,9.10693011 L30.2045904,9.32414688 C30.2045904,9.86620837 29.7651627,10.305636 29.2231012,10.305636 L11.4644156,10.305636 C11.4139549,10.305636 11.3635667,10.3018166 11.3136825,10.2942105 L5.43670976,9.3981183 C5.20653231,9.36302196 4.9914854,9.52116645 4.95638906,9.75134391 C4.95318241,9.77237456 4.95157219,9.79361775 4.95157219,9.81489146 C4.95157219,10.0859222 4.73185836,10.305636 4.46082762,10.305636 L1.04920083,10.305636 C0.496916078,10.305636 0.0492008281,9.85792078 0.0492008281,9.30563603 C0.0492008281,9.28963183 0.0495850299,9.27362993 0.0503531014,9.25764417 Z" id="Shoe"></path>
                                </g>
                            </g>
                            <g id="Body/Long-Sleeve-1" transform="translate(0.000000, 32.987237)">
                                <path d="M82.6054871,48.3181975 L97.7574272,60.801694 C101.966496,62.1939852 105.459401,63.8305115 108.236142,65.7112731 C108.881437,66.3681961 109.636062,67.6682648 106.842336,67.297396 C104.048611,66.9265272 101.093996,66.6627646 100.658972,67.6037024 C100.223948,68.5446402 101.863654,69.7884545 101.016578,71.0437488 C100.451862,71.8806117 98.096479,69.575204 93.9504303,64.1275256 L78.6959017,56.7744628 L82.6054871,48.3181975 Z" id="Arm" fill="#FFBC65" fill-rule="nonzero" transform="translate(93.768154, 59.764552) scale(1, -1) rotate(-67.000000) translate(-93.768154, -59.764552) "></path>
                                <path d="M29.1701114,47.1088428 C21.9699023,65.1082587 17.6920272,74.9658118 16.3364861,76.681502 C15.3424534,77.9396358 9.28936998,81.117201 5.20020586,82.7987242 C3.55887083,83.4736648 3.88557577,84.8532634 4.35608531,85.3012395 C8.18310468,88.9449764 11.7624464,86.3590499 15.948688,85.4018085 C20.5350754,84.3530684 19.0203957,89.7451229 22.6436774,88.9723696 C22.1101121,86.4860931 20.6319502,81.7563871 22.3444334,79.2211331 C23.1055371,78.0943535 28.7581774,68.1219977 39.3023543,49.3040657 L29.1701114,47.1088428 Z" id="Arm" fill="#FFBC65" fill-rule="nonzero" transform="translate(21.638108, 68.078654) rotate(-12.000000) translate(-21.638108, -68.078654) "></path>
                                <path d="M51.3007285,4.57142124 L55.5103495,3.4668561 C64.4709581,21.1448313 78.7731451,36.6685587 98.4169103,50.038038 L86.0308789,68.0278863 C65.8339839,48.3114772 52.6098801,27.3034493 51.3007285,4.57142124 Z" id="Coat-Back" fill="#1B1B1B" transform="translate(74.858819, 35.747371) rotate(5.000000) translate(-74.858819, -35.747371) "></path>
                                <path d="M35.4071344,56.3763772 L73.6070019,56.3763772 C64.7569704,34.9262273 60.3319547,16.7045795 60.3319547,1.71143365 L48.8089418,0 C39.7529363,14.5186019 37.1954966,32.3939405 35.4071344,56.3763772 Z" id="Shirt" fill="#DDE3E9"></path>
                                <path d="M49.3216852,0 C50.2217277,0.0308948163 51.5926078,0.0865579622 53.4343257,0.166989438 L53.4343257,0.166989438 L56.2186991,8.09885235 C56.5132241,17.7696476 58.2332052,37.2589095 61.3786423,66.5666379 L61.3786423,66.5666379 L36.3378345,66.5657722 C36.4034759,68.5902193 36.511722,70.6335801 36.6625729,72.6958548 L36.6625729,72.6958548 L18.0435582,72.6958548 C20.8286344,41.3743084 30.9993843,17.1423568 48.5558079,0 L48.5558079,0 L48.5645582,0.008 L48.5695103,0 Z" id="Coat-Front" fill="#1B1B1B"></path>
                                <path d="M43.3447692,66.7614993 L36.3442872,66.7607774 C36.037931,57.6849454 36.5868327,48.9887937 37.9909923,40.6723223 C38.7051849,53.2873844 40.4893438,61.9835751 43.3447692,66.7614993 Z" id="Shade" fill-opacity="0.1" fill="#000000"></path>
                                <polygon id="Light" fill-opacity="0.2" fill="#FFFFFF" points="41.9114799 51.4310809 54.2590171 45.7090131 54.2590171 51.4310809"></polygon>
                            </g>
                        </g>
                    </g>
                    <path d="M62.117085,34.6197929 L68.4154358,35.4730818 C68.3727162,38.5859807 68.2956254,40.6357514 68.1841632,41.622394 L68.182085,41.6217929 L68.2370074,42.1995563 C69.8720564,59.3517771 72.185895,69.7412543 72.7631963,72.3211087 C72.775278,72.3938471 72.5571323,72.8821356 72.1087593,73.7859742 L71.8322677,74.338211 C71.6651714,74.6693578 71.4755919,75.0410857 71.2635293,75.4533947 L68.3319466,73.6484719 L67.709085,41.6077929 L62.117085,34.6197929 Z" id="Combined-Shape" fill="#173E67"></path>
                </g>
                <g id="Group" transform="translate(144.056601, 0.000000)">
                    <path d="M55.4653092,33.5375648 C52.1869498,35.4800279 48.9657947,36.4185134 47.4541855,36.0354154 C43.6625068,35.0746845 43.314219,21.4398696 46.2478343,16.0645538 C49.1809434,10.6892878 64.2621052,8.34640822 65.0219596,18.9965623 C65.2857066,22.6928757 63.7072747,25.9916092 61.374557,28.6832981 L65.557047,47.8481013 L53.4074755,47.8481013 L55.4653092,33.5375648 Z" id="Path" fill="#FFBC65"></path>
                    <path d="M50.3414733,12.0145213 C52.0163031,11.5215168 54.4481008,11.3542897 55.4706715,11.4674342 C54.8888992,10.1217783 54.6580291,8.62260077 54.8459942,7.16291291 C55.0293623,5.74453883 55.6857076,4.53682559 56.2930185,3.27128292 C56.572923,2.68794515 56.890114,2.10779219 57.3630913,1.66161322 C57.8452625,1.2070433 58.4551273,0.906995807 59.0946171,0.763847007 C59.7489193,0.617316196 60.4333572,0.629518059 61.088681,0.762496175 C61.3788009,0.821311617 61.6387852,0.949280807 61.9232866,1.02041643 C62.2144281,1.09330223 62.3559127,0.917368623 62.5673734,0.740557473 C63.0766156,0.314522664 63.823368,0.104211854 64.4679655,0.0289399203 C65.1912223,-0.0554723181 65.9415502,0.0498038727 66.6310958,0.279233398 C67.3022536,0.502584178 67.9468511,0.865267903 68.432087,1.39363074 C68.6481446,1.62882348 68.8442821,1.89652495 68.9719757,2.19208611 C69.0240747,2.31337509 69.0327579,2.3852305 69.1584084,2.42966007 C69.2743542,2.47079144 69.4097095,2.47198451 69.5297415,2.511134 C70.6866459,2.88947555 71.676527,3.75260326 72.2153942,4.86077888 C72.5295206,5.50730504 72.678156,6.64560324 72.6378048,7.9214497 C72.5969428,9.19724687 71.4032626,12.5263094 70.2872202,13.7405796 C69.290699,14.8244008 67.8257976,15.5396518 66.4124843,15.8527096 C67.3507772,16.8877727 67.9749437,18.1812194 68.4371947,19.4967034 C68.9387753,20.9255785 69.2493263,22.410311 69.3637398,23.9230955 C69.4725348,25.3604009 69.4827503,26.8803339 69.1338912,28.2869745 C68.8069955,29.6023599 68.1087667,30.6814976 66.9426683,31.3660837 C66.4089089,31.6796839 65.8342875,31.9152908 65.2560907,32.1305858 C64.6865771,32.342775 64.1155311,32.5490974 63.5189464,32.668158 C62.3896238,32.8934118 61.088681,32.8547109 60.2188319,31.9872201 C59.9052163,31.6745073 59.5604435,31.2815334 59.3321272,30.8995042 C59.2498925,30.7621038 59.1998366,30.6722784 59.2999484,30.537984 C59.4194697,30.3771659 59.6130532,30.2539147 59.7667964,30.1281 C60.6437963,29.4107291 61.1867497,28.4530184 61.3231265,27.3148681 C61.4620572,26.1601036 61.14078,24.6696029 59.9777463,24.1656044 C58.541959,23.5435313 56.9606009,24.257599 55.6841753,24.9232045 C55.1417327,23.0755713 54.0282441,21.4119275 52.2824166,20.5644034 C50.3506672,19.626758 48.1339056,19.5170152 46.1490356,18.7125304 C45.6316209,18.5029049 45.1050124,18.2649316 44.7239745,17.8377924 C44.5646129,17.6592755 44.3781801,17.4277113 44.3143333,17.1915621 C44.2310771,16.8814129 44.4384515,16.6214023 44.598324,16.3796329 C45.4472313,15.0975746 48.6661327,12.5075259 50.3414733,12.0145213 Z" id="Path" fill="#191847"></path>
                    <polygon id="Path" fill="#FFBC65" points="69.9865772 92.1518987 50.5028953 153.44434 41.0647183 205.56962 33.6644295 205.56962 43.6374486 92.1518987"></polygon>
                    <path d="M73.3547445,91.2658228 C72.1245269,124.877532 73.5722947,142.215078 73.8476016,145.268879 C74.1229085,148.322679 77.8934578,168.123368 86.8187919,205.56962 L79.4885051,202.967147 C65.3823958,168.622963 60.5755951,150.77388 58.9579264,146.264088 C57.3397764,141.754296 53.0431599,123.421541 46.0671141,91.2658228 L73.3547445,91.2658228 Z" id="Path" fill="#FFBC65"></path>
                    <path d="M88.112127,202.588569 C88.6542191,202.366453 89.2984592,202.591399 89.5002267,203.110614 C89.8683639,204.057085 90.3624161,205.477028 90.3624161,206.277308 C90.3624161,207.552945 89.9067958,210 89.9067958,210 C88.3199627,210 61.3852657,210 61.3852657,210 C61.3852657,210 60.2732689,206.57252 62.6686891,206.299001 C65.0641092,206.025953 66.6484139,205.805723 66.6484139,205.805723 L79.9048926,200.294308 C80.1653193,200.185844 80.4697405,200.299496 80.5784623,200.545191 L81.4305381,202.473031 C81.4305381,202.473031 83.6479578,203.437894 85.0340348,203.437894 C85.8780197,203.437894 87.2039204,202.961122 88.112127,202.588569 Z" id="Path" fill="#5C63AB"></path>
                    <path d="M42.0450129,202.588569 C42.587105,202.366453 43.2313451,202.591399 43.4331126,203.110614 C43.8012498,204.057085 44.295302,205.477028 44.295302,206.277308 C44.295302,207.552945 43.8396817,210 43.8396817,210 C42.2528486,210 15.3181516,210 15.3181516,210 C15.3181516,210 14.2061548,206.57252 16.601575,206.299001 C18.9969951,206.025953 20.5812998,205.805723 20.5812998,205.805723 L33.8377785,200.294308 C34.0982052,200.185844 34.4026264,200.299496 34.5113482,200.545191 L35.363424,202.473031 C35.363424,202.473031 37.5808437,203.437894 38.9669207,203.437894 C39.8109056,203.437894 41.1368063,202.961122 42.0450129,202.588569 Z" id="Path" fill="#5C63AB"></path>
                    <path d="M71.7583893,91.2658228 L63.6463469,122.817241 C50.1783209,171.784075 43.3403887,196.690173 43.1325503,197.535536 C40.9971842,197.614737 37.5458419,197.614737 32.7785235,197.535536 L42.5631488,91.2658228 L71.7583893,91.2658228 Z" id="Path" fill="#173E67"></path>
                    <path d="M74.6012104,91.2658228 C78.4360053,122.620229 85.9328859,196.591796 85.9328859,196.591796 L77.2576227,198.481013 C64.9382788,166.103982 56.6207164,141.124825 52.3049357,123.543543 C47.9891549,105.962262 45.614579,95.2030213 45.1812081,91.2658228 L74.6012104,91.2658228 Z" id="Path" fill="#173E67"></path>
                    <g id="Group-9" transform="translate(78.845638, 118.734177)" fill-rule="nonzero">
                        <polygon id="Rectangle" fill="#F93D3D" transform="translate(29.256452, 27.959940) rotate(-20.573900) translate(-29.256452, -27.959940) " points="10.4486283 15.2488822 48.0153729 15.321033 48.0642751 40.6709983 10.4975305 40.5988475"></polygon>
                        <path d="M52.7090385,28.4517561 L44.1912924,5.63848178 C43.3027075,2.85350779 40.2413864,1.34523997 37.4710924,2.23853352 L37.2057572,2.33872845 L30.3052711,4.94246094 L29.8069371,3.60830966 C28.7110453,0.673265911 25.1606924,-0.726791372 22.2406767,0.374907647 L13.4819585,3.68000471 C10.5628287,4.78170373 8.80514932,8.18521448 9.90104114,11.1198129 L10.3989322,12.4539642 L3.49800305,15.058142 C0.752514973,16.0182322 -0.656109111,19.136744 0.298034372,21.8972259 L0.39770117,22.1639671 L8.91633317,44.9767961 C9.82928104,47.8285668 12.915851,49.4036312 15.8185912,48.4604628 L15.9514802,48.410588 L49.6596774,35.6907292 C52.4875567,34.5476162 53.8970667,31.4282138 52.7599793,28.5853494 C52.7342874,28.5181075 52.7342874,28.5181075 52.7094814,28.4517561 L52.7090385,28.4517561 Z M14.207713,9.28091657 C14.0430158,8.4605363 14.50408,7.70375807 15.2958599,7.41368124 L24.0032362,4.22412529 C24.7945757,3.93404846 25.6524105,4.2073653 26.0817684,4.93148303 L26.5771812,6.21942417 L14.7031259,10.5688577 L14.207713,9.28091657 Z M33.4644725,25.2838071 L29.3030315,26.8434924 L30.7163428,30.6031177 C31.1379108,31.7242241 30.6012494,32.9038957 29.4780969,33.324861 C28.3553854,33.7458263 27.1740248,33.2103725 26.7524567,32.0888258 L25.3391455,28.3292005 L21.1777045,29.8888858 C20.0549929,30.3098511 18.8736323,29.7743973 18.4520643,28.6528506 C18.0304962,27.5313039 18.5671576,26.3516323 19.6898692,25.9306669 L23.8517511,24.371422 L22.3886102,20.4796946 C21.9670421,19.3585882 22.5037035,18.1789166 23.626856,17.7579513 C24.7500085,17.336986 25.9309282,17.8724397 26.3524962,18.9939865 L27.8156372,22.8857139 L31.9770782,21.3260286 C33.0997897,20.9050633 34.2811504,21.4409574 34.7027184,22.5620638 C35.1234045,23.6831701 34.5871841,24.8628418 33.4644725,25.2838071 L33.4644725,25.2838071 Z" id="Shape" fill="#5C63AB"></path>
                    </g>
                    <path d="M10.7145793,97.4803316 L24.9694386,84.1772152 L29.7036138,92.0141877 L14.8806334,100.374427 C11.1639435,105.975359 8.98102976,108.395289 8.33189221,107.634699 C7.78440256,106.99301 8.03550305,106.289705 8.26647525,105.64224 C8.4466235,105.137747 8.61469477,104.666951 8.38372258,104.285211 C7.85686442,103.412939 4.88089585,103.912618 2.07803061,104.501835 C-0.72483462,105.091052 -0.0767034856,103.773979 0.519094079,103.086559 C3.16848105,101.041629 6.56664064,99.1724052 10.7145793,97.4803316 Z M94.7371321,116.808 C93.2627344,113.946157 88.2407245,86.0531784 88.2407245,86.0531784 L77.7251995,86.0926521 C77.7251995,86.0926521 87.4642755,116.170163 88.2407245,118.010504 C89.2491522,120.401069 87.5362342,123.874273 86.3748315,126.229697 C86.1951865,126.594107 86.0286248,126.931559 85.8872235,127.234351 C87.4989968,127.924178 88.273433,127.090416 89.0891322,126.211404 C90.0110082,125.218304 90.9867273,124.167919 93.2828627,125.189902 C94.1700174,125.584639 95.0093673,126.051103 95.8295954,126.507457 C98.6626531,128.082554 101.265242,129.530083 104.805809,127.439903 C105.366885,127.108709 105.982308,125.861436 104.495833,124.886629 C100.793736,122.458034 95.4582283,118.207391 94.7371321,116.808 Z" id="Shape" fill="#FFBC65"></path>
                    <path d="M57.5554878,42.3733667 L53.3134851,41.6455696 C46.0098033,59.8945223 33.2587759,76.4760483 15.0604027,91.3901967 L28.8122033,108.101266 C47.0086142,86.8659995 58.2251228,64.9565199 57.5554878,42.3733667 Z" id="Path" fill="#D6DADC"></path>
                    <path d="M78.8456376,95.6962025 L39.8657718,95.6962025 C39.8657718,95.6962025 53.4120345,63.837062 53.4120345,41.568031 L64.6886212,39.9705824 C73.9293806,54.3464185 77.0206711,71.9494837 78.8456376,95.6962025 Z" id="Path" fill="#3A3A3A"></path>
                    <path d="M93.0201342,112.531646 C88.9206928,64.4283544 63.0792666,38.1012658 63.0792666,38.1012658 L63.070504,38.1095696 C63.0690436,38.1067848 63.0670963,38.1040506 63.0656359,38.1012658 L62.3276294,38.1012658 C61.0030147,38.1487089 58.2919603,38.2722532 58.2919603,38.2722532 L55.5599729,46.3933671 C55.1262237,61.2455696 50.4966443,106.256203 50.4966443,106.256203 L75.0324414,106.256203 C74.9905756,108.32 74.8985682,110.412658 74.7496038,112.531646 L93.0201342,112.531646 Z" id="Path" fill="#EFF3F6"></path>
                    <path d="M76.1526928,106.329114 C76.379943,97.4321939 75.4895972,89.0786126 74.0045569,81.5189873 C73.2278361,90.4895889 71.6048629,101.283182 68.2147651,106.329114 L76.1526928,106.329114 Z" id="Path" fill-opacity="0.1" fill="#000000"></path>
                    <polygon id="Path" fill-opacity="0.2" fill="#FFFFFF" points="70.8724832 91.2658228 57.5838926 85.0632911 57.5838926 91.2658228"></polygon>
                </g>
            </g>
        </g>
    </g>
</svg>