<?xml version="1.0" encoding="UTF-8"?>
<svg width="44px" height="44px" viewBox="0 0 44 44" version="1.1" xmlns="http://www.w3.org/2000/svg" xmlns:xlink="http://www.w3.org/1999/xlink">
    <title>Group 20@3x</title>
    <g id="Chat" stroke="none" stroke-width="1" fill="none" fill-rule="evenodd">
        <g id="Upload-Documents" transform="translate(-1026.000000, -350.000000)">
            <g id="Group-38" transform="translate(495.000000, 325.000000)">
                <g id="Group-20" transform="translate(531.000000, 25.000000)">
                    <circle id="Oval" fill-opacity="0.2" fill="#173E67" cx="22" cy="22" r="22"></circle>
                    <g id="Icon/-Close" transform="translate(10.000000, 10.000000)">
                        <rect id="Icon-Spacing" fill="#4394AD" opacity="0" x="0" y="0" width="24" height="24" rx="5"></rect>
                        <path d="M9.22951453,12 L5.07378633,7.8442718 C4.30873789,7.07922336 4.30873789,5.83883476 5.07378633,5.07378633 C5.83883476,4.30873789 7.07922336,4.30873789 7.8442718,5.07378633 L12,9.22951453 L16.1557282,5.07378633 C16.9207766,4.30873789 18.1611652,4.30873789 18.9262137,5.07378633 C19.6912621,5.83883476 19.6912621,7.07922336 18.9262137,7.8442718 L14.7704855,12 L18.9262137,16.1557282 C19.6912621,16.9207766 19.6912621,18.1611652 18.9262137,18.9262137 C18.1611652,19.6912621 16.9207766,19.6912621 16.1557282,18.9262137 L12,14.7704855 L7.8442718,18.9262137 C7.07922336,19.6912621 5.83883476,19.6912621 5.07378633,18.9262137 C4.30873789,18.1611652 4.30873789,16.9207766 5.07378633,16.1557282 L9.22951453,12 L9.22951453,12 Z" id="Path" fill="#173E67"></path>
                    </g>
                </g>
            </g>
        </g>
    </g>
</svg>