<?xml version="1.0" encoding="UTF-8"?>
<svg width="26px" height="26px" viewBox="0 0 26 26" version="1.1" xmlns="http://www.w3.org/2000/svg" xmlns:xlink="http://www.w3.org/1999/xlink">
    <title>Close@3x</title>
    <defs>
        <path d="M12.5,0 C5.5875,0 0,5.5875 0,12.5 C0,19.4125 5.5875,25 12.5,25 C19.4125,25 25,19.4125 25,12.5 C25,5.5875 19.4125,0 12.5,0 L12.5,0 Z M18.75,16.9875 L16.9875,18.75 L12.5,14.2625 L8.0125,18.75 L6.25,16.9875 L10.7375,12.5 L6.25,8.0125 L8.0125,6.25 L12.5,10.7375 L16.9875,6.25 L18.75,8.0125 L14.2625,12.5 L18.75,16.9875 L18.75,16.9875 Z" id="path-1"></path>
        <rect id="path-3" x="0" y="0" width="62.5" height="62.5"></rect>
    </defs>
    <g id="Chat" stroke="none" stroke-width="1" fill="none" fill-rule="evenodd">
        <g id="Group-chat-/Menu" transform="translate(-1528.000000, -148.000000)">
            <g id="Close" transform="translate(1528.500000, 148.500000)">
                <mask id="mask-2" fill="white">
                    <use xlink:href="#path-1"></use>
                </mask>
                <g id="Mask"></g>
                <g id="🎨-Color" mask="url(#mask-2)">
                    <g transform="translate(-18.750000, -18.750000)">
                        <mask id="mask-4" fill="white">
                            <use xlink:href="#path-3"></use>
                        </mask>
                        <use id="Color" stroke="none" fill="#92929D" fill-rule="evenodd" xlink:href="#path-3"></use>
                    </g>
                </g>
            </g>
        </g>
    </g>
</svg>