<?xml version="1.0" encoding="UTF-8"?>
<svg width="246px" height="56px" viewBox="0 0 246 56" version="1.1" xmlns="http://www.w3.org/2000/svg" xmlns:xlink="http://www.w3.org/1999/xlink">
    <title>Logo/colorfull</title>
    <g id="Symbol" stroke="none" stroke-width="1" fill="none" fill-rule="evenodd">
        <g id="Logo/colorfull" fill-rule="nonzero">
            <g id="Asset-18" transform="translate(3.000000, 10.000000)">
                <polygon id="Path" fill="#636596" points="66 6 66 8.86709503 54.4442446 8.86709503 54.4442446 17.9979709 63.8327338 17.9979709 63.8327338 20.8559351 54.4442446 20.8559351 54.4442446 33 51 33 51 6"></polygon>
                <polygon id="Path" fill="#636596" points="74 4 74 33 70 33 70 4"></polygon>
                <path d="M84.2956875,31.6055038 C82.6480692,30.7103036 81.2994092,29.3698691 80.4112382,27.7447455 C79.4436057,25.9586317 78.9591364,23.9604262 79.003829,21.9398524 C78.9514823,19.9331022 79.4366497,17.947824 80.4112382,16.1808115 C81.3317808,14.5622319 82.7009548,13.2303921 84.3613666,12.338394 C87.8725148,10.5538687 92.0531955,10.5538687 95.5643437,12.338394 C97.2373638,13.2264827 98.6196627,14.5584343 99.5520031,16.1808115 C100.545673,17.9519996 101.044065,19.94791 100.996943,21.9673637 C101.041244,23.998071 100.525965,26.0030522 99.5050894,27.7722568 C98.5592878,29.4018528 97.164724,30.7394477 95.4798992,31.6330151 C93.7526778,32.5487351 91.8151303,33.0190068 89.8502624,32.9994118 C87.9058293,33.0179162 85.9904856,32.537265 84.2956875,31.6055038 Z M93.4907608,28.9735854 C94.6543947,28.3460687 95.6111951,27.4077348 96.2492828,26.2683035 C96.9847722,24.9416004 97.3473701,23.4480814 97.3001484,21.9398524 C97.3506699,20.427666 96.9948142,18.9289446 96.2680483,17.5930603 C95.6525789,16.4675257 94.7131248,15.5429499 93.5658227,14.9336306 C91.2974614,13.77253 88.5907179,13.77253 86.3223567,14.9336306 C85.1918278,15.5462983 84.2714151,16.4714072 83.6764275,17.5930603 C82.9799957,18.9385312 82.6381429,20.4326081 82.6818583,21.9398524 C82.6226514,23.457006 82.9448073,24.9652202 83.6201311,26.3324966 C84.2081217,27.4630286 85.1255606,28.3980033 86.2566776,29.0194377 C87.3493283,29.6167268 88.5795667,29.9323186 89.831497,29.9364824 C91.1101211,29.9316179 92.3674993,29.6165075 93.4907608,29.0194377 L93.4907608,28.9735854 Z" id="Shape" fill="#636596"></path>
                <path d="M105.347109,16.1829668 C106.202147,14.5897648 107.49634,13.2648837 109.081809,12.3597077 C110.671593,11.4527159 112.481208,10.9839166 114.319726,11.0027716 C116.045909,10.9617594 117.751653,11.3765524 119.258867,12.2038434 C120.55969,12.9277851 121.63468,13.9865729 122.368004,15.2661181 L122.368004,11.3420056 L126,11.3420056 L126,32.6220642 L122.368004,32.6220642 L122.368004,28.6612778 C121.609703,29.9588892 120.510036,31.0324052 119.184173,31.7693949 C117.687446,32.6085957 115.986856,33.033211 114.263705,32.9979722 C112.434342,33.0053146 110.639379,32.509877 109.081809,31.5676882 C107.488804,30.6310669 106.194982,29.2748022 105.347109,27.6527442 C104.42844,25.8728017 103.966876,23.8992898 104.002617,21.9041028 C103.960707,19.9170801 104.422739,17.9510203 105.347109,16.1829668 Z M121.359635,17.7599466 C120.747859,16.616717 119.822992,15.6640607 118.689325,15.0094004 C116.397867,13.7626729 113.614087,13.7626729 111.322629,15.0094004 C110.188817,15.6580574 109.268482,16.6127214 108.670992,17.7599466 C107.985003,19.0517481 107.644453,20.493506 107.681297,21.9499452 C107.643515,23.4269839 107.983806,24.8897174 108.670992,26.2041232 C109.2719,27.3489716 110.191421,28.3027912 111.322629,28.9546694 C112.439481,29.5788587 113.707137,29.8956043 114.991972,29.8715181 C116.298032,29.8999309 117.587882,29.5832796 118.726672,28.9546694 C119.863491,28.3039199 120.789334,27.3502576 121.396982,26.2041232 C122.081085,24.9017647 122.421379,23.4516302 122.386678,21.9866191 C122.425764,20.5131468 122.078533,19.0545394 121.378309,17.7507781 L121.359635,17.7599466 Z" id="Shape" fill="#636596"></path>
                <path d="M136.367157,14.3777628 L136.367157,27.0744387 C136.286226,27.876697 136.52689,28.6782947 137.036406,29.3035551 C137.704018,29.7990574 138.532735,30.0276076 139.360186,29.9444261 L142,29.9444261 L142,32.9815973 L138.774593,32.9815973 C137.156769,33.1043321 135.552513,32.6098172 134.28505,31.5976875 C133.290473,30.668889 132.788536,29.1735234 132.788536,27.0744387 L132.788536,14.3777628 L130,14.3777628 L130,11.4241834 L132.788536,11.4241834 L132.788536,6 L136.367157,6 L136.367157,11.4241834 L142,11.4241834 L142,14.3777628 L136.367157,14.3777628 Z" id="Path" fill="#636596"></path>
                <path d="M149.853254,11.8485644 C150.995247,9.77072641 152.669843,8.04623414 154.699029,6.85840395 C156.761868,5.63468877 159.109249,4.99418616 161.497716,5.00332571 C164.211968,4.94338451 166.883789,5.69485969 169.181602,7.16449186 C171.408963,8.63700046 173.101174,10.8097505 174,13.3511778 L169.793027,13.3511778 C169.114244,11.7814869 167.989231,10.4539103 166.56251,9.53899202 C165.037112,8.6019418 163.279481,8.12877388 161.497716,8.17550951 C159.721778,8.14785 157.971602,8.60939585 156.432923,9.51116584 C154.932885,10.4251973 153.722857,11.7580923 152.946884,13.3511778 C152.062996,15.1324237 151.624212,17.107471 151.669279,19.1019204 C151.626472,21.0842659 152.065296,23.0467506 152.946884,24.8155614 C153.738794,26.3918898 154.957907,27.7050172 156.4603,28.599921 C157.995458,29.4806565 159.735254,29.9259411 161.497716,29.8892003 C163.263947,29.9388294 165.008685,29.485855 166.535133,28.5813702 C167.962773,27.675747 169.088604,26.3536695 169.76565,24.7877352 L173.972623,24.7877352 C173.063944,27.2836822 171.382688,29.4123886 169.181602,30.853841 C166.880285,32.3134448 164.209659,33.0581364 161.497716,32.9964564 C159.106351,33.0262449 156.750301,32.4083655 154.671652,31.2063059 C152.642408,30.0309375 150.967022,28.3152524 149.825876,26.2439716 C148.60519,24.0530424 147.975568,21.5732525 148.000725,19.0555434 C147.985006,16.5295721 148.623934,14.0439217 149.853254,11.8485644 L149.853254,11.8485644 Z" id="Path" fill="#4D8CAA"></path>
                <path d="M179.331424,16.1898481 C180.187886,14.5973128 181.484234,13.272986 183.072343,12.3681888 C184.654567,11.460622 186.457625,10.9888205 188.290924,11.0026558 C190.019882,10.962559 191.728228,11.3771206 193.238289,12.2032251 C194.54339,12.9282453 195.620567,13.99015 196.352604,15.2733831 L196.352604,11.3509126 L200,11.3509126 L200,32.6220668 L196.352604,32.6220668 L196.352604,28.6629377 C195.59304,29.9600062 194.491542,31.033073 193.163471,31.7697543 C191.664785,32.6098955 189.960992,33.0344256 188.234811,32.9978175 C186.392435,33.0202964 184.580771,32.5343874 183.006877,31.5956259 C181.436934,30.6482547 180.164907,29.2939102 179.331424,27.6823201 C178.413224,25.8932515 177.957206,23.9106683 178.003398,21.9085902 C177.955638,19.9239542 178.411992,17.9588019 179.331424,16.1898481 L179.331424,16.1898481 Z M195.361261,17.7661681 C194.754717,16.6220345 193.830797,15.6690007 192.695856,15.0167728 C191.555342,14.3880038 190.263224,14.0714557 188.954938,14.1003078 C187.666068,14.0851779 186.395636,14.4011529 185.270133,15.0167728 C184.136394,15.6675806 183.215141,16.6212094 182.61408,17.7661681 C181.931153,19.0589496 181.590291,20.4990321 181.622737,21.9544134 C181.617554,23.4203252 181.98049,24.8649728 182.679546,26.1609881 C183.283969,27.303608 184.204427,28.2564141 185.335599,28.9103833 C186.458094,29.533376 187.73059,29.8498645 189.020404,29.8268484 C190.328638,29.8552493 191.620636,29.5387305 192.761322,28.9103833 C193.899493,28.2621519 194.824422,27.3080771 195.426727,26.1609881 C196.111969,24.8591745 196.45283,23.4096468 196.41807,21.9452488 C196.434846,20.4838322 196.071121,19.0423533 195.361261,17.7570034 L195.361261,17.7661681 Z" id="Shape" fill="#4D8CAA"></path>
                <path d="M212.557507,12.0280001 C213.917144,11.3110477 215.450941,10.9575291 217,11.0040676 L217,14.7274586 L216.034241,14.7274586 C211.86216,14.7274586 209.776119,16.8994367 209.776119,21.2433929 L209.776119,33 L206,33 L206,11.3950236 L209.718174,11.3950236 L209.718174,14.9043197 C210.351224,13.6977347 211.338692,12.6974031 212.557507,12.0280001 L212.557507,12.0280001 Z" id="Path" fill="#4D8CAA"></path>
                <path d="M239.879194,23.302243 L222.692648,23.302243 C222.694247,25.1163593 223.4375,26.8524324 224.752787,28.1142677 C226.068074,29.376103 227.843159,30.0560254 229.672944,29.9988676 C231.03336,30.0407292 232.373646,29.6653824 233.510716,28.9241006 C234.527748,28.2305971 235.289201,27.2277442 235.679892,26.0672416 L239.526934,26.0672416 C238.98029,28.0712482 237.76477,29.8326869 236.078501,31.0644484 C234.205428,32.3960004 231.939626,33.074432 229.635864,32.9935172 C227.72275,33.0241712 225.835604,32.5519024 224.166575,31.624797 C222.555234,30.7219251 221.239311,29.3796585 220.375153,27.7574733 C219.428276,25.9656313 218.956198,23.9648216 219.003196,21.9427087 C218.974231,19.9371582 219.445501,17.9555548 220.375153,16.1738744 C221.213139,14.5698351 222.500708,13.2396985 224.083145,12.3432949 C225.788884,11.4270771 227.705287,10.964975 229.645134,11.0021328 C231.538506,10.9646895 233.408577,11.4208465 235.068073,12.3249228 C236.606611,13.1802526 237.86472,14.4556663 238.692636,15.9993396 C239.559735,17.5837981 240.009304,19.3594735 239.999854,21.1618952 C239.999371,21.8770001 239.959139,22.5915398 239.879194,23.302243 Z M235.411063,16.9455019 C234.823162,15.989576 233.970492,15.2211501 232.954518,14.7316658 C231.886243,14.2177047 230.712083,13.9566971 229.524624,13.9692243 C227.815204,13.9258412 226.154841,14.5379034 224.889634,15.6778281 C223.573867,16.9241514 222.793617,18.6251566 222.711188,20.4270118 L236.291711,20.4270118 C236.332521,19.2077312 236.027417,18.0015496 235.411063,16.9455019 L235.411063,16.9455019 Z" id="Shape" fill="#4D8CAA"></path>
                <path d="M15.5336374,15.504292 C15.2142556,16.2075308 24.1660688,4.40052245 31.593975,2.92927298 C33.2102247,2.60565397 34.875575,3.16387325 35.9831922,4.40052245 C37.1968428,5.7792405 38.4378688,8.24982923 38.1184871,12.4970211 C38.1184871,12.4970211 37.5253497,21.5373401 22.0672747,32.9834759 C22.0672747,32.9834759 15.5336374,24.5446111 9,22.7402485 C9,22.7402485 19.6947248,31.1791134 20.8627494,36 C29.0778775,31.8367861 35.8549349,25.2453944 40.299408,17.0958323 C41.8371389,14.3262427 42.3545829,11.092783 41.7594387,7.97223499 C41.1879593,4.61131373 38.9189158,1.8011042 35.782438,0.56972195 C34.1394576,-0.0961862824 32.3230533,-0.180945044 30.6267046,0.329140276 C26.9766279,1.39325153 20.3791142,4.7706481 15.5336374,15.504292 Z" id="Path" fill="#4D8CAA"></path>
                <path d="M19.497146,4.22431993 C17.0472633,3.457277 14.4978608,3.06348247 11.9330111,3.05592261 C9.35206597,3.07416482 6.91564255,4.26219602 5.2960335,6.29219772 C4.25274742,7.81784274 3.83189403,9.69105899 4.12102226,11.5221667 C4.41354348,13.3459487 5.24188608,15.0388415 6.49858407,16.3812158 C7.45780379,17.4791133 8.70555746,18.27974 10.097056,18.6901915 C12.222431,19.1392033 14.4373407,18.7190652 16.2566853,17.5217941 C18.1541979,16.4803025 19.9360235,15.2368346 21.5717752,13.8125963 C23.6280449,11.8930864 25.4731797,9.63974876 27.9976179,8.47135144 C29.2283962,7.82564791 30.6224631,7.56725829 32,7.72951187 C29.4572022,8.28589155 27.5845281,9.95503057 25.7026741,12.1249113 C24.0955093,14.0683107 22.3887987,15.9254475 20.5895392,17.688708 C17.6244718,20.4706064 13.5670111,22.4828462 9.57380882,21.8986476 C5.5034105,21.3246044 2.05853737,18.571936 0.568449196,14.7028038 C-0.434872864,11.7742461 -0.0985565934,8.54679673 1.48642673,5.89345895 C2.87836535,3.63337746 5.0715691,1.99498697 7.61851667,1.31259964 C10.3724493,0.580033065 13.4660336,1.22914268 16.0363707,2.28626407 C17.2633073,2.78852522 18.4253893,3.43929842 19.497146,4.22431993 Z" id="Path" fill="#636596"></path>
            </g>
        </g>
    </g>
</svg>