<?xml version="1.0" encoding="UTF-8"?>
<svg width="20px" height="20px" viewBox="0 0 20 20" version="1.1" xmlns="http://www.w3.org/2000/svg" xmlns:xlink="http://www.w3.org/1999/xlink">
    <title>Confirm patient@3x</title>
    <g id="Symbols" stroke="none" stroke-width="1" fill="none" fill-rule="evenodd">
        <g id="Card/In-Progress/Patient" transform="translate(-190.000000, -15.000000)">
            <g id="Group-23" transform="translate(10.000000, 8.000000)">
                <g id="Confirm-patient" transform="translate(180.000000, 7.000000)">
                    <path d="M4,0 L16,0 C18.209139,-4.05812251e-16 20,1.790861 20,4 L20,16 C20,18.209139 18.209139,20 16,20 L4,20 C1.790861,20 2.705415e-16,18.209139 0,16 L0,4 C-2.705415e-16,1.790861 1.790861,4.05812251e-16 4,0 Z" id="Path" fill-opacity="0.1" fill="#5563AB"></path>
                    <g id="Group-19" transform="translate(5.000000, 5.000000)" fill="#5C63AB" fill-rule="nonzero">
                        <path d="M5.25,10 L4.74833333,9.4625 C4.06,8.725 4.06583333,7.525 4.76,6.8 L5.25,6.2875 C5.0225,6.2625 4.85333333,6.25 4.66666667,6.25 C3.10916667,6.25 0,7.0875 0,8.75 L0,10 L5.25,10 Z M4.66666667,5 C5.95583333,5 7,3.88125 7,2.5 C7,1.11875 5.95583333,0 4.66666667,0 C3.3775,0 2.33333333,1.11875 2.33333333,2.5 C2.33333333,3.88125 3.3775,5 4.66666667,5" id="Shape"></path>
                        <path d="M7.55163043,9.83670621 C7.33967391,10.0544313 6.99184783,10.0544313 6.7798913,9.83670621 L5.6548913,8.66992324 C5.44836957,8.45219819 5.44836957,8.10607118 5.6548913,7.89392882 L5.66032609,7.88834613 C5.87228261,7.67062107 6.21467391,7.67062107 6.42119565,7.88834613 L7.16576087,8.65317516 L9.57336957,6.16329379 C9.78532609,5.94556874 10.1277174,5.94556874 10.3396739,6.16329379 L10.3451087,6.16887648 C10.5516304,6.38660154 10.5516304,6.73272854 10.3451087,6.9448709 L7.55163043,9.83670621 Z" id="Path"></path>
                    </g>
                </g>
            </g>
        </g>
    </g>
</svg>