<?xml version="1.0" encoding="UTF-8"?>
<svg width="61px" height="78px" viewBox="0 0 61 78" version="1.1" xmlns="http://www.w3.org/2000/svg" xmlns:xlink="http://www.w3.org/1999/xlink">
    <title>Create@3x</title>
    <g id="Documents-Center" stroke="none" stroke-width="1" fill="none" fill-rule="evenodd">
        <g id="Template-Lirary-/No-data-Copy" transform="translate(-245.000000, -344.000000)" fill="#1F3D5A" fill-rule="nonzero">
            <g id="Group-2" transform="translate(145.000000, 291.000000)">
                <g id="Group" transform="translate(39.000000, 53.000000)">
                    <g id="Create" transform="translate(61.000000, 0.000000)">
                        <path d="M52.888448,12.9998611 L59,12.9998611 L49,3 L49,9.11146716 C49,10.1795106 49.4348188,11.1436624 50.1432398,11.8567761 C50.8547561,12.5651872 51.8189611,13 52.8885868,13 L52.888448,12.9998611 Z" id="Path"></path>
                        <path d="M52.283658,15.9293813 C48.3790823,15.9224843 45.2099455,12.7269869 45.2039157,8.78892857 C45.2039157,3.93493735 41.2689783,-1.90952399e-15 36.4149871,0 L12,0 C5.372583,2.99379359e-15 9.64732338e-16,5.372583 0,12 L0,66 C8.11624501e-16,72.627417 5.372583,78 12,78 L49,78 C55.627417,78.0005876 61,72.6280045 61,66.0005876 C61,66.0003917 61,66.0001958 60.9994124,66 L60.9973874,24.6428802 C60.9971518,19.8305552 57.095983,15.9294896 52.283658,15.9293813 L52.283658,15.9293813 L52.283658,15.9293813 Z M9.25629923,18.6758602 C9.25629923,17.7654809 9.98798412,17.0282867 10.8898645,17.0282867 L19.6040668,17.0282867 C20.5059472,17.0282867 21.2376321,17.7654809 21.2376321,18.6758602 C21.2376321,19.5854743 20.5059472,20.3234342 19.6040668,20.3234342 L10.8898645,20.3234342 C9.98874271,20.3241999 9.25629923,19.5854743 9.25629923,18.6758602 Z M44.6569561,53.281494 L16.3364306,53.281494 C15.4345502,53.281494 14.7028653,52.5435347 14.7028653,51.6339205 C14.7028653,50.7235412 15.4345502,49.9863471 16.3364306,49.9863471 L44.6569561,49.9863471 C45.5588365,49.9863471 46.2905219,50.7235412 46.2905219,51.6339205 C46.2912811,52.5427696 45.559595,53.281494 44.6569561,53.281494 Z M44.6569561,42.2955785 L16.3364306,42.2955785 C15.4345502,42.2955785 14.7028653,41.5576192 14.7028653,40.648005 C14.7028653,39.7376258 15.4345502,39.0004316 16.3364306,39.0004316 L44.6569561,39.0004316 C45.5588365,39.0004316 46.2905219,39.7376258 46.2905219,40.648005 C46.2912811,41.5568541 45.559595,42.2955785 44.6569561,42.2955785 Z M44.6569561,31.309663 L16.3364306,31.309663 C15.4345502,31.309663 14.7028653,30.5717037 14.7028653,29.6620895 C14.7028653,28.7517103 15.4345502,28.0145161 16.3364306,28.0145161 L44.6569561,28.0145161 C45.5588365,28.0145161 46.2905219,28.7517103 46.2905219,29.6620895 C46.2912811,30.5709386 45.559595,31.309663 44.6569561,31.309663 Z" id="Shape"></path>
                    </g>
                </g>
            </g>
        </g>
    </g>
</svg>