<?xml version="1.0" encoding="UTF-8"?>
<svg width="46px" height="46px" viewBox="0 0 46 46" version="1.1" xmlns="http://www.w3.org/2000/svg" xmlns:xlink="http://www.w3.org/1999/xlink">
    <title>Create equipment@3x</title>
    <defs>
        <rect id="path-1" x="0" y="0" width="40" height="40" rx="10"></rect>
        <filter x="-13.8%" y="-8.8%" width="127.5%" height="127.5%" filterUnits="objectBoundingBox" id="filter-2">
            <feOffset dx="0" dy="2" in="SourceAlpha" result="shadowOffsetOuter1"></feOffset>
            <feGaussianBlur stdDeviation="1.5" in="shadowOffsetOuter1" result="shadowBlurOuter1"></feGaussianBlur>
            <feComposite in="shadowBlurOuter1" in2="SourceAlpha" operator="out" result="shadowBlurOuter1"></feComposite>
            <feColorMatrix values="0 0 0 0 0.0784313725   0 0 0 0 0.196078431   0 0 0 0 0.31372549  0 0 0 0.05 0" type="matrix" in="shadowBlurOuter1"></feColorMatrix>
        </filter>
    </defs>
    <g id="Practice-Management" stroke="none" stroke-width="1" fill="none" fill-rule="evenodd">
        <g id="Practice-Calender-Schedule-Week" transform="translate(-1331.000000, -133.000000)">
            <g id="Create-equipment" transform="translate(1334.000000, 134.000000)">
                <g id="Rectangle">
                    <use fill="black" fill-opacity="1" filter="url(#filter-2)" xlink:href="#path-1"></use>
                    <rect stroke-opacity="0.2" stroke="#173E67" stroke-width="1" stroke-linejoin="square" fill="#FFFFFF" fill-rule="evenodd" x="0.5" y="0.5" width="39" height="39" rx="10"></rect>
                </g>
                <g id="vaccines_black_24dp-copy" transform="translate(8.000000, 8.000000)">
                    <rect id="Rectangle" x="0" y="0" width="24" height="24"></rect>
                    <path d="M11,5.5 L8,5.5 L8,4 L8.5,4 C9.05,4 9.5,3.55 9.5,3 C9.5,2.45 9.05,2 8.5,2 L5.5,2 C4.95,2 4.5,2.45 4.5,3 C4.5,3.55 4.95,4 5.5,4 L6,4 L6,5.5 L3,5.5 C2.45,5.5 2,5.95 2,6.5 C2,7.05 2.45,7.5 3,7.5 L3,15 C3,16.1 3.9,17 5,17 L6,17 L6,21 L8,22.5 L8,17 L9,17 C10.1,17 11,16.1 11,15 L11,7.5 C11.55,7.5 12,7.05 12,6.5 C12,5.95 11.55,5.5 11,5.5 Z M9,9 L7.25,9 C6.84,9 6.5,9.34 6.5,9.75 C6.5,10.16 6.84,10.5 7.25,10.5 L9,10.5 L9,12 L7.25,12 C6.84,12 6.5,12.34 6.5,12.75 C6.5,13.16 6.84,13.5 7.25,13.5 L9,13.5 L9,15 L5,15 L5,7.5 L9,7.5 L9,9 Z M19.5,10.5 L19.5,10 C20.05,10 20.5,9.55 20.5,9 C20.5,8.45 20.05,8 19.5,8 L14.5,8 C13.95,8 13.5,8.45 13.5,9 C13.5,9.55 13.95,10 14.5,10 L14.5,10.5 C14.5,11 13,11.66 13,13.5 L13,20 C13,21.1 13.9,22 15,22 L19,22 C20.1,22 21,21.1 21,20 L21,13.5 C21,11.66 19.5,11 19.5,10.5 Z M16.5,10.5 L16.5,10 L17.5,10 L17.5,10.5 C17.5,12.1 19,12.5 19,13.5 L19,14 L15,14 C15,13.79 15,13.61 15,13.5 C15,12.5 16.5,12.1 16.5,10.5 Z M19,15.5 L19,17 L15,17 C15,16.49 15,15.98 15,15.5 L19,15.5 Z M15,20 C15,20 15,19.37 15,18.5 L19,18.5 L19,20 L15,20 Z" id="Shape" fill="#5C63AB" fill-rule="nonzero"></path>
                </g>
            </g>
        </g>
    </g>
</svg>