<?xml version="1.0" encoding="UTF-8"?>
<svg width="75px" height="75px" viewBox="0 0 75 75" version="1.1" xmlns="http://www.w3.org/2000/svg" xmlns:xlink="http://www.w3.org/1999/xlink">
    <title>Group 22@3x</title>
    <defs>
        <path d="M1.66666667,26.6666667 C1.66666667,28.5 3.16666667,30 5,30 L18.3333333,30 C20.1666667,30 21.6666667,28.5 21.6666667,26.6666667 L21.6666667,6.66666667 L1.66666667,6.66666667 L1.66666667,26.6666667 L1.66666667,26.6666667 Z M23.3333333,1.66666667 L17.5,1.66666667 L15.8333333,0 L7.5,0 L5.83333333,1.66666667 L0,1.66666667 L0,5 L23.3333333,5 L23.3333333,1.66666667 L23.3333333,1.66666667 Z" id="path-1"></path>
        <rect id="path-3" x="0" y="0" width="83.3333333" height="83.3333333"></rect>
    </defs>
    <g id="Chat" stroke="none" stroke-width="1" fill="none" fill-rule="evenodd">
        <g id="Group-chat-/Delete-message" transform="translate(-763.000000, -412.000000)">
            <g id="Group-51" transform="translate(543.000000, 362.000000)">
                <g id="Group-22" transform="translate(220.000000, 50.000000)">
                    <circle id="Oval" fill-opacity="0.2" fill="#F93D3D" cx="37.5" cy="37.5" r="37.5"></circle>
                    <g id="Icon/-Down-Copy" transform="translate(26.333333, 23.000000)">
                        <mask id="mask-2" fill="white">
                            <use xlink:href="#path-1"></use>
                        </mask>
                        <g id="Mask"></g>
                        <g id="🎨-Color" mask="url(#mask-2)">
                            <g transform="translate(-30.000000, -26.666667)">
                                <mask id="mask-4" fill="white">
                                    <use xlink:href="#path-3"></use>
                                </mask>
                                <use id="Color" stroke="none" fill="#FC5A5A" fill-rule="evenodd" xlink:href="#path-3"></use>
                            </g>
                        </g>
                    </g>
                </g>
            </g>
        </g>
    </g>
</svg>