<?xml version="1.0" encoding="UTF-8"?>
<svg width="48px" height="48px" viewBox="0 0 48 48" version="1.1" xmlns="http://www.w3.org/2000/svg" xmlns:xlink="http://www.w3.org/1999/xlink">
    <title>Doctor@3x</title>
    <g id="Practice-Management" stroke="none" stroke-width="1" fill="none" fill-rule="evenodd">
        <g id="Practice-Calender-Schedule-Week-" transform="translate(-163.000000, -429.000000)">
            <g id="Doctor" transform="translate(163.000000, 429.000000)">
                <rect id="Rectangle" fill="#5C63AB" x="0" y="0" width="48" height="48" rx="24"></rect>
                <g id="medication_black_24dp" transform="translate(12.000000, 12.000000)">
                    <polygon id="Path" points="0 0 24 0 24 24 0 24"></polygon>
                    <g id="Group" transform="translate(5.000000, 3.000000)" fill="#FFFFFF" fill-rule="nonzero">
                        <path d="M12,0 L2,0 C1.45,0 1,0.45 1,1 L1,1 C1,1.55 1.45,2 2,2 L12,2 C12.55,2 13,1.55 13,1 L13,1 C13,0.45 12.55,0 12,0 Z" id="Path"></path>
                        <path d="M12,3 L2,3 C0.9,3 0,3.9 0,5 L0,16 C0,17.1 0.9,18 2,18 L12,18 C13.1,18 14,17.1 14,16 L14,5 C14,3.9 13.1,3 12,3 Z M9.5,12 L8.5,12 L8.5,13 C8.5,13.83 7.83,14.5 7,14.5 L7,14.5 C6.17,14.5 5.5,13.83 5.5,13 L5.5,12 L4.5,12 C3.67,12 3,11.33 3,10.5 L3,10.5 C3,9.67 3.67,9 4.5,9 L5.5,9 L5.5,8 C5.5,7.17 6.17,6.5 7,6.5 L7,6.5 C7.83,6.5 8.5,7.17 8.5,8 L8.5,9 L9.5,9 C10.33,9 11,9.67 11,10.5 L11,10.5 C11,11.33 10.33,12 9.5,12 Z" id="Shape"></path>
                    </g>
                </g>
            </g>
        </g>
    </g>
</svg>