<?xml version="1.0" encoding="UTF-8"?>
<svg width="55px" height="55px" viewBox="0 0 55 55" version="1.1" xmlns="http://www.w3.org/2000/svg" xmlns:xlink="http://www.w3.org/1999/xlink">
    <title>Documents@3x</title>
    <g id="Chat" stroke="none" stroke-width="1" fill="none" fill-rule="evenodd">
        <g id="Group-chat-/View-profile" transform="translate(-1238.000000, -280.000000)">
            <g id="Group-22" transform="translate(1238.000000, 234.000000)">
                <g id="Documents" transform="translate(0.000000, 46.000000)">
                    <rect id="Rectangle" fill-opacity="0.1" fill="#5563AB" x="0" y="0" width="55" height="55" rx="10"></rect>
                    <path d="M31.2375,15.767 C30.7625,15.273 30.125,15 29.4625,15 L20.5,15 C19.125,15 18,16.17 18,17.6 L18,38.4 C18,39.83 19.1125,41 20.4875,41 L35.5,41 C36.875,41 38,39.83 38,38.4 L38,23.879 C38,23.19 37.7375,22.527 37.2625,22.046 L31.2375,15.767 Z M31.75,36 L24.25,36 C23.5625,36 23,35.325 23,34.5 C23,33.675 23.5625,33 24.25,33 L31.75,33 C32.4375,33 33,33.675 33,34.5 C33,35.325 32.4375,36 31.75,36 Z M31.75,31 L24.25,31 C23.5625,31 23,30.325 23,29.5 C23,28.675 23.5625,28 24.25,28 L31.75,28 C32.4375,28 33,28.675 33,29.5 C33,30.325 32.4375,31 31.75,31 Z M29,22.7272727 L29,17 L36,24 L30.2727273,24 C29.5727273,24 29,23.4272727 29,22.7272727 Z" id="Shape-Copy-2" fill="#5C63AB" fill-rule="nonzero"></path>
                </g>
            </g>
        </g>
    </g>
</svg>