          <svg
            width="17px"
            height="20px"
            viewBox="0 0 17 20"
            version="1.1"
            xmlns="http://www.w3.org/2000/svg"
            xmlns:xlink="http://www.w3.org/1999/xlink"
          >
            <title>Document</title>
            <g
              id="Patient"
              stroke="none"
              stroke-width="1"
              fill="none"
              fill-rule="evenodd"
            >
              <g id="Group-36" transform="translate(-30.000000, -459.000000)">
                <g id="Group" transform="translate(26.000000, 457.000000)">
                  <g id="Group-29" transform="translate(0.500000, 0.000000)">
                    <rect
                      id="Icon-Spacing"
                      opacity="0.2"
                      x="0"
                      y="0"
                      width="24"
                      height="24"
                      rx="5"
                    ></rect>
                    <g
                      id="document.text"
                      transform="translate(4.000000, 2.000000)"
                      fill="#5563AB"
                      fill-opacity="0.4"
                      fill-rule="nonzero"
                    >
                      <path
                        d="M4,4 C3.44772,4 3,4.44772 3,5 C3,5.55228 3.44772,6 4,6 L4,4 Z M11,6 C11.5523,6 12,5.55228 12,5 C12,4.44772 11.5523,4 11,4 L11,6 Z M4,7 C3.44772,7 3,7.44772 3,8 C3,8.5523 3.44772,9 4,9 L4,7 Z M11,9 C11.5523,9 12,8.5523 12,8 C12,7.44772 11.5523,7 11,7 L11,9 Z M4,10 C3.44772,10 3,10.4477 3,11 C3,11.5523 3.44772,12 4,12 L4,10 Z M11,12 C11.5523,12 12,11.5523 12,11 C12,10.4477 11.5523,10 11,10 L11,12 Z M4,13 C3.44772,13 3,13.4477 3,14 C3,14.5523 3.44772,15 4,15 L4,13 Z M8,15 C8.5523,15 9,14.5523 9,14 C9,13.4477 8.5523,13 8,13 L8,15 Z M13,18 L3,18 L3,20 L13,20 L13,18 Z M2,17 L2,3 L0,3 L0,17 L2,17 Z M3,2 L13,2 L13,0 L3,0 L3,2 Z M14,3 L14,17 L16,17 L16,3 L14,3 Z M13,2 C13.5523,2 14,2.44772 14,3 L16,3 C16,1.34315 14.6569,0 13,0 L13,2 Z M3,18 C2.44771,18 2,17.5523 2,17 L0,17 C0,18.6569 1.34315,20 3,20 L3,18 Z M13,20 C14.6569,20 16,18.6569 16,17 L14,17 C14,17.5523 13.5523,18 13,18 L13,20 Z M2,3 C2,2.44772 2.44772,2 3,2 L3,0 C1.34315,0 0,1.34315 0,3 L2,3 Z M4,6 L11,6 L11,4 L4,4 L4,6 Z M4,9 L11,9 L11,7 L4,7 L4,9 Z M4,12 L11,12 L11,10 L4,10 L4,12 Z M4,15 L8,15 L8,13 L4,13 L4,15 Z"
                        id="Shape"
                      ></path>
                    </g>
                  </g>
                </g>
              </g>
            </g>
          </svg>