<?xml version="1.0" encoding="UTF-8"?>
<svg width="24px" height="24px" viewBox="0 0 24 24" version="1.1" xmlns="http://www.w3.org/2000/svg" xmlns:xlink="http://www.w3.org/1999/xlink">
    <title>Emoji@3x</title>
    <g id="Chat" stroke="none" stroke-width="1" fill="none" fill-rule="evenodd">
        <g id="Group-chat-/Menu" transform="translate(-1023.000000, -954.000000)">
            <g id="Group-5" transform="translate(483.000000, 929.000000)">
                <g id="Emoji" transform="translate(540.000000, 25.000000)">
                    <rect id="Rectangle" x="0" y="0" width="24" height="24"></rect>
                    <path d="M11.991,3 C7.023,3 3,7.032 3,12 C3,16.968 7.023,21 11.991,21 C16.968,21 21,16.968 21,12 C21,7.032 16.968,3 11.991,3 Z M8.5,8 C9.33,8 10,8.67 10,9.5 C10,10.33 9.33,11 8.5,11 C7.67,11 7,10.33 7,9.5 C7,8.67 7.67,8 8.5,8 Z M16.952344,14.72 C16.0921246,16.67 14.4284038,18 12.5,18 C10.5715962,18 8.90787535,16.67 8.04765603,14.72 C7.89640867,14.39 8.1232797,14 8.47303921,14 L16.5269608,14 C16.8767203,14 17.1035913,14.39 16.952344,14.72 Z M15.5,11 C14.67,11 14,10.33 14,9.5 C14,8.67 14.67,8 15.5,8 C16.33,8 17,8.67 17,9.5 C17,10.33 16.33,11 15.5,11 Z" id="Shape-Copy" fill-opacity="0.85" fill="#173E67" fill-rule="nonzero"></path>
                </g>
            </g>
        </g>
    </g>
</svg>