<?xml version="1.0" encoding="UTF-8"?>
<svg width="145px" height="120px" viewBox="0 0 145 256" version="1.1" xmlns="http://www.w3.org/2000/svg" xmlns:xlink="http://www.w3.org/1999/xlink">
    <title>Group 7@3x</title>
    <defs>
        <polygon id="path-1" points="0 0 35.8011448 0 35.8011448 31.2454924 0 31.2454924"></polygon>
        <polygon id="path-3" points="0 0 35.8011448 0 35.8011448 31.2454924 0 31.2454924"></polygon>
        <polygon id="path-5" points="-1.13798077e-13 31.744 35.9684629 31.744 35.9684629 0 -1.13798077e-13 0"></polygon>
    </defs>
    <g id="Dashboard" stroke="none" stroke-width="1" fill="none" fill-rule="evenodd">
        <g transform="translate(-980.000000, -145.000000)" id="Group-10">
            <g transform="translate(137.000000, 145.000000)">
                <g id="Group-7" transform="translate(915.890621, 128.000000) scale(-1, 1) translate(-915.890621, -128.000000) translate(843.836170, 0.000000)">
                    <g id="Group-5">
                        <g id="Group-17" transform="translate(23.518566, 162.362715) scale(-1, -1) rotate(30.000000) translate(-23.518566, -162.362715) translate(5.534335, 146.490715)">
                            <g id="Group-3" transform="translate(0.095929, 0.355062)">
                                <mask id="mask-2" fill="white">
                                    <use xlink:href="#path-1"></use>
                                </mask>
                                <g id="Clip-2"></g>
                                <path d="M0,2.47936913 L0,31.2457672 L35.8011448,31.2457672 L35.8011448,2.47936913 C35.8011448,1.11024732 34.6649132,0 33.2624916,0 L2.53865323,0 C1.1367944,0 0,1.11024732 0,2.47936913" id="Fill-1" fill="#FF725E" mask="url(#mask-2)"></path>
                            </g>
                            <g id="Group-6" transform="translate(0.095929, 0.355062)">
                                <mask id="mask-4" fill="white">
                                    <use xlink:href="#path-3"></use>
                                </mask>
                                <g id="Clip-5"></g>
                                <path d="M0,2.47936913 L0,31.2457672 L35.8011448,31.2457672 L35.8011448,2.47936913 C35.8011448,1.11024732 34.6649132,0 33.2624916,0 L2.53865323,0 C1.1367944,0 0,1.11024732 0,2.47936913" id="Fill-4" fill="#FFFFFF" mask="url(#mask-4)"></path>
                            </g>
                            <polyline id="Fill-7" fill="#4394AD" points="2.31422238 16.8085644 2.55124994 6.86681687 33.8192298 6.86681687 33.8192298 12.539315"></polyline>
                            <path d="M33.6938835,12.2151963 C33.6877281,11.9415749 33.6793344,11.5750447 33.6687023,11.1130534 C33.6580703,10.1267912 33.6429616,8.73367032 33.6244954,7.00005416 L33.721303,7.08836853 C29.3599235,7.09908877 22.9627859,7.11491389 15.8370729,7.13278096 C10.9323396,7.12461315 6.37230863,7.11695584 2.5699512,7.11082999 L2.69138042,7.00209611 C2.59960903,9.94199466 2.52294634,12.3862097 2.46866692,14.1239097 C2.43453244,14.9611095 2.40711294,15.6267855 2.38752758,16.1086858 C2.37521678,16.3210487 2.36514431,16.4930831 2.35675059,16.6298938 C2.34779728,16.7478164 2.33996314,16.8085644 2.33380774,16.8085644 C2.32765234,16.8085644 2.3226161,16.7473059 2.31925861,16.6293833 C2.31813945,16.4920621 2.31646071,16.3200277 2.31422238,16.1071544 C2.31757987,15.6247435 2.3226161,14.9585571 2.3287715,14.1213573 C2.35786975,12.3831467 2.39871921,9.93791076 2.44852198,6.99750172 L2.45020072,6.88927833 L2.5699512,6.88927833 C6.37230863,6.88264199 10.9323396,6.87498468 15.8370729,6.86681687 C22.9627859,6.88468394 29.3599235,6.90050906 33.721303,6.91173979 L33.8192298,6.91173979 L33.8181106,7.00005416 C33.7996444,8.73367032 33.7845357,10.1267912 33.7739037,11.1130534 C33.7632716,11.5750447 33.7548779,11.9415749 33.7481629,12.2151963 C33.7397692,12.4658458 33.7308159,12.5965306 33.721303,12.5965306 C33.7117901,12.5965306 33.7028368,12.4658458 33.6938835,12.2151963 Z" id="Fill-9" fill="#1F3D5A"></path>
                            <mask id="mask-6" fill="white">
                                <use xlink:href="#path-5"></use>
                            </mask>
                            <g id="Clip-12"></g>
                            <polygon id="Fill-11" fill="#4394AD" mask="url(#mask-6)" points="5.58084616 5.23762816 32.7897162 5.23762816 32.7897162 2.39712886 5.58084616 2.39712886"></polygon>
                            <path d="M5.64302644,2.52583261 C5.63969535,2.52286252 5.6824443,2.51989244 5.76960773,2.51692235 C5.87342659,2.51444728 6.00222861,2.51197221 6.16156558,2.50801209 C6.53242655,2.50405197 7.04374833,2.4981118 7.69275503,2.49068658 C9.05739014,2.48128131 10.9983032,2.46841094 13.4016822,2.45257047 C18.2883861,2.43871007 25.0488263,2.41940451 32.6448139,2.39762387 L32.789161,2.39712886 L32.789161,2.52583261 C32.789161,3.3450815 32.789161,4.21531688 32.7897162,5.09545254 C32.5004669,5.35533512 32.7042183,5.16772465 32.6375966,5.22564134 L32.6287137,5.22564134 L32.6115031,5.22564134 L32.5765267,5.22564134 L32.5060187,5.22564134 L32.366113,5.22564134 L32.0863018,5.22564134 L31.5283448,5.22564134 C31.1569286,5.22564134 30.7877332,5.22514632 30.4202033,5.22514632 C29.6856987,5.22465131 28.9578563,5.22465131 28.2388968,5.22415629 C26.8009778,5.22267125 25.3963696,5.22168122 24.0322897,5.22019618 C21.3074609,5.21475102 18.7469657,5.20980087 16.4113189,5.20485073 C11.767229,5.18158505 8.02308777,5.16326952 5.64302644,5.15138917 L5.58084616,5.15089416 L5.58195652,5.09644257 C5.59694641,4.26828342 5.60860521,3.62476465 5.61637775,3.16786633 C5.62248474,2.96639546 5.62748137,2.80700081 5.63136764,2.68225717 C5.63525391,2.57483904 5.63914017,2.52236751 5.64302644,2.52583261 C5.64691271,2.52929771 5.65079898,2.58869944 5.65524042,2.70205775 C5.65857151,2.82927646 5.66356814,2.99312624 5.66967513,3.19954726 C5.67744767,3.64902036 5.68910647,4.28214382 5.70409636,5.09644257 L5.64302644,5.04199098 C8.02308777,5.03011063 11.767229,5.0117951 16.4113189,4.98852942 C18.7469657,4.98357928 21.3074609,4.97862913 24.0322897,4.97318397 C25.3963696,4.97169893 26.8009778,4.9707089 28.2388968,4.96922386 C28.9578563,4.96872884 29.6856987,4.96872884 30.4202033,4.96823383 C30.7877332,4.96823383 31.1569286,4.96823383 31.5283448,4.96773882 L32.0863018,4.96773882 L32.366113,4.96773882 L32.5060187,4.96773882 L32.5765267,4.96773882 L32.6115031,4.96773882 L32.6287137,4.96773882 L32.6375966,4.96773882 C32.5754163,5.02466548 32.789161,4.84052011 32.5004669,5.09545254 C32.5004669,4.21531688 32.501022,3.3450815 32.501022,2.52583261 L32.6448139,2.65404135 C25.0899097,2.63226071 18.3661115,2.61295515 13.5060562,2.59909475 C11.0887978,2.58325428 9.13622586,2.57038391 7.7638182,2.56097863 C7.1003768,2.55355342 6.57850658,2.54761324 6.19987307,2.54315811 C6.03276357,2.53969301 5.89785456,2.53672293 5.78959425,2.53474287 C5.69576864,2.53177278 5.64635753,2.5288027 5.64302644,2.52583261" id="Fill-13" fill="#1F3D5A" mask="url(#mask-6)"></path>
                            <path d="M0.0363642236,31.9776293 L36.4513082,32.6090403 L36.4513082,12.7500267 L20.4227654,12.7500267 L17.3137019,10.0810403 L0.263784064,10.0810403 C-0.843584022,10.0810403 -1.6990758,11.0308074 -1.55704863,12.102409 L0.0363642236,31.9776293 Z" id="Fill-14" fill="#535671" mask="url(#mask-6)"></path>
                            <path d="M26.1605398,19.5029404 C26.1605398,19.523392 22.3132196,19.5398669 17.5685411,19.5398669 C12.8227582,19.5398669 8.97599026,19.523392 8.97599026,19.5029404 C8.97599026,19.4824888 12.8227582,19.4660139 17.5685411,19.4660139 C22.3132196,19.4660139 26.1605398,19.4824888 26.1605398,19.5029404" id="Fill-15" stroke="#FFFFFF" stroke-linecap="square" stroke-linejoin="round" mask="url(#mask-6)"></path>
                            <path d="M25.8282324,24.6131069 C25.8282324,24.6335585 21.9809122,24.6500334 17.2362337,24.6500334 C12.4904508,24.6500334 8.64368288,24.6335585 8.64368288,24.6131069 C8.64368288,24.5926553 12.4904508,24.5761804 17.2362337,24.5761804 C21.9809122,24.5761804 25.8282324,24.5926553 25.8282324,24.6131069" id="Fill-16" stroke="#FFFFFF" stroke-linecap="square" stroke-linejoin="round" mask="url(#mask-6)"></path>
                        </g>
                        <g id="Group-4" transform="translate(8.759813, 0.000000)">
                            <g id="Head/Front" transform="translate(43.919298, 0.000000)">
                                <path d="M19.5192512,40.6480299 C26.6195379,40.6480299 29.2018219,32.0526838 33.235707,27.3357912 C36.1218691,23.9609512 41.0476556,24.967271 42.5056921,20.2425685 C46.1720559,8.3618795 36.3590611,0 23.5574098,0 C10.7557585,0 2.12410675,7.33361766 0.260341274,18.3580064 C-1.60342421,29.3823952 6.71759992,40.6480299 19.5192512,40.6480299 Z" id="Hair-Back" fill="#232323"></path>
                                <g id="Head" transform="translate(15.170465, 11.307372)" fill="#FFBC65">
                                    <path d="M23.6967476,5.73782109 C27.2968037,12.5229491 26.8690235,29.7339891 22.2162718,30.9466807 C20.3606991,31.4303165 16.4077079,30.2455469 12.3845514,27.7934686 L14.9101238,45.8576763 L0,45.8576763 L5.13255198,21.6657529 C2.27009945,18.268137 0.332782026,14.1043806 0.65652775,9.43880001 C1.58937585,-4.00470726 20.0966916,-1.04730694 23.6967476,5.73782109 Z" id="Head-[skin]"></path>
                                </g>
                                <path d="M39.7617078,17.0832576 C36.9103721,17.6244922 31.167928,20.3769699 26.5892765,24.3252838 C26.0472246,24.0357139 25.4265117,23.8711192 24.7667875,23.8711192 C22.6543899,23.8711192 20.9419532,25.5586135 20.9419532,27.6402433 C20.9419532,28.4899995 21.2273153,29.2740766 21.7087574,29.904493 C20.8022625,31.4146304 20.1837355,33.0016205 19.9809922,34.6330819 C16.8397995,34.6330819 5.3754955,22.6147445 16.7961595,11.3073722 C28.2168235,-3.29514194e-13 44.7210967,16.1418768 39.7617078,17.0832576 Z" id="Hair" fill="#232323"></path>
                            </g>
                            <g id="Bottom/Skinny-Jeans-1" transform="translate(19.011855, 108.294036)">
                                <polygon id="Leg" fill="#1B1B1B" points="35.0182931 0 57.6894876 78.62834 74.2306254 136.581665 86.2950794 136.581665 68.7177561 0"></polygon>
                                <path d="M28.9553397,0 C28.4309572,40.5259582 26.6428225,62.6299171 26.0922423,66.3118766 C25.5416621,69.9938361 17.2166011,93.4170991 1.11705936,136.581665 L13.6150165,136.581665 C34.1109649,95.1726394 45.5523277,71.7493764 47.9391048,66.3118766 C50.325882,60.8743768 57.6917091,38.7704179 68.7859329,0 L28.9553397,0 Z" id="Leg" fill="#1B1B1B"></path>
                                <g id="Left-[shoe]" transform="translate(0.000000, 134.727616)" fill="#282828">
                                    <path d="M0.0505011432,11.9302218 L0.579463207,0.951873532 C0.605142302,0.418916506 1.04472915,5.42105403e-16 1.57830446,0 L13.7571866,0 L13.7571866,0 C19.8311609,4.21996994 27.7154128,7.65585832 37.4099422,10.3076651 C37.8446473,10.4274224 38.1457112,10.8230758 38.1449264,11.2739744 L38.1449264,11.9783483 C38.1449264,12.530633 37.6972112,12.9783483 37.1449264,12.9783483 L14.4581027,12.9783483 C14.4077815,12.9783483 14.3575321,12.97455 14.3077827,12.9669857 L6.86426093,11.8352154 C6.5742472,11.7911195 6.30339781,11.9904753 6.25930189,12.280489 C6.25528411,12.3069135 6.25326662,12.3336035 6.25326662,12.3603317 C6.25326662,12.7016528 5.97657117,12.9783483 5.63525004,12.9783483 L1.04934239,12.9783483 C0.497057644,12.9783483 0.0493423934,12.530633 0.0493423934,11.9783483 C0.0493423934,11.9622992 0.0497287553,11.9462524 0.0505011432,11.9302218 Z" id="Shoe"></path>
                                </g>
                                <g id="Right-[shoe]" transform="translate(72.537893, 134.727616)" fill="#282828">
                                    <path d="M0.0505011432,11.9302218 L0.579463207,0.951873532 C0.605142302,0.418916506 1.04472915,3.20060799e-16 1.57830446,0 L13.7571866,0 L13.7571866,0 C19.8311609,4.21996994 27.7154128,7.65585832 37.4099422,10.3076651 C37.8446473,10.4274224 38.1457112,10.8230758 38.1449264,11.2739744 L38.1449264,11.9783483 C38.1449264,12.530633 37.6972112,12.9783483 37.1449264,12.9783483 L14.4581027,12.9783483 C14.4077815,12.9783483 14.3575321,12.97455 14.3077827,12.9669857 L6.86426093,11.8352154 C6.5742472,11.7911195 6.30339781,11.9904753 6.25930189,12.280489 C6.25528411,12.3069135 6.25326662,12.3336035 6.25326662,12.3603317 C6.25326662,12.7016528 5.97657117,12.9783483 5.63525004,12.9783483 L1.04934239,12.9783483 C0.497057644,12.9783483 0.0493423934,12.530633 0.0493423934,11.9783483 C0.0493423934,11.9622992 0.0497287553,11.9462524 0.0505011432,11.9302218 Z" id="Shoe"></path>
                                </g>
                            </g>
                            <g id="Body/Long-Sleeve-1" transform="translate(0.000000, 41.542302)">
                                <path d="M100.195917,60.8671773 L119.328833,76.5634684 C124.645954,78.3114485 129.057874,80.3675805 132.564593,82.7318643 C133.3793,83.5580144 134.331482,85.1935346 130.80172,84.7296699 C127.271958,84.2658051 123.538783,83.936916 122.988102,85.1216669 C122.437421,86.3064178 124.50805,87.8702082 123.436371,89.4510498 C122.721919,90.5049441 119.748072,87.6057456 114.51483,80.7534541 L95.2469111,71.5146051 L100.195917,60.8671773 Z" id="Arm" fill="#FFBC65" fill-rule="nonzero" transform="translate(114.286967, 75.264477) rotate(9.000000) translate(-114.286967, -75.264477) "></path>
                                <path d="M36.8033117,59.3286137 C27.7243365,81.9936535 22.3296239,94.4061394 20.619174,96.5660714 C19.364883,98.1499725 11.7237484,102.147751 6.56144059,104.262681 C4.48936022,105.111585 4.90289432,106.849422 5.49734434,107.413986 C10.3324678,112.00602 14.8503554,108.751628 20.1357676,107.548999 C25.9263907,106.231415 24.0176384,113.021605 28.592316,112.050933 C27.9167758,108.919089 26.0468481,102.960971 28.2074301,99.7690568 C29.1676888,98.3504285 36.2982787,85.7943386 49.5991999,62.1007872 L36.8033117,59.3286137 Z" id="Arm" fill="#FFBC65" fill-rule="nonzero" transform="translate(27.306597, 85.737455) rotate(-12.000000) translate(-27.306597, -85.737455) "></path>
                                <path d="M64.7774766,5.76361966 L70.0939705,4.37126769 C81.4045145,26.6316535 99.4613765,46.1773986 124.264557,63.0085031 L108.617226,85.6682146 C83.117472,60.844137 66.4237619,34.3912881 64.7774766,5.76361966 Z" id="Coat-Back" fill="#1B1B1B" transform="translate(94.521017, 45.019741) rotate(5.000000) translate(-94.521017, -45.019741) "></path>
                                <path d="M44.6955966,70.9972928 L92.9376392,70.9972928 C81.7610665,43.9841599 76.1727802,21.0368239 76.1727802,2.15528493 L61.6205391,0 C50.183845,18.2839246 46.9540925,40.7951378 44.6955966,70.9972928 Z" id="Shirt" fill="#DDE3E9"></path>
                                <path d="M62.2680752,0 C63.4047253,0.0389072237 65.1359894,0.109006313 67.4618675,0.210297266 L67.4618675,0.210297266 L70.9782111,10.1992469 C71.3501623,22.3781118 73.5223007,46.9218108 77.4946263,83.8303438 L77.4946263,83.8303438 L45.8710034,83.8304705 C45.9539049,86.3795492 46.0905941,88.9524392 46.2810711,91.5491408 L46.2810711,91.5491408 L22.7673954,91.5491408 C26.2846265,52.1045167 39.1291148,21.5881364 61.3008602,0 L61.3008602,0 L61.3113954,0.01 L61.3181647,0 Z" id="Coat-Front" fill="#1B1B1B"></path>
                                <path d="M54.7199171,84.0757415 L45.8791202,84.0750499 C45.4921532,72.6436504 46.1856173,61.6905493 47.9595127,51.2157466 C48.8600939,67.1044571 51.1133937,78.0579383 54.7199171,84.0757415 Z" id="Shade" fill-opacity="0.1" fill="#000000"></path>
                                <polygon id="Light" fill-opacity="0.2" fill="#FFFFFF" points="52.9098374 64.7694601 68.5033579 57.5634042 68.5033579 64.7694601"></polygon>
                            </g>
                        </g>
                    </g>
                    <path d="M77.0546623,44 L84.7527798,45.0657335 C84.7005661,48.9536551 84.6063423,51.5137601 84.4701084,52.7460484 L84.4676623,52.746 L84.5258727,53.3722018 C86.52479,74.851298 89.3601594,87.8609547 90.0668013,91.0878644 C90.0889514,91.2241367 89.4779654,92.5281818 88.2338432,95 L84.6507356,92.7457031 L83.8896623,52.728 L77.0546623,44 Z" id="Combined-Shape" fill="#173E67"></path>
                </g>
            </g>
        </g>
    </g>
</svg>