<?xml version="1.0" encoding="UTF-8"?>
<svg width="34px" height="34px" viewBox="0 0 34 34" version="1.1" xmlns="http://www.w3.org/2000/svg" xmlns:xlink="http://www.w3.org/1999/xlink">
    <title>Group 6</title>
    <g id="Business-Location" stroke="none" stroke-width="1" fill="none" fill-rule="evenodd">
        <g id="Business-Location/All-business-Location/No-data" transform="translate(-244.000000, -454.000000)" fill-rule="nonzero">
            <g id="Group-7" transform="translate(162.000000, 317.000000)">
                <g id="Group-6" transform="translate(99.000000, 154.000000) rotate(-360.000000) translate(-99.000000, -154.000000) translate(82.000000, 137.000000)">
                    <path d="M32.7857143,14.5714286 L26.7142857,14.5714286 L26.7142857,2.42857143 L27.9285714,2.42857143 C28.3625155,2.42857143 28.7633755,2.19710082 28.9802122,1.82142857 C29.197049,1.44575633 29.197049,0.982808163 28.9802122,0.607142857 C28.7633755,0.231477551 28.3625016,0 27.9285714,0 L6.07142857,0 C5.63748449,0 5.23662449,0.231470612 5.01978776,0.607142857 C4.80295102,0.982815102 4.80295102,1.44576327 5.01978776,1.82142857 C5.23662449,2.19709388 5.63749837,2.42857143 6.07142857,2.42857143 L7.28571429,2.42857143 L7.28571429,14.5714286 L1.21428571,14.5714286 C0.892284898,14.5714286 0.583287347,14.6993657 0.355612245,14.9270408 C0.127937143,15.1547159 0,15.4637135 0,15.7857143 L0,32.7857143 C0,33.1077151 0.127937143,33.4167127 0.355612245,33.6443878 C0.583287347,33.8720629 0.892284898,34 1.21428571,34 L32.7857143,34 C33.1077151,34 33.4167127,33.8720629 33.6443878,33.6443878 C33.8720629,33.4167127 34,33.1077151 34,32.7857143 L34,15.7857143 C34,15.4637135 33.8720629,15.1547159 33.6443878,14.9270408 C33.4167127,14.6993657 33.1077151,14.5714286 32.7857143,14.5714286 Z M31.5714286,31.5714286 L26.7142857,31.5714286 L26.7142857,20.6428571 C26.7142857,20.2089131 26.4828151,19.8080531 26.1071429,19.5912163 C25.7314706,19.3743796 25.2685224,19.3743796 24.8928571,19.5912163 C24.5171918,19.8080531 24.2857143,20.2089269 24.2857143,20.6428571 L24.2857143,31.5714286 L21.8571429,31.5714286 L21.8571429,25.5 C21.8571429,25.1779992 21.7292057,24.8690016 21.5015306,24.6413265 C21.2738555,24.4136514 20.964858,24.2857143 20.6428571,24.2857143 L13.3571429,24.2857143 C13.035142,24.2857143 12.7261445,24.4136514 12.4984694,24.6413265 C12.2707943,24.8690016 12.1428571,25.1779992 12.1428571,25.5 L12.1428571,31.5714286 L9.71428571,31.5714286 L9.71428571,2.42857143 L24.2857143,2.42857143 L24.2857143,15.7857143 C24.2857143,16.1077151 24.4136514,16.4167127 24.6413265,16.6443878 C24.8690016,16.8720629 25.1779992,17 25.5,17 L31.5714286,17 L31.5714286,31.5714286 Z" id="Shape" fill="#5C63AB"></path>
                    <path d="M15,14 L14,14 C13.6426261,14 13.312503,14.2382786 13.1339298,14.625 C12.9553567,15.0117214 12.9553567,15.4882857 13.1339298,15.875 C13.312503,16.2617143 13.6426375,16.5 14,16.5 L15,16.5 C15.3573739,16.5 15.687497,16.2617214 15.8660702,15.875 C16.0446433,15.4882786 16.0446433,15.0117143 15.8660702,14.625 C15.687497,14.2382857 15.3573625,14 15,14 Z" id="Path" fill="#4394AD"></path>
                    <path d="M20,14 L19,14 C18.6426261,14 18.312503,14.2382786 18.1339298,14.625 C17.9553567,15.0117214 17.9553567,15.4882857 18.1339298,15.875 C18.312503,16.2617143 18.6426375,16.5 19,16.5 L20,16.5 C20.3573739,16.5 20.687497,16.2617214 20.8660702,15.875 C21.0446433,15.4882786 21.0446433,15.0117143 20.8660702,14.625 C20.687497,14.2382857 20.3573625,14 20,14 Z" id="Path" fill="#4394AD"></path>
                    <path d="M15,19 L14,19 C13.6426261,19 13.312503,19.2382786 13.1339298,19.625 C12.9553567,20.0117214 12.9553567,20.4882857 13.1339298,20.875 C13.312503,21.2617143 13.6426375,21.5 14,21.5 L15,21.5 C15.3573739,21.5 15.687497,21.2617214 15.8660702,20.875 C16.0446433,20.4882786 16.0446433,20.0117143 15.8660702,19.625 C15.687497,19.2382857 15.3573625,19 15,19 Z" id="Path" fill="#4394AD"></path>
                    <path d="M20,19 L19,19 C18.6426261,19 18.312503,19.2382786 18.1339298,19.625 C17.9553567,20.0117214 17.9553567,20.4882857 18.1339298,20.875 C18.312503,21.2617143 18.6426375,21.5 19,21.5 L20,21.5 C20.3573739,21.5 20.687497,21.2617214 20.8660702,20.875 C21.0446433,20.4882786 21.0446433,20.0117143 20.8660702,19.625 C20.687497,19.2382857 20.3573625,19 20,19 Z" id="Path" fill="#4394AD"></path>
                    <path d="M19,9.5 L20.5000143,9.5 C21.0360654,9.5 21.5312478,9.2140715 21.7991062,8.75000357 C22.0669646,8.28593565 22.0669646,7.71405578 21.7991062,7.24999643 C21.5312478,6.78593708 21.0360483,6.5 20.5000143,6.5 L19,6.5 L19,4.99998571 C19,4.46393459 18.7140715,3.96875223 18.2500036,3.70089381 C17.7859356,3.4330354 17.2140558,3.4330354 16.7499964,3.70089381 C16.2859371,3.96875223 16,4.46395173 16,4.99998571 L16,6.5 L14.4999857,6.5 C13.9639346,6.5 13.4687522,6.7859285 13.2008938,7.24999643 C12.9330354,7.71406435 12.9330354,8.28594422 13.2008938,8.75000357 C13.4687522,9.21406292 13.9639517,9.5 14.4999857,9.5 L16,9.5 L16,11.0000143 C16,11.5360654 16.2859285,12.0312478 16.7499964,12.2991062 C17.2140644,12.5669646 17.7859442,12.5669646 18.2500036,12.2991062 C18.7140629,12.0312478 19,11.5360483 19,11.0000143 L19,9.5 Z" id="Path" fill="#4394AD"></path>
                </g>
            </g>
        </g>
    </g>
</svg>