<?xml version="1.0" encoding="UTF-8"?>
<svg width="36px" height="36px" viewBox="0 0 36 36" version="1.1" xmlns="http://www.w3.org/2000/svg" xmlns:xlink="http://www.w3.org/1999/xlink">
    <title>Group 11</title>
    <g id="Business-Location" stroke="none" stroke-width="1" fill="none" fill-rule="evenodd">
        <g id="Business-Location/All-business-Location/No-data" transform="translate(-461.000000, -453.000000)" fill-rule="nonzero">
            <g id="Group-7-Copy" transform="translate(380.000000, 317.000000)">
                <g id="Group-11" transform="translate(81.000000, 136.000000)">
                    <path d="M4.91115511,10.9797633 C4.30529331,12.234983 3.90808101,13.5799567 3.73478409,14.9626885 C3.67755199,15.4441903 3.81386263,15.9290589 4.1135639,16.31073 C4.41295797,16.6926764 4.8517379,16.9403379 5.33388932,17 L5.55451206,17 C6.00591116,17.0033285 6.44281634,16.8404757 6.78192691,16.5424151 C7.12101384,16.2446613 7.33824941,15.8326107 7.3924047,15.3848944 C7.62318107,13.3406099 8.53521914,11.4333557 9.98169705,9.96857879 C11.428175,8.50411654 13.3257763,7.56755922 15.3692621,7.30883782 C16.025892,7.23017519 16.5908478,6.80767032 16.850872,6.20048132 C17.1108804,5.59299339 17.0268787,4.89334433 16.6302493,4.3648101 C16.2336199,3.83629159 15.5849537,3.5591474 14.9283947,3.63779431 C13.557301,3.84551086 12.2292164,4.27323893 10.9950272,4.90442003 C10.8427149,3.52200291 10.1722606,2.24798289 9.11806396,1.33911483 C8.06386726,0.429853445 6.70443167,-0.0469994403 5.31269984,0.00365929569 C3.920968,0.0543597229 2.59973651,0.629271087 1.6150949,1.61286079 C0.630138203,2.59614371 0.0544773324,3.91555206 0.00366982535,5.30536347 C-0.0471006591,6.69517489 0.430452884,8.05273462 1.34097067,9.10547664 C2.25117338,10.1582187 3.52687504,10.827795 4.91120237,10.9798499 L4.91115511,10.9797633 Z" id="Path" fill="#5C63AB"></path>
                    <path d="M10.8954031,31.0888134 C12.1409599,31.6946752 13.4755797,32.0918875 14.847667,32.2651844 L15.0662892,32.2651844 C15.7169652,32.3045701 16.3390098,31.9907136 16.6981504,31.4417877 C17.0573379,30.8928461 17.0988018,30.1922381 16.8073054,29.60358 C16.5158091,29.0152527 15.9352518,28.6284697 15.284568,28.589084 C13.2557085,28.3629237 11.3609511,27.4554858 9.90409387,26.0123951 C8.44754886,24.5689893 7.51390818,22.6738299 7.2525731,20.6307379 C7.17451602,19.974108 6.75526367,19.4091522 6.15274892,19.149128 C5.54993754,18.8891196 4.8556745,18.9731213 4.33120902,19.3697507 C3.80675914,19.7663801 3.53174846,20.4150463 3.60978992,21.0716053 C3.81590743,22.442699 4.24034278,23.7707836 4.86666494,25.0049728 C3.49488991,25.1572851 2.23067753,25.8277394 1.32880608,26.881936 C0.426544357,27.9361327 -0.0466376304,29.2955683 0.00363112579,30.6873002 C0.0539412522,32.079032 0.624426847,33.4002635 1.6004447,34.3849051 C2.57615814,35.3698618 3.88540945,35.9455227 5.26452185,35.9963302 C6.64363425,36.0471007 7.99074324,35.5695471 9.03538107,34.6590293 C10.0800189,33.7488266 10.7444407,32.473125 10.8953251,31.0887976 L10.8954031,31.0888134 Z" id="Path" fill="#5C63AB"></path>
                    <path d="M31.1176383,25.0404353 C31.7199413,23.7875454 32.1148204,22.445068 32.2870994,21.0649027 C32.365408,20.4103959 32.0894954,19.7638821 31.5633554,19.3685509 C31.0372153,18.9732197 30.3407227,18.8894738 29.7362584,19.1486415 C29.1317941,19.4078092 28.7108852,19.9709462 28.6325765,20.6254608 C28.4077446,22.6662651 27.505637,24.5721778 26.0710229,26.0376122 C24.6360955,27.5027325 22.7520681,28.4418699 20.7209772,28.7047436 C20.0682042,28.7440019 19.4858151,29.1295343 19.1933324,29.7159593 C18.9008496,30.3023843 18.942502,31.0007269 19.3028392,31.5479093 C19.6631842,32.0953822 20.2874919,32.408216 20.9402727,32.3689577 L21.1595995,32.3689577 L21.1592936,32.3689577 C22.5223336,32.1616267 23.8426172,31.7346925 25.0695568,31.1046829 C25.2209744,32.4845342 25.8874905,33.7561895 26.9354949,34.6633707 C27.9834993,35.5709444 29.3349497,36.0469122 30.7185066,35.9963475 C32.1020635,35.9457412 33.4155342,35.3718969 34.3943921,34.3901328 C35.3735632,33.4086749 35.9458427,32.0917155 35.9963517,30.7044836 C36.046824,29.3172518 35.5720756,27.9622118 34.6669061,26.9114237 C33.7620499,25.8606357 32.4938416,25.1923021 31.1176457,25.0405295 L31.1176383,25.0404353 Z" id="Path" fill="#5C63AB"></path>
                    <path d="M30.3206919,0.00738507739 C28.9819969,0 27.6881434,0.50137047 26.6913839,1.41348022 C25.6945474,2.32592029 25.0658423,3.58424135 24.9273885,4.94362133 C23.6979464,4.33873066 22.3805936,3.94215505 21.026258,3.7691359 C20.3840004,3.69049084 19.7495861,3.96758886 19.3616535,4.49598934 C18.9737209,5.02438981 18.8915423,5.72387476 19.1458597,6.33093603 C19.4001771,6.9379973 19.9527749,7.36071453 20.5950403,7.4393596 C22.5976509,7.66515745 24.4678944,8.57114075 25.9059032,10.0119184 C27.3436038,11.4530106 28.2651653,13.3451322 28.5231193,15.3849493 C28.5760892,15.8325499 28.7885699,16.2445399 29.120235,16.5425261 C29.4519,16.8402134 29.8792731,17.0030322 30.3207843,17 L30.5365781,17 C31.0081917,16.9400517 31.4373368,16.6924393 31.7301932,16.3108927 C32.0233346,15.9290316 32.1566648,15.4445387 32.1006823,14.9628377 C31.9047513,13.588987 31.4918323,12.2566609 30.8781745,11.0176865 C32.8049707,10.9159985 34.5325228,9.77289242 35.4094739,8.01871421 C36.2868103,6.264536 36.1805622,4.16604969 35.1307788,2.51355955 C34.081319,0.861069411 32.247827,-0.0943108582 30.3207227,0.00737721289 L30.3206919,0.00738507739 Z" id="Path" fill="#5C63AB"></path>
                    <path d="M18,12 C17.5090743,12 17.111167,12.3979074 17.111167,12.888833 L17.111167,17.111167 L12.888833,17.111167 C12.3979074,17.111167 12,17.5090743 12,18 C12,18.4909257 12.3979074,18.888833 12.888833,18.888833 L17.111167,18.888833 L17.111167,23.111167 C17.111167,23.6020926 17.5090743,24 18,24 C18.4909257,24 18.888833,23.6020926 18.888833,23.111167 L18.888833,18.888833 L23.111167,18.888833 C23.6020926,18.888833 24,18.4909257 24,18 C24,17.5090743 23.6020926,17.111167 23.111167,17.111167 L18.888833,17.111167 L18.888833,12.888833 C18.888833,12.3979074 18.4909257,12 18,12 Z" id="Path" fill="#4394AD"></path>
                </g>
            </g>
        </g>
    </g>
</svg>