<?xml version="1.0" encoding="UTF-8"?>
<svg width="127px" height="25px" viewBox="0 0 127 25" version="1.1" xmlns="http://www.w3.org/2000/svg" xmlns:xlink="http://www.w3.org/1999/xlink">
    <title>Group 5</title>
    <g id="Business-Location" stroke="none" stroke-width="1" fill="none" fill-rule="evenodd">
        <g id="Business-Location/All-business-Location/No-data" transform="translate(-1388.000000, -594.000000)">
            <g id="Group-6" transform="translate(1367.000000, 581.000000)">
                <g id="Group-5" transform="translate(21.000000, 13.000000)">
                    <path d="M13.0018965,12.9125189 L13.0018965,18 C13.0018965,18.3787721 12.7878941,18.7250352 12.4491101,18.8944272 L8.44911006,20.8944272 C7.78420897,21.2268777 7.00189646,20.743382 7.00189646,20 L7.00189646,12.9125189 L0.227939165,4.63323779 C-0.306277044,3.98030687 0.158269919,3 1.00189646,3 L19.0018965,3 C19.845523,3 20.31007,3.98030687 19.7758538,4.63323779 L13.0018965,12.9125189 Z M11.0018965,17.381966 L11.0018965,12.5555556 C11.0018965,12.3247132 11.0817611,12.1009799 11.2279392,11.9223178 L16.8916537,5 L3.11213923,5 L8.77585376,11.9223178 C8.92203187,12.1009799 9.00189646,12.3247132 9.00189646,12.5555556 L9.00189646,18.381966 L11.0018965,17.381966 Z" id="Shape" fill="#5C63AB"></path>
                    <line x1="36.5018965" y1="0.5" x2="36.5018965" y2="24.5" id="Line-3" stroke-opacity="0.1" stroke="#5563AB" stroke-linecap="square"></line>
                    <text id="A-to-Z" font-family="Poppins-Medium, Poppins" font-size="14" font-weight="400" line-spacing="18" fill="#173E67">
                        <tspan x="58.0018965" y="19">A to Z</tspan>
                    </text>
                    <g id="Icon/-Down" transform="translate(110.168563, 4.000000)">
                        <rect id="Rectangle" x="0.333333333" y="0" width="16" height="16"></rect>
                        <path d="M7.60947571,8 L10.4714045,10.8619288 C10.731754,11.1222783 10.731754,11.5443883 10.4714045,11.8047379 C10.211055,12.0650874 9.78894501,12.0650874 9.52859548,11.8047379 L6.19526215,8.47140452 C5.93491262,8.21105499 5.93491262,7.78894501 6.19526215,7.52859548 L9.52859548,4.19526215 C9.78894501,3.93491262 10.211055,3.93491262 10.4714045,4.19526215 C10.731754,4.45561167 10.731754,4.87772166 10.4714045,5.13807119 L7.60947571,8 Z" id="Shape" fill="#5C63AB" transform="translate(8.333333, 8.000000) rotate(-90.000000) translate(-8.333333, -8.000000) "></path>
                    </g>
                </g>
            </g>
        </g>
    </g>
</svg>