<?xml version="1.0" encoding="UTF-8"?>
<svg width="18px" height="14px" viewBox="0 0 18 14" version="1.1" xmlns="http://www.w3.org/2000/svg" xmlns:xlink="http://www.w3.org/1999/xlink">
    <title>Group 52@3x</title>
    <g id="Symbols" stroke="none" stroke-width="1" fill="none" fill-rule="evenodd">
        <g id="Referral/(Multiple)" transform="translate(-12.000000, -12.000000)" fill="#1F3D5A">
            <g id="Group-51" transform="translate(12.000000, 12.000000)">
                <g id="Group-50-Copy-2" fill-rule="nonzero">
                    <g id="Group-50-Copy">
                        <path d="M5.47900076,7.6361066 C7.17554573,7.6361066 8.44439361,5.32559711 8.44439361,3.26094753 C8.44439361,1.31095028 7.25111478,0 5.47900076,0 C3.70404525,0 2.51360791,1.31095028 2.51360791,3.26094753 C2.51360791,5.32566972 3.78259966,7.6361066 5.47900076,7.6361066 Z" id="Path"></path>
                        <path d="M0.270455194,13.6551724 L10.6875463,13.6551724 C10.8363357,13.6551724 10.958149,13.532217 10.958149,13.3820327 L10.958149,10.7301802 C10.958149,9.04510314 9.82443338,7.59216259 8.20111954,7.19621632 C8.1037538,7.17168188 7.99823768,7.20444166 7.93332598,7.28357428 C7.44074238,7.86260849 6.61541757,8.55625871 5.47907629,8.55625871 C4.34273502,8.55625871 3.5174102,7.86264479 3.02497047,7.28357428 C2.95738994,7.20443949 2.85187382,7.17153957 2.75436781,7.19621632 C1.13087412,7.59216259 0,9.04510314 0,10.7301802 L0,13.3820327 C0,13.532217 0.119144446,13.6551724 0.270602663,13.6551724 L0.270455194,13.6551724 Z M7.42991238,11.1370689 L7.95483133,11.1370689 L7.95483133,10.609915 C7.95483133,10.4570368 8.07664461,10.3367753 8.22543399,10.3367753 C8.37422338,10.3367753 8.49603666,10.4568952 8.49603666,10.609915 L8.49603666,11.1370689 L9.02095561,11.1370689 C9.169745,11.1370689 9.29155828,11.2600242 9.29155828,11.4102086 C9.29155828,11.5630869 9.169745,11.6833484 9.02095561,11.6833484 L8.49603666,11.6833484 L8.49603666,12.2131888 C8.49603666,12.3633732 8.37422338,12.4863286 8.22543399,12.4863286 C8.07664461,12.4863286 7.95483133,12.3633732 7.95483133,12.2131888 L7.95483133,11.6833484 L7.42991238,11.6833484 C7.28112299,11.6833484 7.15930971,11.5632285 7.15930971,11.4102086 C7.15930971,11.2600242 7.28112299,11.1370689 7.42991238,11.1370689 Z" id="Shape"></path>
                    </g>
                </g>
                <g id="Group-50" transform="translate(9.900894, 0.689802)">
                    <path d="M3.37420482,6.17191139 C4.74544356,6.17191139 5.77099456,4.30443355 5.77099456,2.6356729 C5.77099456,1.05958041 4.80652253,0 3.37420482,0 C1.93959047,0 0.977415085,1.05958041 0.977415085,2.6356729 C0.977415085,4.30449224 2.00308236,6.17191139 3.37420482,6.17191139 Z" id="Path"></path>
                    <path d="M5.65540093,5.95426825 L5.71910074,5.96103662 C7.12042601,6.3033506 8.09910573,7.55948534 8.09910573,9.01631287 L8.09910573,9.01631287 L8.09910573,11.3089628 C8.09910573,11.4388042 7.99395044,11.5451048 7.86550804,11.5451048 L7.86550804,11.5451048 L1.876,11.5450792 L1.87661845,9.45754656 C1.79478619,8.13434848 1.16905847,7.11997075 -0.000564701996,6.41441336 C0.302467089,6.20745537 0.644819612,6.05198961 1.01719366,5.96103662 C1.10136571,5.93970241 1.19245247,5.96814592 1.25079135,6.03656164 C1.67588982,6.53719505 2.38835126,7.13685658 3.36929759,7.13685658 C4.35024391,7.13685658 5.06270535,6.53716366 5.48792802,6.03656164 C5.54396302,5.96814781 5.63504979,5.93982545 5.71910074,5.96103662 Z M5.74009019,8.67619603 C5.61164779,8.67619603 5.50649251,8.7801677 5.50649251,8.91233806 L5.50649251,8.91233806 L5.50649251,9.3680871 L5.05335635,9.3680871 C4.92491395,9.3680871 4.81975867,9.47438773 4.81975867,9.60422913 C4.81975867,9.7365219 4.92491395,9.84037116 5.05335635,9.84037116 L5.05335635,9.84037116 L5.50649251,9.84037116 L5.50649251,10.2984429 C5.50649251,10.4282843 5.61164779,10.5345849 5.74009019,10.5345849 C5.86853259,10.5345849 5.97368787,10.4282843 5.97368787,10.2984429 L5.97368787,10.2984429 L5.97368787,9.84037116 L6.42682403,9.84037116 C6.55526643,9.84037116 6.66042171,9.73639949 6.66042171,9.60422913 C6.66042171,9.47438773 6.55526643,9.3680871 6.42682403,9.3680871 L6.42682403,9.3680871 L5.97368787,9.3680871 L5.97368787,8.91233806 C5.97368787,8.78004529 5.86853259,8.67619603 5.74009019,8.67619603 Z" id="Combined-Shape" fill-rule="nonzero"></path>
                </g>
            </g>
        </g>
    </g>
</svg>