<?xml version="1.0" encoding="UTF-8"?>
<svg width="18px" height="18px" viewBox="0 0 18 18" version="1.1" xmlns="http://www.w3.org/2000/svg" xmlns:xlink="http://www.w3.org/1999/xlink">
    <title>ic_DayShift@2x</title>
    <g id="Scheduling-Rulesets-&amp;-Layouts" stroke="none" stroke-width="1" fill="none" fill-rule="evenodd">
        <g id="Scheduling-Layout-" transform="translate(-428.000000, -795.000000)" fill="#FFBC65">
            <g id="Group-7" transform="translate(127.000000, 276.000000)">
                <g id="Tags/Rectangle/Large/Trailing-Icon-Copy-11" transform="translate(293.000000, 512.000000)">
                    <g id="ic_DayShift" transform="translate(8.000000, 7.000000)">
                        <rect id="Icon-Spacing" opacity="0" x="0" y="0" width="18" height="18" rx="3.75"></rect>
                        <path d="M9,14.25 C9.41421356,14.25 9.75,14.5857864 9.75,15 L9.75,17.25 C9.75,17.6642136 9.41421356,18 9,18 C8.58578644,18 8.25,17.6642136 8.25,17.25 L8.25,15 C8.25,14.5857864 8.58578644,14.25 9,14.25 Z M5.07582521,12.5491748 C5.36871843,12.842068 5.36871843,13.3169417 5.07582521,13.609835 L3.48483496,15.2008252 C3.19194174,15.4937184 2.717068,15.4937184 2.42417479,15.2008252 C2.13128157,14.907932 2.13128157,14.4330583 2.42417479,14.140165 L4.01516504,12.5491748 C4.30805826,12.2562816 4.782932,12.2562816 5.07582521,12.5491748 Z M13.9007165,12.4765566 L13.984835,12.5491748 L15.5758252,14.140165 C15.8687184,14.4330583 15.8687184,14.907932 15.5758252,15.2008252 C15.3095587,15.4670918 14.892895,15.4912978 14.5992835,15.2734434 L14.515165,15.2008252 L12.9241748,13.609835 C12.6312816,13.3169417 12.6312816,12.842068 12.9241748,12.5491748 C13.1904413,12.2829082 13.607105,12.2587022 13.9007165,12.4765566 Z M9,4.125 C11.6923882,4.125 13.875,6.30761184 13.875,9 C13.875,11.6923882 11.6923882,13.875 9,13.875 C6.30761184,13.875 4.125,11.6923882 4.125,9 C4.125,6.30761184 6.30761184,4.125 9,4.125 Z M9,5.625 C7.13603897,5.625 5.625,7.13603897 5.625,9 C5.625,10.863961 7.13603897,12.375 9,12.375 C10.863961,12.375 12.375,10.863961 12.375,9 C12.375,7.13603897 10.863961,5.625 9,5.625 Z M3,8.25 C3.41421356,8.25 3.75,8.58578644 3.75,9 C3.75,9.41421356 3.41421356,9.75 3,9.75 L0.75,9.75 C0.335786438,9.75 0,9.41421356 0,9 C0,8.58578644 0.335786438,8.25 0.75,8.25 L3,8.25 Z M17.25,8.25 C17.6642136,8.25 18,8.58578644 18,9 C18,9.41421356 17.6642136,9.75 17.25,9.75 L15,9.75 C14.5857864,9.75 14.25,9.41421356 14.25,9 C14.25,8.58578644 14.5857864,8.25 15,8.25 L17.25,8.25 Z M15.5758252,2.79917479 C15.8687184,3.092068 15.8687184,3.56694174 15.5758252,3.85983496 L13.984835,5.45082521 C13.6919417,5.74371843 13.217068,5.74371843 12.9241748,5.45082521 C12.6312816,5.157932 12.6312816,4.68305826 12.9241748,4.39016504 L14.515165,2.79917479 C14.8080583,2.50628157 15.282932,2.50628157 15.5758252,2.79917479 Z M3.40071652,2.72655663 L3.48483496,2.79917479 L5.07582521,4.39016504 C5.36871843,4.68305826 5.36871843,5.157932 5.07582521,5.45082521 C4.80955865,5.71709178 4.39289497,5.74129783 4.09928348,5.52344337 L4.01516504,5.45082521 L2.42417479,3.85983496 C2.13128157,3.56694174 2.13128157,3.092068 2.42417479,2.79917479 C2.69044135,2.53290822 3.10710503,2.50870217 3.40071652,2.72655663 Z M9,0 C9.41421356,-7.6089797e-17 9.75,0.335786438 9.75,0.75 L9.75,3 C9.75,3.41421356 9.41421356,3.75 9,3.75 C8.58578644,3.75 8.25,3.41421356 8.25,3 L8.25,0.75 C8.25,0.335786438 8.58578644,7.6089797e-17 9,0 Z" id="Combined-Shape"></path>
                    </g>
                </g>
            </g>
        </g>
    </g>
</svg>