<?xml version="1.0" encoding="UTF-8"?>
<svg width="20px" height="20px" viewBox="0 0 20 20" version="1.1" xmlns="http://www.w3.org/2000/svg" xmlns:xlink="http://www.w3.org/1999/xlink">
    <title>Material Icons/ic_folder Copy 4@3x</title>
    <defs>
        <path d="M10,0 C4.47,0 0,4.47 0,10 C0,15.53 4.47,20 10,20 C15.53,20 20,15.53 20,10 C20,4.47 15.53,0 10,0 L10,0 Z M15,13.59 L13.59,15 L10,11.41 L6.41,15 L5,13.59 L8.59,10 L5,6.41 L6.41,5 L10,8.59 L13.59,5 L15,6.41 L11.41,10 L15,13.59 L15,13.59 Z" id="path-1"></path>
        <rect id="path-3" x="0" y="0" width="50" height="50"></rect>
    </defs>
    <g id="Chat" stroke="none" stroke-width="1" fill="none" fill-rule="evenodd">
        <g id="Upload-Documents" transform="translate(-1028.000000, -505.000000)">
            <g id="Group-38" transform="translate(495.000000, 325.000000)">
                <g id="Group-12" transform="translate(35.000000, 159.000000)">
                    <g id="Group-13-Copy" transform="translate(496.000000, 19.000000)">
                        <g id="Material-Icons/ic_folder-Copy-4" transform="translate(2.000000, 2.000000)">
                            <mask id="mask-2" fill="white">
                                <use xlink:href="#path-1"></use>
                            </mask>
                            <g id="Mask"></g>
                            <g id="🎨-Color" mask="url(#mask-2)">
                                <g transform="translate(-15.000000, -15.000000)">
                                    <mask id="mask-4" fill="white">
                                        <use xlink:href="#path-3"></use>
                                    </mask>
                                    <use id="Color" stroke="none" fill="#5563AB" fill-rule="evenodd" xlink:href="#path-3"></use>
                                </g>
                            </g>
                        </g>
                    </g>
                </g>
            </g>
        </g>
    </g>
</svg>