<?xml version="1.0" encoding="UTF-8"?>
<svg width="18px" height="18px" viewBox="0 0 18 18" version="1.1" xmlns="http://www.w3.org/2000/svg" xmlns:xlink="http://www.w3.org/1999/xlink">
    <title>ic_NightShift</title>
    <g id="Scheduling-Rulesets-&amp;-Layouts" stroke="none" stroke-width="1" fill="none" fill-rule="evenodd">
        <g id="Scheduling-Layout-" transform="translate(-315.000000, -795.000000)">
            <g id="Group-7" transform="translate(127.000000, 276.000000)">
                <g id="Tags/Rectangle/Large/Trailing-Icon-Copy-10" transform="translate(182.000000, 512.000000)">
                    <g id="ic_NightShift" transform="translate(6.000000, 7.000000)">
                        <rect id="Icon-Spacing" fill="#5C63AB" opacity="0" x="0" y="0" width="18" height="18" rx="3.75"></rect>
                        <path d="M6.611477,1.70582003 C3.57606999,2.75760549 1.5,5.62733179 1.5,8.89425 C1.5,13.0946438 4.90132896,16.5 9.09765,16.5 C12.3901128,16.5 15.275734,14.3841039 16.3030775,11.3068254 C16.5901551,10.4465907 15.6643285,9.74605362 14.9057837,10.1494343 C14.1550216,10.548703 13.318287,10.76025 12.449475,10.76025 C9.54986767,10.76025 7.1987475,8.4063653 7.1987475,5.50248 C7.1987475,4.65070047 7.40131427,3.8298345 7.78435548,3.09014416 C8.1658625,2.35342416 7.51623176,1.47198432 6.69956761,1.67937955 L6.611477,1.70582003 Z M5.95275,3.6615 L5.89078138,3.89821051 C5.76396938,4.41812332 5.6987475,4.95577563 5.6987475,5.50248 C5.6987475,9.23439808 8.72104569,12.26025 12.449475,12.26025 L12.7276746,12.2545883 C13.2823279,12.2319781 13.8259889,12.1418647 14.35425,11.9865 L14.2800249,12.1124552 C13.1913472,13.8697505 11.2529113,15 9.09765,15 C5.73015368,15 3,12.2666138 3,8.89425 C3,6.75433691 4.10925964,4.82682629 5.84038104,3.73107038 L5.95275,3.6615 Z" id="Path" fill="#173E67"></path>
                    </g>
                </g>
            </g>
        </g>
    </g>
</svg>