<?xml version="1.0" encoding="UTF-8"?>
<svg width="18px" height="18px" viewBox="0 0 18 18" version="1.1" xmlns="http://www.w3.org/2000/svg" xmlns:xlink="http://www.w3.org/1999/xlink">
    <title>ic_SwingShift@2x</title>
    <g id="Scheduling-Rulesets-&amp;-Layouts" stroke="none" stroke-width="1" fill="none" fill-rule="evenodd">
        <g id="Scheduling-Layout-" transform="translate(-537.000000, -795.000000)">
            <g id="Group-7" transform="translate(127.000000, 276.000000)">
                <g id="Tags/Rectangle/Large/Trailing-Icon-Copy-12" transform="translate(401.000000, 512.000000)">
                    <g id="ic_SwingShift" transform="translate(9.000000, 7.000000)">
                        <rect id="Icon-Spacing" fill="#5C63AB" opacity="0" x="0" y="0" width="18" height="18" rx="3.75"></rect>
                        <path d="M12,15 C12.4142136,15 12.75,15.3357864 12.75,15.75 C12.75,16.1642136 12.4142136,16.5 12,16.5 L6,16.5 C5.58578644,16.5 5.25,16.1642136 5.25,15.75 C5.25,15.3357864 5.58578644,15 6,15 L12,15 Z M14.25,12.75 C14.6642136,12.75 15,13.0857864 15,13.5 C15,13.9142136 14.6642136,14.25 14.25,14.25 L3.75,14.25 C3.33578644,14.25 3,13.9142136 3,13.5 C3,13.0857864 3.33578644,12.75 3.75,12.75 L14.25,12.75 Z M12,10.5 C12,8.84314575 10.6568542,7.5 9,7.5 C7.39335346,7.5 6.08169084,8.76297635 6.00367148,10.3502697 L6,10.5 L12,10.5 Z M3,8.25 C3.41421356,8.25 3.75,8.58578644 3.75,9 C3.75,9.41421356 3.41421356,9.75 3,9.75 L0.75,9.75 C0.335786438,9.75 0,9.41421356 0,9 C0,8.58578644 0.335786438,8.25 0.75,8.25 L3,8.25 Z M17.25,8.25 C17.6642136,8.25 18,8.58578644 18,9 C18,9.41421356 17.6642136,9.75 17.25,9.75 L15,9.75 C14.5857864,9.75 14.25,9.41421356 14.25,9 C14.25,8.58578644 14.5857864,8.25 15,8.25 L17.25,8.25 Z M14.8258252,3.92417479 C15.1187184,4.217068 15.1187184,4.69194174 14.8258252,4.98483496 L13.234835,6.57582521 C12.9419417,6.86871843 12.467068,6.86871843 12.1741748,6.57582521 C11.8812816,6.282932 11.8812816,5.80805826 12.1741748,5.51516504 L13.765165,3.92417479 C14.0580583,3.63128157 14.532932,3.63128157 14.8258252,3.92417479 Z M3.17417479,3.92417479 C3.467068,3.63128157 3.94194174,3.63128157 4.23483496,3.92417479 L4.23483496,3.92417479 L5.82582521,5.51516504 C6.11871843,5.80805826 6.11871843,6.282932 5.82582521,6.57582521 C5.532932,6.86871843 5.05805826,6.86871843 4.76516504,6.57582521 L4.76516504,6.57582521 L3.17417479,4.98483496 C2.88128157,4.69194174 2.88128157,4.217068 3.17417479,3.92417479 Z M9,1.5 C9.41421356,1.5 9.75,1.83578644 9.75,2.25 L9.75,4.5 C9.75,4.91421356 9.41421356,5.25 9,5.25 C8.58578644,5.25 8.25,4.91421356 8.25,4.5 L8.25,2.25 C8.25,1.83578644 8.58578644,1.5 9,1.5 Z M9,6 C11.4287977,6 13.4081788,7.92418117 13.4968961,10.3312963 L13.5,10.5 L16.125,10.5 C16.5392136,10.5 16.875,10.8357864 16.875,11.25 C16.875,11.6642136 16.5392136,12 16.125,12 L1.875,12 C1.46078644,12 1.125,11.6642136 1.125,11.25 C1.125,10.8357864 1.46078644,10.5 1.875,10.5 L4.5,10.5 C4.5,8.01471863 6.51471863,6 9,6 Z" id="Combined-Shape" fill="#7954DA"></path>
                    </g>
                </g>
            </g>
        </g>
    </g>
</svg>