<?xml version="1.0" encoding="UTF-8"?>
<svg width="24px" height="24px" viewBox="0 0 24 24" version="1.1" xmlns="http://www.w3.org/2000/svg" xmlns:xlink="http://www.w3.org/1999/xlink">
    <title>Location</title>
    <g id="Accounts-(Float-Care)" stroke="none" stroke-width="1" fill="none" fill-rule="evenodd">
        <g id="Reporting-manager/View-profile" transform="translate(-169.000000, -542.000000)">
            <g id="Group-26" transform="translate(158.000000, 529.000000)">
                <g id="Location" transform="translate(11.000000, 13.000000)">
                    <rect id="Rectangle" x="0" y="0" width="24" height="24"></rect>
                    <path d="M12,2 C7.8,2 4,5.27277347 4,10.3343921 C4,13.56651 6.45,17.3678059 11.34,21.7484437 C11.72,22.0838521 12.29,22.0838521 12.67,21.7484437 C17.55,17.3678059 20,13.56651 20,10.3343921 C20,5.27277347 16.2,2 12,2 Z M12,12 C10.9,12 10,11.1 10,10 C10,8.9 10.9,8 12,8 C13.1,8 14,8.9 14,10 C14,11.1 13.1,12 12,12 Z" id="Shape" fill="#5C63AB" fill-rule="nonzero"></path>
                </g>
            </g>
        </g>
    </g>
</svg>