<?xml version="1.0" encoding="UTF-8"?>
<svg width="20px" height="25px" viewBox="0 0 20 25" version="1.1" xmlns="http://www.w3.org/2000/svg" xmlns:xlink="http://www.w3.org/1999/xlink">
    <title>Medical Events@3x</title>
    <g id="Patients" stroke="none" stroke-width="1" fill="none" fill-rule="evenodd">
        <g id="Super-Admin-Panel/Patients/View-patient/Associated-Cases" transform="translate(-149.000000, -609.000000)" fill="#5C63AB" fill-rule="nonzero">
            <g id="Group-8" transform="translate(137.000000, 591.500000)">
                <g id="Group" transform="translate(10.000000, 18.000000)">
                    <g id="personal_injury_FILL0_wght400_GRAD0_opsz48" transform="translate(2.000000, 0.000000)">
                        <path d="M9.6,9 C8.28,9 7.2,8.58 6.36,7.74 C5.52,6.9 5.1,5.82 5.1,4.5 C5.1,3.18 5.52,2.1 6.36,1.26 C7.2,0.42 8.28,0 9.6,0 C10.92,0 12,0.42 12.84,1.26 C13.68,2.1 14.1,3.18 14.1,4.5 C14.1,5.82 13.68,6.9 12.84,7.74 C12,8.58 10.92,9 9.6,9 Z M9.6,7.2 C10.38,7.2 11.025,6.945 11.535,6.435 C12.045,5.925 12.3,5.28 12.3,4.5 C12.3,3.72 12.045,3.075 11.535,2.565 C11.025,2.055 10.38,1.8 9.6,1.8 C8.82,1.8 8.175,2.055 7.665,2.565 C7.155,3.075 6.9,3.72 6.9,4.5 C6.9,5.28 7.155,5.925 7.665,6.435 C8.175,6.945 8.82,7.2 9.6,7.2 Z M0,24 L0,16.08 C0,15.32 0.19,14.67 0.57,14.13 C0.95,13.59 1.44,13.18 2.04,12.9 C3.06,12.44 4.205,12.025 5.475,11.655 C6.745,11.285 8.12,11.1 9.6,11.1 C11.08,11.1 12.45,11.285 13.71,11.655 C14.97,12.025 16.11,12.44 17.13,12.9 C17.75,13.18 18.25,13.59 18.63,14.13 C19.01,14.67 19.2,15.32 19.2,16.08 L19.2,22.2 C19.2,22.68 19.02,23.1 18.66,23.46 C18.3,23.82 17.88,24 17.4,24 L6.9,24 C6.06,24 5.35,23.71 4.77,23.13 C4.19,22.55 3.9,21.84 3.9,21 C3.9,20.16 4.19,19.45 4.77,18.87 C5.35,18.29 6.06,18 6.9,18 L10.44,18 L12.6,13.2 C12.08,13.1 11.565,13.025 11.055,12.975 C10.545,12.925 10.06,12.9 9.6,12.9 C8.16,12.9 6.875,13.065 5.745,13.395 C4.615,13.725 3.62,14.1 2.76,14.52 C2.48,14.66 2.25,14.87 2.07,15.15 C1.89,15.43 1.8,15.74 1.8,16.08 L1.8,24 L0,24 Z M6.9,22.2 L8.52,22.2 L9.63,19.8 L6.9,19.8 C6.58,19.8 6.3,19.92 6.06,20.16 C5.82,20.4 5.7,20.68 5.7,21 C5.7,21.32 5.82,21.6 6.06,21.84 C6.3,22.08 6.58,22.2 6.9,22.2 Z M10.5,22.2 L17.4,22.2 C17.4,22.2 17.4,22.2 17.4,22.2 C17.4,22.2 17.4,22.2 17.4,22.2 L17.4,16.08 C17.4,15.74 17.305,15.43 17.115,15.15 C16.925,14.87 16.69,14.66 16.41,14.52 C16.17,14.4 15.88,14.27 15.54,14.13 C15.2,13.99 14.81,13.84 14.37,13.68 L10.5,22.2 Z" id="Shape"></path>
                    </g>
                </g>
            </g>
        </g>
    </g>
</svg>