<?xml version="1.0" encoding="UTF-8"?>
<svg width="45px" height="45px" viewBox="0 0 45 45" version="1.1" xmlns="http://www.w3.org/2000/svg" xmlns:xlink="http://www.w3.org/1999/xlink">
    <title>Medication@3x</title>
    <g id="Float-Legal-Care-Treatment-Plan" stroke="none" stroke-width="1" fill="none" fill-rule="evenodd">
        <g id="Client-cases/Referraks-/Create-Treatment-plan/One-time--Copy-57" transform="translate(-517.000000, -1207.000000)">
            <g id="Group-51" transform="translate(503.000000, 1186.000000)">
                <g id="Group-27" transform="translate(14.000000, 21.000000)">
                    <rect id="btn-container" fill-opacity="0.1" fill="#5563AB" x="0" y="0" width="45" height="45" rx="9"></rect>
                    <g id="noun-prescription-4701097" transform="translate(14.671350, 13.000000)"></g>
                    <path d="M21.7717518,33.1527442 C22.0303744,33.2308617 22.3070249,33.2236966 22.5612691,33.1324057 C22.8155015,33.0411119 23.0334471,32.8705468 23.183227,32.6456669 L25.2739332,29.5080101 L27.3646394,32.6456669 C27.5982996,32.9955833 27.9912123,33.2056657 28.4118267,33.2056657 C28.7164393,33.2052034 29.0106505,33.0940363 29.2396839,32.8931957 C29.4687232,32.6923552 29.6171008,32.4152431 29.6573163,32.1131451 C29.6977619,31.8110707 29.6270396,31.5048546 29.4587832,31.250853 L26.7849915,27.241615 L29.4587832,23.232377 L29.4587832,23.2326081 C29.6286561,22.9790679 29.7005315,22.6721419 29.6605527,22.3693693 C29.6208005,22.0668335 29.4719596,21.7890292 29.2419973,21.5879578 C29.0122657,21.3871173 28.7171257,21.2768724 28.4118326,21.2777954 C27.9729358,21.2895825 27.5684738,21.5176977 27.3315713,21.8872692 L25.2739391,24.9754628 L21.6691631,19.5679437 C22.4077972,19.2233464 23.022596,18.6598568 23.4303121,17.9538234 C23.8382353,17.2479675 24.0192018,16.4339552 23.9487109,15.6218363 C23.8421639,14.6173672 23.3639806,13.6889862 22.6082355,13.0189852 C21.8524904,12.3489841 20.8734747,11.9856429 19.863444,12.0004345 L17.3220668,12.0004345 C16.6189917,12.0004345 15.944849,12.2796292 15.4476732,12.7767577 C14.9507695,13.2738921 14.67135,13.9480762 14.67135,14.6511513 L14.67135,23.9976778 C14.67135,24.3307199 14.8037823,24.6501064 15.0392944,24.8856481 C15.2748065,25.1211898 15.5942108,25.2535925 15.9272647,25.2535925 L16.0631642,25.2535925 L16.0629331,25.2535925 C16.3964367,25.2535925 16.7160717,25.121391 16.9520275,24.8858848 C17.1882319,24.6506034 17.3211257,24.3311992 17.3220487,23.9976778 L17.3220487,19.9521707 L18.9024442,19.9521707 L23.7630876,27.2414793 L21.1123708,31.2174065 L21.1123708,31.2176376 C20.8611441,31.5430532 20.7897301,31.9729567 20.9223932,32.3621537 C21.0550562,32.7513567 21.373999,33.0481297 21.7717278,33.1525586 L21.7717518,33.1527442 Z M19.9727363,17.3014565 L17.3220195,17.3014565 L17.3220195,14.6509764 L19.9727363,14.6509764 C20.4462987,14.6509764 20.8837815,14.9035876 21.1204474,15.3135816 C21.3571132,15.7235875 21.3571132,16.2288277 21.1204474,16.6387921 C20.8837815,17.048798 20.4462455,17.3013974 19.9727363,17.3013974 L19.9727363,17.3014565 Z" id="Shape" fill="#485CBA"></path>
                </g>
            </g>
        </g>
    </g>
</svg>