<?xml version="1.0" encoding="UTF-8"?>
<svg width="30px" height="30px" viewBox="0 0 30 30" version="1.1" xmlns="http://www.w3.org/2000/svg" xmlns:xlink="http://www.w3.org/1999/xlink">
    <title>More@3x</title>
    <g id="Cases" stroke="none" stroke-width="1" fill="none" fill-rule="evenodd">
        <g id="Client-Cases/Case-Info/William-Carnes/Evaluations" transform="translate(-180.000000, -642.000000)" fill="#1F3D5A">
            <g id="Group-2" transform="translate(145.000000, 583.000000)">
                <g id="More" transform="translate(35.000000, 59.000000)">
                    <rect id="Rectangle" stroke-opacity="0.85" stroke="#1F3D5A" fill-opacity="0.15" x="0.5" y="0.5" width="29" height="29" rx="8"></rect>
                    <g id="Group-26" transform="translate(15.500000, 15.000000) rotate(90.000000) translate(-15.500000, -15.000000) translate(14.000000, 8.000000)" fill-rule="nonzero">
                        <path d="M3,6.5 C3,7.32848362 2.32837083,8 1.5,8 C0.671516382,8 0,7.32848362 0,6.5 C0,5.67151638 0.671516382,5 1.5,5 C2.32837083,5 3,5.67151638 3,6.5" id="Path"></path>
                        <path d="M3,12.4999436 C3,13.3283961 2.32837083,14 1.5,14 C0.671516382,14 0,13.3283961 0,12.4999436 C0,11.6716039 0.671516382,11 1.5,11 C2.32837083,11 3,11.6716039 3,12.4999436" id="Path"></path>
                        <path d="M3,1.50005639 C3,2.32839608 2.32837083,3 1.5,3 C0.671516382,3 0,2.32839608 0,1.50005639 C0,0.671603917 0.671516382,0 1.5,0 C2.32837083,0 3,0.671603917 3,1.50005639" id="Path"></path>
                    </g>
                </g>
            </g>
        </g>
    </g>
</svg>