 <svg width="40px" height="40px" viewBox="0 0 40 40" version="1.1" xmlns="http://www.w3.org/2000/svg" xmlns:xlink="http://www.w3.org/1999/xlink">
                              <title>Group 15</title>
                              <g id="Float-Legal" stroke="none" stroke-width="1" fill="none" fill-rule="evenodd">
                                  <g id="Client-cases/Referraks-/Search-Facility/Provider/Serching" transform="translate(-162.000000, -327.000000)">
                                      <g id="Group-6" transform="translate(132.000000, 198.000000)">
                                          <g id="Group-71" transform="translate(30.000000, 26.000000)">
                                              <g id="Group-15" transform="translate(0.000000, 103.000000)">
                                                  <rect id="Rectangle" fill="#EFF3F6" x="0" y="0" width="40" height="40" rx="5"></rect>
                                                  <path d="M29.4219,13.58984 L20.6644,21.4095 C20.2855,21.7462 19.7145,21.7462 19.3356,21.4095 L10.58203,13.58203 M17.36133,19.6387 L10.66602,26.498 M29.416,26.416 L22.6367,19.6367 M12,27 L28,27 C29.1046,27 30,26.1046 30,25 L30,15 C30,13.89543 29.1046,13 28,13 L12,13 C10.89543,13 10,13.89543 10,15 L10,25 C10,26.1046 10.89543,27 12,27 Z" id="Shape" stroke="#173E67" stroke-width="2"></path>
                                              </g>
                                          </g>
                                      </g>
                                  </g>
                              </g>
                            </svg>