<?xml version="1.0" encoding="UTF-8"?>
<svg width="31px" height="31px" viewBox="0 0 31 31" version="1.1" xmlns="http://www.w3.org/2000/svg" xmlns:xlink="http://www.w3.org/1999/xlink">
    <title>New case@3x</title>
    <g id="Dashboard" stroke="none" stroke-width="1" fill="none" fill-rule="evenodd">
        <g transform="translate(-242.000000, -557.000000)" fill="#3D6083" fill-rule="nonzero" id="Group-10">
            <g transform="translate(137.000000, 145.000000)">
                <g id="Group-29" transform="translate(0.000000, 282.000000)">
                    <g id="New-case" transform="translate(105.916667, 130.916667)">
                        <g id="work_FILL1_wght400_GRAD0_opsz48" transform="translate(0.000000, 0.000000)">
                            <path d="M2.1875,29.1666667 C1.60416667,29.1666667 1.09375,28.9364035 0.65625,28.4758772 C0.21875,28.0153509 0,27.4780702 0,26.8640351 L0,7.94407895 C0,7.33004386 0.21875,6.79276316 0.65625,6.33223684 C1.09375,5.87171053 1.60416667,5.64144737 2.1875,5.64144737 L9.11458333,5.64144737 L9.11458333,2.30263158 C9.11458333,1.68859649 9.33333333,1.15131579 9.77083333,0.690789474 C10.2083333,0.230263158 10.71875,0 11.3020833,0 L17.8645833,0 C18.4479167,0 18.9583333,0.230263158 19.3958333,0.690789474 C19.8333333,1.15131579 20.0520833,1.68859649 20.0520833,2.30263158 L20.0520833,5.64144737 L26.9791667,5.64144737 C27.5625,5.64144737 28.0729167,5.87171053 28.5104167,6.33223684 C28.9479167,6.79276316 29.1666667,7.33004386 29.1666667,7.94407895 L29.1666667,26.8640351 C29.1666667,27.4780702 28.9479167,28.0153509 28.5104167,28.4758772 C28.0729167,28.9364035 27.5625,29.1666667 26.9791667,29.1666667 L2.1875,29.1666667 Z M11.3020833,5.64144737 L17.8645833,5.64144737 L17.8645833,2.30263158 C17.8645833,2.30263158 17.8645833,2.30263158 17.8645833,2.30263158 C17.8645833,2.30263158 17.8645833,2.30263158 17.8645833,2.30263158 L11.3020833,2.30263158 C11.3020833,2.30263158 11.3020833,2.30263158 11.3020833,2.30263158 C11.3020833,2.30263158 11.3020833,2.30263158 11.3020833,2.30263158 L11.3020833,5.64144737 Z" id="Shape"></path>
                        </g>
                    </g>
                </g>
            </g>
        </g>
    </g>
</svg>