<?xml version="1.0" encoding="UTF-8"?>
<svg width="14px" height="14px" viewBox="0 0 14 14" version="1.1" xmlns="http://www.w3.org/2000/svg" xmlns:xlink="http://www.w3.org/1999/xlink">
    <title>Shift Icon/Night@3x</title>
    <g id="Symbols" stroke="none" stroke-width="1" fill="none" fill-rule="evenodd">
        <g id="Shift/Night-Shift" transform="translate(-1.000000, -2.000000)">
            <g id="ic_NightShift" transform="translate(0.000000, 1.000000)">
                <rect id="Icon-Spacing" fill="#5C63AB" opacity="0" x="0" y="0" width="15.9192002" height="15.9192002" rx="3.31650003"></rect>
                <path d="M5.84719032,1.50862725 C3.16267633,2.43882632 1.32660001,4.97681228 1.32660001,7.86607478 C1.32660001,11.5809031 4.33473537,14.5926001 8.04596174,14.5926001 C10.9578159,14.5926001 13.5098593,12.7213017 14.4184419,9.99975645 C14.6723333,9.23896491 13.8535323,8.6194099 13.1826752,8.97615979 C12.5187012,9.32927298 11.7786931,9.51636519 11.0103158,9.51636519 C8.44590305,9.51636519 6.36657235,7.43458954 6.36657235,4.86639336 C6.36657235,4.11307953 6.54572241,3.38710566 6.88448406,2.73292352 C7.22188887,2.08136834 6.64735543,1.30182295 5.92509766,1.48524329 L5.84719032,1.50862725 Z M5.26461215,3.23823063 L5.20980711,3.4475774 C5.09765457,3.9073883 5.03997234,4.38288801 5.03997234,4.86639336 C5.03997234,8.16690174 7.71289288,10.8429652 11.0103158,10.8429652 L11.2563555,10.837958 C11.7468909,10.8179615 12.2277047,10.7382652 12.6948988,10.6008607 L12.6292541,10.7122555 C11.6664275,12.2664075 9.95207483,13.2660001 8.04596174,13.2660001 C5.06774797,13.2660001 2.65320003,10.8485934 2.65320003,7.86607478 C2.65320003,5.97353562 3.63422926,4.26884521 5.16523304,3.29975868 L5.26461215,3.23823063 Z" id="Path" fill="#173E67"></path>
            </g>
        </g>
    </g>
</svg>