<?xml version="1.0" encoding="utf-8"?>
<svg width="455px" height="302.49994px" viewBox="0 0 455 302.49994" version="1.1" xmlns:xlink="http://www.w3.org/1999/xlink" xmlns="http://www.w3.org/2000/svg">
  <g id="Group-107">
    <g id="Group-98" transform="translate(128 0)">
      <path d="M7.999 0L235.001 0Q235.197 0 235.394 0.00963514Q235.59 0.0192703 235.785 0.0385174Q235.98 0.0577644 236.175 0.0865771Q236.369 0.11539 236.562 0.153699Q236.754 0.192007 236.945 0.23972Q237.135 0.287433 237.323 0.344434Q237.511 0.401436 237.696 0.467589Q237.881 0.533742 238.062 0.608888Q238.243 0.684033 238.421 0.76799Q238.598 0.851946 238.772 0.944512Q238.945 1.03708 239.113 1.13803Q239.282 1.23898 239.445 1.34807Q239.608 1.45717 239.766 1.57414Q239.924 1.69112 240.076 1.81569Q240.227 1.94026 240.373 2.07213Q240.518 2.204 240.657 2.34285Q240.796 2.4817 240.928 2.6272Q241.06 2.7727 241.184 2.92449Q241.309 3.07628 241.426 3.234Q241.543 3.39172 241.652 3.55499Q241.761 3.71826 241.862 3.88669Q241.963 4.05512 242.055 4.2283Q242.148 4.40148 242.232 4.57899Q242.316 4.7565 242.391 4.93791Q242.466 5.11933 242.532 5.30422Q242.599 5.4891 242.656 5.67701Q242.713 5.86492 242.76 6.0554Q242.808 6.24588 242.846 6.43847Q242.885 6.63106 242.913 6.8253Q242.942 7.01954 242.961 7.21496Q242.981 7.41038 242.99 7.60651Q243 7.80264 243 7.999L243 275.001Q243 275.197 242.99 275.393Q242.981 275.59 242.961 275.785Q242.942 275.98 242.913 276.175Q242.885 276.369 242.846 276.561Q242.808 276.754 242.76 276.945Q242.713 277.135 242.656 277.323Q242.599 277.511 242.532 277.696Q242.466 277.881 242.391 278.062Q242.316 278.243 242.232 278.421Q242.148 278.599 242.055 278.772Q241.963 278.945 241.862 279.113Q241.761 279.282 241.652 279.445Q241.543 279.608 241.426 279.766Q241.309 279.924 241.184 280.076Q241.06 280.227 240.928 280.373Q240.796 280.518 240.657 280.657Q240.518 280.796 240.373 280.928Q240.227 281.06 240.076 281.184Q239.924 281.309 239.766 281.426Q239.608 281.543 239.445 281.652Q239.282 281.761 239.113 281.862Q238.945 281.963 238.772 282.055Q238.598 282.148 238.421 282.232Q238.243 282.316 238.062 282.391Q237.881 282.466 237.696 282.532Q237.511 282.599 237.323 282.656Q237.135 282.713 236.945 282.76Q236.754 282.808 236.562 282.846Q236.369 282.885 236.175 282.913Q235.98 282.942 235.785 282.961Q235.59 282.981 235.394 282.99Q235.197 283 235.001 283L7.999 283Q7.80264 283 7.60651 282.99Q7.41038 282.981 7.21496 282.961Q7.01954 282.942 6.8253 282.913Q6.63106 282.885 6.43847 282.846Q6.24588 282.808 6.0554 282.76Q5.86492 282.713 5.67701 282.656Q5.4891 282.599 5.30422 282.532Q5.11933 282.466 4.93791 282.391Q4.7565 282.316 4.57899 282.232Q4.40148 282.148 4.2283 282.055Q4.05512 281.963 3.88669 281.862Q3.71826 281.761 3.55499 281.652Q3.39172 281.543 3.234 281.426Q3.07628 281.309 2.92449 281.184Q2.7727 281.06 2.6272 280.928Q2.4817 280.796 2.34285 280.657Q2.204 280.518 2.07213 280.373Q1.94026 280.227 1.81569 280.076Q1.69112 279.924 1.57414 279.766Q1.45717 279.608 1.34807 279.445Q1.23898 279.282 1.13803 279.113Q1.03708 278.945 0.944512 278.772Q0.851946 278.599 0.76799 278.421Q0.684033 278.243 0.608888 278.062Q0.533742 277.881 0.467589 277.696Q0.401436 277.511 0.344434 277.323Q0.287433 277.135 0.23972 276.945Q0.192007 276.754 0.153699 276.561Q0.11539 276.369 0.0865771 276.175Q0.0577644 275.98 0.0385174 275.785Q0.0192703 275.59 0.00963514 275.393Q0 275.197 0 275.001L0 7.999Q0 7.80264 0.00963514 7.60651Q0.0192703 7.41038 0.0385174 7.21496Q0.0577644 7.01954 0.0865771 6.8253Q0.11539 6.63106 0.153699 6.43847Q0.192007 6.24588 0.23972 6.0554Q0.287433 5.86492 0.344434 5.67701Q0.401436 5.4891 0.467589 5.30422Q0.533742 5.11933 0.608888 4.93791Q0.684033 4.7565 0.76799 4.57899Q0.851946 4.40148 0.944512 4.2283Q1.03708 4.05512 1.13803 3.88669Q1.23898 3.71826 1.34807 3.55499Q1.45717 3.39172 1.57414 3.234Q1.69112 3.07628 1.81569 2.92449Q1.94026 2.7727 2.07213 2.6272Q2.204 2.4817 2.34285 2.34285Q2.4817 2.204 2.6272 2.07213Q2.7727 1.94026 2.92449 1.81569Q3.07628 1.69112 3.234 1.57414Q3.39172 1.45717 3.55499 1.34807Q3.71826 1.23898 3.88669 1.13803Q4.05512 1.03708 4.2283 0.944512Q4.40148 0.851946 4.57899 0.76799Q4.7565 0.684033 4.93791 0.608888Q5.11933 0.533742 5.30422 0.467589Q5.4891 0.401436 5.67701 0.344434Q5.86492 0.287433 6.0554 0.23972Q6.24588 0.192007 6.43847 0.153699Q6.63106 0.11539 6.8253 0.0865771Q7.01954 0.0577644 7.21496 0.0385174Q7.41038 0.0192703 7.60651 0.00963514Q7.80264 0 7.999 0L7.999 0Z" id="Container" fill="#F2F2F2" fill-rule="evenodd" stroke="none" />
      <path d="M7.999 0L235.001 0Q235.197 0 235.394 0.00963514Q235.59 0.0192703 235.785 0.0385174Q235.98 0.0577644 236.175 0.0865771Q236.369 0.11539 236.562 0.153699Q236.754 0.192007 236.945 0.23972Q237.135 0.287433 237.323 0.344434Q237.511 0.401436 237.696 0.467589Q237.881 0.533742 238.062 0.608888Q238.243 0.684033 238.421 0.76799Q238.598 0.851946 238.772 0.944512Q238.945 1.03708 239.113 1.13803Q239.282 1.23898 239.445 1.34807Q239.608 1.45717 239.766 1.57414Q239.924 1.69112 240.076 1.81569Q240.227 1.94026 240.373 2.07213Q240.518 2.204 240.657 2.34285Q240.796 2.4817 240.928 2.6272Q241.06 2.7727 241.184 2.92449Q241.309 3.07628 241.426 3.234Q241.543 3.39172 241.652 3.55499Q241.761 3.71826 241.862 3.88669Q241.963 4.05512 242.055 4.2283Q242.148 4.40148 242.232 4.57899Q242.316 4.7565 242.391 4.93791Q242.466 5.11933 242.532 5.30422Q242.599 5.4891 242.656 5.67701Q242.713 5.86492 242.76 6.0554Q242.808 6.24588 242.846 6.43847Q242.885 6.63106 242.913 6.8253Q242.942 7.01954 242.961 7.21496Q242.981 7.41038 242.99 7.60651Q243 7.80264 243 7.999L243 24.1759L0 24.1759L0 7.999Q0 7.80264 0.00963514 7.60651Q0.0192703 7.41038 0.0385174 7.21496Q0.0577644 7.01954 0.0865771 6.8253Q0.11539 6.63106 0.153699 6.43847Q0.192007 6.24588 0.23972 6.0554Q0.287433 5.86492 0.344434 5.67701Q0.401436 5.4891 0.467589 5.30422Q0.533742 5.11933 0.608888 4.93791Q0.684033 4.7565 0.76799 4.57899Q0.851946 4.40148 0.944512 4.2283Q1.03708 4.05512 1.13803 3.88669Q1.23898 3.71826 1.34807 3.55499Q1.45717 3.39172 1.57414 3.234Q1.69112 3.07628 1.81569 2.92449Q1.94026 2.7727 2.07213 2.6272Q2.204 2.4817 2.34285 2.34285Q2.4817 2.204 2.6272 2.07213Q2.7727 1.94026 2.92449 1.81569Q3.07628 1.69112 3.234 1.57414Q3.39172 1.45717 3.55499 1.34807Q3.71826 1.23898 3.88669 1.13803Q4.05512 1.03708 4.2283 0.944512Q4.40148 0.851946 4.57899 0.76799Q4.7565 0.684033 4.93791 0.608888Q5.11933 0.533742 5.30422 0.467589Q5.4891 0.401436 5.67701 0.344434Q5.86492 0.287433 6.0554 0.23972Q6.24588 0.192007 6.43847 0.153699Q6.63106 0.11539 6.8253 0.0865771Q7.01954 0.0577644 7.21496 0.0385174Q7.41038 0.0192703 7.60651 0.00963514Q7.80264 0 7.999 0L7.999 0Z" id="Header" fill="#C5CFD6" fill-rule="evenodd" stroke="none" />
      <g id="Buttons" transform="translate(12 6)">
        <path d="M2 4C3.10457 4 4 3.10457 4 2C4 0.895431 3.10457 0 2 0C0.895431 0 0 0.895431 0 2C0 3.10457 0.895431 4 2 4Z" id="buttons" fill="#F2F2F2" fill-rule="evenodd" stroke="none" />
        <path d="M8 4C9.10457 4 10 3.10457 10 2C10 0.895431 9.10457 0 8 0C6.89543 0 6 0.895431 6 2C6 3.10457 6.89543 4 8 4Z" id="buttons" fill="#F2F2F2" fill-rule="evenodd" stroke="none" />
        <path d="M14 4C15.1046 4 16 3.10457 16 2C16 0.895431 15.1046 0 14 0C12.8954 0 12 0.895431 12 2C12 3.10457 12.8954 4 14 4Z" id="buttons" fill="#F2F2F2" fill-rule="evenodd" stroke="none" />
      </g>
      <g id="Row" transform="translate(9.947369 38.396984)">
        <path d="M3.999 0L217.685 0Q217.882 0 218.077 0.0192563Q218.273 0.0385126 218.465 0.0768396Q218.658 0.115167 218.846 0.172196Q219.034 0.229224 219.216 0.304406Q219.397 0.379587 219.57 0.472197Q219.744 0.564807 219.907 0.673953Q220.07 0.783099 220.222 0.907731Q220.374 1.03236 220.513 1.17128Q220.652 1.3102 220.776 1.46206Q220.901 1.61393 221.01 1.77727Q221.119 1.94062 221.212 2.11388Q221.305 2.28715 221.38 2.46865Q221.455 2.65015 221.512 2.83815Q221.569 3.02615 221.607 3.21883Q221.646 3.41152 221.665 3.60703Q221.684 3.80254 221.684 3.999L221.684 37.2422Q221.684 37.4387 221.665 37.6342Q221.646 37.8297 221.607 38.0224Q221.569 38.2151 221.512 38.4031Q221.455 38.591 221.38 38.7725Q221.305 38.9541 221.212 39.1273Q221.119 39.3006 221.01 39.4639Q220.901 39.6273 220.776 39.7791Q220.652 39.931 220.513 40.0699Q220.374 40.2088 220.222 40.3335Q220.07 40.4581 219.907 40.5672Q219.744 40.6764 219.57 40.769Q219.397 40.8616 219.216 40.9368Q219.034 41.012 218.846 41.069Q218.658 41.126 218.465 41.1644Q218.273 41.2027 218.077 41.222Q217.882 41.2412 217.685 41.2412L3.999 41.2412Q3.80254 41.2412 3.60703 41.222Q3.41152 41.2027 3.21883 41.1644Q3.02615 41.126 2.83815 41.069Q2.65015 41.012 2.46865 40.9368Q2.28715 40.8616 2.11388 40.769Q1.94062 40.6764 1.77727 40.5672Q1.61393 40.4581 1.46206 40.3335Q1.3102 40.2088 1.17128 40.0699Q1.03236 39.931 0.907731 39.7791Q0.783099 39.6273 0.673953 39.4639Q0.564807 39.3006 0.472197 39.1273Q0.379587 38.9541 0.304406 38.7726Q0.229224 38.5911 0.172196 38.4031Q0.115167 38.2151 0.0768396 38.0224Q0.0385126 37.8297 0.0192563 37.6342Q0 37.4387 0 37.2422L0 3.999Q0 3.80254 0.0192563 3.60703Q0.0385126 3.41152 0.0768396 3.21883Q0.115167 3.02615 0.172196 2.83815Q0.229224 2.65015 0.304406 2.46865Q0.379587 2.28715 0.472197 2.11388Q0.564807 1.94062 0.673953 1.77727Q0.783099 1.61393 0.907731 1.46206Q1.03236 1.3102 1.17128 1.17128Q1.3102 1.03236 1.46206 0.907731Q1.61393 0.783099 1.77727 0.673953Q1.94062 0.564807 2.11388 0.472197Q2.28715 0.379587 2.46865 0.304406Q2.65015 0.229224 2.83815 0.172196Q3.02615 0.115167 3.21883 0.0768396Q3.41152 0.0385126 3.60703 0.0192563Q3.80254 0 3.999 0Z" id="Container" fill="#FFFFFF" fill-rule="evenodd" stroke="none" />
        <g id="Text-Stuff" transform="translate(9 12.284615)">
          <path d="M2.999 0L160.685 0Q160.833 0 160.979 0.014441Q161.126 0.028882 161.27 0.0576249Q161.415 0.0863679 161.556 0.129136Q161.697 0.171904 161.833 0.228285Q161.969 0.284667 162.099 0.354118Q162.229 0.42357 162.351 0.505423Q162.474 0.587276 162.588 0.680742Q162.702 0.774208 162.806 0.878387Q162.91 0.982566 163.003 1.09645Q163.097 1.21034 163.179 1.33284Q163.261 1.45535 163.33 1.58528Q163.4 1.71522 163.456 1.85133Q163.512 1.98745 163.555 2.12844Q163.598 2.26942 163.627 2.41392Q163.655 2.55842 163.67 2.70505Q163.684 2.85167 163.684 2.999L163.684 3.25299Q163.684 3.40032 163.67 3.54694Q163.655 3.69357 163.627 3.83807Q163.598 3.98257 163.555 4.12355Q163.512 4.26454 163.456 4.40066Q163.4 4.53678 163.33 4.66671Q163.261 4.79664 163.179 4.91915Q163.097 5.04165 163.003 5.15554Q162.91 5.26943 162.806 5.3736Q162.702 5.47778 162.588 5.57125Q162.474 5.66472 162.351 5.74657Q162.229 5.82842 162.099 5.89787Q161.969 5.96732 161.833 6.02371Q161.697 6.08009 161.556 6.12286Q161.415 6.16562 161.27 6.19437Q161.126 6.22311 160.979 6.23755Q160.833 6.25199 160.685 6.25199L2.999 6.25199Q2.85167 6.25199 2.70505 6.23755Q2.55842 6.22311 2.41392 6.19437Q2.26942 6.16562 2.12844 6.12286Q1.98745 6.08009 1.85133 6.02371Q1.71522 5.96732 1.58528 5.89787Q1.45535 5.82842 1.33284 5.74657Q1.21034 5.66472 1.09645 5.57125Q0.982566 5.47778 0.878387 5.3736Q0.774208 5.26943 0.680742 5.15554Q0.587276 5.04165 0.505423 4.91915Q0.42357 4.79664 0.354118 4.66671Q0.284667 4.53678 0.228285 4.40066Q0.171904 4.26454 0.129136 4.12355Q0.0863679 3.98257 0.0576249 3.83807Q0.028882 3.69357 0.014441 3.54694Q0 3.40032 0 3.25299L0 2.999Q0 2.85167 0.014441 2.70505Q0.028882 2.55842 0.0576249 2.41392Q0.0863679 2.26942 0.129136 2.12844Q0.171904 1.98745 0.228285 1.85133Q0.284667 1.71522 0.354118 1.58528Q0.42357 1.45535 0.505423 1.33284Q0.587276 1.21034 0.680742 1.09645Q0.774208 0.982566 0.878387 0.878387Q0.982566 0.774208 1.09645 0.680742Q1.21034 0.587276 1.33284 0.505423Q1.45535 0.42357 1.58528 0.354118Q1.71522 0.284667 1.85133 0.228285Q1.98745 0.171904 2.12844 0.129136Q2.26942 0.0863679 2.41392 0.0576249Q2.55842 0.028882 2.70505 0.014441Q2.85167 0 2.999 0Z" id="Label" fill="#DDE3E9" fill-rule="evenodd" stroke="none" />
          <path d="M2.999 10.42L106.871 10.42Q107.019 10.42 107.165 10.4344Q107.312 10.4489 107.456 10.4776Q107.601 10.5064 107.742 10.5491Q107.883 10.5919 108.019 10.6483Q108.155 10.7047 108.285 10.7741Q108.415 10.8436 108.537 10.9254Q108.66 11.0073 108.774 11.1007Q108.888 11.1942 108.992 11.2984Q109.096 11.4026 109.189 11.5164Q109.283 11.6303 109.365 11.7528Q109.447 11.8753 109.516 12.0053Q109.586 12.1352 109.642 12.2713Q109.698 12.4074 109.741 12.5484Q109.784 12.6894 109.813 12.8339Q109.841 12.9784 109.856 13.125Q109.87 13.2717 109.87 13.419L109.87 13.673Q109.87 13.8203 109.856 13.9669Q109.841 14.1136 109.813 14.2581Q109.784 14.4026 109.741 14.5435Q109.698 14.6845 109.642 14.8206Q109.586 14.9568 109.516 15.0867Q109.447 15.2166 109.365 15.3391Q109.283 15.4616 109.189 15.5755Q109.096 15.6894 108.992 15.7936Q108.888 15.8978 108.774 15.9912Q108.66 16.0847 108.537 16.1666Q108.415 16.2484 108.285 16.3179Q108.155 16.3873 108.019 16.4437Q107.883 16.5001 107.742 16.5428Q107.601 16.5856 107.456 16.6144Q107.312 16.6431 107.165 16.6575Q107.019 16.672 106.871 16.672L2.999 16.672Q2.85167 16.672 2.70505 16.6575Q2.55842 16.6431 2.41392 16.6144Q2.26942 16.5856 2.12844 16.5428Q1.98745 16.5001 1.85133 16.4437Q1.71522 16.3873 1.58528 16.3179Q1.45535 16.2484 1.33284 16.1666Q1.21034 16.0847 1.09645 15.9912Q0.982566 15.8978 0.878387 15.7936Q0.774208 15.6894 0.680742 15.5755Q0.587276 15.4616 0.505423 15.3391Q0.42357 15.2166 0.354118 15.0867Q0.284667 14.9568 0.228285 14.8206Q0.171904 14.6845 0.129136 14.5435Q0.0863679 14.4026 0.0576249 14.2581Q0.028882 14.1136 0.014441 13.9669Q0 13.8203 0 13.673L0 13.419Q0 13.2717 0.014441 13.125Q0.028882 12.9784 0.0576249 12.8339Q0.0863679 12.6894 0.129136 12.5484Q0.171904 12.4074 0.228285 12.2713Q0.284667 12.1352 0.354118 12.0053Q0.42357 11.8753 0.505423 11.7528Q0.587276 11.6303 0.680742 11.5164Q0.774208 11.4026 0.878387 11.2984Q0.982566 11.1942 1.09645 11.1007Q1.21034 11.0073 1.33284 10.9254Q1.45535 10.8436 1.58528 10.7741Q1.71522 10.7047 1.85133 10.6483Q1.98745 10.5919 2.12844 10.5491Q2.26942 10.5064 2.41392 10.4776Q2.55842 10.4489 2.70505 10.4344Q2.85167 10.42 2.999 10.42L2.999 10.42Z" id="Label" fill="#DDE3E9" fill-rule="evenodd" stroke="none" />
        </g>
        <g id="Check" transform="translate(190.6987 14.05934)">
          <path d="M7 14C10.866 14 14 10.866 14 7C14 3.13401 10.866 0 7 0C3.13401 0 0 3.13401 0 7C0 10.866 3.13401 14 7 14Z" id="Background" fill="#DDE3E9" fill-rule="evenodd" stroke="none" />
          <path d="M7 10C8.65685 10 10 8.65685 10 7C10 5.34315 8.65685 4 7 4C5.34315 4 4 5.34315 4 7C4 8.65685 5.34315 10 7 10Z" id="Indicator" fill="#F2F2F2" fill-rule="evenodd" stroke="none" />
        </g>
      </g>
      <g id="Row" transform="translate(9.947369 86.74874)">
        <path d="M3.999 0L217.685 0Q217.882 0 218.077 0.0192563Q218.273 0.0385126 218.465 0.0768396Q218.658 0.115167 218.846 0.172196Q219.034 0.229224 219.216 0.304406Q219.397 0.379587 219.57 0.472197Q219.744 0.564807 219.907 0.673953Q220.07 0.783099 220.222 0.907731Q220.374 1.03236 220.513 1.17128Q220.652 1.3102 220.776 1.46206Q220.901 1.61393 221.01 1.77727Q221.119 1.94062 221.212 2.11388Q221.305 2.28715 221.38 2.46865Q221.455 2.65015 221.512 2.83815Q221.569 3.02615 221.607 3.21883Q221.646 3.41152 221.665 3.60703Q221.684 3.80254 221.684 3.999L221.684 30.1317Q221.684 30.3281 221.665 30.5236Q221.646 30.7191 221.607 30.9118Q221.569 31.1045 221.512 31.2925Q221.455 31.4805 221.38 31.662Q221.305 31.8435 221.212 32.0168Q221.119 32.19 221.01 32.3534Q220.901 32.5167 220.776 32.6686Q220.652 32.8205 220.513 32.9594Q220.374 33.0983 220.222 33.2229Q220.07 33.3476 219.907 33.4567Q219.744 33.5658 219.57 33.6585Q219.397 33.7511 219.216 33.8262Q219.034 33.9014 218.846 33.9585Q218.658 34.0155 218.465 34.0538Q218.273 34.0921 218.077 34.1114Q217.882 34.1307 217.685 34.1307L3.999 34.1307Q3.80254 34.1307 3.60703 34.1114Q3.41152 34.0921 3.21883 34.0538Q3.02615 34.0155 2.83815 33.9585Q2.65015 33.9014 2.46865 33.8262Q2.28715 33.7511 2.11388 33.6585Q1.94062 33.5658 1.77727 33.4567Q1.61393 33.3476 1.46206 33.2229Q1.3102 33.0983 1.17128 32.9594Q1.03236 32.8205 0.907731 32.6686Q0.783099 32.5167 0.673953 32.3534Q0.564807 32.19 0.472197 32.0168Q0.379587 31.8435 0.304406 31.662Q0.229224 31.4805 0.172196 31.2925Q0.115167 31.1045 0.0768396 30.9118Q0.0385126 30.7191 0.0192563 30.5236Q0 30.3281 0 30.1317L0 3.999Q0 3.80254 0.0192563 3.60703Q0.0385126 3.41152 0.0768396 3.21883Q0.115167 3.02615 0.172196 2.83815Q0.229224 2.65015 0.304406 2.46865Q0.379587 2.28715 0.472197 2.11388Q0.564807 1.94062 0.673953 1.77727Q0.783099 1.61393 0.907731 1.46206Q1.03236 1.3102 1.17128 1.17128Q1.3102 1.03236 1.46206 0.907731Q1.61393 0.783099 1.77727 0.673953Q1.94062 0.564807 2.11388 0.472197Q2.28715 0.379587 2.46865 0.304406Q2.65015 0.229224 2.83815 0.172196Q3.02615 0.115167 3.21883 0.0768396Q3.41152 0.0385126 3.60703 0.0192563Q3.80254 0 3.999 0Z" id="Container" fill="#FFFFFF" fill-rule="evenodd" stroke="none" />
        <g id="Text-Stuff" transform="translate(9 10.5017395)">
          <path d="M2.62443 0L161.06 0Q161.189 0 161.317 0.0126374Q161.445 0.0252747 161.572 0.0504278Q161.698 0.0755808 161.822 0.113007Q161.945 0.150434 162.064 0.199773Q162.183 0.249113 162.297 0.30989Q162.411 0.370667 162.518 0.442297Q162.625 0.513927 162.725 0.595719Q162.824 0.677512 162.916 0.768679Q163.007 0.859847 163.088 0.959511Q163.17 1.05918 163.242 1.16638Q163.314 1.27358 163.374 1.38728Q163.435 1.50099 163.484 1.62011Q163.534 1.73922 163.571 1.8626Q163.609 1.98598 163.634 2.11243Q163.659 2.23889 163.672 2.3672Q163.684 2.4955 163.684 2.62443L163.684 2.62643Q163.684 2.75537 163.672 2.88367Q163.659 3.01198 163.634 3.13844Q163.609 3.26489 163.571 3.38827Q163.534 3.51165 163.484 3.63076Q163.435 3.74988 163.374 3.86358Q163.314 3.97729 163.242 4.08449Q163.17 4.19169 163.088 4.29136Q163.007 4.39102 162.916 4.48219Q162.824 4.57336 162.725 4.65515Q162.625 4.73694 162.518 4.80857Q162.411 4.8802 162.297 4.94098Q162.183 5.00176 162.064 5.0511Q161.945 5.10044 161.822 5.13786Q161.698 5.17529 161.572 5.20044Q161.445 5.2256 161.317 5.23823Q161.189 5.25087 161.06 5.25087L2.62443 5.25087Q2.4955 5.25087 2.3672 5.23823Q2.23889 5.2256 2.11243 5.20044Q1.98598 5.17529 1.8626 5.13786Q1.73922 5.10044 1.62011 5.0511Q1.50099 5.00176 1.38728 4.94098Q1.27358 4.8802 1.16638 4.80857Q1.05918 4.73694 0.959511 4.65515Q0.859847 4.57336 0.768679 4.48219Q0.677512 4.39102 0.595719 4.29136Q0.513927 4.19169 0.442297 4.08449Q0.370667 3.97729 0.30989 3.86358Q0.249113 3.74988 0.199773 3.63076Q0.150434 3.51165 0.113007 3.38827Q0.0755808 3.26489 0.0504278 3.13844Q0.0252747 3.01198 0.0126374 2.88367Q0 2.75537 0 2.62643L0 2.62443Q0 2.4955 0.0126374 2.3672Q0.0252747 2.23889 0.0504278 2.11243Q0.0755808 1.98598 0.113007 1.8626Q0.150434 1.73922 0.199773 1.62011Q0.249113 1.50099 0.30989 1.38728Q0.370667 1.27358 0.442297 1.16638Q0.513927 1.05918 0.595719 0.959511Q0.677512 0.859847 0.768679 0.768679Q0.859847 0.677512 0.959511 0.595719Q1.05918 0.513927 1.16638 0.442297Q1.27358 0.370667 1.38728 0.30989Q1.50099 0.249113 1.62011 0.199773Q1.73922 0.150434 1.8626 0.113007Q1.98598 0.0755808 2.11243 0.0504278Q2.23889 0.0252747 2.3672 0.0126374Q2.4955 0 2.62443 0Z" id="Label" fill="#DDE3E9" fill-rule="evenodd" stroke="none" />
          <path d="M2.62443 8.75145L107.246 8.75145Q107.375 8.75145 107.503 8.76409Q107.631 8.77672 107.758 8.80188Q107.884 8.82703 108.008 8.86446Q108.131 8.90188 108.25 8.95122Q108.369 9.00056 108.483 9.06134Q108.597 9.12212 108.704 9.19375Q108.811 9.26538 108.911 9.34717Q109.01 9.42896 109.102 9.52013Q109.193 9.6113 109.275 9.71096Q109.356 9.81062 109.428 9.91783Q109.5 10.025 109.56 10.1387Q109.621 10.2524 109.67 10.3716Q109.72 10.4907 109.757 10.6141Q109.795 10.7374 109.82 10.8639Q109.845 10.9903 109.858 11.1186Q109.87 11.247 109.87 11.3759L109.87 11.3779Q109.87 11.5068 109.858 11.6351Q109.845 11.7634 109.82 11.8899Q109.795 12.0163 109.757 12.1397Q109.72 12.2631 109.67 12.3822Q109.621 12.5013 109.56 12.615Q109.5 12.7287 109.428 12.8359Q109.356 12.9431 109.274 13.0428Q109.193 13.1425 109.102 13.2336Q109.01 13.3248 108.911 13.4066Q108.811 13.4884 108.704 13.56Q108.597 13.6317 108.483 13.6924Q108.369 13.7532 108.25 13.8025Q108.131 13.8519 108.008 13.8893Q107.884 13.9267 107.758 13.9519Q107.631 13.977 107.503 13.9897Q107.375 14.0023 107.246 14.0023L2.62443 14.0023Q2.4955 14.0023 2.3672 13.9897Q2.23889 13.977 2.11243 13.9519Q1.98598 13.9267 1.8626 13.8893Q1.73922 13.8519 1.62011 13.8025Q1.50099 13.7532 1.38728 13.6924Q1.27358 13.6316 1.16638 13.56Q1.05918 13.4884 0.959511 13.4066Q0.859847 13.3248 0.768679 13.2336Q0.677512 13.1425 0.595719 13.0428Q0.513927 12.9431 0.442297 12.8359Q0.370667 12.7287 0.30989 12.615Q0.249113 12.5013 0.199773 12.3822Q0.150434 12.2631 0.113007 12.1397Q0.0755808 12.0163 0.0504278 11.8899Q0.0252747 11.7634 0.0126374 11.6351Q0 11.5068 0 11.3779L0 11.3759Q0 11.247 0.0126374 11.1186Q0.0252747 10.9903 0.0504278 10.8639Q0.0755808 10.7374 0.113007 10.6141Q0.150434 10.4907 0.199773 10.3716Q0.249113 10.2524 0.30989 10.1387Q0.370667 10.025 0.442297 9.91783Q0.513927 9.81062 0.595719 9.71096Q0.677512 9.6113 0.768679 9.52013Q0.859847 9.42896 0.959511 9.34717Q1.05918 9.26538 1.16638 9.19375Q1.27358 9.12212 1.38728 9.06134Q1.50099 9.00056 1.62011 8.95122Q1.73922 8.90188 1.8626 8.86446Q1.98598 8.82703 2.11243 8.80188Q2.23889 8.77672 2.3672 8.76409Q2.4955 8.75145 2.62443 8.75145Z" id="Label" fill="#DDE3E9" fill-rule="evenodd" stroke="none" />
        </g>
        <g id="Check" transform="translate(190.6987 10.502899)">
          <path d="M7 14C10.866 14 14 10.866 14 7C14 3.13401 10.866 0 7 0C3.13401 0 0 3.13401 0 7C0 10.866 3.13401 14 7 14Z" id="Background" fill="#DDE3E9" fill-rule="evenodd" stroke="none" />
          <path d="M7 10C8.65685 10 10 8.65685 10 7C10 5.34315 8.65685 4 7 4C5.34315 4 4 5.34315 4 7C4 8.65685 5.34315 10 7 10Z" id="Indicator" fill="#F2F2F2" fill-rule="evenodd" stroke="none" />
        </g>
      </g>
      <path d="M18.999 146L224.001 146Q224.197 146 224.393 146.019Q224.588 146.039 224.781 146.077Q224.974 146.115 225.162 146.172Q225.35 146.229 225.531 146.304Q225.713 146.38 225.886 146.472Q226.059 146.565 226.223 146.674Q226.386 146.783 226.538 146.908Q226.69 147.032 226.829 147.171Q226.968 147.31 227.092 147.462Q227.217 147.614 227.326 147.777Q227.435 147.941 227.528 148.114Q227.62 148.287 227.696 148.469Q227.771 148.65 227.828 148.838Q227.885 149.026 227.923 149.219Q227.961 149.411 227.981 149.607Q228 149.803 228 149.999L228 264.001Q228 264.197 227.981 264.393Q227.961 264.589 227.923 264.781Q227.885 264.974 227.828 265.162Q227.771 265.35 227.696 265.531Q227.62 265.713 227.528 265.886Q227.435 266.059 227.326 266.223Q227.217 266.386 227.092 266.538Q226.968 266.69 226.829 266.829Q226.69 266.968 226.538 267.092Q226.386 267.217 226.223 267.326Q226.059 267.435 225.886 267.528Q225.713 267.62 225.531 267.696Q225.35 267.771 225.162 267.828Q224.974 267.885 224.781 267.923Q224.588 267.962 224.393 267.981Q224.197 268 224.001 268L18.999 268Q18.8025 268 18.607 267.981Q18.4115 267.962 18.2188 267.923Q18.0262 267.885 17.8382 267.828Q17.6502 267.771 17.4686 267.696Q17.2871 267.62 17.1139 267.528Q16.9406 267.435 16.7773 267.326Q16.6139 267.217 16.4621 267.092Q16.3102 266.968 16.1713 266.829Q16.0324 266.69 15.9077 266.538Q15.7831 266.386 15.674 266.223Q15.5648 266.059 15.4722 265.886Q15.3796 265.713 15.3044 265.531Q15.2292 265.35 15.1722 265.162Q15.1152 264.974 15.0768 264.781Q15.0385 264.589 15.0193 264.393Q15 264.197 15 264.001L15 149.999Q15 149.803 15.0193 149.607Q15.0385 149.411 15.0768 149.219Q15.1152 149.026 15.1722 148.838Q15.2292 148.65 15.3044 148.469Q15.3796 148.287 15.4722 148.114Q15.5648 147.941 15.674 147.777Q15.7831 147.614 15.9077 147.462Q16.0324 147.31 16.1713 147.171Q16.3102 147.032 16.4621 146.908Q16.6139 146.783 16.7773 146.674Q16.9406 146.565 17.1139 146.472Q17.2871 146.38 17.4686 146.304Q17.6502 146.229 17.8382 146.172Q18.0262 146.115 18.2188 146.077Q18.4115 146.039 18.607 146.019Q18.8025 146 18.999 146Z" id="Container" fill="#FFFFFF" fill-rule="evenodd" stroke="none" />
      <path d="M21.3169 139.367L68.2094 139.367Q68.3491 139.367 68.4881 139.381Q68.6271 139.394 68.7641 139.421Q68.9011 139.449 69.0348 139.489Q69.1684 139.53 69.2975 139.583Q69.4265 139.637 69.5497 139.703Q69.6729 139.768 69.789 139.846Q69.9052 139.924 70.0131 140.012Q70.1211 140.101 70.2199 140.2Q70.3186 140.298 70.4072 140.406Q70.4959 140.514 70.5735 140.63Q70.6511 140.747 70.7169 140.87Q70.7827 140.993 70.8362 141.122Q70.8897 141.251 70.9302 141.385Q70.9707 141.518 70.998 141.655Q71.0253 141.792 71.0389 141.931Q71.0526 142.07 71.0526 142.21L71.0526 142.212Q71.0526 142.352 71.0389 142.491Q71.0253 142.63 70.998 142.767Q70.9708 142.904 70.9302 143.037Q70.8897 143.171 70.8362 143.3Q70.7828 143.429 70.7169 143.552Q70.6511 143.676 70.5735 143.792Q70.4959 143.908 70.4072 144.016Q70.3186 144.124 70.2199 144.223Q70.1211 144.321 70.0131 144.41Q69.9052 144.499 69.789 144.576Q69.6729 144.654 69.5497 144.72Q69.4265 144.785 69.2975 144.839Q69.1684 144.892 69.0348 144.933Q68.9011 144.973 68.7641 145.001Q68.6271 145.028 68.4881 145.042Q68.3491 145.055 68.2094 145.055L21.3169 145.055Q21.1772 145.055 21.0382 145.042Q20.8992 145.028 20.7622 145.001Q20.6252 144.973 20.4916 144.933Q20.3579 144.892 20.2288 144.839Q20.0998 144.785 19.9766 144.72Q19.8534 144.654 19.7373 144.576Q19.6212 144.499 19.5132 144.41Q19.4052 144.321 19.3064 144.223Q19.2077 144.124 19.1191 144.016Q19.0305 143.908 18.9529 143.792Q18.8753 143.676 18.8094 143.552Q18.7436 143.429 18.6901 143.3Q18.6367 143.171 18.5961 143.037Q18.5556 142.904 18.5283 142.767Q18.5011 142.63 18.4874 142.491Q18.4737 142.352 18.4737 142.212L18.4737 142.21Q18.4737 142.07 18.4874 141.931Q18.5011 141.792 18.5283 141.655Q18.5556 141.518 18.5961 141.385Q18.6367 141.251 18.6901 141.122Q18.7436 140.993 18.8094 140.87Q18.8752 140.747 18.9529 140.63Q19.0305 140.514 19.1191 140.406Q19.2077 140.298 19.3064 140.2Q19.4052 140.101 19.5132 140.012Q19.6212 139.924 19.7373 139.846Q19.8534 139.768 19.9766 139.703Q20.0998 139.637 20.2288 139.583Q20.3579 139.53 20.4916 139.489Q20.6252 139.449 20.7622 139.421Q20.8992 139.394 21.0382 139.381Q21.1772 139.367 21.3169 139.367Z" id="Label" fill="#DDE3E9" fill-rule="evenodd" stroke="none" />
      <path d="M21.3169 146.477L153.473 146.477Q153.612 146.477 153.751 146.491Q153.89 146.505 154.027 146.532Q154.164 146.559 154.298 146.6Q154.432 146.64 154.561 146.694Q154.69 146.747 154.813 146.813Q154.936 146.879 155.052 146.957Q155.168 147.034 155.276 147.123Q155.384 147.211 155.483 147.31Q155.582 147.409 155.67 147.517Q155.759 147.625 155.837 147.741Q155.914 147.857 155.98 147.98Q156.046 148.104 156.099 148.233Q156.153 148.362 156.193 148.495Q156.234 148.629 156.261 148.766Q156.288 148.903 156.302 149.042Q156.316 149.181 156.316 149.321L156.316 149.323Q156.316 149.462 156.302 149.601Q156.288 149.74 156.261 149.877Q156.234 150.014 156.193 150.148Q156.153 150.282 156.099 150.411Q156.046 150.54 155.98 150.663Q155.914 150.786 155.837 150.902Q155.759 151.018 155.67 151.126Q155.582 151.234 155.483 151.333Q155.384 151.432 155.276 151.52Q155.168 151.609 155.052 151.687Q154.936 151.764 154.813 151.83Q154.69 151.896 154.561 151.949Q154.432 152.003 154.298 152.043Q154.164 152.084 154.027 152.111Q153.89 152.138 153.751 152.152Q153.612 152.166 153.473 152.166L21.3169 152.166Q21.1772 152.166 21.0382 152.152Q20.8992 152.138 20.7622 152.111Q20.6252 152.084 20.4916 152.043Q20.3579 152.003 20.2288 151.949Q20.0998 151.896 19.9766 151.83Q19.8534 151.764 19.7373 151.687Q19.6212 151.609 19.5132 151.52Q19.4052 151.432 19.3064 151.333Q19.2077 151.234 19.1191 151.126Q19.0305 151.018 18.9529 150.902Q18.8753 150.786 18.8094 150.663Q18.7436 150.54 18.6901 150.411Q18.6367 150.282 18.5961 150.148Q18.5556 150.014 18.5283 149.877Q18.5011 149.74 18.4874 149.601Q18.4737 149.462 18.4737 149.323L18.4737 149.321Q18.4737 149.181 18.4874 149.042Q18.5011 148.903 18.5283 148.766Q18.5556 148.629 18.5961 148.495Q18.6367 148.362 18.6901 148.233Q18.7436 148.103 18.8094 147.98Q18.8752 147.857 18.9529 147.741Q19.0305 147.625 19.1191 147.517Q19.2077 147.409 19.3064 147.31Q19.4052 147.211 19.5132 147.123Q19.6212 147.034 19.7373 146.957Q19.8534 146.879 19.9766 146.813Q20.0998 146.747 20.2288 146.694Q20.3579 146.64 20.4916 146.6Q20.6252 146.559 20.7622 146.532Q20.8992 146.505 21.0382 146.491Q21.1772 146.477 21.3169 146.477Z" id="Label" fill="#DDE3E9" fill-rule="evenodd" stroke="none" />
      <g id="Text-Stuff-Copy" transform="translate(25 159.27638)">
        <path d="M2.5588 0L188.441 0Q188.567 0 188.692 0.0123213Q188.817 0.0246426 188.94 0.0491666Q189.064 0.0736906 189.184 0.110181Q189.304 0.146671 189.42 0.194777Q189.537 0.242882 189.647 0.30214Q189.758 0.361397 189.863 0.431235Q189.967 0.501074 190.064 0.580821Q190.162 0.660567 190.251 0.749455Q190.339 0.838342 190.419 0.935514Q190.499 1.03269 190.569 1.13721Q190.639 1.24173 190.698 1.35259Q190.757 1.46345 190.805 1.57959Q190.853 1.69573 190.89 1.81602Q190.926 1.93631 190.951 2.0596Q190.975 2.18289 190.988 2.30799Q191 2.43309 191 2.5588L191 2.5608Q191 2.6865 190.988 2.8116Q190.975 2.93671 190.951 3.06Q190.926 3.18329 190.89 3.30358Q190.853 3.42387 190.805 3.54001Q190.757 3.65615 190.698 3.76701Q190.639 3.87787 190.569 3.98239Q190.499 4.08691 190.419 4.18408Q190.339 4.28126 190.251 4.37014Q190.162 4.45903 190.064 4.53878Q189.967 4.61852 189.863 4.68836Q189.758 4.7582 189.647 4.81746Q189.537 4.87671 189.42 4.92482Q189.304 4.97293 189.184 5.00942Q189.064 5.04591 188.94 5.07043Q188.817 5.09495 188.692 5.10728Q188.567 5.1196 188.441 5.1196L2.5588 5.1196Q2.43309 5.1196 2.30799 5.10728Q2.18289 5.09495 2.0596 5.07043Q1.93631 5.04591 1.81602 5.00942Q1.69573 4.97293 1.57959 4.92482Q1.46345 4.87671 1.35259 4.81746Q1.24173 4.7582 1.13721 4.68836Q1.03269 4.61852 0.935514 4.53878Q0.838342 4.45903 0.749455 4.37014Q0.660567 4.28126 0.580821 4.18408Q0.501074 4.08691 0.431235 3.98239Q0.361397 3.87787 0.30214 3.76701Q0.242882 3.65615 0.194777 3.54001Q0.146671 3.42387 0.110181 3.30358Q0.0736906 3.18329 0.0491666 3.06Q0.0246426 2.93671 0.0123213 2.8116Q0 2.6865 0 2.5608L0 2.5588Q0 2.43309 0.0123213 2.30799Q0.0246426 2.18289 0.0491666 2.0596Q0.0736906 1.93631 0.110181 1.81602Q0.146671 1.69573 0.194777 1.57959Q0.242882 1.46345 0.30214 1.35259Q0.361397 1.24173 0.431235 1.13721Q0.501074 1.03269 0.580821 0.935514Q0.660567 0.838342 0.749455 0.749455Q0.838342 0.660567 0.935514 0.580821Q1.03269 0.501074 1.13721 0.431235Q1.24173 0.361397 1.35259 0.30214Q1.46345 0.242882 1.57959 0.194777Q1.69573 0.146671 1.81602 0.110181Q1.93631 0.0736906 2.0596 0.0491666Q2.18289 0.0246426 2.30799 0.0123213Q2.43309 0 2.5588 0Z" id="Label" fill="#DDE3E9" fill-rule="evenodd" stroke="none" />
        <path d="M2.5588 7.6794L125.674 7.6794Q125.8 7.6794 125.925 7.69172Q126.05 7.70404 126.174 7.72856Q126.297 7.75309 126.417 7.78958Q126.537 7.82607 126.654 7.87417Q126.77 7.92228 126.881 7.98154Q126.991 8.04079 127.096 8.11063Q127.201 8.18047 127.298 8.26022Q127.395 8.33996 127.484 8.42885Q127.573 8.51774 127.652 8.61491Q127.732 8.71208 127.802 8.8166Q127.872 8.92112 127.931 9.03199Q127.99 9.14285 128.038 9.25898Q128.087 9.37512 128.123 9.49542Q128.16 9.61571 128.184 9.739Q128.209 9.86229 128.221 9.98739Q128.233 10.1125 128.233 10.2382L128.233 10.2402Q128.233 10.3659 128.221 10.491Q128.209 10.6161 128.184 10.7394Q128.16 10.8627 128.123 10.983Q128.087 11.1033 128.038 11.2194Q127.99 11.3355 127.931 11.4464Q127.872 11.5573 127.802 11.6618Q127.732 11.7663 127.652 11.8635Q127.573 11.9607 127.484 12.0495Q127.395 12.1384 127.298 12.2182Q127.201 12.2979 127.096 12.3678Q126.991 12.4376 126.881 12.4969Q126.77 12.5561 126.654 12.6042Q126.537 12.6523 126.417 12.6888Q126.297 12.7253 126.174 12.7498Q126.05 12.7744 125.925 12.7867Q125.8 12.799 125.674 12.799L2.5588 12.799Q2.43309 12.799 2.30799 12.7867Q2.18289 12.7744 2.0596 12.7498Q1.93631 12.7253 1.81602 12.6888Q1.69573 12.6523 1.57959 12.6042Q1.46345 12.5561 1.35259 12.4969Q1.24173 12.4376 1.13721 12.3678Q1.03269 12.2979 0.935514 12.2182Q0.838342 12.1384 0.749455 12.0495Q0.660567 11.9607 0.580821 11.8635Q0.501074 11.7663 0.431235 11.6618Q0.361397 11.5573 0.30214 11.4464Q0.242882 11.3355 0.194777 11.2194Q0.146671 11.1033 0.110181 10.983Q0.0736906 10.8627 0.0491666 10.7394Q0.0246426 10.6161 0.0123213 10.491Q0 10.3659 0 10.2402L0 10.2382Q0 10.1125 0.0123213 9.98739Q0.0246426 9.86229 0.0491666 9.739Q0.0736906 9.61571 0.110181 9.49542Q0.146671 9.37512 0.194777 9.25898Q0.242882 9.14285 0.30214 9.03199Q0.361397 8.92112 0.431235 8.8166Q0.501074 8.71208 0.580821 8.61491Q0.660567 8.51774 0.749455 8.42885Q0.838342 8.33996 0.935514 8.26022Q1.03269 8.18047 1.13721 8.11063Q1.24173 8.04079 1.35259 7.98154Q1.46345 7.92228 1.57959 7.87417Q1.69573 7.82607 1.81602 7.78958Q1.93631 7.75309 2.0596 7.72856Q2.18289 7.70404 2.30799 7.69172Q2.43309 7.6794 2.5588 7.6794Z" id="Label" fill="#DDE3E9" fill-rule="evenodd" stroke="none" />
      </g>
      <g id="Text-Stuff-Copy-2" transform="translate(25 179.18593)">
        <path d="M2.5588 0L188.441 0Q188.567 0 188.692 0.0123213Q188.817 0.0246426 188.94 0.0491666Q189.064 0.0736906 189.184 0.110181Q189.304 0.146671 189.42 0.194777Q189.537 0.242882 189.647 0.30214Q189.758 0.361397 189.863 0.431235Q189.967 0.501074 190.064 0.580821Q190.162 0.660567 190.251 0.749455Q190.339 0.838342 190.419 0.935514Q190.499 1.03269 190.569 1.13721Q190.639 1.24173 190.698 1.35259Q190.757 1.46345 190.805 1.57959Q190.853 1.69573 190.89 1.81602Q190.926 1.93631 190.951 2.0596Q190.975 2.18289 190.988 2.30799Q191 2.43309 191 2.5588L191 2.5608Q191 2.6865 190.988 2.8116Q190.975 2.93671 190.951 3.06Q190.926 3.18329 190.89 3.30358Q190.853 3.42387 190.805 3.54001Q190.757 3.65615 190.698 3.76701Q190.639 3.87787 190.569 3.98239Q190.499 4.08691 190.419 4.18408Q190.339 4.28126 190.251 4.37014Q190.162 4.45903 190.064 4.53878Q189.967 4.61852 189.863 4.68836Q189.758 4.7582 189.647 4.81746Q189.537 4.87671 189.42 4.92482Q189.304 4.97293 189.184 5.00942Q189.064 5.04591 188.94 5.07043Q188.817 5.09495 188.692 5.10728Q188.567 5.1196 188.441 5.1196L2.5588 5.1196Q2.43309 5.1196 2.30799 5.10728Q2.18289 5.09495 2.0596 5.07043Q1.93631 5.04591 1.81602 5.00942Q1.69573 4.97293 1.57959 4.92482Q1.46345 4.87671 1.35259 4.81746Q1.24173 4.7582 1.13721 4.68836Q1.03269 4.61852 0.935514 4.53878Q0.838342 4.45903 0.749455 4.37014Q0.660567 4.28126 0.580821 4.18408Q0.501074 4.08691 0.431235 3.98239Q0.361397 3.87787 0.30214 3.76701Q0.242882 3.65615 0.194777 3.54001Q0.146671 3.42387 0.110181 3.30358Q0.0736906 3.18329 0.0491666 3.06Q0.0246426 2.93671 0.0123213 2.8116Q0 2.6865 0 2.5608L0 2.5588Q0 2.43309 0.0123213 2.30799Q0.0246426 2.18289 0.0491666 2.0596Q0.0736906 1.93631 0.110181 1.81602Q0.146671 1.69573 0.194777 1.57959Q0.242882 1.46345 0.30214 1.35259Q0.361397 1.24173 0.431235 1.13721Q0.501074 1.03269 0.580821 0.935514Q0.660567 0.838342 0.749455 0.749455Q0.838342 0.660567 0.935514 0.580821Q1.03269 0.501074 1.13721 0.431235Q1.24173 0.361397 1.35259 0.30214Q1.46345 0.242882 1.57959 0.194777Q1.69573 0.146671 1.81602 0.110181Q1.93631 0.0736906 2.0596 0.0491666Q2.18289 0.0246426 2.30799 0.0123213Q2.43309 0 2.5588 0Z" id="Label" fill="#DDE3E9" fill-rule="evenodd" stroke="none" />
        <path d="M2.5588 7.6794L125.674 7.6794Q125.8 7.6794 125.925 7.69172Q126.05 7.70404 126.174 7.72856Q126.297 7.75309 126.417 7.78958Q126.537 7.82607 126.654 7.87417Q126.77 7.92228 126.881 7.98154Q126.991 8.04079 127.096 8.11063Q127.201 8.18047 127.298 8.26022Q127.395 8.33996 127.484 8.42885Q127.573 8.51774 127.652 8.61491Q127.732 8.71208 127.802 8.8166Q127.872 8.92112 127.931 9.03199Q127.99 9.14285 128.038 9.25898Q128.087 9.37512 128.123 9.49542Q128.16 9.61571 128.184 9.739Q128.209 9.86229 128.221 9.98739Q128.233 10.1125 128.233 10.2382L128.233 10.2402Q128.233 10.3659 128.221 10.491Q128.209 10.6161 128.184 10.7394Q128.16 10.8627 128.123 10.983Q128.087 11.1033 128.038 11.2194Q127.99 11.3355 127.931 11.4464Q127.872 11.5573 127.802 11.6618Q127.732 11.7663 127.652 11.8635Q127.573 11.9607 127.484 12.0495Q127.395 12.1384 127.298 12.2182Q127.201 12.2979 127.096 12.3678Q126.991 12.4376 126.881 12.4969Q126.77 12.5561 126.654 12.6042Q126.537 12.6523 126.417 12.6888Q126.297 12.7253 126.174 12.7498Q126.05 12.7744 125.925 12.7867Q125.8 12.799 125.674 12.799L2.5588 12.799Q2.43309 12.799 2.30799 12.7867Q2.18289 12.7744 2.0596 12.7498Q1.93631 12.7253 1.81602 12.6888Q1.69573 12.6523 1.57959 12.6042Q1.46345 12.5561 1.35259 12.4969Q1.24173 12.4376 1.13721 12.3678Q1.03269 12.2979 0.935514 12.2182Q0.838342 12.1384 0.749455 12.0495Q0.660567 11.9607 0.580821 11.8635Q0.501074 11.7663 0.431235 11.6618Q0.361397 11.5573 0.30214 11.4464Q0.242882 11.3355 0.194777 11.2194Q0.146671 11.1033 0.110181 10.983Q0.0736906 10.8627 0.0491666 10.7394Q0.0246426 10.6161 0.0123213 10.491Q0 10.3659 0 10.2402L0 10.2382Q0 10.1125 0.0123213 9.98739Q0.0246426 9.86229 0.0491666 9.739Q0.0736906 9.61571 0.110181 9.49542Q0.146671 9.37512 0.194777 9.25898Q0.242882 9.14285 0.30214 9.03199Q0.361397 8.92112 0.431235 8.8166Q0.501074 8.71208 0.580821 8.61491Q0.660567 8.51774 0.749455 8.42885Q0.838342 8.33996 0.935514 8.26022Q1.03269 8.18047 1.13721 8.11063Q1.24173 8.04079 1.35259 7.98154Q1.46345 7.92228 1.57959 7.87417Q1.69573 7.82607 1.81602 7.78958Q1.93631 7.75309 2.0596 7.72856Q2.18289 7.70404 2.30799 7.69172Q2.43309 7.6794 2.5588 7.6794Z" id="Label" fill="#DDE3E9" fill-rule="evenodd" stroke="none" />
      </g>
      <g id="Text-Stuff-Copy-3" transform="translate(25 199.09547)">
        <path d="M2.5588 0L188.441 0Q188.567 0 188.692 0.0123213Q188.817 0.0246426 188.94 0.0491666Q189.064 0.0736906 189.184 0.110181Q189.304 0.146671 189.42 0.194777Q189.537 0.242882 189.647 0.30214Q189.758 0.361397 189.863 0.431235Q189.967 0.501074 190.064 0.580821Q190.162 0.660567 190.251 0.749455Q190.339 0.838342 190.419 0.935514Q190.499 1.03269 190.569 1.13721Q190.639 1.24173 190.698 1.35259Q190.757 1.46345 190.805 1.57959Q190.853 1.69573 190.89 1.81602Q190.926 1.93631 190.951 2.0596Q190.975 2.18289 190.988 2.30799Q191 2.43309 191 2.5588L191 2.5608Q191 2.6865 190.988 2.8116Q190.975 2.93671 190.951 3.06Q190.926 3.18329 190.89 3.30358Q190.853 3.42387 190.805 3.54001Q190.757 3.65615 190.698 3.76701Q190.639 3.87787 190.569 3.98239Q190.499 4.08691 190.419 4.18408Q190.339 4.28126 190.251 4.37014Q190.162 4.45903 190.064 4.53878Q189.967 4.61852 189.863 4.68836Q189.758 4.7582 189.647 4.81746Q189.537 4.87671 189.42 4.92482Q189.304 4.97293 189.184 5.00942Q189.064 5.04591 188.94 5.07043Q188.817 5.09495 188.692 5.10728Q188.567 5.1196 188.441 5.1196L2.5588 5.1196Q2.43309 5.1196 2.30799 5.10728Q2.18289 5.09495 2.0596 5.07043Q1.93631 5.04591 1.81602 5.00942Q1.69573 4.97293 1.57959 4.92482Q1.46345 4.87671 1.35259 4.81746Q1.24173 4.7582 1.13721 4.68836Q1.03269 4.61852 0.935514 4.53878Q0.838342 4.45903 0.749455 4.37014Q0.660567 4.28126 0.580821 4.18408Q0.501074 4.08691 0.431235 3.98239Q0.361397 3.87787 0.30214 3.76701Q0.242882 3.65615 0.194777 3.54001Q0.146671 3.42387 0.110181 3.30358Q0.0736906 3.18329 0.0491666 3.06Q0.0246426 2.93671 0.0123213 2.8116Q0 2.6865 0 2.5608L0 2.5588Q0 2.43309 0.0123213 2.30799Q0.0246426 2.18289 0.0491666 2.0596Q0.0736906 1.93631 0.110181 1.81602Q0.146671 1.69573 0.194777 1.57959Q0.242882 1.46345 0.30214 1.35259Q0.361397 1.24173 0.431235 1.13721Q0.501074 1.03269 0.580821 0.935514Q0.660567 0.838342 0.749455 0.749455Q0.838342 0.660567 0.935514 0.580821Q1.03269 0.501074 1.13721 0.431235Q1.24173 0.361397 1.35259 0.30214Q1.46345 0.242882 1.57959 0.194777Q1.69573 0.146671 1.81602 0.110181Q1.93631 0.0736906 2.0596 0.0491666Q2.18289 0.0246426 2.30799 0.0123213Q2.43309 0 2.5588 0Z" id="Label" fill="#DDE3E9" fill-rule="evenodd" stroke="none" />
        <path d="M2.5588 7.6794L125.674 7.6794Q125.8 7.6794 125.925 7.69172Q126.05 7.70404 126.174 7.72856Q126.297 7.75309 126.417 7.78958Q126.537 7.82607 126.654 7.87417Q126.77 7.92228 126.881 7.98154Q126.991 8.04079 127.096 8.11063Q127.201 8.18047 127.298 8.26022Q127.395 8.33996 127.484 8.42885Q127.573 8.51774 127.652 8.61491Q127.732 8.71208 127.802 8.8166Q127.872 8.92112 127.931 9.03199Q127.99 9.14285 128.038 9.25898Q128.087 9.37512 128.123 9.49542Q128.16 9.61571 128.184 9.739Q128.209 9.86229 128.221 9.98739Q128.233 10.1125 128.233 10.2382L128.233 10.2402Q128.233 10.3659 128.221 10.491Q128.209 10.6161 128.184 10.7394Q128.16 10.8627 128.123 10.983Q128.087 11.1033 128.038 11.2194Q127.99 11.3355 127.931 11.4464Q127.872 11.5573 127.802 11.6618Q127.732 11.7663 127.652 11.8635Q127.573 11.9607 127.484 12.0495Q127.395 12.1384 127.298 12.2182Q127.201 12.2979 127.096 12.3678Q126.991 12.4376 126.881 12.4969Q126.77 12.5561 126.654 12.6042Q126.537 12.6523 126.417 12.6888Q126.297 12.7253 126.174 12.7498Q126.05 12.7744 125.925 12.7867Q125.8 12.799 125.674 12.799L2.5588 12.799Q2.43309 12.799 2.30799 12.7867Q2.18289 12.7744 2.0596 12.7498Q1.93631 12.7253 1.81602 12.6888Q1.69573 12.6523 1.57959 12.6042Q1.46345 12.5561 1.35259 12.4969Q1.24173 12.4376 1.13721 12.3678Q1.03269 12.2979 0.935514 12.2182Q0.838342 12.1384 0.749455 12.0495Q0.660567 11.9607 0.580821 11.8635Q0.501074 11.7663 0.431235 11.6618Q0.361397 11.5573 0.30214 11.4464Q0.242882 11.3355 0.194777 11.2194Q0.146671 11.1033 0.110181 10.983Q0.0736906 10.8627 0.0491666 10.7394Q0.0246426 10.6161 0.0123213 10.491Q0 10.3659 0 10.2402L0 10.2382Q0 10.1125 0.0123213 9.98739Q0.0246426 9.86229 0.0491666 9.739Q0.0736906 9.61571 0.110181 9.49542Q0.146671 9.37512 0.194777 9.25898Q0.242882 9.14285 0.30214 9.03199Q0.361397 8.92112 0.431235 8.8166Q0.501074 8.71208 0.580821 8.61491Q0.660567 8.51774 0.749455 8.42885Q0.838342 8.33996 0.935514 8.26022Q1.03269 8.18047 1.13721 8.11063Q1.24173 8.04079 1.35259 7.98154Q1.46345 7.92228 1.57959 7.87417Q1.69573 7.82607 1.81602 7.78958Q1.93631 7.75309 2.0596 7.72856Q2.18289 7.70404 2.30799 7.69172Q2.43309 7.6794 2.5588 7.6794Z" id="Label" fill="#DDE3E9" fill-rule="evenodd" stroke="none" />
      </g>
      <g id="Text-Stuff-Copy-4" transform="translate(25 220.42714)">
        <path d="M2.5588 0L188.441 0Q188.567 0 188.692 0.0123213Q188.817 0.0246426 188.94 0.0491666Q189.064 0.0736906 189.184 0.110181Q189.304 0.146671 189.42 0.194777Q189.537 0.242882 189.647 0.30214Q189.758 0.361397 189.863 0.431235Q189.967 0.501074 190.064 0.580821Q190.162 0.660567 190.251 0.749455Q190.339 0.838342 190.419 0.935514Q190.499 1.03269 190.569 1.13721Q190.639 1.24173 190.698 1.35259Q190.757 1.46345 190.805 1.57959Q190.853 1.69573 190.89 1.81602Q190.926 1.93631 190.951 2.0596Q190.975 2.18289 190.988 2.30799Q191 2.43309 191 2.5588L191 2.5608Q191 2.6865 190.988 2.8116Q190.975 2.93671 190.951 3.06Q190.926 3.18329 190.89 3.30358Q190.853 3.42387 190.805 3.54001Q190.757 3.65615 190.698 3.76701Q190.639 3.87787 190.569 3.98239Q190.499 4.08691 190.419 4.18408Q190.339 4.28126 190.251 4.37014Q190.162 4.45903 190.064 4.53878Q189.967 4.61852 189.863 4.68836Q189.758 4.7582 189.647 4.81746Q189.537 4.87671 189.42 4.92482Q189.304 4.97293 189.184 5.00942Q189.064 5.04591 188.94 5.07043Q188.817 5.09495 188.692 5.10728Q188.567 5.1196 188.441 5.1196L2.5588 5.1196Q2.43309 5.1196 2.30799 5.10728Q2.18289 5.09495 2.0596 5.07043Q1.93631 5.04591 1.81602 5.00942Q1.69573 4.97293 1.57959 4.92482Q1.46345 4.87671 1.35259 4.81746Q1.24173 4.7582 1.13721 4.68836Q1.03269 4.61852 0.935514 4.53878Q0.838342 4.45903 0.749455 4.37014Q0.660567 4.28126 0.580821 4.18408Q0.501074 4.08691 0.431235 3.98239Q0.361397 3.87787 0.30214 3.76701Q0.242882 3.65615 0.194777 3.54001Q0.146671 3.42387 0.110181 3.30358Q0.0736906 3.18329 0.0491666 3.06Q0.0246426 2.93671 0.0123213 2.8116Q0 2.6865 0 2.5608L0 2.5588Q0 2.43309 0.0123213 2.30799Q0.0246426 2.18289 0.0491666 2.0596Q0.0736906 1.93631 0.110181 1.81602Q0.146671 1.69573 0.194777 1.57959Q0.242882 1.46345 0.30214 1.35259Q0.361397 1.24173 0.431235 1.13721Q0.501074 1.03269 0.580821 0.935514Q0.660567 0.838342 0.749455 0.749455Q0.838342 0.660567 0.935514 0.580821Q1.03269 0.501074 1.13721 0.431235Q1.24173 0.361397 1.35259 0.30214Q1.46345 0.242882 1.57959 0.194777Q1.69573 0.146671 1.81602 0.110181Q1.93631 0.0736906 2.0596 0.0491666Q2.18289 0.0246426 2.30799 0.0123213Q2.43309 0 2.5588 0Z" id="Label" fill="#DDE3E9" fill-rule="evenodd" stroke="none" />
        <path d="M2.5588 7.6794L125.674 7.6794Q125.8 7.6794 125.925 7.69172Q126.05 7.70404 126.174 7.72856Q126.297 7.75309 126.417 7.78958Q126.537 7.82607 126.654 7.87417Q126.77 7.92228 126.881 7.98154Q126.991 8.04079 127.096 8.11063Q127.201 8.18047 127.298 8.26022Q127.395 8.33996 127.484 8.42885Q127.573 8.51774 127.652 8.61491Q127.732 8.71208 127.802 8.8166Q127.872 8.92112 127.931 9.03199Q127.99 9.14285 128.038 9.25898Q128.087 9.37512 128.123 9.49542Q128.16 9.61571 128.184 9.739Q128.209 9.86229 128.221 9.98739Q128.233 10.1125 128.233 10.2382L128.233 10.2402Q128.233 10.3659 128.221 10.491Q128.209 10.6161 128.184 10.7394Q128.16 10.8627 128.123 10.983Q128.087 11.1033 128.038 11.2194Q127.99 11.3355 127.931 11.4464Q127.872 11.5573 127.802 11.6618Q127.732 11.7663 127.652 11.8635Q127.573 11.9607 127.484 12.0495Q127.395 12.1384 127.298 12.2182Q127.201 12.2979 127.096 12.3678Q126.991 12.4376 126.881 12.4969Q126.77 12.5561 126.654 12.6042Q126.537 12.6523 126.417 12.6888Q126.297 12.7253 126.174 12.7498Q126.05 12.7744 125.925 12.7867Q125.8 12.799 125.674 12.799L2.5588 12.799Q2.43309 12.799 2.30799 12.7867Q2.18289 12.7744 2.0596 12.7498Q1.93631 12.7253 1.81602 12.6888Q1.69573 12.6523 1.57959 12.6042Q1.46345 12.5561 1.35259 12.4969Q1.24173 12.4376 1.13721 12.3678Q1.03269 12.2979 0.935514 12.2182Q0.838342 12.1384 0.749455 12.0495Q0.660567 11.9607 0.580821 11.8635Q0.501074 11.7663 0.431235 11.6618Q0.361397 11.5573 0.30214 11.4464Q0.242882 11.3355 0.194777 11.2194Q0.146671 11.1033 0.110181 10.983Q0.0736906 10.8627 0.0491666 10.7394Q0.0246426 10.6161 0.0123213 10.491Q0 10.3659 0 10.2402L0 10.2382Q0 10.1125 0.0123213 9.98739Q0.0246426 9.86229 0.0491666 9.739Q0.0736906 9.61571 0.110181 9.49542Q0.146671 9.37512 0.194777 9.25898Q0.242882 9.14285 0.30214 9.03199Q0.361397 8.92112 0.431235 8.8166Q0.501074 8.71208 0.580821 8.61491Q0.660567 8.51774 0.749455 8.42885Q0.838342 8.33996 0.935514 8.26022Q1.03269 8.18047 1.13721 8.11063Q1.24173 8.04079 1.35259 7.98154Q1.46345 7.92228 1.57959 7.87417Q1.69573 7.82607 1.81602 7.78958Q1.93631 7.75309 2.0596 7.72856Q2.18289 7.70404 2.30799 7.69172Q2.43309 7.6794 2.5588 7.6794Z" id="Label" fill="#DDE3E9" fill-rule="evenodd" stroke="none" />
      </g>
      <g id="Text-Stuff-Copy-5" transform="translate(25 240.33669)">
        <path d="M2.5588 0L188.441 0Q188.567 0 188.692 0.0123213Q188.817 0.0246426 188.94 0.0491666Q189.064 0.0736906 189.184 0.110181Q189.304 0.146671 189.42 0.194777Q189.537 0.242882 189.647 0.30214Q189.758 0.361397 189.863 0.431235Q189.967 0.501074 190.064 0.580821Q190.162 0.660567 190.251 0.749455Q190.339 0.838342 190.419 0.935514Q190.499 1.03269 190.569 1.13721Q190.639 1.24173 190.698 1.35259Q190.757 1.46345 190.805 1.57959Q190.853 1.69573 190.89 1.81602Q190.926 1.93631 190.951 2.0596Q190.975 2.18289 190.988 2.30799Q191 2.43309 191 2.5588L191 2.5608Q191 2.6865 190.988 2.8116Q190.975 2.93671 190.951 3.06Q190.926 3.18329 190.89 3.30358Q190.853 3.42387 190.805 3.54001Q190.757 3.65615 190.698 3.76701Q190.639 3.87787 190.569 3.98239Q190.499 4.08691 190.419 4.18408Q190.339 4.28126 190.251 4.37014Q190.162 4.45903 190.064 4.53878Q189.967 4.61852 189.863 4.68836Q189.758 4.7582 189.647 4.81746Q189.537 4.87671 189.42 4.92482Q189.304 4.97293 189.184 5.00942Q189.064 5.04591 188.94 5.07043Q188.817 5.09495 188.692 5.10728Q188.567 5.1196 188.441 5.1196L2.5588 5.1196Q2.43309 5.1196 2.30799 5.10728Q2.18289 5.09495 2.0596 5.07043Q1.93631 5.04591 1.81602 5.00942Q1.69573 4.97293 1.57959 4.92482Q1.46345 4.87671 1.35259 4.81746Q1.24173 4.7582 1.13721 4.68836Q1.03269 4.61852 0.935514 4.53878Q0.838342 4.45903 0.749455 4.37014Q0.660567 4.28126 0.580821 4.18408Q0.501074 4.08691 0.431235 3.98239Q0.361397 3.87787 0.30214 3.76701Q0.242882 3.65615 0.194777 3.54001Q0.146671 3.42387 0.110181 3.30358Q0.0736906 3.18329 0.0491666 3.06Q0.0246426 2.93671 0.0123213 2.8116Q0 2.6865 0 2.5608L0 2.5588Q0 2.43309 0.0123213 2.30799Q0.0246426 2.18289 0.0491666 2.0596Q0.0736906 1.93631 0.110181 1.81602Q0.146671 1.69573 0.194777 1.57959Q0.242882 1.46345 0.30214 1.35259Q0.361397 1.24173 0.431235 1.13721Q0.501074 1.03269 0.580821 0.935514Q0.660567 0.838342 0.749455 0.749455Q0.838342 0.660567 0.935514 0.580821Q1.03269 0.501074 1.13721 0.431235Q1.24173 0.361397 1.35259 0.30214Q1.46345 0.242882 1.57959 0.194777Q1.69573 0.146671 1.81602 0.110181Q1.93631 0.0736906 2.0596 0.0491666Q2.18289 0.0246426 2.30799 0.0123213Q2.43309 0 2.5588 0Z" id="Label" fill="#DDE3E9" fill-rule="evenodd" stroke="none" />
        <path d="M2.5588 7.6794L125.674 7.6794Q125.8 7.6794 125.925 7.69172Q126.05 7.70404 126.174 7.72856Q126.297 7.75309 126.417 7.78958Q126.537 7.82607 126.654 7.87417Q126.77 7.92228 126.881 7.98154Q126.991 8.04079 127.096 8.11063Q127.201 8.18047 127.298 8.26022Q127.395 8.33996 127.484 8.42885Q127.573 8.51774 127.652 8.61491Q127.732 8.71208 127.802 8.8166Q127.872 8.92112 127.931 9.03199Q127.99 9.14285 128.038 9.25898Q128.087 9.37512 128.123 9.49542Q128.16 9.61571 128.184 9.739Q128.209 9.86229 128.221 9.98739Q128.233 10.1125 128.233 10.2382L128.233 10.2402Q128.233 10.3659 128.221 10.491Q128.209 10.6161 128.184 10.7394Q128.16 10.8627 128.123 10.983Q128.087 11.1033 128.038 11.2194Q127.99 11.3355 127.931 11.4464Q127.872 11.5573 127.802 11.6618Q127.732 11.7663 127.652 11.8635Q127.573 11.9607 127.484 12.0495Q127.395 12.1384 127.298 12.2182Q127.201 12.2979 127.096 12.3678Q126.991 12.4376 126.881 12.4969Q126.77 12.5561 126.654 12.6042Q126.537 12.6523 126.417 12.6888Q126.297 12.7253 126.174 12.7498Q126.05 12.7744 125.925 12.7867Q125.8 12.799 125.674 12.799L2.5588 12.799Q2.43309 12.799 2.30799 12.7867Q2.18289 12.7744 2.0596 12.7498Q1.93631 12.7253 1.81602 12.6888Q1.69573 12.6523 1.57959 12.6042Q1.46345 12.5561 1.35259 12.4969Q1.24173 12.4376 1.13721 12.3678Q1.03269 12.2979 0.935514 12.2182Q0.838342 12.1384 0.749455 12.0495Q0.660567 11.9607 0.580821 11.8635Q0.501074 11.7663 0.431235 11.6618Q0.361397 11.5573 0.30214 11.4464Q0.242882 11.3355 0.194777 11.2194Q0.146671 11.1033 0.110181 10.983Q0.0736906 10.8627 0.0491666 10.7394Q0.0246426 10.6161 0.0123213 10.491Q0 10.3659 0 10.2402L0 10.2382Q0 10.1125 0.0123213 9.98739Q0.0246426 9.86229 0.0491666 9.739Q0.0736906 9.61571 0.110181 9.49542Q0.146671 9.37512 0.194777 9.25898Q0.242882 9.14285 0.30214 9.03199Q0.361397 8.92112 0.431235 8.8166Q0.501074 8.71208 0.580821 8.61491Q0.660567 8.51774 0.749455 8.42885Q0.838342 8.33996 0.935514 8.26022Q1.03269 8.18047 1.13721 8.11063Q1.24173 8.04079 1.35259 7.98154Q1.46345 7.92228 1.57959 7.87417Q1.69573 7.82607 1.81602 7.78958Q1.93631 7.75309 2.0596 7.72856Q2.18289 7.70404 2.30799 7.69172Q2.43309 7.6794 2.5588 7.6794Z" id="Label" fill="#DDE3E9" fill-rule="evenodd" stroke="none" />
      </g>
    </g>
    <g id="Group-102" transform="translate(0 46)">
      <g id="Group-99" transform="translate(0 144.27492)">
        <g id="Seat" transform="translate(0 28.267794)">
          <g id="Seat" transform="translate(37.167236 0)">
            <path d="M18.6665 0L70.8726 0L77.7133 83.4573L0 83.4573L18.6665 0Z" id="Seat-Stuff" fill="#C5CFD6" fill-rule="evenodd" stroke="none" />
            <path d="M18.6665 0L34.7228 0L44.3329 83.4573L0 83.4573L18.6665 0Z" id="Seat-Stuff" fill="#000000" fill-opacity="0.101960786" fill-rule="evenodd" stroke="none" />
          </g>
        </g>
        <path d="M136.724 44.8021C130.857 57.1939 121.69 87.2749 121.69 87.2749L129.472 90.8162C129.472 90.8162 149.219 59.1956 161.287 37.5802C160.725 42.4463 160.152 47.9247 159.621 53.6837C158.364 67.3266 159.621 96.8016 160.297 105.316C160.722 110.667 168.023 109.546 168.704 105.302C169.386 101.058 182.438 33.9233 182.457 19.6787C182.464 14.9178 173.125 10.6409 167.559 13.9698C163.736 9.90664 156.499 7.56479 152.342 14.2766C149.7 18.5434 143.42 30.6569 136.724 44.8021Z" id="Legs-[skin]" fill="#FFBC65" fill-rule="evenodd" stroke="none" />
        <path d="M122.246 76.1382L148.958 13.1158C155.357 2.86366 173.298 15.202 171.116 21.1482C166.162 34.6478 140.965 78.3517 139.489 82.3737L122.246 76.1382Z" id="LegLower" fill="#173E67" fill-rule="evenodd" stroke="none" />
        <g id="Left-[shoe]" transform="matrix(0.8660254 0.5 -0.5 0.8660254 127.75115 67.55177)">
          <path d="M1.64851 17.5921C1.18961 18.9054 0.675768 20.6009 0.675768 21.6085C0.675768 23.429 1.2848 26.9217 1.2848 26.9217C3.4053 26.9217 39.3993 26.9217 39.3993 26.9217C39.3993 26.9217 40.885 22.0299 37.6841 21.6398C34.4831 21.2498 32.3659 20.9354 32.3659 20.9354L14.9522 13.2036Q14.9067 13.1834 14.8593 13.1678Q14.8119 13.1522 14.7632 13.1414Q14.7145 13.1306 14.665 13.1247Q14.6155 13.1188 14.5656 13.1179Q14.5158 13.1169 14.4661 13.121Q14.4163 13.125 14.3673 13.134Q14.3182 13.1429 14.2703 13.1567Q14.2224 13.1705 14.1761 13.189Q14.1298 13.2076 14.0855 13.2306Q14.0413 13.2536 13.9996 13.2809Q13.9578 13.3083 13.919 13.3396Q13.8802 13.371 13.8448 13.406Q13.8093 13.4411 13.7775 13.4795Q13.7457 13.5179 13.7178 13.5593Q13.69 13.6006 13.6664 13.6446Q13.6429 13.6885 13.6238 13.7346C13.218 14.7151 12.612 16.1791 12.612 16.1791C12.612 16.1791 9.64876 17.5561 7.79612 17.5561C6.81182 17.5561 5.33704 17.0383 4.17081 16.5529C3.15155 16.1286 2.01269 16.5499 1.64851 17.5921Z" id="shoe" fill="#0070FF" fill-rule="evenodd" stroke="none" />
        </g>
        <g id="Right-[shoe]" transform="translate(156.77815 84.803375)">
          <path d="M1.64851 17.5921C1.18961 18.9054 0.675768 20.6009 0.675768 21.6085C0.675768 23.429 1.2848 26.9217 1.2848 26.9217C3.4053 26.9217 39.3993 26.9217 39.3993 26.9217C39.3993 26.9217 40.885 22.0299 37.6841 21.6398C34.4831 21.2498 32.3659 20.9354 32.3659 20.9354L14.9522 13.2036Q14.9067 13.1834 14.8593 13.1678Q14.8119 13.1522 14.7632 13.1414Q14.7145 13.1306 14.665 13.1247Q14.6155 13.1188 14.5656 13.1179Q14.5158 13.1169 14.4661 13.121Q14.4163 13.125 14.3673 13.134Q14.3182 13.1429 14.2703 13.1567Q14.2224 13.1705 14.1761 13.189Q14.1298 13.2076 14.0855 13.2306Q14.0413 13.2536 13.9996 13.2809Q13.9578 13.3083 13.919 13.3396Q13.8802 13.371 13.8448 13.406Q13.8093 13.4411 13.7775 13.4795Q13.7457 13.5179 13.7178 13.5593Q13.69 13.6006 13.6664 13.6446Q13.6429 13.6885 13.6238 13.7346C13.218 14.7151 12.612 16.1791 12.612 16.1791C12.612 16.1791 9.64876 17.5561 7.79612 17.5561C6.81182 17.5561 5.33704 17.0383 4.17081 16.5529C3.15155 16.1286 2.01269 16.5499 1.64851 17.5921Z" id="shoe" fill="#0070FF" fill-rule="evenodd" stroke="none" />
        </g>
        <path d="M184.329 24.521C184.329 42.4017 175.803 84.1103 175.798 88.0475L157.454 88.0616C157.454 88.0616 161.481 32.2372 160.31 31.6358C159.139 31.0344 112.296 36.2938 98.2474 36.2938C77.9889 36.2938 69.6084 23.5702 68.9283 0L109.06 0C117.231 0.870828 159.852 9.43287 175.681 12.3762C182.457 13.6363 184.329 19.5953 184.329 24.521Z" id="Leg-and-Butt" fill="#173E67" fill-rule="evenodd" stroke="none" />
      </g>
      <g id="Group-101" transform="translate(2.6517856 0)">
        <g id="Head" transform="translate(83.025 25.599207)">
          <path d="M13.4564 29.8058C17.8274 32.4352 22.1222 33.7056 24.1382 33.187C29.1935 31.8865 29.6583 13.4295 25.7468 6.1532C21.8353 -1.12312 1.72687 -4.29462 0.713324 10.1221C0.361553 15.1257 2.4667 19.5911 5.57703 23.2347L0 49.1774L16.2 49.1774L13.4564 29.8058Z" id="Head-[skin]" fill="#FFBC65" fill-rule="evenodd" stroke="none" />
        </g>
        <path d="M99.5382 23.3662C97.4031 23.0167 91.6542 22.7765 90.594 22.7766C89.9165 22.7766 89.1822 22.9311 88.781 22.3103C88.4523 21.8018 88.5727 20.942 88.4747 20.352C88.3608 19.6666 88.199 18.99 88.0354 18.3152C87.5699 16.3949 86.8658 14.5679 85.8808 12.8527C84.0325 9.63465 81.3247 7.11396 77.9063 5.64717C74.1314 4.02761 69.8598 3.65676 65.7993 3.98526C61.4541 4.33672 57.5207 5.7683 53.4181 7.11551C49.5086 8.39928 45.4137 8.90459 41.3248 8.27768C37.205 7.64611 34.0921 5.41762 30.6171 3.30251C27.0598 1.13715 22.9943 -0.279075 18.7889 0.0464818C14.8632 0.350479 11.2451 1.96818 7.99898 4.1292C4.96185 6.15109 2.45583 8.58369 1.041 12.0074C-0.481053 15.6903 -0.479659 19.7328 2.02326 22.9876C5.65114 27.7054 12.3862 28.9255 17.9894 28.8042C21.2304 28.7342 24.4135 28.1438 27.4734 27.0697C31.5542 25.6372 35.0806 23.2092 38.8982 21.2393C40.6899 20.3149 42.5418 19.5557 44.4829 19.0088C46.3666 18.4779 48.2219 18.2344 49.9274 19.37C51.7315 20.5714 53.3482 21.7516 55.4122 22.5037C57.3923 23.2252 59.4896 23.6288 61.5991 23.6125C65.7036 23.5808 69.7496 22.3045 73.736 21.4496C76.9868 20.7526 80.465 20.0579 83.7791 20.7279C85.1621 21.0076 87.1821 21.5849 87.6816 23.0192C79.2748 24.5398 75.9731 34.9161 78.3431 42.5332C79.6222 46.6445 87.3111 51.4505 90.3007 49.2891C92.1947 47.9199 91.0448 46.1223 90.3007 44.9356C88.8756 42.663 88.388 39.7439 91.025 38.1617C93.2995 36.7971 95.6911 40.0376 95.7363 40.0341C96.3615 39.9849 101.763 36.936 105.485 32.4868C109.157 32.704 109.714 30.2879 108.837 28.312C107.96 26.3361 102.488 23.8493 99.5382 23.3662Z" id="hair" fill="#173E67" fill-rule="evenodd" stroke="none" />
      </g>
      <g id="Group-100" transform="translate(61.875 61.580757)">
        <path d="M78.4563 15.9722L55.0055 28.7894L63.6655 38.0649L80.7054 22.4955Q93.3413 19.0204 93.1067 17.2962Q93.0913 17.1831 93.0206 17.0776C92.3744 16.1137 91.3322 16.1471 90.3722 16.178C89.6244 16.202 88.9265 16.2244 88.5045 15.7724C87.5409 14.7403 89.3795 11.1316 91.2709 7.78152C93.1623 4.43141 91.1398 4.72305 89.9833 5.20488Q84.3059 9.0402 78.4563 15.9722ZM102.035 33.9566L91.7338 39.6036L92.3204 49.9194C92.3204 49.9194 98.992 45.1142 104.732 43.5171C112.05 41.4808 115.011 39.9258 118.587 35.3784C120.501 32.9454 122.125 28.0544 120.304 26.4615C119.605 25.8505 117.002 27.2941 114.346 28.7669C112.321 29.8894 110.266 31.029 109 31.2891C107.296 31.6392 107.496 29.4347 107.655 27.6731C107.769 26.409 107.863 25.3729 107.218 25.6725C104.203 25.7241 102.035 33.9566 102.035 33.9566Z" id="Arms-[skin]" fill="#FFBC65" fill-rule="evenodd" stroke="none" />
        <path d="M43.5848 25.9342C51.7987 25.8476 62.7521 24.1163 74.4395 16.7131L79.0293 26.9275C70.9677 34.9114 59.6323 41.4711 49.7208 41.1933C41.91 40.9744 37.918 31.5462 43.5848 25.9342Z" id="Sleeve" fill="#0070FF" fill-rule="evenodd" stroke="none" />
        <path d="M21.4313 95.9136C13.6225 94.8976 6.44714 93.9641 2.19505 94.7994C-2.57584 79.3376 1.38575 69.6024 5.04286 60.6155C7.247 55.1991 9.34054 50.0545 9.34502 44.0918C9.35804 26.7276 23.3297 0 25.3854 0L44.1318 0C44.9699 10.7453 48.547 22.3794 52.1471 34.0883C52.9879 36.8227 53.8298 39.5612 54.6385 42.2934C68.2624 45.3795 98.5144 34.637 98.5144 34.637C98.5144 34.637 106.151 50.4038 105.575 57.118C87.9667 66.2968 72.8748 70.3892 60.441 70.6594C60.8362 78.0217 59.9382 85.0272 56.9215 91.4283C52.8795 100.005 36.0459 97.8151 21.4313 95.9136Z" id="Clothes" fill="#0070FF" fill-rule="evenodd" stroke="none" />
      </g>
    </g>
    <g id="Group-106" transform="matrix(-1 0 0 1 455 55)">
      <g id="Group-103" transform="translate(28 105.35126)">
        <path d="M25.8323 0L47.3381 74.8112L57.4534 130.981L67.6061 130.981L57.4715 2.99223e-29L25.8323 0Z" id="Leg-[skin]" fill="#FFBC65" fill-rule="evenodd" stroke="none" />
        <path d="M25.8323 0L47.3381 74.8112L57.4534 130.981L67.6061 130.981L57.4715 2.99223e-29L25.8323 0Z" id="Shadow" fill="#000000" fill-opacity="0.101960786" fill-rule="evenodd" stroke="none" />
        <path d="M16.1673 0C17.6679 38.864 17.0761 60.0616 16.7402 63.5925C16.4044 67.1235 14.4977 90.7715 1.50513 132.166L12.0648 132.166C29.2714 92.4551 35.278 68.807 37.2515 63.5925C39.2249 58.378 45.0535 37.1805 53.5628 0L16.1673 0Z" id="Leg-[skin]" fill="#FFBC65" fill-rule="evenodd" stroke="none" />
        <path d="M25.3706 -1.49612e-29C30.9646 25.7427 40.6398 66.8347 54.3963 123.276L69.2458 123.276C70.3426 65.3444 65.6768 27.2158 57.5969 0L25.3706 -1.49612e-29Z" id="Pant" fill="#89C5CC" fill-rule="evenodd" stroke="none" />
        <path d="M16.0923 0C17.5619 38.864 13.7532 77.1525 1.95533 123.881L17.7989 123.881C35.0371 84.7628 47.3922 46.6633 55.8362 0L16.0923 0Z" id="Pant" fill="#89C5CC" fill-rule="evenodd" stroke="none" />
        <g id="Left-[shoe]" transform="translate(0 117.94184)">
          <path d="M0 21.9289C0 21.9289 0.582648 12.4461 0.582648 12.4461C5.69963 13.9569 13.4009 11.2608 13.4009 11.2608C20.0688 16.0288 29.5165 18.456 33.57 19.2578C34.653 19.4721 35.3211 20.4253 35.0178 21.4869L34.3762 23.7069L13.4009 23.7069L1.1653 23.7069C1.1653 23.7069 0 21.9289 0 21.9289Z" id="Shoe" fill="#173E67" fill-rule="evenodd" stroke="none" />
        </g>
        <g id="Right-[shoe]" transform="translate(55.187096 117.94184)">
          <path d="M0 21.9289C0 21.9289 0.582648 12.4461 0.582648 12.4461C5.69963 13.9569 13.4009 11.2608 13.4009 11.2608C20.0688 16.0288 29.5165 18.456 33.57 19.2578C34.653 19.4721 35.3211 20.4253 35.0178 21.4869L34.3762 23.7069L13.4009 23.7069L1.1653 23.7069C1.1653 23.7069 0 21.9289 0 21.9289Z" id="Shoe" fill="#173E67" fill-rule="evenodd" stroke="none" />
        </g>
      </g>
      <g id="Group-105" transform="translate(50.75 0)">
        <path d="M18.5463 38.4C25.2927 38.4 27.7463 30.28 31.5791 25.824C34.3214 22.6358 39.0017 23.5865 40.387 19.1231C43.8707 7.89943 34.5468 0 22.3832 0C10.2196 0 2.01823 6.92804 0.247365 17.3427C-1.5235 27.7574 6.38277 38.4 18.5463 38.4Z" id="Hair-Back" fill="#191847" fill-rule="evenodd" stroke="none" />
        <g id="Head" transform="translate(14.4143095 10.682028)">
          <path d="M11.7676 26.2566C15.5901 28.5729 19.3459 29.6921 21.1089 29.2352C25.5298 28.0896 25.9362 11.8304 22.5156 5.4205C19.095 -0.989387 1.51016 -3.78323 0.623804 8.9168C0.316179 13.3246 2.15713 17.2582 4.87713 20.468L0 43.3216L14.1669 43.3216L11.7676 26.2566Z" id="Head-[skin]" fill="#FFBC65" fill-rule="evenodd" stroke="none" />
        </g>
        <path d="M15.959 10.682C5.10756 21.3641 16.0004 32.7177 18.9851 32.7177C19.1777 31.1765 19.7654 29.6773 20.6265 28.2504C20.1692 27.6549 19.8981 26.9143 19.8981 26.1116C19.8981 24.1451 21.5252 22.5509 23.5323 22.5509C24.1592 22.5509 24.749 22.7064 25.2637 22.9802C29.6142 19.2501 35.0706 16.6498 37.7798 16.1385C42.492 15.2492 26.8104 -4.76837e-07 15.959 10.682Z" id="Hair" fill="#191847" fill-rule="evenodd" stroke="none" />
      </g>
      <g id="Group-104" transform="translate(0 43.37993)">
        <path d="M13.9893 84.2248C16.1813 80.9703 28.8616 46.3612 28.8616 46.3612L39.2721 47.889C39.2721 47.889 22.5099 84.6398 21.2993 86.7609C19.7267 89.5163 21.1177 94.0417 22.0609 97.1103C22.2068 97.585 22.3421 98.0248 22.4539 98.4179C20.4725 98.9961 19.7188 97.85 18.9241 96.6418C18.0265 95.2772 17.0768 93.8332 14.2471 94.7047C13.1539 95.0414 12.1035 95.4738 11.0773 95.8963C7.53267 97.3558 4.27636 98.6965 0.536287 95.5614C-0.056654 95.0644 -0.556134 93.4392 1.3285 92.4922C6.02382 90.133 12.9176 85.8159 13.9893 84.2248ZM126.948 68.1392L109.206 52.9388L104.356 62.9747L122.34 72.0445C127.148 78.6325 129.898 81.4315 130.59 80.4415C131.173 79.6069 130.82 78.7621 130.496 77.9839C130.243 77.3778 130.008 76.812 130.244 76.3231C130.783 75.2064 134.294 75.576 137.61 76.0707C140.926 76.5654 140.058 74.9975 139.306 74.2004Q134.414 70.7517 126.948 68.1392Z" id="Arms-[skin]" fill="#FFBC65" fill-rule="evenodd" stroke="none" />
        <path d="M72.3733 3.47508L78.8241 1.31937C87.5746 23.4088 100.625 44.7815 122.429 62.8342L117.037 72.2346C97.8745 60.8275 79.7343 51.9663 72.3733 34.8496C69.9027 29.1047 72.1717 10.3442 72.3733 3.47508Z" id="Coat-Back" fill="#5C63AB" fill-rule="evenodd" stroke="none" />
        <path d="M50.2171 65.6436C50.2171 65.6436 77.9351 68.6133 93.8513 65.6436C95.1659 65.3983 95.3733 63.1741 94.7637 61.6646C85.2699 38.1578 78.7596 17.6467 78.7596 1.31937C76.1467 2.65057 69.6137 1.71836 69.6137 1.71836C57.9089 18.5442 52.5286 37.8499 50.2171 65.6436Z" id="Shirt" fill="#323337" fill-rule="evenodd" stroke="none" />
        <path d="M66.2594 0.308072C66.5615 0.102343 66.721 0 66.721 0L66.7038 0.308072L71.5818 0.308072C72.7176 7.05834 76.2999 98.4673 87.359 128.369L27.5204 128.369C28.7829 101.71 38.5096 69.829 48.5856 42.7585C41.1504 50.2338 32.4671 62.7646 25.4494 83.6243L14.241 80.7168C25.6634 30.9791 59.1289 5.32803 65.6225 0.749874C65.6859 0.601814 65.749 0.454544 65.8117 0.308072L66.2594 0.308072Z" id="Coat-Front" fill="#5C63AB" fill-rule="evenodd" stroke="none" />
      </g>
    </g>
  </g>
</svg>