<?xml version="1.0" encoding="utf-8"?>
<svg width="675px" height="325px" viewBox="0 0 675 325" version="1.1" xmlns:xlink="http://www.w3.org/1999/xlink" xmlns="http://www.w3.org/2000/svg">
  <g id="Group-4" transform="translate(0.5 0.5)">
    <path d="M204.577 32L528.579 32Q528.775 32 528.972 32.0096Q529.168 32.0193 529.363 32.0385Q529.559 32.0578 529.753 32.0866Q529.947 32.1154 530.14 32.1537Q530.332 32.192 530.523 32.2397Q530.713 32.2874 530.901 32.3444Q531.089 32.4014 531.274 32.4676Q531.459 32.5337 531.64 32.6089Q531.822 32.684 531.999 32.768Q532.177 32.8519 532.35 32.9445Q532.523 33.0371 532.691 33.138Q532.86 33.239 533.023 33.3481Q533.186 33.4572 533.344 33.5741Q533.502 33.6911 533.654 33.8157Q533.805 33.9403 533.951 34.0721Q534.096 34.204 534.235 34.3429Q534.374 34.4817 534.506 34.6272Q534.638 34.7727 534.762 34.9245Q534.887 35.0763 535.004 35.234Q535.121 35.3917 535.23 35.555Q535.339 35.7183 535.44 35.8867Q535.541 36.0551 535.634 36.2283Q535.726 36.4015 535.81 36.579Q535.894 36.7565 535.969 36.9379Q536.044 37.1193 536.11 37.3042Q536.177 37.4891 536.234 37.677Q536.291 37.8649 536.338 38.0554Q536.386 38.2459 536.424 38.4385Q536.463 38.6311 536.492 38.8253Q536.52 39.0195 536.54 39.215Q536.559 39.4104 536.568 39.6065Q536.578 39.8026 536.578 39.999L536.578 256.001Q536.578 256.197 536.568 256.393Q536.559 256.59 536.54 256.785Q536.52 256.98 536.492 257.175Q536.463 257.369 536.424 257.561Q536.386 257.754 536.338 257.945Q536.291 258.135 536.234 258.323Q536.177 258.511 536.11 258.696Q536.044 258.881 535.969 259.062Q535.894 259.243 535.81 259.421Q535.726 259.598 535.634 259.772Q535.541 259.945 535.44 260.113Q535.339 260.282 535.23 260.445Q535.121 260.608 535.004 260.766Q534.887 260.924 534.762 261.076Q534.638 261.227 534.506 261.373Q534.374 261.518 534.235 261.657Q534.096 261.796 533.951 261.928Q533.805 262.06 533.654 262.184Q533.502 262.309 533.344 262.426Q533.186 262.543 533.023 262.652Q532.86 262.761 532.691 262.862Q532.523 262.963 532.35 263.055Q532.177 263.148 531.999 263.232Q531.822 263.316 531.64 263.391Q531.459 263.466 531.274 263.532Q531.089 263.599 530.901 263.656Q530.713 263.713 530.523 263.76Q530.332 263.808 530.14 263.846Q529.947 263.885 529.753 263.913Q529.559 263.942 529.363 263.961Q529.168 263.981 528.972 263.99Q528.775 264 528.579 264L204.577 264Q204.381 264 204.185 263.99Q203.988 263.981 203.793 263.961Q203.598 263.942 203.403 263.913Q203.209 263.885 203.017 263.846Q202.824 263.808 202.633 263.76Q202.443 263.713 202.255 263.656Q202.067 263.599 201.882 263.532Q201.697 263.466 201.516 263.391Q201.335 263.316 201.157 263.232Q200.98 263.148 200.806 263.055Q200.633 262.963 200.465 262.862Q200.296 262.761 200.133 262.652Q199.97 262.543 199.812 262.426Q199.654 262.309 199.503 262.184Q199.351 262.06 199.205 261.928Q199.06 261.796 198.921 261.657Q198.782 261.518 198.65 261.373Q198.518 261.227 198.394 261.076Q198.269 260.924 198.152 260.766Q198.035 260.608 197.926 260.445Q197.817 260.282 197.716 260.113Q197.615 259.945 197.523 259.772Q197.43 259.598 197.346 259.421Q197.262 259.243 197.187 259.062Q197.112 258.881 197.046 258.696Q196.98 258.511 196.923 258.323Q196.866 258.135 196.818 257.945Q196.77 257.754 196.732 257.562Q196.693 257.369 196.665 257.175Q196.636 256.98 196.617 256.785Q196.597 256.59 196.588 256.393Q196.578 256.197 196.578 256.001L196.578 39.999Q196.578 39.8026 196.588 39.6065Q196.597 39.4104 196.617 39.215Q196.636 39.0195 196.665 38.8253Q196.693 38.6311 196.732 38.4385Q196.77 38.2459 196.818 38.0554Q196.866 37.8649 196.923 37.677Q196.98 37.4891 197.046 37.3042Q197.112 37.1193 197.187 36.9379Q197.262 36.7565 197.346 36.579Q197.43 36.4015 197.523 36.2283Q197.615 36.0551 197.716 35.8867Q197.817 35.7183 197.926 35.555Q198.035 35.3917 198.152 35.234Q198.269 35.0763 198.394 34.9245Q198.518 34.7727 198.65 34.6272Q198.782 34.4817 198.921 34.3428Q199.06 34.204 199.205 34.0721Q199.351 33.9403 199.503 33.8157Q199.654 33.6911 199.812 33.5741Q199.97 33.4572 200.133 33.3481Q200.296 33.239 200.465 33.138Q200.633 33.0371 200.806 32.9445Q200.98 32.8519 201.157 32.768Q201.335 32.684 201.516 32.6089Q201.697 32.5337 201.882 32.4676Q202.067 32.4014 202.255 32.3444Q202.443 32.2874 202.634 32.2397Q202.824 32.192 203.017 32.1537Q203.209 32.1154 203.403 32.0866Q203.598 32.0578 203.793 32.0385Q203.988 32.0193 204.185 32.0096Q204.381 32 204.577 32Z" id="Container" fill="#F2F2F2" fill-rule="evenodd" stroke="none" />
    <path d="M204.577 32L528.579 32Q528.775 32 528.972 32.0096Q529.168 32.0193 529.363 32.0385Q529.559 32.0578 529.753 32.0866Q529.947 32.1154 530.14 32.1537Q530.332 32.192 530.523 32.2397Q530.713 32.2874 530.901 32.3444Q531.089 32.4014 531.274 32.4676Q531.459 32.5337 531.64 32.6089Q531.822 32.684 531.999 32.768Q532.177 32.8519 532.35 32.9445Q532.523 33.0371 532.691 33.138Q532.86 33.239 533.023 33.3481Q533.186 33.4572 533.344 33.5741Q533.502 33.6911 533.654 33.8157Q533.805 33.9403 533.951 34.0721Q534.096 34.204 534.235 34.3429Q534.374 34.4817 534.506 34.6272Q534.638 34.7727 534.762 34.9245Q534.887 35.0763 535.004 35.234Q535.121 35.3917 535.23 35.555Q535.339 35.7183 535.44 35.8867Q535.541 36.0551 535.634 36.2283Q535.726 36.4015 535.81 36.579Q535.894 36.7565 535.969 36.9379Q536.044 37.1193 536.11 37.3042Q536.177 37.4891 536.234 37.677Q536.291 37.8649 536.338 38.0554Q536.386 38.2459 536.424 38.4385Q536.463 38.6311 536.492 38.8253Q536.52 39.0195 536.54 39.215Q536.559 39.4104 536.568 39.6065Q536.578 39.8026 536.578 39.999L536.578 56.1759L196.578 56.1759L196.578 39.999Q196.578 39.8026 196.588 39.6065Q196.597 39.4104 196.617 39.215Q196.636 39.0195 196.665 38.8253Q196.693 38.6311 196.732 38.4385Q196.77 38.2459 196.818 38.0554Q196.866 37.8649 196.923 37.677Q196.98 37.4891 197.046 37.3042Q197.112 37.1193 197.187 36.9379Q197.262 36.7565 197.346 36.579Q197.43 36.4015 197.523 36.2283Q197.615 36.0551 197.716 35.8867Q197.817 35.7183 197.926 35.555Q198.035 35.3917 198.152 35.234Q198.269 35.0763 198.394 34.9245Q198.518 34.7727 198.65 34.6272Q198.782 34.4817 198.921 34.3428Q199.06 34.204 199.205 34.0721Q199.351 33.9403 199.503 33.8157Q199.654 33.6911 199.812 33.5741Q199.97 33.4572 200.133 33.3481Q200.296 33.239 200.465 33.138Q200.633 33.0371 200.806 32.9445Q200.98 32.8519 201.157 32.768Q201.335 32.684 201.516 32.6089Q201.697 32.5337 201.882 32.4676Q202.067 32.4014 202.255 32.3444Q202.443 32.2874 202.634 32.2397Q202.824 32.192 203.017 32.1537Q203.209 32.1154 203.403 32.0866Q203.598 32.0578 203.793 32.0385Q203.988 32.0193 204.185 32.0096Q204.381 32 204.577 32Z" id="Header" fill="#C5CFD6" fill-rule="evenodd" stroke="none" />
    <g id="Buttons" transform="translate(208.57812 38)">
      <path d="M2 4C3.10457 4 4 3.10457 4 2C4 0.895431 3.10457 0 2 0C0.895431 0 0 0.895431 0 2C0 3.10457 0.895431 4 2 4Z" id="buttons" fill="#F2F2F2" fill-rule="evenodd" stroke="none" />
      <path d="M8 4C9.10457 4 10 3.10457 10 2C10 0.895431 9.10457 0 8 0C6.89543 0 6 0.895431 6 2C6 3.10457 6.89543 4 8 4Z" id="buttons" fill="#F2F2F2" fill-rule="evenodd" stroke="none" />
      <path d="M14 4C15.1046 4 16 3.10457 16 2C16 0.895431 15.1046 0 14 0C12.8954 0 12 0.895431 12 2C12 3.10457 12.8954 4 14 4Z" id="buttons" fill="#F2F2F2" fill-rule="evenodd" stroke="none" />
    </g>
    <g id="Group-9-Copy-2" transform="translate(209 130)">
      <path d="M3.999 0L314.001 0Q314.197 0 314.393 0.0192563Q314.589 0.0385126 314.781 0.0768396Q314.974 0.115167 315.162 0.172196Q315.35 0.229224 315.531 0.304406Q315.713 0.379587 315.886 0.472197Q316.059 0.564807 316.223 0.673953Q316.386 0.783099 316.538 0.907731Q316.69 1.03236 316.829 1.17128Q316.968 1.3102 317.092 1.46206Q317.217 1.61393 317.326 1.77727Q317.435 1.94062 317.528 2.11388Q317.62 2.28715 317.696 2.46865Q317.771 2.65015 317.828 2.83815Q317.885 3.02615 317.923 3.21883Q317.961 3.41152 317.981 3.60703Q318 3.80254 318 3.999L318 21.001Q318 21.1975 317.981 21.393Q317.961 21.5885 317.923 21.7812Q317.885 21.9738 317.828 22.1618Q317.771 22.3498 317.696 22.5313Q317.62 22.7129 317.528 22.8861Q317.435 23.0594 317.326 23.2227Q317.217 23.3861 317.092 23.5379Q316.968 23.6898 316.829 23.8287Q316.69 23.9676 316.538 24.0923Q316.386 24.2169 316.223 24.326Q316.059 24.4352 315.886 24.5278Q315.713 24.6204 315.531 24.6956Q315.35 24.7708 315.162 24.8278Q314.974 24.8848 314.781 24.9232Q314.589 24.9615 314.393 24.9807Q314.197 25 314.001 25L3.999 25Q3.80254 25 3.60703 24.9807Q3.41152 24.9615 3.21883 24.9232Q3.02615 24.8848 2.83815 24.8278Q2.65015 24.7708 2.46865 24.6956Q2.28715 24.6204 2.11388 24.5278Q1.94062 24.4352 1.77727 24.326Q1.61393 24.2169 1.46206 24.0923Q1.3102 23.9676 1.17128 23.8287Q1.03236 23.6898 0.907731 23.5379Q0.783099 23.3861 0.673953 23.2227Q0.564807 23.0594 0.472197 22.8861Q0.379587 22.7129 0.304406 22.5313Q0.229224 22.3498 0.172196 22.1618Q0.115167 21.9738 0.0768396 21.7812Q0.0385126 21.5885 0.0192563 21.393Q0 21.1975 0 21.001L0 3.999Q0 3.80254 0.0192563 3.60703Q0.0385126 3.41152 0.0768396 3.21883Q0.115167 3.02615 0.172196 2.83815Q0.229224 2.65015 0.304406 2.46865Q0.379587 2.28715 0.472197 2.11388Q0.564807 1.94062 0.673953 1.77727Q0.783099 1.61393 0.907731 1.46206Q1.03236 1.3102 1.17128 1.17128Q1.3102 1.03236 1.46206 0.907731Q1.61393 0.783099 1.77727 0.673953Q1.94062 0.564807 2.11388 0.472197Q2.28715 0.379587 2.46865 0.304406Q2.65015 0.229224 2.83815 0.172196Q3.02615 0.115167 3.21883 0.0768396Q3.41152 0.0385126 3.60703 0.0192563Q3.80254 0 3.999 0Z" id="Container" fill="#FFFFFF" fill-rule="evenodd" stroke="none" />
      <path d="M10.999 10L268.001 10Q268.148 10 268.295 10.0144Q268.442 10.0289 268.586 10.0576Q268.731 10.0864 268.872 10.1291Q269.013 10.1719 269.149 10.2283Q269.285 10.2847 269.415 10.3541Q269.545 10.4236 269.667 10.5054Q269.79 10.5873 269.904 10.6807Q270.017 10.7742 270.122 10.8784Q270.226 10.9826 270.319 11.0965Q270.413 11.2103 270.495 11.3328Q270.576 11.4553 270.646 11.5853Q270.715 11.7152 270.772 11.8513Q270.828 11.9874 270.871 12.1284Q270.914 12.2694 270.942 12.4139Q270.971 12.5584 270.986 12.705Q271 12.8517 271 12.999L271 13.001Q271 13.1483 270.986 13.295Q270.971 13.4416 270.942 13.5861Q270.914 13.7306 270.871 13.8716Q270.828 14.0126 270.772 14.1487Q270.715 14.2848 270.646 14.4147Q270.576 14.5447 270.495 14.6672Q270.413 14.7897 270.319 14.9035Q270.226 15.0174 270.122 15.1216Q270.017 15.2258 269.904 15.3193Q269.79 15.4127 269.667 15.4946Q269.545 15.5764 269.415 15.6459Q269.285 15.7153 269.149 15.7717Q269.013 15.8281 268.872 15.8709Q268.731 15.9136 268.586 15.9424Q268.442 15.9711 268.295 15.9856Q268.148 16 268.001 16L10.999 16Q10.8517 16 10.705 15.9856Q10.5584 15.9711 10.4139 15.9424Q10.2694 15.9136 10.1284 15.8709Q9.98745 15.8281 9.85133 15.7717Q9.71522 15.7153 9.58528 15.6459Q9.45535 15.5764 9.33284 15.4946Q9.21034 15.4127 9.09645 15.3193Q8.98257 15.2258 8.87839 15.1216Q8.77421 15.0174 8.68074 14.9035Q8.58728 14.7897 8.50542 14.6672Q8.42357 14.5447 8.35412 14.4147Q8.28467 14.2848 8.22828 14.1487Q8.1719 14.0126 8.12914 13.8716Q8.08637 13.7306 8.05762 13.5861Q8.02888 13.4416 8.01444 13.295Q8 13.1483 8 13.001L8 12.999Q8 12.8517 8.01444 12.705Q8.02888 12.5584 8.05762 12.4139Q8.08637 12.2694 8.12914 12.1284Q8.1719 11.9874 8.22828 11.8513Q8.28467 11.7152 8.35412 11.5853Q8.42357 11.4553 8.50542 11.3328Q8.58728 11.2103 8.68074 11.0965Q8.77421 10.9826 8.87839 10.8784Q8.98257 10.7742 9.09645 10.6807Q9.21034 10.5873 9.33284 10.5054Q9.45535 10.4236 9.58528 10.3541Q9.71522 10.2847 9.85133 10.2283Q9.98745 10.1719 10.1284 10.1291Q10.2694 10.0864 10.4139 10.0576Q10.5584 10.0289 10.705 10.0144Q10.8517 10 10.999 10Z" id="Label" fill="#DDE3E9" fill-rule="evenodd" stroke="none" />
    </g>
    <g id="Group-9-Copy-6" transform="translate(209 97)">
      <path d="M3.999 0L314.001 0Q314.197 0 314.393 0.0192563Q314.589 0.0385126 314.781 0.0768396Q314.974 0.115167 315.162 0.172196Q315.35 0.229224 315.531 0.304406Q315.713 0.379587 315.886 0.472197Q316.059 0.564807 316.223 0.673953Q316.386 0.783099 316.538 0.907731Q316.69 1.03236 316.829 1.17128Q316.968 1.3102 317.092 1.46206Q317.217 1.61393 317.326 1.77727Q317.435 1.94062 317.528 2.11388Q317.62 2.28715 317.696 2.46865Q317.771 2.65015 317.828 2.83815Q317.885 3.02615 317.923 3.21883Q317.961 3.41152 317.981 3.60703Q318 3.80254 318 3.999L318 21.001Q318 21.1975 317.981 21.393Q317.961 21.5885 317.923 21.7812Q317.885 21.9738 317.828 22.1618Q317.771 22.3498 317.696 22.5313Q317.62 22.7129 317.528 22.8861Q317.435 23.0594 317.326 23.2227Q317.217 23.3861 317.092 23.5379Q316.968 23.6898 316.829 23.8287Q316.69 23.9676 316.538 24.0923Q316.386 24.2169 316.223 24.326Q316.059 24.4352 315.886 24.5278Q315.713 24.6204 315.531 24.6956Q315.35 24.7708 315.162 24.8278Q314.974 24.8848 314.781 24.9232Q314.589 24.9615 314.393 24.9807Q314.197 25 314.001 25L3.999 25Q3.80254 25 3.60703 24.9807Q3.41152 24.9615 3.21883 24.9232Q3.02615 24.8848 2.83815 24.8278Q2.65015 24.7708 2.46865 24.6956Q2.28715 24.6204 2.11388 24.5278Q1.94062 24.4352 1.77727 24.326Q1.61393 24.2169 1.46206 24.0923Q1.3102 23.9676 1.17128 23.8287Q1.03236 23.6898 0.907731 23.5379Q0.783099 23.3861 0.673953 23.2227Q0.564807 23.0594 0.472197 22.8861Q0.379587 22.7129 0.304406 22.5313Q0.229224 22.3498 0.172196 22.1618Q0.115167 21.9738 0.0768396 21.7812Q0.0385126 21.5885 0.0192563 21.393Q0 21.1975 0 21.001L0 3.999Q0 3.80254 0.0192563 3.60703Q0.0385126 3.41152 0.0768396 3.21883Q0.115167 3.02615 0.172196 2.83815Q0.229224 2.65015 0.304406 2.46865Q0.379587 2.28715 0.472197 2.11388Q0.564807 1.94062 0.673953 1.77727Q0.783099 1.61393 0.907731 1.46206Q1.03236 1.3102 1.17128 1.17128Q1.3102 1.03236 1.46206 0.907731Q1.61393 0.783099 1.77727 0.673953Q1.94062 0.564807 2.11388 0.472197Q2.28715 0.379587 2.46865 0.304406Q2.65015 0.229224 2.83815 0.172196Q3.02615 0.115167 3.21883 0.0768396Q3.41152 0.0385126 3.60703 0.0192563Q3.80254 0 3.999 0Z" id="Container" fill="#FFFFFF" fill-rule="evenodd" stroke="none" />
      <path d="M10.999 10L268.001 10Q268.148 10 268.295 10.0144Q268.442 10.0289 268.586 10.0576Q268.731 10.0864 268.872 10.1291Q269.013 10.1719 269.149 10.2283Q269.285 10.2847 269.415 10.3541Q269.545 10.4236 269.667 10.5054Q269.79 10.5873 269.904 10.6807Q270.017 10.7742 270.122 10.8784Q270.226 10.9826 270.319 11.0965Q270.413 11.2103 270.495 11.3328Q270.576 11.4553 270.646 11.5853Q270.715 11.7152 270.772 11.8513Q270.828 11.9874 270.871 12.1284Q270.914 12.2694 270.942 12.4139Q270.971 12.5584 270.986 12.705Q271 12.8517 271 12.999L271 13.001Q271 13.1483 270.986 13.295Q270.971 13.4416 270.942 13.5861Q270.914 13.7306 270.871 13.8716Q270.828 14.0126 270.772 14.1487Q270.715 14.2848 270.646 14.4147Q270.576 14.5447 270.495 14.6672Q270.413 14.7897 270.319 14.9035Q270.226 15.0174 270.122 15.1216Q270.017 15.2258 269.904 15.3193Q269.79 15.4127 269.667 15.4946Q269.545 15.5764 269.415 15.6459Q269.285 15.7153 269.149 15.7717Q269.013 15.8281 268.872 15.8709Q268.731 15.9136 268.586 15.9424Q268.442 15.9711 268.295 15.9856Q268.148 16 268.001 16L10.999 16Q10.8517 16 10.705 15.9856Q10.5584 15.9711 10.4139 15.9424Q10.2694 15.9136 10.1284 15.8709Q9.98745 15.8281 9.85133 15.7717Q9.71522 15.7153 9.58528 15.6459Q9.45535 15.5764 9.33284 15.4946Q9.21034 15.4127 9.09645 15.3193Q8.98257 15.2258 8.87839 15.1216Q8.77421 15.0174 8.68074 14.9035Q8.58728 14.7897 8.50542 14.6672Q8.42357 14.5447 8.35412 14.4147Q8.28467 14.2848 8.22828 14.1487Q8.1719 14.0126 8.12914 13.8716Q8.08637 13.7306 8.05762 13.5861Q8.02888 13.4416 8.01444 13.295Q8 13.1483 8 13.001L8 12.999Q8 12.8517 8.01444 12.705Q8.02888 12.5584 8.05762 12.4139Q8.08637 12.2694 8.12914 12.1284Q8.1719 11.9874 8.22828 11.8513Q8.28467 11.7152 8.35412 11.5853Q8.42357 11.4553 8.50542 11.3328Q8.58728 11.2103 8.68074 11.0965Q8.77421 10.9826 8.87839 10.8784Q8.98257 10.7742 9.09645 10.6807Q9.21034 10.5873 9.33284 10.5054Q9.45535 10.4236 9.58528 10.3541Q9.71522 10.2847 9.85133 10.2283Q9.98745 10.1719 10.1284 10.1291Q10.2694 10.0864 10.4139 10.0576Q10.5584 10.0289 10.705 10.0144Q10.8517 10 10.999 10Z" id="Label" fill="#DDE3E9" fill-rule="evenodd" stroke="none" />
    </g>
    <g id="Group-9-Copy-7" transform="translate(209 64)">
      <path d="M3.999 0L314.001 0Q314.197 0 314.393 0.0192563Q314.589 0.0385126 314.781 0.0768396Q314.974 0.115167 315.162 0.172196Q315.35 0.229224 315.531 0.304406Q315.713 0.379587 315.886 0.472197Q316.059 0.564807 316.223 0.673953Q316.386 0.783099 316.538 0.907731Q316.69 1.03236 316.829 1.17128Q316.968 1.3102 317.092 1.46206Q317.217 1.61393 317.326 1.77727Q317.435 1.94062 317.528 2.11388Q317.62 2.28715 317.696 2.46865Q317.771 2.65015 317.828 2.83815Q317.885 3.02615 317.923 3.21883Q317.961 3.41152 317.981 3.60703Q318 3.80254 318 3.999L318 21.001Q318 21.1975 317.981 21.393Q317.961 21.5885 317.923 21.7812Q317.885 21.9738 317.828 22.1618Q317.771 22.3498 317.696 22.5313Q317.62 22.7129 317.528 22.8861Q317.435 23.0594 317.326 23.2227Q317.217 23.3861 317.092 23.5379Q316.968 23.6898 316.829 23.8287Q316.69 23.9676 316.538 24.0923Q316.386 24.2169 316.223 24.326Q316.059 24.4352 315.886 24.5278Q315.713 24.6204 315.531 24.6956Q315.35 24.7708 315.162 24.8278Q314.974 24.8848 314.781 24.9232Q314.589 24.9615 314.393 24.9807Q314.197 25 314.001 25L3.999 25Q3.80254 25 3.60703 24.9807Q3.41152 24.9615 3.21883 24.9232Q3.02615 24.8848 2.83815 24.8278Q2.65015 24.7708 2.46865 24.6956Q2.28715 24.6204 2.11388 24.5278Q1.94062 24.4352 1.77727 24.326Q1.61393 24.2169 1.46206 24.0923Q1.3102 23.9676 1.17128 23.8287Q1.03236 23.6898 0.907731 23.5379Q0.783099 23.3861 0.673953 23.2227Q0.564807 23.0594 0.472197 22.8861Q0.379587 22.7129 0.304406 22.5313Q0.229224 22.3498 0.172196 22.1618Q0.115167 21.9738 0.0768396 21.7812Q0.0385126 21.5885 0.0192563 21.393Q0 21.1975 0 21.001L0 3.999Q0 3.80254 0.0192563 3.60703Q0.0385126 3.41152 0.0768396 3.21883Q0.115167 3.02615 0.172196 2.83815Q0.229224 2.65015 0.304406 2.46865Q0.379587 2.28715 0.472197 2.11388Q0.564807 1.94062 0.673953 1.77727Q0.783099 1.61393 0.907731 1.46206Q1.03236 1.3102 1.17128 1.17128Q1.3102 1.03236 1.46206 0.907731Q1.61393 0.783099 1.77727 0.673953Q1.94062 0.564807 2.11388 0.472197Q2.28715 0.379587 2.46865 0.304406Q2.65015 0.229224 2.83815 0.172196Q3.02615 0.115167 3.21883 0.0768396Q3.41152 0.0385126 3.60703 0.0192563Q3.80254 0 3.999 0Z" id="Container" fill="#FFFFFF" fill-rule="evenodd" stroke="none" />
      <path d="M10.999 10L268.001 10Q268.148 10 268.295 10.0144Q268.442 10.0289 268.586 10.0576Q268.731 10.0864 268.872 10.1291Q269.013 10.1719 269.149 10.2283Q269.285 10.2847 269.415 10.3541Q269.545 10.4236 269.667 10.5054Q269.79 10.5873 269.904 10.6807Q270.017 10.7742 270.122 10.8784Q270.226 10.9826 270.319 11.0965Q270.413 11.2103 270.495 11.3328Q270.576 11.4553 270.646 11.5853Q270.715 11.7152 270.772 11.8513Q270.828 11.9874 270.871 12.1284Q270.914 12.2694 270.942 12.4139Q270.971 12.5584 270.986 12.705Q271 12.8517 271 12.999L271 13.001Q271 13.1483 270.986 13.295Q270.971 13.4416 270.942 13.5861Q270.914 13.7306 270.871 13.8716Q270.828 14.0126 270.772 14.1487Q270.715 14.2848 270.646 14.4147Q270.576 14.5447 270.495 14.6672Q270.413 14.7897 270.319 14.9035Q270.226 15.0174 270.122 15.1216Q270.017 15.2258 269.904 15.3193Q269.79 15.4127 269.667 15.4946Q269.545 15.5764 269.415 15.6459Q269.285 15.7153 269.149 15.7717Q269.013 15.8281 268.872 15.8709Q268.731 15.9136 268.586 15.9424Q268.442 15.9711 268.295 15.9856Q268.148 16 268.001 16L10.999 16Q10.8517 16 10.705 15.9856Q10.5584 15.9711 10.4139 15.9424Q10.2694 15.9136 10.1284 15.8709Q9.98745 15.8281 9.85133 15.7717Q9.71522 15.7153 9.58528 15.6459Q9.45535 15.5764 9.33284 15.4946Q9.21034 15.4127 9.09645 15.3193Q8.98257 15.2258 8.87839 15.1216Q8.77421 15.0174 8.68074 14.9035Q8.58728 14.7897 8.50542 14.6672Q8.42357 14.5447 8.35412 14.4147Q8.28467 14.2848 8.22828 14.1487Q8.1719 14.0126 8.12914 13.8716Q8.08637 13.7306 8.05762 13.5861Q8.02888 13.4416 8.01444 13.295Q8 13.1483 8 13.001L8 12.999Q8 12.8517 8.01444 12.705Q8.02888 12.5584 8.05762 12.4139Q8.08637 12.2694 8.12914 12.1284Q8.1719 11.9874 8.22828 11.8513Q8.28467 11.7152 8.35412 11.5853Q8.42357 11.4553 8.50542 11.3328Q8.58728 11.2103 8.68074 11.0965Q8.77421 10.9826 8.87839 10.8784Q8.98257 10.7742 9.09645 10.6807Q9.21034 10.5873 9.33284 10.5054Q9.45535 10.4236 9.58528 10.3541Q9.71522 10.2847 9.85133 10.2283Q9.98745 10.1719 10.1284 10.1291Q10.2694 10.0864 10.4139 10.0576Q10.5584 10.0289 10.705 10.0144Q10.8517 10 10.999 10Z" id="Label" fill="#DDE3E9" fill-rule="evenodd" stroke="none" />
    </g>
    <g id="Group-9-Copy-3" transform="translate(209 163)">
      <path d="M3.999 0L314.001 0Q314.197 0 314.393 0.0192563Q314.589 0.0385126 314.781 0.0768396Q314.974 0.115167 315.162 0.172196Q315.35 0.229224 315.531 0.304406Q315.713 0.379587 315.886 0.472197Q316.059 0.564807 316.223 0.673953Q316.386 0.783099 316.538 0.907731Q316.69 1.03236 316.829 1.17128Q316.968 1.3102 317.092 1.46206Q317.217 1.61393 317.326 1.77727Q317.435 1.94062 317.528 2.11388Q317.62 2.28715 317.696 2.46865Q317.771 2.65015 317.828 2.83815Q317.885 3.02615 317.923 3.21883Q317.961 3.41152 317.981 3.60703Q318 3.80254 318 3.999L318 21.001Q318 21.1975 317.981 21.393Q317.961 21.5885 317.923 21.7812Q317.885 21.9738 317.828 22.1618Q317.771 22.3498 317.696 22.5313Q317.62 22.7129 317.528 22.8861Q317.435 23.0594 317.326 23.2227Q317.217 23.3861 317.092 23.5379Q316.968 23.6898 316.829 23.8287Q316.69 23.9676 316.538 24.0923Q316.386 24.2169 316.223 24.326Q316.059 24.4352 315.886 24.5278Q315.713 24.6204 315.531 24.6956Q315.35 24.7708 315.162 24.8278Q314.974 24.8848 314.781 24.9232Q314.589 24.9615 314.393 24.9807Q314.197 25 314.001 25L3.999 25Q3.80254 25 3.60703 24.9807Q3.41152 24.9615 3.21883 24.9232Q3.02615 24.8848 2.83815 24.8278Q2.65015 24.7708 2.46865 24.6956Q2.28715 24.6204 2.11388 24.5278Q1.94062 24.4352 1.77727 24.326Q1.61393 24.2169 1.46206 24.0923Q1.3102 23.9676 1.17128 23.8287Q1.03236 23.6898 0.907731 23.5379Q0.783099 23.3861 0.673953 23.2227Q0.564807 23.0594 0.472197 22.8861Q0.379587 22.7129 0.304406 22.5313Q0.229224 22.3498 0.172196 22.1618Q0.115167 21.9738 0.0768396 21.7812Q0.0385126 21.5885 0.0192563 21.393Q0 21.1975 0 21.001L0 3.999Q0 3.80254 0.0192563 3.60703Q0.0385126 3.41152 0.0768396 3.21883Q0.115167 3.02615 0.172196 2.83815Q0.229224 2.65015 0.304406 2.46865Q0.379587 2.28715 0.472197 2.11388Q0.564807 1.94062 0.673953 1.77727Q0.783099 1.61393 0.907731 1.46206Q1.03236 1.3102 1.17128 1.17128Q1.3102 1.03236 1.46206 0.907731Q1.61393 0.783099 1.77727 0.673953Q1.94062 0.564807 2.11388 0.472197Q2.28715 0.379587 2.46865 0.304406Q2.65015 0.229224 2.83815 0.172196Q3.02615 0.115167 3.21883 0.0768396Q3.41152 0.0385126 3.60703 0.0192563Q3.80254 0 3.999 0Z" id="Container" fill="#FFFFFF" fill-rule="evenodd" stroke="none" />
      <path d="M10.999 10L268.001 10Q268.148 10 268.295 10.0144Q268.442 10.0289 268.586 10.0576Q268.731 10.0864 268.872 10.1291Q269.013 10.1719 269.149 10.2283Q269.285 10.2847 269.415 10.3541Q269.545 10.4236 269.667 10.5054Q269.79 10.5873 269.904 10.6807Q270.017 10.7742 270.122 10.8784Q270.226 10.9826 270.319 11.0965Q270.413 11.2103 270.495 11.3328Q270.576 11.4553 270.646 11.5853Q270.715 11.7152 270.772 11.8513Q270.828 11.9874 270.871 12.1284Q270.914 12.2694 270.942 12.4139Q270.971 12.5584 270.986 12.705Q271 12.8517 271 12.999L271 13.001Q271 13.1483 270.986 13.295Q270.971 13.4416 270.942 13.5861Q270.914 13.7306 270.871 13.8716Q270.828 14.0126 270.772 14.1487Q270.715 14.2848 270.646 14.4147Q270.576 14.5447 270.495 14.6672Q270.413 14.7897 270.319 14.9035Q270.226 15.0174 270.122 15.1216Q270.017 15.2258 269.904 15.3193Q269.79 15.4127 269.667 15.4946Q269.545 15.5764 269.415 15.6459Q269.285 15.7153 269.149 15.7717Q269.013 15.8281 268.872 15.8709Q268.731 15.9136 268.586 15.9424Q268.442 15.9711 268.295 15.9856Q268.148 16 268.001 16L10.999 16Q10.8517 16 10.705 15.9856Q10.5584 15.9711 10.4139 15.9424Q10.2694 15.9136 10.1284 15.8709Q9.98745 15.8281 9.85133 15.7717Q9.71522 15.7153 9.58528 15.6459Q9.45535 15.5764 9.33284 15.4946Q9.21034 15.4127 9.09645 15.3193Q8.98257 15.2258 8.87839 15.1216Q8.77421 15.0174 8.68074 14.9035Q8.58728 14.7897 8.50542 14.6672Q8.42357 14.5447 8.35412 14.4147Q8.28467 14.2848 8.22828 14.1487Q8.1719 14.0126 8.12914 13.8716Q8.08637 13.7306 8.05762 13.5861Q8.02888 13.4416 8.01444 13.295Q8 13.1483 8 13.001L8 12.999Q8 12.8517 8.01444 12.705Q8.02888 12.5584 8.05762 12.4139Q8.08637 12.2694 8.12914 12.1284Q8.1719 11.9874 8.22828 11.8513Q8.28467 11.7152 8.35412 11.5853Q8.42357 11.4553 8.50542 11.3328Q8.58728 11.2103 8.68074 11.0965Q8.77421 10.9826 8.87839 10.8784Q8.98257 10.7742 9.09645 10.6807Q9.21034 10.5873 9.33284 10.5054Q9.45535 10.4236 9.58528 10.3541Q9.71522 10.2847 9.85133 10.2283Q9.98745 10.1719 10.1284 10.1291Q10.2694 10.0864 10.4139 10.0576Q10.5584 10.0289 10.705 10.0144Q10.8517 10 10.999 10Z" id="Label" fill="#DDE3E9" fill-rule="evenodd" stroke="none" />
    </g>
    <g id="Group-9-Copy-4" transform="translate(209 196)">
      <path d="M3.999 0L314.001 0Q314.197 0 314.393 0.0192563Q314.589 0.0385126 314.781 0.0768396Q314.974 0.115167 315.162 0.172196Q315.35 0.229224 315.531 0.304406Q315.713 0.379587 315.886 0.472197Q316.059 0.564807 316.223 0.673953Q316.386 0.783099 316.538 0.907731Q316.69 1.03236 316.829 1.17128Q316.968 1.3102 317.092 1.46206Q317.217 1.61393 317.326 1.77727Q317.435 1.94062 317.528 2.11388Q317.62 2.28715 317.696 2.46865Q317.771 2.65015 317.828 2.83815Q317.885 3.02615 317.923 3.21883Q317.961 3.41152 317.981 3.60703Q318 3.80254 318 3.999L318 21.001Q318 21.1975 317.981 21.393Q317.961 21.5885 317.923 21.7812Q317.885 21.9738 317.828 22.1618Q317.771 22.3498 317.696 22.5313Q317.62 22.7129 317.528 22.8861Q317.435 23.0594 317.326 23.2227Q317.217 23.3861 317.092 23.5379Q316.968 23.6898 316.829 23.8287Q316.69 23.9676 316.538 24.0923Q316.386 24.2169 316.223 24.326Q316.059 24.4352 315.886 24.5278Q315.713 24.6204 315.531 24.6956Q315.35 24.7708 315.162 24.8278Q314.974 24.8848 314.781 24.9232Q314.589 24.9615 314.393 24.9807Q314.197 25 314.001 25L3.999 25Q3.80254 25 3.60703 24.9807Q3.41152 24.9615 3.21883 24.9232Q3.02615 24.8848 2.83815 24.8278Q2.65015 24.7708 2.46865 24.6956Q2.28715 24.6204 2.11388 24.5278Q1.94062 24.4352 1.77727 24.326Q1.61393 24.2169 1.46206 24.0923Q1.3102 23.9676 1.17128 23.8287Q1.03236 23.6898 0.907731 23.5379Q0.783099 23.3861 0.673953 23.2227Q0.564807 23.0594 0.472197 22.8861Q0.379587 22.7129 0.304406 22.5313Q0.229224 22.3498 0.172196 22.1618Q0.115167 21.9738 0.0768396 21.7812Q0.0385126 21.5885 0.0192563 21.393Q0 21.1975 0 21.001L0 3.999Q0 3.80254 0.0192563 3.60703Q0.0385126 3.41152 0.0768396 3.21883Q0.115167 3.02615 0.172196 2.83815Q0.229224 2.65015 0.304406 2.46865Q0.379587 2.28715 0.472197 2.11388Q0.564807 1.94062 0.673953 1.77727Q0.783099 1.61393 0.907731 1.46206Q1.03236 1.3102 1.17128 1.17128Q1.3102 1.03236 1.46206 0.907731Q1.61393 0.783099 1.77727 0.673953Q1.94062 0.564807 2.11388 0.472197Q2.28715 0.379587 2.46865 0.304406Q2.65015 0.229224 2.83815 0.172196Q3.02615 0.115167 3.21883 0.0768396Q3.41152 0.0385126 3.60703 0.0192563Q3.80254 0 3.999 0Z" id="Container" fill="#FFFFFF" fill-rule="evenodd" stroke="none" />
      <path d="M10.999 10L268.001 10Q268.148 10 268.295 10.0144Q268.442 10.0289 268.586 10.0576Q268.731 10.0864 268.872 10.1291Q269.013 10.1719 269.149 10.2283Q269.285 10.2847 269.415 10.3541Q269.545 10.4236 269.667 10.5054Q269.79 10.5873 269.904 10.6807Q270.017 10.7742 270.122 10.8784Q270.226 10.9826 270.319 11.0965Q270.413 11.2103 270.495 11.3328Q270.576 11.4553 270.646 11.5853Q270.715 11.7152 270.772 11.8513Q270.828 11.9874 270.871 12.1284Q270.914 12.2694 270.942 12.4139Q270.971 12.5584 270.986 12.705Q271 12.8517 271 12.999L271 13.001Q271 13.1483 270.986 13.295Q270.971 13.4416 270.942 13.5861Q270.914 13.7306 270.871 13.8716Q270.828 14.0126 270.772 14.1487Q270.715 14.2848 270.646 14.4147Q270.576 14.5447 270.495 14.6672Q270.413 14.7897 270.319 14.9035Q270.226 15.0174 270.122 15.1216Q270.017 15.2258 269.904 15.3193Q269.79 15.4127 269.667 15.4946Q269.545 15.5764 269.415 15.6459Q269.285 15.7153 269.149 15.7717Q269.013 15.8281 268.872 15.8709Q268.731 15.9136 268.586 15.9424Q268.442 15.9711 268.295 15.9856Q268.148 16 268.001 16L10.999 16Q10.8517 16 10.705 15.9856Q10.5584 15.9711 10.4139 15.9424Q10.2694 15.9136 10.1284 15.8709Q9.98745 15.8281 9.85133 15.7717Q9.71522 15.7153 9.58528 15.6459Q9.45535 15.5764 9.33284 15.4946Q9.21034 15.4127 9.09645 15.3193Q8.98257 15.2258 8.87839 15.1216Q8.77421 15.0174 8.68074 14.9035Q8.58728 14.7897 8.50542 14.6672Q8.42357 14.5447 8.35412 14.4147Q8.28467 14.2848 8.22828 14.1487Q8.1719 14.0126 8.12914 13.8716Q8.08637 13.7306 8.05762 13.5861Q8.02888 13.4416 8.01444 13.295Q8 13.1483 8 13.001L8 12.999Q8 12.8517 8.01444 12.705Q8.02888 12.5584 8.05762 12.4139Q8.08637 12.2694 8.12914 12.1284Q8.1719 11.9874 8.22828 11.8513Q8.28467 11.7152 8.35412 11.5853Q8.42357 11.4553 8.50542 11.3328Q8.58728 11.2103 8.68074 11.0965Q8.77421 10.9826 8.87839 10.8784Q8.98257 10.7742 9.09645 10.6807Q9.21034 10.5873 9.33284 10.5054Q9.45535 10.4236 9.58528 10.3541Q9.71522 10.2847 9.85133 10.2283Q9.98745 10.1719 10.1284 10.1291Q10.2694 10.0864 10.4139 10.0576Q10.5584 10.0289 10.705 10.0144Q10.8517 10 10.999 10Z" id="Label" fill="#DDE3E9" fill-rule="evenodd" stroke="none" />
    </g>
    <g id="Group-9-Copy-5" transform="translate(209 229)">
      <path d="M3.999 0L314.001 0Q314.197 0 314.393 0.0192563Q314.589 0.0385126 314.781 0.0768396Q314.974 0.115167 315.162 0.172196Q315.35 0.229224 315.531 0.304406Q315.713 0.379587 315.886 0.472197Q316.059 0.564807 316.223 0.673953Q316.386 0.783099 316.538 0.907731Q316.69 1.03236 316.829 1.17128Q316.968 1.3102 317.092 1.46206Q317.217 1.61393 317.326 1.77727Q317.435 1.94062 317.528 2.11388Q317.62 2.28715 317.696 2.46865Q317.771 2.65015 317.828 2.83815Q317.885 3.02615 317.923 3.21883Q317.961 3.41152 317.981 3.60703Q318 3.80254 318 3.999L318 21.001Q318 21.1975 317.981 21.393Q317.961 21.5885 317.923 21.7812Q317.885 21.9738 317.828 22.1618Q317.771 22.3498 317.696 22.5313Q317.62 22.7129 317.528 22.8861Q317.435 23.0594 317.326 23.2227Q317.217 23.3861 317.092 23.5379Q316.968 23.6898 316.829 23.8287Q316.69 23.9676 316.538 24.0923Q316.386 24.2169 316.223 24.326Q316.059 24.4352 315.886 24.5278Q315.713 24.6204 315.531 24.6956Q315.35 24.7708 315.162 24.8278Q314.974 24.8848 314.781 24.9232Q314.589 24.9615 314.393 24.9807Q314.197 25 314.001 25L3.999 25Q3.80254 25 3.60703 24.9807Q3.41152 24.9615 3.21883 24.9232Q3.02615 24.8848 2.83815 24.8278Q2.65015 24.7708 2.46865 24.6956Q2.28715 24.6204 2.11388 24.5278Q1.94062 24.4352 1.77727 24.326Q1.61393 24.2169 1.46206 24.0923Q1.3102 23.9676 1.17128 23.8287Q1.03236 23.6898 0.907731 23.5379Q0.783099 23.3861 0.673953 23.2227Q0.564807 23.0594 0.472197 22.8861Q0.379587 22.7129 0.304406 22.5313Q0.229224 22.3498 0.172196 22.1618Q0.115167 21.9738 0.0768396 21.7812Q0.0385126 21.5885 0.0192563 21.393Q0 21.1975 0 21.001L0 3.999Q0 3.80254 0.0192563 3.60703Q0.0385126 3.41152 0.0768396 3.21883Q0.115167 3.02615 0.172196 2.83815Q0.229224 2.65015 0.304406 2.46865Q0.379587 2.28715 0.472197 2.11388Q0.564807 1.94062 0.673953 1.77727Q0.783099 1.61393 0.907731 1.46206Q1.03236 1.3102 1.17128 1.17128Q1.3102 1.03236 1.46206 0.907731Q1.61393 0.783099 1.77727 0.673953Q1.94062 0.564807 2.11388 0.472197Q2.28715 0.379587 2.46865 0.304406Q2.65015 0.229224 2.83815 0.172196Q3.02615 0.115167 3.21883 0.0768396Q3.41152 0.0385126 3.60703 0.0192563Q3.80254 0 3.999 0Z" id="Container" fill="#FFFFFF" fill-rule="evenodd" stroke="none" />
      <path d="M10.999 10L268.001 10Q268.148 10 268.295 10.0144Q268.442 10.0289 268.586 10.0576Q268.731 10.0864 268.872 10.1291Q269.013 10.1719 269.149 10.2283Q269.285 10.2847 269.415 10.3541Q269.545 10.4236 269.667 10.5054Q269.79 10.5873 269.904 10.6807Q270.017 10.7742 270.122 10.8784Q270.226 10.9826 270.319 11.0965Q270.413 11.2103 270.495 11.3328Q270.576 11.4553 270.646 11.5853Q270.715 11.7152 270.772 11.8513Q270.828 11.9874 270.871 12.1284Q270.914 12.2694 270.942 12.4139Q270.971 12.5584 270.986 12.705Q271 12.8517 271 12.999L271 13.001Q271 13.1483 270.986 13.295Q270.971 13.4416 270.942 13.5861Q270.914 13.7306 270.871 13.8716Q270.828 14.0126 270.772 14.1487Q270.715 14.2848 270.646 14.4147Q270.576 14.5447 270.495 14.6672Q270.413 14.7897 270.319 14.9035Q270.226 15.0174 270.122 15.1216Q270.017 15.2258 269.904 15.3193Q269.79 15.4127 269.667 15.4946Q269.545 15.5764 269.415 15.6459Q269.285 15.7153 269.149 15.7717Q269.013 15.8281 268.872 15.8709Q268.731 15.9136 268.586 15.9424Q268.442 15.9711 268.295 15.9856Q268.148 16 268.001 16L10.999 16Q10.8517 16 10.705 15.9856Q10.5584 15.9711 10.4139 15.9424Q10.2694 15.9136 10.1284 15.8709Q9.98745 15.8281 9.85133 15.7717Q9.71522 15.7153 9.58528 15.6459Q9.45535 15.5764 9.33284 15.4946Q9.21034 15.4127 9.09645 15.3193Q8.98257 15.2258 8.87839 15.1216Q8.77421 15.0174 8.68074 14.9035Q8.58728 14.7897 8.50542 14.6672Q8.42357 14.5447 8.35412 14.4147Q8.28467 14.2848 8.22828 14.1487Q8.1719 14.0126 8.12914 13.8716Q8.08637 13.7306 8.05762 13.5861Q8.02888 13.4416 8.01444 13.295Q8 13.1483 8 13.001L8 12.999Q8 12.8517 8.01444 12.705Q8.02888 12.5584 8.05762 12.4139Q8.08637 12.2694 8.12914 12.1284Q8.1719 11.9874 8.22828 11.8513Q8.28467 11.7152 8.35412 11.5853Q8.42357 11.4553 8.50542 11.3328Q8.58728 11.2103 8.68074 11.0965Q8.77421 10.9826 8.87839 10.8784Q8.98257 10.7742 9.09645 10.6807Q9.21034 10.5873 9.33284 10.5054Q9.45535 10.4236 9.58528 10.3541Q9.71522 10.2847 9.85133 10.2283Q9.98745 10.1719 10.1284 10.1291Q10.2694 10.0864 10.4139 10.0576Q10.5584 10.0289 10.705 10.0144Q10.8517 10 10.999 10Z" id="Label" fill="#DDE3E9" fill-rule="evenodd" stroke="none" />
    </g>
    <g id="Group-26">
      <g id="Head" transform="translate(112.58133 27)">
        <path d="M19.9354 44.2443C26.411 48.1475 32.7736 50.0333 35.7603 49.2635C43.2496 47.333 43.9382 19.9351 38.1433 9.13393C32.3485 -1.66719 2.55833 -6.37502 1.05678 15.0255C0.535635 22.4529 3.65436 29.0814 8.26227 34.4901L0 73L24 73L19.9354 44.2443Z" id="Head-[skin]" fill="#FFBC65" fill-rule="evenodd" stroke="none" />
      </g>
      <path d="M141.245 24.37C137.965 23.37 133.205 23.0308 131.202 23.2603C132.341 20.5308 132.793 17.4899 132.425 14.5291C132.067 11.6521 130.781 9.20237 129.592 6.63538C129.044 5.45217 128.423 4.2754 127.497 3.37038C126.554 2.44834 125.36 1.83973 124.108 1.54937C122.826 1.25215 121.486 1.2769 120.203 1.54663C119.635 1.66593 119.126 1.9255 118.569 2.06979C117.999 2.21763 117.722 1.86077 117.309 1.50213C116.311 0.637974 114.849 0.211378 113.587 0.0587004C112.172 -0.112518 110.703 0.101021 109.353 0.566391C108.039 1.01943 106.776 1.75509 105.826 2.82681C105.403 3.30387 105.019 3.84687 104.769 4.44638C104.667 4.6924 104.65 4.83815 104.405 4.92827C104.178 5.0117 103.912 5.01412 103.678 5.09353C101.412 5.86095 99.4746 7.61166 98.4198 9.85951C97.8043 11.1709 97.5128 13.4798 97.5927 16.0677C97.6725 18.6555 100.009 25.4081 102.195 27.8711C104.146 30.0695 107.013 31.5203 109.78 32.1553C107.944 34.2548 106.721 36.8784 105.817 39.5467C104.835 42.445 104.227 45.4566 104.002 48.5251C103.789 51.4405 103.769 54.5235 104.453 57.3767C105.092 60.0448 106.459 62.2337 108.742 63.6223C109.788 64.2584 110.913 64.7363 112.044 65.173C113.159 65.6034 114.278 66.0219 115.446 66.2634C117.656 66.7203 120.203 66.6418 121.906 64.8823C122.52 64.2479 123.195 63.4508 123.643 62.6759C123.804 62.3972 123.901 62.215 123.705 61.9426C123.471 61.6164 123.092 61.3664 122.791 61.1112C121.074 59.6561 120.012 57.7135 119.744 55.4049C119.472 53.0626 120.101 50.0393 122.379 49.017C125.19 47.7552 128.286 49.2036 130.784 50.5537C131.846 46.806 134.026 43.4315 137.445 41.7124C141.227 39.8105 145.566 39.5879 149.453 37.9561C150.465 37.5309 151.497 37.0482 152.242 36.1818C152.554 35.8197 152.919 35.35 153.044 34.871C153.207 34.242 152.802 33.7145 152.488 33.2241C150.826 30.6236 144.524 25.37 141.245 24.37Z" id="hair" fill="#2E2E2E" fill-rule="evenodd" stroke="none" />
      <g id="Seat" transform="matrix(1 -1.7484555E-07 1.7484555E-07 1 45.579727 224.00002)">
        <path d="M80.5 91.5484C110.012 91.5484 133.935 68.7257 133.935 40.5726C133.935 12.4194 110.012 -10.4032 80.5 -10.4032C50.9885 -10.4032 27.0647 12.4194 27.0647 40.5726C27.0647 68.7257 50.9885 91.5484 80.5 91.5484Z" id="Ballsy-Ball" fill="#C5CFD6" fill-rule="evenodd" stroke="none" />
      </g>
      <g id="BottomSkinny-Jeans-1-Copy" transform="translate(90.579735 192)">
        <path d="M79.6217 52.9324C72.7317 67.5729 61.9655 103.113 61.9655 103.113L71.1057 107.297C71.1057 107.297 94.297 69.938 108.47 44.4C107.81 50.1492 107.137 56.6217 106.514 63.4257C105.037 79.5444 106.513 114.368 107.308 124.428C107.807 130.75 116.381 129.425 117.181 124.411C117.981 119.397 133.311 40.0794 133.333 23.2498C133.341 17.625 122.373 12.5719 115.836 16.5049C111.346 11.7044 102.847 8.9376 97.9651 16.8674C94.8614 21.9086 87.4867 36.2203 79.6217 52.9324Z" id="Legs-[skin]" fill="#FFBC65" fill-rule="evenodd" stroke="none" />
        <path d="M62.6189 89.9551L93.9899 15.4959C101.505 3.38333 122.576 17.9607 120.013 24.9859C114.195 40.9353 84.6029 92.5703 82.8694 97.3222L62.6189 89.9551Z" id="LegLower" fill="#0E1E29" fill-rule="evenodd" stroke="none" />
        <g id="Left-[shoe]" transform="matrix(0.8660254 0.5 -0.5 0.8660254 62.27172 93.36366)">
          <path d="M1.26218 5.33556C0.697274 6.92309 2.15989e-16 9.14177 0 10.4214C0 12.5723 0.715272 16.6988 0.715272 16.6988C3.20567 16.6988 45.4786 16.6988 45.4786 16.6988C45.4786 16.6988 47.2235 10.9192 43.4641 10.4584C39.7048 9.99756 37.2183 9.6262 37.2183 9.6262L16.6067 0.419723Q16.561 0.399328 16.5135 0.383595Q16.4661 0.367862 16.4172 0.356948Q16.3684 0.346034 16.3188 0.340049Q16.2691 0.334063 16.2192 0.333066Q16.1692 0.332069 16.1193 0.33607Q16.0695 0.34007 16.0203 0.34903Q15.9711 0.357989 15.923 0.371816Q15.8749 0.385644 15.8285 0.404202Q15.7821 0.42276 15.7377 0.445863Q15.6934 0.468966 15.6515 0.496382Q15.6097 0.523799 15.5708 0.555255Q15.532 0.586711 15.4964 0.621893Q15.4609 0.657074 15.429 0.695629Q15.3972 0.734184 15.3693 0.775726Q15.3415 0.817269 15.318 0.861385Q15.2944 0.9055 15.2754 0.951747C14.8 2.1071 14.0184 4.00667 14.0184 4.00667C14.0184 4.00667 10.5383 5.63356 8.36244 5.63356C7.11341 5.63356 5.19188 4.91936 3.78157 4.31093C2.76786 3.8736 1.6323 4.29543 1.26218 5.33556Z" id="shoe" fill="#3B3B3B" fill-rule="evenodd" stroke="none" />
        </g>
        <g id="Right-[shoe]" transform="translate(103.968254 115.30121)">
          <path d="M1.26218 5.33556C0.697274 6.92309 2.15989e-16 9.14177 0 10.4214C0 12.5723 0.715272 16.6988 0.715272 16.6988C3.20567 16.6988 45.4786 16.6988 45.4786 16.6988C45.4786 16.6988 47.2235 10.9192 43.4641 10.4584C39.7048 9.99756 37.2183 9.6262 37.2183 9.6262L16.6067 0.419723Q16.561 0.399328 16.5135 0.383595Q16.4661 0.367862 16.4172 0.356948Q16.3684 0.346034 16.3188 0.340049Q16.2691 0.334063 16.2192 0.333066Q16.1692 0.332069 16.1193 0.33607Q16.0695 0.34007 16.0203 0.34903Q15.9711 0.357989 15.923 0.371816Q15.8749 0.385644 15.8285 0.404202Q15.7821 0.42276 15.7377 0.445863Q15.6934 0.468966 15.6515 0.496382Q15.6097 0.523799 15.5708 0.555255Q15.532 0.586711 15.4964 0.621893Q15.4609 0.657074 15.429 0.695629Q15.3972 0.734184 15.3693 0.775726Q15.3415 0.817269 15.318 0.861385Q15.2944 0.9055 15.2754 0.951747C14.8 2.1071 14.0184 4.00667 14.0184 4.00667C14.0184 4.00667 10.5383 5.63356 8.36244 5.63356C7.11341 5.63356 5.19188 4.91936 3.78157 4.31093C2.76786 3.8736 1.6323 4.29543 1.26218 5.33556Z" id="shoe" fill="#3B3B3B" fill-rule="evenodd" stroke="none" />
        </g>
        <path d="M135.532 28.9708C135.532 50.0964 125.519 99.374 125.512 104.026L103.968 104.042C103.968 104.042 106.349 40.1566 107.323 37.3768C105.947 36.6663 50.9332 42.8801 34.4336 42.8801C10.6411 42.8801 0.798656 27.8475 0 0L47.132 0C56.7285 1.02886 106.785 11.1447 125.375 14.6221C133.333 16.1109 135.532 23.1513 135.532 28.9708Z" id="Leg-and-Butt" fill="#0E1E29" fill-rule="evenodd" stroke="none" />
      </g>
      <g id="Group-20" transform="translate(0 70.61024)">
        <path d="M194.58 89.0069L230.814 73.0939C237.162 66.7688 243.291 61.9614 249.202 58.6717C250.97 58.109 253.99 57.939 250.768 62.6449C247.546 67.3509 244.369 72.4458 245.656 74.0951C246.943 75.7443 250.673 73.924 252.146 76.606C253.128 78.3941 246.842 80.5329 233.287 83.0226L206.15 103.829L194.58 89.0069Z" id="Arm" fill="#FFBC65" fill-rule="evenodd" stroke="none" />
        <g id="Group-5" transform="matrix(0.9781476 -0.2079117 0.2079117 0.9781476 -1.9073486E-06 25.418682)">
          <path d="M43.8502 73.8608L62 77.4961C43.7473 111.835 33.9587 130.034 32.6342 132.095C29.6541 136.731 32.4346 145.227 33.4617 149.701C27.0182 151.215 29.5593 141.425 21.4052 143.469C13.9625 145.335 7.65201 150.123 0.712007 143.665C-0.141226 142.871 -0.765832 140.39 2.14327 139.117C9.3909 135.946 20.0987 130.008 21.8349 127.703C24.2026 124.559 31.5411 106.612 43.8502 73.8608Z" id="Arm" fill="#FFBC65" fill-rule="evenodd" stroke="none" />
          <path d="M114.365 9.32673L121.324 10.8059L121.728 14.6025C84.108 72.9827 55.8879 110.753 37.0682 127.913L23.2531 123.402C39.3149 67.9716 67.3664 30.8868 114.365 9.32673Z" id="Clothes-Front" fill="#8B4932" fill-rule="evenodd" stroke="none" />
        </g>
        <path d="M124.275 16.7218L132.922 15.2386C151.756 33.5087 159.442 77.4022 171.994 83.2123C183.861 88.7054 200.683 83.3898 220.68 76.2123L226.803 89.8943C208.635 109.55 169.929 126.157 154.24 116.676C129.156 101.52 123.365 47.3834 124.275 16.7218Z" id="Coat-Back-Copy" fill="#8B4932" fill-rule="evenodd" stroke="none" />
        <path d="M86.5797 125.39C86.5797 125.39 138.587 125.39 163.091 125.39C166.587 125.39 165.929 120.341 165.423 117.794C159.59 88.3935 136.821 56.7013 136.821 14.8505L114.752 11.3898C96.4972 40.7482 90.1846 76.8943 86.5797 125.39Z" id="Shirt-Copy" fill="#DDE3E9" fill-rule="evenodd" stroke="none" />
        <path d="M86.5797 142.89L149.08 142.89C147.58 97.8898 122.949 10.4859 122.949 10.4859L114.475 10.93C89.0797 46.3898 87.2542 94.1503 86.5797 142.89Z" id="Clothes-Body" fill="#8B4932" fill-rule="evenodd" stroke="none" />
      </g>
    </g>
    <g id="Group-10" transform="matrix(-1 0 0 1 674 0)">
      <g id="Head" transform="translate(92 29)">
        <path d="M14.2396 32.1226C18.865 34.9564 23.4097 36.3256 25.5431 35.7666C30.8926 34.3651 31.3844 14.4734 27.2452 6.63149C23.1061 -1.21042 1.82738 -4.62844 0.75484 10.9089C0.382596 16.3014 2.61026 21.1139 5.90162 25.0408L0 53L17.1429 53L14.2396 32.1226Z" id="Head-[skin]" fill="#FFBC65" fill-rule="evenodd" stroke="none" />
      </g>
      <path d="M109.382 25.7931C107.036 25.4073 100.718 25.1421 99.5533 25.1423C98.8088 25.1423 98.0019 25.3128 97.561 24.6275C97.1999 24.0662 97.3322 23.1171 97.2244 22.4658C97.0993 21.7092 96.9215 20.9624 96.7417 20.2174C96.2301 18.0977 95.4565 16.081 94.374 14.1876C92.3429 10.6353 89.3674 7.85283 85.6109 6.2337C81.4626 4.44593 76.7686 4.03656 72.3066 4.39919C67.5316 4.78715 63.2092 6.36741 58.7009 7.85454C54.4047 9.27165 49.9049 9.82945 45.4116 9.13742C40.8844 8.44025 37.4636 5.98031 33.645 3.64552C29.7358 1.25526 25.2684 -0.30806 20.647 0.0513095C16.3331 0.386881 12.3572 2.1726 8.79004 4.55807C5.45256 6.78996 2.6987 9.47522 1.14395 13.2545C-0.528627 17.3199 -0.527095 21.7823 2.22335 25.3751C6.21001 30.583 13.6111 31.9297 19.7685 31.7959C23.33 31.7186 26.8279 31.0668 30.1904 29.8812C34.6747 28.2999 38.5499 25.6198 42.7451 23.4453C44.7139 22.4249 46.7489 21.5868 48.8821 20.9831C50.952 20.397 52.9908 20.1282 54.8649 21.3818C56.8475 22.708 58.6241 24.0108 60.8923 24.841C63.0681 25.6374 65.3728 26.0829 67.691 26.0649C72.2014 26.03 76.6475 24.6211 81.0282 23.6774C84.6004 22.908 88.4226 22.1412 92.0645 22.8808C93.5842 23.1895 95.804 23.8267 96.3529 25.4101C87.1147 27.0886 83.4865 38.5426 86.0908 46.9508C87.4964 51.4891 95.9458 56.7943 99.231 54.4085C101.312 52.897 100.049 50.9126 99.231 49.6027C97.665 47.0942 97.1292 43.8718 100.027 42.1253C102.526 40.619 105.154 44.1961 105.204 44.1921C105.891 44.1379 111.827 40.7723 115.917 35.861C119.952 36.1008 120.564 33.4337 119.6 31.2526C118.637 29.0714 112.624 26.3264 109.382 25.7931Z" id="hair" fill="#1F1F1F" fill-rule="evenodd" stroke="none" />
      <path d="M171.136 157.118L147.762 140L142.595 152.738L165.741 162.311C172.287 169.979 175.948 173.176 176.722 171.901C177.376 170.826 176.865 169.82 176.395 168.893C176.028 168.171 175.686 167.497 175.938 166.876C176.513 165.459 180.91 165.608 185.077 165.928C189.244 166.247 188.029 164.398 187.025 163.485C182.771 160.946 177.475 158.824 171.136 157.118ZM48.5601 187.28C50.7074 182.935 58.0199 140.591 58.0199 140.591L73.3324 140.651C73.3324 140.651 59.1502 186.311 58.0199 189.105C56.5515 192.734 59.0457 198.007 60.737 201.582C60.9987 202.135 61.2411 202.648 61.4467 203.108C59.0999 204.155 57.9726 202.889 56.7841 201.554C55.4418 200.047 54.0214 198.452 50.6777 200.003C49.3859 200.603 48.1635 201.311 46.9692 202.004C42.8438 204.395 39.054 206.592 33.8986 203.42C33.0812 202.917 32.1856 201.023 34.3496 199.543C39.741 195.856 47.5103 189.403 48.5601 187.28Z" id="Arms-[skin]-Copy" fill="#FFBC65" fill-rule="evenodd" stroke="none" />
      <path d="M102.109 75.5694L108.47 74.4783C132.072 94.8672 141.766 134.037 170.697 154.786L163.734 163.418C113.544 157.204 101.105 109.426 102.109 75.5694Z" id="Coat-Back-Copy" fill="#172467" fill-rule="evenodd" stroke="none" />
      <g id="Group-20" transform="translate(46 148)">
        <path d="M41.1299 0L67.7579 93.6901L87.1859 162.745L101.356 162.745L80.7109 0L41.1299 0Z" id="Leg-Copy" fill="#F93D3D" fill-rule="evenodd" stroke="none" />
        <path d="M34.0088 0C33.3929 48.289 31.2927 74.6271 30.6461 79.0143C29.9994 83.4016 20.2214 111.312 1.31202 162.745L15.9912 162.745C40.0643 113.404 53.5025 85.4934 56.3058 79.0143C59.1091 72.5353 67.7605 46.1971 80.791 0L34.0088 0Z" id="Leg-Copy-2" fill="#F93D3D" fill-rule="evenodd" stroke="none" />
        <g id="Left-[shoe]-Copy" transform="translate(0 160.53557)">
          <path d="M0 15.4644L0.734463 0L16.1582 1.09881e-13C27.1284 7.73222 44.8023 12.5188 44.8023 12.5188L44.8023 15.4644L16.8927 15.4644L7.34463 13.9916L7.34463 15.4644L0 15.4644Z" id="Shoe" fill="#2A2A2A" fill-rule="evenodd" stroke="none" />
        </g>
        <g id="Right-[shoe]-Copy" transform="translate(85.19774 160.53557)">
          <path d="M0 15.4644L0.734463 0L16.1582 1.09881e-13C27.1284 7.73222 44.8023 12.5188 44.8023 12.5188L44.8023 15.4644L16.8927 15.4644L7.34463 13.9916L7.34463 15.4644L0 15.4644Z" id="Shoe" fill="#2A2A2A" fill-rule="evenodd" stroke="none" />
        </g>
      </g>
      <path d="M74 156C74 156 112.719 156 130.961 156C133.564 156 133.074 152.28 132.698 150.403C128.355 128.74 111.404 105.387 111.404 74.55L94.9734 72C81.3834 93.6325 76.6837 120.267 74 156Z" id="Shirt-Copy" fill="#DDE3E9" fill-rule="evenodd" stroke="none" />
      <path d="M76.9848 92.4906C74.0325 92.2801 71.3677 91.0475 69.6832 88.0151C63.7529 77.3392 65.8946 71.4613 72.2323 69.5292C75.7173 68.4668 78.9949 69.192 82.9184 70.06C86.1289 70.7704 89.7719 71.5764 94.3149 71.5769L94.3194 71.5769C94.7596 71.5769 95.1603 71.6063 95.524 71.6626L100.908 71.9691C100.908 71.9691 122.768 145.883 112.965 170.597L68.5046 170.597C65.9766 176.654 63.4976 181.94 61.1617 186L49.098 186C47.8001 144.132 63.6881 111.916 76.9848 92.4906Z" id="Coat-Front-Copy" fill="#172467" fill-rule="evenodd" stroke="none" />
      <path d="M67.8065 169.999C71.2384 162.148 74.7576 152.984 78.1443 143.52C79.405 153.942 81.5045 164.41 85 169.999L67.8065 169.999Z" id="Shade-Copy" fill="#000000" fill-opacity="0.101960786" fill-rule="evenodd" stroke="none" />
    </g>
  </g>
</svg>