<?xml version="1.0" encoding="UTF-8"?>
<svg width="16px" height="16px" viewBox="0 0 16 16" version="1.1" xmlns="http://www.w3.org/2000/svg" xmlns:xlink="http://www.w3.org/1999/xlink">
    <title>speaker_notes_black_24dp@3x</title>
    <g id="Symbol" stroke="none" stroke-width="1" fill="none" fill-rule="evenodd">
        <g id="List-View/referral" transform="translate(-1085.000000, -17.000000)">
            <g id="Group" transform="translate(1074.000000, 5.000000)">
                <g id="speaker_notes_black_24dp" transform="translate(11.000000, 12.000000)">
                    <polygon id="Path" points="0 0 16 0 16 16 0 16"></polygon>
                    <path d="M13.7,1 L3.3,1 C2.585,1 2.0065,1.585 2.0065,2.3 L2,14 L4.6,11.4 L13.7,11.4 C14.415,11.4 15,10.815 15,10.1 L15,2.3 C15,1.585 14.415,1 13.7,1 Z M5.9,8.8 L4.6,8.8 L4.6,7.5 L5.9,7.5 L5.9,8.8 Z M5.9,6.85 L4.6,6.85 L4.6,5.55 L5.9,5.55 L5.9,6.85 Z M5.9,4.9 L4.6,4.9 L4.6,3.6 L5.9,3.6 L5.9,4.9 Z M9.8,8.8 L7.85,8.8 C7.4925,8.8 7.2,8.5075 7.2,8.15 C7.2,7.7925 7.4925,7.5 7.85,7.5 L9.8,7.5 C10.1575,7.5 10.45,7.7925 10.45,8.15 C10.45,8.5075 10.1575,8.8 9.8,8.8 Z M11.75,6.85 L7.85,6.85 C7.4925,6.85 7.2,6.5575 7.2,6.2 C7.2,5.8425 7.4925,5.55 7.85,5.55 L11.75,5.55 C12.1075,5.55 12.4,5.8425 12.4,6.2 C12.4,6.5575 12.1075,6.85 11.75,6.85 Z M11.75,4.9 L7.85,4.9 C7.4925,4.9 7.2,4.6075 7.2,4.25 C7.2,3.8925 7.4925,3.6 7.85,3.6 L11.75,3.6 C12.1075,3.6 12.4,3.8925 12.4,4.25 C12.4,4.6075 12.1075,4.9 11.75,4.9 Z" id="Shape" fill="#173E67" fill-rule="nonzero"></path>
                </g>
            </g>
        </g>
    </g>
</svg>