<?xml version="1.0" encoding="UTF-8"?>
<svg width="28px" height="28px" viewBox="0 0 28 28" version="1.1" xmlns="http://www.w3.org/2000/svg" xmlns:xlink="http://www.w3.org/1999/xlink">
    <title>Notes@3x</title>
    <g id="Symbols" stroke="none" stroke-width="1" fill="none" fill-rule="evenodd">
        <g id="Card/Document" transform="translate(-14.000000, -16.000000)" fill="#0070FF">
            <g id="Notes" transform="translate(14.000000, 16.000000)">
                <rect id="Rectangle" fill-opacity="0.2" x="0" y="0" width="28" height="28" rx="5"></rect>
                <path d="M16.104375,6.9425 C15.795625,6.6575 15.38125,6.5 14.950625,6.5 L9.125,6.5 C8.23125,6.5 7.5,7.175 7.5,8 L7.5,20 C7.5,20.825 8.223125,21.5 9.116875,21.5 L18.875,21.5 C19.76875,21.5 20.5,20.825 20.5,20 L20.5,11.6225 C20.5,11.225 20.329375,10.8425 20.020625,10.565 L16.104375,6.9425 Z M16.4375,18.5 L11.5625,18.5 C11.115625,18.5 10.75,18.1625 10.75,17.75 C10.75,17.3375 11.115625,17 11.5625,17 L16.4375,17 C16.884375,17 17.25,17.3375 17.25,17.75 C17.25,18.1625 16.884375,18.5 16.4375,18.5 Z M16.4375,15.5 L11.5625,15.5 C11.115625,15.5 10.75,15.1625 10.75,14.75 C10.75,14.3375 11.115625,14 11.5625,14 L16.4375,14 C16.884375,14 17.25,14.3375 17.25,14.75 C17.25,15.1625 16.884375,15.5 16.4375,15.5 Z M14.8125,11 L14.8125,7.625 L19.28125,11.75 L15.625,11.75 C15.178125,11.75 14.8125,11.4125 14.8125,11 Z" id="doc" fill-rule="nonzero"></path>
            </g>
        </g>
    </g>
</svg>