<?xml version="1.0" encoding="UTF-8"?>
<svg width="35px" height="35px" viewBox="0 0 35 35" version="1.1" xmlns="http://www.w3.org/2000/svg" xmlns:xlink="http://www.w3.org/1999/xlink">
    <title>Off-Request@3x</title>
    <g id="Work-Calendar" stroke="none" stroke-width="1" fill="none" fill-rule="evenodd">
        <g id="Work-Calendar/vacation" transform="translate(-412.000000, -161.000000)">
            <g id="Off-Request" transform="translate(412.000000, 161.000000)">
                <g id="Group-10">
                    <rect id="Rectangle" fill="#F1F1F5" x="0" y="0" width="35" height="35" rx="10"></rect>
                    <path d="M19.2857143,14.5 C19.2857143,12.56625 17.7514286,11 15.8571429,11 C13.9628571,11 12.4285714,12.56625 12.4285714,14.5 C12.4285714,16.43375 13.9628571,18 15.8571429,18 C17.7514286,18 19.2857143,16.43375 19.2857143,14.5 Z M9,23.25 L9,24.125 C9,24.60625 9.38571429,25 9.85714286,25 L21.8571429,25 C22.3285714,25 22.7142857,24.60625 22.7142857,24.125 L22.7142857,23.25 C22.7142857,20.9225 18.1457143,19.75 15.8571429,19.75 C13.5685714,19.75 9,20.9225 9,23.25 Z M22.7142857,16.25 L26.1428571,16.25 C26.6142857,16.25 27,16.64375 27,17.125 L27,17.125 C27,17.60625 26.6142857,18 26.1428571,18 L22.7142857,18 C22.2428571,18 21.8571429,17.60625 21.8571429,17.125 L21.8571429,17.125 C21.8571429,16.64375 22.2428571,16.25 22.7142857,16.25 Z" id="Shape" fill="#5C63AB" fill-rule="nonzero"></path>
                </g>
                <g id="Group-23" transform="translate(9.000000, 11.000000)"></g>
            </g>
        </g>
    </g>
</svg>