<?xml version="1.0" encoding="UTF-8"?>
<svg width="23px" height="23px" viewBox="0 0 23 23" version="1.1" xmlns="http://www.w3.org/2000/svg" xmlns:xlink="http://www.w3.org/1999/xlink">
    <title>Patients diselect@3x</title>
    <g id="Symbols" stroke="none" stroke-width="1" fill="none" fill-rule="evenodd" opacity="0.404844738">
        <g id="Super-Admin---Side-Bar-(Dashboard)" transform="translate(-27.000000, -154.000000)" fill="#5C63AB">
            <g id="Group-45" transform="translate(0.000000, 137.000000)">
                <g id="Group" transform="translate(26.000000, 16.902174)">
                    <g id="Component/icon/ic_Notification" transform="translate(1.500000, 1.000000)">
                        <path d="M11,6 C9.34314575,6 8,4.65685425 8,3 C8,1.34314575 9.34314575,0 11,0 C12.6568542,0 14,1.34314575 14,3 C14,4.65685425 12.6568542,6 11,6 Z M11,4 C11.5522847,4 12,3.55228475 12,3 C12,2.44771525 11.5522847,2 11,2 C10.4477153,2 10,2.44771525 10,3 C10,3.55228475 10.4477153,4 11,4 Z M10,6 L12,6 C13.6568542,6 15,7.34314575 15,9 L15,10 C15,11.6568542 13.6568542,13 12,13 L10,13 C8.34314575,13 7,11.6568542 7,10 L7,9 C7,7.34314575 8.34314575,6 10,6 Z M10,8 C9.44771525,8 9,8.44771525 9,9 L9,10 C9,10.5522847 9.44771525,11 10,11 L12,11 C12.5522847,11 13,10.5522847 13,10 L13,9 C13,8.44771525 12.5522847,8 12,8 L10,8 Z M18,15 C16.3431458,15 15,13.6568542 15,12 C15,10.3431458 16.3431458,9 18,9 C19.6568542,9 21,10.3431458 21,12 C21,13.6568542 19.6568542,15 18,15 Z M18,13 C18.5522847,13 19,12.5522847 19,12 C19,11.4477153 18.5522847,11 18,11 C17.4477153,11 17,11.4477153 17,12 C17,12.5522847 17.4477153,13 18,13 Z M17,15 L19,15 C20.6568542,15 22,16.3431458 22,18 L22,19 C22,20.6568542 20.6568542,22 19,22 L17,22 C15.3431458,22 14,20.6568542 14,19 L14,18 C14,16.3431458 15.3431458,15 17,15 Z M17,17 C16.4477153,17 16,17.4477153 16,18 L16,19 C16,19.5522847 16.4477153,20 17,20 L19,20 C19.5522847,20 20,19.5522847 20,19 L20,18 C20,17.4477153 19.5522847,17 19,17 L17,17 Z M4,15 C2.34314575,15 1,13.6568542 1,12 C1,10.3431458 2.34314575,9 4,9 C5.65685425,9 7,10.3431458 7,12 C7,13.6568542 5.65685425,15 4,15 Z M4,13 C4.55228475,13 5,12.5522847 5,12 C5,11.4477153 4.55228475,11 4,11 C3.44771525,11 3,11.4477153 3,12 C3,12.5522847 3.44771525,13 4,13 Z M3,15 L5,15 C6.65685425,15 8,16.3431458 8,18 L8,19 C8,20.6568542 6.65685425,22 5,22 L3,22 C1.34314575,22 0,20.6568542 0,19 L0,18 C0,16.3431458 1.34314575,15 3,15 Z M3,17 C2.44771525,17 2,17.4477153 2,18 L2,19 C2,19.5522847 2.44771525,20 3,20 L5,20 C5.55228475,20 6,19.5522847 6,19 L6,18 C6,17.4477153 5.55228475,17 5,17 L3,17 Z" id="Shape"></path>
                    </g>
                </g>
            </g>
        </g>
    </g>
</svg>