<?xml version="1.0" encoding="UTF-8"?>
<svg width="48px" height="48px" viewBox="0 0 48 48" version="1.1" xmlns="http://www.w3.org/2000/svg" xmlns:xlink="http://www.w3.org/1999/xlink">
    <title>Patients@3x</title>
    <g id="Practice-Management" stroke="none" stroke-width="1" fill="none" fill-rule="evenodd">
        <g id="Practice-Calender-Schedule-Week-" transform="translate(-530.000000, -429.000000)">
            <g id="Patients" transform="translate(530.000000, 429.000000)">
                <rect id="Rectangle" fill="#5C63AB" x="0" y="0" width="48" height="48" rx="24"></rect>
                <g id="Icon/Messaging-Copy-21" transform="translate(14.000000, 12.000000)" fill="#FFFFFF" fill-rule="nonzero">
                    <g id="noun-disability-sign-4432606">
                        <path d="M14.4124322,19.0847797 C13.2058497,20.5552508 11.4583899,21.4524212 9.58227042,21.5642443 C7.70615091,21.6761006 5.86809025,20.9930514 4.50167358,19.6761764 C3.13551669,18.359023 2.36225956,16.5250438 2.36479248,14.6071475 C2.35642019,12.47283 3.31769259,10.4549756 4.96747235,9.14352275 C5.21432232,8.86854518 5.31656164,8.48921481 5.24222998,8.1241225 C5.16815161,7.75903682 4.92637399,7.45271961 4.59250174,7.30072762 C4.25888928,7.14873563 3.87405974,7.16970827 3.55815829,7.35717345 C1.49784952,8.97029033 0.211642206,11.4054764 0.0238808773,14.0486654 C-0.164107766,16.6917882 0.764404804,19.2908976 2.5750579,21.1908969 C4.38571099,23.090631 6.90571352,24.1095009 9.49969051,23.9906516 C12.0939922,23.8720607 14.5145611,22.6268996 16.1508969,20.569473 C16.3703458,20.3379918 16.4855225,20.0236541 16.4690325,19.7020647 C16.4522886,19.3802169 16.305399,19.0801239 16.063368,18.8734996 C15.8210838,18.6666168 15.5057409,18.5721074 15.1926906,18.6122431 C14.8793741,18.6521176 14.5967514,18.8235272 14.4120296,19.0847837 L14.4124322,19.0847797 Z" id="Path"></path>
                        <path d="M19.5629924,20.1734412 C19.374014,20.3206009 19.1438229,20.4 18.9075328,20.4 C18.5637099,20.4 18.2399004,20.2321005 18.0335867,19.9468824 L15.0840187,15.8688244 L7.98320675,15.8688244 C7.6935186,15.8688244 7.41552883,15.7494732 7.21070084,15.5370776 C7.00587285,15.324682 6.89077415,15.0364215 6.89077415,14.7360305 L6.89077415,6.6025702 C5.91101816,6.24326092 5.15361903,5.42349357 4.84954822,4.39310424 C4.54522771,3.3627149 4.73030452,2.24383817 5.34845907,1.37754212 C5.96636392,0.510987149 6.9439725,0 7.98321924,0 C9.02246598,0 10.0000995,0.511019515 10.6179794,1.37754212 C11.2361277,2.24383817 11.4211983,3.3627149 11.1168903,4.39310424 C10.8128132,5.42349357 10.0554203,6.24324798 9.07566433,6.6025702 L9.07566433,7.93913755 L13.4453948,7.93913755 C13.8357927,7.93913755 14.1964266,8.15507396 14.3915038,8.50553451 C14.5865811,8.85599505 14.5865811,9.28787435 14.3915038,9.63832842 C14.1964266,9.98878248 13.8357802,10.2047254 13.4453948,10.2047254 L9.07566433,10.2047254 L9.07566433,13.6031071 L15.63026,13.6031071 C15.9740828,13.6031071 16.2978923,13.7710066 16.504206,14.0562247 L19.7815039,18.5874003 C19.9553692,18.8278633 20.0299855,19.1297755 19.9890161,19.4274155 C19.9480499,19.7247772 19.7949127,19.9930551 19.5630173,20.1733118 L19.5629924,20.1734412 Z" id="Path"></path>
                    </g>
                </g>
            </g>
        </g>
    </g>
</svg>