<svg width="40px" height="40px" viewBox="0 0 40 40" version="1.1" xmlns="http://www.w3.org/2000/svg" xmlns:xlink="http://www.w3.org/1999/xlink">
    <title>phone</title>
    <g id="Float-Legal" stroke="none" stroke-width="1" fill="none" fill-rule="evenodd">
        <g id="Client-cases/User-profile/-Pending-case" transform="translate(-965.000000, -424.000000)">
            <g id="Group-10" transform="translate(847.000000, 270.000000)">
                <g id="phone" transform="translate(118.000000, 154.000000)">
                    <rect id="Rectangle" fill="#EFF3F6" x="0" y="0" width="40" height="40" rx="5"></rect>
                    <g transform="translate(8.000000, 8.000000)">
                        <rect id="Icon-Spacing" opacity="0.2" x="0" y="0" width="24" height="24" rx="5"></rect>
                        <g transform="translate(6.000000, 2.000000)" id="Shape" stroke="#173E67" stroke-linecap="round" stroke-width="2">
                            <path d="M4,1 L8,1 M2,20 L10,20 C11.1046,20 12,19.1046 12,18 L12,2 C12,0.89543 11.1046,0 10,0 L2,0 C0.89543,0 0,0.89543 0,2 L0,18 C0,19.1046 0.89543,20 2,20 Z"></path>
                        </g>
                    </g>
                </g>
            </g>
        </g>
    </g>
</svg>