<?xml version="1.0" encoding="UTF-8"?>
<svg width="55px" height="55px" viewBox="0 0 55 55" version="1.1" xmlns="http://www.w3.org/2000/svg" xmlns:xlink="http://www.w3.org/1999/xlink">
    <title>Photos@3x</title>
    <g id="Chat" stroke="none" stroke-width="1" fill="none" fill-rule="evenodd">
        <g id="Group-chat-/View-profile" transform="translate(-1238.000000, -365.000000)">
            <g id="Group-22" transform="translate(1238.000000, 234.000000)">
                <g id="Photos" transform="translate(0.000000, 131.000000)">
                    <rect id="Rectangle" fill-opacity="0.1" fill="#5563AB" x="0" y="0" width="55" height="55" rx="10"></rect>
                    <g id="Group-Copy-2" transform="translate(17.000000, 18.000000)" fill="#5C63AB" fill-rule="nonzero">
                        <path d="M18,17 L2,17 L2,5 C2,4.45 1.55,4 1,4 C0.45,4 0,4.45 0,5 L0,17 C0,18.1 0.9,19 2,19 L18,19 C18.55,19 19,18.55 19,18 C19,17.45 18.55,17 18,17 Z" id="Path"></path>
                        <path d="M20,2 L13,2 L11.59,0.59 C11.21,0.21 10.7,0 10.17,0 L6,0 C4.9,0 4.01,0.9 4.01,2 L4,13 C4,14.1 4.9,15 6,15 L20,15 C21.1,15 22,14.1 22,13 L22,4 C22,2.9 21.1,2 20,2 Z M17,11 L9,11 C8.59,11 8.35,10.53 8.6,10.2 L9.98,8.37 C10.18,8.1 10.58,8.1 10.78,8.37 L12,10 L14.22,7.03 C14.42,6.76 14.82,6.76 15.02,7.03 L17.4,10.2 C17.65,10.53 17.41,11 17,11 Z" id="Shape"></path>
                    </g>
                </g>
            </g>
        </g>
    </g>
</svg>