<?xml version="1.0" encoding="UTF-8"?>
<svg width="380px" height="193px" viewBox="0 0 380 193" version="1.1" xmlns="http://www.w3.org/2000/svg" xmlns:xlink="http://www.w3.org/1999/xlink">
    <title>Placeholder@3x</title>
    <defs>
        <rect id="path-1" x="0" y="0" width="274" height="81" rx="15"></rect>
        <filter x="-8.4%" y="-19.8%" width="116.8%" height="156.8%" filterUnits="objectBoundingBox" id="filter-2">
            <feMorphology radius="6" operator="erode" in="SourceAlpha" result="shadowSpreadOuter1"></feMorphology>
            <feOffset dx="0" dy="7" in="shadowSpreadOuter1" result="shadowOffsetOuter1"></feOffset>
            <feGaussianBlur stdDeviation="12.5" in="shadowOffsetOuter1" result="shadowBlurOuter1"></feGaussianBlur>
            <feColorMatrix values="0 0 0 0 0   0 0 0 0 0   0 0 0 0 0  0 0 0 0.1 0" type="matrix" in="shadowBlurOuter1"></feColorMatrix>
        </filter>
        <circle id="path-3" cx="20" cy="20" r="20"></circle>
        <filter x="-57.5%" y="-40.0%" width="215.0%" height="215.0%" filterUnits="objectBoundingBox" id="filter-4">
            <feMorphology radius="6" operator="erode" in="SourceAlpha" result="shadowSpreadOuter1"></feMorphology>
            <feOffset dx="0" dy="7" in="shadowSpreadOuter1" result="shadowOffsetOuter1"></feOffset>
            <feGaussianBlur stdDeviation="12.5" in="shadowOffsetOuter1" result="shadowBlurOuter1"></feGaussianBlur>
            <feComposite in="shadowBlurOuter1" in2="SourceAlpha" operator="out" result="shadowBlurOuter1"></feComposite>
            <feColorMatrix values="0 0 0 0 0   0 0 0 0 0   0 0 0 0 0  0 0 0 0.1 0" type="matrix" in="shadowBlurOuter1"></feColorMatrix>
        </filter>
    </defs>
    <g id="Chat" stroke="none" stroke-width="1" fill="none" fill-rule="evenodd">
        <g id="Chat-/Privat-/-New-conversation" transform="translate(-822.000000, -417.000000)">
            <g id="Placeholder" transform="translate(835.000000, 417.000000)">
                <circle id="Oval" stroke-opacity="0.7" stroke="#173E67" fill-opacity="0.03" fill="#5563AB" cx="342" cy="154" r="3.5"></circle>
                <circle id="Oval-Copy-4" stroke-opacity="0.7" stroke="#173E67" cx="41" cy="74" r="3.5"></circle>
                <circle id="Oval-Copy-3" fill-opacity="0.4" fill="#5563AB" cx="111" cy="25" r="5"></circle>
                <circle id="Oval-Copy-5" fill-opacity="0.15" fill="#5563AB" cx="70" cy="33" r="3"></circle>
                <g id="Group-7" transform="translate(0.000000, 92.000000)">
                    <g id="Group-5" transform="translate(50.000000, 0.000000)">
                        <g id="Rectangle">
                            <use fill="black" fill-opacity="1" filter="url(#filter-2)" xlink:href="#path-1"></use>
                            <use fill="#FFFFFF" fill-rule="evenodd" xlink:href="#path-1"></use>
                        </g>
                        <g id="Group-4" transform="translate(25.000000, 25.000000)" stroke="#5563AB" stroke-linecap="round" stroke-opacity="0.2" stroke-width="10">
                            <line x1="0.5" y1="0.5" x2="223.5" y2="0.5" id="Line-2"></line>
                            <line x1="0.5" y1="30.5" x2="131.5" y2="30.5" id="Line-2-Copy"></line>
                        </g>
                    </g>
                    <g id="Group-6" transform="translate(0.000000, 41.000000)">
                        <g id="Oval">
                            <use fill="black" fill-opacity="1" filter="url(#filter-4)" xlink:href="#path-3"></use>
                            <circle stroke-opacity="0.15" stroke="#173E67" stroke-width="2" stroke-linejoin="square" fill="#FFFFFF" fill-rule="evenodd" cx="20" cy="20" r="19"></circle>
                        </g>
                        <path d="M20.4666667,20.4666667 C22.5293333,20.4666667 24.2,18.796 24.2,16.7333333 C24.2,14.6706667 22.5293333,13 20.4666667,13 C18.404,13 16.7333333,14.6706667 16.7333333,16.7333333 C16.7333333,18.796 18.404,20.4666667 20.4666667,20.4666667 Z M20,21.4 C17.66375,21.4 13,22.6506667 13,25.1333333 L13,26.0666667 C13,26.58 13.39375,27 13.875,27 L26.125,27 C26.60625,27 27,26.58 27,26.0666667 L27,25.1333333 C27,22.6506667 22.33625,21.4 20,21.4 Z" id="Shape" fill-opacity="0.15" fill="#173E67" fill-rule="nonzero"></path>
                    </g>
                </g>
                <g id="Group-7-Copy" transform="translate(246.000000, 44.500000) scale(-1, 1) translate(-246.000000, -44.500000) translate(125.000000, 15.000000)">
                    <g id="Group-5" transform="translate(42.000000, 0.000000)" stroke="#173E67" stroke-opacity="0.15">
                        <rect id="Rectangle" stroke-width="2" fill-opacity="0.03" fill="#5563AB" x="1" y="1" width="198" height="57" rx="10"></rect>
                        <g id="Group-4" transform="translate(18.000000, 18.000000)" stroke-linecap="round" stroke-width="10">
                            <line x1="0.363839286" y1="0.370967742" x2="162.636161" y2="0.370967742" id="Line-2"></line>
                            <line x1="0.363839286" y1="22.6290323" x2="95.6897321" y2="22.6290323" id="Line-2-Copy"></line>
                        </g>
                    </g>
                    <g id="Group-6" transform="translate(0.000000, 27.000000)">
                        <circle id="Oval" stroke-opacity="0.15" stroke="#173E67" stroke-width="2" fill-opacity="0.03" fill="#5563AB" cx="16" cy="16" r="15"></circle>
                        <path d="M15.8666667,16.8666667 C17.4873333,16.8666667 18.8,15.554 18.8,13.9333333 C18.8,12.3126667 17.4873333,11 15.8666667,11 C14.246,11 12.9333333,12.3126667 12.9333333,13.9333333 C12.9333333,15.554 14.246,16.8666667 15.8666667,16.8666667 Z M15.5,17.6 C13.664375,17.6 10,18.5826667 10,20.5333333 L10,21.2666667 C10,21.67 10.309375,22 10.6875,22 L20.3125,22 C20.690625,22 21,21.67 21,21.2666667 L21,20.5333333 C21,18.5826667 17.335625,17.6 15.5,17.6 Z" id="Shape" fill-opacity="0.15" fill="#173E67" fill-rule="nonzero"></path>
                    </g>
                </g>
                <text id="+" font-family="Poppins-Medium, Poppins" font-size="18" font-weight="400" line-spacing="20" letter-spacing="0.126" fill="#173E67" fill-opacity="0.7">
                    <tspan x="86" y="75">+</tspan>
                </text>
                <text id="+-copy" font-family="Poppins-Medium, Poppins" font-size="12" font-weight="400" line-spacing="20" letter-spacing="0.084" fill="#173E67" fill-opacity="0.7">
                    <tspan x="337" y="13">+</tspan>
                </text>
            </g>
        </g>
    </g>
</svg>