<?xml version="1.0" encoding="UTF-8"?>
<svg width="20px" height="20px" viewBox="0 0 20 20" version="1.1" xmlns="http://www.w3.org/2000/svg" xmlns:xlink="http://www.w3.org/1999/xlink">
    <title>publish@3x</title>
    <g id="Scheduling-Rulesets-&amp;-Layouts" stroke="none" stroke-width="1" fill="none" fill-rule="evenodd">
        <g id="Scheduling-Layout-" transform="translate(-155.000000, -748.000000)" fill="#5C63AB" fill-rule="nonzero">
            <g id="Group-7" transform="translate(127.000000, 276.000000)">
                <g id="publish" transform="translate(28.000000, 472.000000)">
                    <path d="M18.2692308,1.53846154 L16.9230769,1.53846154 L16.9230769,0.769230769 C16.9230769,0.344606593 16.5784703,0 16.1538462,0 C15.729222,0 15.3846154,0.344606593 15.3846154,0.769230769 L15.3846154,1.53846154 L4.61538462,1.53846154 L4.61538462,0.769230769 C4.61538462,0.344606593 4.27077802,0 3.84615385,0 C3.42152967,0 3.07692308,0.344606593 3.07692308,0.769230769 L3.07692308,1.53846154 L1.73076923,1.53846154 C0.776615385,1.53846154 0,2.31507692 0,3.26923077 L0,18.2692308 C0,19.2233846 0.776615385,20 1.73076923,20 L18.2692308,20 C19.2233846,20 20,19.2233846 20,18.2692308 L20,3.26923077 C20,2.31507692 19.2233846,1.53846154 18.2692308,1.53846154 Z M1.73076923,3.07692308 L3.07692308,3.07692308 L3.07692308,3.84615385 C3.07692308,4.27077802 3.42152967,4.61538462 3.84615385,4.61538462 C4.27077802,4.61538462 4.61538462,4.27077802 4.61538462,3.84615385 L4.61538462,3.07692308 L15.3846154,3.07692308 L15.3846154,3.84615385 C15.3846154,4.27077802 15.729222,4.61538462 16.1538462,4.61538462 C16.5784703,4.61538462 16.9230769,4.27077802 16.9230769,3.84615385 L16.9230769,3.07692308 L18.2692308,3.07692308 C18.3749978,3.07692308 18.4615385,3.16311648 18.4615385,3.26923077 L18.4615385,5.38461538 L1.53846154,5.38461538 L1.53846154,3.26923077 C1.53846154,3.16311648 1.62465495,3.07692308 1.73076923,3.07692308 Z M18.2692308,18.4615385 L1.73076923,18.4615385 C1.62465495,18.4615385 1.53846154,18.3749978 1.53846154,18.2692308 L1.53846154,6.9232967 L18.4615385,6.9232967 L18.4615385,18.2692308 C18.4615385,18.3749978 18.3749978,18.4615385 18.2692308,18.4615385 Z" id="Shape"></path>
                    <path d="M12.9682035,9.81202833 C12.9611722,9.78970655 12.9560158,9.76708686 12.9464844,9.7453609 C12.9363279,9.72274159 12.9227342,9.7017604 12.9100776,9.68033158 C12.9007023,9.66366473 12.8928898,9.64670034 12.8817961,9.63062816 C12.8561709,9.5940205 12.8267954,9.55964449 12.794295,9.52824604 L11.3945979,8.19520223 C11.1213146,7.93493259 10.6781891,7.93493259 10.4047458,8.19520223 C10.1314625,8.45547187 10.1314625,8.87749574 10.4047458,9.13791777 L10.6102163,9.33330667 L6.70000855,9.33330667 C6.31359583,9.33330667 6,9.63196913 6,9.99998095 C6,10.3679928 6.31359583,10.6666552 6.70000855,10.6666552 L10.6102163,10.6666552 L10.4050578,10.8620441 C10.1317745,11.1223138 10.1317745,11.5443376 10.4050578,11.8047597 C10.5419355,11.9349707 10.7208417,12 10.9000639,12 C11.079286,12 11.2581922,11.9349707 11.3949099,11.8046111 L12.794607,10.4715673 C12.8271074,10.4406146 12.8564837,10.4062408 12.8821081,10.3691852 C12.8933582,10.3535599 12.9010147,10.336149 12.9103896,10.3197789 C12.9225774,10.298499 12.9363275,10.2775156 12.9467965,10.2547496 C12.955859,10.2330232 12.9614842,10.2104024 12.9685155,10.1880821 C12.9744532,10.1687368 12.9821093,10.150433 12.9866405,10.1303443 C13.0044532,10.0440348 13.0044532,9.9556414 12.9866405,9.86932803 C12.9819529,9.84968514 12.9741404,9.83093521 12.9682027,9.81203595 L12.9682035,9.81202833 Z" id="Path"></path>
                    <path d="M12.2999637,14.3333092 L8.38957877,14.3333092 L8.59474657,14.1379199 C8.86804229,13.8776498 8.86804229,13.4556251 8.59474657,13.1952026 C8.32176287,12.9349325 7.87782533,12.9349325 7.60484962,13.1952026 L6.2050891,14.5282489 C6.1721184,14.5592017 6.14320954,14.5935755 6.11727205,14.6306313 C6.1060214,14.6462566 6.09867738,14.6636675 6.08898922,14.6800376 C6.07633209,14.7013175 6.06273771,14.7223011 6.05289354,14.7450671 C6.0435178,14.7667935 6.0382051,14.7894143 6.03117349,14.8117346 C6.02523555,14.83108 6.01711028,14.8493839 6.01336007,14.8694725 C5.99554664,14.9557823 5.99554664,15.0441758 6.01336007,15.1304894 C6.01757911,15.1504302 6.02523595,15.1688823 6.03117349,15.1882273 C6.0382051,15.2105491 6.04336179,15.2331688 6.05289354,15.2548948 C6.06273771,15.2775142 6.07633249,15.2984954 6.08898922,15.3199243 C6.09836496,15.3365912 6.10617781,15.3538531 6.11727205,15.3693306 C6.14321114,15.4059384 6.17227521,15.4406116 6.2050891,15.471713 L7.60484962,16.8047593 C7.74126547,16.9349706 7.92049178,17 8.09971809,17 C8.2789444,17 8.45817472,16.9349706 8.59458656,16.8046107 C8.86788229,16.5443406 8.86788229,16.1223159 8.59458656,15.8618934 L8.38957477,15.6666527 L12.2999597,15.6666527 C12.68639,15.6666527 13,15.3679897 13,14.9999771 C13,14.6319646 12.68639,14.3333016 12.2999597,14.3333016 L12.2999637,14.3333092 Z" id="Path"></path>
                </g>
            </g>
        </g>
    </g>
</svg>