<?xml version="1.0" encoding="UTF-8"?>
<svg width="24px" height="24px" viewBox="0 0 24 24" version="1.1" xmlns="http://www.w3.org/2000/svg" xmlns:xlink="http://www.w3.org/1999/xlink">
    <title>Record@3x</title>
    <g id="Chat" stroke="none" stroke-width="1" fill="none" fill-rule="evenodd">
        <g id="Group-chat-/Menu" transform="translate(-987.000000, -954.000000)">
            <g id="Group-5" transform="translate(483.000000, 929.000000)">
                <g id="Record" transform="translate(504.000000, 25.000000)">
                    <rect id="Rectangle" x="0" y="0" width="24" height="24"></rect>
                    <path d="M11.9997728,14.2289474 C11.175887,14.2289474 10.4861222,13.9298246 9.93047825,13.3315789 C9.37483434,12.7333333 9.09701238,12.0096491 9.09701238,11.1605263 L9.09701238,3.89473684 C9.09701238,3.08421053 9.37962437,2.39912281 9.94484835,1.83947368 C10.5100723,1.27982456 11.1950471,1 11.9997728,1 C12.8044985,1 13.4894733,1.27982456 14.0546973,1.83947368 C14.6199212,2.39912281 14.9025332,3.08421053 14.9025332,3.89473684 L14.9025332,11.1605263 C14.9025332,12.0096491 14.6247113,12.7333333 14.0690674,13.3315789 C13.5134235,13.9298246 12.8236586,14.2289474 11.9997728,14.2289474 Z M11.9997728,23 C11.7506911,23 11.5447196,22.9179825 11.3818585,22.7539474 C11.2189973,22.5899123 11.1375667,22.3824561 11.1375667,22.1315789 L11.1375667,19.0631579 C9.25987353,18.8508772 7.65521224,18.0934211 6.32358287,16.7907895 C4.9919535,15.4881579 4.22075807,13.9201754 4.00999659,12.0868421 C3.97167632,11.8359649 4.04352683,11.6188596 4.22554811,11.4355263 C4.40756939,11.252193 4.63270097,11.1605263 4.90094286,11.1605263 C5.11170434,11.1605263 5.29372562,11.2377193 5.4470067,11.3921053 C5.60028778,11.5464912 5.69608845,11.7298246 5.73440872,11.9421053 C5.94517021,13.5052632 6.63493506,14.8030702 7.80370328,15.8355263 C8.97247151,16.8679825 10.3711613,17.3842105 11.9997728,17.3842105 C13.6283843,17.3842105 15.0270741,16.8679825 16.1958423,15.8355263 C17.3646105,14.8030702 18.0543754,13.5052632 18.2651369,11.9421053 C18.3034572,11.7298246 18.4040479,11.5464912 18.566909,11.3921053 C18.7297702,11.2377193 18.9165815,11.1605263 19.127343,11.1605263 C19.3955848,11.1605263 19.6159264,11.252193 19.7883676,11.4355263 C19.9608088,11.6188596 20.0278693,11.8359649 19.989549,12.0868421 C19.7787875,13.9201754 19.0075921,15.4881579 17.6759627,16.7907895 C16.3443334,18.0934211 14.7396721,18.8508772 12.8619789,19.0631579 L12.8619789,22.1315789 C12.8619789,22.3824561 12.7805483,22.5899123 12.6176872,22.7539474 C12.454826,22.9179825 12.2488546,23 11.9997728,23 Z M11.9997728,12.4921053 C12.3446552,12.4921053 12.6272672,12.3618421 12.8476088,12.1013158 C13.0679503,11.8407895 13.1781211,11.527193 13.1781211,11.1605263 L13.1781211,3.89473684 C13.1781211,3.56666667 13.0631603,3.29166667 12.8332387,3.06973684 C12.6033171,2.84780702 12.3254951,2.73684211 11.9997728,2.73684211 C11.6740505,2.73684211 11.3962286,2.84780702 11.1663069,3.06973684 C10.9363853,3.29166667 10.8214245,3.56666667 10.8214245,3.89473684 L10.8214245,11.1605263 C10.8214245,11.527193 10.9315953,11.8407895 11.1519368,12.1013158 C11.3722784,12.3618421 11.6548904,12.4921053 11.9997728,12.4921053 Z" id="Shape" fill-opacity="0.85" fill="#173E67" fill-rule="nonzero"></path>
                </g>
            </g>
        </g>
    </g>
</svg>