<?xml version="1.0" encoding="utf-8"?>
<svg width="1012px" height="332px" viewBox="0 0 1012 332" version="1.1" xmlns:xlink="http://www.w3.org/1999/xlink" xmlns="http://www.w3.org/2000/svg">
  <defs>
    <linearGradient x1="0.5" y1="1.7232239E-07" x2="0.4987245" y2="1" id="gradient_1">
      <stop offset="0%" stop-color="#666FB7" />
      <stop offset="100%" stop-color="#666FB7" stop-opacity="0" />
    </linearGradient>
    <filter filterUnits="userSpaceOnUse" color-interpolation-filters="sRGB" id="filter_1">
      <feFlood flood-opacity="0" result="BackgroundImageFix" />
      <feColorMatrix in="SourceAlpha" type="matrix" values="0 0 0 0 0 0 0 0 0 0 0 0 0 0 0 0 0 0 127 0" />
      <feMorphology radius="-5" operator="dilate" in="SourceAlpha" result="effect0_dropShadow" />
      <feOffset dx="0" dy="0" />
      <feGaussianBlur stdDeviation="10.5" />
      <feColorMatrix type="matrix" values="0 0 0 0 0.36078432 0 0 0 0 0.38039216 0 0 0 0 0.67058825 0 0 0 0.827451 0" />
      <feBlend mode="normal" in2="BackgroundImageFix" result="effect0_dropShadow" />
      <feBlend mode="normal" in="SourceGraphic" in2="effect0_dropShadow" result="shape" />
      <feGaussianBlur stdDeviation="11.5" result="effect1_gaussianBlur" />
    </filter>
    <path d="M0 0L1010 0L1010 298L0 298L0 0Z" id="path_1" />
    <path d="M833.269 63C839.896 63 845.269 57.6274 845.269 51C845.269 44.3726 839.896 39 833.269 39C826.641 39 821.269 44.3726 821.269 51C821.269 57.6274 826.641 63 833.269 63Z" id="path_2" />
    <clipPath id="mask_1">
      <use xlink:href="#path_1" />
    </clipPath>
    <clipPath id="mask_2">
      <use xlink:href="#path_2" />
    </clipPath>
  </defs>
  <g id="Group-33" transform="translate(1 1)">
    <g id="Group-32" transform="translate(3 311)">
      <g id="Jan" fill="#173E67">
        <path d="M4.152 11.986L4.152 5.842L5.244 5.842L5.244 11.986Q5.244 13.018 4.608 13.63Q3.972 14.242 2.928 14.242Q1.884 14.242 1.242 13.63Q0.6 13.018 0.6 11.986L1.716 11.986Q1.728 12.562 2.022 12.922Q2.316 13.282 2.934 13.282Q3.552 13.282 3.852 12.916Q4.152 12.55 4.152 11.986ZM10.236 14.266Q8.892 14.266 7.992 13.3Q7.092 12.334 7.092 10.828Q7.092 9.322 7.986 8.392Q8.88 7.462 10.236 7.462Q11.076 7.462 11.706 7.858Q12.336 8.254 12.66 8.89L12.66 7.57L13.764 7.57L13.764 14.158L12.66 14.158L12.66 12.814Q12.336 13.462 11.706 13.864Q11.076 14.266 10.236 14.266ZM16.656 8.638L16.656 7.57L15.564 7.57L15.564 14.158L16.656 14.158L16.656 10.438Q16.656 9.442 17.142 8.926Q17.628 8.41 18.474 8.41Q19.32 8.41 19.8 8.926Q20.28 9.442 20.28 10.438L20.28 14.158L21.36 14.158L21.36 10.258Q21.36 8.914 20.628 8.188Q19.896 7.462 18.804 7.462Q17.328 7.462 16.656 8.638ZM12.006 12.658Q12.66 11.986 12.66 10.87Q12.66 9.754 12.006 9.082Q11.352 8.41 10.434 8.41Q9.516 8.41 8.862 9.058Q8.208 9.706 8.208 10.822Q8.208 11.938 8.868 12.634Q9.528 13.33 10.44 13.33Q11.352 13.33 12.006 12.658Z" />
      </g>
      <g id="Feb" fill="#173E67" transform="translate(89 0)">
        <path d="M19.89 8.392Q18.996 7.462 17.64 7.462Q16.8 7.462 16.17 7.858Q15.54 8.254 15.204 8.89L15.204 5.278L14.112 5.278L14.112 14.158L15.204 14.158L15.204 12.814Q15.54 13.462 16.17 13.864Q16.8 14.266 17.64 14.266Q18.984 14.266 19.884 13.3Q20.784 12.334 20.784 10.828Q20.784 9.322 19.89 8.392ZM0.9 14.158L0.9 5.842L5.58 5.842L5.58 6.718L1.992 6.718L1.992 9.538L4.824 9.538L4.824 10.402L1.992 10.402L1.992 14.158L0.9 14.158ZM9.54 14.266Q8.124 14.266 7.236 13.33Q6.348 12.394 6.348 10.858Q6.348 9.322 7.248 8.392Q8.148 7.462 9.582 7.462Q11.016 7.462 11.886 8.344Q12.756 9.226 12.756 10.594Q12.756 10.942 12.708 11.242L7.464 11.242Q7.512 12.226 8.082 12.796Q8.652 13.366 9.54 13.366Q10.212 13.366 10.674 13.066Q11.136 12.766 11.352 12.274L12.528 12.274Q12.216 13.138 11.454 13.702Q10.692 14.266 9.54 14.266ZM11.616 10.45Q11.604 9.502 11.016 8.932Q10.428 8.362 9.558 8.362Q8.688 8.362 8.112 8.92Q7.536 9.478 7.476 10.45L11.616 10.45ZM19.002 12.64Q18.348 13.33 17.43 13.33Q16.512 13.33 15.858 12.652Q15.204 11.974 15.204 10.864Q15.204 9.754 15.858 9.082Q16.512 8.41 17.43 8.41Q18.348 8.41 19.002 9.058Q19.656 9.706 19.656 10.828Q19.656 11.95 19.002 12.64Z" />
      </g>
      <g id="Mar" fill="#173E67" transform="translate(177 0)">
        <path d="M9.384 5.842L9.384 14.158L8.28 14.158L8.28 8.098L5.496 14.158L4.788 14.158L1.992 8.098L1.992 14.158L0.9 14.158L0.9 5.842L2.016 5.842L5.148 12.658L8.268 5.842L9.384 5.842ZM13.896 14.266Q12.552 14.266 11.652 13.3Q10.752 12.334 10.752 10.828Q10.752 9.322 11.646 8.392Q12.54 7.462 13.896 7.462Q14.736 7.462 15.366 7.858Q15.996 8.254 16.32 8.89L16.32 7.57L17.424 7.57L17.424 14.158L16.32 14.158L16.32 12.814Q15.996 13.462 15.366 13.864Q14.736 14.266 13.896 14.266ZM20.316 8.686L20.316 7.57L19.224 7.57L19.224 14.158L20.316 14.158L20.316 10.558Q20.316 9.478 20.754 9.04Q21.192 8.602 22.032 8.602L22.32 8.602L22.32 7.462Q20.904 7.462 20.316 8.686ZM15.666 12.658Q16.32 11.986 16.32 10.87Q16.32 9.754 15.666 9.082Q15.012 8.41 14.094 8.41Q13.176 8.41 12.522 9.058Q11.868 9.706 11.868 10.822Q11.868 11.938 12.528 12.634Q13.188 13.33 14.1 13.33Q15.012 13.33 15.666 12.658Z" />
      </g>
      <g id="Apr" fill="#173E67" transform="translate(266 0)">
        <path d="M6.636 14.158L5.988 12.334L2.292 12.334L1.644 14.158L0.528 14.158L3.552 5.842L4.752 5.842L7.764 14.158L6.636 14.158ZM5.676 11.47L4.14 7.174L2.604 11.47L5.676 11.47ZM12.72 7.462Q14.076 7.462 14.97 8.392Q15.864 9.322 15.864 10.828Q15.864 12.334 14.964 13.3Q14.064 14.266 12.72 14.266Q11.88 14.266 11.25 13.864Q10.62 13.462 10.284 12.814L10.284 17.278L9.192 17.278L9.192 7.57L10.284 7.57L10.284 8.89Q10.62 8.254 11.25 7.858Q11.88 7.462 12.72 7.462ZM18.324 8.686L18.324 7.57L17.232 7.57L17.232 14.158L18.324 14.158L18.324 10.558Q18.324 9.478 18.762 9.04Q19.2 8.602 20.04 8.602L20.328 8.602L20.328 7.462Q18.912 7.462 18.324 8.686ZM12.51 13.33Q13.428 13.33 14.082 12.64Q14.736 11.95 14.736 10.828Q14.736 9.706 14.082 9.058Q13.428 8.41 12.51 8.41Q11.592 8.41 10.938 9.082Q10.284 9.754 10.284 10.864Q10.284 11.974 10.938 12.652Q11.592 13.33 12.51 13.33Z" />
      </g>
      <g id="May" fill="#173E67" transform="translate(353 0)">
        <path d="M9.384 5.842L9.384 14.158L8.28 14.158L8.28 8.098L5.496 14.158L4.788 14.158L1.992 8.098L1.992 14.158L0.9 14.158L0.9 5.842L2.016 5.842L5.148 12.658L8.268 5.842L9.384 5.842ZM13.896 14.266Q12.552 14.266 11.652 13.3Q10.752 12.334 10.752 10.828Q10.752 9.322 11.646 8.392Q12.54 7.462 13.896 7.462Q14.736 7.462 15.366 7.858Q15.996 8.254 16.32 8.89L16.32 7.57L17.424 7.57L17.424 14.158L16.32 14.158L16.32 12.814Q15.996 13.462 15.366 13.864Q14.736 14.266 13.896 14.266ZM18.468 7.57L21.072 14.05L19.764 17.242L20.892 17.242L24.864 7.57L23.736 7.57L21.684 12.898L19.668 7.57L18.468 7.57ZM15.666 12.658Q16.32 11.986 16.32 10.87Q16.32 9.754 15.666 9.082Q15.012 8.41 14.094 8.41Q13.176 8.41 12.522 9.058Q11.868 9.706 11.868 10.822Q11.868 11.938 12.528 12.634Q13.188 13.33 14.1 13.33Q15.012 13.33 15.666 12.658Z" />
      </g>
      <g id="Jun" fill="#173E67" transform="translate(445 0)">
        <path d="M4.152 11.986L4.152 5.842L5.244 5.842L5.244 11.986Q5.244 13.018 4.608 13.63Q3.972 14.242 2.928 14.242Q1.884 14.242 1.242 13.63Q0.6 13.018 0.6 11.986L1.716 11.986Q1.728 12.562 2.022 12.922Q2.316 13.282 2.934 13.282Q3.552 13.282 3.852 12.916Q4.152 12.55 4.152 11.986ZM16.152 8.638L16.152 7.57L15.06 7.57L15.06 14.158L16.152 14.158L16.152 10.438Q16.152 9.442 16.638 8.926Q17.124 8.41 17.97 8.41Q18.816 8.41 19.296 8.926Q19.776 9.442 19.776 10.438L19.776 14.158L20.856 14.158L20.856 10.258Q20.856 8.914 20.124 8.188Q19.392 7.462 18.3 7.462Q16.824 7.462 16.152 8.638ZM12.168 7.57L13.26 7.57L13.26 14.158L12.168 14.158L12.168 13.102Q11.508 14.266 10.02 14.266Q8.928 14.266 8.196 13.54Q7.464 12.814 7.464 11.482L7.464 7.57L8.544 7.57L8.544 11.302Q8.544 12.286 9.03 12.808Q9.516 13.33 10.356 13.33Q11.196 13.33 11.682 12.808Q12.168 12.286 12.168 11.302L12.168 7.57Z" />
      </g>
      <g id="Jul" fill="#173E67" transform="translate(533 0)">
        <path d="M15.06 5.278L15.06 14.158L16.152 14.158L16.152 5.278L15.06 5.278ZM4.152 11.986L4.152 5.842L5.244 5.842L5.244 11.986Q5.244 13.018 4.608 13.63Q3.972 14.242 2.928 14.242Q1.884 14.242 1.242 13.63Q0.6 13.018 0.6 11.986L1.716 11.986Q1.728 12.562 2.022 12.922Q2.316 13.282 2.934 13.282Q3.552 13.282 3.852 12.916Q4.152 12.55 4.152 11.986ZM12.168 7.57L13.26 7.57L13.26 14.158L12.168 14.158L12.168 13.102Q11.508 14.266 10.02 14.266Q8.928 14.266 8.196 13.54Q7.464 12.814 7.464 11.482L7.464 7.57L8.544 7.57L8.544 11.302Q8.544 12.286 9.03 12.808Q9.516 13.33 10.356 13.33Q11.196 13.33 11.682 12.808Q12.168 12.286 12.168 11.302L12.168 7.57Z" />
      </g>
      <g id="Aug" fill="#173E67" transform="translate(617 0)">
        <path d="M6.636 14.158L5.988 12.334L2.292 12.334L1.644 14.158L0.528 14.158L3.552 5.842L4.752 5.842L7.764 14.158L6.636 14.158ZM5.676 11.47L4.14 7.174L2.604 11.47L5.676 11.47ZM17.196 13.3Q18.096 14.266 19.44 14.266Q20.28 14.266 20.91 13.864Q21.54 13.462 21.864 12.814L21.864 14.326Q21.864 15.334 21.294 15.892Q20.724 16.45 19.872 16.45Q19.02 16.45 18.444 16.078Q17.868 15.706 17.712 15.142L16.644 15.142Q16.764 16.15 17.646 16.774Q18.528 17.398 19.872 17.398Q21.216 17.398 22.092 16.54Q22.968 15.682 22.968 14.326L22.968 7.57L21.864 7.57L21.864 8.89Q21.54 8.254 20.91 7.858Q20.28 7.462 19.44 7.462Q18.084 7.462 17.19 8.392Q16.296 9.322 16.296 10.828Q16.296 12.334 17.196 13.3ZM13.836 7.57L14.928 7.57L14.928 14.158L13.836 14.158L13.836 13.102Q13.176 14.266 11.688 14.266Q10.596 14.266 9.864 13.54Q9.132 12.814 9.132 11.482L9.132 7.57L10.212 7.57L10.212 11.302Q10.212 12.286 10.698 12.808Q11.184 13.33 12.024 13.33Q12.864 13.33 13.35 12.808Q13.836 12.286 13.836 11.302L13.836 7.57ZM21.864 10.87Q21.864 11.986 21.21 12.658Q20.556 13.33 19.644 13.33Q18.732 13.33 18.072 12.634Q17.412 11.938 17.412 10.822Q17.412 9.706 18.066 9.058Q18.72 8.41 19.638 8.41Q20.556 8.41 21.21 9.082Q21.864 9.754 21.864 10.87Z" />
      </g>
      <g id="Sep" fill="#173E67" transform="translate(707 0)">
        <path d="M1.788 8.062Q1.788 8.518 2.04 8.818Q2.292 9.118 2.688 9.262Q3.084 9.406 3.57 9.514Q4.056 9.622 4.542 9.76Q5.028 9.898 5.424 10.114Q5.82 10.33 6.072 10.762Q6.324 11.194 6.324 11.83Q6.324 12.802 5.58 13.522Q4.836 14.242 3.57 14.242Q2.304 14.242 1.512 13.66Q0.72 13.078 0.72 12.082L1.884 12.082Q1.932 12.646 2.334 12.994Q2.736 13.342 3.528 13.342Q4.32 13.342 4.788 12.934Q5.256 12.526 5.256 11.98Q5.256 11.434 5.004 11.14Q4.752 10.846 4.356 10.702Q3.96 10.558 3.474 10.456Q2.988 10.354 2.502 10.21Q2.016 10.066 1.62 9.844Q1.224 9.622 0.972 9.184Q0.72 8.746 0.72 8.098Q0.72 7.042 1.47 6.4Q2.22 5.758 3.426 5.758Q4.632 5.758 5.346 6.316Q6.06 6.874 6.168 7.858L4.956 7.858Q4.908 7.366 4.494 7.018Q4.08 6.67 3.378 6.67Q2.676 6.67 2.232 7.024Q1.788 7.378 1.788 8.062ZM10.704 14.266Q9.288 14.266 8.4 13.33Q7.512 12.394 7.512 10.858Q7.512 9.322 8.412 8.392Q9.312 7.462 10.746 7.462Q12.18 7.462 13.05 8.344Q13.92 9.226 13.92 10.594Q13.92 10.942 13.872 11.242L8.628 11.242Q8.676 12.226 9.246 12.796Q9.816 13.366 10.704 13.366Q11.376 13.366 11.838 13.066Q12.3 12.766 12.516 12.274L13.692 12.274Q13.38 13.138 12.618 13.702Q11.856 14.266 10.704 14.266ZM21.054 8.392Q20.16 7.462 18.804 7.462Q17.964 7.462 17.334 7.858Q16.704 8.254 16.368 8.89L16.368 7.57L15.276 7.57L15.276 17.278L16.368 17.278L16.368 12.814Q16.704 13.462 17.334 13.864Q17.964 14.266 18.804 14.266Q20.148 14.266 21.048 13.3Q21.948 12.334 21.948 10.828Q21.948 9.322 21.054 8.392ZM12.78 10.45Q12.768 9.502 12.18 8.932Q11.592 8.362 10.722 8.362Q9.852 8.362 9.276 8.92Q8.7 9.478 8.64 10.45L12.78 10.45ZM20.166 12.64Q19.512 13.33 18.594 13.33Q17.676 13.33 17.022 12.652Q16.368 11.974 16.368 10.864Q16.368 9.754 17.022 9.082Q17.676 8.41 18.594 8.41Q19.512 8.41 20.166 9.058Q20.82 9.706 20.82 10.828Q20.82 11.95 20.166 12.64Z" />
      </g>
      <g id="Oct" fill="#173E67" transform="translate(796 0)">
        <path d="M4.704 14.242Q2.916 14.242 1.692 13.036Q0.468 11.83 0.468 9.988Q0.468 8.146 1.692 6.952Q2.916 5.758 4.704 5.758Q6.492 5.758 7.71 6.952Q8.928 8.146 8.928 9.994Q8.928 11.842 7.71 13.042Q6.492 14.242 4.704 14.242ZM20.544 13.27L19.644 13.27Q19.188 13.27 19.008 13.09Q18.828 12.91 18.828 12.466L18.828 8.458L20.532 8.458L20.532 7.57L18.828 7.57L18.828 5.938L17.724 5.938L17.724 7.57L16.872 7.57L16.872 8.458L17.724 8.458L17.724 12.466Q17.724 14.158 19.44 14.158L20.544 14.158L20.544 13.27ZM6.936 12.37Q7.812 11.47 7.812 9.994Q7.812 8.518 6.936 7.624Q6.06 6.73 4.698 6.73Q3.336 6.73 2.454 7.624Q1.572 8.518 1.572 9.994Q1.572 11.47 2.46 12.37Q3.348 13.27 4.704 13.27Q6.06 13.27 6.936 12.37ZM13.044 14.266Q11.628 14.266 10.74 13.33Q9.852 12.394 9.852 10.864Q9.852 9.334 10.74 8.398Q11.628 7.462 13.044 7.462Q14.232 7.462 14.982 8.014Q15.732 8.566 16.032 9.586L14.856 9.586Q14.664 9.01 14.196 8.686Q13.728 8.362 13.044 8.362Q12.108 8.362 11.538 9.016Q10.968 9.67 10.968 10.864Q10.968 12.058 11.538 12.712Q12.108 13.366 13.044 13.366Q14.448 13.366 14.856 12.142L16.032 12.142Q15.732 13.114 14.97 13.69Q14.208 14.266 13.044 14.266Z" />
      </g>
      <g id="Nov" fill="#173E67" transform="translate(883 0)">
        <path d="M6.384 5.842L7.476 5.842L7.476 14.158L6.384 14.158L1.992 7.558L1.992 14.158L0.9 14.158L0.9 5.842L1.992 5.842L6.384 12.442L6.384 5.842ZM9.75 13.33Q8.844 12.394 8.844 10.87Q8.844 9.346 9.792 8.404Q10.74 7.462 12.168 7.462Q13.596 7.462 14.544 8.404Q15.492 9.346 15.492 10.864Q15.492 12.382 14.502 13.324Q13.512 14.266 12.084 14.266Q10.656 14.266 9.75 13.33ZM17.268 7.57L16.104 7.57L18.672 14.158L19.908 14.158L22.488 7.57L21.312 7.57L19.284 13.138L17.268 7.57ZM12.084 13.366Q13.008 13.366 13.686 12.7Q14.364 12.034 14.364 10.858Q14.364 9.682 13.716 9.022Q13.068 8.362 12.138 8.362Q11.208 8.362 10.584 9.022Q9.96 9.682 9.96 10.864Q9.96 12.046 10.56 12.706Q11.16 13.366 12.084 13.366Z" />
      </g>
      <g id="Dec" fill="#173E67" transform="translate(972 0)">
        <path d="M3.528 5.842Q5.544 5.842 6.708 6.97Q7.872 8.098 7.872 10.042Q7.872 11.986 6.708 13.072Q5.544 14.158 3.528 14.158L0.9 14.158L0.9 5.842L3.528 5.842ZM1.992 13.318L3.528 13.318Q5.1 13.318 5.928 12.454Q6.756 11.59 6.756 10.042Q6.756 8.494 5.928 7.63Q5.1 6.766 3.528 6.766L1.992 6.766L1.992 13.318ZM12.012 14.266Q10.596 14.266 9.708 13.33Q8.82 12.394 8.82 10.858Q8.82 9.322 9.72 8.392Q10.62 7.462 12.054 7.462Q13.488 7.462 14.358 8.344Q15.228 9.226 15.228 10.594Q15.228 10.942 15.18 11.242L9.936 11.242Q9.984 12.226 10.554 12.796Q11.124 13.366 12.012 13.366Q12.684 13.366 13.146 13.066Q13.608 12.766 13.824 12.274L15 12.274Q14.688 13.138 13.926 13.702Q13.164 14.266 12.012 14.266ZM17.04 13.33Q17.928 14.266 19.344 14.266Q20.508 14.266 21.27 13.69Q22.032 13.114 22.332 12.142L21.156 12.142Q20.748 13.366 19.344 13.366Q18.408 13.366 17.838 12.712Q17.268 12.058 17.268 10.864Q17.268 9.67 17.838 9.016Q18.408 8.362 19.344 8.362Q20.028 8.362 20.496 8.686Q20.964 9.01 21.156 9.586L22.332 9.586Q22.032 8.566 21.282 8.014Q20.532 7.462 19.344 7.462Q17.928 7.462 17.04 8.398Q16.152 9.334 16.152 10.864Q16.152 12.394 17.04 13.33ZM14.088 10.45Q14.076 9.502 13.488 8.932Q12.9 8.362 12.03 8.362Q11.16 8.362 10.584 8.92Q10.008 9.478 9.948 10.45L14.088 10.45Z" />
      </g>
    </g>
    <g id="Group-23">
      <path d="M736 104.5L736.5 297" id="Path" fill="none" fill-rule="evenodd" stroke="#5C63AB" stroke-width="1.5" stroke-linecap="round" stroke-dasharray="4 4" />
      <path d="M0 297.5L1008 297.5" id="Path" fill="none" fill-rule="evenodd" stroke="#D3D8DD" stroke-width="1" stroke-dasharray="8 8" />
      <path d="M0 253.5L1008 253.5" id="Path" fill="none" fill-rule="evenodd" stroke="#D3D8DD" stroke-width="1" stroke-dasharray="8 8" />
      <path d="M0 209.5L1008 209.5" id="Path" fill="none" fill-rule="evenodd" stroke="#D3D8DD" stroke-width="1" stroke-dasharray="8 8" />
      <path d="M0 165.5L1008 165.5" id="Path" fill="none" fill-rule="evenodd" stroke="#D3D8DD" stroke-width="1" stroke-dasharray="8 8" />
      <path d="M0 121.5L1008 121.5" id="Path" fill="none" fill-rule="evenodd" stroke="#D3D8DD" stroke-width="1" stroke-dasharray="8 8" />
      <path d="M0 77.25L1008 77.75" id="Path" fill="none" fill-rule="evenodd" stroke="#D3D8DD" stroke-width="1" stroke-dasharray="8 8" />
      <path d="M0 33L1008 32" id="Path-Copy" fill="none" fill-rule="evenodd" stroke="#D3D8DD" stroke-width="1" stroke-dasharray="8 8" />
      <path d="M0 0L1010 0L1010 298L0 298L0 0Z" id="Rectangle" fill="none" fill-rule="evenodd" stroke="none" />
      <g clip-path="url(#mask_1)">
        <g id="Group" transform="translate(-98 47)">
          <path d="M197.419 120.173C109.066 118.514 25.0506 196.407 2.31299 228.887L2.31299 288L1175 288L1134.61 31.526C1044.87 45.8275 949.138 17.2245 921.771 16.5113C860.056 16.5113 768.024 98.0567 726.878 140.902C693.097 179.049 650.004 187.205 632.68 186.513C552.124 188.172 490.842 102.894 470.269 60.049C452.08 11.9501 431.6 2.00005 421.546 2.00005C404.676 1.96954 379.32 16.0975 353.332 64.1964C327.348 112.293 286.202 125.701 268.881 126.391C244.649 127.358 215.826 120.173 197.419 120.173Z" id="Path" fill="url(#gradient_1)" fill-opacity="0.38185933" fill-rule="evenodd" stroke="none" />
          <path d="M197.824 119.781L197.734 121.683C197.764 121.683 197.794 121.683 197.824 121.683L197.824 119.781ZM269.281 125.984L269.092 124.086L269.281 125.984ZM421.934 1.90224L421.926 3.80438L421.934 3.80438L421.934 1.90224ZM470.654 59.807L467.747 60.254C467.762 60.2902 467.777 60.3282 467.795 60.3643L470.654 59.807ZM633.054 185.957L633.239 184.058C633.147 184.054 633.051 184.054 632.958 184.056L633.054 185.957ZM727.245 140.459L724.694 139.467C724.676 139.486 724.658 139.506 724.64 139.525L727.245 140.459ZM922.125 16.3775L922.247 14.4773C922.206 14.4773 922.167 14.4754 922.125 14.4754L922.125 16.3775ZM5.46338 229C16.6923 212.999 43.1874 185.656 77.839 162.545C112.597 139.364 154.901 120.881 197.734 121.683L197.91 117.879C152.4 117.027 108.526 136.566 73.5091 159.92C38.3851 183.347 11.5071 211.053 0 227.45L5.46338 229ZM197.824 121.683C206.627 121.683 218.006 123.407 230.752 125.105C243.268 126.775 256.897 128.383 269.466 127.883L269.092 124.086C257.432 124.55 244.536 123.057 231.982 121.383C219.657 119.739 207.426 117.879 197.824 117.879L197.824 121.683ZM269.466 127.883C288.461 127.127 330.355 112.939 356.556 64.5624L350.899 63.3241C325.129 110.906 284.743 123.464 269.092 124.086L269.466 127.883ZM356.556 64.5624C369.493 40.6735 382.198 25.3746 393.607 16.0903C405.066 6.7641 414.848 3.79106 421.926 3.80438L421.943 0.000107526C412.153 -0.0170117 400.822 4.04024 388.892 13.7487C376.912 23.4972 363.944 39.2354 350.899 63.3241L356.556 64.5624ZM421.934 3.80438C425.419 3.80438 432.27 5.59809 440.735 13.8971C449.123 22.12 458.689 36.3632 467.747 60.254L473.562 59.3619C464.429 35.2733 454.666 20.5622 445.754 11.8276C436.921 3.16906 428.503 0.000107526 421.934 0.000107526L421.934 3.80438ZM467.795 60.3643C478.139 81.8566 498.71 113.993 526.88 140.593C540.966 153.892 557.032 165.887 574.78 174.468C592.539 183.054 612.13 188.291 633.15 187.859L632.958 184.056C613.706 184.452 595.429 179.674 578.399 171.439C561.358 163.199 545.716 151.568 531.842 138.468C504.092 112.264 483.741 80.4965 473.514 59.2516L467.795 60.3643ZM632.869 187.855C651.576 188.601 695.639 179.936 729.851 141.395L724.64 139.525C691.295 177.089 649.177 184.692 633.239 184.058L632.869 187.855ZM729.797 141.452C750.311 120.143 783.5 89.2216 819.208 63.655C837.066 50.8689 855.478 39.477 873.183 31.294C890.967 23.0787 907.65 18.2796 922.125 18.2796L922.125 14.4754C905.744 14.4754 887.784 19.8451 869.669 28.2164C851.475 36.6219 832.741 48.2363 814.736 61.129C778.717 86.9182 745.322 118.039 724.694 139.467L729.797 141.452ZM922.002 18.2796C928.403 18.4451 939.103 20.2731 953.492 22.8543C967.692 25.4031 985.116 28.6063 1004.5 31.3397C1043.24 36.8026 1090.15 40.4376 1135.68 33.2L1134.23 29.5098C1090.02 36.5363 1044.19 33.0402 1005.8 27.6248C986.612 24.92 969.364 21.7491 955.116 19.1926C941.057 16.6704 929.528 14.6675 922.247 14.4773L922.002 18.2796Z" id="Shape" fill="#5C63AB" stroke="none" />
          <use xlink:href="#Group" filter="url(#filter_1)" clip-path="url(#mask_2)" />
          <path d="M833.208 55C835.417 55 837.208 53.2091 837.208 51C837.208 48.7909 835.417 47 833.208 47C830.999 47 829.208 48.7909 829.208 51C829.208 53.2091 830.999 55 833.208 55Z" id="Oval" fill="#5C63AB" fill-rule="evenodd" stroke="none" />
        </g>
      </g>
    </g>
    <g id="Group-31" transform="translate(620 75)">
      <path d="M62.001 0L14.999 0Q14.6308 0 14.263 0.0180669Q13.8953 0.0361339 13.5288 0.0722243Q13.1624 0.108315 12.7982 0.162341Q12.434 0.216368 12.0728 0.288202Q11.7117 0.360035 11.3545 0.449501Q10.9974 0.538968 10.645 0.645852Q10.2927 0.752736 9.94599 0.87678Q9.59931 1.00082 9.25913 1.14173Q8.91895 1.28264 8.5861 1.44006Q8.25325 1.59749 7.92852 1.77106Q7.60379 1.94463 7.28797 2.13393Q6.97215 2.32322 6.666 2.52779Q6.35985 2.73235 6.0641 2.95169Q5.76836 3.17103 5.48373 3.40462Q5.19911 3.6382 4.92629 3.88547Q4.65346 4.13274 4.3931 4.39311Q4.13274 4.65346 3.88547 4.92629Q3.6382 5.19911 3.40462 5.48373Q3.17103 5.76836 2.95169 6.06411Q2.73235 6.35985 2.52779 6.666Q2.32322 6.97215 2.13393 7.28797Q1.94463 7.60379 1.77106 7.92852Q1.59749 8.25325 1.44006 8.5861Q1.28264 8.91895 1.14173 9.25913Q1.00082 9.59931 0.87678 9.94599Q0.752736 10.2927 0.645852 10.645Q0.538968 10.9974 0.449501 11.3545Q0.360035 11.7117 0.288201 12.0728Q0.216368 12.434 0.162341 12.7982Q0.108315 13.1624 0.0722243 13.5288Q0.0361339 13.8953 0.0180669 14.263Q0 14.6308 0 14.999L0 31.001Q0 31.3692 0.0180669 31.737Q0.0361339 32.1047 0.0722243 32.4712Q0.108315 32.8376 0.162341 33.2018Q0.216368 33.566 0.288202 33.9272Q0.360035 34.2883 0.449501 34.6455Q0.538968 35.0026 0.645852 35.355Q0.752736 35.7073 0.87678 36.054Q1.00082 36.4007 1.14173 36.7409Q1.28264 37.081 1.44006 37.4139Q1.59749 37.7467 1.77106 38.0715Q1.94463 38.3962 2.13393 38.712Q2.32322 39.0278 2.52779 39.334Q2.73235 39.6401 2.95169 39.9359Q3.17103 40.2316 3.40462 40.5163Q3.6382 40.8009 3.88547 41.0737Q4.13274 41.3465 4.39311 41.6069Q4.65346 41.8673 4.92629 42.1145Q5.19911 42.3618 5.48373 42.5954Q5.76836 42.829 6.06411 43.0483Q6.35985 43.2676 6.666 43.4722Q6.97215 43.6768 7.28797 43.8661Q7.60379 44.0554 7.92852 44.2289Q8.25325 44.4025 8.5861 44.5599Q8.91895 44.7174 9.25913 44.8583Q9.59931 44.9992 9.94599 45.1232Q10.2927 45.2473 10.645 45.3541Q10.9974 45.461 11.3545 45.5505Q11.7117 45.64 12.0728 45.7118Q12.434 45.7836 12.7982 45.8377Q13.1624 45.8917 13.5288 45.9278Q13.8953 45.9639 14.263 45.9819Q14.6308 46 14.999 46L62.001 46Q62.51 46 63.0184 45.9727Q63.5267 45.9455 64.0328 45.891Q64.5389 45.8366 65.0414 45.7551Q65.5439 45.6737 66.0413 45.5654Q66.5387 45.4572 67.0296 45.3224Q67.5205 45.1877 68.0035 45.0269Q68.4864 44.8661 68.9601 44.6796Q69.4338 44.4932 69.8968 44.2816Q70.3598 44.07 70.8108 43.834Q71.2618 43.598 71.6995 43.3381Q72.1372 43.0783 72.5604 42.7953Q72.9836 42.5124 73.391 42.2072Q73.7985 41.9021 74.189 41.5755Q74.5794 41.2489 74.9519 40.902Q75.3243 40.555 75.6777 40.1885Q76.031 39.8221 76.3642 39.4372L96.0148 23.8323Q96.1032 23.7622 96.1737 23.6741Q96.2441 23.586 96.2932 23.4844Q96.3423 23.3828 96.3674 23.2728Q96.3926 23.1628 96.3926 23.05Q96.3926 22.9372 96.3674 22.8272Q96.3423 22.7172 96.2932 22.6156Q96.2441 22.514 96.1737 22.4259Q96.1032 22.3378 96.0148 22.2677L76.6234 6.8686Q76.2904 6.46717 75.9359 6.08462Q75.5813 5.70206 75.2063 5.33953Q74.8313 4.977 74.437 4.63559Q74.0427 4.29419 73.6302 3.97493Q73.2178 3.65567 72.7884 3.35952Q72.3591 3.06337 71.9141 2.79122Q71.4692 2.51908 71.0099 2.27175Q70.5507 2.02443 70.0786 1.80267Q69.6065 1.58092 69.123 1.38539Q68.6394 1.18987 68.1459 1.02118Q67.6524 0.852478 67.1503 0.711114Q66.6482 0.56975 66.1392 0.456144Q65.6301 0.342538 65.1156 0.257033Q64.6011 0.171527 64.0826 0.11438Q63.5642 0.0572332 63.0434 0.0286166Q62.5226 0 62.001 0Z" id="Combined-Shape" fill="#5C63AB" fill-rule="evenodd" stroke="none" />
      <g id="198" fill="#FFFFFF" transform="translate(25 11)">
        <path d="M8.172 12.619C8.316 14.545 9.648 16.327 12.438 16.327C15.912 16.327 16.902 13.915 16.902 9.451C16.902 5.293 15.804 2.881 12.24 2.881C9.468 2.881 7.812 4.609 7.812 7.237C7.812 10.009 9.63 11.431 11.898 11.431C13.05 11.431 14.112 10.981 14.67 10.207C14.67 13.159 14.022 14.257 12.546 14.257C11.376 14.257 10.71 13.663 10.512 12.619L8.172 12.619ZM19.08 12.583C19.08 11.035 19.89 9.901 21.186 9.361C20.106 8.803 19.386 7.885 19.386 6.463C19.386 4.573 20.826 2.935 23.814 2.935C26.802 2.935 28.242 4.591 28.242 6.463C28.242 7.849 27.486 8.839 26.46 9.361C27.756 9.919 28.566 11.053 28.566 12.583C28.566 15.085 26.514 16.597 23.814 16.597C21.132 16.597 19.08 15.085 19.08 12.583ZM2.394 16.309L4.986 16.309L4.986 3.187L0.648 3.187L0.648 5.509L2.394 5.509L2.394 16.309ZM21.852 6.841C21.852 7.921 22.68 8.623 23.814 8.623C24.966 8.623 25.794 7.903 25.794 6.823C25.794 5.635 25.02 4.969 23.814 4.969C22.644 4.969 21.852 5.617 21.852 6.841ZM12.42 9.379C10.89 9.379 10.224 8.407 10.224 7.219C10.224 5.905 11.016 5.023 12.33 5.023C13.608 5.023 14.436 5.815 14.436 7.255C14.436 8.533 13.68 9.379 12.42 9.379ZM26.1 12.475C26.1 11.179 25.164 10.459 23.814 10.459C22.5 10.459 21.51 11.143 21.51 12.475C21.51 13.645 22.374 14.509 23.814 14.509C25.254 14.509 26.1 13.627 26.1 12.475Z" />
      </g>
    </g>
  </g>
</svg>