<?xml version="1.0" encoding="utf-8"?>
<svg width="1404px" height="272px" viewBox="0 0 1404 272" version="1.1" xmlns:xlink="http://www.w3.org/1999/xlink" xmlns="http://www.w3.org/2000/svg">
  <defs>
    <filter id="filter_1">
      <feColorMatrix in="SourceGraphic" type="matrix" values="0 0 0 0 0.09019608 0 0 0 0 0.24313726 0 0 0 0 0.40392157 0 0 0 0.101960786 0" />
    </filter>
  </defs>
  <g id="Group-16" transform="translate(1 1)">
    <path d="M135 0C1267 -1.18021e-05 1267 -1.18021e-05 1267 -1.18021e-05C1289.48 0.0116092 1311.97 -0.00487593 1334.45 0.0348511C1338.29 0.041637 1342.13 0.0834215 1345.97 0.139526C1348.5 0.176579 1351.04 0.23491 1353.57 0.314316C1357.05 0.423055 1360.66 0.597053 1364.13 0.876663C1365.47 0.984851 1366.81 1.11424 1368.15 1.26595C1369.32 1.39837 1370.49 1.55227 1371.65 1.72891C1372.68 1.88605 1373.72 2.06499 1374.74 2.26706C1380 3.30257 1385.3 5.02049 1389.59 8.34524C1390.09 8.73879 1390.59 9.15375 1391.06 9.58829C1392 10.4566 1392.87 11.3997 1393.65 12.4136C1396.98 16.7008 1398.7 21.9956 1399.73 27.2569C1399.93 28.2836 1400.11 29.315 1400.27 30.3495C1400.89 34.411 1401.22 38.5145 1401.44 42.6146C1401.67 46.9992 1401.8 51.6658 1401.86 56.0299C1401.92 59.8694 1401.96 63.7093 1401.97 67.5492C1402 90.0327 1401.99 112.516 1402 135C1402 135 1402 135 1402 135C1401.99 157.483 1402 179.965 1401.97 202.448C1401.96 206.288 1401.92 210.128 1401.86 213.968C1401.8 218.332 1401.67 223 1401.44 227.384C1401.22 231.484 1400.89 235.588 1400.27 239.65C1400.11 240.684 1399.93 241.716 1399.73 242.742C1398.7 248.004 1396.98 253.299 1393.65 257.586C1392.87 258.6 1392 259.543 1391.06 260.411C1386.57 264.539 1380.63 266.574 1374.74 267.733C1373.72 267.935 1372.69 268.114 1371.65 268.271C1370.49 268.448 1369.32 268.602 1368.15 268.734C1366.81 268.886 1365.47 269.015 1364.13 269.123C1360.66 269.403 1357.05 269.577 1353.58 269.686C1351.04 269.765 1348.51 269.823 1345.97 269.86C1342.13 269.917 1338.29 269.958 1334.45 269.965C1311.97 270.005 1289.48 269.988 1267 270C135 270 135 270 135 270C112.517 269.988 90.0349 270.005 67.5524 269.965C63.7121 269.958 59.8718 269.917 56.0319 269.86C51.6692 269.797 46.9992 269.674 42.6157 269.44C38.5155 269.222 34.4119 268.888 30.3503 268.271C26.7428 267.723 23.1443 266.938 19.7236 265.647C17.1176 264.664 14.6195 263.365 12.4139 261.655C11.4002 260.869 10.4567 260.003 9.58858 259.058C9.15402 258.585 8.73906 258.094 8.3455 257.586C5.02068 253.299 3.30274 248.004 2.26718 242.743C2.0651 241.716 1.88616 240.685 1.72902 239.65C1.55238 238.488 1.39848 237.321 1.26605 236.152C1.11434 234.813 0.984935 233.472 0.87674 232.129C0.59711 228.657 0.42312 225.047 0.314362 221.576C0.234947 219.041 0.176599 216.506 0.139542 213.97C0.0834317 210.13 0.0416518 206.291 0.0348663 202.451C-0.00486424 179.967 0.0116182 157.484 -5.90104e-06 135C-5.90104e-06 135 -5.90104e-06 135 -5.90104e-06 135C0.0116131 112.517 -0.00487427 90.0349 0.0348511 67.5523C0.0416367 63.712 0.0834212 59.8717 0.139526 56.0318C0.203299 51.6671 0.326106 47.0009 0.559784 42.6158C0.7143 39.7162 0.938539 36.7383 1.26596 33.8484C1.62233 30.703 2.11759 27.5644 2.88225 24.4903C3.95322 20.1847 5.60622 15.9459 8.34524 12.4139C9.13164 11.3999 9.99678 10.4569 10.9417 9.58856C11.4145 9.15401 11.9062 8.73905 12.4136 8.34548C16.7008 5.02066 21.9957 3.30274 27.2569 2.26718C28.2836 2.0651 29.3151 1.88615 30.3496 1.729C31.5125 1.55236 32.679 1.39846 33.8477 1.26604C35.1867 1.11433 36.5283 0.984935 37.8715 0.87674C41.3434 0.597065 44.9518 0.423142 48.424 0.314362C50.9588 0.23495 53.4943 0.176599 56.03 0.139542C59.8695 0.0834315 63.7093 0.0416515 67.5492 0.0348663C90.0328 -0.0048626 112.516 0.0116221 135 0Z" id="Rectangle" fill="#5C63AB" fill-rule="evenodd" stroke="none" />
    <g id="Group-19" transform="matrix(0.81915206 0.57357645 -0.57357645 0.81915206 51.023438 192.74292)" filter="url(#filter_1)">
      <path d="M34.002 28.2971C33.5001 27.9088 33.0098 27.5082 32.5195 27.0844C31.9816 26.6251 31.4673 26.1658 30.9774 25.6834C27.4505 27.0376 23.0275 27.8029 18.4248 27.8029C10.2237 27.8029 3.43342 25.4952 0.00195313 21.9629L0.00195318 23.4581C0.00195335 28.4386 8.09556 32.3475 18.4248 32.3475C25.0003 32.348 30.7503 30.7819 34.0016 28.2973L34.002 28.2971Z" id="Path" fill="#000000" fill-opacity="0.047058824" fill-rule="evenodd" stroke="none" />
      <path d="M18.5637 25.3185C20.8872 25.3185 23.1407 25.108 25.2402 24.7321L9.15222 9.26953C3.78296 10.7557 0.240235 13.4882 0.240235 16.69C0.240235 21.5239 8.28985 25.3182 18.5628 25.3182L18.5637 25.3185Z" id="Path" fill="#000000" fill-opacity="0.047058824" fill-rule="evenodd" stroke="none" />
      <path d="M17.4373 8.33984C15.1066 8.33984 12.9042 8.5454 10.877 8.92257L26.6651 24.3888C27.0728 24.2745 27.481 24.1488 27.877 24.0116C22.8547 18.5863 20.5476 12.7495 21.7244 8.58089C20.3383 8.42075 18.9051 8.34092 17.4366 8.34092L17.4373 8.33984Z" id="Path" fill="#000000" fill-opacity="0.047058824" fill-rule="evenodd" stroke="none" />
      <path d="M48.5631 28.6904C44.6641 27.6104 40.3944 25.2705 36.543 22.1208C32.6797 18.9598 29.6302 15.304 27.9439 11.8282C27.0348 9.97236 26.5448 8.20582 26.4728 6.59766L25.5277 7.62118C22.2149 11.2096 25.7194 19.0165 33.5057 25.3938C38.7681 29.7021 44.449 32.0872 48.5998 32.0872C50.6091 32.0872 52.2595 31.5359 53.3362 30.3659L54.2813 29.3424C53.9223 29.3876 53.5634 29.3984 53.193 29.3984C51.7695 29.3985 50.2026 29.1626 48.5638 28.6899L48.5631 28.6904Z" id="Path" fill="#000000" fill-opacity="0.047058824" fill-rule="evenodd" stroke="none" />
      <path d="M38.6678 19.8184C40.4673 21.2861 42.3545 22.5608 44.2422 23.6014L42.6212 1.79008C41.5233 1.30706 40.4382 0.902388 39.3868 0.605691C35.4151 -0.501778 32.2715 -0.0794334 30.5413 1.78148C28.8112 3.6424 28.8112 6.62173 30.5291 10.1491C32.1134 13.4028 35.0011 16.8274 38.6679 19.8182L38.6678 19.8184Z" id="Path" fill="#000000" fill-opacity="0.047058824" fill-rule="evenodd" stroke="none" />
      <path d="M50.7078 7.10828C48.9091 5.64104 47.0222 4.36631 45.1367 3.32422L46.7575 25.1311C47.8577 25.6127 48.9463 26.0159 50.0012 26.3093C51.4506 26.7202 52.8028 26.9256 54.009 26.9256C56.08 26.9256 57.7487 26.3208 58.8331 25.1449C60.563 23.2839 60.5753 20.3045 58.8454 16.7771C57.2618 13.5234 54.3746 10.0873 50.7078 7.10778L50.7078 7.10828Z" id="Path" fill="#000000" fill-opacity="0.047058824" fill-rule="evenodd" stroke="none" />
    </g>
    <g id="Group-4" transform="matrix(0.70710677 0.70710677 -0.70710677 0.70710677 336.8125 17.406372)">
      <path d="M50.2477 19.6501C51.4556 19.6501 52.435 18.7262 52.435 17.5857L52.435 16.037C52.435 14.8966 51.4552 13.9718 50.2477 13.9718L46.4421 13.9718L46.4421 10.3801C46.4421 9.23918 45.4627 8.31488 44.2556 8.31488L42.6157 8.31488C41.406 8.31488 40.4279 9.23958 40.4279 10.3801L40.4279 13.971L36.6215 13.971C35.4136 13.971 34.435 14.8961 34.435 16.0362L34.435 17.5849C34.435 18.7258 35.4135 19.6492 36.6215 19.6492L40.4279 19.6492L40.4279 23.2423C40.4279 24.3832 41.4064 25.3079 42.6157 25.3079L44.2556 25.3079C45.4635 25.3079 46.4421 24.3828 46.4421 23.2423L46.4421 19.6492L50.2477 19.6492L50.2477 19.6501Z" id="Path" fill="#173E67" fill-opacity="0.14901961" fill-rule="evenodd" stroke="none" />
      <path d="M55.0056 4.70901C51.7797 1.67231 47.4907 0 42.9302 0C38.3677 0 34.0796 1.67197 30.8537 4.70901L30.0043 5.50723L29.1559 4.70901C25.9286 1.67231 21.6418 0 17.0793 0C12.5168 0 8.22821 1.67197 5.00391 4.70901C1.77665 7.74526 0 11.783 0 16.0771C0 20.3711 1.77618 24.4076 5.00249 27.444L30.0043 50.979L55.0048 27.444C61.6648 21.1757 61.6648 10.9779 55.0062 4.70901L55.0056 4.70901ZM53.2601 25.8017L30.0054 47.6921L6.74954 25.8017C3.99145 23.2027 2.47069 19.7497 2.47069 16.0767C2.47069 12.4038 3.99181 8.95033 6.74954 6.35182C9.5081 3.7551 13.1777 2.32445 17.0796 2.32445C20.9815 2.32445 24.6502 3.7551 27.4097 6.35182L28.3555 7.24082C23.1137 13.6376 23.7072 22.6601 29.8168 28.4106L30.2651 28.6925C30.4098 28.7484 30.5665 28.7776 30.7246 28.7776C31.4033 28.7776 31.955 28.2578 31.955 27.6193C31.955 27.4753 31.9258 27.3357 31.8716 27.2039L31.5614 26.7666C25.984 21.5177 25.8916 12.8858 31.3444 7.53524L32.6008 6.35296C35.3589 3.75624 39.0272 2.32559 42.9304 2.32559C46.8323 2.32559 50.5005 3.75624 53.2605 6.35296C58.9539 11.7149 58.9539 20.4393 53.26 25.8021L53.2601 25.8017Z" id="Shape" fill="#173E67" fill-opacity="0.14901961" stroke="none" />
    </g>
    <g id="Group-8" transform="matrix(0.70710677 -0.70710677 0.70710677 0.70710677 1311.6367 214.0669)">
      <path d="M30.8536 27.0425L26.2241 27.0425L26.2241 31.4124L20.4823 31.4124L20.4823 27.0425L15.8536 27.0425L15.8536 21.6218L20.4823 21.6218L20.4823 17.2515L26.2241 17.2515L26.2241 21.6218L30.8536 21.6218L30.8536 27.0425Z" id="Path" fill="#173E67" fill-opacity="0.14901961" fill-rule="evenodd" stroke="none" />
      <path d="M29.1678 6.78214e-16L18.2455 6.78214e-16C14.6393 6.78214e-16 11.7071 2.96458 11.7071 6.60839L15.5528 6.60839C15.5528 5.10839 16.7612 3.88692 18.246 3.88692L29.1683 3.88692C30.6531 3.88692 31.8604 5.10839 31.8604 6.60839L35.7071 6.60839C35.7064 2.96373 32.7741 0 29.1679 0L29.1678 6.78214e-16Z" id="Path" fill="#173E67" fill-opacity="0.14901961" fill-rule="evenodd" stroke="none" />
      <path d="M44.0225 8.81231L1.97635 8.81231C0.884608 8.81231 0 9.61005 0 10.5945L0 40.071C0 41.0562 0.884627 41.8543 1.97635 41.8543L44.0225 41.8543C45.1154 41.8543 46 41.0559 46 40.071L46 10.5945C46 9.61003 45.1146 8.81231 44.0225 8.81231ZM22.9994 36.9043C15.9135 36.9043 10.1687 31.7231 10.1687 25.3338C10.1687 18.9428 15.9136 13.7625 22.9994 13.7625C30.0862 13.7625 35.8311 18.9431 35.8311 25.3338C35.8311 31.7231 30.0862 36.9043 22.9994 36.9043Z" id="Shape" fill="#173E67" fill-opacity="0.14901961" stroke="none" />
    </g>
    <path d="M1351 72C1364.25 72 1375 61.9264 1375 49.5C1375 37.0736 1364.25 27 1351 27C1337.75 27 1327 37.0736 1327 49.5C1327 61.9264 1337.75 72 1351 72Z" id="Oval" fill="#173E67" fill-opacity="0.101960786" fill-rule="evenodd" stroke="none" />
    <path d="M1299 80C1301.21 80 1303 78.2091 1303 76C1303 73.7909 1301.21 72 1299 72C1296.79 72 1295 73.7909 1295 76C1295 78.2091 1296.79 80 1299 80Z" id="Oval-Copy-5" fill="#173E67" fill-opacity="0.101960786" fill-rule="evenodd" stroke="none" />
    <path d="M1312 39C1315.31 39 1318 36.5376 1318 33.5C1318 30.4624 1315.31 28 1312 28C1308.69 28 1306 30.4624 1306 33.5C1306 36.5376 1308.69 39 1312 39Z" id="Oval-Copy-7" fill="#173E67" fill-opacity="0.101960786" fill-rule="evenodd" stroke="none" />
    <path d="M441 164C443.761 164 446 161.985 446 159.5C446 157.015 443.761 155 441 155C438.239 155 436 157.015 436 159.5C436 161.985 438.239 164 441 164Z" id="Oval-Copy-3" fill="#173E67" fill-opacity="0.101960786" fill-rule="evenodd" stroke="none" />
    <path d="M422 243C427.523 243 432 238.747 432 233.5C432 228.253 427.523 224 422 224C416.477 224 412 228.253 412 233.5C412 238.747 416.477 243 422 243Z" id="Oval-Copy-6" fill="#173E67" fill-opacity="0.101960786" fill-rule="evenodd" stroke="none" />
    <path d="M30 80C35.5228 80 40 75.7467 40 70.5C40 65.2533 35.5228 61 30 61C24.4772 61 20 65.2533 20 70.5C20 75.7467 24.4772 80 30 80Z" id="Oval-Copy-4" fill="#173E67" fill-opacity="0.101960786" fill-rule="evenodd" stroke="none" />
    <path d="M42 108C44.2091 108 46 106.209 46 104C46 101.791 44.2091 100 42 100C39.7909 100 38 101.791 38 104C38 106.209 39.7909 108 42 108Z" id="Oval-Copy-8" fill="#173E67" fill-opacity="0.101960786" fill-rule="evenodd" stroke="none" />
    <g id="Group-20" transform="matrix(0.92050487 0.39073113 -0.39073113 0.92050487 88.36719 49.20752)" filter="url(#filter_1)">
      <path d="M5.0332 8.15697C5.03411 8.40871 5.15634 8.64996 5.37296 8.82701C5.58989 9.00407 5.88305 9.10273 6.18799 9.10098L8.0332 9.10098L8.0332 7.21291L6.18799 7.21291C5.88302 7.21117 5.58985 7.30981 5.37296 7.48689C5.15634 7.66396 5.03411 7.90522 5.0332 8.15693L5.0332 8.15697Z" id="Path" fill="#000000" fill-opacity="0.047058824" fill-rule="evenodd" stroke="none" />
      <path d="M11.7198 15.5332L9.86719 15.5332L9.86719 17.4213L11.7198 17.4213C12.3526 17.4213 12.8672 16.9842 12.8672 16.4773C12.8672 15.9704 12.3526 15.5333 11.7198 15.5333L11.7198 15.5332Z" id="Path" fill="#000000" fill-opacity="0.047058824" fill-rule="evenodd" stroke="none" />
      <path d="M5.39844 16.2156C5.39844 16.7225 5.91639 17.1596 6.55324 17.1596L8.39844 17.1596L8.39844 15.2715L6.55324 15.2715C5.91638 15.2715 5.39844 15.7086 5.39844 16.2155L5.39844 16.2156Z" id="Path" fill="#000000" fill-opacity="0.047058824" fill-rule="evenodd" stroke="none" />
      <path d="M25.8308 32.4405L23.9785 32.4405L23.9785 34.3285L25.8308 34.3285C26.2408 34.3285 26.6197 34.1487 26.8248 33.8565C27.0298 33.5643 27.0298 33.2047 26.8248 32.9125C26.6198 32.6202 26.2408 32.4404 25.8308 32.4404L25.8308 32.4405Z" id="Path" fill="#000000" fill-opacity="0.047058824" fill-rule="evenodd" stroke="none" />
      <path d="M19.9141 33.988C19.9147 34.2398 20.0361 34.481 20.2516 34.6581C20.4669 34.8354 20.7585 34.9338 21.0614 34.932L22.9141 34.932L22.9141 33.044L21.0614 33.044C20.7584 33.0422 20.4668 33.1406 20.2516 33.3179C20.0361 33.495 19.9147 33.7363 19.9141 33.988L19.9141 33.988Z" id="Path" fill="#000000" fill-opacity="0.047058824" fill-rule="evenodd" stroke="none" />
      <path d="M11.8966 6.23539L10.0371 6.23539L10.0371 8.12346L11.8966 8.12346C12.3042 8.12346 12.6804 7.94365 12.8844 7.65144C13.088 7.35924 13.088 6.99962 12.8844 6.70737C12.6804 6.41517 12.3042 6.23535 11.8966 6.23535L11.8966 6.23539Z" id="Path" fill="#000000" fill-opacity="0.047058824" fill-rule="evenodd" stroke="none" />
      <path d="M5.59766 33.5701C5.59856 33.8218 5.72079 34.063 5.93741 34.2401C6.15434 34.4172 6.44751 34.5158 6.75244 34.5141L8.59766 34.5141L8.59766 32.626L6.75244 32.626C6.44747 32.6243 6.1543 32.7229 5.93741 32.9C5.72079 33.077 5.59856 33.3183 5.59766 33.57L5.59766 33.5701Z" id="Path" fill="#000000" fill-opacity="0.047058824" fill-rule="evenodd" stroke="none" />
      <path d="M11.9259 32.8877L10.0664 32.8877L10.0664 34.7758L11.9259 34.7758C12.3335 34.7758 12.7097 34.596 12.9137 34.3038C13.1173 34.0116 13.1173 33.652 12.9137 33.3597C12.7097 33.0675 12.3335 32.8877 11.9259 32.8877L11.9259 32.8877Z" id="Path" fill="#000000" fill-opacity="0.047058824" fill-rule="evenodd" stroke="none" />
      <path d="M5.24414 25.5095C5.24505 25.7612 5.36727 26.0025 5.5839 26.1795C5.80083 26.3566 6.09399 26.4553 6.39893 26.4535L8.24414 26.4535L8.24414 24.5655L6.39893 24.5655C6.09396 24.5637 5.80079 24.6624 5.5839 24.8394C5.36727 25.0165 5.24505 25.2578 5.24414 25.5095L5.24414 25.5095Z" id="Path" fill="#000000" fill-opacity="0.047058824" fill-rule="evenodd" stroke="none" />
      <path d="M11.5684 24.8272L9.70898 24.8272L9.70898 26.7153L11.5684 26.7153C11.976 26.7153 12.3523 26.5354 12.5562 26.2432C12.7599 25.951 12.7599 25.5914 12.5562 25.2992C12.3523 25.007 11.976 24.8271 11.5684 24.8271L11.5684 24.8272Z" id="Path" fill="#000000" fill-opacity="0.047058824" fill-rule="evenodd" stroke="none" />
      <path d="M26.198 6.65434L24.3457 6.65434L24.3457 8.54241L26.198 8.54241C26.6079 8.54241 26.9869 8.36259 27.192 8.07039C27.397 7.77818 27.397 7.41857 27.192 7.12632C26.987 6.83412 26.6079 6.6543 26.198 6.6543L26.198 6.65434Z" id="Path" fill="#000000" fill-opacity="0.047058824" fill-rule="evenodd" stroke="none" />
      <path d="M19.7188 16.6316C19.7188 17.1385 20.2334 17.5756 20.8661 17.5756L22.7188 17.5756L22.7188 15.6875L20.8661 15.6875C20.2334 15.6875 19.7188 16.1246 19.7188 16.6315L19.7188 16.6316Z" id="Path" fill="#000000" fill-opacity="0.047058824" fill-rule="evenodd" stroke="none" />
      <path d="M26.0249 15.9502L24.1797 15.9502L24.1797 17.8383L26.0249 17.8383C26.6617 17.8383 27.1797 17.4012 27.1797 16.8943C27.1797 16.3874 26.6617 15.9503 26.0249 15.9503L26.0249 15.9502Z" id="Path" fill="#000000" fill-opacity="0.047058824" fill-rule="evenodd" stroke="none" />
      <path d="M19.8848 7.3347C19.8854 7.58644 20.0068 7.8277 20.2223 8.00474C20.4376 8.18206 20.7292 8.28046 21.0321 8.27871L22.8848 8.27871L22.8848 6.39065L21.0321 6.39065C20.7291 6.3889 20.4375 6.4873 20.2223 6.66462C20.0068 6.84169 19.8854 7.08295 19.8848 7.33466L19.8848 7.3347Z" id="Path" fill="#000000" fill-opacity="0.047058824" fill-rule="evenodd" stroke="none" />
      <path d="M2.5641 0.00195313C1.88363 0.00195313 1.23102 0.259933 0.749577 0.718725C0.268528 1.17784 -0.00195313 1.80026 -0.00195313 2.44933L-0.00195313 39.093C-0.00195313 39.742 0.268537 40.3645 0.749577 40.8236C1.23095 41.2824 1.88356 41.5404 2.5641 41.5404L29.432 41.5404C30.1125 41.5404 30.7651 41.2824 31.2465 40.8236C31.7276 40.3645 31.998 39.7421 31.998 39.093L31.998 2.44933C31.998 1.80033 31.7276 1.1779 31.2465 0.718725C30.7651 0.259925 30.1125 0.00195313 29.432 0.00195313L2.5641 0.00195313ZM11.6459 36.6432L5.98004 36.6432C4.94817 36.6432 3.99492 36.1182 3.47886 35.2658C2.96278 34.4135 2.96278 33.3635 3.47886 32.5112C3.99494 31.6588 4.94817 31.1338 5.98004 31.1338L11.6459 31.1338C12.6777 31.1338 13.6313 31.6588 14.147 32.5112C14.6631 33.3635 14.6631 34.4135 14.147 35.2658C13.6313 36.1181 12.6777 36.6432 11.6459 36.6432L11.6459 36.6432ZM11.6459 28.4244L5.98004 28.4244C4.94817 28.4244 3.99492 27.8994 3.47886 27.0471C2.96278 26.1948 2.96278 25.1447 3.47886 24.2924C3.99494 23.4401 4.94817 22.915 5.98004 22.915L11.6459 22.915C12.6777 22.915 13.6313 23.44 14.147 24.2924C14.6631 25.1447 14.6631 26.1948 14.147 27.0471C13.6313 27.8994 12.6777 28.4244 11.6459 28.4244ZM11.6463 19.4161L5.98047 19.4161C4.38114 19.4161 3.08008 18.1431 3.08008 16.6177C3.08008 15.0924 4.38114 13.8193 5.98047 13.8193L11.6463 13.8193C13.2456 13.8193 14.5467 15.0924 14.5467 16.6177C14.5467 18.1431 13.2456 19.4161 11.6463 19.4161ZM11.6341 10.3248L5.96833 10.3248C4.93645 10.3248 3.9832 9.79981 3.46714 8.94745C2.95106 8.09514 2.95106 7.04511 3.46714 6.1928C3.98322 5.34049 4.93645 4.81543 5.96833 4.81543L11.6341 4.81543C12.666 4.81543 13.6196 5.34044 14.1353 6.1928C14.6514 7.04511 14.6514 8.09514 14.1353 8.94745C13.6196 9.79976 12.666 10.3248 11.6341 10.3248ZM26.1087 36.6442L20.4429 36.6442C19.4111 36.6442 18.4575 36.1191 17.9417 35.2668C17.4257 34.4145 17.4257 33.3644 17.9417 32.5121C18.4575 31.6598 19.4111 31.1348 20.4429 31.1348L26.1087 31.1348C27.1406 31.1348 28.0939 31.6598 28.6099 32.5121C29.126 33.3644 29.126 34.4145 28.6099 35.2668C28.0939 36.1191 27.1406 36.6442 26.1087 36.6442ZM26.1029 28.4254L20.4371 28.4254C19.4052 28.4254 18.4516 27.9004 17.9359 27.048C17.4198 26.1957 17.4198 25.1457 17.9359 24.2934C18.4516 23.4411 19.4052 22.916 20.4371 22.916L26.1029 22.916C27.1348 22.916 28.088 23.441 28.6041 24.2934C29.1202 25.1457 29.1202 26.1957 28.6041 27.048C28.088 27.9003 27.1348 28.4254 26.1029 28.4254L26.1029 28.4254ZM26.1072 19.4171L20.4414 19.4171C18.8421 19.4171 17.541 18.1441 17.541 16.6187C17.541 15.0933 18.8421 13.8203 20.4414 13.8203L26.1072 13.8203C27.7066 13.8203 29.0076 15.0933 29.0076 16.6187C29.0076 18.1441 27.7066 19.4171 26.1072 19.4171ZM26.1087 10.3219L20.4429 10.3219C19.4111 10.3219 18.4575 9.79688 17.9417 8.94452C17.4257 8.09221 17.4257 7.04218 17.9417 6.18987C18.4575 5.33756 19.4111 4.8125 20.4429 4.8125L26.1087 4.8125C27.1406 4.8125 28.0939 5.33751 28.6099 6.18987C29.126 7.04218 29.126 8.09221 28.6099 8.94452C28.0939 9.79683 27.1406 10.3219 26.1087 10.3219Z" id="Shape" fill="#000000" fill-opacity="0.047058824" stroke="none" />
      <path d="M20.4629 25.5622C20.4635 25.814 20.5849 26.0552 20.8005 26.2323C21.0157 26.4096 21.3073 26.508 21.6103 26.5063L23.4629 26.5063L23.4629 24.6182L21.6103 24.6182C21.3073 24.6164 21.0157 24.7148 20.8005 24.8922C20.5849 25.0692 20.4635 25.3105 20.4629 25.5622L20.4629 25.5622Z" id="Path" fill="#000000" fill-opacity="0.047058824" fill-rule="evenodd" stroke="none" />
      <path d="M25.4655 24.3819L23.6133 24.3819L23.6133 26.2699L25.4655 26.2699C25.8755 26.2699 26.2545 26.0901 26.4595 25.7979C26.6645 25.5057 26.6645 25.1461 26.4595 24.8539C26.2545 24.5617 25.8755 24.3818 25.4655 24.3818L25.4655 24.3819Z" id="Path" fill="#000000" fill-opacity="0.047058824" fill-rule="evenodd" stroke="none" />
    </g>
    <path d="M1076.98 91.0251C1074.81 92.7407 1072.16 89.7524 1074.32 88.0367L1079.15 84.2093C1079.32 84.0774 1079.15 84.2093 1079.15 84.2093L1078.13 78.5869C1077.53 75.0396 1081.78 72.4761 1084.83 74.6222L1096.61 82.4446L1096.77 82.3126L1093.91 76.5384C1092.99 74.8588 1093.48 72.8592 1094.98 71.6715L1100.31 67.4481C1100.31 67.4481 1099.6 63.4544 1099.49 63.008C1099 59.9076 1102.17 57.3998 1105.15 58.5207L1109.95 60.0828L1111.61 58.763C1113.11 57.5751 1115.29 57.4631 1116.88 58.6148L1129.69 66.9601L1122.93 53.2853C1122 51.6057 1122.5 49.6061 1124 48.4184L1127.33 45.7787C1129.49 44.0631 1132.29 47.2089 1130.13 48.9246L1126.79 51.5643C1126.79 51.5643 1133.05 64.0319 1133.55 65.2391C1135.38 68.8874 1130.71 72.5828 1127.22 70.2544L1114.41 61.9091L1114.41 61.9091L1112.74 63.2289C1111.58 64.1527 1110.02 64.3153 1108.51 63.8996L1103.88 62.2055L1103.72 62.3374L1104.54 66.7776C1104.88 68.1173 1104.27 69.6704 1103.11 70.5942L1097.78 74.8175L1100.64 80.5918C1102.29 84.372 1097.8 87.9355 1094.31 85.607L1082.36 77.9166L1082.22 77.7593L1082.36 77.9166L1083.38 83.5389C1083.72 84.8787 1082.98 86.2745 1081.81 87.1983L1076.98 91.0257L1076.98 91.0251Z" id="Path" fill="#173E67" fill-opacity="0.101960786" fill-rule="evenodd" stroke="none" />
    <path d="M1221.08 147.586C1213.19 140.138 1200.38 140.138 1192.49 147.586L1191.99 148.054L1191.5 147.586C1183.6 140.138 1170.8 140.138 1162.91 147.586C1157.57 152.619 1155.86 159.763 1157.73 166.167L1171.82 166.167L1181.82 151.008L1192.56 179.961L1199.66 166.296L1206.77 166.296C1207.56 164.601 1209.35 163.417 1211.43 163.417C1214.25 163.417 1216.53 165.569 1216.53 168.224C1216.53 170.879 1214.25 173.03 1211.43 173.03C1209.35 173.03 1207.56 171.847 1206.77 170.152L1202.53 170.152L1191.86 190.677L1180.68 160.503L1174.39 170.023L1159.35 170.023C1160.27 171.654 1161.45 173.186 1162.91 174.56L1191.99 202L1221.08 174.56C1228.97 167.112 1228.97 155.035 1221.08 147.587L1221.08 147.586Z" id="Path" fill="#173E67" fill-opacity="0.03137255" fill-rule="evenodd" stroke="none" />
    <g id="Group-13" transform="matrix(0.7771459 0.6293204 -0.6293204 0.7771459 987.02734 163.44678)" filter="url(#filter_1)">
      <path d="M39.002 9.79682C39.002 12.2071 36.9746 14.1608 34.473 14.1608L11.5292 14.1603C9.02874 14.1603 7.00195 12.2065 7.00195 9.79629L7.00195 4.36456C7.00195 1.9527 9.0293 -1.78631e-08 11.5292 -3.98899e-08L34.473 -2.4205e-07C36.9752 -2.64097e-07 39.002 1.9527 39.002 4.36456L39.002 9.79682Z" id="Path" fill="#000000" fill-opacity="0.047058824" fill-rule="evenodd" stroke="none" />
      <path d="M39.6164 24.2383L34.2247 19.3816L34.2247 16.0508L10.7697 16.0508L10.7697 19.3816L5.37798 24.2383C2.419 26.9075 -0.00195298 32.4114 -0.00195295 36.4755L-0.00195277 56.107C-0.00195275 58.4903 2.07841 60.4214 4.64654 60.4214L40.3496 60.4214C42.9177 60.4214 44.998 58.4903 44.998 56.107L44.998 36.4755C44.9969 32.4107 42.5759 26.9074 39.617 24.2383L39.6164 24.2383ZM38.9162 50.9912C38.9162 53.2311 36.9594 55.0486 34.5446 55.0486L10.4496 55.0492C8.03536 55.0492 6.07913 53.2322 6.07913 50.9917L6.07857 35.1693C6.07857 32.9304 8.03366 31.1119 10.449 31.1119L34.5441 31.1119C36.9577 31.1119 38.9157 32.93 38.9157 35.1693L38.9162 50.9917L38.9162 50.9912Z" id="Shape" fill="#000000" fill-opacity="0.047058824" stroke="none" />
      <path d="M31.002 44.5408C31.002 45.8709 29.8582 46.9497 28.4498 46.9497L26.7373 46.9497L26.7373 48.5668C26.7373 49.8975 25.5947 50.9772 24.1851 50.9772L22.8188 50.9772C21.4092 50.9772 20.2666 49.8985 20.2666 48.5668L20.2666 46.9497L18.5542 46.9497C17.1446 46.9497 16.002 45.8714 16.002 44.5408L16.002 43.2508C16.002 41.9201 17.1441 40.8414 18.5542 40.8414L20.2666 40.8414L20.2666 39.2243C20.2666 37.8941 21.4087 36.8164 22.8188 36.8164L24.1851 36.8164C25.5941 36.8164 26.7373 37.8937 26.7373 39.2243L26.7373 40.8414L28.4498 40.8414C29.8576 40.8414 31.002 41.9197 31.002 43.2508L31.002 44.5408Z" id="Path" fill="#000000" fill-opacity="0.047058824" fill-rule="evenodd" stroke="none" />
    </g>
    <g id="Group-14" transform="matrix(0.7771459 -0.6293204 0.6293204 0.7771459 844.58203 69.30286)" filter="url(#filter_1)">
      <path d="M10.7441 1.99163C10.7441 3.03452 9.62511 3.87974 8.24434 3.87974C6.86357 3.87974 5.74414 3.03451 5.74414 1.99163C5.74414 0.948731 6.86347 0.103516 8.24434 0.103516C9.62521 0.103516 10.7441 0.948741 10.7441 1.99163" id="Path" fill="#000000" fill-opacity="0.047058824" fill-rule="evenodd" stroke="none" />
      <path d="M16.0416 1.09215L15.2768 1.09215L15.2768 2.9468L16.0416 2.9468C19.3269 2.9468 22.0001 5.42718 22.0001 8.47574L22.0001 10.3707L21.9725 10.3703C21.8756 13.2394 20.8319 16.3469 19.1108 18.8962C17.0602 21.9331 14.4054 23.7536 11.9981 23.7792C9.59041 23.7533 6.93596 21.9337 4.88573 18.8969C3.16465 16.3475 2.12134 13.2396 2.02326 10.371L1.9957 10.3714L1.9957 8.47609C1.99607 5.42692 4.66934 2.9468 7.95491 2.9468L8.71901 2.9468L8.71901 1.0918L7.95491 1.0918C3.56725 1.0918 -0.00195315 4.40404 -0.00195319 8.47609L-0.00195321 10.5362L0.034415 10.5362C0.165558 13.7375 1.28264 17.0528 3.19331 19.8811C5.59949 23.4455 8.86419 25.5854 11.9466 25.6328L11.9466 25.6373C11.9639 25.6373 11.9815 25.6352 11.9981 25.6349C12.0153 25.6352 12.033 25.6373 12.0502 25.6373L12.0502 25.6328C15.1327 25.5854 18.3966 23.4455 20.8035 19.8811C22.7131 17.053 23.8312 13.7377 23.9617 10.5362L23.998 10.5362L23.998 8.47644C23.998 4.40404 20.4292 1.09215 16.0416 1.09215L16.0416 1.09215Z" id="Path" fill="#000000" fill-opacity="0.047058824" fill-rule="evenodd" stroke="none" />
      <path d="M18.5547 1.88811C18.5547 2.93101 17.4354 3.77622 16.0545 3.77622C14.6736 3.77622 13.5547 2.931 13.5547 1.88811C13.5547 0.845216 14.6737 9.8599e-09 16.0545 2.2026e-08C17.4353 3.4192e-08 18.5547 0.845226 18.5547 1.88811" id="Path" fill="#000000" fill-opacity="0.047058824" fill-rule="evenodd" stroke="none" />
      <path d="M33.9359 14.6484C30.9643 14.6484 28.5491 17.0722 28.5491 20.0507L28.5491 34.722C28.5491 38.6955 24.9897 42.052 20.7762 42.052L20.6274 42.052C16.4405 42.052 13.0342 38.7647 13.0342 34.722L13.0342 25.0259L11.0801 25.0259L11.0801 34.722C11.0801 39.7901 15.3633 43.9142 20.6273 43.9142L20.7761 43.9142C26.0489 43.9142 30.5028 39.7045 30.5028 34.722L30.5028 20.0507C30.5028 18.0987 32.0426 16.5107 33.9353 16.5107L37.0801 16.5107L37.0801 14.6484L33.9359 14.6484Z" id="Path" fill="#000000" fill-opacity="0.047058824" fill-rule="evenodd" stroke="none" />
      <path d="M43.1445 15.2209C43.1445 16.5252 42.0257 17.5797 40.6442 17.5797C39.2626 17.5797 38.1445 16.5245 38.1445 15.2209C38.1445 13.9174 39.2637 12.8594 40.6442 12.8594C42.0257 12.8597 43.1445 13.9173 43.1445 15.2209Z" id="Path" fill="#000000" fill-opacity="0.047058824" fill-rule="evenodd" stroke="none" />
      <path d="M40.644 20.4119C37.6104 20.4119 35.1445 18.0823 35.1445 15.2189C35.1445 12.356 37.6115 10.0273 40.644 10.0273C43.6769 10.0273 46.1445 12.3557 46.1445 15.2183C46.1445 18.0823 43.6769 20.412 40.644 20.412L40.644 20.4119ZM40.644 11.8322C38.6665 11.8322 37.0567 13.351 37.0567 15.2183C37.0567 17.0862 38.6662 18.6057 40.644 18.6057C42.6222 18.6057 44.2317 17.0862 44.2317 15.2183C44.2317 13.351 42.6218 11.8322 40.644 11.8322Z" id="Shape" fill="#000000" fill-opacity="0.047058824" stroke="none" />
      <path d="M20.3394 18.1132C20.0957 17.9649 19.8149 17.8867 19.5286 17.8867C18.999 17.8867 18.5146 18.1456 18.2335 18.579C16.3109 21.5423 13.7517 23.4004 11.5549 23.4303C9.35738 23.4008 6.79849 21.5423 4.87546 18.579C4.59429 18.1452 4.10996 17.8867 3.58075 17.8867C3.29442 17.8867 3.01399 17.9646 2.77035 18.1132C2.05711 18.5449 1.84034 19.4573 2.28713 20.147C4.76179 23.9598 8.17484 26.2876 11.4157 26.3743C11.4268 26.3754 11.4378 26.3768 11.4485 26.379C11.4761 26.3822 11.5041 26.3839 11.5339 26.3822L11.5751 26.3822C11.5858 26.3832 11.5961 26.3832 11.6068 26.3832C11.6252 26.3832 11.6425 26.3811 11.6605 26.3793C11.6715 26.3772 11.6826 26.3758 11.6925 26.3747C14.9345 26.2879 18.3472 23.9611 20.8218 20.1474C21.2689 19.4573 21.0529 18.5449 20.3393 18.1132L20.3394 18.1132Z" id="Path" fill="#000000" fill-opacity="0.047058824" fill-rule="evenodd" stroke="none" />
    </g>
    <g id="Group-15" transform="translate(539 40)" filter="url(#filter_1)">
      <path d="M12.9016 5.65714C12.5268 2.49807 9.75132 0 6.45081 0C3.1503 0 0.375389 2.49807 0 5.65714L12.9016 5.65714Z" id="Path" fill="#000000" fill-opacity="0.047058824" fill-rule="evenodd" stroke="none" />
      <path d="M16.5353 16.0286C14.8267 17.8732 13.8945 20.2344 13.8945 22.7433C13.8945 25.4736 14.9819 28.0562 17.0791 29.9745C19.1763 31.8933 21.8171 33 24.6906 33C27.3314 33 29.8167 32.1147 31.7583 30.4911L16.5353 16.0286Z" id="Path" fill="#000000" fill-opacity="0.047058824" fill-rule="evenodd" stroke="none" />
      <path d="M0 7.54285C0.374835 10.7019 3.1503 13.2 6.45081 13.2C9.75132 13.2 12.5262 10.7019 12.9016 7.54285L0 7.54285Z" id="Path" fill="#000000" fill-opacity="0.047058824" fill-rule="evenodd" stroke="none" />
      <path d="M24.9312 12.2577C22.2903 12.2577 19.805 13.1429 17.8633 14.7666L33.0862 29.2286C34.7948 27.384 35.7271 25.0228 35.7271 22.5139C35.7271 19.7836 34.6397 17.201 32.5424 15.2827C30.4452 13.3639 27.8043 12.2572 24.9307 12.2572L24.9312 12.2577Z" id="Path" fill="#000000" fill-opacity="0.047058824" fill-rule="evenodd" stroke="none" />
      <path d="M46.2344 1.88574L46.2344 18.8572C50.6591 18.1595 53.9987 14.5949 53.9987 10.3328C53.9987 6.07062 50.6595 2.58343 46.2344 1.88636L46.2344 1.88574Z" id="Path" fill="#000000" fill-opacity="0.047058824" fill-rule="evenodd" stroke="none" />
      <path d="M44.6585 1.88574C39.7052 1.96205 35.7266 5.70791 35.7266 10.3715C35.7266 15.035 39.7052 18.8572 44.6585 18.8572L44.6585 1.88574Z" id="Path" fill="#000000" fill-opacity="0.047058824" fill-rule="evenodd" stroke="none" />
    </g>
    <path d="M724.182 196.018L719.79 200.167L711 191.869L715.397 187.716C716.568 186.61 718.131 186 719.79 186C721.449 186 723.011 186.609 724.183 187.716C726.606 190.004 726.606 193.729 724.183 196.017L724.182 196.018ZM704.817 196.764C703.646 197.87 703 199.346 703 200.913C703 202.479 703.645 203.955 704.817 205.061C707.24 207.35 711.184 207.35 713.607 205.061L718 200.913L709.214 192.611L704.817 196.764ZM730.998 220C734.629 220 737.735 217.649 739 214.334L723 214.333C724.265 217.648 727.37 220 730.998 220L730.998 220ZM739.877 210.556L722.123 210.556C722.052 211.018 722 211.491 722 211.972C722 212.459 722.052 212.926 722.123 213.389L739.877 213.389C739.952 212.926 740 212.459 740 211.972C740 211.491 739.952 211.018 739.877 210.556ZM723 208.667L739 208.667C737.735 205.352 734.629 203 730.998 203C727.37 203 724.265 205.352 723 208.667L723 208.667Z" id="Shape" fill="#173E67" fill-opacity="0.101960786" stroke="none" />
  </g>
</svg>