<?xml version="1.0" encoding="utf-8"?>
<svg width="307.3482px" height="311px" viewBox="0 0 307.3482 311" version="1.1" xmlns:xlink="http://www.w3.org/1999/xlink" xmlns="http://www.w3.org/2000/svg">
  <defs>
    <path d="M0 0L2.24644 0L2.24644 2.23354L0 2.23354L0 0Z" id="path_1" />
    <clipPath id="mask_1">
      <use xlink:href="#path_1" />
    </clipPath>
  </defs>
  <g id="Group-18" transform="translate(0.5 0.5)">
    <g id="Group-17" transform="translate(22.347656 165)">
      <g id="Seat" transform="translate(0 44.503647)">
        <path d="M144.119 0L52.2363 0Q51.8435 0 51.4513 0.0192715Q51.059 0.038543 50.6681 0.0770395Q50.2772 0.115536 49.8887 0.173165Q49.5002 0.230794 49.115 0.307416Q48.7298 0.384039 48.3488 0.47947Q47.9679 0.574901 47.592 0.688911Q47.2162 0.802922 46.8464 0.935236Q46.4766 1.06755 46.1137 1.21785Q45.7509 1.36815 45.3958 1.53607Q45.0408 1.704 44.6944 1.88914Q44.348 2.07428 44.0111 2.2762Q43.6743 2.47812 43.3477 2.69632Q43.0211 2.91452 42.7057 3.14848Q42.3902 3.38245 42.0866 3.63161Q41.783 3.88077 41.492 4.14452Q41.201 4.40828 40.9233 4.686Q40.6456 4.96372 40.3818 5.25473Q40.118 5.54574 39.8689 5.84934Q39.6197 6.15294 39.3858 6.46841Q39.1518 6.78387 38.9336 7.11043Q38.7154 7.43699 38.5135 7.77387Q38.3116 8.11075 38.1264 8.45712Q37.9413 8.8035 37.7734 9.15855Q37.6054 9.51359 37.4551 9.87645Q37.3048 10.2393 37.1725 10.6091Q37.0402 10.9789 36.9262 11.3547Q36.8122 11.7306 36.7168 12.1116Q36.6213 12.4925 36.5447 12.8777Q36.4681 13.263 36.4104 13.6515Q36.3528 14.04 36.3143 14.4308Q36.2758 14.8217 36.2566 15.214Q36.2373 15.6062 36.2373 15.999L36.2373 79.4303Q36.2373 79.8231 36.2566 80.2153Q36.2758 80.6076 36.3143 80.9985Q36.3528 81.3893 36.4104 81.7778Q36.4681 82.1663 36.5447 82.5515Q36.6213 82.9368 36.7168 83.3177Q36.8122 83.6987 36.9262 84.0746Q37.0402 84.4504 37.1725 84.8202Q37.3048 85.19 37.4551 85.5528Q37.6054 85.9157 37.7734 86.2708Q37.9413 86.6258 38.1264 86.9722Q38.3116 87.3186 38.5135 87.6554Q38.7154 87.9923 38.9336 88.3189Q39.1518 88.6454 39.3858 88.9609Q39.6197 89.2764 39.8689 89.58Q40.118 89.8836 40.3818 90.1746Q40.6456 90.4656 40.9233 90.7433Q41.201 91.021 41.492 91.2848Q41.783 91.5485 42.0866 91.7977Q42.3902 92.0469 42.7057 92.2808Q43.0211 92.5148 43.3477 92.733Q43.6743 92.9512 44.0111 93.1531Q44.348 93.355 44.6944 93.5402Q45.0408 93.7253 45.3958 93.8932Q45.7509 94.0611 46.1137 94.2114Q46.4766 94.3617 46.8464 94.4941Q47.2162 94.6264 47.592 94.7404Q47.9679 94.8544 48.3488 94.9498Q48.7298 95.0453 49.115 95.1219Q49.5002 95.1985 49.8887 95.2561Q50.2772 95.3138 50.6681 95.3523Q51.059 95.3908 51.4513 95.41Q51.8435 95.4293 52.2363 95.4293L144.119 95.4293Q144.512 95.4293 144.904 95.41Q145.297 95.3908 145.687 95.3523Q146.078 95.3138 146.467 95.2561Q146.855 95.1985 147.24 95.1219Q147.626 95.0453 148.007 94.9498Q148.388 94.8544 148.763 94.7404Q149.139 94.6264 149.509 94.4941Q149.879 94.3617 150.242 94.2114Q150.605 94.0611 150.96 93.8932Q151.315 93.7253 151.661 93.5402Q152.007 93.355 152.344 93.1531Q152.681 92.9512 153.008 92.733Q153.334 92.5148 153.65 92.2808Q153.965 92.0469 154.269 91.7977Q154.572 91.5485 154.863 91.2848Q155.155 91.021 155.432 90.7433Q155.71 90.4656 155.974 90.1746Q156.237 89.8836 156.487 89.58Q156.736 89.2764 156.97 88.9609Q157.204 88.6454 157.422 88.3189Q157.64 87.9923 157.842 87.6554Q158.044 87.3186 158.229 86.9722Q158.414 86.6258 158.582 86.2708Q158.75 85.9157 158.9 85.5528Q159.051 85.19 159.183 84.8202Q159.315 84.4504 159.429 84.0746Q159.543 83.6987 159.639 83.3177Q159.734 82.9368 159.811 82.5515Q159.887 82.1663 159.945 81.7778Q160.003 81.3893 160.041 80.9985Q160.08 80.6076 160.099 80.2153Q160.118 79.8231 160.118 79.4303L160.118 15.999Q160.118 15.6062 160.099 15.214Q160.08 14.8217 160.041 14.4308Q160.003 14.04 159.945 13.6515Q159.887 13.263 159.811 12.8777Q159.734 12.4925 159.639 12.1116Q159.543 11.7306 159.429 11.3547Q159.315 10.9789 159.183 10.6091Q159.051 10.2393 158.9 9.87645Q158.75 9.51359 158.582 9.15855Q158.414 8.8035 158.229 8.45712Q158.044 8.11075 157.842 7.77387Q157.64 7.43699 157.422 7.11043Q157.204 6.78387 156.97 6.46841Q156.736 6.15294 156.487 5.84934Q156.237 5.54574 155.974 5.25473Q155.71 4.96372 155.432 4.686Q155.155 4.40828 154.863 4.14452Q154.572 3.88077 154.269 3.63161Q153.965 3.38245 153.65 3.14848Q153.334 2.91452 153.008 2.69632Q152.681 2.47812 152.344 2.2762Q152.007 2.07428 151.661 1.88914Q151.315 1.704 150.96 1.53607Q150.605 1.36815 150.242 1.21785Q149.879 1.06755 149.509 0.935236Q149.139 0.802922 148.763 0.688911Q148.388 0.574901 148.007 0.47947Q147.626 0.384039 147.24 0.307416Q146.855 0.230794 146.467 0.173165Q146.078 0.115536 145.687 0.0770395Q145.297 0.038543 144.904 0.0192715Q144.512 0 144.119 0ZM132.523 21.5486L63.8327 21.5486Q63.6362 21.5486 63.4407 21.5678Q63.2452 21.5871 63.0525 21.6254Q62.8598 21.6637 62.6718 21.7207Q62.4838 21.7778 62.3023 21.853Q62.1208 21.9281 61.9475 22.0207Q61.7743 22.1134 61.6109 22.2225Q61.4476 22.3317 61.2957 22.4563Q61.1439 22.5809 61.0049 22.7198Q60.866 22.8587 60.7414 23.0106Q60.6168 23.1625 60.5076 23.3258Q60.3985 23.4892 60.3059 23.6624Q60.2132 23.8357 60.1381 24.0172Q60.0629 24.1987 60.0059 24.3867Q59.9488 24.5747 59.9105 24.7674Q59.8722 24.9601 59.8529 25.1556Q59.8337 25.3511 59.8337 25.5476L59.8337 69.8818Q59.8337 70.0782 59.8529 70.2737Q59.8722 70.4692 59.9105 70.6619Q59.9488 70.8546 60.0059 71.0426Q60.0629 71.2306 60.1381 71.4121Q60.2132 71.5936 60.3059 71.7669Q60.3985 71.9401 60.5076 72.1035Q60.6168 72.2668 60.7414 72.4187Q60.866 72.5706 61.0049 72.7095Q61.1439 72.8484 61.2957 72.973Q61.4476 73.0976 61.6109 73.2068Q61.7743 73.3159 61.9475 73.4085Q62.1208 73.5012 62.3023 73.5763Q62.4838 73.6515 62.6718 73.7085Q62.8598 73.7656 63.0525 73.8039Q63.2452 73.8422 63.4407 73.8615Q63.6362 73.8808 63.8327 73.8808L132.523 73.8808Q132.719 73.8808 132.915 73.8615Q133.11 73.8422 133.303 73.8039Q133.496 73.7656 133.684 73.7085Q133.872 73.6515 134.053 73.5763Q134.235 73.5012 134.408 73.4085Q134.581 73.3159 134.745 73.2068Q134.908 73.0976 135.06 72.973Q135.212 72.8484 135.351 72.7095Q135.489 72.5706 135.614 72.4187Q135.739 72.2668 135.848 72.1035Q135.957 71.9401 136.05 71.7669Q136.142 71.5936 136.217 71.4121Q136.293 71.2306 136.35 71.0426Q136.407 70.8546 136.445 70.6619Q136.483 70.4692 136.503 70.2737Q136.522 70.0782 136.522 69.8818L136.522 25.5476Q136.522 25.3511 136.503 25.1556Q136.483 24.9601 136.445 24.7674Q136.407 24.5747 136.35 24.3867Q136.293 24.1987 136.217 24.0172Q136.142 23.8357 136.05 23.6624Q135.957 23.4892 135.848 23.3258Q135.739 23.1625 135.614 23.0106Q135.49 22.8587 135.351 22.7198Q135.212 22.5809 135.06 22.4563Q134.908 22.3316 134.745 22.2225Q134.581 22.1134 134.408 22.0207Q134.235 21.9281 134.053 21.853Q133.872 21.7778 133.684 21.7207Q133.496 21.6637 133.303 21.6254Q133.11 21.5871 132.915 21.5678Q132.719 21.5486 132.523 21.5486Z" id="Seat" fill="#B5B5BE" fill-rule="evenodd" stroke="none" />
      </g>
      <path d="M243.682 135.71C227.067 115.378 215.825 100.305 209.956 90.4902C199.906 73.6853 191.681 58.732 189.085 53.02C182.896 39.3988 203.335 33.0206 207.961 39.3739C214.962 48.99 229.915 79.2492 252.818 130.151L243.682 135.71Z" id="Legs-[skin]" fill="#FFBC65" fill-rule="evenodd" stroke="none" />
      <path d="M209.635 129.799L178.713 51.7975C172.1 37.5783 204.038 28.2317 208.898 34.849C219.933 49.8724 246.16 109.137 249.447 113.613L209.635 129.799Z" id="LegLower" fill="#173E67" fill-rule="evenodd" stroke="none" />
      <path d="M127.28 114.156C133.303 105.351 155.212 75.7288 167.146 63.4722C170.575 59.9501 173.921 56.5696 177.086 53.4194C186.492 44.0559 205.224 59.794 195.835 68.3226C172.452 89.5622 138.335 118.235 135.484 120.792C131.489 124.375 123.494 119.69 127.28 114.156Z" id="Legs-[skin]" fill="#FFBC65" fill-rule="evenodd" stroke="none" />
      <g id="Left-[shoe]" transform="matrix(0.8660254 0.5 -0.5 0.8660254 130.17087 104.8137)">
        <path d="M1.38192 5.5498C0.775296 7.2422 2.34689e-16 9.67718 0 11.0678C0 13.3522 0.759504 17.7347 0.759504 17.7347C3.40391 17.7347 48.291 17.7347 48.291 17.7347C48.291 17.7347 50.1438 11.5966 46.152 11.1071C42.1602 10.6177 39.5198 10.2233 39.5198 10.2233L17.5756 0.419841Q17.5299 0.399441 17.4825 0.383704Q17.435 0.367967 17.3862 0.35705Q17.3374 0.346132 17.2877 0.340144Q17.2381 0.334156 17.1881 0.333157Q17.1381 0.332158 17.0882 0.336158Q17.0384 0.340158 16.9891 0.349117Q16.9399 0.358076 16.8919 0.371904Q16.8438 0.385733 16.7974 0.404292Q16.7509 0.422851 16.7066 0.445956Q16.6622 0.469061 16.6204 0.496481Q16.5786 0.5239 16.5397 0.55536Q16.5008 0.58682 16.4653 0.622005Q16.4297 0.65719 16.3979 0.69575Q16.366 0.734309 16.3382 0.775856Q16.3104 0.817404 16.2868 0.861524Q16.2633 0.905644 16.2442 0.951896C15.7409 2.17543 14.8853 4.25521 14.8853 4.25521C14.8853 4.25521 11.1899 5.98302 8.87958 5.98302C7.51948 5.98302 5.40843 5.18534 3.90194 4.52915C2.88977 4.08827 1.75444 4.51053 1.38192 5.5498Z" id="shoe" fill="#173E67" fill-rule="evenodd" stroke="none" />
      </g>
      <g id="Right-[shoe]" transform="translate(235.121 127.26535)">
        <path d="M1.38192 5.5498C0.775294 7.2422 2.34688e-16 9.67718 0 11.0678C0 13.3522 0.759502 17.7346 0.759502 17.7346C3.4039 17.7346 48.2909 17.7346 48.2909 17.7346C48.2909 17.7346 50.1436 11.5966 46.1518 11.1071C42.16 10.6177 39.5197 10.2233 39.5197 10.2233L17.5755 0.419843Q17.5299 0.399443 17.4824 0.383706Q17.4349 0.367968 17.3861 0.357051Q17.3373 0.346134 17.2877 0.340146Q17.238 0.334158 17.188 0.333159Q17.138 0.33216 17.0882 0.33616Q17.0383 0.340159 16.9891 0.349118Q16.9399 0.358077 16.8918 0.371906Q16.8438 0.385734 16.7973 0.404293Q16.7509 0.422853 16.7065 0.445958Q16.6622 0.469063 16.6204 0.496482Q16.5785 0.523902 16.5397 0.555362Q16.5008 0.586821 16.4652 0.622007Q16.4297 0.657192 16.3978 0.695752Q16.366 0.734311 16.3381 0.775859Q16.3103 0.817406 16.2868 0.861526Q16.2632 0.905647 16.2442 0.951899C15.7408 2.17543 14.8853 4.25521 14.8853 4.25521C14.8853 4.25521 11.1899 5.98302 8.87955 5.98302C7.51946 5.98302 5.40842 5.18534 3.90193 4.52915C2.88976 4.08827 1.75444 4.51053 1.38192 5.5498Z" id="shoe" fill="#173E67" fill-rule="evenodd" stroke="none" />
      </g>
      <path d="M167.587 55.6934C167.587 55.6934 129.036 49.3997 115.943 47.0862C91.063 42.69 83.8078 29.2732 88.0975 8.40082e-14L133.938 0C143.038 2.6333 209.98 32.5722 209.98 32.5722C218.01 36.5666 216.515 48.344 215.047 52.2242C214.957 52.4616 174.438 121.956 174.438 121.956L136.938 98.0163L167.657 58.5143C167.657 58.5143 168.874 56.0582 167.587 55.6934Z" id="Leg-and-Butt" fill="#173E67" fill-rule="evenodd" stroke="none" />
    </g>
    <g id="Group-6" transform="matrix(0.76604444 0.6427876 -0.6427876 0.76604444 35.765625 189.45972)">
      <path d="M7.95862 25.5942L47.7741 10.5981L57.9034 37.6764L18.088 52.6725L7.95862 25.5942Z" id="Rectangle" fill="#F93D3D" fill-rule="evenodd" stroke="none" />
      <path d="M59.3575 32.4855L49.7653 6.43788C48.7647 3.25807 45.3172 1.53596 42.1975 2.5559L41.8987 2.6703L34.1278 5.64318L33.5666 4.11988C32.3325 0.768719 28.3343 -0.829833 25.046 0.428061L15.1825 4.20174C11.8952 5.45964 9.91578 9.34568 11.1499 12.6963L11.7106 14.2196L3.93922 17.193C0.847433 18.2892 -0.738867 21.8499 0.335627 25.0017L0.447865 25.3063L10.041 51.3534C11.0691 54.6095 14.545 56.4079 17.8139 55.331L17.9635 55.2741L55.9235 40.7508C59.108 39.4456 60.6953 35.884 59.4148 32.6381C59.3859 32.5613 59.3859 32.5613 59.3579 32.4855L59.3575 32.4855ZM15.9998 10.5967C15.8143 9.66004 16.3335 8.79597 17.2252 8.46476L27.0309 4.82301C27.922 4.4918 28.8881 4.80387 29.3716 5.63065L29.9295 7.10119L16.5577 12.0673L15.9998 10.5967ZM37.6855 28.8685L32.9991 30.6493L34.5907 34.9419C35.0655 36.222 34.4611 37.5689 33.1963 38.0495C31.932 38.5302 30.6016 37.9188 30.1269 36.6383L28.5353 32.3456L23.8489 34.1264C22.5846 34.6071 21.2542 33.9957 20.7795 32.7151C20.3048 31.4346 20.9091 30.0877 22.1734 29.607L26.8603 27.8267L25.2126 23.3832C24.7378 22.1032 25.3422 20.7563 26.607 20.2756C27.8718 19.795 29.2017 20.4063 29.6764 21.6869L31.3241 26.1304L36.0105 24.3496C37.2748 23.8689 38.6052 24.4808 39.0799 25.7608C39.5537 27.0409 38.9498 28.3878 37.6855 28.8685L37.6855 28.8685Z" id="Shape" fill="#1C1F3F" stroke="none" />
    </g>
    <path d="M52.4322 191.665C55.5794 187.052 73.7846 138 73.7846 138L88.7312 140.165C88.7312 140.165 64.6655 192.253 62.9274 195.259C60.6695 199.165 62.6666 205.579 64.0209 209.928C64.2304 210.601 64.4245 211.224 64.5851 211.781C61.7404 212.601 60.6582 210.976 59.5173 209.264C58.2286 207.33 56.8651 205.283 52.8024 206.518C51.2328 206.996 49.7248 207.608 48.2515 208.207C43.1624 210.276 38.4873 212.176 33.1176 207.733C32.2663 207.028 31.5492 204.725 34.255 203.383C40.9962 200.039 50.8937 193.92 52.4322 191.665ZM214.609 168.866L189.135 147.323L182.173 161.547L207.993 174.402Q217.713 187.55 219.621 186.5Q219.745 186.432 219.836 186.303C220.674 185.12 220.168 183.923 219.702 182.82C219.339 181.961 219.001 181.159 219.34 180.466C220.115 178.883 225.155 179.407 229.916 180.108C234.677 180.809 233.431 178.587 232.35 177.457C227.668 174.199 221.755 171.335 214.609 168.866Z" id="Arms-[skin]-Copy" fill="#FFBC65" fill-rule="evenodd" stroke="none" />
    <path d="M136.32 76.8494L145.573 73.7895C158.125 105.144 176.844 135.481 208.119 161.106L200.385 174.449C172.898 158.257 146.879 145.679 136.32 121.383C132.777 113.229 136.031 86.5996 136.32 76.8494Z" id="Coat-Back-Copy" fill="#C5CFD6" fill-rule="evenodd" stroke="none" />
    <g id="Head" transform="translate(125.34766 22)">
      <path d="M16.6128 37.5774C22.0091 40.8924 27.3112 42.4941 29.8002 41.8402C36.0412 40.2006 36.615 16.9311 31.786 7.75759C26.957 -1.41597 2.13194 -5.4144 0.880644 12.7613C0.446361 19.0696 3.04529 24.6993 6.88521 29.293L0 62L19.9999 62L16.6128 37.5774Z" id="Head-[skin]" fill="#FFBC65" fill-rule="evenodd" stroke="none" />
    </g>
    <path d="M150.324 20.5221C147.547 19.68 143.516 19.3944 141.82 19.5876C142.784 17.2891 143.167 14.7284 142.855 12.235C142.552 9.81227 141.463 7.74936 140.456 5.58769C139.992 4.5913 139.466 3.60034 138.682 2.83821C137.883 2.06176 136.872 1.54924 135.812 1.30473C134.727 1.05444 133.592 1.07528 132.505 1.30242C132.025 1.40289 131.593 1.62147 131.122 1.74298C130.639 1.86748 130.405 1.56696 130.054 1.26495C129.21 0.537241 127.972 0.178003 126.903 0.0494319C125.704 -0.0947521 124.461 0.0850706 123.317 0.476961C122.204 0.858465 121.135 1.47797 120.331 2.38048C119.973 2.78221 119.647 3.23947 119.436 3.74432C119.349 3.9515 119.335 4.07423 119.127 4.15012C118.935 4.22038 118.71 4.22242 118.512 4.28928C116.593 4.93553 114.952 6.40982 114.059 8.30275C113.538 9.40707 113.291 11.3514 113.359 13.5307C113.426 15.7099 115.405 21.3963 117.256 23.4704C118.908 25.3217 121.336 26.5434 123.679 27.0782C122.124 28.8462 121.089 31.0555 120.323 33.3025C119.491 35.7432 118.976 38.2792 118.786 40.8632C118.606 43.3183 118.589 45.9146 119.168 48.3172C119.709 50.5641 120.867 52.4073 122.8 53.5767C123.686 54.1123 124.638 54.5147 125.596 54.8825C126.541 55.245 127.488 55.5974 128.477 55.8007C130.349 56.1855 132.506 56.1194 133.948 54.6377C134.468 54.1035 135.039 53.4323 135.418 52.7797C135.555 52.545 135.637 52.3916 135.471 52.1622C135.273 51.8875 134.952 51.677 134.697 51.462C133.243 50.2367 132.344 48.6008 132.117 46.6568C131.887 44.6843 132.419 42.1383 134.348 41.2775C136.728 40.2149 139.35 41.4346 141.466 42.5716C142.365 39.4155 144.211 36.5739 147.106 35.1262C150.309 33.5246 153.983 33.3372 157.275 31.963C158.132 31.605 159.006 31.1985 159.637 30.4689C159.901 30.1639 160.21 29.7684 160.316 29.3651C160.454 28.8353 160.111 28.3912 159.845 27.9782C158.438 25.7883 153.101 21.3642 150.324 20.5221Z" id="hair" fill="#1E1E1E" fill-rule="evenodd" stroke="none" />
    <path d="M104.348 164.902C104.348 164.902 143.879 169.098 166.579 164.902C168.454 164.555 168.75 161.412 167.88 159.279C154.34 126.059 145.055 97.0734 145.055 74C141.329 75.8812 132.011 74.5639 132.011 74.5639C115.318 98.3418 107.644 125.624 104.348 164.902Z" id="Shirt-Copy" fill="#323337" fill-rule="evenodd" stroke="none" />
    <path d="M128.048 72.4368C128.482 72.1451 128.711 72 128.711 72L128.686 72.4368L135.691 72.4368C137.322 82.0072 142.466 211.606 158.347 254L72.4173 254C74.2304 216.203 88.1981 171.003 102.668 132.623C91.9903 143.221 79.5209 160.987 69.4433 190.561L53.3477 186.439C69.7505 115.922 117.807 79.5548 127.133 73.0634C127.224 72.8534 127.315 72.6445 127.405 72.4368L128.048 72.4368Z" id="Coat-Front-Copy" fill="#F2F2F2" fill-rule="evenodd" stroke="none" />
    <path d="M109.348 212L130.348 202L130.348 212L109.348 212Z" id="Light" fill="#173E67" fill-opacity="0.4" fill-rule="evenodd" stroke="none" />
    <g id="Group-11" transform="matrix(0.9396926 0.34202012 -0.34202012 0.9396926 126.640625 72.13953)">
      <g id="Group-10">
        <path d="M11.0064 41.0374C10.6594 40.679 2.19052 32.5789 3.99685 26.9053C4.70053 24.6937 5.99632 23.8248 7.37154 23.1798C8.65426 22.716 11.6462 22.2315 13.1927 23.1988C16.0141 24.9641 17.4363 29.8425 17.8547 37.9559L17.5108 37.9731C17.0147 28.3497 14.5188 24.8651 12.6553 24.0797C10.3116 23.092 6.20075 23.5018 4.90743 27.229C4.01627 29.7969 5.76435 33.3871 7.38637 35.8521C9.18776 38.5896 11.1505 41.0164 11.1706 41.0374L11.0064 41.0374Z" id="Fill-1" fill="#173E67" fill-rule="evenodd" stroke="none" />
        <g id="Group-5" transform="translate(9.883157 39.920643)">
          <path d="M0 0L2.24644 0L2.24644 2.23354L0 2.23354L0 0Z" id="Clip-4" fill="none" fill-rule="evenodd" stroke="none" />
          <g clip-path="url(#mask_1)">
            <path d="M2.00308 1.99157L2.00308 1.99157C1.67861 2.31423 1.14758 2.31423 0.823459 1.99157L0.243357 1.41508C-0.0811189 1.09242 -0.0811189 0.564381 0.243357 0.241727C0.567832 -0.0805757 1.09886 -0.0805757 1.42333 0.241727L2.00308 0.818572C2.32756 1.14087 2.32756 1.66892 2.00308 1.99157" id="Fill-3" fill="#5C63AB" fill-rule="evenodd" stroke="none" />
          </g>
        </g>
        <path d="M17.7139 39.5049L17.7139 39.5049C17.2549 39.5049 16.8796 39.1317 16.8796 38.6753L16.8796 37.8601C16.8796 37.4037 17.2549 37.0304 17.7139 37.0304C18.1725 37.0304 18.5478 37.4037 18.5478 37.8601L18.5478 38.6753C18.5478 39.1317 18.1725 39.5049 17.7139 39.5049" id="Fill-6" fill="#5C63AB" fill-rule="evenodd" stroke="none" />
        <path d="M7.40985 24.0797C6.47597 22.0279 -1.75527 4.547 0.340234 0.099008L1.14524 0C-0.44218 3.36943 5.26316 18.5654 7.74103 24.0095L7.40985 24.0797Z" id="Fill-8" fill="#173E67" fill-rule="evenodd" stroke="none" />
      </g>
    </g>
    <g id="Group-12" transform="translate(144.34766 73)">
      <g id="Group-7">
        <path d="M4.93951 23.7917C4.49294 14.7967 0.0386148 0.141212 0 0L1.2702 0.621933C1.43011 1.20731 4.9704 14.5839 5.42651 23.7717L4.93951 23.7917Z" id="Fill-1" fill="#173E67" fill-rule="evenodd" stroke="none" />
        <path d="M2.17869 23.7917C2.17869 22.0195 3.48205 20.5834 5.08934 20.5834C6.69708 20.5834 7.99998 22.0195 7.99998 23.7917C7.99998 25.5638 6.69708 27 5.08934 27C3.48205 27 2.17869 25.5638 2.17869 23.7917" id="Fill-3" fill="#173E67" fill-rule="evenodd" stroke="none" />
        <path d="M3.71892 23.7917C3.71892 22.8908 4.38128 22.1607 5.19855 22.1607C6.01582 22.1607 6.67818 22.8908 6.67818 23.7917C6.67818 24.692 6.01582 25.4226 5.19855 25.4226C4.38128 25.4226 3.71892 24.692 3.71892 23.7917" id="Fill-5" fill="#5C63AB" fill-rule="evenodd" stroke="none" />
      </g>
    </g>
  </g>
</svg>