<?xml version="1.0" encoding="utf-8"?>
<svg width="458.53125px" height="226px" viewBox="0 0 458.53125 226" version="1.1" xmlns:xlink="http://www.w3.org/1999/xlink" xmlns="http://www.w3.org/2000/svg">
  <defs>
    <path d="M113 10.812C113 4.55688 118.071 -0.572515 124.282 0.0515284C144.502 2.08562 163.878 9.55715 180.314 21.7741C199.786 36.2483 214.096 56.6153 221.134 79.8669C228.172 103.117 227.561 128.021 219.394 150.898C211.227 173.775 195.936 193.413 175.779 206.912C155.622 220.412 131.669 227.055 107.455 225.864C83.2424 224.671 60.0526 215.706 41.3138 200.291C22.5739 184.877 9.27717 163.832 3.38648 140.262C-1.58552 120.369 -1.05781 99.5667 4.80576 80.0639C6.60698 74.0749 13.2751 71.342 19.0415 73.7351C24.8068 76.1294 27.4702 82.7447 25.8192 88.7768C21.7241 103.744 21.5162 119.581 25.3085 134.758C30.0217 153.614 40.6584 170.451 55.6512 182.782C70.6429 195.113 89.193 202.285 108.565 203.24C127.935 204.193 147.098 198.878 163.224 188.079C179.349 177.279 191.582 161.569 198.116 143.267C204.648 124.966 205.137 105.043 199.507 86.4414C193.877 67.8401 182.428 51.547 166.851 39.9677C154.313 30.6478 139.634 24.78 124.27 22.8444C118.079 22.0652 113 17.0672 113 10.812Z" id="path_1" />
    <path d="M87.0461 10.5643C87.0461 4.3811 92.0865 -0.705479 98.2298 0.0803628C111.569 1.78827 124.393 6.53485 135.681 14.015C150.097 23.5667 161.37 37.1512 168.092 53.0695C174.813 68.9868 176.683 86.5297 173.468 103.503C170.253 120.477 162.094 136.127 150.015 148.494C137.936 160.862 122.472 169.397 105.558 173.033C88.6439 176.668 71.0318 175.243 54.9249 168.934C38.8192 162.626 24.9338 151.714 15.0074 137.566C7.23479 126.486 2.1594 113.808 0.115039 100.535C-0.826518 94.4242 4.13949 89.2644 10.3312 89.109C16.5218 88.9537 21.5713 93.8781 22.7789 99.9431C24.5436 108.807 28.1385 117.25 33.3774 124.718C40.7723 135.259 51.117 143.388 63.1159 148.088C75.116 152.788 88.2369 153.85 100.838 151.141C113.438 148.432 124.96 142.073 133.958 132.859C142.958 123.647 149.036 111.987 151.431 99.3419C153.826 86.6964 152.433 73.6264 147.425 61.7678C142.418 49.9093 134.019 39.789 123.279 32.6725C115.669 27.631 107.126 24.2557 98.2061 22.7167C92.1035 21.6629 87.0461 16.7474 87.0461 10.5643Z" id="path_2" />
    <path d="M63.5 10.2716C63.5 4.14328 68.5131 -0.924036 74.5569 0.142649C83.7847 1.77212 92.5851 5.43078 100.298 10.9069C111.047 18.539 119.148 29.3236 123.479 41.7637C127.809 54.2039 128.154 67.6824 124.465 80.3263C120.776 92.9703 113.235 104.155 102.891 112.325C92.5466 120.495 79.9124 125.245 66.7407 125.917C53.5691 126.589 40.5153 123.149 29.3916 116.075C18.2666 109 9.62387 98.6423 4.66408 86.4388C1.10356 77.6823 -0.432902 68.2882 0.104578 58.9439C0.457228 52.8258 6.5498 49.1218 12.5222 50.5339C18.4946 51.9459 22.0279 57.9769 22.2535 64.1019C22.4293 68.8759 23.4362 73.6126 25.2561 78.091C28.481 86.0232 34.0985 92.7551 41.3295 97.3537C48.5605 101.952 57.0457 104.189 65.6068 103.752C74.1679 103.314 82.3809 100.226 89.104 94.9157C95.8281 89.606 100.729 82.3363 103.127 74.1176C105.525 65.8989 105.301 57.1378 102.487 49.0516C99.671 40.9666 94.4051 33.9561 87.419 28.9952C83.474 26.1938 79.0914 24.1249 74.4786 22.8533C68.563 21.2238 63.5 16.4 63.5 10.2716Z" id="path_3" />
    <clipPath id="mask_1">
      <use xlink:href="#path_1" />
    </clipPath>
    <clipPath id="mask_2">
      <use xlink:href="#path_2" />
    </clipPath>
    <clipPath id="mask_3">
      <use xlink:href="#path_3" />
    </clipPath>
  </defs>
  <g id="Group-35">
    <g id="Group-109">
      <path d="M226 113C226 175.408 175.408 226 113 226C50.5924 226 0 175.408 0 113C0 50.5924 50.5924 0 113 0C175.408 0 226 50.5924 226 113ZM22.6 113C22.6 162.927 63.0732 203.4 113 203.4C162.927 203.4 203.4 162.927 203.4 113C203.4 63.0732 162.927 22.6 113 22.6C63.0732 22.6 22.6 63.0732 22.6 113Z" id="Shape" fill="#FF974A" fill-opacity="0.064" stroke="none" />
      <g id="Clipped">
        <path d="M113 10.812C113 4.55688 118.071 -0.572515 124.282 0.0515284C144.502 2.08562 163.878 9.55715 180.314 21.7741C199.786 36.2483 214.096 56.6153 221.134 79.8669C228.172 103.117 227.561 128.021 219.394 150.898C211.227 173.775 195.936 193.413 175.779 206.912C155.622 220.412 131.669 227.055 107.455 225.864C83.2424 224.671 60.0526 215.706 41.3138 200.291C22.5739 184.877 9.27717 163.832 3.38648 140.262C-1.58552 120.369 -1.05781 99.5667 4.80576 80.0639C6.60698 74.0749 13.2751 71.342 19.0415 73.7351C24.8068 76.1294 27.4702 82.7447 25.8192 88.7768C21.7241 103.744 21.5162 119.581 25.3085 134.758C30.0217 153.614 40.6584 170.451 55.6512 182.782C70.6429 195.113 89.193 202.285 108.565 203.24C127.935 204.193 147.098 198.878 163.224 188.079C179.349 177.279 191.582 161.569 198.116 143.267C204.648 124.966 205.137 105.043 199.507 86.4414C193.877 67.8401 182.428 51.547 166.851 39.9677C154.313 30.6478 139.634 24.78 124.27 22.8444C118.079 22.0652 113 17.0672 113 10.812Z" id="Path" fill="none" fill-rule="evenodd" stroke="none" />
        <g clip-path="url(#mask_1)">
          <path d="M-0.983228 -0.513622L227.965 -0.513622L227.965 226.985L-0.983228 226.985L-0.983228 -0.513622Z" id="Rectangle" fill="#FF974A" fill-opacity="0.8" fill-rule="evenodd" stroke="none" />
        </g>
      </g>
      <path d="M202 112C202 160.601 162.601 200 114 200C65.3992 200 26 160.601 26 112C26 63.3992 65.3992 24 114 24C162.601 24 202 63.3992 202 112ZM48.44 112C48.44 148.207 77.7925 177.56 114 177.56C150.207 177.56 179.56 148.207 179.56 112C179.56 75.7925 150.207 46.44 114 46.44C77.7925 46.44 48.44 75.7925 48.44 112Z" id="Shape" fill="#0062FF" fill-opacity="0.064" stroke="none" />
      <g id="Clipped" transform="translate(25 26)">
        <path d="M87.0461 10.5643C87.0461 4.3811 92.0865 -0.705479 98.2298 0.0803628C111.569 1.78827 124.393 6.53485 135.681 14.015C150.097 23.5667 161.37 37.1512 168.092 53.0695C174.813 68.9868 176.683 86.5297 173.468 103.503C170.253 120.477 162.094 136.127 150.015 148.494C137.936 160.862 122.472 169.397 105.558 173.033C88.6439 176.668 71.0318 175.243 54.9249 168.934C38.8192 162.626 24.9338 151.714 15.0074 137.566C7.23479 126.486 2.1594 113.808 0.115039 100.535C-0.826518 94.4242 4.13949 89.2644 10.3312 89.109C16.5218 88.9537 21.5713 93.8781 22.7789 99.9431C24.5436 108.807 28.1385 117.25 33.3774 124.718C40.7723 135.259 51.117 143.388 63.1159 148.088C75.116 152.788 88.2369 153.85 100.838 151.141C113.438 148.432 124.96 142.073 133.958 132.859C142.958 123.647 149.036 111.987 151.431 99.3419C153.826 86.6964 152.433 73.6264 147.425 61.7678C142.418 49.9093 134.019 39.789 123.279 32.6725C115.669 27.631 107.126 24.2557 98.2061 22.7167C92.1035 21.6629 87.0461 16.7474 87.0461 10.5643Z" id="Path" fill="none" fill-rule="evenodd" stroke="none" />
        <g clip-path="url(#mask_2)">
          <path d="M-1.6711 -0.632299L176.531 -0.632299L176.531 175.763L-1.6711 175.763L-1.6711 -0.632299Z" id="Rectangle" fill="#304FFD" fill-rule="evenodd" stroke="none" />
        </g>
      </g>
      <path d="M176 113.499C176 148.569 147.569 177 112.499 177C77.4296 177 49 148.569 49 113.499C49 78.4296 77.4296 50 112.499 50C147.569 50 176 78.4296 176 113.499ZM71.2248 113.499C71.2248 136.296 89.7043 154.774 112.499 154.774C135.296 154.774 153.774 136.296 153.774 113.499C153.774 90.7043 135.296 72.2248 112.499 72.2248C89.7043 72.2248 71.2248 90.7043 71.2248 113.499Z" id="Shape" fill="#FFD764" fill-opacity="0.08" stroke="none" />
      <g id="Clipped" transform="translate(49 51)">
        <path d="M63.5 10.2716C63.5 4.14328 68.5131 -0.924036 74.5569 0.142649C83.7847 1.77212 92.5851 5.43078 100.298 10.9069C111.047 18.539 119.148 29.3236 123.479 41.7637C127.809 54.2039 128.154 67.6824 124.465 80.3263C120.776 92.9703 113.235 104.155 102.891 112.325C92.5466 120.495 79.9124 125.245 66.7407 125.917C53.5691 126.589 40.5153 123.149 29.3916 116.075C18.2666 109 9.62387 98.6423 4.66408 86.4388C1.10356 77.6823 -0.432902 68.2882 0.104578 58.9439C0.457228 52.8258 6.5498 49.1218 12.5222 50.5339C18.4946 51.9459 22.0279 57.9769 22.2535 64.1019C22.4293 68.8759 23.4362 73.6126 25.2561 78.091C28.481 86.0232 34.0985 92.7551 41.3295 97.3537C48.5605 101.952 57.0457 104.189 65.6068 103.752C74.1679 103.314 82.3809 100.226 89.104 94.9157C95.8281 89.606 100.729 82.3363 103.127 74.1176C105.525 65.8989 105.301 57.1378 102.487 49.0516C99.671 40.9666 94.4051 33.9561 87.419 28.9952C83.474 26.1938 79.0914 24.1249 74.4786 22.8533C68.563 21.2238 63.5 16.4 63.5 10.2716Z" id="Path" fill="none" fill-rule="evenodd" stroke="none" />
        <g clip-path="url(#mask_3)">
          <path d="M-0.553098 -0.825521L128.103 -0.825521L128.103 126.55L-0.553098 126.55L-0.553098 -0.825521Z" id="Rectangle" fill="#FFD764" fill-rule="evenodd" stroke="none" />
        </g>
      </g>
    </g>
    <path d="M304.5 56C304.5 56 304.5 56 304.5 56C305.511 56.0048 306.529 55.9901 307.533 56.1332C308.067 56.2093 308.597 56.3321 309.099 56.5339C309.434 56.6686 309.755 56.8394 310.048 57.0502C310.256 57.1996 310.449 57.3688 310.624 57.5556C311.825 58.8371 311.974 60.7205 311.995 62.3876C311.999 62.7583 311.998 63.1292 312 63.5C312 63.5 312 63.5 312 63.5C311.995 64.5113 312.01 65.5285 311.867 66.5325C311.791 67.0668 311.668 67.5974 311.466 68.099C311.331 68.4339 311.161 68.7548 310.95 69.0481C310.8 69.256 310.631 69.4494 310.444 69.6244C309.163 70.8247 307.279 70.974 305.612 70.9947C305.242 70.9993 304.871 70.9982 304.5 71C304.5 71 304.5 71 304.5 71C304.129 70.9982 303.758 70.9993 303.388 70.9947C301.721 70.974 299.837 70.8247 298.556 69.6244C298.369 69.4494 298.2 69.256 298.05 69.0482C297.839 68.7549 297.669 68.434 297.534 68.0991C297.332 67.5975 297.209 67.0669 297.133 66.5326C296.99 65.5286 297.005 64.5113 297 63.5C297 63.5 297 63.5 297 63.5C297.002 63.1292 297.001 62.7584 297.005 62.3877C297.026 60.7206 297.175 58.8372 298.376 57.5557C298.551 57.3689 298.744 57.1996 298.952 57.0502C299.245 56.8394 299.566 56.6686 299.901 56.5339C300.403 56.3321 300.933 56.2093 301.467 56.1332C302.471 55.9901 303.489 56.0048 304.5 56Z" id="Rectangle" fill="#FF974A" fill-rule="evenodd" stroke="none" />
    <g id="Group-34" transform="translate(326.53125 53)">
      <g id="81.26%" fill="#173E67" transform="translate(75 0)">
        <path d="M38.848 6.856C38.672 5.208 37.552 3.672 35.168 3.672C32.208 3.672 30.976 5.784 30.976 9.592C30.976 13.208 31.84 15.64 35.296 15.64C37.792 15.64 39.184 13.992 39.184 11.736C39.184 9.304 37.728 7.928 35.648 7.928C34.512 7.928 33.456 8.408 32.928 9.288C32.96 6.6 33.632 5.512 35.088 5.512C36.096 5.512 36.56 5.992 36.768 6.856L38.848 6.856ZM29.2 15.448L21.296 15.448L21.296 13.784C23.936 11.544 26.704 9.48 26.704 7.336C26.704 6.296 26.24 5.592 25.136 5.592C24.064 5.592 23.472 6.36 23.456 7.592L21.28 7.592C21.36 4.92 23.072 3.688 25.168 3.688C27.68 3.688 28.944 5.176 28.944 7.208C28.944 9.912 26.336 12.024 24.48 13.592L29.2 13.592L29.2 15.448ZM0.928 12.296C0.928 10.92 1.648 9.912 2.8 9.432C1.84 8.936 1.2 8.12 1.2 6.856C1.2 5.176 2.48 3.72 5.136 3.72C7.792 3.72 9.072 5.192 9.072 6.856C9.072 8.088 8.4 8.968 7.488 9.432C8.64 9.928 9.36 10.936 9.36 12.296C9.36 14.52 7.536 15.864 5.136 15.864C2.752 15.864 0.928 14.52 0.928 12.296ZM14.832 15.608L12.528 15.608L12.528 6.008L10.976 6.008L10.976 3.944L14.832 3.944L14.832 15.608ZM43.36 9.416C41.904 9.416 40.816 8.488 40.816 6.808C40.816 5.144 41.904 4.216 43.36 4.216C44.816 4.216 45.904 5.144 45.904 6.808C45.904 8.488 44.816 9.416 43.36 9.416ZM44.8 15.608L42.624 15.608L48.896 4.408L51.088 4.408L44.8 15.608ZM3.392 7.192C3.392 8.152 4.128 8.776 5.136 8.776C6.16 8.776 6.896 8.136 6.896 7.176C6.896 6.12 6.208 5.528 5.136 5.528C4.096 5.528 3.392 6.104 3.392 7.192ZM44.256 6.808C44.256 5.928 43.904 5.56 43.344 5.56C42.8 5.56 42.464 5.928 42.464 6.808C42.464 7.688 42.8 8.072 43.344 8.072C43.904 8.072 44.256 7.688 44.256 6.808ZM35.136 9.768C36.432 9.768 37.056 10.584 37.056 11.784C37.056 12.984 36.336 13.736 35.184 13.736C33.872 13.736 33.136 12.952 33.136 11.704C33.136 10.376 34.096 9.768 35.136 9.768ZM7.168 12.2C7.168 11.048 6.336 10.408 5.136 10.408C3.968 10.408 3.088 11.016 3.088 12.2C3.088 13.24 3.856 14.008 5.136 14.008C6.416 14.008 7.168 13.224 7.168 12.2ZM50.384 15.8C48.928 15.8 47.84 14.888 47.84 13.192C47.84 11.512 48.928 10.6 50.384 10.6C51.824 10.6 52.896 11.512 52.896 13.192C52.896 14.888 51.824 15.8 50.384 15.8ZM51.264 13.192C51.264 12.312 50.912 11.944 50.368 11.944C49.808 11.944 49.456 12.312 49.456 13.192C49.456 14.088 49.808 14.456 50.368 14.456C50.912 14.456 51.264 14.088 51.264 13.192ZM19.76 14.408C19.76 13.672 19.184 13.096 18.4 13.096C17.584 13.096 17.008 13.672 17.008 14.408C17.008 15.144 17.584 15.72 18.4 15.72C19.184 15.72 19.76 15.144 19.76 14.408Z" />
      </g>
      <path d="M68.5 12C69.3284 12 70 11.3284 70 10.5C70 9.67157 69.3284 9 68.5 9C67.6716 9 67 9.67157 67 10.5C67 11.3284 67.6716 12 68.5 12Z" id="Oval" fill="#5563AB" fill-opacity="0.4" fill-rule="evenodd" stroke="none" />
      <g id="Last-30-Days" fill="#173E67" fill-opacity="0.4" transform="translate(0 1)">
        <path d="M23.4 6.865Q23.48 5.995 24.125 5.5Q24.77 5.005 25.775 5.005Q26.78 5.005 27.365 5.535Q27.95 6.065 27.95 6.885Q27.95 7.475 27.62 7.92Q27.29 8.365 26.77 8.525L26.77 8.575Q27.38 8.745 27.73 9.235Q28.08 9.725 28.08 10.545Q28.08 11.365 27.475 11.935Q26.87 12.505 25.805 12.505Q24.74 12.505 24.06 11.965Q23.38 11.425 23.31 10.435L24.17 10.435Q24.22 11.005 24.645 11.37Q25.07 11.735 25.775 11.735Q26.48 11.735 26.855 11.36Q27.23 10.985 27.23 10.395Q27.23 9.605 26.73 9.275Q26.23 8.945 25.2 8.945L24.96 8.945L24.96 8.185L25.21 8.185Q27.09 8.165 27.09 6.975Q27.09 6.425 26.735 6.105Q26.38 5.785 25.74 5.785Q25.1 5.785 24.73 6.08Q24.36 6.375 24.28 6.865L23.4 6.865ZM30.825 5.345Q30.38 5.535 30.105 5.85Q29.83 6.165 29.655 6.645Q29.48 7.125 29.415 7.64Q29.35 8.155 29.35 8.8Q29.35 9.445 29.41 9.965Q29.73 12.455 31.86 12.455Q33.02 12.455 33.63 11.755Q34.37 10.885 34.37 8.805Q34.37 7.185 33.88 6.225Q33.61 5.705 33.105 5.43Q32.6 5.155 31.935 5.155Q31.27 5.155 30.825 5.345ZM1.66 5.535L0.75 5.535L0.75 12.465L4.09 12.465L4.09 11.765L1.66 11.765L1.66 5.535ZM40.99 5.535Q42.67 5.535 43.64 6.475Q44.61 7.415 44.61 9.035Q44.61 10.655 43.64 11.56C42.9933 12.1633 42.11 12.465 40.99 12.465L38.8 12.465L38.8 5.535L40.99 5.535ZM19.55 11.725L18.8 11.725Q18.42 11.725 18.27 11.575Q18.12 11.425 18.12 11.055L18.12 7.715L19.54 7.715L19.54 6.975L18.12 6.975L18.12 5.615L17.2 5.615L17.2 6.975L16.49 6.975L16.49 7.715L17.2 7.715L17.2 11.055Q17.2 12.465 18.63 12.465L19.55 12.465L19.55 11.725ZM32.725 6.19Q33.07 6.415 33.225 6.85Q33.38 7.285 33.435 7.725Q33.49 8.165 33.49 8.975Q33.49 9.785 33.33 10.425Q33.24 10.825 33.065 11.075Q32.89 11.325 32.585 11.485Q32.28 11.645 31.86 11.645Q31.44 11.645 31.135 11.485Q30.83 11.325 30.66 11.075Q30.49 10.825 30.39 10.43Q30.29 10.035 30.265 9.67Q30.24 9.305 30.24 8.805Q30.24 8.305 30.265 7.94Q30.29 7.575 30.39 7.18Q30.49 6.785 30.66 6.535Q30.83 6.285 31.135 6.125Q31.44 5.965 31.91 5.965Q32.38 5.965 32.725 6.19ZM39.71 11.765L40.99 11.765Q42.3 11.765 42.99 11.045Q43.68 10.325 43.68 9.035Q43.68 7.745 42.99 7.025Q42.3 6.305 40.99 6.305L39.71 6.305L39.71 11.765ZM5.43 11.75Q6.18 12.555 7.3 12.555Q8 12.555 8.525 12.22Q9.05 11.885 9.32 11.345L9.32 12.465L10.24 12.465L10.24 6.975L9.32 6.975L9.32 8.075Q9.05 7.545 8.525 7.215Q8 6.885 7.3 6.885Q6.17 6.885 5.425 7.66Q4.68 8.435 4.68 9.69Q4.68 10.945 5.43 11.75ZM11.54 8.525Q11.54 7.835 12.115 7.36Q12.69 6.885 13.605 6.885Q14.52 6.885 15.04 7.35Q15.56 7.815 15.61 8.625L14.67 8.625Q14.65 8.165 14.36 7.885Q14.07 7.605 13.555 7.605Q13.04 7.605 12.745 7.85Q12.45 8.095 12.45 8.48Q12.45 8.865 12.785 9.075Q13.12 9.285 13.595 9.38Q14.07 9.475 14.545 9.6Q15.02 9.725 15.355 10.07Q15.69 10.415 15.69 11.05Q15.69 11.685 15.115 12.12Q14.54 12.555 13.62 12.555Q12.7 12.555 12.145 12.095Q11.59 11.635 11.54 10.825L12.48 10.825Q12.5 11.285 12.805 11.56Q13.11 11.835 13.645 11.835Q14.18 11.835 14.485 11.605Q14.79 11.375 14.79 11.02Q14.79 10.665 14.55 10.455Q14.31 10.245 13.95 10.165Q13.59 10.085 13.165 9.975Q12.74 9.865 12.38 9.74Q12.02 9.615 11.78 9.305Q11.54 8.995 11.54 8.525ZM46.15 11.75Q46.9 12.555 48.02 12.555Q48.72 12.555 49.245 12.22Q49.77 11.885 50.04 11.345L50.04 12.465L50.96 12.465L50.96 6.975L50.04 6.975L50.04 8.075Q49.77 7.545 49.245 7.215Q48.72 6.885 48.02 6.885Q46.89 6.885 46.145 7.66Q45.4 8.435 45.4 9.69Q45.4 10.945 46.15 11.75ZM58.405 7.36Q57.83 7.835 57.83 8.525Q57.83 8.995 58.07 9.305Q58.31 9.615 58.67 9.74Q59.03 9.865 59.455 9.975Q59.88 10.085 60.24 10.165Q60.6 10.245 60.84 10.455Q61.08 10.665 61.08 11.02Q61.08 11.375 60.775 11.605Q60.47 11.835 59.935 11.835Q59.4 11.835 59.095 11.56Q58.79 11.285 58.77 10.825L57.83 10.825Q57.88 11.635 58.435 12.095Q58.99 12.555 59.91 12.555Q60.83 12.555 61.405 12.12Q61.98 11.685 61.98 11.05Q61.98 10.415 61.645 10.07Q61.31 9.725 60.835 9.6Q60.36 9.475 59.885 9.38Q59.41 9.285 59.075 9.075Q58.74 8.865 58.74 8.48Q58.74 8.095 59.035 7.85Q59.33 7.605 59.845 7.605Q60.36 7.605 60.65 7.885Q60.94 8.165 60.96 8.625L61.9 8.625Q61.85 7.815 61.33 7.35Q60.81 6.885 59.895 6.885Q58.98 6.885 58.405 7.36ZM54 12.375L51.83 6.975L52.83 6.975L54.51 11.415L56.22 6.975L57.16 6.975L53.85 15.035L52.91 15.035L54 12.375ZM9.32 9.725Q9.32 10.655 8.775 11.215Q8.23 11.775 7.47 11.775Q6.71 11.775 6.16 11.195Q5.61 10.615 5.61 9.685Q5.61 8.755 6.155 8.215Q6.7 7.675 7.465 7.675Q8.23 7.675 8.775 8.235Q9.32 8.795 9.32 9.725ZM50.04 9.725Q50.04 10.655 49.495 11.215Q48.95 11.775 48.19 11.775Q47.43 11.775 46.88 11.195Q46.33 10.615 46.33 9.685Q46.33 8.755 46.875 8.215Q47.42 7.675 48.185 7.675Q48.95 7.675 49.495 8.235Q50.04 8.795 50.04 9.725Z" />
      </g>
    </g>
    <path d="M304.5 105.059C304.5 105.059 304.5 105.059 304.5 105.059C305.511 105.064 306.529 105.049 307.533 105.192C308.067 105.268 308.597 105.391 309.099 105.593C309.434 105.727 309.755 105.898 310.048 106.109C310.256 106.258 310.449 106.428 310.624 106.614C311.825 107.896 311.974 109.779 311.995 111.446C311.999 111.817 311.998 112.188 312 112.559C312 112.559 312 112.559 312 112.559C311.995 113.57 312.01 114.587 311.867 115.591C311.791 116.126 311.668 116.656 311.466 117.158C311.331 117.493 311.161 117.814 310.95 118.107C310.8 118.315 310.631 118.508 310.444 118.683C309.163 119.884 307.279 120.033 305.612 120.054C305.242 120.058 304.871 120.057 304.5 120.059C304.5 120.059 304.5 120.059 304.5 120.059C304.129 120.057 303.758 120.058 303.388 120.054C301.721 120.033 299.837 119.884 298.556 118.683C298.369 118.508 298.2 118.315 298.05 118.107C297.839 117.814 297.669 117.493 297.534 117.158C297.332 116.656 297.209 116.126 297.133 115.591C296.99 114.587 297.005 113.57 297 112.559C297 112.559 297 112.559 297 112.559C297.002 112.188 297.001 111.817 297.005 111.447C297.026 109.779 297.175 107.896 298.376 106.615C298.551 106.428 298.744 106.258 298.952 106.109C299.245 105.898 299.566 105.727 299.901 105.593C300.403 105.391 300.933 105.268 301.467 105.192C302.471 105.049 303.489 105.064 304.5 105.059Z" id="Rectangle" fill="#0062FF" fill-rule="evenodd" stroke="none" />
    <g id="Group-34-Copy" transform="translate(326.53125 103)">
      <g id="75.26%" fill="#173E67" transform="translate(75 0)">
        <path d="M41.84 6.856C41.664 5.208 40.544 3.672 38.16 3.672C35.2 3.672 33.968 5.784 33.968 9.592C33.968 13.208 34.832 15.64 38.288 15.64C40.784 15.64 42.176 13.992 42.176 11.736C42.176 9.304 40.72 7.928 38.64 7.928C37.504 7.928 36.448 8.408 35.92 9.288C35.952 6.6 36.624 5.512 38.08 5.512C39.088 5.512 39.552 5.992 39.76 6.856L41.84 6.856ZM32.192 15.448L24.288 15.448L24.288 13.784C26.928 11.544 29.696 9.48 29.696 7.336C29.696 6.296 29.232 5.592 28.128 5.592C27.056 5.592 26.464 6.36 26.448 7.592L24.272 7.592C24.352 4.92 26.064 3.688 28.16 3.688C30.672 3.688 31.936 5.176 31.936 7.208C31.936 9.912 29.328 12.024 27.472 13.592L32.192 13.592L32.192 15.448ZM10.336 10.76L10.336 3.912L17.568 3.912L17.568 5.88L12.384 5.88L12.384 8.616C12.816 8.088 13.696 7.672 14.672 7.672C17.392 7.672 18.32 9.72 18.32 11.528C18.32 13.912 16.944 15.608 14.288 15.608C11.776 15.608 10.336 14.216 10.144 12.312L12.32 12.312C12.512 13.128 13.168 13.72 14.256 13.72C15.568 13.72 16.16 12.792 16.16 11.56C16.16 10.248 15.504 9.528 14.24 9.528C13.312 9.528 12.72 10.04 12.48 10.76L10.336 10.76ZM0.56 5.896L0.56 3.976L8.272 3.976L8.272 5.64L4.016 15.608L1.744 15.608L6.032 5.896L0.56 5.896ZM46.352 9.416C44.896 9.416 43.808 8.488 43.808 6.808C43.808 5.144 44.896 4.216 46.352 4.216C47.808 4.216 48.896 5.144 48.896 6.808C48.896 8.488 47.808 9.416 46.352 9.416ZM47.792 15.608L45.616 15.608L51.888 4.408L54.08 4.408L47.792 15.608ZM47.248 6.808C47.248 5.928 46.896 5.56 46.336 5.56C45.792 5.56 45.456 5.928 45.456 6.808C45.456 7.688 45.792 8.072 46.336 8.072C46.896 8.072 47.248 7.688 47.248 6.808ZM38.128 9.768C39.424 9.768 40.048 10.584 40.048 11.784C40.048 12.984 39.328 13.736 38.176 13.736C36.864 13.736 36.128 12.952 36.128 11.704C36.128 10.376 37.088 9.768 38.128 9.768ZM53.376 15.8C51.92 15.8 50.832 14.888 50.832 13.192C50.832 11.512 51.92 10.6 53.376 10.6C54.816 10.6 55.888 11.512 55.888 13.192C55.888 14.888 54.816 15.8 53.376 15.8ZM54.256 13.192C54.256 12.312 53.904 11.944 53.36 11.944C52.8 11.944 52.448 12.312 52.448 13.192C52.448 14.088 52.8 14.456 53.36 14.456C53.904 14.456 54.256 14.088 54.256 13.192ZM22.752 14.408C22.752 13.672 22.176 13.096 21.392 13.096C20.576 13.096 20 13.672 20 14.408C20 15.144 20.576 15.72 21.392 15.72C22.176 15.72 22.752 15.144 22.752 14.408Z" />
      </g>
      <path d="M68.5 12C69.3284 12 70 11.3284 70 10.5C70 9.67157 69.3284 9 68.5 9C67.6716 9 67 9.67157 67 10.5C67 11.3284 67.6716 12 68.5 12Z" id="Oval" fill="#5563AB" fill-opacity="0.4" fill-rule="evenodd" stroke="none" />
      <g id="31---60-Days" fill="#173E67" fill-opacity="0.4" transform="translate(0 1)">
        <path d="M24.32 5.765Q23.42 5.765 22.99 6.425Q22.56 7.085 22.53 8.665Q22.8 8.175 23.33 7.9Q23.86 7.625 24.51 7.625Q25.51 7.625 26.13 8.27Q26.75 8.915 26.75 10.01Q26.75 11.105 26.14 11.785Q25.53 12.465 24.39 12.465Q22.57 12.465 22.06 10.925Q21.77 10.055 21.77 8.475Q21.77 6.895 22.39 5.945Q23.01 4.995 24.32 4.995Q25.28 4.995 25.845 5.51Q26.41 6.025 26.5 6.785L25.68 6.785Q25.55 6.265 25.23 6.015Q24.91 5.765 24.32 5.765ZM0.6 6.865Q0.68 5.995 1.325 5.5Q1.97 5.005 2.975 5.005Q3.98 5.005 4.565 5.535Q5.15 6.065 5.15 6.885Q5.15 7.475 4.82 7.92Q4.49 8.365 3.97 8.525L3.97 8.575Q4.58 8.745 4.93 9.235Q5.28 9.725 5.28 10.545Q5.28 11.365 4.675 11.935Q4.07 12.505 3.005 12.505Q1.94 12.505 1.26 11.965Q0.58 11.425 0.51 10.435L1.37 10.435Q1.42 11.005 1.845 11.37Q2.27 11.735 2.975 11.735Q3.68 11.735 4.055 11.36Q4.43 10.985 4.43 10.395Q4.43 9.605 3.93 9.275Q3.43 8.945 2.4 8.945L2.16 8.945L2.16 8.185L2.41 8.185Q4.29 8.165 4.29 6.975Q4.29 6.425 3.935 6.105Q3.58 5.785 2.94 5.785Q2.3 5.785 1.93 6.08Q1.56 6.375 1.48 6.865L0.6 6.865ZM29.545 5.345Q29.1 5.535 28.825 5.85Q28.55 6.165 28.375 6.645Q28.2 7.125 28.135 7.64Q28.07 8.155 28.07 8.8Q28.07 9.445 28.13 9.965Q28.45 12.455 30.58 12.455Q31.74 12.455 32.35 11.755Q33.09 10.885 33.09 8.805Q33.09 7.185 32.6 6.225Q32.33 5.705 31.825 5.43Q31.32 5.155 30.655 5.155Q29.99 5.155 29.545 5.345ZM7.23 12.465L7.23 6.175L6.41 6.175L6.41 5.365L8.12 5.365L8.12 12.465L7.23 12.465ZM39.71 5.535Q41.39 5.535 42.36 6.475Q43.33 7.415 43.33 9.035Q43.33 10.655 42.36 11.56C41.7133 12.1633 40.83 12.465 39.71 12.465L37.52 12.465L37.52 5.535L39.71 5.535ZM31.445 6.19Q31.79 6.415 31.945 6.85Q32.1 7.285 32.155 7.725Q32.21 8.165 32.21 8.975Q32.21 9.785 32.05 10.425Q31.96 10.825 31.785 11.075Q31.61 11.325 31.305 11.485Q31 11.645 30.58 11.645Q30.16 11.645 29.855 11.485Q29.55 11.325 29.38 11.075Q29.21 10.825 29.11 10.43Q29.01 10.035 28.985 9.67Q28.96 9.305 28.96 8.805Q28.96 8.305 28.985 7.94Q29.01 7.575 29.11 7.18Q29.21 6.785 29.38 6.535Q29.55 6.285 29.855 6.125Q30.16 5.965 30.63 5.965Q31.1 5.965 31.445 6.19ZM38.43 11.765L39.71 11.765Q41.02 11.765 41.71 11.045Q42.4 10.325 42.4 9.035Q42.4 7.745 41.71 7.025Q41.02 6.305 39.71 6.305L38.43 6.305L38.43 11.765ZM44.87 11.75Q45.62 12.555 46.74 12.555Q47.44 12.555 47.965 12.22Q48.49 11.885 48.76 11.345L48.76 12.465L49.68 12.465L49.68 6.975L48.76 6.975L48.76 8.075Q48.49 7.545 47.965 7.215Q47.44 6.885 46.74 6.885Q45.61 6.885 44.865 7.66Q44.12 8.435 44.12 9.69Q44.12 10.945 44.87 11.75ZM57.125 7.36Q56.55 7.835 56.55 8.525Q56.55 8.995 56.79 9.305Q57.03 9.615 57.39 9.74Q57.75 9.865 58.175 9.975Q58.6 10.085 58.96 10.165Q59.32 10.245 59.56 10.455Q59.8 10.665 59.8 11.02Q59.8 11.375 59.495 11.605Q59.19 11.835 58.655 11.835Q58.12 11.835 57.815 11.56Q57.51 11.285 57.49 10.825L56.55 10.825Q56.6 11.635 57.155 12.095Q57.71 12.555 58.63 12.555Q59.55 12.555 60.125 12.12Q60.7 11.685 60.7 11.05Q60.7 10.415 60.365 10.07Q60.03 9.725 59.555 9.6Q59.08 9.475 58.605 9.38Q58.13 9.285 57.795 9.075Q57.46 8.865 57.46 8.48Q57.46 8.095 57.755 7.85Q58.05 7.605 58.565 7.605Q59.08 7.605 59.37 7.885Q59.66 8.165 59.68 8.625L60.62 8.625Q60.57 7.815 60.05 7.35Q59.53 6.885 58.615 6.885Q57.7 6.885 57.125 7.36ZM52.72 12.375L50.55 6.975L51.55 6.975L53.23 11.415L54.94 6.975L55.88 6.975L52.57 15.035L51.63 15.035L52.72 12.375ZM48.76 9.725Q48.76 10.655 48.215 11.215Q47.67 11.775 46.91 11.775Q46.15 11.775 45.6 11.195Q45.05 10.615 45.05 9.685Q45.05 8.755 45.595 8.215Q46.14 7.675 46.905 7.675Q47.67 7.675 48.215 8.235Q48.76 8.795 48.76 9.725ZM25.89 10.06Q25.89 9.295 25.495 8.85Q25.1 8.405 24.375 8.405Q23.65 8.405 23.155 8.81Q22.66 9.215 22.66 9.995Q22.66 10.775 23.09 11.235Q23.52 11.695 24.29 11.695Q25.06 11.695 25.475 11.26Q25.89 10.825 25.89 10.06ZM13.04 8.415L13.04 9.195L17.03 9.195L17.03 8.415L13.04 8.415Z" />
      </g>
    </g>
    <path d="M304.5 155.118C304.5 155.118 304.5 155.118 304.5 155.118C305.511 155.123 306.529 155.108 307.533 155.251C308.067 155.327 308.597 155.45 309.099 155.652C309.434 155.786 309.755 155.957 310.048 156.168C310.256 156.317 310.449 156.487 310.624 156.673C311.825 157.955 311.974 159.838 311.995 161.505C311.999 161.876 311.998 162.247 312 162.618C312 162.618 312 162.618 312 162.618C311.995 163.629 312.01 164.646 311.867 165.65C311.791 166.184 311.668 166.715 311.466 167.217C311.331 167.552 311.161 167.872 310.95 168.166C310.8 168.374 310.631 168.567 310.444 168.742C309.163 169.942 307.279 170.092 305.612 170.112C305.242 170.117 304.871 170.116 304.5 170.118C304.5 170.118 304.5 170.118 304.5 170.118C304.129 170.116 303.758 170.117 303.388 170.112C301.721 170.092 299.837 169.942 298.556 168.742C298.369 168.567 298.2 168.374 298.05 168.166C297.839 167.873 297.669 167.552 297.534 167.217C297.332 166.715 297.209 166.185 297.133 165.65C296.99 164.646 297.005 163.629 297 162.618C297 162.618 297 162.618 297 162.618C297.002 162.247 297.001 161.876 297.005 161.505C297.026 159.838 297.175 157.955 298.376 156.673C298.551 156.487 298.744 156.317 298.952 156.168C299.245 155.957 299.566 155.786 299.901 155.652C300.403 155.45 300.933 155.327 301.467 155.251C302.471 155.108 303.489 155.123 304.5 155.118Z" id="Rectangle" fill="#FFD764" fill-rule="evenodd" stroke="none" />
    <g id="Group-34-Copy-2" transform="translate(326.53125 153)">
      <g id="78.07%" fill="#173E67" transform="translate(52 0)">
        <path d="M9.808 12.296C9.808 10.92 10.528 9.912 11.68 9.432C10.72 8.936 10.08 8.12 10.08 6.856C10.08 5.176 11.36 3.72 14.016 3.72C16.672 3.72 17.952 5.192 17.952 6.856C17.952 8.088 17.28 8.968 16.368 9.432C17.52 9.928 18.24 10.936 18.24 12.296C18.24 14.52 16.416 15.864 14.016 15.864C11.632 15.864 9.808 14.52 9.808 12.296ZM28.72 15.576C25.424 15.576 24.4 13.032 24.4 9.624C24.4 6.248 25.424 3.72 28.72 3.72C32.016 3.72 33.04 6.248 33.04 9.624C33.04 13.032 32.016 15.576 28.72 15.576ZM0.56 5.896L0.56 3.976L8.272 3.976L8.272 5.64L4.016 15.608L1.744 15.608L6.032 5.896L0.56 5.896ZM34.56 3.976L34.56 5.896L40.032 5.896L35.744 15.608L38.016 15.608L42.272 5.64L42.272 3.976L34.56 3.976ZM46.016 9.416C44.56 9.416 43.472 8.488 43.472 6.808C43.472 5.144 44.56 4.216 46.016 4.216C47.472 4.216 48.56 5.144 48.56 6.808C48.56 8.488 47.472 9.416 46.016 9.416ZM47.456 15.608L45.28 15.608L51.552 4.408L53.744 4.408L47.456 15.608ZM12.272 7.192C12.272 8.152 13.008 8.776 14.016 8.776C15.04 8.776 15.776 8.136 15.776 7.176C15.776 6.12 15.088 5.528 14.016 5.528C12.976 5.528 12.272 6.104 12.272 7.192ZM46.912 6.808C46.912 5.928 46.56 5.56 46 5.56C45.456 5.56 45.12 5.928 45.12 6.808C45.12 7.688 45.456 8.072 46 8.072C46.56 8.072 46.912 7.688 46.912 6.808ZM28.72 13.496C30.608 13.496 30.832 11.704 30.832 9.624C30.832 7.624 30.608 5.8 28.72 5.8C26.832 5.8 26.608 7.624 26.608 9.624C26.608 11.704 26.832 13.496 28.72 13.496ZM16.048 12.2C16.048 11.048 15.216 10.408 14.016 10.408C12.848 10.408 11.968 11.016 11.968 12.2C11.968 13.24 12.736 14.008 14.016 14.008C15.296 14.008 16.048 13.224 16.048 12.2ZM53.04 15.8C51.584 15.8 50.496 14.888 50.496 13.192C50.496 11.512 51.584 10.6 53.04 10.6C54.48 10.6 55.552 11.512 55.552 13.192C55.552 14.888 54.48 15.8 53.04 15.8ZM53.92 13.192C53.92 12.312 53.568 11.944 53.024 11.944C52.464 11.944 52.112 12.312 52.112 13.192C52.112 14.088 52.464 14.456 53.024 14.456C53.568 14.456 53.92 14.088 53.92 13.192ZM22.736 14.408C22.736 13.672 22.16 13.096 21.376 13.096C20.56 13.096 19.984 13.672 19.984 14.408C19.984 15.144 20.56 15.72 21.376 15.72C22.16 15.72 22.736 15.144 22.736 14.408Z" />
      </g>
      <path d="M45.5 12C46.3284 12 47 11.3284 47 10.5C47 9.67157 46.3284 9 45.5 9C44.6716 9 44 9.67157 44 10.5C44 11.3284 44.6716 12 45.5 12Z" id="Oval" fill="#5563AB" fill-opacity="0.4" fill-rule="evenodd" stroke="none" />
      <g id="All-Time" fill="#173E67" fill-opacity="0.4" transform="translate(0 1)">
        <path d="M21.4 6.095Q21.66 6.095 21.84 5.915Q22.02 5.735 22.02 5.475Q22.02 5.215 21.84 5.035Q21.66 4.855 21.405 4.855Q21.15 4.855 20.97 5.035Q20.79 5.215 20.79 5.475Q20.79 5.735 20.965 5.915Q21.14 6.095 21.4 6.095ZM7.66 12.465L7.66 5.065L8.57 5.065L8.57 12.465L7.66 12.465ZM10.07 5.065L10.07 12.465L10.98 12.465L10.98 5.065L10.07 5.065ZM5.53 12.465L4.99 10.945L1.91 10.945L1.37 12.465L0.44 12.465L2.96 5.535L3.96 5.535L6.47 12.465L5.53 12.465ZM15.17 6.265L15.17 5.535L19.74 5.535L19.74 6.265L17.91 6.265L17.91 12.465L17 12.465L17 6.265L15.17 6.265ZM2.17 10.225L4.73 10.225L3.45 6.645L2.17 10.225ZM24.26 6.975L24.26 7.865Q24.82 6.885 26.05 6.885Q26.68 6.885 27.19 7.19Q27.7 7.495 27.96 8.075Q28.26 7.515 28.775 7.2Q29.29 6.885 29.95 6.885Q30.88 6.885 31.49 7.49Q32.1 8.095 32.1 9.215L32.1 12.465L31.2 12.465L31.2 9.365Q31.2 8.535 30.795 8.105Q30.39 7.675 29.69 7.675Q28.99 7.675 28.585 8.105Q28.18 8.535 28.18 9.365L28.18 12.465L27.28 12.465L27.28 9.365Q27.28 8.535 26.88 8.105Q26.48 7.675 25.775 7.675Q25.07 7.675 24.665 8.105Q24.26 8.535 24.26 9.365L24.26 12.465L23.35 12.465L23.35 6.975L24.26 6.975ZM33.93 11.775Q34.67 12.555 35.85 12.555Q36.81 12.555 37.445 12.085Q38.08 11.615 38.34 10.895L37.36 10.895Q37.18 11.305 36.795 11.555Q36.41 11.805 35.85 11.805Q35.11 11.805 34.635 11.33Q34.16 10.855 34.12 10.035L38.49 10.035Q38.53 9.785 38.53 9.495Q38.53 8.355 37.805 7.62Q37.08 6.885 35.885 6.885Q34.69 6.885 33.94 7.66Q33.19 8.435 33.19 9.715Q33.19 10.995 33.93 11.775ZM20.94 6.975L20.94 12.465L21.85 12.465L21.85 6.975L20.94 6.975ZM37.08 8.11Q37.57 8.585 37.58 9.375L34.13 9.375Q34.18 8.565 34.66 8.1Q35.14 7.635 35.865 7.635Q36.59 7.635 37.08 8.11Z" />
      </g>
    </g>
  </g>
</svg>