<?xml version="1.0" encoding="utf-8"?>
<svg width="710px" height="272px" viewBox="0 0 710 272" version="1.1" xmlns:xlink="http://www.w3.org/1999/xlink" xmlns="http://www.w3.org/2000/svg">
  <g id="Group-41" transform="translate(0.5 0.5)">
    <path d="M51.5 241.5L708.539 241.5" id="Path" fill="none" fill-rule="evenodd" stroke="#5563AB" stroke-opacity="0.101960786" stroke-width="1" />
    <g id="Group-38" transform="translate(52 24)">
      <path d="M0 177.5L656.539 177.5" id="Path-Copy-3" fill="none" fill-rule="evenodd" stroke="#5563AB" stroke-opacity="0.101960786" stroke-width="1" />
      <path d="M0 142.5L656.539 142.5" id="Path-Copy-4" fill="none" fill-rule="evenodd" stroke="#5563AB" stroke-opacity="0.101960786" stroke-width="1" />
      <path d="M0 106.5L656.539 106.5" id="Path-Copy-5" fill="none" fill-rule="evenodd" stroke="#5563AB" stroke-opacity="0.101960786" stroke-width="1" />
      <path d="M0 71.5L656.539 71.5" id="Path-Copy-6" fill="none" fill-rule="evenodd" stroke="#5563AB" stroke-opacity="0.101960786" stroke-width="1" />
      <path d="M0 35.5L656.539 35.5" id="Path-Copy-7" fill="none" fill-rule="evenodd" stroke="#5563AB" stroke-opacity="0.101960786" stroke-width="1" />
      <path d="M0 0.5L656.539 0.5" id="Path-Copy-8" fill="none" fill-rule="evenodd" stroke="#5563AB" stroke-opacity="0.101960786" stroke-width="1" />
    </g>
    <path d="M131.882 148C131.882 148 131.882 148 131.882 148C133.407 148.005 134.933 148.001 136.458 148.016C137.176 148.023 137.895 148.04 138.613 148.063C139.179 148.082 139.745 148.108 140.311 148.142C140.796 148.171 141.28 148.208 141.763 148.253C144.982 148.55 148.315 149.242 151.001 151.14C151.426 151.441 151.83 151.769 152.211 152.124C152.78 152.655 153.292 153.246 153.742 153.881C154.383 154.789 154.894 155.784 155.292 156.821C156.065 158.832 156.432 160.981 156.629 163.118C156.932 166.4 156.871 169.71 156.882 173L156.882 241L106.882 241C106.882 173 106.882 173 106.882 173C106.887 171.475 106.883 169.949 106.898 168.424C106.905 167.706 106.922 166.987 106.945 166.269C106.964 165.703 106.99 165.137 107.024 164.571C107.053 164.086 107.09 163.602 107.135 163.119C107.432 159.9 108.124 156.567 110.022 153.881C110.323 153.456 110.651 153.052 111.006 152.671C111.537 152.102 112.128 151.59 112.763 151.14C113.671 150.499 114.666 149.988 115.703 149.59C117.714 148.817 119.863 148.451 122 148.253C125.282 147.95 128.592 148.011 131.882 148Z" id="Rectangle" fill="#5C63AB" fill-rule="evenodd" stroke="none" />
    <g id="Record-Completion" fill="#173E67" transform="translate(72 251)">
      <path d="M98.7 6.514Q99.012 6.514 99.228 6.298Q99.444 6.082 99.444 5.77Q99.444 5.458 99.228 5.242Q99.012 5.026 98.706 5.026Q98.4 5.026 98.184 5.242Q97.968 5.458 97.968 5.77Q97.968 6.082 98.178 6.298Q98.388 6.514 98.7 6.514ZM35.304 13.3Q36.204 14.266 37.548 14.266Q38.388 14.266 39.018 13.864Q39.648 13.462 39.972 12.814L39.972 14.158L41.076 14.158L41.076 5.278L39.972 5.278L39.972 8.89Q39.648 8.254 39.018 7.858Q38.388 7.462 37.548 7.462Q36.192 7.462 35.298 8.392Q34.404 9.322 34.404 10.828Q34.404 12.334 35.304 13.3ZM83.664 14.158L83.664 5.278L84.756 5.278L84.756 14.158L83.664 14.158ZM50.28 14.23Q48.492 14.23 47.268 13.03Q46.044 11.83 46.044 9.988Q46.044 8.146 47.268 6.952Q48.492 5.758 50.28 5.758Q51.576 5.758 52.59 6.37Q53.604 6.982 54.084 8.134L52.764 8.134Q52.02 6.73 50.28 6.73Q48.924 6.73 48.042 7.624Q47.16 8.518 47.16 9.994Q47.16 11.47 48.042 12.37Q48.924 13.27 50.28 13.27Q51.108 13.27 51.756 12.904Q52.404 12.538 52.764 11.854L54.084 11.854Q53.604 13.006 52.59 13.618Q51.576 14.23 50.28 14.23ZM1.992 14.158L1.992 10.726L3.06 10.726L5.244 14.158L6.612 14.158L4.32 10.678Q5.4 10.51 5.94 9.85Q6.48 9.19 6.48 8.2Q6.48 7.21 5.742 6.526Q5.004 5.842 3.6 5.842L0.9 5.842L0.9 14.158L1.992 14.158ZM96.048 13.27L96.948 13.27L96.948 14.158L95.844 14.158Q94.128 14.158 94.128 12.466L94.128 8.458L93.276 8.458L93.276 7.57L94.128 7.57L94.128 5.938L95.232 5.938L95.232 7.57L96.936 7.57L96.936 8.458L95.232 8.458L95.232 12.466Q95.232 12.91 95.412 13.09Q95.592 13.27 96.048 13.27ZM1.992 9.862L1.992 6.718L3.6 6.718Q5.376 6.718 5.376 8.29Q5.376 9.034 4.938 9.448Q4.5 9.862 3.6 9.862L1.992 9.862ZM8.76 13.33Q9.648 14.266 11.064 14.266Q12.216 14.266 12.978 13.702Q13.74 13.138 14.052 12.274L12.876 12.274Q12.66 12.766 12.198 13.066Q11.736 13.366 11.064 13.366Q10.176 13.366 9.606 12.796Q9.036 12.226 8.988 11.242L14.232 11.242Q14.28 10.942 14.28 10.594Q14.28 9.226 13.41 8.344Q12.54 7.462 11.106 7.462Q9.672 7.462 8.772 8.392Q7.872 9.322 7.872 10.858Q7.872 12.394 8.76 13.33ZM18.396 14.266Q16.98 14.266 16.092 13.33Q15.204 12.394 15.204 10.864Q15.204 9.334 16.092 8.398Q16.98 7.462 18.396 7.462Q19.584 7.462 20.334 8.014Q21.084 8.566 21.384 9.586L20.208 9.586Q20.016 9.01 19.548 8.686Q19.08 8.362 18.396 8.362Q17.46 8.362 16.89 9.016Q16.32 9.67 16.32 10.864Q16.32 12.058 16.89 12.712Q17.46 13.366 18.396 13.366Q19.8 13.366 20.208 12.142L21.384 12.142Q21.084 13.114 20.322 13.69Q19.56 14.266 18.396 14.266ZM22.404 10.87Q22.404 12.394 23.31 13.33Q24.216 14.266 25.644 14.266Q27.072 14.266 28.062 13.324Q29.052 12.382 29.052 10.864Q29.052 9.346 28.104 8.404Q27.156 7.462 25.728 7.462Q24.3 7.462 23.352 8.404Q22.404 9.346 22.404 10.87ZM31.512 7.57L31.512 8.686Q32.1 7.462 33.516 7.462L33.516 8.602L33.228 8.602Q32.388 8.602 31.95 9.04Q31.512 9.478 31.512 10.558L31.512 14.158L30.42 14.158L30.42 7.57L31.512 7.57ZM55.368 10.87Q55.368 12.394 56.274 13.33Q57.18 14.266 58.608 14.266Q60.036 14.266 61.026 13.324Q62.016 12.382 62.016 10.864Q62.016 9.346 61.068 8.404Q60.12 7.462 58.692 7.462Q57.264 7.462 56.316 8.404Q55.368 9.346 55.368 10.87ZM64.476 7.57L64.476 8.638Q65.148 7.462 66.624 7.462Q67.38 7.462 67.992 7.828Q68.604 8.194 68.916 8.89Q69.276 8.218 69.894 7.84Q70.512 7.462 71.304 7.462Q72.42 7.462 73.152 8.188Q73.884 8.914 73.884 10.258L73.884 14.158L72.804 14.158L72.804 10.438Q72.804 9.442 72.318 8.926Q71.832 8.41 70.992 8.41Q70.152 8.41 69.666 8.926Q69.18 9.442 69.18 10.438L69.18 14.158L68.1 14.158L68.1 10.438Q68.1 9.442 67.62 8.926Q67.14 8.41 66.294 8.41Q65.448 8.41 64.962 8.926Q64.476 9.442 64.476 10.438L64.476 14.158L63.384 14.158L63.384 7.57L64.476 7.57ZM81.402 8.392Q80.508 7.462 79.152 7.462Q78.312 7.462 77.682 7.858Q77.052 8.254 76.716 8.89L76.716 7.57L75.624 7.57L75.624 17.278L76.716 17.278L76.716 12.814Q77.052 13.462 77.682 13.864Q78.312 14.266 79.152 14.266Q80.496 14.266 81.396 13.3Q82.296 12.334 82.296 10.828Q82.296 9.322 81.402 8.392ZM87.012 13.33Q87.9 14.266 89.316 14.266Q90.468 14.266 91.23 13.702Q91.992 13.138 92.304 12.274L91.128 12.274Q90.912 12.766 90.45 13.066Q89.988 13.366 89.316 13.366Q88.428 13.366 87.858 12.796Q87.288 12.226 87.24 11.242L92.484 11.242Q92.532 10.942 92.532 10.594Q92.532 9.226 91.662 8.344Q90.792 7.462 89.358 7.462Q87.924 7.462 87.024 8.392Q86.124 9.322 86.124 10.858Q86.124 12.394 87.012 13.33ZM101.514 13.33Q100.608 12.394 100.608 10.87Q100.608 9.346 101.556 8.404Q102.504 7.462 103.932 7.462Q105.36 7.462 106.308 8.404Q107.256 9.346 107.256 10.864Q107.256 12.382 106.266 13.324Q105.276 14.266 103.848 14.266Q102.42 14.266 101.514 13.33ZM109.716 8.638L109.716 7.57L108.624 7.57L108.624 14.158L109.716 14.158L109.716 10.438Q109.716 9.442 110.202 8.926Q110.688 8.41 111.534 8.41Q112.38 8.41 112.86 8.926Q113.34 9.442 113.34 10.438L113.34 14.158L114.42 14.158L114.42 10.258Q114.42 8.914 113.688 8.188Q112.956 7.462 111.864 7.462Q110.388 7.462 109.716 8.638ZM99.24 7.57L98.148 7.57L98.148 14.158L99.24 14.158L99.24 7.57ZM12.54 8.932Q13.128 9.502 13.14 10.45L9 10.45Q9.06 9.478 9.636 8.92Q10.212 8.362 11.082 8.362Q11.952 8.362 12.54 8.932ZM27.246 12.7Q26.568 13.366 25.644 13.366Q24.72 13.366 24.12 12.706Q23.52 12.046 23.52 10.864Q23.52 9.682 24.144 9.022Q24.768 8.362 25.698 8.362Q26.628 8.362 27.276 9.022Q27.924 9.682 27.924 10.858Q27.924 12.034 27.246 12.7ZM60.21 12.7Q59.532 13.366 58.608 13.366Q57.684 13.366 57.084 12.706Q56.484 12.046 56.484 10.864Q56.484 9.682 57.108 9.022Q57.732 8.362 58.662 8.362Q59.592 8.362 60.24 9.022Q60.888 9.682 60.888 10.858Q60.888 12.034 60.21 12.7ZM90.792 8.932Q91.38 9.502 91.392 10.45L87.252 10.45Q87.312 9.478 87.888 8.92Q88.464 8.362 89.334 8.362Q90.204 8.362 90.792 8.932ZM103.848 13.366Q104.772 13.366 105.45 12.7Q106.128 12.034 106.128 10.858Q106.128 9.682 105.48 9.022Q104.832 8.362 103.902 8.362Q102.972 8.362 102.348 9.022Q101.724 9.682 101.724 10.864Q101.724 12.046 102.324 12.706Q102.924 13.366 103.848 13.366ZM39.972 10.87Q39.972 11.986 39.318 12.658Q38.664 13.33 37.752 13.33Q36.84 13.33 36.18 12.634Q35.52 11.938 35.52 10.822Q35.52 9.706 36.174 9.058Q36.828 8.41 37.746 8.41Q38.664 8.41 39.318 9.082Q39.972 9.754 39.972 10.87ZM80.514 12.64Q79.86 13.33 78.942 13.33Q78.024 13.33 77.37 12.652Q76.716 11.974 76.716 10.864Q76.716 9.754 77.37 9.082Q78.024 8.41 78.942 8.41Q79.86 8.41 80.514 9.058Q81.168 9.706 81.168 10.828Q81.168 11.95 80.514 12.64Z" />
    </g>
    <path d="M436 113C436 113 436 113 436 113C437.525 113.005 439.051 113.001 440.576 113.016C441.294 113.023 442.013 113.04 442.731 113.063C443.297 113.082 443.863 113.108 444.429 113.142C444.914 113.171 445.398 113.208 445.881 113.253C449.1 113.55 452.433 114.242 455.119 116.14C455.544 116.441 455.948 116.769 456.329 117.124C456.898 117.655 457.41 118.246 457.86 118.881C458.501 119.789 459.012 120.784 459.41 121.821C460.183 123.832 460.549 125.981 460.747 128.118C461.05 131.4 460.989 134.71 461 138L461 241L411 241C411 138 411 138 411 138C411.005 136.475 411.001 134.949 411.016 133.424C411.023 132.706 411.04 131.987 411.063 131.269C411.082 130.703 411.108 130.137 411.142 129.571C411.171 129.086 411.208 128.602 411.253 128.119C411.55 124.9 412.242 121.567 414.14 118.881C414.441 118.456 414.769 118.052 415.124 117.671C415.655 117.102 416.246 116.59 416.881 116.14C417.789 115.499 418.784 114.988 419.821 114.59C421.832 113.817 423.981 113.451 426.118 113.253C429.4 112.95 432.71 113.011 436 113Z" id="Rectangle" fill="#5C63AB" fill-rule="evenodd" stroke="none" />
    <g id="Patient-Consultation" fill="#173E67" transform="translate(374 251)">
      <path d="M21.216 6.298Q21 6.514 20.688 6.514Q20.376 6.514 20.166 6.298Q19.956 6.082 19.956 5.77Q19.956 5.458 20.172 5.242Q20.388 5.026 20.694 5.026Q21 5.026 21.216 5.242Q21.432 5.458 21.432 5.77Q21.432 6.082 21.216 6.298ZM104.052 6.514Q104.364 6.514 104.58 6.298Q104.796 6.082 104.796 5.77Q104.796 5.458 104.58 5.242Q104.364 5.026 104.058 5.026Q103.752 5.026 103.536 5.242Q103.32 5.458 103.32 5.77Q103.32 6.082 103.53 6.298Q103.74 6.514 104.052 6.514ZM84.048 5.278L84.048 14.158L85.14 14.158L85.14 5.278L84.048 5.278ZM49.56 14.23Q47.772 14.23 46.548 13.03Q45.324 11.83 45.324 9.988Q45.324 8.146 46.548 6.952Q47.772 5.758 49.56 5.758Q50.856 5.758 51.87 6.37Q52.884 6.982 53.364 8.134L52.044 8.134Q51.3 6.73 49.56 6.73Q48.204 6.73 47.322 7.624Q46.44 8.518 46.44 9.994Q46.44 11.47 47.322 12.37Q48.204 13.27 49.56 13.27Q50.388 13.27 51.036 12.904Q51.684 12.538 52.044 11.854L53.364 11.854Q52.884 13.006 51.87 13.618Q50.856 14.23 49.56 14.23ZM3.6 5.842Q5.004 5.842 5.742 6.526Q6.48 7.21 6.48 8.278Q6.48 9.346 5.766 10.036Q5.052 10.726 3.6 10.726L1.992 10.726L1.992 14.158L0.9 14.158L0.9 5.842L3.6 5.842ZM18.936 13.27L18.036 13.27Q17.58 13.27 17.4 13.09Q17.22 12.91 17.22 12.466L17.22 8.458L18.924 8.458L18.924 7.57L17.22 7.57L17.22 5.938L16.116 5.938L16.116 7.57L15.264 7.57L15.264 8.458L16.116 8.458L16.116 12.466Q16.116 14.158 17.832 14.158L18.936 14.158L18.936 13.27ZM40.956 13.27L40.056 13.27Q39.6 13.27 39.42 13.09Q39.24 12.91 39.24 12.466L39.24 8.458L40.944 8.458L40.944 7.57L39.24 7.57L39.24 5.938L38.136 5.938L38.136 7.57L37.284 7.57L37.284 8.458L38.136 8.458L38.136 12.466Q38.136 14.158 39.852 14.158L40.956 14.158L40.956 13.27ZM89.1 13.27L90 13.27L90 14.158L88.896 14.158Q87.18 14.158 87.18 12.466L87.18 8.458L86.328 8.458L86.328 7.57L87.18 7.57L87.18 5.938L88.284 5.938L88.284 7.57L89.988 7.57L89.988 8.458L88.284 8.458L88.284 12.466Q88.284 12.91 88.464 13.09Q88.644 13.27 89.1 13.27ZM101.4 13.27L102.3 13.27L102.3 14.158L101.196 14.158Q99.48 14.158 99.48 12.466L99.48 8.458L98.628 8.458L98.628 7.57L99.48 7.57L99.48 5.938L100.584 5.938L100.584 7.57L102.288 7.57L102.288 8.458L100.584 8.458L100.584 12.466Q100.584 12.91 100.764 13.09Q100.944 13.27 101.4 13.27ZM1.992 9.862L3.6 9.862Q4.5 9.862 4.938 9.448Q5.376 9.034 5.376 8.29Q5.376 6.718 3.6 6.718L1.992 6.718L1.992 9.862ZM10.548 14.266Q9.204 14.266 8.304 13.3Q7.404 12.334 7.404 10.828Q7.404 9.322 8.298 8.392Q9.192 7.462 10.548 7.462Q11.388 7.462 12.018 7.858Q12.648 8.254 12.972 8.89L12.972 7.57L14.076 7.57L14.076 14.158L12.972 14.158L12.972 12.814Q12.648 13.462 12.018 13.864Q11.388 14.266 10.548 14.266ZM23.484 13.33Q24.372 14.266 25.788 14.266Q26.94 14.266 27.702 13.702Q28.464 13.138 28.776 12.274L27.6 12.274Q27.384 12.766 26.922 13.066Q26.46 13.366 25.788 13.366Q24.9 13.366 24.33 12.796Q23.76 12.226 23.712 11.242L28.956 11.242Q29.004 10.942 29.004 10.594Q29.004 9.226 28.134 8.344Q27.264 7.462 25.83 7.462Q24.396 7.462 23.496 8.392Q22.596 9.322 22.596 10.858Q22.596 12.394 23.484 13.33ZM31.452 7.57L31.452 8.638Q32.124 7.462 33.6 7.462Q34.692 7.462 35.424 8.188Q36.156 8.914 36.156 10.258L36.156 14.158L35.076 14.158L35.076 10.438Q35.076 9.442 34.596 8.926Q34.116 8.41 33.27 8.41Q32.424 8.41 31.938 8.926Q31.452 9.442 31.452 10.438L31.452 14.158L30.36 14.158L30.36 7.57L31.452 7.57ZM54.648 10.87Q54.648 12.394 55.554 13.33Q56.46 14.266 57.888 14.266Q59.316 14.266 60.306 13.324Q61.296 12.382 61.296 10.864Q61.296 9.346 60.348 8.404Q59.4 7.462 57.972 7.462Q56.544 7.462 55.596 8.404Q54.648 9.346 54.648 10.87ZM63.756 7.57L63.756 8.638Q64.428 7.462 65.904 7.462Q66.996 7.462 67.728 8.188Q68.46 8.914 68.46 10.258L68.46 14.158L67.38 14.158L67.38 10.438Q67.38 9.442 66.9 8.926Q66.42 8.41 65.574 8.41Q64.728 8.41 64.242 8.926Q63.756 9.442 63.756 10.438L63.756 14.158L62.664 14.158L62.664 7.57L63.756 7.57ZM70.65 8.032Q69.96 8.602 69.96 9.43Q69.96 9.994 70.248 10.366Q70.536 10.738 70.968 10.888Q71.4 11.038 71.91 11.17Q72.42 11.302 72.852 11.398Q73.284 11.494 73.572 11.746Q73.86 11.998 73.86 12.424Q73.86 12.85 73.494 13.126Q73.128 13.402 72.486 13.402Q71.844 13.402 71.478 13.072Q71.112 12.742 71.088 12.19L69.96 12.19Q70.02 13.162 70.686 13.714Q71.352 14.266 72.456 14.266Q73.56 14.266 74.25 13.744Q74.94 13.222 74.94 12.46Q74.94 11.698 74.538 11.284Q74.136 10.87 73.566 10.72Q72.996 10.57 72.426 10.456Q71.856 10.342 71.454 10.09Q71.052 9.838 71.052 9.376Q71.052 8.914 71.406 8.62Q71.76 8.326 72.378 8.326Q72.996 8.326 73.344 8.662Q73.692 8.998 73.716 9.55L74.844 9.55Q74.784 8.578 74.16 8.02Q73.536 7.462 72.438 7.462Q71.34 7.462 70.65 8.032ZM91.668 13.3Q92.568 14.266 93.912 14.266Q94.752 14.266 95.382 13.864Q96.012 13.462 96.336 12.814L96.336 14.158L97.44 14.158L97.44 7.57L96.336 7.57L96.336 8.89Q96.012 8.254 95.382 7.858Q94.752 7.462 93.912 7.462Q92.556 7.462 91.662 8.392Q90.768 9.322 90.768 10.828Q90.768 12.334 91.668 13.3ZM106.866 13.33Q105.96 12.394 105.96 10.87Q105.96 9.346 106.908 8.404Q107.856 7.462 109.284 7.462Q110.712 7.462 111.66 8.404Q112.608 9.346 112.608 10.864Q112.608 12.382 111.618 13.324Q110.628 14.266 109.2 14.266Q107.772 14.266 106.866 13.33ZM115.068 8.638L115.068 7.57L113.976 7.57L113.976 14.158L115.068 14.158L115.068 10.438Q115.068 9.442 115.554 8.926Q116.04 8.41 116.886 8.41Q117.732 8.41 118.212 8.926Q118.692 9.442 118.692 10.438L118.692 14.158L119.772 14.158L119.772 10.258Q119.772 8.914 119.04 8.188Q118.308 7.462 117.216 7.462Q115.74 7.462 115.068 8.638ZM20.136 14.158L20.136 7.57L21.228 7.57L21.228 14.158L20.136 14.158ZM81.156 7.57L82.248 7.57L82.248 14.158L81.156 14.158L81.156 13.102Q80.496 14.266 79.008 14.266Q77.916 14.266 77.184 13.54Q76.452 12.814 76.452 11.482L76.452 7.57L77.532 7.57L77.532 11.302Q77.532 12.286 78.018 12.808Q78.504 13.33 79.344 13.33Q80.184 13.33 80.67 12.808Q81.156 12.286 81.156 11.302L81.156 7.57ZM104.592 7.57L103.5 7.57L103.5 14.158L104.592 14.158L104.592 7.57ZM27.264 8.932Q27.852 9.502 27.864 10.45L23.724 10.45Q23.784 9.478 24.36 8.92Q24.936 8.362 25.806 8.362Q26.676 8.362 27.264 8.932ZM59.49 12.7Q58.812 13.366 57.888 13.366Q56.964 13.366 56.364 12.706Q55.764 12.046 55.764 10.864Q55.764 9.682 56.388 9.022Q57.012 8.362 57.942 8.362Q58.872 8.362 59.52 9.022Q60.168 9.682 60.168 10.858Q60.168 12.034 59.49 12.7ZM109.2 13.366Q110.124 13.366 110.802 12.7Q111.48 12.034 111.48 10.858Q111.48 9.682 110.832 9.022Q110.184 8.362 109.254 8.362Q108.324 8.362 107.7 9.022Q107.076 9.682 107.076 10.864Q107.076 12.046 107.676 12.706Q108.276 13.366 109.2 13.366ZM12.318 12.658Q12.972 11.986 12.972 10.87Q12.972 9.754 12.318 9.082Q11.664 8.41 10.746 8.41Q9.828 8.41 9.174 9.058Q8.52 9.706 8.52 10.822Q8.52 11.938 9.18 12.634Q9.84 13.33 10.752 13.33Q11.664 13.33 12.318 12.658ZM96.336 10.87Q96.336 11.986 95.682 12.658Q95.028 13.33 94.116 13.33Q93.204 13.33 92.544 12.634Q91.884 11.938 91.884 10.822Q91.884 9.706 92.538 9.058Q93.192 8.41 94.11 8.41Q95.028 8.41 95.682 9.082Q96.336 9.754 96.336 10.87Z" />
    </g>
    <path d="M589 43C589 43 589 43 589 43C590.525 43.0053 592.051 43.0015 593.576 43.0158C594.294 43.0225 595.013 43.0396 595.731 43.0632C596.297 43.0818 596.863 43.1081 597.429 43.1422C597.914 43.1714 598.398 43.2082 598.881 43.2529C602.1 43.5503 605.433 44.2418 608.119 46.1402C608.544 46.4408 608.948 46.7688 609.329 47.1242C609.898 47.6554 610.41 48.2457 610.86 48.8812C611.501 49.7888 612.012 50.7841 612.41 51.8206C613.183 53.8321 613.549 55.9806 613.747 58.1184C614.05 61.4003 613.989 64.7098 614 68L614 241L564 241C564 68 564 68 564 68C564.005 66.4747 564.001 64.9494 564.016 63.4242C564.023 62.7058 564.04 61.9875 564.063 61.2694C564.082 60.7029 564.108 60.1366 564.142 59.5708C564.171 59.0862 564.208 58.6021 564.253 58.1187C564.55 54.9004 565.242 51.5668 567.14 48.8814C567.441 48.4561 567.769 48.052 568.124 47.6713C568.655 47.1023 569.246 46.5896 569.881 46.1403C570.789 45.4987 571.784 44.9882 572.821 44.5899C574.832 43.8171 576.981 43.4505 579.118 43.2529C582.4 42.9496 585.71 43.0114 589 43Z" id="Rectangle" fill="#5C63AB" fill-rule="evenodd" stroke="none" />
    <g id="Referral-Completion" fill="#173E67" transform="translate(528 251)">
      <path d="M18.348 7.57L18.348 8.458L16.968 8.458L16.968 14.158L15.864 14.158L15.864 8.458L15.012 8.458L15.012 7.57L15.864 7.57L15.864 7.018Q15.864 5.938 16.44 5.446Q17.016 4.954 18.252 4.954L18.252 5.842Q17.532 5.842 17.25 6.112Q16.968 6.382 16.968 7.018L16.968 7.57L18.348 7.57ZM102.516 6.514Q102.828 6.514 103.044 6.298Q103.26 6.082 103.26 5.77Q103.26 5.458 103.044 5.242Q102.828 5.026 102.522 5.026Q102.216 5.026 102 5.242Q101.784 5.458 101.784 5.77Q101.784 6.082 101.994 6.298Q102.204 6.514 102.516 6.514ZM43.8 5.278L43.8 14.158L44.892 14.158L44.892 5.278L43.8 5.278ZM87.48 14.158L87.48 5.278L88.572 5.278L88.572 14.158L87.48 14.158ZM54.096 14.23Q52.308 14.23 51.084 13.03Q49.86 11.83 49.86 9.988Q49.86 8.146 51.084 6.952Q52.308 5.758 54.096 5.758Q55.392 5.758 56.406 6.37Q57.42 6.982 57.9 8.134L56.58 8.134Q55.836 6.73 54.096 6.73Q52.74 6.73 51.858 7.624Q50.976 8.518 50.976 9.994Q50.976 11.47 51.858 12.37Q52.74 13.27 54.096 13.27Q54.924 13.27 55.572 12.904Q56.22 12.538 56.58 11.854L57.9 11.854Q57.42 13.006 56.406 13.618Q55.392 14.23 54.096 14.23ZM1.992 14.158L1.992 10.726L3.06 10.726L5.244 14.158L6.612 14.158L4.32 10.678Q5.4 10.51 5.94 9.85Q6.48 9.19 6.48 8.2Q6.48 7.21 5.742 6.526Q5.004 5.842 3.6 5.842L0.9 5.842L0.9 14.158L1.992 14.158ZM99.864 13.27L100.764 13.27L100.764 14.158L99.66 14.158Q97.944 14.158 97.944 12.466L97.944 8.458L97.092 8.458L97.092 7.57L97.944 7.57L97.944 5.938L99.048 5.938L99.048 7.57L100.752 7.57L100.752 8.458L99.048 8.458L99.048 12.466Q99.048 12.91 99.228 13.09Q99.408 13.27 99.864 13.27ZM1.992 9.862L1.992 6.718L3.6 6.718Q5.376 6.718 5.376 8.29Q5.376 9.034 4.938 9.448Q4.5 9.862 3.6 9.862L1.992 9.862ZM8.76 13.33Q9.648 14.266 11.064 14.266Q12.216 14.266 12.978 13.702Q13.74 13.138 14.052 12.274L12.876 12.274Q12.66 12.766 12.198 13.066Q11.736 13.366 11.064 13.366Q10.176 13.366 9.606 12.796Q9.036 12.226 8.988 11.242L14.232 11.242Q14.28 10.942 14.28 10.594Q14.28 9.226 13.41 8.344Q12.54 7.462 11.106 7.462Q9.672 7.462 8.772 8.392Q7.872 9.322 7.872 10.858Q7.872 12.394 8.76 13.33ZM20.052 13.33Q20.94 14.266 22.356 14.266Q23.508 14.266 24.27 13.702Q25.032 13.138 25.344 12.274L24.168 12.274Q23.952 12.766 23.49 13.066Q23.028 13.366 22.356 13.366Q21.468 13.366 20.898 12.796Q20.328 12.226 20.28 11.242L25.524 11.242Q25.572 10.942 25.572 10.594Q25.572 9.226 24.702 8.344Q23.832 7.462 22.398 7.462Q20.964 7.462 20.064 8.392Q19.164 9.322 19.164 10.858Q19.164 12.394 20.052 13.33ZM28.02 7.57L28.02 8.686Q28.608 7.462 30.024 7.462L30.024 8.602L29.736 8.602Q28.896 8.602 28.458 9.04Q28.02 9.478 28.02 10.558L28.02 14.158L26.928 14.158L26.928 7.57L28.02 7.57ZM32.436 8.686L32.436 7.57L31.344 7.57L31.344 14.158L32.436 14.158L32.436 10.558Q32.436 9.478 32.874 9.04Q33.312 8.602 34.152 8.602L34.44 8.602L34.44 7.462Q33.024 7.462 32.436 8.686ZM38.472 14.266Q37.128 14.266 36.228 13.3Q35.328 12.334 35.328 10.828Q35.328 9.322 36.222 8.392Q37.116 7.462 38.472 7.462Q39.312 7.462 39.942 7.858Q40.572 8.254 40.896 8.89L40.896 7.57L42 7.57L42 14.158L40.896 14.158L40.896 12.814Q40.572 13.462 39.942 13.864Q39.312 14.266 38.472 14.266ZM59.184 10.87Q59.184 12.394 60.09 13.33Q60.996 14.266 62.424 14.266Q63.852 14.266 64.842 13.324Q65.832 12.382 65.832 10.864Q65.832 9.346 64.884 8.404Q63.936 7.462 62.508 7.462Q61.08 7.462 60.132 8.404Q59.184 9.346 59.184 10.87ZM68.292 7.57L68.292 8.638Q68.964 7.462 70.44 7.462Q71.196 7.462 71.808 7.828Q72.42 8.194 72.732 8.89Q73.092 8.218 73.71 7.84Q74.328 7.462 75.12 7.462Q76.236 7.462 76.968 8.188Q77.7 8.914 77.7 10.258L77.7 14.158L76.62 14.158L76.62 10.438Q76.62 9.442 76.134 8.926Q75.648 8.41 74.808 8.41Q73.968 8.41 73.482 8.926Q72.996 9.442 72.996 10.438L72.996 14.158L71.916 14.158L71.916 10.438Q71.916 9.442 71.436 8.926Q70.956 8.41 70.11 8.41Q69.264 8.41 68.778 8.926Q68.292 9.442 68.292 10.438L68.292 14.158L67.2 14.158L67.2 7.57L68.292 7.57ZM85.218 8.392Q84.324 7.462 82.968 7.462Q82.128 7.462 81.498 7.858Q80.868 8.254 80.532 8.89L80.532 7.57L79.44 7.57L79.44 17.278L80.532 17.278L80.532 12.814Q80.868 13.462 81.498 13.864Q82.128 14.266 82.968 14.266Q84.312 14.266 85.212 13.3Q86.112 12.334 86.112 10.828Q86.112 9.322 85.218 8.392ZM90.828 13.33Q91.716 14.266 93.132 14.266Q94.284 14.266 95.046 13.702Q95.808 13.138 96.12 12.274L94.944 12.274Q94.728 12.766 94.266 13.066Q93.804 13.366 93.132 13.366Q92.244 13.366 91.674 12.796Q91.104 12.226 91.056 11.242L96.3 11.242Q96.348 10.942 96.348 10.594Q96.348 9.226 95.478 8.344Q94.608 7.462 93.174 7.462Q91.74 7.462 90.84 8.392Q89.94 9.322 89.94 10.858Q89.94 12.394 90.828 13.33ZM105.33 13.33Q104.424 12.394 104.424 10.87Q104.424 9.346 105.372 8.404Q106.32 7.462 107.748 7.462Q109.176 7.462 110.124 8.404Q111.072 9.346 111.072 10.864Q111.072 12.382 110.082 13.324Q109.092 14.266 107.664 14.266Q106.236 14.266 105.33 13.33ZM113.532 8.638L113.532 7.57L112.44 7.57L112.44 14.158L113.532 14.158L113.532 10.438Q113.532 9.442 114.018 8.926Q114.504 8.41 115.35 8.41Q116.196 8.41 116.676 8.926Q117.156 9.442 117.156 10.438L117.156 14.158L118.236 14.158L118.236 10.258Q118.236 8.914 117.504 8.188Q116.772 7.462 115.68 7.462Q114.204 7.462 113.532 8.638ZM103.056 7.57L101.964 7.57L101.964 14.158L103.056 14.158L103.056 7.57ZM12.54 8.932Q13.128 9.502 13.14 10.45L9 10.45Q9.06 9.478 9.636 8.92Q10.212 8.362 11.082 8.362Q11.952 8.362 12.54 8.932ZM23.832 8.932Q24.42 9.502 24.432 10.45L20.292 10.45Q20.352 9.478 20.928 8.92Q21.504 8.362 22.374 8.362Q23.244 8.362 23.832 8.932ZM64.026 12.7Q63.348 13.366 62.424 13.366Q61.5 13.366 60.9 12.706Q60.3 12.046 60.3 10.864Q60.3 9.682 60.924 9.022Q61.548 8.362 62.478 8.362Q63.408 8.362 64.056 9.022Q64.704 9.682 64.704 10.858Q64.704 12.034 64.026 12.7ZM94.608 8.932Q95.196 9.502 95.208 10.45L91.068 10.45Q91.128 9.478 91.704 8.92Q92.28 8.362 93.15 8.362Q94.02 8.362 94.608 8.932ZM107.664 13.366Q108.588 13.366 109.266 12.7Q109.944 12.034 109.944 10.858Q109.944 9.682 109.296 9.022Q108.648 8.362 107.718 8.362Q106.788 8.362 106.164 9.022Q105.54 9.682 105.54 10.864Q105.54 12.046 106.14 12.706Q106.74 13.366 107.664 13.366ZM40.242 12.658Q40.896 11.986 40.896 10.87Q40.896 9.754 40.242 9.082Q39.588 8.41 38.67 8.41Q37.752 8.41 37.098 9.058Q36.444 9.706 36.444 10.822Q36.444 11.938 37.104 12.634Q37.764 13.33 38.676 13.33Q39.588 13.33 40.242 12.658ZM84.33 12.64Q83.676 13.33 82.758 13.33Q81.84 13.33 81.186 12.652Q80.532 11.974 80.532 10.864Q80.532 9.754 81.186 9.082Q81.84 8.41 82.758 8.41Q83.676 8.41 84.33 9.058Q84.984 9.706 84.984 10.828Q84.984 11.95 84.33 12.64Z" />
    </g>
    <path d="M282.882 191C282.882 191 282.882 191 282.882 191C284.407 191.005 285.932 191.001 287.458 191.016C288.176 191.023 288.894 191.04 289.613 191.063C290.179 191.082 290.745 191.108 291.311 191.142C291.796 191.171 292.28 191.208 292.763 191.253C295.982 191.55 299.315 192.242 302.001 194.14C302.426 194.441 302.83 194.769 303.211 195.124C303.78 195.655 304.292 196.246 304.742 196.881C305.383 197.789 305.894 198.784 306.292 199.821C307.065 201.832 307.431 203.981 307.629 206.118C307.932 209.4 307.871 212.71 307.882 216L307.882 241L257.882 241C257.882 216 257.882 216 257.882 216C257.887 214.475 257.883 212.949 257.898 211.424C257.904 210.706 257.922 209.987 257.945 209.269C257.964 208.703 257.99 208.137 258.024 207.571C258.053 207.086 258.09 206.602 258.135 206.119C258.432 202.9 259.124 199.567 261.022 196.881C261.323 196.456 261.651 196.052 262.006 195.671C262.537 195.102 263.128 194.59 263.763 194.14C264.671 193.499 265.666 192.988 266.703 192.59C268.714 191.817 270.863 191.451 273 191.253C276.282 190.95 279.592 191.011 282.882 191Z" id="Rectangle" fill="#5C63AB" fill-rule="evenodd" stroke="none" />
    <g id="Referral-Accetance" fill="#173E67" transform="translate(223 251)">
      <path d="M18.348 8.458L18.348 7.57L16.968 7.57L16.968 7.018Q16.968 6.382 17.25 6.112Q17.532 5.842 18.252 5.842L18.252 4.954Q17.016 4.954 16.44 5.446Q15.864 5.938 15.864 7.018L15.864 7.57L15.012 7.57L15.012 8.458L15.864 8.458L15.864 14.158L16.968 14.158L16.968 8.458L18.348 8.458ZM43.8 14.158L43.8 5.278L44.892 5.278L44.892 14.158L43.8 14.158ZM1.992 10.726L1.992 14.158L0.9 14.158L0.9 5.842L3.6 5.842Q5.004 5.842 5.742 6.526Q6.48 7.21 6.48 8.2Q6.48 9.19 5.94 9.85Q5.4 10.51 4.32 10.678L6.612 14.158L5.244 14.158L3.06 10.726L1.992 10.726ZM55.38 12.334L56.028 14.158L57.156 14.158L54.144 5.842L52.944 5.842L49.92 14.158L51.036 14.158L51.684 12.334L55.38 12.334ZM83.376 13.27L82.476 13.27Q82.02 13.27 81.84 13.09Q81.66 12.91 81.66 12.466L81.66 8.458L83.364 8.458L83.364 7.57L81.66 7.57L81.66 5.938L80.556 5.938L80.556 7.57L79.704 7.57L79.704 8.458L80.556 8.458L80.556 12.466Q80.556 14.158 82.272 14.158L83.376 14.158L83.376 13.27ZM1.992 6.718L1.992 9.862L3.6 9.862Q4.5 9.862 4.938 9.448Q5.376 9.034 5.376 8.29Q5.376 6.718 3.6 6.718L1.992 6.718ZM53.532 7.174L55.068 11.47L51.996 11.47L53.532 7.174ZM11.064 14.266Q9.648 14.266 8.76 13.33Q7.872 12.394 7.872 10.858Q7.872 9.322 8.772 8.392Q9.672 7.462 11.106 7.462Q12.54 7.462 13.41 8.344Q14.28 9.226 14.28 10.594Q14.28 10.942 14.232 11.242L8.988 11.242Q9.036 12.226 9.606 12.796Q10.176 13.366 11.064 13.366Q11.736 13.366 12.198 13.066Q12.66 12.766 12.876 12.274L14.052 12.274Q13.74 13.138 12.978 13.702Q12.216 14.266 11.064 14.266ZM22.356 14.266Q20.94 14.266 20.052 13.33Q19.164 12.394 19.164 10.858Q19.164 9.322 20.064 8.392Q20.964 7.462 22.398 7.462Q23.832 7.462 24.702 8.344Q25.572 9.226 25.572 10.594Q25.572 10.942 25.524 11.242L20.28 11.242Q20.328 12.226 20.898 12.796Q21.468 13.366 22.356 13.366Q23.028 13.366 23.49 13.066Q23.952 12.766 24.168 12.274L25.344 12.274Q25.032 13.138 24.27 13.702Q23.508 14.266 22.356 14.266ZM28.02 8.686L28.02 7.57L26.928 7.57L26.928 14.158L28.02 14.158L28.02 10.558Q28.02 9.478 28.458 9.04Q28.896 8.602 29.736 8.602L30.024 8.602L30.024 7.462Q28.608 7.462 28.02 8.686ZM32.436 7.57L32.436 8.686Q33.024 7.462 34.44 7.462L34.44 8.602L34.152 8.602Q33.312 8.602 32.874 9.04Q32.436 9.478 32.436 10.558L32.436 14.158L31.344 14.158L31.344 7.57L32.436 7.57ZM36.228 13.3Q37.128 14.266 38.472 14.266Q39.312 14.266 39.942 13.864Q40.572 13.462 40.896 12.814L40.896 14.158L42 14.158L42 7.57L40.896 7.57L40.896 8.89Q40.572 8.254 39.942 7.858Q39.312 7.462 38.472 7.462Q37.116 7.462 36.222 8.392Q35.328 9.322 35.328 10.828Q35.328 12.334 36.228 13.3ZM61.344 14.266Q59.928 14.266 59.04 13.33Q58.152 12.394 58.152 10.864Q58.152 9.334 59.04 8.398Q59.928 7.462 61.344 7.462Q62.532 7.462 63.282 8.014Q64.032 8.566 64.332 9.586L63.156 9.586Q62.964 9.01 62.496 8.686Q62.028 8.362 61.344 8.362Q60.408 8.362 59.838 9.016Q59.268 9.67 59.268 10.864Q59.268 12.058 59.838 12.712Q60.408 13.366 61.344 13.366Q62.748 13.366 63.156 12.142L64.332 12.142Q64.032 13.114 63.27 13.69Q62.508 14.266 61.344 14.266ZM66.24 13.33Q67.128 14.266 68.544 14.266Q69.708 14.266 70.47 13.69Q71.232 13.114 71.532 12.142L70.356 12.142Q69.948 13.366 68.544 13.366Q67.608 13.366 67.038 12.712Q66.468 12.058 66.468 10.864Q66.468 9.67 67.038 9.016Q67.608 8.362 68.544 8.362Q69.228 8.362 69.696 8.686Q70.164 9.01 70.356 9.586L71.532 9.586Q71.232 8.566 70.482 8.014Q69.732 7.462 68.544 7.462Q67.128 7.462 66.24 8.398Q65.352 9.334 65.352 10.864Q65.352 12.394 66.24 13.33ZM75.744 14.266Q74.328 14.266 73.44 13.33Q72.552 12.394 72.552 10.858Q72.552 9.322 73.452 8.392Q74.352 7.462 75.786 7.462Q77.22 7.462 78.09 8.344Q78.96 9.226 78.96 10.594Q78.96 10.942 78.912 11.242L73.668 11.242Q73.716 12.226 74.286 12.796Q74.856 13.366 75.744 13.366Q76.416 13.366 76.878 13.066Q77.34 12.766 77.556 12.274L78.732 12.274Q78.42 13.138 77.658 13.702Q76.896 14.266 75.744 14.266ZM87.288 14.266Q85.944 14.266 85.044 13.3Q84.144 12.334 84.144 10.828Q84.144 9.322 85.038 8.392Q85.932 7.462 87.288 7.462Q88.128 7.462 88.758 7.858Q89.388 8.254 89.712 8.89L89.712 7.57L90.816 7.57L90.816 14.158L89.712 14.158L89.712 12.814Q89.388 13.462 88.758 13.864Q88.128 14.266 87.288 14.266ZM93.708 8.638L93.708 7.57L92.616 7.57L92.616 14.158L93.708 14.158L93.708 10.438Q93.708 9.442 94.194 8.926Q94.68 8.41 95.526 8.41Q96.372 8.41 96.852 8.926Q97.332 9.442 97.332 10.438L97.332 14.158L98.412 14.158L98.412 10.258Q98.412 8.914 97.68 8.188Q96.948 7.462 95.856 7.462Q94.38 7.462 93.708 8.638ZM102.912 14.266Q101.496 14.266 100.608 13.33Q99.72 12.394 99.72 10.864Q99.72 9.334 100.608 8.398Q101.496 7.462 102.912 7.462Q104.1 7.462 104.85 8.014Q105.6 8.566 105.9 9.586L104.724 9.586Q104.532 9.01 104.064 8.686Q103.596 8.362 102.912 8.362Q101.976 8.362 101.406 9.016Q100.836 9.67 100.836 10.864Q100.836 12.058 101.406 12.712Q101.976 13.366 102.912 13.366Q104.316 13.366 104.724 12.142L105.9 12.142Q105.6 13.114 104.838 13.69Q104.076 14.266 102.912 14.266ZM107.808 13.33Q108.696 14.266 110.112 14.266Q111.264 14.266 112.026 13.702Q112.788 13.138 113.1 12.274L111.924 12.274Q111.708 12.766 111.246 13.066Q110.784 13.366 110.112 13.366Q109.224 13.366 108.654 12.796Q108.084 12.226 108.036 11.242L113.28 11.242Q113.328 10.942 113.328 10.594Q113.328 9.226 112.458 8.344Q111.588 7.462 110.154 7.462Q108.72 7.462 107.82 8.392Q106.92 9.322 106.92 10.858Q106.92 12.394 107.808 13.33ZM13.14 10.45Q13.128 9.502 12.54 8.932Q11.952 8.362 11.082 8.362Q10.212 8.362 9.636 8.92Q9.06 9.478 9 10.45L13.14 10.45ZM24.432 10.45Q24.42 9.502 23.832 8.932Q23.244 8.362 22.374 8.362Q21.504 8.362 20.928 8.92Q20.352 9.478 20.292 10.45L24.432 10.45ZM77.82 10.45Q77.808 9.502 77.22 8.932Q76.632 8.362 75.762 8.362Q74.892 8.362 74.316 8.92Q73.74 9.478 73.68 10.45L77.82 10.45ZM111.588 8.932Q112.176 9.502 112.188 10.45L108.048 10.45Q108.108 9.478 108.684 8.92Q109.26 8.362 110.13 8.362Q111 8.362 111.588 8.932ZM40.896 10.87Q40.896 11.986 40.242 12.658Q39.588 13.33 38.676 13.33Q37.764 13.33 37.104 12.634Q36.444 11.938 36.444 10.822Q36.444 9.706 37.098 9.058Q37.752 8.41 38.67 8.41Q39.588 8.41 40.242 9.082Q40.896 9.754 40.896 10.87ZM89.058 12.658Q89.712 11.986 89.712 10.87Q89.712 9.754 89.058 9.082Q88.404 8.41 87.486 8.41Q86.568 8.41 85.914 9.058Q85.26 9.706 85.26 10.822Q85.26 11.938 85.92 12.634Q86.58 13.33 87.492 13.33Q88.404 13.33 89.058 12.658Z" />
    </g>
    <g id="2-Days" fill="#173E67" transform="translate(4.4680786 191)">
      <path d="M4.81191 12.365L4.81191 11.715Q5.05192 11.505 5.56692 11.065Q6.08191 10.625 6.33191 10.4Q6.58191 10.175 6.99192 9.79Q7.40192 9.405 7.61692 9.145Q7.83191 8.885 8.06192 8.545Q8.49191 7.905 8.49191 7.28Q8.49191 6.655 8.16691 6.275Q7.84192 5.895 7.14692 5.895Q6.45191 5.895 6.08191 6.32Q5.71192 6.745 5.68192 7.445L4.81191 7.445Q4.85191 6.325 5.48692 5.72Q6.12191 5.115 7.13692 5.115Q8.15191 5.115 8.76692 5.69Q9.38192 6.265 9.38192 7.255Q9.38192 8.445 8.22192 9.705Q7.80192 10.155 7.57192 10.365Q6.93192 10.985 6.20191 11.595L9.60192 11.595L9.60192 12.365L4.81191 12.365ZM15.9819 5.535Q17.6619 5.535 18.6319 6.475Q19.6019 7.415 19.6019 9.035Q19.6019 10.655 18.6319 11.56Q17.6619 12.465 15.9819 12.465L13.7919 12.465L13.7919 5.535L15.9819 5.535ZM14.7019 11.765L15.9819 11.765Q17.2919 11.765 17.9819 11.045Q18.6719 10.325 18.6719 9.035Q18.6719 7.745 17.9819 7.025Q17.2919 6.305 15.9819 6.305L14.7019 6.305L14.7019 11.765ZM21.1419 11.75Q21.8919 12.555 23.0119 12.555Q23.7119 12.555 24.2369 12.22Q24.7619 11.885 25.0319 11.345L25.0319 12.465L25.9519 12.465L25.9519 6.975L25.0319 6.975L25.0319 8.075Q24.7619 7.545 24.2369 7.215Q23.7119 6.885 23.0119 6.885Q21.8819 6.885 21.1369 7.66Q20.3919 8.435 20.3919 9.69Q20.3919 10.945 21.1419 11.75ZM33.3969 7.36Q32.8219 7.835 32.8219 8.525Q32.8219 8.995 33.0619 9.305Q33.3019 9.615 33.6619 9.74Q34.0219 9.865 34.4469 9.975Q34.8719 10.085 35.2319 10.165Q35.5919 10.245 35.8319 10.455Q36.0719 10.665 36.0719 11.02Q36.0719 11.375 35.7669 11.605Q35.4619 11.835 34.9269 11.835Q34.3919 11.835 34.0869 11.56Q33.7819 11.285 33.7619 10.825L32.8219 10.825Q32.8719 11.635 33.4269 12.095Q33.9819 12.555 34.9019 12.555Q35.8219 12.555 36.3969 12.12Q36.9719 11.685 36.9719 11.05Q36.9719 10.415 36.6369 10.07Q36.3019 9.725 35.8269 9.6Q35.3519 9.475 34.8769 9.38Q34.4019 9.285 34.0669 9.075Q33.7319 8.865 33.7319 8.48Q33.7319 8.095 34.0269 7.85Q34.3219 7.605 34.8369 7.605Q35.3519 7.605 35.6419 7.885Q35.9319 8.165 35.9519 8.625L36.8919 8.625Q36.8419 7.815 36.3219 7.35Q35.8019 6.885 34.8869 6.885Q33.9719 6.885 33.3969 7.36ZM28.9919 12.375L26.8219 6.975L27.8219 6.975L29.5019 11.415L31.2119 6.975L32.1519 6.975L28.8419 15.035L27.9019 15.035L28.9919 12.375ZM25.0319 9.725Q25.0319 10.655 24.4869 11.215Q23.9419 11.775 23.1819 11.775Q22.4219 11.775 21.8719 11.195Q21.3219 10.615 21.3219 9.685Q21.3219 8.755 21.8669 8.215Q22.4119 7.675 23.1769 7.675Q23.9419 7.675 24.4869 8.235Q25.0319 8.795 25.0319 9.725Z" />
    </g>
    <g id="0-Day" fill="#173E67" transform="translate(4.4680786 231)">
      <path d="M11.0769 5.345Q10.6319 5.535 10.3569 5.85Q10.0819 6.165 9.90691 6.645Q9.73191 7.125 9.66691 7.64Q9.60191 8.155 9.60191 8.8Q9.60191 9.445 9.66191 9.965Q9.98191 12.455 12.1119 12.455Q13.2719 12.455 13.8819 11.755Q14.6219 10.885 14.6219 8.805Q14.6219 7.185 14.1319 6.225Q13.8619 5.705 13.3569 5.43Q12.8519 5.155 12.1869 5.155Q11.5219 5.155 11.0769 5.345ZM23.8919 6.475Q22.9219 5.535 21.2419 5.535L19.0519 5.535L19.0519 12.465L21.2419 12.465C22.3619 12.465 23.2452 12.1633 23.8919 11.56Q24.8619 10.655 24.8619 9.035Q24.8619 7.415 23.8919 6.475ZM12.9769 6.19Q13.3219 6.415 13.4769 6.85Q13.6319 7.285 13.6869 7.725Q13.7419 8.165 13.7419 8.975Q13.7419 9.785 13.5819 10.425Q13.4919 10.825 13.3169 11.075Q13.1419 11.325 12.8369 11.485Q12.5319 11.645 12.1119 11.645Q11.6919 11.645 11.3869 11.485Q11.0819 11.325 10.9119 11.075Q10.7419 10.825 10.6419 10.43Q10.5419 10.035 10.5169 9.67Q10.4919 9.305 10.4919 8.805Q10.4919 8.305 10.5169 7.94Q10.5419 7.575 10.6419 7.18Q10.7419 6.785 10.9119 6.535Q11.0819 6.285 11.3869 6.125Q11.6919 5.965 12.1619 5.965Q12.6319 5.965 12.9769 6.19ZM21.2419 11.765L19.9619 11.765L19.9619 6.305L21.2419 6.305Q22.5519 6.305 23.2419 7.025Q23.9319 7.745 23.9319 9.035Q23.9319 10.325 23.2419 11.045Q22.5519 11.765 21.2419 11.765ZM28.2719 12.555Q27.1519 12.555 26.4019 11.75Q25.6519 10.945 25.6519 9.69Q25.6519 8.435 26.3969 7.66Q27.1419 6.885 28.2719 6.885Q28.9719 6.885 29.4969 7.215Q30.0219 7.545 30.2919 8.075L30.2919 6.975L31.2119 6.975L31.2119 12.465L30.2919 12.465L30.2919 11.345Q30.0219 11.885 29.4969 12.22Q28.9719 12.555 28.2719 12.555ZM32.0819 6.975L34.2519 12.375L33.1619 15.035L34.1019 15.035L37.4119 6.975L36.4719 6.975L34.7619 11.415L33.0819 6.975L32.0819 6.975ZM29.7469 11.215Q30.2919 10.655 30.2919 9.725Q30.2919 8.795 29.7469 8.235Q29.2019 7.675 28.4369 7.675Q27.6719 7.675 27.1269 8.215Q26.5819 8.755 26.5819 9.685Q26.5819 10.615 27.1319 11.195Q27.6819 11.775 28.4419 11.775Q29.2019 11.775 29.7469 11.215Z" />
    </g>
    <g id="4-Days" fill="#173E67" transform="translate(4.4680786 157)">
      <path d="M7.87191 12.465L7.87191 10.845L4.15191 10.845L4.15191 10.205L7.59191 5.265L8.75191 5.265L8.75191 10.065L9.72191 10.065L9.72191 10.845L8.75191 10.845L8.75191 12.465L7.87191 12.465ZM15.9819 5.535Q17.6619 5.535 18.6319 6.475Q19.6019 7.415 19.6019 9.035Q19.6019 10.655 18.6319 11.56C17.9852 12.1633 17.1019 12.465 15.9819 12.465L13.7919 12.465L13.7919 5.535L15.9819 5.535ZM7.90191 10.065L7.90191 6.105L5.21191 10.065L7.90191 10.065ZM14.7019 11.765L15.9819 11.765Q17.2919 11.765 17.9819 11.045Q18.6719 10.325 18.6719 9.035Q18.6719 7.745 17.9819 7.025Q17.2919 6.305 15.9819 6.305L14.7019 6.305L14.7019 11.765ZM21.1419 11.75Q21.8919 12.555 23.0119 12.555Q23.7119 12.555 24.2369 12.22Q24.7619 11.885 25.0319 11.345L25.0319 12.465L25.9519 12.465L25.9519 6.975L25.0319 6.975L25.0319 8.075Q24.7619 7.545 24.2369 7.215Q23.7119 6.885 23.0119 6.885Q21.8819 6.885 21.1369 7.66Q20.3919 8.435 20.3919 9.69Q20.3919 10.945 21.1419 11.75ZM33.3969 7.36Q32.8219 7.835 32.8219 8.525Q32.8219 8.995 33.0619 9.305Q33.3019 9.615 33.6619 9.74Q34.0219 9.865 34.4469 9.975Q34.8719 10.085 35.2319 10.165Q35.5919 10.245 35.8319 10.455Q36.0719 10.665 36.0719 11.02Q36.0719 11.375 35.7669 11.605Q35.4619 11.835 34.9269 11.835Q34.3919 11.835 34.0869 11.56Q33.7819 11.285 33.7619 10.825L32.8219 10.825Q32.8719 11.635 33.4269 12.095Q33.9819 12.555 34.9019 12.555Q35.8219 12.555 36.3969 12.12Q36.9719 11.685 36.9719 11.05Q36.9719 10.415 36.6369 10.07Q36.3019 9.725 35.8269 9.6Q35.3519 9.475 34.8769 9.38Q34.4019 9.285 34.0669 9.075Q33.7319 8.865 33.7319 8.48Q33.7319 8.095 34.0269 7.85Q34.3219 7.605 34.8369 7.605Q35.3519 7.605 35.6419 7.885Q35.9319 8.165 35.9519 8.625L36.8919 8.625Q36.8419 7.815 36.3219 7.35Q35.8019 6.885 34.8869 6.885Q33.9719 6.885 33.3969 7.36ZM28.9919 12.375L26.8219 6.975L27.8219 6.975L29.5019 11.415L31.2119 6.975L32.1519 6.975L28.8419 15.035L27.9019 15.035L28.9919 12.375ZM25.0319 9.725Q25.0319 10.655 24.4869 11.215Q23.9419 11.775 23.1819 11.775Q22.4219 11.775 21.8719 11.195Q21.3219 10.615 21.3219 9.685Q21.3219 8.755 21.8669 8.215Q22.4119 7.675 23.1769 7.675Q23.9419 7.675 24.4869 8.235Q25.0319 8.795 25.0319 9.725Z" />
    </g>
    <g id="6-Days" fill="#173E67" transform="translate(4.4680786 122)">
      <path d="M6.95191 5.765Q6.05191 5.765 5.62191 6.425Q5.19191 7.085 5.16191 8.665Q5.43191 8.175 5.96191 7.9Q6.49191 7.625 7.14191 7.625Q8.14191 7.625 8.76191 8.27Q9.38191 8.915 9.38191 10.01Q9.38191 11.105 8.77191 11.785Q8.16191 12.465 7.02191 12.465Q5.20191 12.465 4.69191 10.925Q4.40191 10.055 4.40191 8.475Q4.40191 6.895 5.02191 5.945Q5.64191 4.995 6.95191 4.995Q7.91191 4.995 8.47691 5.51Q9.04191 6.025 9.13191 6.785L8.31191 6.785Q8.18191 6.265 7.86191 6.015Q7.54191 5.765 6.95191 5.765ZM15.9819 5.535Q17.6619 5.535 18.6319 6.475Q19.6019 7.415 19.6019 9.035Q19.6019 10.655 18.6319 11.56Q17.6619 12.465 15.9819 12.465L13.7919 12.465L13.7919 5.535L15.9819 5.535ZM14.7019 11.765L15.9819 11.765Q17.2919 11.765 17.9819 11.045Q18.6719 10.325 18.6719 9.035Q18.6719 7.745 17.9819 7.025Q17.2919 6.305 15.9819 6.305L14.7019 6.305L14.7019 11.765ZM21.1419 11.75Q21.8919 12.555 23.0119 12.555Q23.7119 12.555 24.2369 12.22Q24.7619 11.885 25.0319 11.345L25.0319 12.465L25.9519 12.465L25.9519 6.975L25.0319 6.975L25.0319 8.075Q24.7619 7.545 24.2369 7.215Q23.7119 6.885 23.0119 6.885Q21.8819 6.885 21.1369 7.66Q20.3919 8.435 20.3919 9.69Q20.3919 10.945 21.1419 11.75ZM33.3969 7.36Q32.8219 7.835 32.8219 8.525Q32.8219 8.995 33.0619 9.305Q33.3019 9.615 33.6619 9.74Q34.0219 9.865 34.4469 9.975Q34.8719 10.085 35.2319 10.165Q35.5919 10.245 35.8319 10.455Q36.0719 10.665 36.0719 11.02Q36.0719 11.375 35.7669 11.605Q35.4619 11.835 34.9269 11.835Q34.3919 11.835 34.0869 11.56Q33.7819 11.285 33.7619 10.825L32.8219 10.825Q32.8719 11.635 33.4269 12.095Q33.9819 12.555 34.9019 12.555Q35.8219 12.555 36.3969 12.12Q36.9719 11.685 36.9719 11.05Q36.9719 10.415 36.6369 10.07Q36.3019 9.725 35.8269 9.6Q35.3519 9.475 34.8769 9.38Q34.4019 9.285 34.0669 9.075Q33.7319 8.865 33.7319 8.48Q33.7319 8.095 34.0269 7.85Q34.3219 7.605 34.8369 7.605Q35.3519 7.605 35.6419 7.885Q35.9319 8.165 35.9519 8.625L36.8919 8.625Q36.8419 7.815 36.3219 7.35Q35.8019 6.885 34.8869 6.885Q33.9719 6.885 33.3969 7.36ZM28.9919 12.375L26.8219 6.975L27.8219 6.975L29.5019 11.415L31.2119 6.975L32.1519 6.975L28.8419 15.035L27.9019 15.035L28.9919 12.375ZM25.0319 9.725Q25.0319 10.655 24.4869 11.215Q23.9419 11.775 23.1819 11.775Q22.4219 11.775 21.8719 11.195Q21.3219 10.615 21.3219 9.685Q21.3219 8.755 21.8669 8.215Q22.4119 7.675 23.1769 7.675Q23.9419 7.675 24.4869 8.235Q25.0319 8.795 25.0319 9.725ZM8.52191 10.06Q8.52191 9.295 8.12691 8.85Q7.73191 8.405 7.00691 8.405Q6.28191 8.405 5.78691 8.81Q5.29191 9.215 5.29191 9.995Q5.29191 10.775 5.72191 11.235Q6.15191 11.695 6.92191 11.695Q7.69191 11.695 8.10691 11.26Q8.52191 10.825 8.52191 10.06Z" />
    </g>
    <g id="8-Days" fill="#173E67" transform="translate(4.4680786 86)">
      <path d="M4.51191 6.905Q4.51191 6.055 5.12691 5.5Q5.74191 4.945 6.86691 4.945Q7.99191 4.945 8.60191 5.505Q9.21191 6.065 9.21191 6.915Q9.21191 7.495 8.91191 7.93Q8.61191 8.365 8.13191 8.575Q8.70191 8.765 9.05191 9.26Q9.40191 9.755 9.40191 10.445Q9.40191 11.455 8.70191 12.06Q8.00191 12.665 6.86191 12.665Q5.72191 12.665 5.02191 12.06Q4.32191 11.455 4.32191 10.445Q4.32191 9.755 4.67191 9.26Q5.02191 8.765 5.60191 8.575Q4.51191 8.055 4.51191 6.905ZM15.9819 5.535Q17.6619 5.535 18.6319 6.475Q19.6019 7.415 19.6019 9.035Q19.6019 10.655 18.6319 11.56Q17.6619 12.465 15.9819 12.465L13.7919 12.465L13.7919 5.535L15.9819 5.535ZM8.35191 6.965Q8.35191 6.385 7.95691 6.05Q7.56191 5.715 6.86691 5.715Q6.17191 5.715 5.77191 6.05Q5.37191 6.385 5.37191 6.965Q5.37191 7.545 5.78691 7.9Q6.20191 8.255 6.86191 8.255Q7.52191 8.255 7.93691 7.9Q8.35191 7.545 8.35191 6.965ZM14.7019 11.765L15.9819 11.765Q17.2919 11.765 17.9819 11.045Q18.6719 10.325 18.6719 9.035Q18.6719 7.745 17.9819 7.025Q17.2919 6.305 15.9819 6.305L14.7019 6.305L14.7019 11.765ZM21.1419 11.75Q21.8919 12.555 23.0119 12.555Q23.7119 12.555 24.2369 12.22Q24.7619 11.885 25.0319 11.345L25.0319 12.465L25.9519 12.465L25.9519 6.975L25.0319 6.975L25.0319 8.075Q24.7619 7.545 24.2369 7.215Q23.7119 6.885 23.0119 6.885Q21.8819 6.885 21.1369 7.66Q20.3919 8.435 20.3919 9.69Q20.3919 10.945 21.1419 11.75ZM33.3969 7.36Q32.8219 7.835 32.8219 8.525Q32.8219 8.995 33.0619 9.305Q33.3019 9.615 33.6619 9.74Q34.0219 9.865 34.4469 9.975Q34.8719 10.085 35.2319 10.165Q35.5919 10.245 35.8319 10.455Q36.0719 10.665 36.0719 11.02Q36.0719 11.375 35.7669 11.605Q35.4619 11.835 34.9269 11.835Q34.3919 11.835 34.0869 11.56Q33.7819 11.285 33.7619 10.825L32.8219 10.825Q32.8719 11.635 33.4269 12.095Q33.9819 12.555 34.9019 12.555Q35.8219 12.555 36.3969 12.12Q36.9719 11.685 36.9719 11.05Q36.9719 10.415 36.6369 10.07Q36.3019 9.725 35.8269 9.6Q35.3519 9.475 34.8769 9.38Q34.4019 9.285 34.0669 9.075Q33.7319 8.865 33.7319 8.48Q33.7319 8.095 34.0269 7.85Q34.3219 7.605 34.8369 7.605Q35.3519 7.605 35.6419 7.885Q35.9319 8.165 35.9519 8.625L36.8919 8.625Q36.8419 7.815 36.3219 7.35Q35.8019 6.885 34.8869 6.885Q33.9719 6.885 33.3969 7.36ZM28.9919 12.375L26.8219 6.975L27.8219 6.975L29.5019 11.415L31.2119 6.975L32.1519 6.975L28.8419 15.035L27.9019 15.035L28.9919 12.375ZM25.0319 9.725Q25.0319 10.655 24.4869 11.215Q23.9419 11.775 23.1819 11.775Q22.4219 11.775 21.8719 11.195Q21.3219 10.615 21.3219 9.685Q21.3219 8.755 21.8669 8.215Q22.4119 7.675 23.1769 7.675Q23.9419 7.675 24.4869 8.235Q25.0319 8.795 25.0319 9.725ZM8.53191 10.395Q8.53191 9.705 8.07191 9.34Q7.61191 8.975 6.86691 8.975Q6.12191 8.975 5.65191 9.34Q5.18191 9.705 5.18191 10.4Q5.18191 11.095 5.63691 11.495Q6.09191 11.895 6.86191 11.895Q7.63191 11.895 8.08191 11.49Q8.53191 11.085 8.53191 10.395Z" />
    </g>
    <g id="10-Days" fill="#173E67" transform="translate(0 50)">
      <path d="M10.285 5.345Q9.84 5.535 9.565 5.85Q9.29 6.165 9.115 6.645Q8.94 7.125 8.875 7.64Q8.81 8.155 8.81 8.8Q8.81 9.445 8.87 9.965Q9.19 12.455 11.32 12.455Q12.48 12.455 13.09 11.755Q13.83 10.885 13.83 8.805Q13.83 7.185 13.34 6.225Q13.07 5.705 12.565 5.43Q12.06 5.155 11.395 5.155Q10.73 5.155 10.285 5.345ZM6.28 6.175L6.28 12.465L7.17 12.465L7.17 5.365L5.46 5.365L5.46 6.175L6.28 6.175ZM20.45 5.535Q22.13 5.535 23.1 6.475Q24.07 7.415 24.07 9.035Q24.07 10.655 23.1 11.56C22.4533 12.1633 21.57 12.465 20.45 12.465L18.26 12.465L18.26 5.535L20.45 5.535ZM12.185 6.19Q12.53 6.415 12.685 6.85Q12.84 7.285 12.895 7.725Q12.95 8.165 12.95 8.975Q12.95 9.785 12.79 10.425Q12.7 10.825 12.525 11.075Q12.35 11.325 12.045 11.485Q11.74 11.645 11.32 11.645Q10.9 11.645 10.595 11.485Q10.29 11.325 10.12 11.075Q9.95 10.825 9.85 10.43Q9.75 10.035 9.725 9.67Q9.7 9.305 9.7 8.805Q9.7 8.305 9.725 7.94Q9.75 7.575 9.85 7.18Q9.95 6.785 10.12 6.535Q10.29 6.285 10.595 6.125Q10.9 5.965 11.37 5.965Q11.84 5.965 12.185 6.19ZM19.17 11.765L20.45 11.765Q21.76 11.765 22.45 11.045Q23.14 10.325 23.14 9.035Q23.14 7.745 22.45 7.025Q21.76 6.305 20.45 6.305L19.17 6.305L19.17 11.765ZM25.61 11.75Q26.36 12.555 27.48 12.555Q28.18 12.555 28.705 12.22Q29.23 11.885 29.5 11.345L29.5 12.465L30.42 12.465L30.42 6.975L29.5 6.975L29.5 8.075Q29.23 7.545 28.705 7.215Q28.18 6.885 27.48 6.885Q26.35 6.885 25.605 7.66Q24.86 8.435 24.86 9.69Q24.86 10.945 25.61 11.75ZM37.865 7.36Q37.29 7.835 37.29 8.525Q37.29 8.995 37.53 9.305Q37.77 9.615 38.13 9.74Q38.49 9.865 38.915 9.975Q39.34 10.085 39.7 10.165Q40.06 10.245 40.3 10.455Q40.54 10.665 40.54 11.02Q40.54 11.375 40.235 11.605Q39.93 11.835 39.395 11.835Q38.86 11.835 38.555 11.56Q38.25 11.285 38.23 10.825L37.29 10.825Q37.34 11.635 37.895 12.095Q38.45 12.555 39.37 12.555Q40.29 12.555 40.865 12.12Q41.44 11.685 41.44 11.05Q41.44 10.415 41.105 10.07Q40.77 9.725 40.295 9.6Q39.82 9.475 39.345 9.38Q38.87 9.285 38.535 9.075Q38.2 8.865 38.2 8.48Q38.2 8.095 38.495 7.85Q38.79 7.605 39.305 7.605Q39.82 7.605 40.11 7.885Q40.4 8.165 40.42 8.625L41.36 8.625Q41.31 7.815 40.79 7.35Q40.27 6.885 39.355 6.885Q38.44 6.885 37.865 7.36ZM33.46 12.375L31.29 6.975L32.29 6.975L33.97 11.415L35.68 6.975L36.62 6.975L33.31 15.035L32.37 15.035L33.46 12.375ZM29.5 9.725Q29.5 10.655 28.955 11.215Q28.41 11.775 27.65 11.775Q26.89 11.775 26.34 11.195Q25.79 10.615 25.79 9.685Q25.79 8.755 26.335 8.215Q26.88 7.675 27.645 7.675Q28.41 7.675 28.955 8.235Q29.5 8.795 29.5 9.725Z" />
    </g>
    <g id="12-Days" fill="#173E67" transform="translate(0 15)">
      <path d="M9.28 11.715L9.28 12.365L14.07 12.365L14.07 11.595L10.67 11.595Q11.4 10.985 12.04 10.365Q12.27 10.155 12.69 9.705Q13.85 8.445 13.85 7.255Q13.85 6.265 13.235 5.69Q12.62 5.115 11.605 5.115Q10.59 5.115 9.955 5.72Q9.32 6.325 9.28 7.445L10.15 7.445Q10.18 6.745 10.55 6.32Q10.92 5.895 11.615 5.895Q12.31 5.895 12.635 6.275Q12.96 6.655 12.96 7.28Q12.96 7.905 12.53 8.545Q12.3 8.885 12.085 9.145Q11.87 9.405 11.46 9.79Q11.05 10.175 10.8 10.4Q10.55 10.625 10.035 11.065Q9.52 11.505 9.28 11.715ZM6.85 6.175L6.85 12.465L7.74 12.465L7.74 5.365L6.03 5.365L6.03 6.175L6.85 6.175ZM20.45 5.535Q22.13 5.535 23.1 6.475Q24.07 7.415 24.07 9.035Q24.07 10.655 23.1 11.56C22.4533 12.1633 21.57 12.465 20.45 12.465L18.26 12.465L18.26 5.535L20.45 5.535ZM19.17 11.765L20.45 11.765Q21.76 11.765 22.45 11.045Q23.14 10.325 23.14 9.035Q23.14 7.745 22.45 7.025Q21.76 6.305 20.45 6.305L19.17 6.305L19.17 11.765ZM25.61 11.75Q26.36 12.555 27.48 12.555Q28.18 12.555 28.705 12.22Q29.23 11.885 29.5 11.345L29.5 12.465L30.42 12.465L30.42 6.975L29.5 6.975L29.5 8.075Q29.23 7.545 28.705 7.215Q28.18 6.885 27.48 6.885Q26.35 6.885 25.605 7.66Q24.86 8.435 24.86 9.69Q24.86 10.945 25.61 11.75ZM37.865 7.36Q37.29 7.835 37.29 8.525Q37.29 8.995 37.53 9.305Q37.77 9.615 38.13 9.74Q38.49 9.865 38.915 9.975Q39.34 10.085 39.7 10.165Q40.06 10.245 40.3 10.455Q40.54 10.665 40.54 11.02Q40.54 11.375 40.235 11.605Q39.93 11.835 39.395 11.835Q38.86 11.835 38.555 11.56Q38.25 11.285 38.23 10.825L37.29 10.825Q37.34 11.635 37.895 12.095Q38.45 12.555 39.37 12.555Q40.29 12.555 40.865 12.12Q41.44 11.685 41.44 11.05Q41.44 10.415 41.105 10.07Q40.77 9.725 40.295 9.6Q39.82 9.475 39.345 9.38Q38.87 9.285 38.535 9.075Q38.2 8.865 38.2 8.48Q38.2 8.095 38.495 7.85Q38.79 7.605 39.305 7.605Q39.82 7.605 40.11 7.885Q40.4 8.165 40.42 8.625L41.36 8.625Q41.31 7.815 40.79 7.35Q40.27 6.885 39.355 6.885Q38.44 6.885 37.865 7.36ZM33.46 12.375L31.29 6.975L32.29 6.975L33.97 11.415L35.68 6.975L36.62 6.975L33.31 15.035L32.37 15.035L33.46 12.375ZM29.5 9.725Q29.5 10.655 28.955 11.215Q28.41 11.775 27.65 11.775Q26.89 11.775 26.34 11.195Q25.79 10.615 25.79 9.685Q25.79 8.755 26.335 8.215Q26.88 7.675 27.645 7.675Q28.41 7.675 28.955 8.235Q29.5 8.795 29.5 9.725Z" />
    </g>
    <g id="Group-40" transform="translate(97.99945 106)">
      <path d="M54.9236 0L14.0005 0C13.0669 0.00279427 12.1333 0.000627619 11.1997 0.0083828C10.7875 0.0118069 10.3753 0.0209468 9.96329 0.0335369C9.64326 0.0433158 9.32333 0.0573118 9.00367 0.0754852C6.72722 0.204906 4.22865 0.580231 2.49253 2.1988C2.18716 2.48349 1.91263 2.80057 1.6728 3.14224C1.32859 3.63258 1.05676 4.17094 0.845728 4.73096C0.428893 5.83709 0.238054 7.01811 0.134806 8.19106C-0.00402085 9.76819 -0.00171643 11.3577 0.00057961 12.9414C0.00109171 13.2946 0.0016034 13.6475 0.000548704 14C0.00160369 14.3525 0.00109204 14.7054 0.00057997 15.0587C-0.00171587 16.6424 -0.00402012 18.2319 0.13482 19.8091C0.238075 20.982 0.428922 22.163 0.845762 23.2691C1.05681 23.8291 1.32863 24.3675 1.67285 24.8578C1.91268 25.1995 2.18723 25.5166 2.49259 25.8013C4.22875 27.4198 6.72737 27.7951 9.00385 27.9245C9.32352 27.9427 9.64347 27.9567 9.96351 27.9665C10.3756 27.9791 10.7878 27.9882 11.2 27.9916C12.1335 27.9994 13.067 27.9972 14.0005 28L27.7946 28Q27.8282 28.0376 27.8632 28.074L32.3353 32.7406Q32.5452 32.9597 32.7948 33.1323Q33.0444 33.3049 33.3235 33.4239Q33.6026 33.543 33.8998 33.6038Q34.1971 33.6646 34.5005 33.6646Q34.804 33.6646 35.1013 33.6038Q35.3985 33.543 35.6776 33.4239Q35.9567 33.3049 36.2063 33.1323Q36.4558 32.9597 36.6658 32.7406L41.1379 28.074Q41.1729 28.0376 41.2065 28L54.9236 28C55.8573 27.9972 56.7909 27.9994 57.7245 27.9916C58.1367 27.9882 58.5489 27.979 58.9609 27.9665C59.2809 27.9567 59.6009 27.9427 59.9205 27.9245C62.197 27.7951 64.6955 27.4198 66.4317 25.8012C66.737 25.5165 67.0116 25.1994 67.2514 24.8578C67.5956 24.3674 67.8674 23.8291 68.0785 23.269C68.4953 22.1629 68.6861 20.9819 68.7894 19.8089C68.9282 18.2318 68.9259 16.6423 68.9236 15.0586C68.9231 14.7054 68.9226 14.3524 68.9236 14C68.9226 13.6475 68.9231 13.2946 68.9236 12.9414C68.9259 11.3576 68.9282 9.76808 68.7894 8.1909C68.6861 7.01796 68.4953 5.83697 68.0784 4.73086C67.8674 4.17085 67.5955 3.63251 67.2513 3.14216C67.0115 2.80051 66.737 2.48342 66.4316 2.19874C64.6954 0.580171 62.1968 0.204885 59.9203 0.0754757C59.6007 0.0573033 59.2807 0.043308 58.9607 0.0335302C58.5486 0.0209412 58.1364 0.011804 57.7242 0.00837994C56.7907 0.000626467 55.8571 0.0027925 54.9236 0Z" id="Combined-Shape" fill="#173E67" fill-rule="evenodd" stroke="none" />
      <g id="4.5-Days" fill="#FFFFFF" transform="translate(3.76651 5)">
        <path d="M23.615 5.155L19.285 5.155L19.285 9.285L20.115 9.285Q20.305 8.805 20.695 8.525Q21.085 8.245 21.625 8.245Q22.425 8.245 22.83 8.68Q23.235 9.115 23.235 9.925Q23.235 10.735 22.83 11.215Q22.425 11.695 21.71 11.695Q20.995 11.695 20.56 11.385Q20.125 11.075 19.985 10.535L19.115 10.535Q19.275 11.405 19.92 11.935Q20.565 12.465 21.7 12.465Q22.835 12.465 23.465 11.75Q24.095 11.035 24.095 9.905Q24.095 8.985 23.605 8.265Q23.345 7.895 22.87 7.68Q22.395 7.465 21.82 7.465Q21.245 7.465 20.795 7.685Q20.345 7.905 20.125 8.235L20.125 5.945L23.615 5.945L23.615 5.155ZM13.955 12.465L13.955 10.845L10.235 10.845L10.235 10.205L13.675 5.265L14.835 5.265L14.835 10.065L15.805 10.065L15.805 10.845L14.835 10.845L14.835 12.465L13.955 12.465ZM30.665 5.535Q32.345 5.535 33.315 6.475Q34.285 7.415 34.285 9.035Q34.285 10.655 33.315 11.56C32.6683 12.1633 31.785 12.465 30.665 12.465L28.475 12.465L28.475 5.535L30.665 5.535ZM13.985 10.065L13.985 6.105L11.295 10.065L13.985 10.065ZM29.385 11.765L30.665 11.765Q31.975 11.765 32.665 11.045Q33.355 10.325 33.355 9.035Q33.355 7.745 32.665 7.025Q31.975 6.305 30.665 6.305L29.385 6.305L29.385 11.765ZM35.825 11.75Q36.575 12.555 37.695 12.555Q38.395 12.555 38.92 12.22Q39.445 11.885 39.715 11.345L39.715 12.465L40.635 12.465L40.635 6.975L39.715 6.975L39.715 8.075Q39.445 7.545 38.92 7.215Q38.395 6.885 37.695 6.885Q36.565 6.885 35.82 7.66Q35.075 8.435 35.075 9.69Q35.075 10.945 35.825 11.75ZM48.08 7.36Q47.505 7.835 47.505 8.525Q47.505 8.995 47.745 9.305Q47.985 9.615 48.345 9.74Q48.705 9.865 49.13 9.975Q49.555 10.085 49.915 10.165Q50.275 10.245 50.515 10.455Q50.755 10.665 50.755 11.02Q50.755 11.375 50.45 11.605Q50.145 11.835 49.61 11.835Q49.075 11.835 48.77 11.56Q48.465 11.285 48.445 10.825L47.505 10.825Q47.555 11.635 48.11 12.095Q48.665 12.555 49.585 12.555Q50.505 12.555 51.08 12.12Q51.655 11.685 51.655 11.05Q51.655 10.415 51.32 10.07Q50.985 9.725 50.51 9.6Q50.035 9.475 49.56 9.38Q49.085 9.285 48.75 9.075Q48.415 8.865 48.415 8.48Q48.415 8.095 48.71 7.85Q49.005 7.605 49.52 7.605Q50.035 7.605 50.325 7.885Q50.615 8.165 50.635 8.625L51.575 8.625Q51.525 7.815 51.005 7.35Q50.485 6.885 49.57 6.885Q48.655 6.885 48.08 7.36ZM43.675 12.375L41.505 6.975L42.505 6.975L44.185 11.415L45.895 6.975L46.835 6.975L43.525 15.035L42.585 15.035L43.675 12.375ZM39.715 9.725Q39.715 10.655 39.17 11.215Q38.625 11.775 37.865 11.775Q37.105 11.775 36.555 11.195Q36.005 10.615 36.005 9.685Q36.005 8.755 36.55 8.215Q37.095 7.675 37.86 7.675Q38.625 7.675 39.17 8.235Q39.715 8.795 39.715 9.725ZM17.665 12.295Q17.495 12.465 17.255 12.465Q17.015 12.465 16.845 12.295Q16.675 12.125 16.675 11.88Q16.675 11.635 16.845 11.465Q17.015 11.295 17.255 11.295Q17.495 11.295 17.665 11.465Q17.835 11.635 17.835 11.88Q17.835 12.125 17.665 12.295Z" />
      </g>
    </g>
    <g id="Group-40-Copy" transform="translate(248 148)">
      <path d="M54.9231 0L14 0C13.0664 0.00279427 12.1327 0.000627619 11.1992 0.0083828C10.7869 0.0118069 10.3748 0.0209468 9.96274 0.0335369C9.64271 0.0433158 9.32278 0.0573118 9.00312 0.0754852C6.72667 0.204906 4.2281 0.580231 2.49198 2.1988C2.18661 2.48349 1.91208 2.80057 1.67225 3.14224C1.32804 3.63258 1.05621 4.17094 0.845179 4.73096C0.428343 5.83709 0.237505 7.01811 0.134256 8.19106C-0.0045705 9.7682 -0.00226574 11.3577 3.06446e-05 12.9414C0.000542818 13.2946 0.00105457 13.6476 0 14C0.00105486 14.3525 0.000543141 14.7054 3.10037e-05 15.0586C-0.00226517 16.6424 -0.00456976 18.2319 0.134271 19.8091C0.237526 20.982 0.428373 22.163 0.845213 23.2691C1.05626 23.8291 1.32808 24.3675 1.6723 24.8578C1.91214 25.1995 2.18668 25.5166 2.49204 25.8013C4.22821 27.4198 6.72682 27.7951 9.0033 27.9245C9.32298 27.9427 9.64292 27.9567 9.96296 27.9665C10.375 27.9791 10.7872 27.9882 11.1995 27.9916C12.1329 27.9994 13.0665 27.9972 14 28L27.794 28Q27.8277 28.0376 27.8626 28.074L32.3348 32.7406Q32.5447 32.9597 32.7943 33.1323Q33.0438 33.3049 33.3229 33.4239Q33.602 33.543 33.8993 33.6038Q34.1966 33.6646 34.5 33.6646Q34.8034 33.6646 35.1007 33.6038Q35.398 33.543 35.6771 33.4239Q35.9562 33.3049 36.2057 33.1323Q36.4553 32.9597 36.6652 32.7406L41.1374 28.074Q41.1723 28.0376 41.206 28L54.9231 28C55.8567 27.9972 56.7903 27.9994 57.7239 27.9916C58.1362 27.9882 58.5483 27.979 58.9604 27.9665C59.2804 27.9567 59.6003 27.9427 59.92 27.9245C62.1964 27.7951 64.695 27.4198 66.4311 25.8012C66.7365 25.5165 67.011 25.1994 67.2508 24.8578C67.595 24.3674 67.8669 23.8291 68.0779 23.269C68.4947 22.1629 68.6856 20.9819 68.7888 19.8089C68.9277 18.2318 68.9253 16.6423 68.923 15.0586C68.9225 14.7054 68.922 14.3524 68.9231 14C68.922 13.6475 68.9225 13.2946 68.923 12.9414C68.9253 11.3576 68.9277 9.76808 68.7888 8.1909C68.6856 7.01796 68.4947 5.83697 68.0779 4.73086C67.8668 4.17085 67.595 3.63251 67.2508 3.14216C67.0109 2.80051 66.7364 2.48342 66.431 2.19874C64.6949 0.580171 62.1963 0.204885 59.9198 0.0754757C59.6001 0.0573033 59.2802 0.043308 58.9601 0.0335302C58.5481 0.0209412 58.1358 0.011804 57.7236 0.00837994C56.7901 0.000626467 55.8566 0.0027925 54.9231 0Z" id="Combined-Shape" fill="#173E67" fill-rule="evenodd" stroke="none" />
      <g id="3.2-Days" fill="#FFFFFF" transform="translate(3.7659574 5)">
        <path d="M10.885 6.865Q10.965 5.995 11.61 5.5Q12.255 5.005 13.26 5.005Q14.265 5.005 14.85 5.535Q15.435 6.065 15.435 6.885Q15.435 7.475 15.105 7.92Q14.775 8.365 14.255 8.525L14.255 8.575Q14.865 8.745 15.215 9.235Q15.565 9.725 15.565 10.545Q15.565 11.365 14.96 11.935Q14.355 12.505 13.29 12.505Q12.225 12.505 11.545 11.965Q10.865 11.425 10.795 10.435L11.655 10.435Q11.705 11.005 12.13 11.37Q12.555 11.735 13.26 11.735Q13.965 11.735 14.34 11.36Q14.715 10.985 14.715 10.395Q14.715 9.605 14.215 9.275Q13.715 8.945 12.685 8.945L12.445 8.945L12.445 8.185L12.695 8.185Q14.575 8.165 14.575 6.975Q14.575 6.425 14.22 6.105Q13.865 5.785 13.225 5.785Q12.585 5.785 12.215 6.08Q11.845 6.375 11.765 6.865L10.885 6.865ZM18.995 11.715L18.995 12.365L23.785 12.365L23.785 11.595L20.385 11.595Q21.115 10.985 21.755 10.365Q21.985 10.155 22.405 9.705Q23.565 8.445 23.565 7.255Q23.565 6.265 22.95 5.69Q22.335 5.115 21.32 5.115Q20.305 5.115 19.67 5.72Q19.035 6.325 18.995 7.445L19.865 7.445Q19.895 6.745 20.265 6.32Q20.635 5.895 21.33 5.895Q22.025 5.895 22.35 6.275Q22.675 6.655 22.675 7.28Q22.675 7.905 22.245 8.545Q22.015 8.885 21.8 9.145Q21.585 9.405 21.175 9.79Q20.765 10.175 20.515 10.4Q20.265 10.625 19.75 11.065Q19.235 11.505 18.995 11.715ZM30.165 5.535Q31.845 5.535 32.815 6.475Q33.785 7.415 33.785 9.035Q33.785 10.655 32.815 11.56C32.1683 12.1633 31.285 12.465 30.165 12.465L27.975 12.465L27.975 5.535L30.165 5.535ZM28.885 11.765L30.165 11.765Q31.475 11.765 32.165 11.045Q32.855 10.325 32.855 9.035Q32.855 7.745 32.165 7.025Q31.475 6.305 30.165 6.305L28.885 6.305L28.885 11.765ZM35.325 11.75Q36.075 12.555 37.195 12.555Q37.895 12.555 38.42 12.22Q38.945 11.885 39.215 11.345L39.215 12.465L40.135 12.465L40.135 6.975L39.215 6.975L39.215 8.075Q38.945 7.545 38.42 7.215Q37.895 6.885 37.195 6.885Q36.065 6.885 35.32 7.66Q34.575 8.435 34.575 9.69Q34.575 10.945 35.325 11.75ZM47.58 7.36Q47.005 7.835 47.005 8.525Q47.005 8.995 47.245 9.305Q47.485 9.615 47.845 9.74Q48.205 9.865 48.63 9.975Q49.055 10.085 49.415 10.165Q49.775 10.245 50.015 10.455Q50.255 10.665 50.255 11.02Q50.255 11.375 49.95 11.605Q49.645 11.835 49.11 11.835Q48.575 11.835 48.27 11.56Q47.965 11.285 47.945 10.825L47.005 10.825Q47.055 11.635 47.61 12.095Q48.165 12.555 49.085 12.555Q50.005 12.555 50.58 12.12Q51.155 11.685 51.155 11.05Q51.155 10.415 50.82 10.07Q50.485 9.725 50.01 9.6Q49.535 9.475 49.06 9.38Q48.585 9.285 48.25 9.075Q47.915 8.865 47.915 8.48Q47.915 8.095 48.21 7.85Q48.505 7.605 49.02 7.605Q49.535 7.605 49.825 7.885Q50.115 8.165 50.135 8.625L51.075 8.625Q51.025 7.815 50.505 7.35Q49.985 6.885 49.07 6.885Q48.155 6.885 47.58 7.36ZM43.175 12.375L41.005 6.975L42.005 6.975L43.685 11.415L45.395 6.975L46.335 6.975L43.025 15.035L42.085 15.035L43.175 12.375ZM39.215 9.725Q39.215 10.655 38.67 11.215Q38.125 11.775 37.365 11.775Q36.605 11.775 36.055 11.195Q35.505 10.615 35.505 9.685Q35.505 8.755 36.05 8.215Q36.595 7.675 37.36 7.675Q38.125 7.675 38.67 8.235Q39.215 8.795 39.215 9.725ZM17.715 12.295Q17.545 12.465 17.305 12.465Q17.065 12.465 16.895 12.295Q16.725 12.125 16.725 11.88Q16.725 11.635 16.895 11.465Q17.065 11.295 17.305 11.295Q17.545 11.295 17.715 11.465Q17.885 11.635 17.885 11.88Q17.885 12.125 17.715 12.295Z" />
      </g>
    </g>
    <g id="Group-40-Copy-2" transform="translate(402 70)">
      <path d="M54.9231 0L14 0C13.0664 0.00279427 12.1327 0.000627619 11.1992 0.0083828C10.7869 0.0118069 10.3748 0.0209468 9.96274 0.0335369C9.64271 0.0433158 9.32278 0.0573118 9.00312 0.0754852C6.72667 0.204906 4.2281 0.580231 2.49198 2.1988C2.18661 2.48349 1.91208 2.80057 1.67225 3.14224C1.32804 3.63258 1.05621 4.17094 0.845179 4.73096C0.428343 5.83709 0.237505 7.01811 0.134256 8.19106C-0.0045705 9.7682 -0.00226574 11.3577 3.06446e-05 12.9414C0.000542818 13.2946 0.00105457 13.6476 0 14C0.00105486 14.3525 0.000543141 14.7054 3.10037e-05 15.0586C-0.00226517 16.6424 -0.00456976 18.2319 0.134271 19.8091C0.237526 20.982 0.428373 22.163 0.845213 23.2691C1.05626 23.8291 1.32808 24.3675 1.6723 24.8578C1.91214 25.1995 2.18668 25.5166 2.49204 25.8013C4.22821 27.4198 6.72682 27.7951 9.0033 27.9245C9.32298 27.9427 9.64292 27.9567 9.96296 27.9665C10.375 27.9791 10.7872 27.9882 11.1995 27.9916C12.1329 27.9994 13.0665 27.9972 14 28L27.794 28Q27.8277 28.0376 27.8626 28.074L32.3348 32.7406Q32.5447 32.9597 32.7943 33.1323Q33.0438 33.3049 33.3229 33.4239Q33.602 33.543 33.8993 33.6038Q34.1966 33.6646 34.5 33.6646Q34.8034 33.6646 35.1007 33.6038Q35.398 33.543 35.6771 33.4239Q35.9562 33.3049 36.2057 33.1323Q36.4553 32.9597 36.6652 32.7406L41.1374 28.074Q41.1723 28.0376 41.206 28L54.9231 28C55.8567 27.9972 56.7903 27.9994 57.7239 27.9916C58.1362 27.9882 58.5483 27.979 58.9604 27.9665C59.2804 27.9567 59.6003 27.9427 59.92 27.9245C62.1964 27.7951 64.695 27.4198 66.4311 25.8012C66.7365 25.5165 67.011 25.1994 67.2508 24.8578C67.595 24.3674 67.8669 23.8291 68.0779 23.269C68.4947 22.1629 68.6856 20.9819 68.7888 19.8089C68.9277 18.2318 68.9253 16.6423 68.923 15.0586C68.9225 14.7054 68.922 14.3524 68.9231 14C68.922 13.6475 68.9225 13.2946 68.923 12.9414C68.9253 11.3576 68.9277 9.76808 68.7888 8.1909C68.6856 7.01796 68.4947 5.83697 68.0779 4.73086C67.8668 4.17085 67.595 3.63251 67.2508 3.14216C67.0109 2.80051 66.7364 2.48342 66.431 2.19874C64.6949 0.580171 62.1963 0.204885 59.9198 0.0754757C59.6001 0.0573033 59.2802 0.043308 58.9601 0.0335302C58.5481 0.0209412 58.1358 0.011804 57.7236 0.00837994C56.7901 0.000626467 55.8566 0.0027925 54.9231 0Z" id="Combined-Shape" fill="#173E67" fill-rule="evenodd" stroke="none" />
      <g id="6.5-Days" fill="#FFFFFF" transform="translate(3.7659574 5)">
        <path d="M13.085 5.765Q12.185 5.765 11.755 6.425Q11.325 7.085 11.295 8.665Q11.565 8.175 12.095 7.9Q12.625 7.625 13.275 7.625Q14.275 7.625 14.895 8.27Q15.515 8.915 15.515 10.01Q15.515 11.105 14.905 11.785Q14.295 12.465 13.155 12.465Q11.335 12.465 10.825 10.925Q10.535 10.055 10.535 8.475Q10.535 6.895 11.155 5.945Q11.775 4.995 13.085 4.995Q14.045 4.995 14.61 5.51Q15.175 6.025 15.265 6.785L14.445 6.785Q14.315 6.265 13.995 6.015Q13.675 5.765 13.085 5.765ZM23.665 5.155L19.335 5.155L19.335 9.285L20.165 9.285Q20.355 8.805 20.745 8.525Q21.135 8.245 21.675 8.245Q22.475 8.245 22.88 8.68Q23.285 9.115 23.285 9.925Q23.285 10.735 22.88 11.215Q22.475 11.695 21.76 11.695Q21.045 11.695 20.61 11.385Q20.175 11.075 20.035 10.535L19.165 10.535Q19.325 11.405 19.97 11.935Q20.615 12.465 21.75 12.465Q22.885 12.465 23.515 11.75Q24.145 11.035 24.145 9.905Q24.145 8.985 23.655 8.265Q23.395 7.895 22.92 7.68Q22.445 7.465 21.87 7.465Q21.295 7.465 20.845 7.685Q20.395 7.905 20.175 8.235L20.175 5.945L23.665 5.945L23.665 5.155ZM30.715 5.535Q32.395 5.535 33.365 6.475Q34.335 7.415 34.335 9.035Q34.335 10.655 33.365 11.56C32.7183 12.1633 31.835 12.465 30.715 12.465L28.525 12.465L28.525 5.535L30.715 5.535ZM29.435 11.765L30.715 11.765Q32.025 11.765 32.715 11.045Q33.405 10.325 33.405 9.035Q33.405 7.745 32.715 7.025Q32.025 6.305 30.715 6.305L29.435 6.305L29.435 11.765ZM35.875 11.75Q36.625 12.555 37.745 12.555Q38.445 12.555 38.97 12.22Q39.495 11.885 39.765 11.345L39.765 12.465L40.685 12.465L40.685 6.975L39.765 6.975L39.765 8.075Q39.495 7.545 38.97 7.215Q38.445 6.885 37.745 6.885Q36.615 6.885 35.87 7.66Q35.125 8.435 35.125 9.69Q35.125 10.945 35.875 11.75ZM48.13 7.36Q47.555 7.835 47.555 8.525Q47.555 8.995 47.795 9.305Q48.035 9.615 48.395 9.74Q48.755 9.865 49.18 9.975Q49.605 10.085 49.965 10.165Q50.325 10.245 50.565 10.455Q50.805 10.665 50.805 11.02Q50.805 11.375 50.5 11.605Q50.195 11.835 49.66 11.835Q49.125 11.835 48.82 11.56Q48.515 11.285 48.495 10.825L47.555 10.825Q47.605 11.635 48.16 12.095Q48.715 12.555 49.635 12.555Q50.555 12.555 51.13 12.12Q51.705 11.685 51.705 11.05Q51.705 10.415 51.37 10.07Q51.035 9.725 50.56 9.6Q50.085 9.475 49.61 9.38Q49.135 9.285 48.8 9.075Q48.465 8.865 48.465 8.48Q48.465 8.095 48.76 7.85Q49.055 7.605 49.57 7.605Q50.085 7.605 50.375 7.885Q50.665 8.165 50.685 8.625L51.625 8.625Q51.575 7.815 51.055 7.35Q50.535 6.885 49.62 6.885Q48.705 6.885 48.13 7.36ZM43.725 12.375L41.555 6.975L42.555 6.975L44.235 11.415L45.945 6.975L46.885 6.975L43.575 15.035L42.635 15.035L43.725 12.375ZM39.765 9.725Q39.765 10.655 39.22 11.215Q38.675 11.775 37.915 11.775Q37.155 11.775 36.605 11.195Q36.055 10.615 36.055 9.685Q36.055 8.755 36.6 8.215Q37.145 7.675 37.91 7.675Q38.675 7.675 39.22 8.235Q39.765 8.795 39.765 9.725ZM14.655 10.06Q14.655 9.295 14.26 8.85Q13.865 8.405 13.14 8.405Q12.415 8.405 11.92 8.81Q11.425 9.215 11.425 9.995Q11.425 10.775 11.855 11.235Q12.285 11.695 13.055 11.695Q13.825 11.695 14.24 11.26Q14.655 10.825 14.655 10.06ZM17.715 12.295Q17.545 12.465 17.305 12.465Q17.065 12.465 16.895 12.295Q16.725 12.125 16.725 11.88Q16.725 11.635 16.895 11.465Q17.065 11.295 17.305 11.295Q17.545 11.295 17.715 11.465Q17.885 11.635 17.885 11.88Q17.885 12.125 17.715 12.295Z" />
      </g>
    </g>
    <g id="Group-40-Copy-3" transform="translate(555 0)">
      <path d="M54.9231 0L14 0C13.0664 0.00279427 12.1327 0.000627619 11.1992 0.0083828C10.7869 0.0118069 10.3748 0.0209468 9.96274 0.0335369C9.64271 0.0433158 9.32278 0.0573118 9.00312 0.0754852C6.72667 0.204906 4.2281 0.580231 2.49198 2.1988C2.18661 2.48349 1.91208 2.80057 1.67225 3.14224C1.32804 3.63258 1.05621 4.17094 0.845179 4.73096C0.428343 5.83709 0.237505 7.01811 0.134256 8.19106C-0.0045705 9.7682 -0.00226574 11.3577 3.06446e-05 12.9414C0.000542818 13.2946 0.00105457 13.6476 0 14C0.00105486 14.3525 0.000543141 14.7054 3.10037e-05 15.0586C-0.00226517 16.6424 -0.00456976 18.2319 0.134271 19.8091C0.237526 20.982 0.428373 22.163 0.845213 23.2691C1.05626 23.8291 1.32808 24.3675 1.6723 24.8578C1.91214 25.1995 2.18668 25.5166 2.49204 25.8013C4.22821 27.4198 6.72682 27.7951 9.0033 27.9245C9.32298 27.9427 9.64292 27.9567 9.96296 27.9665C10.375 27.9791 10.7872 27.9882 11.1995 27.9916C12.1329 27.9994 13.0665 27.9972 14 28L27.794 28Q27.8277 28.0376 27.8626 28.074L32.3348 32.7406Q32.5447 32.9597 32.7943 33.1323Q33.0438 33.3049 33.3229 33.4239Q33.602 33.543 33.8993 33.6038Q34.1966 33.6646 34.5 33.6646Q34.8034 33.6646 35.1007 33.6038Q35.398 33.543 35.6771 33.4239Q35.9562 33.3049 36.2057 33.1323Q36.4553 32.9597 36.6652 32.7406L41.1374 28.074Q41.1723 28.0376 41.206 28L54.9231 28C55.8567 27.9972 56.7903 27.9994 57.7239 27.9916C58.1362 27.9882 58.5483 27.979 58.9604 27.9665C59.2804 27.9567 59.6003 27.9427 59.92 27.9245C62.1964 27.7951 64.695 27.4198 66.4311 25.8012C66.7365 25.5165 67.011 25.1994 67.2508 24.8578C67.595 24.3674 67.8669 23.8291 68.0779 23.269C68.4947 22.1629 68.6856 20.9819 68.7888 19.8089C68.9277 18.2318 68.9253 16.6423 68.923 15.0586C68.9225 14.7054 68.922 14.3524 68.9231 14C68.922 13.6475 68.9225 13.2946 68.923 12.9414C68.9253 11.3576 68.9277 9.76808 68.7888 8.1909C68.6856 7.01796 68.4947 5.83697 68.0779 4.73086C67.8668 4.17085 67.595 3.63251 67.2508 3.14216C67.0109 2.80051 66.7364 2.48342 66.431 2.19874C64.6949 0.580171 62.1963 0.204885 59.9198 0.0754757C59.6001 0.0573033 59.2802 0.043308 58.9601 0.0335302C58.5481 0.0209412 58.1358 0.011804 57.7236 0.00837994C56.7901 0.000626467 55.8566 0.0027925 54.9231 0Z" id="Combined-Shape" fill="#173E67" fill-rule="evenodd" stroke="none" />
      <g id="11-Days" fill="#FFFFFF" transform="translate(3.7659574 5)">
        <path d="M15.385 6.175L15.385 12.465L16.275 12.465L16.275 5.365L14.565 5.365L14.565 6.175L15.385 6.175ZM18.595 6.175L18.595 12.465L19.485 12.465L19.485 5.365L17.775 5.365L17.775 6.175L18.595 6.175ZM26.405 5.535Q28.085 5.535 29.055 6.475Q30.025 7.415 30.025 9.035Q30.025 10.655 29.055 11.56C28.4083 12.1633 27.525 12.465 26.405 12.465L24.215 12.465L24.215 5.535L26.405 5.535ZM25.125 11.765L26.405 11.765Q27.715 11.765 28.405 11.045Q29.095 10.325 29.095 9.035Q29.095 7.745 28.405 7.025Q27.715 6.305 26.405 6.305L25.125 6.305L25.125 11.765ZM31.565 11.75Q32.315 12.555 33.435 12.555Q34.135 12.555 34.66 12.22Q35.185 11.885 35.455 11.345L35.455 12.465L36.375 12.465L36.375 6.975L35.455 6.975L35.455 8.075Q35.185 7.545 34.66 7.215Q34.135 6.885 33.435 6.885Q32.305 6.885 31.56 7.66Q30.815 8.435 30.815 9.69Q30.815 10.945 31.565 11.75ZM43.82 7.36Q43.245 7.835 43.245 8.525Q43.245 8.995 43.485 9.305Q43.725 9.615 44.085 9.74Q44.445 9.865 44.87 9.975Q45.295 10.085 45.655 10.165Q46.015 10.245 46.255 10.455Q46.495 10.665 46.495 11.02Q46.495 11.375 46.19 11.605Q45.885 11.835 45.35 11.835Q44.815 11.835 44.51 11.56Q44.205 11.285 44.185 10.825L43.245 10.825Q43.295 11.635 43.85 12.095Q44.405 12.555 45.325 12.555Q46.245 12.555 46.82 12.12Q47.395 11.685 47.395 11.05Q47.395 10.415 47.06 10.07Q46.725 9.725 46.25 9.6Q45.775 9.475 45.3 9.38Q44.825 9.285 44.49 9.075Q44.155 8.865 44.155 8.48Q44.155 8.095 44.45 7.85Q44.745 7.605 45.26 7.605Q45.775 7.605 46.065 7.885Q46.355 8.165 46.375 8.625L47.315 8.625Q47.265 7.815 46.745 7.35Q46.225 6.885 45.31 6.885Q44.395 6.885 43.82 7.36ZM39.415 12.375L37.245 6.975L38.245 6.975L39.925 11.415L41.635 6.975L42.575 6.975L39.265 15.035L38.325 15.035L39.415 12.375ZM35.455 9.725Q35.455 10.655 34.91 11.215Q34.365 11.775 33.605 11.775Q32.845 11.775 32.295 11.195Q31.745 10.615 31.745 9.685Q31.745 8.755 32.29 8.215Q32.835 7.675 33.6 7.675Q34.365 7.675 34.91 8.235Q35.455 8.795 35.455 9.725Z" />
      </g>
    </g>
  </g>
</svg>