<?xml version="1.0" encoding="UTF-8"?>
<svg width="37px" height="44px" viewBox="0 0 37 44" version="1.1" xmlns="http://www.w3.org/2000/svg" xmlns:xlink="http://www.w3.org/1999/xlink">
    <title>Rekoad@3x</title>
    <g id="Chat" stroke="none" stroke-width="1" fill="none" fill-rule="evenodd">
        <g id="Chat-/Scan-chat/-Relaod" transform="translate(-1245.000000, -497.000000)" fill="#FFFFFF" fill-rule="nonzero">
            <g id="Group-5" transform="translate(1196.000000, 497.000000)">
                <path d="M67.077663,7.50475583 L67.077663,1.1435072 C67.077663,0.11749936 65.8464535,-0.384104474 65.1396481,0.345501103 L56.4755819,8.98676716 C56.0195784,9.44277064 56.0195784,10.149576 56.4755819,10.6055795 L65.116848,19.2468456 C65.8464535,19.953651 67.077663,19.4520472 67.077663,18.4260393 L67.077663,12.0647907 C75.582128,12.0647907 82.3081794,19.8624503 80.4385651,28.6861177 C79.3669569,33.8617573 75.1717248,38.0341892 70.0188854,39.1057974 C61.8792232,40.8158105 54.6287678,35.2297678 53.5343594,27.6829101 C53.3747582,26.5885017 52.4171509,25.7448953 51.2999423,25.7448953 C49.9319319,25.7448953 48.8375235,26.9533045 49.0199249,28.3213149 C50.4335357,38.3305915 59.9640086,45.7406481 70.748491,43.6430321 C77.8621454,42.2522214 83.5849891,36.5293777 84.9757998,29.4157233 C87.233017,17.7192339 78.340949,7.50475583 67.077663,7.50475583 Z" id="Rekoad" transform="translate(67.164117, 22.000000) scale(-1, 1) translate(-67.164117, -22.000000) "></path>
            </g>
        </g>
    </g>
</svg>