<?xml version="1.0" encoding="UTF-8"?>
<svg width="51px" height="50px" viewBox="0 0 51 50" version="1.1" xmlns="http://www.w3.org/2000/svg" xmlns:xlink="http://www.w3.org/1999/xlink">
    <title>Reminders@3x</title>
    <g id="Cases" stroke="none" stroke-width="1" fill="none" fill-rule="evenodd">
        <g id="Client-Cases/Dashboard" transform="translate(-723.000000, -228.000000)">
            <g id="Group-2" transform="translate(137.000000, 140.000000)">
                <g id="Group-42" transform="translate(40.000000, 62.000000)">
                    <g id="Group-22-Copy-3" transform="translate(466.000000, 0.000000)">
                        <g id="Group-21" transform="translate(26.000000, 26.000000)">
                            <g id="Reminders" transform="translate(54.500000, 0.000000)">
                                <path d="M11.5374834,-4.66128138e-16 L38.4625166,4.66128138e-16 C42.4743509,-2.70833872e-16 43.929139,0.41771525 45.3958057,1.20209717 C46.8624723,1.98647908 48.0135209,3.13752767 48.7979028,4.60419433 C49.5822847,6.070861 50,7.52564907 50,11.5374834 L50,38.4625166 C50,42.4743509 49.5822847,43.929139 48.7979028,45.3958057 C48.0135209,46.8624723 46.8624723,48.0135209 45.3958057,48.7979028 C43.929139,49.5822847 42.4743509,50 38.4625166,50 L11.5374834,50 C7.52564907,50 6.070861,49.5822847 4.60419433,48.7979028 C3.13752767,48.0135209 1.98647908,46.8624723 1.20209717,45.3958057 C0.41771525,43.929139 1.80555915e-16,42.4743509 -3.10752092e-16,38.4625166 L3.10752092e-16,11.5374834 C-1.80555915e-16,7.52564907 0.41771525,6.070861 1.20209717,4.60419433 C1.98647908,3.13752767 3.13752767,1.98647908 4.60419433,1.20209717 C6.070861,0.41771525 7.52564907,2.70833872e-16 11.5374834,-4.66128138e-16 Z" id="Rectangle" fill-opacity="0.1" fill="#3D6083"></path>
                                <g id="access_alarm_black_24dp" transform="translate(6.000000, 6.000000)">
                                    <polygon id="Path" points="0 0 38 0 38 38 0 38"></polygon>
                                    <path d="M34.8333333,9.05666667 L27.55,2.945 L25.5075,5.3675 L32.7908333,11.4791667 L34.8333333,9.05666667 Z M12.4766667,5.3675 L10.45,2.945 L3.16666667,9.04083333 L5.20916667,11.4633333 L12.4766667,5.3675 Z M19.7916667,12.6666667 L17.4166667,12.6666667 L17.4166667,22.1666667 L24.9375,26.6791667 L26.125,24.7316667 L19.7916667,20.9791667 L19.7916667,12.6666667 Z M19,6.33333333 C11.1308333,6.33333333 4.75,12.7141667 4.75,20.5833333 C4.75,28.4525 11.115,34.8333333 19,34.8333333 C26.8691667,34.8333333 33.25,28.4525 33.25,20.5833333 C33.25,12.7141667 26.8691667,6.33333333 19,6.33333333 Z M19,31.6666667 C12.8725,31.6666667 7.91666667,26.7108333 7.91666667,20.5833333 C7.91666667,14.4558333 12.8725,9.5 19,9.5 C25.1275,9.5 30.0833333,14.4558333 30.0833333,20.5833333 C30.0833333,26.7108333 25.1275,31.6666667 19,31.6666667 Z" id="Shape" fill="#3D6083" fill-rule="nonzero"></path>
                                </g>
                            </g>
                        </g>
                    </g>
                </g>
            </g>
        </g>
    </g>
</svg>