<?xml version="1.0" encoding="UTF-8"?>
<svg width="15px" height="15px" viewBox="0 0 15 15" version="1.1" xmlns="http://www.w3.org/2000/svg" xmlns:xlink="http://www.w3.org/1999/xlink">
    <title>Remove@3x</title>
    <g id="Scheduling-Rulesets-&amp;-Layouts" stroke="none" stroke-width="1" fill="none" fill-rule="evenodd">
        <g id="Shift-Rulesets/Selection/add-staff-/Add-staff" transform="translate(-638.000000, -311.000000)">
            <g id="Group-17-Copy" transform="translate(558.000000, 273.000000)">
                <g id="Remove" transform="translate(80.500000, 38.500000)">
                    <circle id="Oval" fill="#FFFFFF" cx="7" cy="7" r="7"></circle>
                    <path d="M7,1.3125 C3.8605,1.3125 1.3125,3.8605 1.3125,7 C1.3125,10.1395 3.8605,12.6875 7,12.6875 C10.1395,12.6875 12.6875,10.1395 12.6875,7 C12.6875,3.8605 10.1395,1.3125 7,1.3125 Z M9.275,7.7109375 L4.725,7.7109375 C4.4121875,7.7109375 4.15625,7.39101563 4.15625,7 C4.15625,6.60898437 4.4121875,6.2890625 4.725,6.2890625 L9.275,6.2890625 C9.5878125,6.2890625 9.84375,6.60898437 9.84375,7 C9.84375,7.39101563 9.5878125,7.7109375 9.275,7.7109375 Z" fill="#F93D3D" fill-rule="nonzero"></path>
                </g>
            </g>
        </g>
    </g>
</svg>