<?xml version="1.0" encoding="UTF-8"?>
<svg width="21px" height="20px" viewBox="0 0 21 20" version="1.1" xmlns="http://www.w3.org/2000/svg" xmlns:xlink="http://www.w3.org/1999/xlink">
    <title>Roles@3x</title>
    <g id="Scheduling-Rulesets-&amp;-Layouts" stroke="none" stroke-width="1" fill="none" fill-rule="evenodd">
        <g id="Scheduling-Layout-" transform="translate(-154.000000, -481.000000)">
            <g id="Group-7" transform="translate(127.000000, 276.000000)">
                <g id="iconspace_Colleague-Hat_25px" transform="translate(25.000000, 203.000000)">
                    <polygon id="Path" points="0 0 24 0 24 24 0 24"></polygon>
                    <g transform="translate(2.000000, 2.000000)" fill="#5C63AB" id="Combined-Shape">
                        <path d="M10.4011039,0.176179813 L18.737946,4.84284648 C19.5974289,5.32395433 19.6816994,6.49445193 18.9907575,7.11074623 L18.9908574,14.9182306 C19.8940874,15.8850132 20.3789474,16.7068445 20.3789474,17.4429448 C20.3789474,18.7316092 19.3421331,19.7762781 18.0631579,19.7762781 C16.7841827,19.7762781 15.7473684,18.7316092 15.7473684,17.4429448 C15.7473684,16.7070991 16.2318931,15.8855817 17.1345212,14.9192338 L17.136,8.187 L16.673,8.446 L16.6733684,13.637037 C16.6733684,13.9777159 16.5500795,14.3067049 16.3266021,14.5623617 C14.9959223,16.0846513 12.7831869,16.8 9.72600002,16.8 C6.66881317,16.8 4.45607776,16.0846513 3.12539793,14.5623617 C2.90192058,14.3067049 2.7786316,13.9777159 2.7786316,13.6369839 L2.779,8.446 L0.714685611,7.29048685 C-0.238228537,6.75707952 -0.238228537,5.37625381 0.714685611,4.84284648 L9.05152772,0.176179813 C9.47118008,-0.0587266045 9.98145149,-0.0587266045 10.4011039,0.176179813 Z M18.0631579,16.6844413 C17.9585772,16.8163127 17.8696473,16.9396392 17.7967756,17.0534824 C17.6555179,17.2741612 17.6,17.4189566 17.6,17.4429448 C17.6,17.7006777 17.8073629,17.9096114 18.0631579,17.9096114 C18.3189529,17.9096114 18.5263158,17.7006777 18.5263158,17.4429448 C18.5263158,17.4189566 18.4707979,17.2741612 18.3295401,17.0534824 C18.2566685,16.9396392 18.1677385,16.8163127 18.0631579,16.6844413 Z M14.820963,9.63767457 L10.8509626,11.8599391 C10.5052376,12.0534636 10.1180624,12.1536618 9.72578972,12.1535721 C9.33387198,12.1534824 8.94708115,12.0532885 8.601669,11.8599391 L4.63148928,9.63757418 L4.63127353,13.453879 C5.5739677,14.4224641 7.25444341,14.9333333 9.72600002,14.9333333 C12.1975747,14.9333333 13.8780569,14.4224566 14.8207472,13.4538577 L14.820963,9.63767457 Z M9.72631579,1.93384749 L2.34317416,6.06666667 L9.72631579,10.1994858 L17.1094574,6.06666667 L9.72631579,1.93384749 Z"></path>
                    </g>
                </g>
            </g>
        </g>
    </g>
</svg>