<?xml version="1.0" encoding="UTF-8"?>
<svg width="20px" height="20px" viewBox="0 0 20 20" version="1.1" xmlns="http://www.w3.org/2000/svg" xmlns:xlink="http://www.w3.org/1999/xlink">
    <title>Schedule publish@3x</title>
    <g id="Scheduling-Rulesets-&amp;-Layouts" stroke="none" stroke-width="1" fill="none" fill-rule="evenodd">
        <g id="Scheduling-Layout-" transform="translate(-154.000000, -615.000000)" fill="#5C63AB">
            <g id="Group-7" transform="translate(127.000000, 276.000000)">
                <g id="Schedule-publish" transform="translate(25.000000, 337.000000)">
                    <g id="ic_Meeting" transform="translate(-0.000000, 0.000000)">
                        <g id="Combined-Shape" transform="translate(1.989900, 1.989900)">
                            <path d="M9.9495001,0 C11.788954,0 13.295298,1.42621265 13.4230479,3.23315352 L13.1866248,3.12904396 C14.2203065,3.55767268 15.1505625,4.1854022 15.9295552,4.96439497 C17.4599848,6.49482454 18.4065752,8.60909331 18.4065752,10.9444501 C18.4065752,11.1497356 18.3992609,11.3533127 18.3848787,11.554935 C19.2988966,12.1805554 19.8990002,13.2335844 19.8990002,14.4267751 C19.8990002,16.3500101 18.3399102,17.9091002 16.4166752,17.9091002 C15.9510296,17.9091002 15.5067303,17.8177062 15.1007368,17.651878 C13.6753014,18.7489018 11.8886149,19.4015252 9.9495001,19.4015252 C8.01038526,19.4015252 6.2236988,18.7489018 4.79710397,17.6513182 C4.39226988,17.8177062 3.94797056,17.9091002 3.48232503,17.9091002 C1.55909002,17.9091002 0,16.3500101 0,14.4267751 C0,13.2335844 0.600103555,12.1805554 1.51495898,11.5530398 C1.4997393,11.3533127 1.49242501,11.1497356 1.49242501,10.9444501 C1.49242501,8.60909331 2.43901539,6.49482454 3.96944496,4.96439497 C4.68878855,4.24505137 5.53711717,3.65469281 6.47676236,3.23098775 C6.60370216,1.42621265 8.11004622,0 9.9495001,0 Z M12.9658792,5.22188561 L12.9563857,5.23992116 C12.3519712,6.27172117 11.2316568,6.96465007 9.9495001,6.96465007 C8.66040181,6.96465007 7.53490292,6.26419781 6.93284301,5.22313288 C6.36104623,5.52424737 5.83604429,5.91193923 5.37651675,6.37146676 C4.241181,7.50680252 3.56504791,9.01424896 3.48943134,10.6385805 L3.48232503,10.9444501 L3.48232503,10.9444501 C5.40556004,10.9444501 6.96465007,12.5035401 6.96465007,14.4267751 C6.96465007,15.1350141 6.75322033,15.7938709 6.39003556,16.343671 C7.42951452,17.0328661 8.65813817,17.4116252 9.9495001,17.4116252 C11.240862,17.4116252 12.4694857,17.0328661 13.5102962,16.3445996 C13.1457799,15.7938709 12.9343501,15.1350141 12.9343501,14.4267751 C12.9343501,12.5035401 14.4934401,10.9444501 16.4166752,10.9444501 C16.4166752,9.20413332 15.7287777,7.577761 14.5224834,6.37146676 C14.0629559,5.91193923 13.537954,5.52424737 12.9658792,5.22188561 Z M16.4166752,12.9343501 C15.5924316,12.9343501 14.9242501,13.6025316 14.9242501,14.4267751 C14.9242501,15.2510187 15.5924316,15.9192002 16.4166752,15.9192002 C17.2409187,15.9192002 17.9091002,15.2510187 17.9091002,14.4267751 C17.9091002,13.6025316 17.2409187,12.9343501 16.4166752,12.9343501 Z M3.48232503,12.9343501 C2.65808146,12.9343501 1.98990002,13.6025316 1.98990002,14.4267751 C1.98990002,15.2510187 2.65808146,15.9192002 3.48232503,15.9192002 C4.30656861,15.9192002 4.97475005,15.2510187 4.97475005,14.4267751 C4.97475005,13.6025316 4.30656861,12.9343501 3.48232503,12.9343501 Z M9.9495001,1.98990002 C9.12525652,1.98990002 8.45707508,2.65808146 8.45707508,3.48232503 C8.45707508,4.30656861 9.12525652,4.97475005 9.9495001,4.97475005 C10.7737437,4.97475005 11.4419251,4.30656861 11.4419251,3.48232503 C11.4419251,2.65808146 10.7737437,1.98990002 9.9495001,1.98990002 Z"></path>
                        </g>
                    </g>
                </g>
            </g>
        </g>
    </g>
</svg>