<?xml version="1.0" encoding="UTF-8"?>
<svg width="16px" height="18px" viewBox="0 0 16 18" version="1.1" xmlns="http://www.w3.org/2000/svg" xmlns:xlink="http://www.w3.org/1999/xlink">
    <title>Select date calendar@3x</title>
    <defs>
        <path d="M5,7.5 L3.33333333,7.5 L3.33333333,9.16666667 L5,9.16666667 L5,7.5 L5,7.5 Z M8.33333333,7.5 L6.66666667,7.5 L6.66666667,9.16666667 L8.33333333,9.16666667 L8.33333333,7.5 L8.33333333,7.5 Z M11.6666667,7.5 L10,7.5 L10,9.16666667 L11.6666667,9.16666667 L11.6666667,7.5 L11.6666667,7.5 Z M13.3333333,1.66666667 L12.5,1.66666667 L12.5,4.4408921e-16 L10.8333333,4.4408921e-16 L10.8333333,1.66666667 L4.16666667,1.66666667 L4.16666667,4.4408921e-16 L2.5,4.4408921e-16 L2.5,1.66666667 L1.66666667,1.66666667 C0.741666667,1.66666667 0.00833333333,2.41666667 0.00833333333,3.33333333 L0,15 C0,15.9166667 0.741666667,16.6666667 1.66666667,16.6666667 L13.3333333,16.6666667 C14.25,16.6666667 15,15.9166667 15,15 L15,3.33333333 C15,2.41666667 14.25,1.66666667 13.3333333,1.66666667 L13.3333333,1.66666667 Z M13.3333333,15 L1.66666667,15 L1.66666667,5.83333333 L13.3333333,5.83333333 L13.3333333,15 L13.3333333,15 Z" id="path-1"></path>
        <rect id="path-3" x="0" y="0" width="41.6666667" height="41.6666667"></rect>
    </defs>
    <g id="Practice-Management" stroke="none" stroke-width="1" fill="none" fill-rule="evenodd">
        <g id="Practice-Calender-Schedule-Week" transform="translate(-149.000000, -145.000000)">
            <g id="Group-34" transform="translate(138.000000, 134.000000)">
                <g id="Group-33" transform="translate(9.000000, 10.000000)">
                    <g id="Select-date-calendar" transform="translate(2.500000, 1.666667)">
                        <mask id="mask-2" fill="white">
                            <use xlink:href="#path-1"></use>
                        </mask>
                        <g id="Mask"></g>
                        <g id="🎨-Color" mask="url(#mask-2)">
                            <g transform="translate(-13.333333, -12.500000)">
                                <mask id="mask-4" fill="white">
                                    <use xlink:href="#path-3"></use>
                                </mask>
                                <use id="Color" stroke="none" fill="#5C63AB" fill-rule="evenodd" xlink:href="#path-3"></use>
                            </g>
                        </g>
                    </g>
                </g>
            </g>
        </g>
    </g>
</svg>