<?xml version="1.0" encoding="UTF-8"?>
<svg width="46px" height="46px" viewBox="0 0 46 46" version="1.1" xmlns="http://www.w3.org/2000/svg" xmlns:xlink="http://www.w3.org/1999/xlink">
    <title>Set availability@3x</title>
    <defs>
        <rect id="path-1" x="0" y="0" width="40" height="40" rx="10"></rect>
        <filter x="-13.8%" y="-8.8%" width="127.5%" height="127.5%" filterUnits="objectBoundingBox" id="filter-2">
            <feOffset dx="0" dy="2" in="SourceAlpha" result="shadowOffsetOuter1"></feOffset>
            <feGaussianBlur stdDeviation="1.5" in="shadowOffsetOuter1" result="shadowBlurOuter1"></feGaussianBlur>
            <feComposite in="shadowBlurOuter1" in2="SourceAlpha" operator="out" result="shadowBlurOuter1"></feComposite>
            <feColorMatrix values="0 0 0 0 0.0784313725   0 0 0 0 0.196078431   0 0 0 0 0.31372549  0 0 0 0.05 0" type="matrix" in="shadowBlurOuter1"></feColorMatrix>
        </filter>
    </defs>
    <g id="Practice-Management" stroke="none" stroke-width="1" fill="none" fill-rule="evenodd">
        <g id="Practice-Calender-Schedule-Week" transform="translate(-1441.000000, -133.000000)">
            <g id="Set-availability" transform="translate(1444.000000, 134.000000)">
                <g id="Rectangle">
                    <use fill="black" fill-opacity="1" filter="url(#filter-2)" xlink:href="#path-1"></use>
                    <rect stroke-opacity="0.2" stroke="#173E67" stroke-width="1" stroke-linejoin="square" fill="#FFFFFF" fill-rule="evenodd" x="0.5" y="0.5" width="39" height="39" rx="10"></rect>
                </g>
                <g id="ic_cettings" transform="translate(8.000000, 8.000000)" fill="#5C63AB">
                    <rect id="Icon-Spacing" opacity="0" x="0" y="0" width="24" height="24" rx="5"></rect>
                    <g id="Group-83" transform="translate(2.000000, 2.000000)" fill-rule="nonzero">
                        <path d="M16.7368579,1.93346683 L14.6526176,1.93346683 L14.6527645,0.880804965 C14.6527645,0.408198495 14.2738937,0 13.7895722,0 C13.3054011,0 12.9473949,0.408198495 12.9473949,0.880804965 L12.9473949,1.93346683 L7.05268025,1.93346683 L7.05268025,0.880804965 C7.05268025,0.408198495 6.6738095,0 6.18948801,0 C5.7053169,0 5.32629577,0.3866013 5.32629577,0.880804965 L5.32629577,1.93346683 L3.26318322,1.93346683 C1.45266371,1.93346683 0,3.43717633 0,5.2632326 L0,16.6702342 C0,18.5176959 1.47364108,20 3.26318322,20 L16.7368168,20 C18.5473363,20 20,18.4961407 20,16.6700844 L20,5.26308276 C20,3.43717994 18.5263589,1.93347044 16.7368168,1.93347044 L16.7368579,1.93346683 Z M3.26322431,3.67347957 L5.3474646,3.67347957 L5.3474646,4.72614143 C5.3474646,5.1987479 5.72633535,5.60694639 6.21065684,5.60694639 C6.69482795,5.60694639 7.07384908,5.22034509 7.07384908,4.72614143 L7.07384908,3.67347957 L12.9685638,3.67347957 L12.9685638,4.72614143 C12.9685638,5.1987479 13.3474345,5.60694639 13.831756,5.60694639 C14.3159271,5.60694639 14.6949483,5.22034509 14.6949483,4.72614143 L14.6949483,3.67347957 L16.7367451,3.67347957 C17.5999373,3.67347957 18.2946716,4.38238927 18.2946716,5.26319424 L18.2946716,7.30395654 L1.70526024,7.30395654 L1.70526024,5.26319424 C1.70526024,4.38238927 2.39999447,3.67347957 3.26318672,3.67347957 L3.26322431,3.67347957 Z M16.7368579,18.2598338 L3.26322431,18.2598338 C2.40003207,18.2598338 1.70529784,17.5509241 1.70529784,16.6701191 L1.70529784,9.06545139 L18.2947092,9.06545139 L18.2947092,16.6701191 C18.2947092,17.5507707 17.5999749,18.2597187 16.7367827,18.2597187 L16.7368579,18.2598338 Z" id="Shape"></path>
                        <path d="M12.3308655,11.2870927 L9.70859967,13.8576665 L8.64556111,12.8294599 C8.29126836,12.4866772 7.67693424,12.465309 7.29890779,12.7865743 C6.92088556,13.1078396 6.89732061,13.664905 7.25161336,14.0076915 L8.99983277,15.7214711 C9.18884599,15.8928644 9.42498069,16 9.70859545,16 C9.99203302,16 10.2283238,15.8928606 10.4173581,15.7214711 L13.7483866,12.4653243 C14.1026794,12.1225416 14.0791144,11.5656101 13.7010922,11.2442071 C13.299505,10.9014244 12.6851751,10.9229418 12.3308992,11.2870927 L12.3308655,11.2870927 Z" id="Path"></path>
                    </g>
                </g>
            </g>
        </g>
    </g>
</svg>