<?xml version="1.0" encoding="UTF-8"?>
<svg width="24px" height="20px" viewBox="0 0 24 20" version="1.1" xmlns="http://www.w3.org/2000/svg" xmlns:xlink="http://www.w3.org/1999/xlink">
    <title>Shift type@3x</title>
    <g id="Scheduling-Rulesets-&amp;-Layouts" stroke="none" stroke-width="1" fill="none" fill-rule="evenodd">
        <g id="Scheduling-Layout-" transform="translate(-152.000000, -792.000000)" fill="#9973FF">
            <g id="Group-7" transform="translate(127.000000, 276.000000)">
                <g id="ic_SwingShift" transform="translate(25.000000, 514.000000)">
                    <rect id="Icon-Spacing" opacity="0" x="0" y="0" width="23.8788002" height="23.8788002" rx="4.97475005"></rect>
                    <path d="M15.9192002,19.8990002 C16.4686959,19.8990002 16.9141502,20.3444545 16.9141502,20.8939502 C16.9141502,21.4434459 16.4686959,21.8889002 15.9192002,21.8889002 L7.95960008,21.8889002 C7.41010436,21.8889002 6.96465007,21.4434459 6.96465007,20.8939502 C6.96465007,20.3444545 7.41010436,19.8990002 7.95960008,19.8990002 L15.9192002,19.8990002 Z M18.9040502,16.9141502 C19.4535459,16.9141502 19.8990002,17.3596045 19.8990002,17.9091002 C19.8990002,18.4585959 19.4535459,18.9040502 18.9040502,18.9040502 L4.97475005,18.9040502 C4.42525433,18.9040502 3.97980004,18.4585959 3.97980004,17.9091002 C3.97980004,17.3596045 4.42525433,16.9141502 4.97475005,16.9141502 L18.9040502,16.9141502 Z M11.9394001,9.9495001 C9.80802279,9.9495001 8.06797115,11.6249645 7.96447066,13.730668 L7.95960008,13.9293001 L5.96970006,13.9293001 C5.96970006,10.6323258 8.64242581,7.95960008 11.9394001,7.95960008 C15.1614432,7.95960008 17.7872902,10.5122188 17.9049826,13.7054978 L17.9091002,13.9293001 L21.3914252,13.9293001 C21.9409209,13.9293001 22.3863752,14.3747544 22.3863752,14.9242501 C22.3863752,15.4737459 21.9409209,15.9192002 21.3914252,15.9192002 L2.48737502,15.9192002 C1.93787931,15.9192002 1.49242501,15.4737459 1.49242501,14.9242501 C1.49242501,14.3747544 1.93787931,13.9293001 2.48737502,13.9293001 L15.9192002,13.9293001 C15.9192002,11.7313173 14.137383,9.9495001 11.9394001,9.9495001 Z M3.97980004,10.9444501 C4.52929576,10.9444501 4.97475005,11.3899044 4.97475005,11.9394001 C4.97475005,12.4888958 4.52929576,12.9343501 3.97980004,12.9343501 L0.99495001,12.9343501 C0.445454292,12.9343501 9.76996262e-15,12.4888958 9.76996262e-15,11.9394001 C9.76996262e-15,11.3899044 0.445454292,10.9444501 0.99495001,10.9444501 L3.97980004,10.9444501 Z M22.8838502,10.9444501 C23.4333459,10.9444501 23.8788002,11.3899044 23.8788002,11.9394001 C23.8788002,12.4888958 23.4333459,12.9343501 22.8838502,12.9343501 L19.8990002,12.9343501 C19.3495045,12.9343501 18.9040502,12.4888958 18.9040502,11.9394001 C18.9040502,11.3899044 19.3495045,10.9444501 19.8990002,10.9444501 L22.8838502,10.9444501 Z M19.6679399,5.20581032 C20.0564921,5.59436247 20.0564921,6.22432997 19.6679399,6.61288212 L17.5573322,8.72348981 C17.1687801,9.11204196 16.5388126,9.11204196 16.1502604,8.72348981 C15.7617083,8.33493767 15.7617083,7.70497016 16.1502604,7.31641802 L18.2608681,5.20581032 C18.6494203,4.81725817 19.2793878,4.81725817 19.6679399,5.20581032 Z M5.52420052,5.12304182 L5.61793211,5.20581032 L7.7285398,7.31641802 C8.11709195,7.70497016 8.11709195,8.33493767 7.7285398,8.72348981 C7.36987628,9.08215333 6.80550974,9.10974284 6.4151996,8.80625832 L6.32146801,8.72348981 L4.21086031,6.61288212 C3.82230816,6.22432997 3.82230816,5.59436247 4.21086031,5.20581032 C4.56952383,4.8471468 5.13389038,4.8195573 5.52420052,5.12304182 Z M11.9394001,1.98990002 C12.4888958,1.98990002 12.9343501,2.43535431 12.9343501,2.98485003 L12.9343501,5.96970006 C12.9343501,6.51919577 12.4888958,6.96465007 11.9394001,6.96465007 C11.3899044,6.96465007 10.9444501,6.51919577 10.9444501,5.96970006 L10.9444501,2.98485003 C10.9444501,2.43535431 11.3899044,1.98990002 11.9394001,1.98990002 Z" id="Combined-Shape"></path>
                </g>
            </g>
        </g>
    </g>
</svg>