<?xml version="1.0" encoding="UTF-8"?>
<svg width="60px" height="60px" viewBox="0 0 60 60" version="1.1" xmlns="http://www.w3.org/2000/svg" xmlns:xlink="http://www.w3.org/1999/xlink">
    <title>Specialties</title>
    <g id="Accounts-(Float-Care)" stroke="none" stroke-width="1" fill="none" fill-rule="evenodd">
        <g id="Reporting-manager/View-profile" transform="translate(-878.000000, -434.000000)">
            <g id="Specialties" transform="translate(878.000000, 434.000000)">
                <rect id="Rectangle" fill="#5C63AB" x="0" y="0" width="60" height="60" rx="30"></rect>
                <g id="vaccines_black_24dp" transform="translate(18.000000, 17.000000)" fill="#FFFFFF" fill-rule="nonzero">
                    <path d="M6.5,26 C7.215,26 7.8,25.4292683 7.8,24.7317073 L7.8,19.0243902 L9.1,19.0243902 C10.53,19.0243902 11.7,17.8829268 11.7,16.4878049 L11.7,6.97560976 C12.415,6.97560976 13,6.40487805 13,5.70731707 C13,5.0097561 12.415,4.43902439 11.7,4.43902439 L7.8,4.43902439 L7.8,2.53658537 L8.45,2.53658537 C9.165,2.53658537 9.75,1.96585366 9.75,1.26829268 C9.75,0.570731707 9.165,0 8.45,0 L4.55,0 C3.835,0 3.25,0.570731707 3.25,1.26829268 C3.25,1.96585366 3.835,2.53658537 4.55,2.53658537 L5.2,2.53658537 L5.2,4.43902439 L1.3,4.43902439 C0.585,4.43902439 0,5.0097561 0,5.70731707 C0,6.40487805 0.585,6.97560976 1.3,6.97560976 L1.3,16.4878049 C1.3,17.8829268 2.47,19.0243902 3.9,19.0243902 L5.2,19.0243902 L5.2,24.7317073 C5.2,25.4292683 5.785,26 6.5,26 Z M9,9 L6.8125,9 C6.3,9 5.875,9.45333333 5.875,10 C5.875,10.5466667 6.3,11 6.8125,11 L9,11 L9,13 L6.8125,13 C6.3,13 5.875,13.4533333 5.875,14 C5.875,14.5466667 6.3,15 6.8125,15 L9,15 L9,17 L4,17 L4,7 L9,7 L9,9 Z M22.125,11.2142857 L22.125,10.5714286 C22.8125,10.5714286 23.375,9.99285714 23.375,9.28571429 C23.375,8.57857143 22.8125,8 22.125,8 L15.875,8 C15.1875,8 14.625,8.57857143 14.625,9.28571429 C14.625,9.99285714 15.1875,10.5714286 15.875,10.5714286 L15.875,11.2142857 C15.875,11.8571429 14,12.7057143 14,15.0714286 L14,23.4285714 C14,24.8428571 15.125,26 16.5,26 L21.5,26 C22.875,26 24,24.8428571 24,23.4285714 L24,15.0714286 C24,12.7057143 22.125,11.8571429 22.125,11.2142857 Z M18.875,10.625 L18.875,10 L20.125,10 L20.125,10.625 C20.125,12.625 22,13.125 22,14.375 L22,15 L17,15 C17,14.7375 17,14.5125 17,14.375 C17,13.125 18.875,12.625 18.875,10.625 Z M17,23 C17,23 17,22.16 17,21 L22,21 L22,23 L17,23 Z" id="Shape"></path>
                </g>
            </g>
        </g>
    </g>
</svg>