<?xml version="1.0" encoding="UTF-8"?>
<svg width="674px" height="324px" viewBox="0 0 674 324" version="1.1" xmlns="http://www.w3.org/2000/svg" xmlns:xlink="http://www.w3.org/1999/xlink">
    <title>Staff placeholder@3x</title>
    <g id="Staff" stroke="none" stroke-width="1" fill="none" fill-rule="evenodd">
        <g id="Staff/List-view/No-data" transform="translate(-463.000000, -594.000000)">
            <g id="Staff-placeholder" transform="translate(463.000000, 594.000000)">
                <rect id="Container" fill="#F2F2F2" x="196.579737" y="32" width="340" height="232" rx="8"></rect>
                <path d="M204.579737,32 L528.579737,32 C532.998015,32 536.579737,35.581722 536.579737,40 L536.579737,56.1758794 L536.579737,56.1758794 L196.579737,56.1758794 L196.579737,40 C196.579737,35.581722 200.161459,32 204.579737,32 Z" id="Header" fill="#C5CFD6"></path>
                <g id="Buttons" transform="translate(208.579737, 38.000000)" fill="#F2F2F2">
                    <circle id="buttons" cx="2" cy="2" r="2"></circle>
                    <circle id="buttons" cx="8" cy="2" r="2"></circle>
                    <circle id="buttons" cx="14" cy="2" r="2"></circle>
                </g>
                <g id="Group-9-Copy-2" transform="translate(209.000000, 130.000000)">
                    <rect id="Container" fill="#FFFFFF" x="0" y="0" width="318" height="25" rx="4"></rect>
                    <rect id="Label" fill="#DDE3E9" x="8" y="10" width="263" height="6" rx="3"></rect>
                </g>
                <g id="Group-9-Copy-6" transform="translate(209.000000, 97.000000)">
                    <rect id="Container" fill="#FFFFFF" x="0" y="0" width="318" height="25" rx="4"></rect>
                    <rect id="Label" fill="#DDE3E9" x="8" y="10" width="263" height="6" rx="3"></rect>
                </g>
                <g id="Group-9-Copy-7" transform="translate(209.000000, 64.000000)">
                    <rect id="Container" fill="#FFFFFF" x="0" y="0" width="318" height="25" rx="4"></rect>
                    <rect id="Label" fill="#DDE3E9" x="8" y="10" width="263" height="6" rx="3"></rect>
                </g>
                <g id="Group-9-Copy-3" transform="translate(209.000000, 163.000000)">
                    <rect id="Container" fill="#FFFFFF" x="0" y="0" width="318" height="25" rx="4"></rect>
                    <rect id="Label" fill="#DDE3E9" x="8" y="10" width="263" height="6" rx="3"></rect>
                </g>
                <g id="Group-9-Copy-4" transform="translate(209.000000, 196.000000)">
                    <rect id="Container" fill="#FFFFFF" x="0" y="0" width="318" height="25" rx="4"></rect>
                    <rect id="Label" fill="#DDE3E9" x="8" y="10" width="263" height="6" rx="3"></rect>
                </g>
                <g id="Group-9-Copy-5" transform="translate(209.000000, 229.000000)">
                    <rect id="Container" fill="#FFFFFF" x="0" y="0" width="318" height="25" rx="4"></rect>
                    <rect id="Label" fill="#DDE3E9" x="8" y="10" width="263" height="6" rx="3"></rect>
                </g>
                <g id="Group-26">
                    <g id="Head" transform="translate(112.581328, 27.000000)" fill="#FFBC65">
                        <path d="M38.1433414,9.13393292 C43.9381521,19.9350547 43.249578,47.3329958 35.7603014,49.2634576 C32.773664,50.0333035 26.4113241,48.1475566 19.935865,44.2446031 L24,73 L0,73 L8.26160177,34.4893378 C3.65406109,29.0807313 0.535660132,22.452516 1.05677633,15.0254539 C2.55833022,-6.37502057 32.3485306,-1.66718886 38.1433414,9.13393292 Z" id="Head-[skin]"></path>
                    </g>
                    <path d="M141.244823,24.3699763 C137.965381,23.3699763 133.204784,23.0308443 131.202142,23.2602642 C132.341336,20.5308439 132.793385,17.4899413 132.424856,14.5290858 C132.066662,11.6520661 130.781098,9.20236722 129.592144,6.63537883 C129.044097,5.45216518 128.423018,4.27540043 127.497026,3.37037661 C126.553733,2.44834378 125.35965,1.83972796 124.10754,1.54936581 C122.826186,1.2521517 121.486345,1.27689939 120.203001,1.54662502 C119.635279,1.66592985 119.125892,1.92549845 118.569118,2.0697928 C117.998947,2.21763405 117.722359,1.86076752 117.30851,1.50212755 C116.31117,0.637973689 114.849073,0.211378331 113.587317,0.0587004008 C112.171688,-0.112518144 110.702778,0.101021369 109.352679,0.566390794 C108.038561,1.01942668 106.776116,1.75508602 105.826009,2.82681415 C105.402974,3.30387223 105.018981,3.8468704 104.769417,4.44637714 C104.667064,4.69240304 104.650146,4.83814839 104.404639,4.9282719 C104.177581,5.01170466 103.912016,5.014123 103.677686,5.0935252 C101.411853,5.86094542 99.4745883,7.6116631 98.4197565,9.85951109 C97.8043423,11.1708968 97.5128263,13.4797836 97.5926717,16.0676663 C97.6725171,18.655549 100.009238,25.4080735 102.194767,27.8710732 C104.145581,30.0695065 107.013049,31.5202692 109.780384,32.1553256 C107.943558,34.2548487 106.720844,36.8784262 105.81667,39.5466625 C104.834564,42.4450442 104.226728,45.4566043 104.002273,48.525076 C103.789071,51.4404668 103.769321,54.5235291 104.452791,57.3766879 C105.092166,60.0448435 106.45949,62.233684 108.742088,63.6222954 C109.787657,64.2583997 110.912612,64.7362639 112.044074,65.1730163 C113.159153,65.6034004 114.277601,66.021854 115.445655,66.2633656 C117.656293,66.7202709 120.20346,66.641836 121.906318,64.8822511 C122.520048,64.2479202 123.195021,63.450835 123.642783,62.675918 C123.803775,62.3972445 123.900845,62.2149822 123.705251,61.9425963 C123.47092,61.6163621 123.091903,61.3663863 122.790895,61.1111707 C121.074334,59.6560549 120.01177,57.7134822 119.743909,55.4049338 C119.472144,53.0626093 120.101338,50.03928 122.378654,49.0170472 C125.189778,47.7551569 128.285604,49.2035819 130.78416,50.5537417 C131.846035,46.805958 134.026357,43.4314855 137.444704,41.7123675 C141.226527,39.8105035 145.56612,39.5879355 149.452516,37.9561196 C150.465243,37.5308947 151.496726,37.0481938 152.242358,36.1817828 C152.553931,35.8196765 152.919474,35.3499541 153.043874,34.871042 C153.207316,34.2419509 152.801582,33.7145107 152.488171,33.2240711 C150.826346,30.623629 144.524264,25.3699763 141.244823,24.3699763 Z" id="hair" fill="#2E2E2E"></path>
                    <g id="Group" transform="translate(45.579737, 224.000000)" fill="#C5CFD6">
                        <g id="Seat" transform="translate(80.500000, 43.000000) rotate(-360.000000) translate(-80.500000, -43.000000) ">
                            <ellipse id="Ballsy-Ball" cx="80.5" cy="40.5725806" rx="53.4353448" ry="50.9758065"></ellipse>
                        </g>
                    </g>
                    <g id="Bottom/Skinny-Jeans-1-Copy" transform="translate(90.579737, 192.000000)">
                        <path d="M115.836671,16.5056465 L116.064992,16.3717387 C122.625833,12.6891231 133.340777,17.6901424 133.333337,23.2498243 C133.310802,40.0794228 117.981494,119.397261 117.18113,124.41136 C116.380767,129.42546 107.806865,130.749873 107.307579,124.427792 C106.886521,119.096259 106.274019,106.808409 106.011138,94.0358635 L105.982901,92.5881922 C105.978453,92.3466844 105.974137,92.1050911 105.969957,91.8634556 L105.946527,90.4134847 L105.946527,90.4134847 L105.926521,88.9645889 C105.804944,79.3135043 105.923214,69.873198 106.513928,63.4257234 C107.123568,56.771681 107.780122,50.4346211 108.426479,44.7811685 C100.383446,59.3352105 87.9429108,80.1738127 71.1056557,107.296739 L61.9655338,103.112814 C69.1429886,79.4195483 75.0283935,62.6927335 79.6217486,52.932369 C82.5242856,46.7648033 85.3600494,40.9241651 87.9390144,35.7557652 L88.680359,34.274462 C92.7569434,26.1534052 96.1176372,19.8680809 97.9651128,16.867379 C102.847591,8.93717333 111.346518,11.7047156 115.836671,16.5056465 Z" id="Legs-[skin]" fill="#FFBC65"></path>
                        <path d="M76.8660636,98.0589931 L80.8786293,17.3607406 C83.7980022,3.40825789 108.584106,9.8998002 108.578541,17.3778984 C108.565904,34.3554962 98.418778,92.9975706 98.4150133,98.0557642 L76.8660636,98.0589931 Z" id="LegLower" fill="#0E1E29" transform="translate(92.722302, 53.607132) rotate(20.000000) translate(-92.722302, -53.607132) "></path>
                        <g id="Left-[shoe]" transform="translate(78.029355, 112.102385) rotate(30.000000) translate(-78.029355, -112.102385) translate(55.013482, 103.752987)" fill="#3B3B3B">
                            <path d="M1.17407312,5.51928366 C0.391357708,7.68038449 0,9.31441554 0,10.4213768 C0,11.8553152 0.238423972,13.947788 0.715271916,16.6987952 C2.37554061,16.6987952 17.2966549,16.6987952 45.4786149,16.6987952 C46.6418555,12.8457528 45.9703656,10.7656191 43.4641451,10.4583943 C40.9579246,10.1511695 38.8759647,9.87377009 37.2182654,9.62619608 L16.6075918,0.420142605 C16.103324,0.194904122 15.5119422,0.421102121 15.2867038,0.925369977 C15.2826609,0.93442114 15.2787529,0.943531918 15.274981,0.952699289 L14.0184231,4.00667317 L14.0184231,4.00667317 C11.6983184,5.09126557 9.81299251,5.63356177 8.36244535,5.63356177 C7.2568281,5.63356177 5.75602472,5.21385813 3.86003521,4.37445086 L3.86070585,4.37293011 C2.85004884,3.9272327 1.66944031,4.38522295 1.2237429,5.39587997 C1.20584634,5.43646195 1.18930468,5.47762804 1.17414536,5.51930993 Z" id="shoe"></path>
                        </g>
                        <g id="Right-[shoe]" transform="translate(103.968254, 115.301205)" fill="#3B3B3B">
                            <path d="M1.17407312,5.51928366 C0.391357708,7.68038449 0,9.31441554 0,10.4213768 C0,11.8553152 0.238423972,13.947788 0.715271916,16.6987952 C2.37554061,16.6987952 17.2966549,16.6987952 45.4786149,16.6987952 C46.6418555,12.8457528 45.9703656,10.7656191 43.4641451,10.4583943 C40.9579246,10.1511695 38.8759647,9.87377009 37.2182654,9.62619608 L16.6075918,0.420142605 C16.103324,0.194904122 15.5119422,0.421102121 15.2867038,0.925369977 C15.2826609,0.93442114 15.2787529,0.943531918 15.274981,0.952699289 L14.0184231,4.00667317 L14.0184231,4.00667317 C11.6983184,5.09126557 9.81299251,5.63356177 8.36244535,5.63356177 C7.2568281,5.63356177 5.75602472,5.21385813 3.86003521,4.37445086 L3.86070585,4.37293011 C2.85004884,3.9272327 1.66944031,4.38522295 1.2237429,5.39587997 C1.20584634,5.43646195 1.18930468,5.47762804 1.17414536,5.51930993 Z" id="shoe"></path>
                        </g>
                        <path d="M135.532042,28.9708414 C135.532042,50.0963855 125.51873,99.3739682 125.512394,104.025631 L103.968254,104.042211 C105.555556,61.4518214 106.673726,39.2300284 107.322764,37.3768321 C105.947182,36.6663044 50.9332044,42.8801448 34.4336173,42.8801448 C10.6411311,42.8801448 0.798655984,27.8475447 0,0 L47.13203,0 C56.7285345,1.02885804 106.784782,11.144662 125.37468,14.6221114 C133.333333,16.1108671 135.532042,23.1512978 135.532042,28.9708414 Z" id="Leg-and-Butt" fill="#0E1E29"></path>
                    </g>
                    <g id="Group-20" transform="translate(0.000000, 70.610240)">
                        <path d="M194.579737,89.0068478 L230.814304,73.0939341 C237.161755,66.7687822 243.291124,61.9613743 249.20241,58.6717103 C250.969997,58.1089695 253.989837,57.9389589 250.767904,62.6449285 C247.545971,67.3508982 244.368626,72.4457743 245.656026,74.0950565 C246.943426,75.7443387 250.672742,73.9239803 252.146081,76.6060366 C253.128307,78.3940742 246.842023,80.5329407 233.287228,83.022636 L206.149677,103.829047 L194.579737,89.0068478 Z" id="Arm" fill="#FFBC65"></path>
                        <g id="Group-5" transform="translate(75.371653, 86.002316) rotate(-12.000000) translate(-75.371653, -86.002316) translate(14.243097, 11.071933)">
                            <path d="M43.8501934,73.8607658 L62,77.4961092 C43.7472729,111.834889 33.9586633,130.034462 32.6341711,132.094829 C29.6540636,136.730654 32.4345642,145.226767 33.4616695,149.700879 C27.0181868,151.215014 29.5592984,141.42477 21.4051955,143.468884 C13.9625085,145.334657 7.65200738,150.122893 0.712006586,143.665192 C-0.141225733,142.871256 -0.765832132,140.389635 2.14326905,139.116824 C9.39090099,135.945787 20.0986668,130.008084 21.8349319,127.702829 C24.2026395,124.559201 31.5410601,106.611846 43.8501934,73.8607658 Z" id="Arm" fill="#FFBC65"></path>
                            <path d="M106.874493,4.67409942 L113.961682,5.29414815 L114.825824,9.01319461 C84.6006616,71.5430315 61.1939845,112.470713 44.6057923,131.79624 L30.3439702,129.002843 C39.5307873,72.0281493 62.8537174,31.8011325 106.874493,4.67409942 Z" id="Clothes-Front" fill="#8B4932" transform="translate(72.584897, 68.235169) rotate(7.000000) translate(-72.584897, -68.235169) "></path>
                        </g>
                        <path d="M119.859983,21.2669404 L128.344935,19.0357698 C148.699872,35.5948349 160.182103,78.651432 173.192406,83.3454065 C185.493121,87.7833695 201.78833,81.0217698 221.0829,72.1287923 L228.375789,85.225103 C211.989563,106.389785 174.878348,126.306305 158.422677,118.229569 C132.113479,105.316547 121.62654,51.8911682 119.859983,21.2669404 Z" id="Coat-Back-Copy" fill="#8B4932" transform="translate(174.117886, 69.551528) rotate(5.000000) translate(-174.117886, -69.551528) "></path>
                        <path d="M86.5797366,125.38976 C121.251492,125.38976 146.755309,125.38976 163.091187,125.38976 C166.58737,125.38976 165.928581,120.341397 165.423187,117.793966 C159.590324,88.3935265 136.821041,56.7012756 136.821041,14.8504905 L114.751537,11.3897602 C96.4972216,40.748167 90.1845629,76.8943101 86.5797366,125.38976 Z" id="Shirt-Copy" fill="#DDE3E9"></path>
                        <path d="M83.2123559,141.342639 L145.626702,144.613637 C146.198151,114.602415 139.809822,70.0724301 126.461716,11.0236828 L117.975318,11.0236828 C90.7593495,45.1057293 86.4366757,92.705228 83.2123559,141.342639 Z" id="Clothes-Body" fill="#8B4932" transform="translate(114.437124, 77.818660) rotate(-3.000000) translate(-114.437124, -77.818660) "></path>
                    </g>
                </g>
                <g id="Group-10" transform="translate(580.000000, 162.000000) scale(-1, 1) translate(-580.000000, -162.000000) translate(486.000000, 0.000000)">
                    <g id="Head" transform="translate(92.000000, 29.000000)" fill="#FFBC65">
                        <path d="M27.2452438,6.63148554 C31.3843944,14.4733959 30.8925557,34.3650518 25.5430724,35.7666199 C23.4097354,36.3255556 18.8651266,34.9564136 14.2397434,32.122696 L17.1428571,53 L0,53 L5.90076977,25.0397575 C2.60987473,21.1130427 0.382628494,16.3009373 0.754840239,10.9088912 C1.82737873,-4.6284396 23.1060933,-1.21042479 27.2452438,6.63148554 Z" id="Head-[skin]"></path>
                    </g>
                    <path d="M109.382027,25.7930648 C107.035761,25.4073288 100.718337,25.1421246 99.5532908,25.1422958 C98.8087715,25.1422958 98.0019393,25.3128209 97.5609823,24.6274676 C97.1998743,24.0662414 97.3321614,23.1170536 97.2243908,22.465771 C97.0992544,21.7091943 96.9215095,20.9623766 96.7417216,20.2174422 C96.2301094,18.0976921 95.4564767,16.0810103 94.3740039,14.1875997 C92.3428776,10.6353361 89.3673542,7.85283232 85.6108772,6.23370002 C81.4626465,4.44592594 76.7685826,4.036563 72.3065744,4.39918563 C67.5316399,4.78714733 63.2092397,6.36741497 58.7009225,7.85454442 C54.4047414,9.271649 49.9049369,9.82945095 45.411602,9.13742042 C40.8843867,8.44025359 37.4636499,5.98030932 33.6450304,3.64551952 C29.7358358,1.2552577 25.2683795,-0.308060165 20.6470139,0.0513094765 C16.3331264,0.386880938 12.3571924,2.1726005 8.79003751,4.55806844 C5.45255481,6.78996108 2.69870169,9.47521761 1.14394517,13.2545056 C-0.528626888,17.3198854 -0.527094605,21.7823009 2.22335344,25.3751413 C6.21001339,30.5830049 13.6111107,31.9297422 19.7685049,31.7958561 C23.3300415,31.7186404 26.8279031,31.0668442 30.1904131,29.8812154 C34.6747246,28.2999205 38.5498683,25.6198003 42.745089,23.445263 C44.7139025,22.4248518 46.7489446,21.5867792 48.8820528,20.983093 C50.951997,20.3970414 52.9907847,20.1282418 54.8649371,21.3818409 C56.8475411,22.708033 58.6241381,24.0107694 60.8922575,24.8409663 C63.0680994,25.6374349 65.3728234,26.0829232 67.6909973,26.0649461 C72.2013576,26.0300193 76.6475322,24.6211328 81.0281591,23.6774237 C84.6004216,22.9080062 88.4226165,22.141157 92.0645128,22.8807839 C93.5841971,23.1894754 95.8039644,23.8267187 96.3528623,25.4100681 C87.1147279,27.0886103 83.4864604,38.5425545 86.0908308,46.9508454 C87.4964451,51.489107 95.9457857,56.7942868 99.2310006,54.4084541 C101.312279,52.8969605 100.048729,50.9126431 99.2310006,49.602716 C97.6650073,47.0941481 97.129219,43.871806 100.026936,42.1252935 C102.526431,40.6189886 105.154476,44.1960631 105.204191,44.1921253 C105.891164,44.1378517 111.827213,40.7722578 115.917042,35.8610026 C119.951674,36.1007767 120.563786,33.4337102 119.600395,31.2525511 C118.637004,29.071392 112.623827,26.3263837 109.382027,25.7930648 Z" id="hair" fill="#1F1F1F"></path>
                    <path d="M147.762127,140 L171.135577,157.117649 C177.474938,158.823654 182.771269,160.946212 187.024571,163.485324 C188.029274,164.398372 189.243553,166.247447 185.076804,165.92788 C180.910055,165.608314 176.51285,165.45907 175.937919,166.876476 C175.362989,168.293882 177.88448,169.988943 176.722295,171.901395 C175.947505,173.176362 172.287087,169.979428 165.74104,162.310593 L142.595193,152.738311 L147.762127,140 Z M58.0198646,140.590772 C53.144865,168.820187 49.991599,184.383103 48.5600665,187.27952 C47.5103086,189.403494 39.7409856,195.856246 34.3495933,199.543154 C32.1855615,201.023029 33.0812231,202.916791 33.8985542,203.419758 C40.5465419,207.51078 44.923643,202.673241 50.6777054,200.003419 C56.9817751,197.0784 56.4492982,205.337706 61.4466855,203.107516 C59.9123169,199.677664 56.3243231,193.295268 58.0198646,189.104547 C58.7734386,187.242004 63.8776248,171.090764 73.3324232,140.650828 L58.0198646,140.590772 Z" id="Arms-[skin]-Copy" fill="#FFBC65"></path>
                    <path d="M98.4574258,78.6946935 L104.699402,77.0533272 C129.988792,95.3075853 143.06002,133.483173 173.688849,151.63247 L167.504297,160.837822 C116.964607,159.021571 100.408068,112.510132 98.4574258,78.6946935 Z" id="Coat-Back-Copy" fill="#172467" transform="translate(136.073137, 118.945575) rotate(5.000000) translate(-136.073137, -118.945575) "></path>
                    <g id="Group-20" transform="translate(46.000000, 148.000000)">
                        <polygon id="Leg-Copy" fill="#F93D3D" points="41.1299435 0 67.7578819 93.6901088 87.1859008 162.74477 101.355932 162.74477 80.7108849 0"></polygon>
                        <path d="M34.0088388,0 C33.3929372,48.2889686 31.2927241,74.6270842 30.6460526,79.014347 C29.9993811,83.4016097 20.2213691,111.311751 1.31201679,162.74477 L15.9912095,162.74477 C40.0642617,113.403576 53.5024554,85.4934352 56.3057905,79.014347 C59.1091256,72.5352588 67.7604911,46.1971431 80.7909605,0 L34.0088388,0 Z" id="Leg-Copy-2" fill="#F93D3D"></path>
                        <g id="Left-[shoe]-Copy" transform="translate(0.000000, 160.535565)" fill="#2A2A2A">
                            <path d="M0,15.4644351 L0.734463277,0 L16.1581921,0 C23.471686,5.15481172 33.0197086,9.32775453 44.8022599,12.5188285 L44.8022599,15.4644351 L16.8926554,15.4644351 L7.34463277,13.9916318 L7.34463277,15.4644351 L0,15.4644351 Z" id="Shoe"></path>
                        </g>
                        <g id="Right-[shoe]-Copy" transform="translate(85.197740, 160.535565)" fill="#2A2A2A">
                            <path d="M0,15.4644351 L0.734463277,0 L16.1581921,0 C23.471686,5.15481172 33.0197086,9.32775453 44.8022599,12.5188285 L44.8022599,15.4644351 L16.8926554,15.4644351 L7.34463277,13.9916318 L7.34463277,15.4644351 L0,15.4644351 Z" id="Shoe"></path>
                        </g>
                    </g>
                    <path d="M74,156 C99.812528,156 118.799683,156 130.961464,156 C133.564312,156 133.073855,152.280154 132.697597,150.403099 C128.355131,128.739617 111.40379,105.387432 111.40379,74.5500118 L94.9734223,72 C81.3833976,93.6325103 76.6837314,120.26651 74,156 Z" id="Shirt-Copy" fill="#DDE3E9"></path>
                    <path d="M94.3193701,71.5769065 C94.8657392,71.5769065 95.3663906,71.6109011 95.8213245,71.6788903 L100.907786,71.9691283 C115.480948,121.24474 119.500139,154.120661 112.965359,170.596891 L112.965359,170.596891 L68.69188,170.597347 C66.0688059,176.699617 63.5587428,181.833835 61.1616907,186 L61.1616907,186 L49.0980191,186 C47.9626417,149.374613 56.6907613,118.288805 75.2823777,92.742576 C72.9257686,92.0684669 71.0592153,90.4921449 69.683244,88.0150969 C63.7529032,77.3391917 65.8946268,71.4613151 72.2322804,69.5292239 C78.5699339,67.5971327 84.2217938,71.5769065 94.3193701,71.5769065 Z" id="Coat-Front-Copy" fill="#172467"></path>
                    <path d="M85,169.99913 L68.0000455,169.999899 C71.1660018,162.968037 74.4910733,154.634879 77.97526,145.000425 C79.4159537,156.481476 81.7575174,164.81468 85,169.99913 Z" id="Shade-Copy" fill-opacity="0.1" fill="#000000"></path>
                </g>
            </g>
        </g>
    </g>
</svg>