<?xml version="1.0" encoding="UTF-8"?>
<svg width="96px" height="96px" viewBox="0 0 96 96" version="1.1" xmlns="http://www.w3.org/2000/svg" xmlns:xlink="http://www.w3.org/1999/xlink">
    <title>Staff Hover@3x</title>
    <g id="Welcome" stroke="none" stroke-width="1" fill="none" fill-rule="evenodd">
        <g id="Add-Staff" transform="translate(-226.000000, -224.000000)">
            <g id="Group-7" transform="translate(88.136039, 198.000000)">
                <g id="Staff-Hover" transform="translate(137.863961, 26.000000)">
                    <rect id="Rectangle-Copy-2" fill="#F1F1F5" x="0" y="0" width="96" height="96" rx="15"></rect>
                    <g id="Group-8" transform="translate(19.000000, 18.000000)" fill-rule="nonzero">
                        <path d="M23.5,32 C25.7544429,32 27.9164786,31.1044643 29.5102286,29.5102286 C31.1044643,27.9164786 32,25.7544429 32,23.5 C32,21.2455571 31.1044643,19.0835214 29.5102286,17.4897714 C27.9164786,15.8955357 25.7544429,15 23.5,15 C21.2455571,15 19.0835214,15.8955357 17.4897714,17.4897714 C15.8955357,19.0835214 15,21.2455571 15,23.5 C15.0023716,25.7535929 15.8983771,27.9145357 17.4920786,29.5079214 C19.0853429,31.1016714 21.2464071,31.9976929 23.5,32 Z M23.5,19.25 C24.6270029,19.25 25.7080571,19.6977679 26.5053571,20.4946429 C27.3022321,21.2919914 27.75,22.3730214 27.75,23.5 C27.75,24.6269786 27.3022321,25.7080571 26.5053571,26.5053571 C25.7080086,27.3022321 24.6269786,27.75 23.5,27.75 C22.3730214,27.75 21.2919429,27.3022321 20.4946429,26.5053571 C19.6977679,25.7080086 19.25,24.6269786 19.25,23.5 C19.251423,22.3734707 19.6996621,21.2929143 20.4965857,20.4965857 C21.2929871,19.6997107 22.3735071,19.2514571 23.5,19.25 Z" id="Shape" fill="#4394AD"></path>
                        <path d="M56.5097787,37.4934605 C57.9492226,35.5581462 58.3761794,33.0467384 57.657956,30.7413778 L56.2934383,26.2844212 C55.6529048,24.170804 54.3502689,22.3203255 52.5797983,21.0082083 C50.8088365,19.6960911 48.6636118,18.9918809 46.4627452,19.0000706 L36.8177709,19.0000706 C36.0496049,19.0000706 35.3400041,19.4114846 34.9561606,20.0790848 C34.5723171,20.746685 34.5723171,21.5693816 34.9561606,22.2369695 C35.3400041,22.9045573 36.0496294,23.3159118 36.8177709,23.3159118 L46.4627452,23.3159118 C47.74337,23.3115768 48.9918134,23.7214831 50.021988,24.4854113 C51.0521257,25.2488585 51.8102689,26.3259019 52.1830577,27.5555262 L53.5475753,32.0105099 C53.852734,33.0070827 53.6689657,34.0898475 53.051932,34.9289564 C52.4353872,35.7675474 51.4584594,36.2626524 50.420178,36.2631456 L30.7108881,36.2631456 C30.6499534,36.2631456 30.5990932,36.2925274 30.5391227,36.2978259 C30.3946993,36.2920459 30.2550785,36.2631456 30.1082599,36.2631456 L16.6301322,36.2631456 L16.6306119,36.2631456 C14.2416927,36.2544756 11.9141884,37.0193671 9.99251424,38.4437189 C8.07133137,39.8685393 6.65878722,41.8775916 5.96455248,44.1717312 L4.36014799,49.4046631 C3.59965879,51.8882034 4.05835486,54.5864223 5.59606271,56.6759945 C7.13340206,58.7659366 9.56739987,59.9990135 12.1554264,60 L34.5817143,60 C37.1697408,59.9995184 39.6038615,58.7664298 41.1415693,56.6764877 C42.6794,54.5865456 43.1380469,51.8882034 42.3779753,49.4046631 L40.7739393,44.1722244 C40.3680233,42.8693553 39.7284479,41.6516919 38.8869032,40.5789149 L50.4195278,40.5789149 C52.8247834,40.5899934 55.0895215,39.4426592 56.5091898,37.4933865 L56.5097787,37.4934605 Z" id="Path" fill="#4394AD"></path>
                        <path d="M37.6848642,54.1116384 C36.9613223,55.1048449 35.8079001,55.6896069 34.582426,55.6843405 L12.1561381,55.6843405 C10.9321624,55.6843405 9.78109864,55.1009977 9.05369982,54.1121316 C8.32679232,53.1237465 8.1099238,51.8473392 8.47025767,50.6729567 L10.0742937,45.440518 L10.0738139,45.440518 C10.4998863,44.0297547 11.3683185,42.7947049 12.5490826,41.9189736 C13.7303625,41.0428108 15.1616751,40.5731934 16.6298612,40.5789359 L30.107989,40.5789359 C31.5761751,40.5732089 33.0073894,41.0428355 34.1887676,41.9189736 C35.3700476,42.7946555 36.2380621,44.0296314 36.6640363,45.440518 L38.2680723,50.6729567 C38.6346459,51.8467843 38.4177774,53.1261633 37.6851091,54.1121316 L37.6848642,54.1116384 Z" id="Path" fill="#4394AD"></path>
                        <path d="M41.5,15 C43.4893061,15 45.3968163,14.2098245 46.8031429,12.8031429 C48.2098367,11.3969388 49,9.48942857 49,7.5 C49,5.51057143 48.2098245,3.60318367 46.8031429,2.19685714 C45.3969388,0.790163265 43.4894286,0 41.5,0 C39.5105714,0 37.6031837,0.79017551 36.1968571,2.19685714 C34.7901633,3.60306122 34,5.51057143 34,7.5 C34.0023916,9.48832653 34.7935306,11.3944898 36.1993061,12.8006939 C37.6055102,14.2064082 39.5116735,14.997551 41.5,15 L41.5,15 Z M41.5,4.28571429 C42.3523551,4.28571429 43.1703265,4.62435918 43.772898,5.22704082 C44.3754694,5.82972245 44.7142245,6.64769388 44.7142245,7.49993878 C44.7142245,8.35218367 44.3755796,9.17026531 43.772898,9.77283673 C43.1702163,10.3754082 42.3522449,10.7141633 41.5,10.7141633 C40.6477551,10.7141633 39.8296735,10.3755184 39.227102,9.77283673 C38.6245306,9.1701551 38.2857755,8.35218367 38.2857755,7.49993878 C38.2867321,6.64758367 38.6258531,5.83059184 39.2280571,5.22789796 C39.8307388,4.62569388 40.6477306,4.28657143 41.500098,4.28561633 L41.5,4.28571429 Z" id="Shape" fill="#5C63AB"></path>
                        <path d="M0,8.5 C0,9.06350344 0.2238904,9.60425109 0.62232254,10.0026839 C1.02075468,10.4011168 1.56150136,10.6250076 2.12500379,10.6250076 L6.37501138,10.6250076 L6.37501138,14.8750228 C6.37501138,15.6344276 6.78008568,16.3359351 7.43751328,16.7154008 C8.09494088,17.0948664 8.90510162,17.0948664 9.56251708,16.7154008 C10.2199325,16.3359351 10.625019,15.6344033 10.625019,14.8750228 L10.625019,10.6250076 L14.8750266,10.6250076 C15.6344301,10.6250076 16.3359363,10.2199326 16.7154013,9.56250379 C17.0948662,8.90507502 17.0948662,8.09491284 16.7154013,7.43749621 C16.3359363,6.78007957 15.6344058,6.37499241 14.8750266,6.37499241 L10.625019,6.37499241 L10.625019,2.12497723 C10.625019,1.36557238 10.2199447,0.664064872 9.56251708,0.284599231 C8.90508947,-0.0948664102 8.09492874,-0.0948664102 7.43751328,0.284599231 C6.78009782,0.664064872 6.37501138,1.36559666 6.37501138,2.12497723 L6.37501138,6.37499241 L2.12500379,6.37499241 C1.56150136,6.37499241 1.02075468,6.59888321 0.62232254,6.99731606 C0.2238904,7.39574891 0,7.93649656 0,8.5 Z" id="Path" fill="#5C63AB"></path>
                    </g>
                </g>
            </g>
        </g>
    </g>
</svg>