<?xml version="1.0" encoding="UTF-8"?>
<svg width="14px" height="13px" viewBox="0 0 14 13" version="1.1" xmlns="http://www.w3.org/2000/svg" xmlns:xlink="http://www.w3.org/1999/xlink">
    <title>Star@3x</title>
    <g id="Chat" stroke="none" stroke-width="1" fill="none" fill-rule="evenodd">
        <g id="Group-chat-/live-chat-star-view" transform="translate(-918.000000, -706.000000)" fill="#5C63AB" fill-rule="nonzero">
            <g id="Group-19" transform="translate(481.000000, 656.000000)">
                <g id="Group-20" transform="translate(44.000000, 0.000000)">
                    <g id="Group-19-Copy-7" transform="translate(380.000000, 44.000000)">
                        <path d="M20.8061089,6.51112751 L22.1525882,9.4858896 C22.2839969,9.77602171 22.546817,9.96129199 22.8720177,9.99303569 L26.204728,10.3161759 C26.5602689,10.3505371 26.8444242,10.572474 26.9548305,10.9023315 C27.0652229,11.2323047 26.9702139,11.5739262 26.7032812,11.804364 L24.2026252,13.9656263 C23.9589826,14.1766359 23.8583441,14.4763234 23.9282181,14.7859052 L24.6416017,17.9600071 C24.7175438,18.2990191 24.5879766,18.6297993 24.2987349,18.8336854 C24.0098095,19.0375472 23.6450611,19.0550977 23.3366391,18.8802383 L20.4446109,17.2414559 C20.1622859,17.0815188 19.837945,17.0815188 19.55562,17.2414559 L16.6635918,18.8802383 C16.3547261,19.0550977 15.9903106,19.0375499 15.701496,18.8336854 C15.4121268,18.6298235 15.2821408,18.2990191 15.3586292,17.9600071 L16.0720128,14.7859052 C16.1418869,14.4763234 16.0412455,14.1766412 15.7976057,13.9656263 L13.2969498,11.804364 C13.0300168,11.5739154 12.9344756,11.2317667 13.0454005,10.9023315 C13.1557929,10.5723584 13.4400453,10.350529 13.795503,10.3161759 L17.1282133,9.99303569 C17.4534417,9.96140497 17.7162424,9.77614277 17.8476428,9.4858896 L19.1941221,6.51112751 C19.3376641,6.19387873 19.6432628,6 20.0006618,6 C20.3580608,6 20.663654,6.19345907 20.8072016,6.51112751 L20.8061089,6.51112751 Z" id="Star" transform="translate(20.000000, 12.500000) scale(-1, 1) translate(-20.000000, -12.500000) "></path>
                    </g>
                </g>
            </g>
        </g>
    </g>
</svg>