<?xml version="1.0" encoding="UTF-8"?>
<svg width="55px" height="55px" viewBox="0 0 55 55" version="1.1" xmlns="http://www.w3.org/2000/svg" xmlns:xlink="http://www.w3.org/1999/xlink">
    <title>Star Messages@3x</title>
    <g id="Chat" stroke="none" stroke-width="1" fill="none" fill-rule="evenodd">
        <g id="Group-chat-/View-profile" transform="translate(-1238.000000, -450.000000)">
            <g id="Group-22" transform="translate(1238.000000, 234.000000)">
                <g id="Group-19" transform="translate(0.000000, 216.000000)">
                    <rect id="Rectangle" fill-opacity="0.1" fill="#5563AB" x="0" y="0" width="55" height="55" rx="10"></rect>
                    <path d="M29.3819009,16.9043025 L31.6901512,22.1673431 C31.9154232,22.6806538 32.365972,23.0084397 32.9234588,23.0646016 L38.6366766,23.6363112 C39.2461752,23.6971041 39.7332987,24.0897618 39.9225665,24.6733558 C40.1118106,25.2571544 39.9489381,25.8615617 39.4913391,26.2692593 L35.2045004,30.0930311 C34.7868274,30.4663558 34.6143041,30.9965721 34.7340882,31.5442939 L35.9570315,37.1600125 C36.0872179,37.759803 35.8651027,38.3450295 35.3692599,38.705751 C34.8739591,39.0664297 34.2486762,39.0974806 33.7199528,38.788114 L28.7621901,35.8887297 C28.2782044,35.605764 27.7221915,35.605764 27.2382058,35.8887297 L22.2804431,38.788114 C21.750959,39.0974806 21.1262467,39.0664345 20.631136,38.705751 C20.1350745,38.3450724 19.9122414,37.759803 20.0433644,37.1600125 L21.2663077,31.5442939 C21.3860918,30.9965721 21.2135638,30.4663653 20.7958955,30.0930311 L16.5090568,26.2692593 C16.0514574,25.8615427 15.8876724,25.2562025 16.0778294,24.6733558 C16.2670735,24.0895571 16.7543633,23.6970898 17.3637194,23.6363112 L23.0769371,23.0646016 C23.6344714,23.0086396 24.084987,22.680868 24.3102447,22.1673431 L26.618495,16.9043025 C26.864567,16.3430162 27.3884505,16 28.0011345,16 C28.6138185,16 29.1376926,16.3422737 29.3837741,16.9043025 L29.3819009,16.9043025 Z" id="Path" fill="#5C63AB" fill-rule="nonzero" transform="translate(28.000000, 27.500000) scale(-1, 1) translate(-28.000000, -27.500000) "></path>
                </g>
            </g>
        </g>
    </g>
</svg>