<?xml version="1.0" encoding="UTF-8"?>
<svg width="16px" height="14px" viewBox="0 0 16 14" version="1.1" xmlns="http://www.w3.org/2000/svg" xmlns:xlink="http://www.w3.org/1999/xlink">
    <title>Shift Icon/Swing@3x</title>
    <g id="Symbols" stroke="none" stroke-width="1" fill="none" fill-rule="evenodd">
        <g id="Shift/Swing-Shift" transform="translate(0.000000, -2.000000)">
            <g id="ic_SwingShift" transform="translate(0.000000, 1.000000)">
                <rect id="Icon-Spacing" fill="#5C63AB" opacity="0" x="0" y="0" width="15.9192002" height="15.9192002" rx="3.31650003"></rect>
                <path d="M7.95960008,5.30640005 C10.1076288,5.30640005 11.8581935,7.00814589 11.9366551,9.13699854 L11.9394001,9.28620009 L10.6128001,9.28620009 C10.6128001,7.82087818 9.42492199,6.63300006 7.95960008,6.63300006 C6.53868186,6.63300006 5.37864743,7.74997636 5.30964711,9.15377865 L5.30640005,9.28620009 L3.97980004,9.28620009 C3.97980004,7.08821722 5.76161721,5.30640005 7.95960008,5.30640005 Z M2.65320003,7.29630007 C3.0195305,7.29630007 3.31650003,7.5932696 3.31650003,7.95960008 C3.31650003,8.32593055 3.0195305,8.62290008 2.65320003,8.62290008 L0.663300006,8.62290008 C0.296969528,8.62290008 8.8817842e-16,8.32593055 8.8817842e-16,7.95960008 C8.8817842e-16,7.5932696 0.296969528,7.29630007 0.663300006,7.29630007 L2.65320003,7.29630007 Z M15.2559001,7.29630007 C15.6222306,7.29630007 15.9192002,7.5932696 15.9192002,7.95960008 C15.9192002,8.32593055 15.6222306,8.62290008 15.2559001,8.62290008 L13.2660001,8.62290008 C12.8996696,8.62290008 12.6027001,8.32593055 12.6027001,7.95960008 C12.6027001,7.5932696 12.8996696,7.29630007 13.2660001,7.29630007 L15.2559001,7.29630007 Z M13.1119599,3.47054021 C13.3709947,3.72957498 13.3709947,4.14955331 13.1119599,4.40858808 L11.7048881,5.81565988 C11.4458534,6.07469464 11.025875,6.07469464 10.7668403,5.81565988 C10.5078055,5.55662511 10.5078055,5.13664678 10.7668403,4.87761201 L12.1739121,3.47054021 C12.4329468,3.21150545 12.8529252,3.21150545 13.1119599,3.47054021 Z M2.80724021,3.47054021 C3.06627497,3.21150545 3.48625331,3.21150545 3.74528807,3.47054021 L3.74528807,3.47054021 L5.15235987,4.87761201 C5.41139463,5.13664678 5.41139463,5.55662511 5.15235987,5.81565988 C4.8933251,6.07469464 4.47334677,6.07469464 4.214312,5.81565988 L4.214312,5.81565988 L2.80724021,4.40858808 C2.54820544,4.14955331 2.54820544,3.72957498 2.80724021,3.47054021 Z M7.95960008,1.32660001 C8.32593055,1.32660001 8.62290008,1.62356954 8.62290008,1.98990002 L8.62290008,3.97980004 C8.62290008,4.34613052 8.32593055,4.64310004 7.95960008,4.64310004 C7.5932696,4.64310004 7.29630007,4.34613052 7.29630007,3.97980004 L7.29630007,1.98990002 C7.29630007,1.62356954 7.5932696,1.32660001 7.95960008,1.32660001 Z M14.9242501,9.9495001 C14.9242501,10.3158306 14.6272806,10.6128001 14.2609501,10.6128001 L1.65825002,10.6128001 C1.29191954,10.6128001 0.99495001,10.3158306 0.99495001,9.9495001 C0.99495001,9.58316962 1.29191954,9.28620009 1.65825002,9.28620009 L14.2609501,9.28620009 C14.6272806,9.28620009 14.9242501,9.58316962 14.9242501,9.9495001 Z M13.2660001,11.9394001 C13.2660001,12.3057306 12.9690306,12.6027001 12.6027001,12.6027001 L3.31650003,12.6027001 C2.95016955,12.6027001 2.65320003,12.3057306 2.65320003,11.9394001 C2.65320003,11.5730696 2.95016955,11.2761001 3.31650003,11.2761001 L12.6027001,11.2761001 C12.9690306,11.2761001 13.2660001,11.5730696 13.2660001,11.9394001 Z M11.2761001,13.9293001 C11.2761001,14.2956306 10.9791306,14.5926001 10.6128001,14.5926001 L5.30640005,14.5926001 C4.94006957,14.5926001 4.64310004,14.2956306 4.64310004,13.9293001 C4.64310004,13.5629697 4.94006957,13.2660001 5.30640005,13.2660001 L10.6128001,13.2660001 C10.9791306,13.2660001 11.2761001,13.5629697 11.2761001,13.9293001 Z" id="Combined-Shape" fill="#7954DA"></path>
            </g>
        </g>
    </g>
</svg>