<?xml version="1.0" encoding="UTF-8"?>
<svg width="38px" height="38px" viewBox="0 0 38 38" version="1.1" xmlns="http://www.w3.org/2000/svg" xmlns:xlink="http://www.w3.org/1999/xlink">
    <title>Time@3x</title>
    <g id="Accept-&amp;-Modify-2A" stroke="none" stroke-width="1" fill="none" fill-rule="evenodd">
        <g id="Client-Cases/Case-Info/William-Carnes/Evaluations" transform="translate(-1174.000000, -951.000000)">
            <g id="Group-2" transform="translate(145.000000, 583.000000)">
                <g id="Referral-(Open)/Treatment-Plan-Details---In-Progress" transform="translate(77.000000, 131.000000)">
                    <g id="Group-34-Copy-2" transform="translate(26.000000, 237.000000)">
                        <g id="Time" transform="translate(926.000000, 0.000000)">
                            <path d="M8.9735982,-3.62544108e-16 L29.0264018,3.62544108e-16 C32.1467174,-2.10648567e-16 33.2782192,0.324889639 34.41896,0.934964463 C35.5597007,1.54503929 36.4549607,2.4402993 37.0650355,3.58104004 C37.6751104,4.72178078 38,5.85328261 38,8.9735982 L38,29.0264018 C38,32.1467174 37.6751104,33.2782192 37.0650355,34.41896 C36.4549607,35.5597007 35.5597007,36.4549607 34.41896,37.0650355 C33.2782192,37.6751104 32.1467174,38 29.0264018,38 L8.9735982,38 C5.85328261,38 4.72178078,37.6751104 3.58104004,37.0650355 C2.4402993,36.4549607 1.54503929,35.5597007 0.934964463,34.41896 C0.324889639,33.2782192 1.40432378e-16,32.1467174 -2.41696072e-16,29.0264018 L2.41696072e-16,8.9735982 C-1.40432378e-16,5.85328261 0.324889639,4.72178078 0.934964463,3.58104004 C1.54503929,2.4402993 2.4402993,1.54503929 3.58104004,0.934964463 C4.72178078,0.324889639 5.85328261,2.10648567e-16 8.9735982,-3.62544108e-16 Z" id="Rectangle" fill-opacity="0.1" fill="#5C63AB"></path>
                            <g id="update_black_24dp" transform="translate(7.000000, 7.000000)">
                                <rect id="Rectangle" x="0" y="0" width="24" height="24"></rect>
                                <path d="M11,8 L11,13 L15.25,15.52 L16.02,14.24 L12.5,12.15 L12.5,8 L11,8 Z M21,10 L21,3 L18.36,5.64 C16.74,4.01 14.49,3 12,3 C7.03,3 3,7.03 3,12 C3,16.97 7.03,21 12,21 C16.97,21 21,16.97 21,12 L19,12 C19,15.86 15.86,19 12,19 C8.14,19 5,15.86 5,12 C5,8.14 8.14,5 12,5 C13.93,5 15.68,5.79 16.95,7.05 L14,10 L21,10 Z" id="Shape" fill="#3D6083" fill-rule="nonzero"></path>
                            </g>
                        </g>
                    </g>
                </g>
            </g>
        </g>
    </g>
</svg>