<svg width="16px" height="16px" viewBox="0 0 16 16" version="1.1"
xmlns="http://www.w3.org/2000/svg" xmlns:xlink="http://www.w3.org/1999/xlink">
<title>trending_up_black_24dp</title>
<g id="Dashboard" stroke="none" stroke-width="1" fill="none"
    fill-rule="evenodd">
    <g id="Dashboard-" transform="translate(-347.000000, -448.000000)">
        <g id="Group-21" transform="translate(157.000000, 425.000000)">
            <g id="Group-19" transform="translate(142.000000, 20.000000)">
                <g id="trending_up_black_24dp"
                    transform="translate(48.000000, 3.000000)">
                    <polygon id="Path" points="0 0 16 0 16 16 0 16"></polygon>
                    <path
                        d="M11.2333333,4.56666667 L12.1933333,5.52666667 L8.94,8.78 L6.74666667,6.58666667 C6.48666667,6.32666667 6.06666667,6.32666667 5.80666667,6.58666667 L1.80666667,10.5933333 C1.54666667,10.8533333 1.54666667,11.2733333 1.80666667,11.5333333 C2.06666667,11.7933333 2.48666667,11.7933333 2.74666667,11.5333333 L6.27333333,8 L8.46666667,10.1933333 C8.72666667,10.4533333 9.14666667,10.4533333 9.40666667,10.1933333 L13.1333333,6.47333333 L14.0933333,7.43333333 C14.3,7.64 14.66,7.49333333 14.66,7.2 L14.66,4.33333333 C14.6666667,4.14666667 14.52,4 14.3333333,4 L11.4733333,4 C11.1733333,4 11.0266667,4.36 11.2333333,4.56666667 L11.2333333,4.56666667 Z"
                        id="Path" fill="#173E67" fill-rule="nonzero"></path>
                </g>
            </g>
        </g>
    </g>
</g>
</svg>