<?xml version="1.0" encoding="UTF-8"?>
<svg width="35px" height="35px" viewBox="0 0 35 35" version="1.1" xmlns="http://www.w3.org/2000/svg" xmlns:xlink="http://www.w3.org/1999/xlink">
    <title>Vacation@3x</title>
    <g id="Work-Calendar" stroke="none" stroke-width="1" fill="none" fill-rule="evenodd">
        <g id="Work-Calendar/Call-Off/Croll-View" transform="translate(-362.000000, -161.000000)">
            <g id="Vacation" transform="translate(362.000000, 161.000000)">
                <rect id="Rectangle" fill="#F1F1F5" x="0" y="0" width="35" height="35" rx="10"></rect>
                <path d="M23.5,10.9545455 L22.75,10.9545455 L22.75,10.2272727 C22.75,9.82727273 22.4125,9.5 22,9.5 C21.5875,9.5 21.25,9.82727273 21.25,10.2272727 L21.25,10.9545455 L13.75,10.9545455 L13.75,10.2272727 C13.75,9.82727273 13.4125,9.5 13,9.5 C12.5875,9.5 12.25,9.82727273 12.25,10.2272727 L12.25,10.9545455 L11.5,10.9545455 C10.675,10.9545455 10,11.6090909 10,12.4090909 L10,24.0454545 C10,24.8454545 10.675,25.5 11.5,25.5 L23.5,25.5 C24.325,25.5 25,24.8454545 25,24.0454545 L25,12.4090909 C25,11.6090909 24.325,10.9545455 23.5,10.9545455 Z M22.3125,23.5 L12.6875,23.5 C12.309375,23.5 12,23.1884615 12,22.8076923 L12,14.5 L23,14.5 L23,22.8076923 C23,23.1884615 22.690625,23.5 22.3125,23.5 Z M20.7321429,22 L13.9821429,22 C13.7169643,22 13.5,21.7923077 13.5,21.5384615 L13.5,16 L21.2142857,16 L21.2142857,21.5384615 C21.2142857,21.7923077 20.9973214,22 20.7321429,22 Z" id="Shape" fill="#5C63AB" fill-rule="nonzero"></path>
            </g>
        </g>
    </g>
</svg>