<?xml version="1.0" encoding="UTF-8"?>
<svg width="40px" height="40px" viewBox="0 0 40 40" version="1.1" xmlns="http://www.w3.org/2000/svg" xmlns:xlink="http://www.w3.org/1999/xlink">
    <title>Vacation in tool tip@3x</title>
    <g id="Work-Calendar" stroke="none" stroke-width="1" fill="none" fill-rule="evenodd">
        <g id="Work-Calendar/vacation" transform="translate(-221.000000, -223.000000)">
            <g id="Group-29" transform="translate(195.000000, 204.000000)">
                <g id="Vacation-in-tool-tip" transform="translate(26.000000, 19.000000)">
                    <rect id="Rectangle" fill="#5C63AB" x="0" y="0" width="40" height="40" rx="20"></rect>
                    <path d="M26.5,13.4545455 L25.75,13.4545455 L25.75,12.7272727 C25.75,12.3272727 25.4125,12 25,12 C24.5875,12 24.25,12.3272727 24.25,12.7272727 L24.25,13.4545455 L16.75,13.4545455 L16.75,12.7272727 C16.75,12.3272727 16.4125,12 16,12 C15.5875,12 15.25,12.3272727 15.25,12.7272727 L15.25,13.4545455 L14.5,13.4545455 C13.675,13.4545455 13,14.1090909 13,14.9090909 L13,26.5454545 C13,27.3454545 13.675,28 14.5,28 L26.5,28 C27.325,28 28,27.3454545 28,26.5454545 L28,14.9090909 C28,14.1090909 27.325,13.4545455 26.5,13.4545455 Z M25.3125,26 L15.6875,26 C15.309375,26 15,25.6884615 15,25.3076923 L15,17 L26,17 L26,25.3076923 C26,25.6884615 25.690625,26 25.3125,26 Z M23.7321429,24.5 L16.9821429,24.5 C16.7169643,24.5 16.5,24.2923077 16.5,24.0384615 L16.5,18.5 L24.2142857,18.5 L24.2142857,24.0384615 C24.2142857,24.2923077 23.9973214,24.5 23.7321429,24.5 Z" id="Shape" fill="#FFFFFF" fill-rule="nonzero"></path>
                </g>
            </g>
        </g>
    </g>
</svg>