<?xml version="1.0" encoding="UTF-8"?>
<svg width="96px" height="96px" viewBox="0 0 96 96" version="1.1" xmlns="http://www.w3.org/2000/svg" xmlns:xlink="http://www.w3.org/1999/xlink">
    <title>Work Calender Hover@3x</title>
    <g id="Welcome" stroke="none" stroke-width="1" fill="none" fill-rule="evenodd">
        <g id="Manage-Calendar" transform="translate(-229.000000, -512.000000)">
            <g id="Group-8" transform="translate(91.136039, 486.000000)">
                <g id="Work-Calender-Hover" transform="translate(137.863961, 26.000000)">
                    <rect id="Rectangle-Copy-2" fill="#F1F1F5" x="0" y="0" width="96" height="96" rx="15"></rect>
                    <g id="Group-7" transform="translate(22.000000, 20.000000)" fill-rule="nonzero">
                        <path d="M50.8575251,9.21209929 C50.0489095,8.40395455 49.1596493,8.00014842 48.0276888,8.00014842 L44.0658921,8.00014842 L44.0658921,5.01014149 C44.0658921,3.63637207 43.5806214,2.50507074 42.6106257,1.45441896 C41.6406041,0.484962164 40.4274013,0 39.0528315,0 L37.0315199,0 C35.65695,0 34.5249895,0.484988138 33.4737256,1.45441896 C32.5037039,2.42387575 32.0184592,3.63637207 32.0184592,5.01014149 L32.0184592,8.00014842 L20.0517228,8.00014842 L20.0517228,5.01014149 C20.0517228,3.63637207 19.5664521,2.50507074 18.5964565,1.45441896 C17.6264348,0.484962164 16.413232,0 15.0386622,0 L13.0173506,0 C11.6427807,0 10.5108203,0.484988138 9.45955632,1.45441896 C8.48953467,2.42387575 8.00428994,3.63637207 8.00428994,5.01014149 L8.00428994,8.00014842 L4.04249323,8.00014842 C2.99125527,8.00014842 2.02118164,8.40396754 1.21265701,9.21209929 C0.40404141,10.020244 0,10.9089863 0,12.0402877 L0,51.9598608 C0,53.0104866 0.404054404,53.9799953 1.21265701,54.7880491 C2.02127261,55.5961939 2.91053275,56 4.04249323,56 L47.9473821,56 C48.9986201,56 49.9686937,55.5961809 50.7772184,54.7880491 C51.585743,53.9799174 51.9898754,53.0911621 51.9898754,51.9598608 L51.9898754,12.0402877 C52.0705836,10.9089993 51.6665305,10.0201531 50.8579279,9.21209929 L50.8575251,9.21209929 Z M36.0605626,6.06066341 L40.0223593,6.06066341 L40.0223593,12.2827558 L36.0605626,12.2827558 L36.0605626,6.06066341 Z M12.1270899,6.06066341 L16.0888866,6.06066341 L16.0888866,12.2827558 L12.1270899,12.2827558 L12.1270899,6.06066341 Z M48.027299,51.8789515 L4.12241009,51.8789515 L4.12241009,19.9593969 L48.027299,19.9593969 L48.027299,51.8789515 Z" id="Shape" fill="#4394AD"></path>
                        <path d="M27.4645314,33.6484053 L34.1182715,33.6484053 C34.3588343,33.6484053 34.599397,33.7287647 34.7594372,33.8899919 C34.9199799,34.0512178 35,34.2922999 35,34.5338865 L35,36.4661135 C35,36.7077001 34.9199812,36.9492868 34.7594372,37.1908734 C34.5988946,37.43246 34.3588343,37.43246 34.1182715,37.43246 L27.4645314,37.43246 L27.4645314,44.1145188 C27.4645314,44.3561054 27.3845126,44.5976921 27.2239687,44.7584134 C27.063426,44.9196393 26.8233657,45 26.5022804,45 L24.5782422,45 C24.3376794,45 24.0971166,44.9196406 23.8565539,44.7584134 C23.6159911,44.5971875 23.6159911,44.3561054 23.6159911,44.1145188 L23.6159911,37.43246 L16.962251,37.43246 C16.7216883,37.43246 16.4811255,37.3521006 16.2405628,37.1908734 C16,37.0296474 16,36.7885654 16,36.4661135 L16,34.5338865 C16,34.2922999 16.0800188,34.0507132 16.2405628,33.8899919 C16.4011054,33.728766 16.6411657,33.6484053 16.962251,33.6484053 L23.6159911,33.6484053 L23.6159911,26.9663464 C23.6159911,26.7247598 23.6960099,26.4831732 23.8565539,26.2415866 C24.0170965,26 24.2571568,26 24.5782422,26 L26.5022804,26 C26.7428432,26 26.9834059,26.0803594 27.2239687,26.2415866 C27.4645314,26.4028125 27.4645314,26.6438946 27.4645314,26.9663464 L27.4645314,33.6484053 Z" id="Path" fill="#5C63AB"></path>
                    </g>
                </g>
            </g>
        </g>
    </g>
</svg>