<?xml version="1.0" encoding="UTF-8"?>
<svg width="36px" height="36px" viewBox="0 0 36 36" version="1.1" xmlns="http://www.w3.org/2000/svg" xmlns:xlink="http://www.w3.org/1999/xlink">
    <title>Icon/ 36px/ Add</title>
    <g id="Symbol" stroke="none" stroke-width="1" fill="none" fill-rule="evenodd">
        <g id="Icon/-36px/-Add">
            <g id="Icon/-More"></g>
            <path d="M19,17 L26,17 C26.5522847,17 27,17.4477153 27,18 C27,18.5522847 26.5522847,19 26,19 L19,19 L19,26 C19,26.5522847 18.5522847,27 18,27 C17.4477153,27 17,26.5522847 17,26 L17,19 L10,19 C9.44771525,19 9,18.5522847 9,18 C9,17.4477153 9.44771525,17 10,17 L17,17 L17,10 C17,9.44771525 17.4477153,9 18,9 C18.5522847,9 19,9.44771525 19,10 L19,17 Z" id="Path" fill="#485CBA"></path>
        </g>
    </g>
</svg>