<?xml version="1.0" encoding="UTF-8"?>
<svg width="14px" height="14px" viewBox="0 0 14 14" version="1.1" xmlns="http://www.w3.org/2000/svg" xmlns:xlink="http://www.w3.org/1999/xlink">
    <title>24 h seleted@3x</title>
    <g id="Work-Calendar" stroke="none" stroke-width="1" fill="none" fill-rule="evenodd">
        <g id="Work-Calendar-/24h-Shift-" transform="translate(-1081.000000, -171.000000)">
            <g id="Group-14" transform="translate(922.000000, 161.000000)">
                <g id="Group-12" transform="translate(150.000000, 0.000000)">
                    <g id="24-h-seleted" transform="translate(9.000000, 8.000000)">
                        <g transform="translate(0.000000, 2.000000)">
                            <rect id="Rectangle" x="0" y="0" width="14" height="14"></rect>
                            <g id="Group-5" transform="translate(0.500000, 0.500000)" fill="#64B7FF" fill-rule="nonzero">
                                <path d="M6.50012187,4 L6.50715654,4 C7.19359444,4.00172778 7.81643408,4.28125908 8.26752997,4.73247482 C8.7204583,5.18366844 9,5.80998749 9,6.5 C9,7.19001251 8.72046778,7.81633156 8.26752997,8.26752518 C7.8163393,8.7187188 7.19359444,8.99826233 6.50715654,9 L6.43458881,9 L6.42755414,8.99827222 L6.39571393,8.99827222 L6.37090777,8.99654441 L6.3638731,8.99654441 L6.33906693,8.99481663 L6.33203226,8.99481663 L6.30722609,8.99308882 L6.30019142,8.99308882 L6.27538526,8.99136104 L6.26835059,8.98963323 L6.24354442,8.98790545 L6.23823761,8.98617763 L6.21343145,8.98444985 L6.20639678,8.98272204 L6.18159061,8.98099426 L6.17455594,8.97926645 L6.14974978,8.97568748 L6.14444297,8.97568748 L6.1196368,8.97210852 L6.11260213,8.97038071 L6.08779597,8.96680174 L6.08248916,8.96507396 L6.05768299,8.961495 L6.05237619,8.95976722 L6.02584247,8.95618825 L6.02053567,8.95446044 L5.9957295,8.9491536 L5.9904227,8.9491536 L5.96561653,8.94384676 L5.96030972,8.94211898 L5.93550356,8.93681214 L5.93019675,8.93508436 L5.90539058,8.92977752 L5.90008378,8.9280497 L5.87527761,8.92274286 L5.8699708,8.92101505 L5.84516464,8.91398034 L5.83985783,8.91225252 L5.81505167,8.90521781 L5.80974486,8.90521781 L5.78493869,8.89818309 L5.78135975,8.89645528 L5.75655358,8.88942057 L5.75124678,8.88769279 L5.72644061,8.87880698 L5.72286167,8.87880698 L5.6980555,8.86992117 L5.6927487,8.86819336 L5.66794253,8.85930755 L5.66436359,8.85757977 L5.63955742,8.84869397 L5.63597848,8.84869397 L5.61117231,8.83808029 L5.60759337,8.83635251 L5.5827872,8.8274667 L5.57920826,8.82573889 L5.55440209,8.81685308 L5.55082315,8.8151253 L5.52601698,8.80451162 L5.52243804,8.80278384 L5.49763187,8.79217016 L5.49405293,8.79044238 L5.46924676,8.7798287 L5.46751896,8.77810092 L5.4427128,8.76748724 L5.43913385,8.76575946 L5.41432769,8.75514577 L5.41259992,8.75341799 L5.38779375,8.74107675 L5.38421481,8.73934894 L5.36126004,8.7270077 L5.3576811,8.7270077 L5.33287493,8.71466646 L5.33114713,8.71293868 L5.30634096,8.70059744 L5.30461316,8.69886963 L5.27980699,8.68467698 L5.27807919,8.68467698 L5.25512442,8.67048434 L5.25154548,8.66875652 L5.22859071,8.65456388 L5.22686294,8.65456388 L5.20205677,8.64037123 L5.200329,8.63864342 L5.17737423,8.62445077 L5.17564646,8.62272296 L5.1508403,8.60680244 L5.1491125,8.60680244 L5.12615773,8.59088191 L5.12442993,8.59088191 L5.10147515,8.57496139 L5.09974735,8.57323361 L5.07679258,8.55731309 L5.07506478,8.55731309 L5.05211001,8.53966501 L5.05038221,8.53966501 L5.02742744,8.52201693 L5.02569964,8.52201693 L4.97979073,8.48672013 L4.97806296,8.48672013 L4.95510819,8.46907205 L4.95510819,8.46734424 L4.93215342,8.44969616 L4.90919864,8.43019667 L4.88624387,8.41254859 L4.88624387,8.41082081 L4.84033496,8.3718212 L4.81910774,8.35232172 L4.79615297,8.33282223 L4.79615297,8.33109442 L4.77492574,8.31159493 L4.73247003,8.26913894 C4.2795417,7.81794532 4,7.19162627 4,6.50161376 C4,5.81160125 4.27953222,5.1852822 4.73247003,4.73408858 C5.1836607,4.28115729 5.80997565,4.00161376 6.49998365,4.00161376 L6.50012187,4 Z M6.76545901,4.54843989 L6.76545901,8.45156011 C7.20246408,8.39318391 7.59530105,8.18967446 7.89247208,7.89250464 C8.24815477,7.53681962 8.46931118,7.04329007 8.46931118,6.50015797 C8.46931118,5.95702587 8.24815477,5.46336994 7.89247208,5.1078113 C7.59529473,4.81063201 7.20246408,4.60710991 6.76545901,4.54875583 L6.76545901,4.54843989 Z" id="Shape"></path>
                                <path d="M6,0.406454173 C6,0.181487325 6.223489,0 6.5,0 C6.77674319,0 7,0.181676072 7,0.406454173 L7,2.59354583 C7,2.81851268 6.776511,3 6.5,3 C6.22325681,3 6,2.81832393 6,2.59354583 L6,0.406454173 Z" id="Path"></path>
                                <path d="M6,10.4064542 C6,10.1814873 6.223489,10 6.5,10 C6.77674319,10 7,10.1816761 7,10.4064542 L7,12.5935458 C7,12.8185127 6.776511,13 6.5,13 C6.22325681,13 6,12.8183239 6,12.5935458 L6,10.4064542 Z" id="Path"></path>
                                <path d="M12.5935458,6 C12.8185127,6 13,6.223489 13,6.5 C13,6.77674319 12.8183239,7 12.5935458,7 L10.4064542,7 C10.1814873,7 10,6.776511 10,6.5 C10,6.22325681 10.1816761,6 10.4064542,6 L12.5935458,6 Z" id="Path"></path>
                                <path d="M2.59354583,6 C2.81851268,6 3,6.223489 3,6.5 C3,6.77674319 2.81832393,7 2.59354583,7 L0.406454173,7 C0.181487325,7 0,6.776511 0,6.5 C0,6.22325681 0.181676072,6 0.406454173,6 L2.59354583,6 Z" id="Path"></path>
                                <path d="M10.8983401,10.4114356 C11.0338866,10.5445786 11.0338866,10.7652012 10.8983401,10.8983401 C10.7651971,11.0338866 10.5445745,11.0338866 10.4114356,10.8983401 L9.09985726,9.58676178 C8.96671425,9.45361877 8.96671425,9.23539973 9.09985726,9.09985726 C9.23540384,8.96671425 9.45362287,8.96671425 9.58676178,9.09985726 L10.8983401,10.4114356 Z" id="Path"></path>
                                <path d="M3.90014274,3.41323822 C4.03328575,3.54638123 4.03328575,3.76460027 3.90014274,3.90014274 C3.76459616,4.03328575 3.54637713,4.03328575 3.41323822,3.90014274 L2.10165993,2.58856445 C1.96611336,2.45301788 1.96611336,2.23479885 2.10165993,2.10165993 C2.23480295,1.96611336 2.45302198,1.96611336 2.58856445,2.10165993 L3.90014274,3.41323822 Z" id="Path"></path>
                                <path d="M10.4114356,2.10165993 C10.5445786,1.96611336 10.7652012,1.96611336 10.8983401,2.10165993 C11.0338866,2.23480295 11.0338866,2.45542553 10.8983401,2.58856445 L9.58676178,3.90014274 C9.45361877,4.03328575 9.23539973,4.03328575 9.09985726,3.90014274 C8.96671425,3.76459616 8.96671425,3.54637713 9.09985726,3.41323822 L10.4114356,2.10165993 Z" id="Path"></path>
                                <path d="M3.41323822,9.09985726 C3.54638123,8.96671425 3.76460027,8.96671425 3.90014274,9.09985726 C4.03328575,9.23540384 4.03328575,9.45362287 3.90014274,9.58676178 L2.58856445,10.8983401 C2.45301788,11.0338866 2.23479885,11.0338866 2.10165993,10.8983401 C1.96611336,10.7651971 1.96611336,10.546978 2.10165993,10.4114356 L3.41323822,9.09985726 Z" id="Path"></path>
                            </g>
                        </g>
                    </g>
                </g>
            </g>
        </g>
    </g>
</svg>