<?xml version="1.0" encoding="UTF-8"?>
<svg width="24px" height="24px" viewBox="0 0 24 24" version="1.1" xmlns="http://www.w3.org/2000/svg" xmlns:xlink="http://www.w3.org/1999/xlink">
    <title>Icon/ Calendar</title>
    <g id="Symbol" stroke="none" stroke-width="1" fill="none" fill-rule="evenodd">
        <g id="Icon/-Calendar">
            <rect id="Icon-Spacing" fill="#4394AD" opacity="0" x="0" y="0" width="24" height="24" rx="5"></rect>
            <path d="M8.49506248,5.8 C8.44489003,6.30533227 8.01853481,6.7 7.5,6.7 C6.98146519,6.7 6.55510997,6.30533227 6.50493752,5.8 L4,5.8 L4,7.4 L20,7.4 L20,5.8 L18.3950625,5.8 C18.34489,6.30533227 17.9185348,6.7 17.4,6.7 C16.8814652,6.7 16.45511,6.30533227 16.4049375,5.8 L8.49506248,5.8 L8.49506248,5.8 Z M8.49506248,5.8 L16.4049375,5.8 L8.49506248,5.8 L8.49506248,5.8 Z M6.5,3.8 L6.5,3 C6.5,2.44771525 6.94771525,2 7.5,2 C8.05228475,2 8.5,2.44771525 8.5,3 L8.5,3.8 L16.4,3.8 L16.4,3 C16.4,2.44771525 16.8477153,2 17.4,2 C17.9522847,2 18.4,2.44771525 18.4,3 L18.4,3.8 L20.1,3.8 C21.149341,3.8 22,4.65065898 22,5.7 L22,19 C22,20.6568542 20.6568542,22 19,22 L5,22 C3.34314575,22 2,20.6568542 2,19 L2,5.7 C2,4.65065898 2.85065898,3.8 3.9,3.8 L6.5,3.8 Z M20,9.4 L4,9.4 L4,19 C4,19.5522847 4.44771525,20 5,20 L19,20 C19.5522847,20 20,19.5522847 20,19 L20,9.4 L20,9.4 Z M6.6,13 C6.04771525,13 5.6,12.5522847 5.6,12 C5.6,11.4477153 6.04771525,11 6.6,11 L10.2,11 C10.7522847,11 11.2,11.4477153 11.2,12 C11.2,12.5522847 10.7522847,13 10.2,13 L6.6,13 Z M6.6,16.6 C6.04771525,16.6 5.6,16.1522847 5.6,15.6 C5.6,15.0477153 6.04771525,14.6 6.6,14.6 L13.8,14.6 C14.3522847,14.6 14.8,15.0477153 14.8,15.6 C14.8,16.1522847 14.3522847,16.6 13.8,16.6 L6.6,16.6 Z" id="Shape" fill="#92929D"></path>
        </g>
    </g>
</svg>