<?xml version="1.0" encoding="UTF-8"?>
<svg width="25px" height="24px" viewBox="0 0 25 24" version="1.1" xmlns="http://www.w3.org/2000/svg" xmlns:xlink="http://www.w3.org/1999/xlink">
    <title>Icon/Care Plans</title>
    <g id="Symbol" stroke="none" stroke-width="1" fill="none" fill-rule="evenodd">
        <g id="health_and_safety_black_24dp" transform="translate(0.500000, 0.000000)">
            <rect id="Rectangle" x="0" y="0" width="24" height="24"></rect>
            <path d="M10.6875,12.8125 L8.5,12.8125 L8.5,10.1875 L10.6875,10.1875 L10.6875,8 L13.3125,8 L13.3125,10.1875 L15.5,10.1875 L15.5,12.8125 L13.3125,12.8125 L13.3125,15 L10.6875,15 L10.6875,12.8125 Z M12,2 L4,5 L4,11.09 C4,16.14 7.41,20.85 12,22 C16.59,20.85 20,16.14 20,11.09 L20,5 L12,2 Z M18,11.09 C18,15.09 15.45,18.79 12,19.92 C8.55,18.79 6,15.1 6,11.09 L6,6.39 L12,4.14 L18,6.39 L18,11.09 Z" id="Shape" fill="#5C63AB" fill-rule="nonzero"></path>
        </g>
    </g>
</svg>