<?xml version="1.0" encoding="UTF-8"?>
<svg width="145px" height="58px" viewBox="0 0 145 58" version="1.1" xmlns="http://www.w3.org/2000/svg" xmlns:xlink="http://www.w3.org/1999/xlink">
    <title>Group 15@2x</title>
    <g id="Manage-Credentials" stroke="none" stroke-width="1" fill="none" fill-rule="evenodd">
        <g id="Manage-Credentials/Added-user" transform="translate(-1174.000000, -575.000000)">
            <g id="Group-13" transform="translate(127.000000, 265.000000)">
                <g id="Group-15" transform="translate(1047.000000, 310.000000)">
                    <rect id="Rectangle" fill-opacity="0.1" fill="#5563AB" x="0" y="0" width="145" height="58" rx="16"></rect>
                    <g id="Group-67" transform="translate(53.000000, 9.000000)">
                        <g id="Group-65" transform="translate(12.000000, 12.000000)" fill-rule="nonzero">
                            <path d="M8,0 C3.584,0 0,3.584 0,8 C0,12.416 3.584,16 8,16 C12.416,16 16,12.416 16,8 C16,3.584 12.416,0 8,0 Z" id="Path" fill="#5C63AB"></path>
                            <path d="M9.89259797,12.0541979 L7.59361393,9.28924425 C7.4682148,9.13842859 7.38461538,8.92058375 7.38461538,8.70273892 L7.38461538,4.53017245 C7.38461538,4.06096818 7.69114659,3.69230769 8.08127721,3.69230769 L8.08127721,3.69230769 C8.47140784,3.69230769 8.77793904,4.06096818 8.77793904,4.53017245 L8.77793904,8.36759302 L10.8679245,10.8811873 C11.1465893,11.2163332 11.1465893,11.7358093 10.8679245,12.0709552 L10.8679245,12.0709552 C10.603193,12.3893438 10.1712627,12.3893438 9.89259797,12.0541979 Z" id="Path" fill="#EFF3F6"></path>
                        </g>
                        <g id="Group-66" transform="translate(20.000000, 20.000000) rotate(-15.000000) translate(-20.000000, -20.000000) translate(3.670068, 3.670068)" stroke="#5C63AB">
                            <circle id="Oval" stroke-width="2.5" cx="16.3299316" cy="16.3299316" r="15.0799316"></circle>
                            <line x1="24.4948974" y1="24.4948974" x2="26.244533" y2="26.244533" id="Line-8" stroke-width="2" stroke-linecap="square"></line>
                            <line x1="5.83211844" y1="5.83211844" x2="8.16496581" y2="8.16496581" id="Line-8-Copy" stroke-width="2" stroke-linecap="square"></line>
                        </g>
                    </g>
                </g>
            </g>
        </g>
    </g>
</svg>