<?xml version="1.0" encoding="UTF-8"?>
<svg width="85px" height="85px" viewBox="0 0 85 85" version="1.1" xmlns="http://www.w3.org/2000/svg" xmlns:xlink="http://www.w3.org/1999/xlink">
    <title>Group 19@2x</title>
    <g id="Manage-Credentials" stroke="none" stroke-width="1" fill="none" fill-rule="evenodd">
        <g id="Manage-Credentials/View-Profile" transform="translate(-1120.000000, -705.000000)" fill="#173E67">
            <g id="Group-62" transform="translate(995.000000, 0.000000)">
                <g id="Group-63" transform="translate(43.000000, 689.000000)">
                    <g id="Group-19" transform="translate(82.000000, 16.000000)">
                        <rect id="Rectangle" fill-opacity="0.1" x="0" y="0" width="84.5394098" height="84.5901639" rx="10"></rect>
                        <path d="M54,28.5212726 L54,22 L62,30 L55.4787274,30 C55.0866027,30 54.7103131,29.8442013 54.4330559,29.5669441 C54.1557987,29.2896869 54,28.9133973 54,28.5212726 L54,28.5212726 Z M63,32.9998163 L63,58.4999724 C63,59.6936369 62.5258991,60.8380153 61.6821483,61.6821348 C60.8380633,62.5258942 59.6936709,63 58.5000187,63 L38.7301009,63 C38.9102373,62.5205285 39.0019769,62.0123082 38.9999626,61.5 L38.9999626,49.9053484 C41.0339541,47.5823056 42.0944069,44.5645443 41.960436,41.4798397 C41.826508,38.3951351 40.5086135,35.4808315 38.2810799,33.3425899 C36.0535463,31.2044339 33.0876729,30.0074266 30,30.0000551 L30,25.5000276 C30,24.3063631 30.4741009,23.1619847 31.3178517,22.3178652 C32.1619367,21.4741058 33.3063291,21 34.4999813,21 L50.9999127,21 L50.9999127,28.5000459 C50.9999127,29.6937104 51.4740136,30.8380888 52.3177644,31.6822083 C53.1618495,32.5259677 54.3062418,33.0000735 55.499894,33.0000735 L63,32.9998163 Z M41.5999863,33 L46.4000137,33 C46.9718021,33 47.5,32.7140657 47.7857131,32.25 C48.071429,31.7859343 48.071429,31.2140571 47.7857131,30.75 C47.5,30.2859429 46.9717838,30 46.4000137,30 L41.5999863,30 C41.0281979,30 40.5,30.2859343 40.2142869,30.75 C39.928571,31.2140657 39.928571,31.7859429 40.2142869,32.25 C40.5,32.7140571 41.0282162,33 41.5999863,33 Z M57,53.5 C57,53.1022343 56.8419598,52.7205314 56.5607137,52.4392857 C56.2794675,52.15804 55.8977641,52 55.5,52 L43.4999807,52 C42.9639314,52 42.4687507,52.2859343 42.2008931,52.75 C41.9330356,53.2140657 41.9330356,53.7859429 42.2008931,54.25 C42.4687507,54.7140571 42.9639485,55 43.4999807,55 L55.5,55 C55.8977641,55 56.2794675,54.84196 56.5607137,54.5607143 C56.8419598,54.2794686 57,53.8977657 57,53.5 Z M57,46.5 C57,46.1022343 56.8419597,45.7205314 56.5607135,45.4392857 C56.2794673,45.15804 55.8977637,45 55.5,45 L46.4999812,45 C45.9639317,45 45.4687508,45.2859343 45.2008932,45.75 C44.9330356,46.2140657 44.9330356,46.7859429 45.2008932,47.25 C45.4687508,47.7140571 45.9639489,48 46.4999812,48 L55.5,48 C55.8977637,48 56.2794673,47.84196 56.5607135,47.5607143 C56.8419597,47.2794686 57,46.8977657 57,46.5 Z M57,38.5 C57,38.1022343 56.8419597,37.7205314 56.5607135,37.4392857 C56.2794673,37.15804 55.8977637,37 55.5,37 L46.4999812,37 C45.9639317,37 45.4687508,37.2859343 45.2008932,37.75 C44.9330356,38.2140657 44.9330356,38.7859429 45.2008932,39.25 C45.4687508,39.7140571 45.9639489,40 46.4999812,40 L55.5,40 C55.8977637,40 56.2794673,39.84196 56.5607135,39.5607143 C56.8419597,39.2794686 57,38.8977657 57,38.5 Z M24,52 L24,61.445963 C24.0013393,61.7525218 24.0907371,62.052147 24.2561398,62.3063446 C24.4215426,62.5608885 24.6559195,62.7589075 24.9301365,62.8754284 C25.2030163,62.9943729 25.5043532,63.0266259 25.7953359,62.9687161 C26.0862928,62.9108028 26.3541497,62.7644561 26.5650925,62.5490988 L30,58.9757904 L33.4349161,62.5490988 C33.7181759,62.8397042 34.1012071,63.0020078 34.5,62.9995753 C34.6968781,63.0047772 34.8920751,62.9621217 35.0698635,62.8754284 C35.3440805,62.7589075 35.5784574,62.5608885 35.7438602,62.3063446 C35.9092629,62.052147 35.9986629,61.7525218 36,61.445963 L36,52 C34.1782299,53.0982708 32.1080599,53.6771023 30,53.6771023 C27.8919486,53.6771023 25.8217787,53.0983151 24,52 L24,52 Z M30,33 C27.6130286,33 25.3238571,33.9481714 23.6360571,35.6360571 C21.9482571,37.3239429 21,39.6130286 21,42 C21,44.3869714 21.9481714,46.6761429 23.6360571,48.3639429 C25.3239429,50.0517429 27.6130286,51 30,51 C32.3869714,51 34.6761429,50.0518286 36.3639429,48.3639429 C38.0517429,46.6760571 39,44.3869714 39,42 C39,39.6130286 38.0518286,37.3238571 36.3639429,35.6360571 C34.6760571,33.9482571 32.3869714,33 30,33 Z" id="Shape" fill-rule="nonzero"></path>
                    </g>
                </g>
            </g>
        </g>
    </g>
</svg>