<?xml version="1.0" encoding="UTF-8"?>
<svg width="145px" height="58px" viewBox="0 0 145 58" version="1.1" xmlns="http://www.w3.org/2000/svg" xmlns:xlink="http://www.w3.org/1999/xlink">
    <title>Group 21@2x</title>
    <g id="Manage-Credentials" stroke="none" stroke-width="1" fill="none" fill-rule="evenodd">
        <g transform="translate(-1384.000000, -369.000000)" id="Group-13">
            <g transform="translate(127.000000, 265.000000)">
                <g id="Group-21" transform="translate(1257.000000, 104.000000)">
                    <rect id="Rectangle" fill-opacity="0.1" fill="#5563AB" x="0" y="0" width="145" height="58" rx="16"></rect>
                    <g id="Group-68" transform="translate(56.000000, 15.000000)" fill="#5C63AB" fill-rule="nonzero">
                        <path d="M2.61427367,4.8656613 C5.60221658,0.979238227 11.0480076,-0.896966016 15.8233406,0.416671491 C20.4224732,1.5256054 24.0995854,5.26257806 25,9.84852783 C24.2065658,9.84852783 23.5448063,9.86620008 22.7638497,9.84852783 C22.3173755,7.80590987 20.998858,5.85088943 19.4115599,4.50485279 C18.0646711,3.37235588 16.4042051,2.64043005 14.6840101,2.26784004 C13.3565332,2.09406288 12.0051647,2.09406288 10.6776878,2.2604766 C7.80323,2.82304334 5.16619493,4.57112374 3.64011914,7.05407535 C2.03191598,9.57384416 1.66607589,12.7784128 2.53363953,15.6148095 C3.23097553,17.787024 4.64057978,19.7486441 6.54742791,21.0505001 C8.24970423,22.2374865 10.3148342,22.9355405 12.4023625,22.9694123 C12.4023625,23.6391937 12.4605983,24.3032133 12.4605983,24.9987761 C8.69169879,25.0547382 5.00044697,23.1873701 2.68744169,20.2758663 C1.35847158,18.6632732 0.522265663,16.7001804 0.12357463,14.6722893 C-0.0391868783,13.2599817 -0.0421733279,11.8285292 0.12058818,10.4162216 C0.50882664,8.41189349 1.32562063,6.47530905 2.61427367,4.8656613 Z" id="Path" stroke="#5C63AB" stroke-width="0.5"></path>
                        <path d="M23.5085177,13.1211397 C23.9220935,12.9092323 24.4104118,12.9845382 24.7708373,13.2752542 C25.4700959,13.8304166 25.9484486,14.6185021 26.4600202,15.3522972 C28.6690794,18.5204008 30.8764776,21.6902556 33.080554,24.8601105 C33.4625718,25.4432938 34.0389203,25.9844458 33.9907529,26.7567695 C34.110341,27.9336438 33.050657,29.1000103 31.9328398,28.993181 C26.9466776,28.9861758 21.9588544,28.9914297 16.9726922,28.9914297 C16.3980046,28.9809219 15.8199951,29.0264557 15.2502903,28.9336367 C14.7453625,28.7672631 14.2653489,28.4082464 14.0510868,27.8828561 C13.9663785,27.346958 13.9647175,26.7585208 14.2205033,26.2716592 C14.6971951,25.2576559 15.4147241,24.4047723 16.0126649,23.4748314 C17.9725821,20.5781795 19.9507697,17.6990406 21.9123479,14.80414 C22.345855,14.1614125 22.7428213,13.3698244 23.5085177,13.1211397 M23.4029402,17.1929564 C23.2119285,17.4138619 22.9748106,17.6546853 23.0044504,17.9914757 C22.9912772,19.0561682 23.0044504,20.1244821 23.0834897,21.1855532 C23.271208,22.1560893 23.1806422,23.1519751 23.2267484,24.1369967 C23.2366283,24.8178205 24.0566611,25.3048992 24.5144304,24.7761744 C24.9656131,24.5009477 24.8355276,23.8961734 24.8651673,23.4290124 C24.8717539,21.5549363 25.0545323,19.6844817 24.9837262,17.8122163 C24.8849271,17.0263718 23.9282222,16.7909806 23.4029402,17.1929564 M23.8620787,25.0231636 C23.0769152,25.0314235 22.6612405,26.21259 23.3457842,26.6685368 C23.8439341,27.3722808 24.9969368,26.8535587 24.9837407,26.0622597 C25.1107525,25.426247 24.4707453,24.8794412 23.8620787,25.0231636 Z" id="Shape"></path>
                        <path d="M11.9534827,7 L11.8801379,7 C11.3911724,7 11,7.35986023 11,7.80968551 L11,13.1176239 C11,13.511221 11.2200345,13.8823269 11.5989827,14.0847483 L16.6719999,16.8849107 C17.0876206,17.1098233 17.6254826,16.997367 17.8699654,16.6150155 C18.1266723,16.232664 17.9922068,15.7266105 17.564362,15.5016979 L12.8336207,12.9152025 L12.8336207,7.80968551 C12.8336207,7.35986023 12.4424483,7 11.9534827,7 L11.9534827,7 Z" id="Path"></path>
                    </g>
                </g>
            </g>
        </g>
    </g>
</svg>