<?xml version="1.0" encoding="UTF-8"?>
<svg width="85px" height="85px" viewBox="0 0 85 85" version="1.1" xmlns="http://www.w3.org/2000/svg" xmlns:xlink="http://www.w3.org/1999/xlink">
    <title>Group 16@2x</title>
    <g id="Manage-Credentials" stroke="none" stroke-width="1" fill="none" fill-rule="evenodd">
        <g id="Manage-Credentials/View-Profile" transform="translate(-1390.000000, -205.000000)">
            <g id="Group-62" transform="translate(995.000000, 0.000000)">
                <g id="Group-61-Copy" transform="translate(313.000000, 189.000000)">
                    <g id="Group-16" transform="translate(82.000000, 16.000000)">
                        <rect id="Rectangle" fill-opacity="0.1" fill="#5563AB" x="0" y="0" width="84.5394098" height="84.5901639" rx="10"></rect>
                        <path d="M42.6095385,25 C40.5321554,25 38.8409053,26.66686 38.8409053,28.7162363 L23.7686332,28.7162363 C21.6912501,28.7162363 20,30.3821408 20,32.431517 L20,54.7263867 C20,56.7757629 21.6912501,58.442623 23.7686332,58.442623 L61.4501209,58.442623 C63.527504,58.442623 65.2187541,56.7757629 65.2187541,54.7263867 L65.2187541,32.431517 C65.2187541,30.3821408 63.527504,28.7162363 61.4501209,28.7162363 L46.3778488,28.7162363 C46.3778488,26.66686 44.6865987,25 42.6092156,25 L42.6095385,25 Z M42.6096024,26.567623 C44.0604529,26.567623 45.2383744,27.5061364 45.2383744,28.6583841 L45.2383744,32.8381148 L39.9803797,32.8381148 L39.9803797,28.6583841 C39.9803797,27.5061364 41.158752,26.567623 42.6091517,26.567623 L42.6096024,26.567623 Z M34.1965856,34.4057377 C36.807049,34.4057377 38.9287808,36.5156107 38.9287808,39.1086066 C38.9287808,41.7016024 36.807049,43.8114754 34.1965856,43.8114754 C31.5861221,43.8114754 29.4643904,41.7016024 29.4643904,39.1086066 C29.4643904,36.5156107 31.5861221,34.4057377 34.1965856,34.4057377 L34.1965856,34.4057377 Z M34.1965856,36.4959016 C32.7471067,36.4959016 31.5675883,37.6681104 31.5675883,39.1086066 C31.5675883,40.5491028 32.7471067,41.7213115 34.1965856,41.7213115 C35.6460645,41.7213115 36.8255829,40.5491028 36.8255829,39.1086066 C36.8255829,37.6681104 35.6460645,36.4959016 34.1965856,36.4959016 L34.1965856,36.4959016 Z M43.0187417,41.7213115 L57.9739964,41.7213115 C58.4910207,41.7213115 58.9091605,42.1888302 58.9091605,42.7669309 C58.9091605,43.3450317 58.4910287,43.8114754 57.9739964,43.8114754 L43.0187417,43.8114754 C42.5017174,43.8114754 42.0835776,43.3450137 42.0835776,42.7669309 C42.0835776,42.1888481 42.5017094,41.7213115 43.0187417,41.7213115 L43.0187417,41.7213115 Z M33.6709464,44.8565574 C36.2488971,44.8565574 38.5714242,45.8992127 40.0646262,46.7735334 C41.3096155,47.5038778 42.0835776,48.9219097 42.0835776,50.4741076 L42.0835776,51.0688368 C42.0835776,52.2536289 41.1856694,53.2172131 40.0812111,53.2172131 L27.2603611,53.2172131 C26.1555824,53.2172131 25.2579947,52.2535493 25.2579947,51.0688368 L25.2579947,50.4741076 C25.2579947,48.9219893 26.0319728,47.5038858 27.276946,46.7735334 C28.770148,45.8992127 31.0923547,44.8565574 33.6706259,44.8565574 L33.6709464,44.8565574 Z M33.6706239,46.9467213 C31.5895745,46.9467213 29.667976,47.7589962 28.4216486,48.4397135 C27.7773715,48.7923895 27.3611925,49.5338769 27.3611925,50.3301729 L27.3611925,50.8653456 C27.3611925,51.039165 27.468621,51.1270492 27.4897497,51.1270492 L39.8518225,51.1270492 C39.8729466,51.1270492 39.9803797,51.0391578 39.9803797,50.8653456 L39.9803797,50.3301729 C39.9803797,49.5341636 39.5642394,48.7923967 38.9199237,48.4397135 C37.6735962,47.7587167 35.7519204,46.9467213 33.6709484,46.9467213 L33.6706239,46.9467213 Z M47.1908361,46.9467213 L58.0073706,46.9467213 C58.5059433,46.9467213 58.9091605,47.4142401 58.9091605,47.9923408 C58.9091605,48.5704415 58.505951,49.0368852 58.0073706,49.0368852 L47.1908361,49.0368852 C46.6922634,49.0368852 46.2899733,48.5704236 46.2899733,47.9923408 C46.2899733,47.414258 46.6922711,46.9467213 47.1908361,46.9467213 Z" id="Shape" fill="#173E67" fill-rule="nonzero"></path>
                    </g>
                </g>
            </g>
        </g>
    </g>
</svg>