<?xml version="1.0" encoding="UTF-8"?>
<svg width="145px" height="58px" viewBox="0 0 145 58" version="1.1" xmlns="http://www.w3.org/2000/svg" xmlns:xlink="http://www.w3.org/1999/xlink">
    <title>Group 22@2x</title>
    <g id="Manage-Credentials" stroke="none" stroke-width="1" fill="none" fill-rule="evenodd">
        <g transform="translate(-1384.000000, -575.000000)" id="Group-13">
            <g transform="translate(127.000000, 265.000000)">
                <g id="Group-22" transform="translate(1257.000000, 310.000000)">
                    <rect id="Rectangle" fill-opacity="0.1" fill="#5563AB" x="0" y="0" width="145" height="58" rx="16"></rect>
                    <g id="Group-14" transform="translate(59.000000, 14.000000)" fill-rule="nonzero">
                        <path d="M21,2.95238095 L16.23,2.95238095 C15.6,1.24 13.95,0 12,0 C10.05,0 8.4,1.24 7.77,2.95238095 L3,2.95238095 C1.35,2.95238095 0,4.28095238 0,5.9047619 L0,28.047619 C0,29.6714286 1.35,31 3,31 L12.165,31 C11.28,30.1585714 10.56,29.1547619 10.035,28.047619 L3,28.047619 L3,5.9047619 L6,5.9047619 L6,7.38095238 C6,9.0047619 7.35,10.3333333 9,10.3333333 L15,10.3333333 C16.65,10.3333333 18,9.0047619 18,7.38095238 L18,5.9047619 L21,5.9047619 L21,13.4038095 C22.065,13.5514286 23.07,13.8614286 24,14.2895238 L24,5.9047619 C24,4.28095238 22.65,2.95238095 21,2.95238095 Z" id="Path" fill="#5C63AB"></path>
                        <path d="M12.5,6 C11.675,6 11,5.325 11,4.5 C11,3.675 11.675,3 12.5,3 C13.325,3 14,3.675 14,4.5 C14,5.325 13.325,6 12.5,6 Z" id="Path" fill="#EFF3F6"></path>
                        <path d="M20,15 C15.032,15 11,19.032 11,24 C11,28.968 15.032,33 20,33 C24.968,33 29,28.968 29,24 C29,19.032 24.968,15 20,15 Z" id="Path" fill="#5C63AB"></path>
                        <path d="M21.0377358,27.7646124 L19.1698113,25.1971554 C19.0679245,25.0571123 19,24.8548278 19,24.6525433 L19,20.7780173 C19,20.3423276 19.2490566,20 19.5660377,20 L19.5660377,20 C19.8830189,20 20.1320755,20.3423276 20.1320755,20.7780173 L20.1320755,24.3413364 L21.8301887,26.6753882 C22.0566038,26.9865951 22.0566038,27.4689658 21.8301887,27.7801727 L21.8301887,27.7801727 C21.6150943,28.0758193 21.2641509,28.0758193 21.0377358,27.7646124 Z" id="Path" fill="#EFF3F6"></path>
                    </g>
                </g>
            </g>
        </g>
    </g>
</svg>