<?xml version="1.0" encoding="UTF-8"?>
<svg width="85px" height="85px" viewBox="0 0 85 85" version="1.1" xmlns="http://www.w3.org/2000/svg" xmlns:xlink="http://www.w3.org/1999/xlink">
    <title>Group 18@2x</title>
    <g id="Manage-Credentials" stroke="none" stroke-width="1" fill="none" fill-rule="evenodd">
        <g id="Manage-Credentials/View-Profile" transform="translate(-1390.000000, -455.000000)" fill="#173E67">
            <g id="Group-62" transform="translate(995.000000, 0.000000)">
                <g id="Group-61-Copy-3" transform="translate(313.000000, 439.000000)">
                    <g id="Group-18" transform="translate(82.000000, 16.000000)">
                        <rect id="Rectangle" fill-opacity="0.1" x="0" y="0" width="84.5394098" height="84.5901639" rx="10"></rect>
                        <path d="M59,31 L50,31 L50,22 L59,31 Z M59,34.2307692 L59,59.0384615 C58.9985268,60.353789 58.4766389,61.6152484 57.5484714,62.5450879 C56.6207189,63.4753811 55.3621743,63.9984879 54.05,64 L30.95,64 C29.6377314,63.9985234 28.3792057,63.4754189 27.4515286,62.5450879 C26.5233989,61.6151727 26.0015086,60.3536945 26,59.0384615 L26,25.9615385 C26.0014732,24.646211 26.5233611,23.3847516 27.4515286,22.4549121 C28.3792811,21.5246189 29.6378257,21.0015121 30.95,21 L45.8,21 L45.8,32.5769231 C45.8,33.0154853 45.973844,33.4363371 46.2832143,33.7464286 C46.5925846,34.05652 47.0124577,34.2307692 47.45,34.2307692 L59,34.2307692 Z M53,53.5 C53,53.1022343 52.8243998,52.7205314 52.5119042,52.4392857 C52.1994086,52.15804 51.7752938,52 51.3333313,52 L34.6666448,52 C34.0710346,52 33.520834,52.2859343 33.2232146,52.75 C32.9255951,53.2140657 32.9255951,53.7859429 33.2232146,54.25 C33.520834,54.7140571 34.0710537,55 34.6666448,55 L51.3333313,55 C51.7752938,55 52.1994086,54.84196 52.5119042,54.5607143 C52.8243998,54.2794686 53,53.8977657 53,53.5 Z M53,47.5 C53,47.1022343 52.8243998,46.7205314 52.5119042,46.4392857 C52.1994086,46.15804 51.7752938,46 51.3333313,46 L34.6666448,46 C34.0710346,46 33.520834,46.2859343 33.2232146,46.75 C32.9255951,47.2140657 32.9255951,47.7859429 33.2232146,48.25 C33.520834,48.7140571 34.0710537,49 34.6666448,49 L51.3333313,49 C51.7752938,49 52.1994086,48.84196 52.5119042,48.5607143 C52.8243998,48.2794686 53,47.8977657 53,47.5 Z M53,41.5 C53,41.1022343 52.8243998,40.7205314 52.5119042,40.4392857 C52.1994086,40.15804 51.7752938,40 51.3333313,40 L34.6666448,40 C34.0710346,40 33.520834,40.2859343 33.2232146,40.75 C32.9255951,41.2140657 32.9255951,41.7859429 33.2232146,42.25 C33.520834,42.7140571 34.0710537,43 34.6666448,43 L51.3333313,43 C51.7752938,43 52.1994086,42.84196 52.5119042,42.5607143 C52.8243998,42.2794686 53,41.8977657 53,41.5 Z" id="Shape" fill-rule="nonzero"></path>
                    </g>
                </g>
            </g>
        </g>
    </g>
</svg>