<?xml version="1.0" encoding="UTF-8"?>
<svg width="145px" height="58px" viewBox="0 0 145 58" version="1.1" xmlns="http://www.w3.org/2000/svg" xmlns:xlink="http://www.w3.org/1999/xlink">
    <title>Group 16@2x</title>
    <g id="Manage-Credentials" stroke="none" stroke-width="1" fill="none" fill-rule="evenodd">
        <g id="Manage-Credentials/Added-user" transform="translate(-1174.000000, -369.000000)">
            <g id="Group-13" transform="translate(127.000000, 265.000000)">
                <g id="Group-16" transform="translate(1047.000000, 104.000000)">
                    <rect id="Rectangle" fill-opacity="0.1" fill="#5563AB" x="0" y="0" width="145" height="58" rx="16"></rect>
                    <g id="Group-47" transform="translate(57.000000, 15.000000)" fill="#5C63AB" fill-rule="nonzero">
                        <path d="M15.75,28 L14.245,26.495 C12.18,24.43 12.1975,21.07 14.28,19.04 L15.75,17.605 C15.0675,17.535 14.56,17.5 14,17.5 C9.3275,17.5 0,19.845 0,24.5 L0,28 L15.75,28 Z" id="Path"></path>
                        <path d="M14,14 C17.8675,14 21,10.8675 21,7 C21,3.1325 17.8675,0 14,0 C10.1325,0 7,3.1325 7,7 C7,10.8675 10.1325,14 14,14" id="Path" stroke="#5C63AB" stroke-width="2.5"></path>
                        <path d="M22.5652174,27.5101186 C21.8869565,28.1632938 20.773913,28.1632938 20.0956522,27.5101186 L16.4956522,24.0097697 C15.8347826,23.3565946 15.8347826,22.3182135 16.4956522,21.6817865 L16.5130435,21.6650384 C17.1913043,21.0118632 18.2869565,21.0118632 18.9478261,21.6650384 L21.3304348,23.9595255 L29.0347826,16.4898814 C29.7130435,15.8367062 30.8086957,15.8367062 31.4869565,16.4898814 L31.5043478,16.5066294 C32.1652174,17.1598046 32.1652174,18.1981856 31.5043478,18.8346127 L22.5652174,27.5101186 Z" id="Path"></path>
                    </g>
                </g>
            </g>
        </g>
    </g>
</svg>