<?xml version="1.0" encoding="UTF-8"?>
<svg width="17px" height="17px" viewBox="0 0 17 17" version="1.1" xmlns="http://www.w3.org/2000/svg" xmlns:xlink="http://www.w3.org/1999/xlink">
    <title>Day@3x</title>
    <g id="Work-Calendar" stroke="none" stroke-width="1" fill="none" fill-rule="evenodd">
        <g id="Work-Calendar-/Swing-Shift" transform="translate(-945.000000, -170.000000)">
            <g id="Group-15" transform="translate(936.000000, 161.000000)">
                <g id="ic_DayShift" transform="translate(9.500000, 9.500000)">
                    <rect id="Icon-Spacing" fill="#FFD764" opacity="0" x="0" y="0" width="16" height="16" rx="3.31650003"></rect>
                    <path d="M8.00336666,12.6666667 C8.36969714,12.6666667 8.66666667,12.9636362 8.66666667,13.3299667 L8.66666667,15.3367 C8.66666667,15.7030305 8.36969714,16 8.00336666,16 L7.99663334,16 C7.63030286,16 7.33333333,15.7030305 7.33333333,15.3367 L7.33333333,13.3299667 C7.33333333,12.9636362 7.63030286,12.6666667 7.99663334,12.6666667 L8.00336666,12.6666667 Z M4.50946405,11.1524414 L4.51422522,11.1572026 C4.77325999,11.4162374 4.77325999,11.8362157 4.51422522,12.0952505 L3.09525048,13.5142252 C2.83621572,13.77326 2.41623738,13.77326 2.15720262,13.5142252 L2.15244144,13.509464 C1.89340668,13.2504293 1.89340668,12.8304509 2.15244144,12.5714162 L3.57141618,11.1524414 C3.83045095,10.8934067 4.25042928,10.8934067 4.50946405,11.1524414 Z M12.346367,11.0825021 L12.4285838,11.1524414 L13.8475586,12.5714162 C14.0806898,12.8045475 14.104003,13.1680431 13.9174979,13.4272472 L13.8475586,13.509464 C13.6101422,13.7468804 13.2462181,13.770622 12.9869711,13.5841598 L12.9047495,13.5142252 L11.4857748,12.0952505 C11.2526435,11.8621192 11.2293304,11.4986236 11.4158354,11.2394195 L11.4857748,11.1572026 L11.490536,11.1524414 C11.7236672,10.9193102 12.0871628,10.895997 12.346367,11.0825021 Z M8,3.66666667 C10.3932339,3.66666667 12.3333333,5.60676608 12.3333333,8 C12.3333333,10.3932339 10.3932339,12.3333333 8,12.3333333 C5.60676608,12.3333333 3.66666667,10.3932339 3.66666667,8 C3.66666667,5.60676608 5.60676608,3.66666667 8,3.66666667 Z M8,5 C6.34314575,5 5,6.34314575 5,8 C5,9.65685425 6.34314575,11 8,11 C9.65685425,11 11,9.65685425 11,8 C11,6.34314575 9.65685425,5 8,5 Z M2.67003333,7.33333333 C3.03636381,7.33333333 3.33333333,7.63030286 3.33333333,7.99663334 L3.33333333,8.00336666 C3.33333333,8.36969714 3.03636381,8.66666667 2.67003333,8.66666667 L0.663300006,8.66666667 C0.296969528,8.66666667 3.68594044e-14,8.36969714 3.64153152e-14,8.00336666 L3.64153152e-14,7.99663334 C3.68594044e-14,7.63030286 0.296969528,7.33333333 0.663300006,7.33333333 L2.67003333,7.33333333 Z M15.3367,7.33333333 C15.7030305,7.33333333 16,7.63030286 16,7.99663334 L16,8.00336666 C16,8.36969714 15.7030305,8.66666667 15.3367,8.66666667 L13.3299667,8.66666667 C12.9636362,8.66666667 12.6666667,8.36969714 12.6666667,8.00336666 L12.6666667,7.99663334 C12.6666667,7.63030286 12.9636362,7.33333333 13.3299667,7.33333333 L15.3367,7.33333333 Z M13.8427974,2.48577478 L13.8475586,2.49053595 C14.1065933,2.74957072 14.1065933,3.16954905 13.8475586,3.42858382 L12.4285838,4.84755856 C12.1695491,5.10659332 11.7495707,5.10659332 11.490536,4.84755856 L11.4857748,4.84279738 C11.22674,4.58376262 11.22674,4.16378428 11.4857748,3.90474952 L12.9047495,2.48577478 C13.1637843,2.22674001 13.5837626,2.22674001 13.8427974,2.48577478 Z M3.01303364,2.41583539 L3.09525048,2.48577478 L4.51422522,3.90474952 C4.74735651,4.1378808 4.77066964,4.50137638 4.58416461,4.76058053 L4.51422522,4.84279738 C4.27680888,5.08021373 3.91288479,5.10395536 3.65363779,4.91749318 L3.57141618,4.84755856 L2.15244144,3.42858382 C1.91931015,3.19545253 1.89599703,2.83195695 2.08250206,2.5727528 L2.15244144,2.49053595 L2.15720262,2.48577478 C2.39033391,2.25264349 2.75382949,2.22933036 3.01303364,2.41583539 Z M8.00336666,0 C8.36969714,-6.72938171e-17 8.66666667,0.296969528 8.66666667,0.663300006 L8.66666667,2.67003333 C8.66666667,3.03636381 8.36969714,3.33333333 8.00336666,3.33333333 L7.99663334,3.33333333 C7.63030286,3.33333333 7.33333333,3.03636381 7.33333333,2.67003333 L7.33333333,0.663300006 C7.33333333,0.296969528 7.63030286,6.72938171e-17 7.99663334,0 L8.00336666,0 Z" id="Combined-Shape" fill="#C08F00"></path>
                </g>
            </g>
        </g>
    </g>
</svg>