<?xml version="1.0" encoding="UTF-8"?>
<svg width="14px" height="14px" viewBox="0 0 14 14" version="1.1" xmlns="http://www.w3.org/2000/svg" xmlns:xlink="http://www.w3.org/1999/xlink">
    <title>Day shift selected@3x</title>
    <g id="Work-Calendar" stroke="none" stroke-width="1" fill="none" fill-rule="evenodd">
        <g transform="translate(-960.000000, -171.000000)" id="Group-6">
            <g transform="translate(952.000000, 161.000000)">
                <g id="Group-4" transform="translate(8.000000, 8.000000)">
                    <g id="ic_DayShift" transform="translate(0.000000, 2.000000)">
                        <rect id="Icon-Spacing" fill="#FFD764" opacity="0" x="0" y="0" width="14" height="14" rx="3.31649995"></rect>
                        <path d="M7,9.91666667 C7.23011865,9.91666667 7.41666667,10.1032147 7.41666667,10.3333333 L7.41666667,11.5833333 C7.41666667,11.813452 7.23011865,12 7,12 C6.76988135,12 6.58333333,11.813452 6.58333333,11.5833333 L6.58333333,10.3333333 C6.58333333,10.1032147 6.76988135,9.91666667 7,9.91666667 Z M4.8199029,8.97176377 C4.98262135,9.13448222 4.98262135,9.39830097 4.8199029,9.56101942 L3.93601942,10.4449029 C3.77330097,10.6076214 3.50948222,10.6076214 3.34676377,10.4449029 C3.18404531,10.2821844 3.18404531,10.0183657 3.34676377,9.85564725 L4.23064725,8.97176377 C4.3933657,8.80904531 4.65718444,8.80904531 4.8199029,8.97176377 Z M9.70398918,8.91837178 L9.76935275,8.97176377 L10.6532362,9.85564725 C10.8159547,10.0183657 10.8159547,10.2821844 10.6532362,10.4449029 C10.5108576,10.5872815 10.291074,10.6050789 10.1293442,10.4982949 L10.0639806,10.4449029 L9.1800971,9.56101942 C9.01737865,9.39830097 9.01737865,9.13448222 9.1800971,8.97176377 C9.32247575,8.82938512 9.54225931,8.81158779 9.70398918,8.91837178 Z M7,4.29166667 C8.4957712,4.29166667 9.70833333,5.5042288 9.70833333,7 C9.70833333,8.4957712 8.4957712,9.70833333 7,9.70833333 C5.5042288,9.70833333 4.29166667,8.4957712 4.29166667,7 C4.29166667,5.5042288 5.5042288,4.29166667 7,4.29166667 Z M7,5.125 C5.96446609,5.125 5.125,5.96446609 5.125,7 C5.125,8.03553391 5.96446609,8.875 7,8.875 C8.03553391,8.875 8.875,8.03553391 8.875,7 C8.875,5.96446609 8.03553391,5.125 7,5.125 Z M3.66666667,6.58333333 C3.89678531,6.58333333 4.08333333,6.76988135 4.08333333,7 C4.08333333,7.23011865 3.89678531,7.41666667 3.66666667,7.41666667 L2.41666667,7.41666667 C2.18654802,7.41666667 2,7.23011865 2,7 C2,6.76988135 2.18654802,6.58333333 2.41666667,6.58333333 L3.66666667,6.58333333 Z M11.5833333,6.58333333 C11.813452,6.58333333 12,6.76988135 12,7 C12,7.23011865 11.813452,7.41666667 11.5833333,7.41666667 L10.3333333,7.41666667 C10.1032147,7.41666667 9.91666667,7.23011865 9.91666667,7 C9.91666667,6.76988135 10.1032147,6.58333333 10.3333333,6.58333333 L11.5833333,6.58333333 Z M10.6532362,3.5550971 C10.8159547,3.71781556 10.8159547,3.9816343 10.6532362,4.14435275 L9.76935275,5.02823623 C9.6066343,5.19095469 9.34281556,5.19095469 9.1800971,5.02823623 C9.01737865,4.86551778 9.01737865,4.60169903 9.1800971,4.43898058 L10.0639806,3.5550971 C10.226699,3.39237865 10.4905178,3.39237865 10.6532362,3.5550971 Z M3.87065585,3.50170511 L3.93601942,3.5550971 L4.8199029,4.43898058 C4.98262135,4.60169903 4.98262135,4.86551778 4.8199029,5.02823623 C4.67752425,5.17061488 4.45774069,5.18841221 4.29601082,5.08162822 L4.23064725,5.02823623 L3.34676377,4.14435275 C3.18404531,3.9816343 3.18404531,3.71781556 3.34676377,3.5550971 C3.48914242,3.41271845 3.70892597,3.39492112 3.87065585,3.50170511 Z M7,2 C7.23011865,2 7.41666667,2.18654802 7.41666667,2.41666667 L7.41666667,3.66666667 C7.41666667,3.89678531 7.23011865,4.08333333 7,4.08333333 C6.76988135,4.08333333 6.58333333,3.89678531 6.58333333,3.66666667 L6.58333333,2.41666667 C6.58333333,2.18654802 6.76988135,2 7,2 Z" id="Combined-Shape" fill="#C08F00"></path>
                    </g>
                </g>
            </g>
        </g>
    </g>
</svg>