<?xml version="1.0" encoding="UTF-8"?>
<svg width="25px" height="24px" viewBox="0 0 25 24" version="1.1" xmlns="http://www.w3.org/2000/svg" xmlns:xlink="http://www.w3.org/1999/xlink">
    <title>Icon/ Down@1x</title>
    <g id="Symbol" stroke="none" stroke-width="1" fill="none" fill-rule="evenodd">
        <g id="Icon/-Down" transform="translate(0.500000, 0.000000)">
            <rect id="Rectangle" x="0" y="0" width="24" height="24"></rect>
            <g id="ic_Notifications-Unread">
                <rect id="Icon-Spacing" fill="#5C63AB" opacity="0" x="0" y="0" width="24" height="24" rx="5"></rect>
                <g id="Notification" transform="translate(3.000000, 2.000000)">
                    <g id="ic_Notification" fill="#5C63AB">
                        <path d="M9.00130356,0 C10.5366967,0 11.8026903,1.15343657 11.9800545,2.64107991 C14.4828447,3.77566404 16.2235258,6.2956642 16.2235258,9.22222222 L16.2235258,14.2398916 L17.894025,17.549391 C18.2297482,18.214507 17.7463468,19 17.0013036,19 L11.8302793,19.0009007 C11.4181887,20.1656226 10.3071858,21 9.00130356,21 C7.69542134,21 6.58441841,20.1656226 6.17232779,19.0009007 L1.00130356,19 C0.256260316,19 -0.227141061,18.214507 0.108582166,17.549391 L1.77908134,14.2398916 L1.77908134,9.22222222 C1.77908134,6.2956642 3.51976244,3.77566404 6.02226778,2.6410786 C6.19991684,1.15343657 7.46591043,0 9.00130356,0 Z M9.00130356,4 C6.11714987,4 3.77908134,6.33806853 3.77908134,9.22222222 L3.77908134,14.4779663 C3.77908134,14.6344953 3.74233612,14.7888385 3.67180273,14.9285754 L2.62623275,17 L15.3763744,17 L14.3308044,14.9285754 C14.260271,14.7888385 14.2235258,14.6344953 14.2235258,14.4779663 L14.2235258,9.22222222 C14.2235258,6.33806853 11.8854573,4 9.00130356,4 Z" id="Shape"></path>
                    </g>
                    <circle fill="#FC5A5A" cx="13" cy="4" r="4"></circle>
                </g>
            </g>
        </g>
    </g>
</svg>