<?xml version="1.0" encoding="UTF-8"?>
<svg width="25px" height="24px" viewBox="0 0 25 24" version="1.1" xmlns="http://www.w3.org/2000/svg" xmlns:xlink="http://www.w3.org/1999/xlink">
    <title>Icon/ Menu</title>
    <g id="Symbol" stroke="none" stroke-width="1" fill="none" fill-rule="evenodd">
        <g id="Icon/-Menu">
            <path d="M6.5,0 L18.5,0 C21.8137085,-6.08718376e-16 24.5,2.6862915 24.5,6 L24.5,18 C24.5,21.3137085 21.8137085,24 18.5,24 L6.5,24 C3.1862915,24 0.5,21.3137085 0.5,18 L0.5,6 C0.5,2.6862915 3.1862915,6.08718376e-16 6.5,0 Z" id="Icon-Spacing"></path>
            <path d="M4.171875,13.34375 L20.578125,13.34375 C21.2253337,13.34375 21.75,12.8190837 21.75,12.171875 C21.75,11.5246663 21.2253337,11 20.578125,11 L4.171875,11 C3.52466631,11 3,11.5246663 3,12.171875 C3,12.8190837 3.52466631,13.34375 4.171875,13.34375 Z M12.5859375,5.34375 L20.7890625,5.34375 C21.1126668,5.34375 21.375,4.81908369 21.375,4.171875 C21.375,3.52466631 21.1126668,3 20.7890625,3 L12.5859375,3 C12.2623332,3 12,3.52466631 12,4.171875 C12,4.81908369 12.2623332,5.34375 12.5859375,5.34375 Z M3.5859375,21.421875 L11.7890625,21.421875 C12.1126668,21.421875 12.375,20.8972087 12.375,20.25 C12.375,19.6027913 12.1126668,19.078125 11.7890625,19.078125 L3.5859375,19.078125 C3.26233315,19.078125 3,19.6027913 3,20.25 C3,20.8972087 3.26233315,21.421875 3.5859375,21.421875 Z" id="Shape" fill="#485CBA"></path>
        </g>
    </g>
</svg>