<?xml version="1.0" encoding="UTF-8"?>
<svg width="24px" height="24px" viewBox="0 0 24 24" version="1.1" xmlns="http://www.w3.org/2000/svg" xmlns:xlink="http://www.w3.org/1999/xlink">
    <title>Icon/ Messages</title>
    <g id="Symbol" stroke="none" stroke-width="1" fill="none" fill-rule="evenodd">
        <g id="Icon/-Messages">
            <path d="M6,0 L18,0 C21.3137085,-6.08718376e-16 24,2.6862915 24,6 L24,18 C24,21.3137085 21.3137085,24 18,24 L6,24 C2.6862915,24 4.05812251e-16,21.3137085 0,18 L0,6 C-4.05812251e-16,2.6862915 2.6862915,6.08718376e-16 6,0 Z" id="Icon-Spacing"></path>
            <path d="M12,1 C18.0751322,1 23,5.92486775 23,12 C23,13.7021791 22.6122731,15.3503463 21.8785888,16.8438773 L22.9761871,21.7830695 C23.1349645,22.497568 22.497568,23.1349645 21.7830695,22.9761871 L16.8438773,21.8785888 C15.3503463,22.6122731 13.7021791,23 12,23 C5.92486775,23 1,18.0751322 1,12 C1,5.92486775 5.92486775,1 12,1 Z M12,3 C7.02943725,3 3,7.02943725 3,12 C3,16.9705627 7.02943725,21 12,21 C13.5,21 14.9448808,20.6334516 16.2372774,19.9423497 C16.4481146,19.8296056 16.692369,19.7961326 16.9257646,19.8479983 L20.6829222,20.6829222 L19.8479983,16.9257646 C19.7961326,16.692369 19.8296056,16.4481146 19.9423497,16.2372774 C20.6334516,14.9448808 21,13.5 21,12 C21,7.02943725 16.9705627,3 12,3 Z M9,10 C10.1045695,10 11,10.8954305 11,12 C11,13.1045695 10.1045695,14 9,14 C7.8954305,14 7,13.1045695 7,12 C7,10.8954305 7.8954305,10 9,10 Z M15,10 C16.1045695,10 17,10.8954305 17,12 C17,13.1045695 16.1045695,14 15,14 C13.8954305,14 13,13.1045695 13,12 C13,10.8954305 13.8954305,10 15,10 Z" id="Shape" fill="#92929D"></path>
        </g>
    </g>
</svg>