<?xml version="1.0" encoding="UTF-8"?>
<svg width="15px" height="15px" viewBox="0 0 15 15" version="1.1" xmlns="http://www.w3.org/2000/svg" xmlns:xlink="http://www.w3.org/1999/xlink">
    <title>Night selected@3x</title>
    <g id="Work-Calendar" stroke="none" stroke-width="1" fill="none" fill-rule="evenodd">
        <g id="Work-Calendar-/Night-Shift" transform="translate(-1049.000000, -171.000000)">
            <g id="Group-14" transform="translate(939.000000, 161.000000)">
                <g id="Group-10" transform="translate(100.000000, 0.000000)">
                    <g id="Group-8" transform="translate(10.817899, 8.000000)">
                        <g id="Night-selected" transform="translate(0.000000, 2.000000)">
                            <rect id="Rectangle" x="0" y="0" width="14" height="13.6189483"></rect>
                            <path d="M8.32309695,3.89112808 C8.50408224,3.89112808 8.68506754,3.9008559 8.86072974,3.92517545 C7.84401822,4.97578003 7.25847756,6.34740267 7.25847756,7.78225615 C7.25847756,9.21710963 7.84401822,10.5887323 8.86072974,11.6393369 C8.68506754,11.6636564 8.50408224,11.6733842 8.32309695,11.6733842 C5.97561119,11.6733842 4.06461939,9.9272405 4.06461939,7.78225615 C4.06461939,5.6372718 5.97561119,3.89112808 8.32309695,3.89112808 M3,7.78225615 C3,10.4671345 5.38474743,12.6461662 8.32309695,12.6461662 C9.29190059,12.6461662 10.2021502,12.4029707 10.9846454,11.9895384 C9.39303943,11.1480819 8.32309695,9.58190289 8.32309695,7.78225615 C8.32309695,5.98260942 9.39303943,4.41643037 10.9846454,3.57497392 C10.2021502,3.16154156 9.29190059,2.91834606 8.32309695,2.91834606 C5.38474743,2.91834606 3,5.09737778 3,7.78225615 Z" id="Shape" fill="#173E67" fill-rule="nonzero" transform="translate(6.992323, 7.782256) rotate(-36.000000) translate(-6.992323, -7.782256) "></path>
                        </g>
                    </g>
                </g>
            </g>
        </g>
    </g>
</svg>