<?xml version="1.0" encoding="UTF-8"?>
<svg width="25px" height="24px" viewBox="0 0 25 24" version="1.1" xmlns="http://www.w3.org/2000/svg" xmlns:xlink="http://www.w3.org/1999/xlink">
    <title>Icon/Patients</title>
    <g id="Symbol" stroke="none" stroke-width="1" fill="none" fill-rule="evenodd">
        <g id="id_User" transform="translate(0.500000, 0.000000)">
            <rect id="Icon-Spacing" fill="#4394AD" opacity="0" x="0" y="0" width="24" height="24" rx="5"></rect>
            <g id="Account-Icon" transform="translate(4.500000, 3.000000)" fill="#5C63AB" fill-rule="nonzero">
                <path d="M7.5,8.5 C11.5609173,8.5 14.8680175,11.7274744 14.9961464,15.7572689 L15,16 C15,17.0351791 14.1608216,17.8743575 13.1256425,17.8743575 L1.87435751,17.8743575 C0.83917844,17.8743575 1.26772873e-16,17.0351791 0,16 L0,16 L0,16 C0,11.8578644 3.35786438,8.5 7.5,8.5 Z M7.5,10.5 C4.53652085,10.5 2.12046086,12.84378 2.0043672,15.7787929 L2.002,15.874 L12.997,15.874 L12.9956328,15.7787929 C12.8824415,12.9171553 10.5828447,10.6175585 7.72120714,10.5043672 L7.5,10.5 Z" id="Oval"></path>
                <path d="M7.25,0 C9.87335256,0 12,2.12664744 12,4.75 C12,7.37335256 9.87335256,9.5 7.25,9.5 C4.62664744,9.5 2.5,7.37335256 2.5,4.75 C2.5,2.12664744 4.62664744,0 7.25,0 Z M7.25,2 C5.73121694,2 4.5,3.23121694 4.5,4.75 C4.5,6.26878306 5.73121694,7.5 7.25,7.5 C8.76878306,7.5 10,6.26878306 10,4.75 C10,3.23121694 8.76878306,2 7.25,2 Z" id="Oval"></path>
            </g>
        </g>
    </g>
</svg>