<?xml version="1.0" encoding="UTF-8"?>
<svg width="14px" height="14px" viewBox="0 0 14 14" version="1.1" xmlns="http://www.w3.org/2000/svg" xmlns:xlink="http://www.w3.org/1999/xlink">
    <title>Shift@3x</title>
    <g id="Practice-Management" stroke="none" stroke-width="1" fill="none" fill-rule="evenodd">
        <g id="Practice-Calender-Schedule-Week-/-Hover" transform="translate(-182.000000, -890.000000)" fill="#5C63AB">
            <g id="Group-62" transform="translate(171.000000, 760.729282)">
                <g id="Group-26" transform="translate(1.000000, 118.270718)">
                    <g id="Group-25" transform="translate(10.000000, 9.000000)">
                        <g id="Shift" transform="translate(0.000000, 2.000000)">
                            <g id="ic_DayShift" transform="translate(0.000000, -0.000000)">
                                <rect id="Icon-Spacing" opacity="0" x="0" y="0" width="13.9293001" height="13.9293001" rx="3.31650003"></rect>
                                <path d="M6.96465007,11.0273626 C7.28518924,11.0273626 7.54503757,11.2872109 7.54503757,11.6077501 L7.54503757,13.3489126 C7.54503757,13.6694518 7.28518924,13.9293001 6.96465007,13.9293001 C6.6441109,13.9293001 6.38426256,13.6694518 6.38426256,13.3489126 L6.38426256,11.6077501 C6.38426256,11.2872109 6.6441109,11.0273626 6.96465007,11.0273626 Z M3.92792738,9.711179 C4.1545828,9.93783442 4.1545828,10.3053155 3.92792738,10.5319709 L2.69673956,11.7631587 C2.47008414,11.9898141 2.1026031,11.9898141 1.87594768,11.7631587 C1.64929226,11.5365033 1.64929226,11.1690222 1.87594768,10.9423668 L3.1071355,9.711179 C3.33379092,9.48452358 3.70127196,9.48452358 3.92792738,9.711179 Z M10.7417834,9.64402184 L10.8221646,9.711179 L12.0533525,10.9423668 C12.2800079,11.1690222 12.2800079,11.5365033 12.0533525,11.7631587 C11.851881,11.9646302 11.5391399,11.9870159 11.3129418,11.8303159 L11.2325606,11.7631587 L10.0013728,10.5319709 C9.77471733,10.3053155 9.77471733,9.93783442 10.0013728,9.711179 C10.2028442,9.50970752 10.5155854,9.4873218 10.7417834,9.64402184 Z M6.96465007,3.19213128 C9.04815466,3.19213128 10.7371689,4.88114547 10.7371689,6.96465007 C10.7371689,9.04815466 9.04815466,10.7371689 6.96465007,10.7371689 C4.88114547,10.7371689 3.19213128,9.04815466 3.19213128,6.96465007 C3.19213128,4.88114547 4.88114547,3.19213128 6.96465007,3.19213128 Z M6.96465007,4.35290629 C5.52222381,4.35290629 4.35290629,5.52222381 4.35290629,6.96465007 C4.35290629,8.40707632 5.52222381,9.57639384 6.96465007,9.57639384 C8.40707632,9.57639384 9.57639384,8.40707632 9.57639384,6.96465007 C9.57639384,5.52222381 8.40707632,4.35290629 6.96465007,4.35290629 Z M2.32155002,6.38426256 C2.64208919,6.38426256 2.90193753,6.6441109 2.90193753,6.96465007 C2.90193753,7.28518924 2.64208919,7.54503757 2.32155002,7.54503757 L0.580387506,7.54503757 C0.259848337,7.54503757 8.8817842e-16,7.28518924 8.8817842e-16,6.96465007 C8.8817842e-16,6.6441109 0.259848337,6.38426256 0.580387506,6.38426256 L2.32155002,6.38426256 Z M13.3489126,6.38426256 C13.6694518,6.38426256 13.9293001,6.6441109 13.9293001,6.96465007 C13.9293001,7.28518924 13.6694518,7.54503757 13.3489126,7.54503757 L11.6077501,7.54503757 C11.2872109,7.54503757 11.0273626,7.28518924 11.0273626,6.96465007 C11.0273626,6.6441109 11.2872109,6.38426256 11.6077501,6.38426256 L13.3489126,6.38426256 Z M12.0533525,2.16614143 C12.2800079,2.39279685 12.2800079,2.76027789 12.0533525,2.98693331 L10.8221646,4.21812113 C10.5955092,4.44477655 10.2280282,4.44477655 10.0013728,4.21812113 C9.77471733,3.99146571 9.77471733,3.62398467 10.0013728,3.39732925 L11.2325606,2.16614143 C11.459216,1.93948601 11.826697,1.93948601 12.0533525,2.16614143 Z M2.61635834,2.09898427 L2.69673956,2.16614143 L3.92792738,3.39732925 C4.1545828,3.62398467 4.1545828,3.99146571 3.92792738,4.21812113 C3.7264559,4.41959262 3.41371478,4.44197834 3.18751672,4.28527829 L3.1071355,4.21812113 L1.87594768,2.98693331 C1.64929226,2.76027789 1.64929226,2.39279685 1.87594768,2.16614143 C2.07741916,1.96466994 2.39016027,1.94228422 2.61635834,2.09898427 Z M6.96465007,0 C7.28518924,-5.888209e-17 7.54503757,0.259848337 7.54503757,0.580387506 L7.54503757,2.32155002 C7.54503757,2.64208919 7.28518924,2.90193753 6.96465007,2.90193753 C6.6441109,2.90193753 6.38426256,2.64208919 6.38426256,2.32155002 L6.38426256,0.580387506 C6.38426256,0.259848337 6.6441109,5.888209e-17 6.96465007,0 Z" id="Combined-Shape"></path>
                            </g>
                        </g>
                    </g>
                </g>
            </g>
        </g>
    </g>
</svg>