<?xml version="1.0" encoding="UTF-8"?>
<svg width="14px" height="14px" viewBox="0 0 14 14" version="1.1" xmlns="http://www.w3.org/2000/svg" xmlns:xlink="http://www.w3.org/1999/xlink">
    <title>Swing selected@3x</title>
    <g id="Work-Calendar" stroke="none" stroke-width="1" fill="none" fill-rule="evenodd">
        <g id="Work-Calendar-/Swing-Shift" transform="translate(-994.000000, -171.000000)">
            <g id="Group-15" transform="translate(936.000000, 161.000000)">
                <g id="Group-14" transform="translate(50.000000, 0.000000)">
                    <g id="Group-13" transform="translate(8.000000, 8.000000)">
                        <g id="Swing-selected" transform="translate(0.000000, 2.000000)">
                            <rect id="Rectangle" x="0" y="0" width="14" height="14"></rect>
                            <path d="M8.65740741,10.5833333 C8.84150232,10.5833333 8.99074074,10.7325718 8.99074074,10.9166667 C8.99074074,11.1007616 8.84150232,11.25 8.65740741,11.25 L5.15740741,11.25 C4.97331249,11.25 4.82407407,11.1007616 4.82407407,10.9166667 C4.82407407,10.7325718 4.97331249,10.5833333 5.15740741,10.5833333 L8.65740741,10.5833333 Z M9.90740741,9.33333333 C10.0915023,9.33333333 10.2407407,9.48257175 10.2407407,9.66666667 C10.2407407,9.85076158 10.0915023,10 9.90740741,10 L3.90740741,10 C3.72331249,10 3.57407407,9.85076158 3.57407407,9.66666667 C3.57407407,9.48257175 3.72331249,9.33333333 3.90740741,9.33333333 L9.90740741,9.33333333 Z M7,5.66055554 C8.34933206,5.66055554 9.44898823,6.72954508 9.49827564,8.06683127 L9.498,8.083 L10.9490741,8.08333333 C11.133169,8.08333333 11.2824074,8.23257175 11.2824074,8.41666667 C11.2824074,8.60076158 11.133169,8.75 10.9490741,8.75 L2.86574074,8.75 C2.68164582,8.75 2.53240741,8.60076158 2.53240741,8.41666667 C2.53240741,8.23257175 2.68164582,8.08333333 2.86574074,8.08333333 L4.502,8.083 L4.50531768,7.99617986 C4.58996133,6.69209148 5.6745166,5.66055554 7,5.66055554 Z M7,6.49388888 C6.10741859,6.49388888 5.37871714,7.19554241 5.33537304,8.07737207 L5.335,8.083 L8.663,8.083 L8.66054901,8.01674916 C8.58763735,7.16360144 7.87202855,6.49388888 7,6.49388888 Z M3.66666667,6.75 C3.89678531,6.75 4.08333333,6.93654802 4.08333333,7.16666667 C4.08333333,7.39678531 3.89678531,7.58333333 3.66666667,7.58333333 L2.41666667,7.58333333 C2.18654802,7.58333333 2,7.39678531 2,7.16666667 C2,6.93654802 2.18654802,6.75 2.41666667,6.75 L3.66666667,6.75 Z M11.5833333,6.75 C11.813452,6.75 12,6.93654802 12,7.16666667 C12,7.39678531 11.813452,7.58333333 11.5833333,7.58333333 L10.3333333,7.58333333 C10.1032147,7.58333333 9.91666667,7.39678531 9.91666667,7.16666667 C9.91666667,6.93654802 10.1032147,6.75 10.3333333,6.75 L11.5833333,6.75 Z M10.2365696,4.34676377 C10.399288,4.50948222 10.399288,4.77330097 10.2365696,4.93601942 L9.35268609,5.8199029 C9.18996763,5.98262135 8.92614889,5.98262135 8.76343044,5.8199029 C8.60071198,5.65718444 8.60071198,5.3933657 8.76343044,5.23064725 L9.64731391,4.34676377 C9.81003237,4.18404531 10.0738511,4.18404531 10.2365696,4.34676377 Z M4.28732251,4.29337178 L4.35268609,4.34676377 L5.23656956,5.23064725 C5.39928802,5.3933657 5.39928802,5.65718444 5.23656956,5.8199029 C5.09419092,5.96228155 4.87440736,5.98007888 4.71267749,5.87329489 L4.64731391,5.8199029 L3.76343044,4.93601942 C3.60071198,4.77330097 3.60071198,4.50948222 3.76343044,4.34676377 C3.90580908,4.20438512 4.12559264,4.18658779 4.28732251,4.29337178 Z M7,3 C7.23011865,3 7.41666667,3.18654802 7.41666667,3.41666667 L7.41666667,4.66666667 C7.41666667,4.89678531 7.23011865,5.08333333 7,5.08333333 C6.76988135,5.08333333 6.58333333,4.89678531 6.58333333,4.66666667 L6.58333333,3.41666667 C6.58333333,3.18654802 6.76988135,3 7,3 Z" id="Combined-Shape" fill="#7954DA"></path>
                        </g>
                    </g>
                </g>
            </g>
        </g>
    </g>
</svg>