<?xml version="1.0" encoding="UTF-8"?>
<svg width="1403px" height="270px" viewBox="0 0 1403 270" version="1.1" xmlns="http://www.w3.org/2000/svg" xmlns:xlink="http://www.w3.org/1999/xlink">
    <title>First Section Copy 2@3x</title>
    <g id="Dashboard" stroke="none" stroke-width="1" fill="none" fill-rule="evenodd">
        <g id="First-Section-Copy" transform="translate(0.000000, -0.000000)">
            <path d="M44.867991,-1.81272054e-15 L1358.13201,1.81272054e-15 C1373.73359,-1.05324284e-15 1379.3911,1.6244482 1385.0948,4.67482232 C1390.7985,7.72519644 1395.2748,12.2014965 1398.32518,17.9052002 C1401.37555,23.6089039 1403,29.2664131 1403,44.867991 L1403,225.132009 C1403,240.733587 1401.37555,246.391096 1398.32518,252.0948 C1395.2748,257.798504 1390.7985,262.274804 1385.0948,265.325178 C1379.3911,268.375552 1373.73359,270 1358.13201,270 L44.867991,270 C29.2664131,270 23.6089039,268.375552 17.9052002,265.325178 C12.2014965,262.274804 7.72519644,257.798504 4.67482232,252.0948 C1.6244482,246.391096 7.0216189e-16,240.733587 -1.20848036e-15,225.132009 L1.20848036e-15,44.867991 C-7.0216189e-16,29.2664131 1.6244482,23.6089039 4.67482232,17.9052002 C7.72519644,12.2014965 12.2014965,7.72519644 17.9052002,4.67482232 C23.6089039,1.6244482 29.2664131,1.05324284e-15 44.867991,-1.81272054e-15 Z" id="Rectangle" fill="#5C63AB"></path>
            <g id="Group-19" transform="translate(66.423522, 223.237675) rotate(35.000000) translate(-66.423522, -223.237675) translate(36.334669, 207.063871)" fill="#173E67" fill-opacity="0.1" fill-rule="nonzero">
                <path d="M34.0242511,28.2972206 C33.5220453,27.9089061 33.0313628,27.5082663 32.5407059,27.0844647 C32.0024561,26.6251886 31.48774,26.1659125 30.9975574,25.683525 C27.4681453,27.0376616 23.041992,27.8030377 18.4360033,27.8030377 C10.2290786,27.8030377 3.43391872,25.4953033 0,21.9629925 L0,23.4581692 C0,28.4387275 8.09938245,32.3476079 18.4360033,32.3476079 C25.0162068,32.3481006 30.7702958,30.7820372 34.0238665,28.297435 L34.0242511,28.2972206 Z" id="Path"></path>
                <path d="M18.5752771,25.3194762 C20.9004477,25.3194762 23.1554987,25.1090152 25.2565411,24.7330678 L9.15704826,9.27052518 C3.78396363,10.7566582 0.238709453,13.4891741 0.238709453,16.6910273 C0.238709453,21.5248473 8.29406546,25.3192191 18.5743846,25.3192191 L18.5752771,25.3194762 Z" id="Path"></path>
                <path d="M17.4469356,8.34157179 C15.1146352,8.34157179 12.9106437,8.54713129 10.8819371,8.92430245 L26.6813113,24.3905228 C27.0893015,24.2762713 27.4977914,24.1505504 27.8940626,24.0133517 C22.8682724,18.5880591 20.5594599,12.7512068 21.7371042,8.58262112 C20.3500675,8.42247635 18.9158052,8.34264872 17.446311,8.34264872 L17.4469356,8.34157179 Z" id="Path"></path>
                <path d="M48.5984061,28.6889957 C44.6967029,27.6089826 40.4238853,25.2690968 36.5697577,22.119415 C32.7037041,18.9584039 29.6520763,15.3026373 27.9644929,11.8268147 C27.0548136,9.9709696 26.5644141,8.20443358 26.4923456,6.59626752 L25.5466064,7.61979055 C22.231454,11.2081836 25.73846,19.0150748 33.5303122,25.392418 C38.7964445,29.7007073 44.481395,32.085778 48.6352097,32.085778 C50.6459474,32.085778 52.2974966,31.5344722 53.374934,30.3645594 L54.3206732,29.3410364 C53.9615103,29.3862333 53.6023474,29.3970613 53.2316689,29.3970613 C51.8070972,29.3970613 50.2391578,29.1611937 48.5991498,28.6885064 L48.5984061,28.6889957 Z" id="Path"></path>
                <path d="M38.6944486,19.8183892 C40.4951956,21.2860941 42.3837266,22.5607958 44.2727801,23.6013986 L42.6506055,1.79008031 C41.5519735,1.30705862 40.4660649,0.902387908 39.4139636,0.605691357 C35.4393878,-0.501777626 32.2935344,-0.0794333022 30.5621524,1.781482 C28.8307705,3.64239731 28.8307705,6.62172823 30.5499058,10.1491124 C32.1353731,13.4027696 35.0250592,16.8274144 38.6944813,19.8182302 L38.6944486,19.8183892 Z" id="Path"></path>
                <path d="M50.7420636,7.10759703 C48.9420952,5.64035205 47.0538328,4.36562489 45.1670071,3.32353359 L46.788951,25.1303947 C47.8899737,25.611995 48.9793197,26.0152428 50.0349285,26.3085939 C51.4853784,26.7194861 52.8385221,26.9249322 54.0456412,26.9249322 C56.118067,26.9249322 57.7879455,26.3200667 58.8732033,25.1442037 C60.6043391,23.283239 60.6166167,20.3038608 58.8854482,16.7764063 C57.3007289,13.5226841 54.4114537,10.086596 50.742031,7.10709555 L50.7420636,7.10759703 Z" id="Path"></path>
            </g>
            <g id="Group-4" transform="translate(340.242511, 56.643357) rotate(45.000000) translate(-340.242511, -56.643357) translate(310.221113, 31.153846)" fill="#173E67" fill-opacity="0.15" fill-rule="nonzero">
                <path d="M50.283494,19.6500807 C51.4922936,19.6500807 52.472429,18.7262174 52.472429,17.5857379 L52.472429,16.0370257 C52.472429,14.8965569 51.4918851,13.9718264 50.283494,13.9718264 L46.4751852,13.9718264 L46.4751852,10.3800776 C46.4751852,9.23918055 45.4950839,8.31487831 44.2871581,8.31487831 L42.6461094,8.31487831 C41.4354941,8.31487831 40.4567205,9.2395767 40.4567205,10.3800776 L40.4567205,13.9709699 L36.6476173,13.9709699 C35.4388177,13.9709699 34.4595902,14.8960858 34.4595902,16.0361692 L34.4595902,17.5848813 C34.4595902,18.7257784 35.4388064,19.6492242 36.6476173,19.6492242 L40.4567205,19.6492242 L40.4567205,23.2422577 C40.4567205,24.3831548 41.4359367,25.3078853 42.6461094,25.3078853 L44.2871581,25.3078853 C45.4959577,25.3078853 46.4751852,24.3827694 46.4751852,23.2422577 L46.4751852,19.6492242 L50.283494,19.6492242 L50.283494,19.6500807 Z" id="Path"></path>
                <path d="M55.0448599,4.70900786 C51.8166007,1.67230781 47.5246075,0 42.960861,0 C38.3950953,0 34.1039335,1.67197263 30.8756743,4.70900786 L30.0257086,5.50723094 L29.1766693,4.70900786 C25.9471036,1.67230781 21.6572483,0 17.0914826,0 C12.5257169,0 8.23408009,1.67197263 5.00748373,4.70900786 C1.77791802,7.745261 0,11.7830218 0,16.0770811 C0,20.3711403 1.77744293,24.4075604 5.00605845,27.444037 L30.0256611,50.979021 L55.044076,27.444037 C61.708804,21.1756759 61.708804,10.9779276 55.0454679,4.70900786 L55.0448599,4.70900786 Z M53.2980605,25.8016716 L30.0268013,47.6920557 L6.7543544,25.8016716 C3.99429968,23.2027122 2.47245697,19.7497228 2.47245697,16.0767459 C2.47245697,12.4037689 3.994656,8.95033262 6.7543544,6.35182012 C9.51488421,3.75509524 13.1871181,2.32444976 17.0917915,2.32444976 C20.9964648,2.32444976 24.6677485,3.75509524 27.4292285,6.35182012 L28.3757094,7.24082021 C23.130204,13.637554 23.7240706,22.6600613 29.8380467,28.4105746 L30.2866892,28.6925028 C30.4314502,28.7483656 30.5882666,28.7776064 30.7464727,28.7776064 C31.4257136,28.7776064 31.9777958,28.2578257 31.9777958,27.6193478 C31.9777958,27.4753224 31.9485669,27.3356655 31.8942839,27.2038629 L31.5838936,26.7665579 C26.0024971,21.5176923 25.9100914,12.8857774 31.366764,7.53524157 L32.6240985,6.35296196 C35.3841533,3.75623707 39.0550807,2.32559159 42.9610605,2.32559159 C46.8657338,2.32559159 50.5365425,3.75623707 53.2984976,6.35296196 C58.9959356,11.7148938 58.9959356,20.4393174 53.2980335,25.8021431 L53.2980605,25.8016716 Z" id="Shape"></path>
            </g>
            <g id="Group-8" transform="translate(1343.657451, 212.601160) rotate(-45.000000) translate(-1343.657451, -212.601160) translate(1320.641045, 191.674025)" fill="#173E67" fill-opacity="0.15" fill-rule="nonzero">
                <polygon id="Path" points="30.8755602 27.0424851 26.2428328 27.0424851 26.2428328 31.4123887 20.4969376 31.4123887 20.4969376 27.0424851 15.8648612 27.0424851 15.8648612 21.6218041 20.4969376 21.6218041 20.4969376 17.2515496 26.2428328 17.2515496 26.2428328 21.6218041 30.8755602 21.6218041"></polygon>
                <path d="M29.1886207,0 L18.2585614,0 C14.6497329,0 11.7154571,2.96458438 11.7154571,6.60839161 L15.5638472,6.60839161 C15.5638472,5.10839343 16.7731847,3.88691861 18.2590339,3.88691861 L29.1890932,3.88691861 C30.6749424,3.88691861 31.8831458,5.10839343 31.8831458,6.60839161 L35.7325755,6.60839161 C35.7318371,2.96372533 32.7974491,0 29.1887152,0 L29.1886207,0 Z" id="Path"></path>
                <path d="M44.0539056,8.81231266 L1.9777553,8.81231266 C0.885238983,8.81231266 0,9.61005039 0,10.5945386 L0,40.071009 C0,41.056205 0.88525814,41.8542707 1.9777553,41.8542707 L44.0539056,41.8542707 C45.1475713,41.8542707 46.0328103,41.0558597 46.0328103,40.071009 L46.0328103,10.5945386 C46.0328103,9.61003312 45.146805,8.81231266 44.0539056,8.81231266 Z M23.0158304,36.9042952 C15.924819,36.9042952 10.175938,31.7230827 10.175938,25.3338096 C10.175938,18.9428102 15.9249148,13.7624608 23.0158304,13.7624608 C30.1076081,13.7624608 35.8566807,18.9430691 35.8566807,25.3338096 C35.8566807,31.7230827 30.1077039,36.9042952 23.0158304,36.9042952 Z" id="Shape"></path>
            </g>
            <ellipse id="Oval" fill-opacity="0.1" fill="#173E67" cx="1351.96362" cy="49.5" rx="24.0171184" ry="22.5"></ellipse>
            <ellipse id="Oval-Copy-5" fill-opacity="0.1" fill="#173E67" cx="1299.92653" cy="76" rx="4.00285307" ry="4"></ellipse>
            <ellipse id="Oval-Copy-7" fill-opacity="0.1" fill="#173E67" cx="1312.93581" cy="33.5" rx="6.0042796" ry="5.5"></ellipse>
            <ellipse id="Oval-Copy-3" fill-opacity="0.1" fill="#173E67" cx="441.314551" cy="159.5" rx="5.00356633" ry="4.5"></ellipse>
            <ellipse id="Oval-Copy-6" fill-opacity="0.1" fill="#173E67" cx="422.300999" cy="233.5" rx="10.0071327" ry="9.5"></ellipse>
            <ellipse id="Oval-Copy-4" fill-opacity="0.1" fill="#173E67" cx="30.021398" cy="70.5" rx="10.0071327" ry="9.5"></ellipse>
            <ellipse id="Oval-Copy-8" fill-opacity="0.1" fill="#173E67" cx="42.0299572" cy="104" rx="4.00285307" ry="4"></ellipse>
            <g id="Group-20" transform="translate(95.067760, 74.580420) rotate(23.000000) translate(-95.067760, -74.580420) translate(79.056348, 53.811189)" fill="#173E67" fill-opacity="0.1" fill-rule="nonzero">
                <path d="M5.03012022,8.15617289 C5.03102852,8.40791719 5.15334113,8.64916974 5.37012096,8.82621232 C5.58720306,9.00328047 5.88057548,9.10193227 6.185729,9.10018684 L8.03226002,9.10018684 L8.03226002,7.21212057 L6.185729,7.21212057 C5.88054448,7.21037233 5.58716431,7.30902055 5.37012096,7.48609509 C5.15334113,7.66316324 5.03102705,7.90442219 5.03012022,8.15613453 L5.03012022,8.15617289 Z" id="Path"></path>
                <path d="M11.7153075,15.5333065 L9.86137988,15.5333065 L9.86137988,17.4214184 L11.7153075,17.4214184 C12.3485338,17.4214184 12.8635197,16.9843135 12.8635197,16.4773932 C12.8635197,15.970473 12.3485184,15.5333681 11.7153075,15.5333681 L11.7153075,15.5333065 Z" id="Path"></path>
                <path d="M5.39471455,16.2148653 C5.39471455,16.7218164 5.91303979,17.1588904 6.55033763,17.1588904 L8.39685435,17.1588904 L8.39685435,15.2707785 L6.55033763,15.2707785 C5.91302429,15.2707785 5.39471455,15.7078833 5.39471455,16.2148036 L5.39471455,16.2148653 Z" id="Path"></path>
                <path d="M25.8441385,32.4382903 L23.9905645,32.4382903 L23.9905645,34.3263638 L25.8441385,34.3263638 C26.2544238,34.3263638 26.6336813,34.1465458 26.8388473,33.8543422 C27.04399,33.5621387 27.04399,33.2025218 26.8388473,32.9102735 C26.6337047,32.61807 26.254416,32.4382519 25.8441385,32.4382519 L25.8441385,32.4382903 Z" id="Path"></path>
                <path d="M19.914909,33.9888072 C19.9155107,34.2405515 20.0370394,34.481804 20.2527294,34.6588466 C20.468119,34.8361641 20.7599104,34.9345665 21.063107,34.9328211 L22.9170488,34.9328211 L22.9170488,33.0447549 L21.063107,33.0447549 C20.7598796,33.0430067 20.4680805,33.1414056 20.2527294,33.3187294 C20.0370394,33.4957976 19.9155097,33.7370565 19.914909,33.9887688 L19.914909,33.9888072 Z" id="Path"></path>
                <path d="M11.8877131,6.23678394 L10.0269371,6.23678394 L10.0269371,8.12485747 L11.8877131,8.12485747 C12.2956167,8.12485747 12.6720926,7.94503942 12.8762261,7.65283589 C13.0800272,7.36063236 13.0800272,7.00101545 12.8762261,6.70876716 C12.6721236,6.41656363 12.2956167,6.23674558 11.8877131,6.23674558 L11.8877131,6.23678394 Z" id="Path"></path>
                <path d="M5.59375163,33.5700953 C5.59465993,33.8218396 5.71697254,34.0630921 5.93375237,34.2401347 C6.15083447,34.4172029 6.4442069,34.5158547 6.74936041,34.5141092 L8.59589143,34.5141092 L8.59589143,32.626043 L6.74936041,32.626043 C6.44417589,32.6242947 6.15079572,32.722943 5.93375237,32.9000175 C5.71697254,33.0770856 5.59465846,33.3183446 5.59375163,33.5700569 L5.59375163,33.5700953 Z" id="Path"></path>
                <path d="M11.9211929,32.8885865 L10.060417,32.8885865 L10.060417,34.77666 L11.9211929,34.77666 C12.3290965,34.77666 12.7055724,34.5968419 12.9097059,34.3046384 C13.113507,34.0124349 13.113507,33.652818 12.9097059,33.3605697 C12.7056034,33.0683662 12.3290965,32.8885481 11.9211929,32.8885481 L11.9211929,32.8885865 Z" id="Path"></path>
                <path d="M5.22915729,25.5114145 C5.2300656,25.7631588 5.35237821,26.0044114 5.56915803,26.181454 C5.78624014,26.3585221 6.07961256,26.4571739 6.38476607,26.4554285 L8.23129709,26.4554285 L8.23129709,24.5673622 L6.38476607,24.5673622 C6.07958156,24.565614 5.78620138,24.6642622 5.56915803,24.8413367 C5.35237821,25.0184049 5.23006413,25.2596638 5.22915729,25.5113762 L5.22915729,25.5114145 Z" id="Path"></path>
                <path d="M11.5565985,24.8299057 L9.69582262,24.8299057 L9.69582262,26.7179792 L11.5565985,26.7179792 C11.9645022,26.7179792 12.3409781,26.5381612 12.5451116,26.2459577 C12.7489127,25.9537541 12.7489127,25.5941372 12.5451116,25.3018889 C12.341009,25.0096854 11.9645022,24.8298673 11.5565985,24.8298673 L11.5565985,24.8299057 Z" id="Path"></path>
                <path d="M26.2016685,6.65549584 L24.3480945,6.65549584 L24.3480945,8.54356936 L26.2016685,8.54356936 C26.6119538,8.54356936 26.9912113,8.36375132 27.1963773,8.07154779 C27.40152,7.77934426 27.40152,7.41972734 27.1963773,7.12747905 C26.9912347,6.83527552 26.611946,6.65545748 26.2016685,6.65545748 L26.2016685,6.65549584 Z" id="Path"></path>
                <path d="M19.7158719,16.6335772 C19.7158719,17.1405283 20.2308732,17.5776023 20.8640841,17.5776023 L22.7180117,17.5776023 L22.7180117,15.6894904 L20.8640841,15.6894904 C20.2308578,15.6894904 19.7158719,16.1265952 19.7158719,16.6335155 L19.7158719,16.6335772 Z" id="Path"></path>
                <path d="M26.029054,15.9520184 L24.1825373,15.9520184 L24.1825373,17.8401302 L26.029054,17.8401302 C26.6663673,17.8401302 27.1846771,17.4030254 27.1846771,16.8961051 C27.1846771,16.3891848 26.6663518,15.95208 26.029054,15.95208 L26.029054,15.9520184 Z" id="Path"></path>
                <path d="M19.8814292,7.33700466 C19.8820309,7.58874894 20.0035596,7.83000149 20.2192495,8.00704405 C20.4346392,8.18436154 20.7264306,8.28276398 21.0296271,8.28101856 L22.883569,8.28101856 L22.883569,6.3929524 L21.0296271,6.3929524 C20.7263998,6.39120416 20.4346007,6.48960302 20.2192495,6.6669269 C20.0035596,6.84399504 19.8820299,7.08525398 19.8814292,7.3369663 L19.8814292,7.33700466 Z" id="Path"></path>
                <path d="M2.56788557,0 C1.88692586,0 1.23385149,0.257979526 0.752065698,0.716771479 C0.27067419,1.17588325 0,1.79830903 0,2.44737547 L0,39.0910861 C0,39.7400885 0.270682579,40.3625143 0.752065698,40.8216901 C1.23378438,41.28049 1.88685874,41.5384615 2.56788557,41.5384615 L29.454939,41.5384615 C30.1358987,41.5384615 30.788973,41.280482 31.2707588,40.8216901 C31.7521503,40.3625783 32.0228245,39.7401525 32.0228245,39.0910861 L32.0228245,2.44737547 C32.0228245,1.79837299 31.752142,1.17594721 31.2707588,0.716771479 C30.7890402,0.257971531 30.1359658,0 29.454939,0 L2.56788557,0 Z M11.6541157,36.641312 L5.98426112,36.641312 C4.95164727,36.641312 3.99772313,36.1163021 3.48129037,35.2639447 C2.96484083,34.4116352 2.96484083,33.3615995 3.48129037,32.5092901 C3.99773991,31.6569806 4.95164727,31.1319228 5.98426112,31.1319228 L11.6541157,31.1319228 C12.6867295,31.1319228 13.6409892,31.6569326 14.1570864,32.5092901 C14.673536,33.3615995 14.673536,34.4116352 14.1570864,35.2639447 C13.6409641,36.1162542 12.6867295,36.641312 11.6541157,36.641312 L11.6541157,36.641312 Z M11.6541157,28.4212428 L5.98426112,28.4212428 C4.95164727,28.4212428 3.99772313,27.896233 3.48129037,27.0438755 C2.96484083,26.1915661 2.96484083,25.1415304 3.48129037,24.2892209 C3.99773991,23.4369114 4.95164727,22.9118536 5.98426112,22.9118536 L11.6541157,22.9118536 C12.6867295,22.9118536 13.6409892,23.4368635 14.1570864,24.2892209 C14.673536,25.1415304 14.673536,26.1915661 14.1570864,27.0438755 C13.6409641,27.896185 12.6867295,28.4212428 11.6541157,28.4212428 Z M11.6541157,19.413627 L5.98426112,19.413627 C4.38378934,19.413627 3.08180161,18.1405996 3.08180161,16.6152375 C3.08180161,15.0898754 4.38378934,13.816848 5.98426112,13.816848 L11.6541157,13.816848 C13.2545875,13.816848 14.5565752,15.0898754 14.5565752,16.6152375 C14.5565752,18.1405996 13.2545875,19.413627 11.6541157,19.413627 Z M11.6541157,10.3188612 L5.98426112,10.3188612 C4.95164727,10.3188612 3.99772313,9.79385138 3.48129037,8.94149394 C2.96484083,8.08918446 2.96484083,7.03914879 3.48129037,6.18683931 C3.99773991,5.33452984 4.95164727,4.80947202 5.98426112,4.80947202 L11.6541157,4.80947202 C12.6867295,4.80947202 13.6409892,5.33448187 14.1570864,6.18683931 C14.673536,7.03914879 14.673536,8.08918446 14.1570864,8.94149394 C13.6409641,9.79380341 12.6867295,10.3188612 11.6541157,10.3188612 Z M26.1303401,36.641312 L20.4604856,36.641312 C19.4278717,36.641312 18.473612,36.1163021 17.9575148,35.2639447 C17.4410653,34.4116352 17.4410653,33.3615995 17.9575148,32.5092901 C18.4736372,31.6569806 19.4278717,31.1319228 20.4604856,31.1319228 L26.1303401,31.1319228 C27.162954,31.1319228 28.1168781,31.6569326 28.6333109,32.5092901 C29.1497604,33.3615995 29.1497604,34.4116352 28.6333109,35.2639447 C28.1168613,36.1162542 27.162954,36.641312 26.1303401,36.641312 Z M26.1303401,28.4212428 L20.4604856,28.4212428 C19.4278717,28.4212428 18.473612,27.896233 17.9575148,27.0438755 C17.4410653,26.1915661 17.4410653,25.1415304 17.9575148,24.2892209 C18.4736372,23.4369114 19.4278717,22.9118536 20.4604856,22.9118536 L26.1303401,22.9118536 C27.162954,22.9118536 28.1168781,23.4368635 28.6333109,24.2892209 C29.1497604,25.1415304 29.1497604,26.1915661 28.6333109,27.0438755 C28.1168613,27.896185 27.162954,28.4212428 26.1303401,28.4212428 L26.1303401,28.4212428 Z M26.1303401,19.413627 L20.4604856,19.413627 C18.8600138,19.413627 17.558026,18.1405996 17.558026,16.6152375 C17.558026,15.0898754 18.8600138,13.816848 20.4604856,13.816848 L26.1303401,13.816848 C27.7308119,13.816848 29.0327996,15.0898754 29.0327996,16.6152375 C29.0327996,18.1405996 27.7308119,19.413627 26.1303401,19.413627 Z M26.1303401,10.3188612 L20.4604856,10.3188612 C19.4278717,10.3188612 18.473612,9.79385138 17.9575148,8.94149394 C17.4410653,8.08918446 17.4410653,7.03914879 17.9575148,6.18683931 C18.4736372,5.33452984 19.4278717,4.80947202 20.4604856,4.80947202 L26.1303401,4.80947202 C27.162954,4.80947202 28.1168781,5.33448187 28.6333109,6.18683931 C29.1497604,7.03914879 29.1497604,8.08918446 28.6333109,8.94149394 C28.1168613,9.79380341 27.162954,10.3188612 26.1303401,10.3188612 Z" id="Shape"></path>
                <path d="M20.4714761,25.5612544 C20.4720778,25.8129987 20.5936065,26.0542512 20.8092964,26.2312938 C21.0246861,26.4086113 21.3164775,26.5070137 21.619674,26.5052683 L23.4736159,26.5052683 L23.4736159,24.6172021 L21.619674,24.6172021 C21.3164466,24.6154539 21.0246476,24.7138527 20.8092964,24.8911766 C20.5936065,25.0682448 20.4720768,25.3095037 20.4714761,25.561216 L20.4714761,25.5612544 Z" id="Path"></path>
                <path d="M25.4795442,24.3796095 L23.6259702,24.3796095 L23.6259702,26.2676831 L25.4795442,26.2676831 C25.8898295,26.2676831 26.269087,26.087865 26.474253,25.7956615 C26.6793956,25.5034579 26.6793956,25.143841 26.474253,24.8515927 C26.2691103,24.5593892 25.8898217,24.3795712 25.4795442,24.3795712 L25.4795442,24.3796095 Z" id="Path"></path>
            </g>
            <path d="M1072.658,68.2417696 C1069.89491,68.1628937 1069.77963,64.1651274 1072.54272,64.2440032 L1078.70678,64.4199636 C1078.91927,64.4260292 1078.70678,64.4199636 1078.70678,64.4199636 L1081.53671,59.4550673 C1083.35889,56.3533684 1088.26573,57.1242641 1089.21889,60.7255684 L1093.22062,74.2948139 L1093.4331,74.3008795 L1094.9513,68.0370929 C1095.32165,66.1552938 1096.98593,64.9414586 1098.89871,64.9960612 L1105.70053,65.1902273 C1105.70053,65.1902273 1107.72302,61.6738664 1107.92334,61.2592045 C1109.54469,58.5724577 1113.58352,58.6877509 1115.15017,61.4655029 L1117.82218,65.7467994 L1119.94782,65.8074783 C1121.86101,65.8620926 1123.59764,67.1731121 1124.07726,69.0790729 L1128.53435,83.7130292 L1132.14197,68.8890109 C1132.51232,67.0072118 1134.17659,65.7933766 1136.08937,65.8479792 L1140.34066,65.969337 C1143.10375,66.0482129 1143.22511,70.2566982 1140.46201,70.1778223 L1136.21073,70.0564644 C1136.21073,70.0564644 1132.99173,83.63074 1132.60311,84.8804828 C1131.65562,88.8479112 1125.70401,88.6780154 1124.52596,84.6499111 L1120.06887,70.0159548 L1120.06887,70.0159548 L1117.94323,69.9552759 C1116.45545,69.9128056 1115.15586,69.0346217 1114.26913,67.747884 L1111.80968,63.4726552 L1111.5972,63.4665896 L1109.37439,67.3976124 C1108.77295,68.6418889 1107.30943,69.4411761 1105.82165,69.3987058 L1099.01983,69.2045397 L1097.50163,75.4683263 C1096.34159,79.4296871 1090.60253,79.265859 1089.42448,75.2377546 L1085.2103,61.6624445 L1085.20423,61.4521015 L1085.2103,61.6624445 L1082.38037,66.6273408 C1081.77893,67.8716174 1080.30934,68.460592 1078.82156,68.4181218 L1072.6575,68.2421614 L1072.658,68.2417696 Z" id="Path" fill-opacity="0.1" fill="#173E67" fill-rule="nonzero" transform="translate(1106.500898, 72.642130) rotate(-40.000000) translate(-1106.500898, -72.642130) "></path>
            <path d="M1221.95107,147.586151 C1214.05073,140.13795 1201.24055,140.13795 1193.34072,147.586151 L1192.84485,148.053645 L1192.34897,147.586151 C1184.44863,140.13795 1171.63846,140.13795 1163.73862,147.586151 C1158.39991,152.619326 1156.68306,159.762689 1158.5599,166.16732 L1172.65316,166.16732 L1182.6662,151.007559 L1193.40751,179.960869 L1200.51703,166.295581 L1207.62856,166.295581 C1208.41683,164.600691 1210.20941,163.416779 1212.29749,163.416779 C1215.11267,163.416779 1217.39648,165.568609 1217.39648,168.223947 C1217.39713,170.878649 1215.11335,173.030479 1212.29816,173.030479 C1210.20924,173.030479 1208.41737,171.846536 1207.62924,170.151678 L1203.38902,170.151678 L1192.71295,190.676629 L1181.51932,160.502694 L1175.23098,170.023258 L1160.1783,170.023258 C1161.09826,171.65362 1162.28223,173.186395 1163.73896,174.559758 L1192.84495,202 L1221.95093,174.559758 C1229.84993,167.111556 1229.84993,155.034512 1221.95093,147.586787 L1221.95107,147.586151 Z" id="Path" fill-opacity="0.03" fill="#173E67" fill-rule="nonzero"></path>
            <g id="Group-13" transform="translate(986.202924, 201.083916) rotate(39.000000) translate(-986.202924, -201.083916) translate(963.686876, 170.874126)" fill="#173E67" fill-opacity="0.1" fill-rule="nonzero">
                <path d="M39.0278174,9.79681745 C39.0278174,12.2070665 36.9990257,14.1608392 34.4956718,14.1608392 L11.535463,14.160314 C9.03322609,14.160314 7.00499287,12.2065413 7.00499287,9.79629226 L7.00499287,4.36455954 C7.00499287,1.95269703 9.03378456,0 11.535463,0 L34.4956718,0 C36.9995842,0 39.0278174,1.95269703 39.0278174,4.36455954 L39.0278174,9.79681745 Z" id="Path"></path>
                <path d="M39.6466067,24.2365049 L34.2510876,19.3797742 L34.2510876,16.048951 L10.7792901,16.048951 L10.7792901,19.3797742 L5.38377103,24.2365049 C2.42268263,26.9056806 0,32.4095768 0,36.4736593 L0,56.105188 C0,58.488447 2.08184514,60.4195804 4.65180854,60.4195804 L40.3802885,60.4195804 C42.9502519,60.4195804 45.032097,58.488447 45.032097,56.105188 L45.032097,36.4736593 C45.0309778,32.4089125 42.6082682,26.9055478 39.6471798,24.2365049 L39.6466067,24.2365049 Z M38.9459343,50.9893785 C38.9459343,53.2292806 36.9877305,55.0468179 34.5712084,55.0468179 L10.4589974,55.0473369 C8.04304846,55.0473369 6.08541774,53.230331 6.08541774,50.9898974 L6.08485813,35.1674912 C6.08485813,32.9285191 8.0413427,31.1100518 10.4584378,31.1100518 L34.5706488,31.1100518 C36.9860247,31.1100518 38.9453747,32.9281205 38.9453747,35.1674912 L38.9459343,50.9898974 L38.9459343,50.9893785 Z" id="Shape"></path>
                <path d="M31.0221113,44.5425305 C31.0221113,45.8726864 29.8775117,46.9514271 28.4680929,46.9514271 L26.7544592,46.9514271 L26.7544592,48.5685612 C26.7544592,49.8992382 25.6109505,50.979021 24.2004408,50.979021 L22.8330827,50.979021 C21.4225454,50.979021 20.2790643,49.9002542 20.2790643,48.5685612 L20.2790643,46.9514271 L18.5654307,46.9514271 C17.1548934,46.9514271 16.0114123,45.8731684 16.0114123,44.5425305 L16.0114123,43.252588 C16.0114123,41.921911 17.1543824,40.8431703 18.5654307,40.8431703 L20.2790643,40.8431703 L20.2790643,39.2260363 C20.2790643,37.8958804 21.4220345,36.8181818 22.8330827,36.8181818 L24.2004408,36.8181818 C25.6104258,36.8181818 26.7544592,37.8954244 26.7544592,39.2260363 L26.7544592,40.8431703 L28.4680929,40.8431703 C29.8769732,40.8431703 31.0221113,41.921429 31.0221113,43.252588 L31.0221113,44.5425305 Z" id="Path"></path>
            </g>
            <g id="Group-14" transform="translate(876.958440, 71.846916) rotate(-39.000000) translate(-876.958440, -71.846916) translate(853.868624, 49.888928)" fill="#173E67" fill-opacity="0.1" fill-rule="nonzero">
                <path d="M10.7528743,1.99177627 C10.7528743,3.03467237 9.63304369,3.87988816 8.2512899,3.87988816 C6.86953612,3.87988816 5.74930801,3.03466237 5.74930801,1.99177627 C5.74930801,0.948880178 6.86943676,0.103664386 8.2512899,0.103664386 C9.63314305,0.103664386 10.7528743,0.948890177 10.7528743,1.99177627" id="Path"></path>
                <path d="M16.0550422,1.09327653 L15.2896656,1.09327653 L15.2896656,2.94793057 L16.0550422,2.94793057 C19.342676,2.94793057 22.0177488,5.42831417 22.0177488,8.47686791 L22.0177488,10.3717873 L21.9901774,10.3714462 C21.8931313,13.2405088 20.8487189,16.3480195 19.1264144,18.8973172 C17.0743489,21.9342542 14.4176276,23.7547569 12.0086034,23.7803486 C9.59920282,23.754418 6.94285793,21.9348656 4.89116889,18.8980159 C3.16886436,16.3486309 2.12480958,13.2407708 2.02665299,10.3721449 L1.99908163,10.3724862 L1.99908163,8.47721737 C1.99944922,5.42805223 4.67462493,2.94793065 7.96254108,2.94793065 L8.72718368,2.94793065 L8.72718368,1.09292724 L7.96254108,1.09292724 C3.57175149,1.09292724 0,4.40517131 0,8.47721737 L0,10.5373036 L0.0363941648,10.5373036 C0.167630363,13.7386213 1.28551433,17.0539223 3.19754434,19.8821955 C5.60543919,23.4466006 8.87246296,25.5865188 11.9571018,25.6339464 L11.9571018,25.6383818 C11.9743794,25.6383818 11.992025,25.6363347 12.0085677,25.6359935 C12.0258453,25.6363347 12.0434909,25.6383818 12.0607695,25.6383818 L12.0607695,25.6339464 C15.1454083,25.5865214 18.4116792,23.4466006 20.8203269,19.8821955 C22.7312276,17.054097 23.8501939,13.7387959 23.9807242,10.5373036 L24.0171184,10.5373036 L24.0171184,8.47756674 C24.0171184,4.40517131 20.4457434,1.09327661 16.0549538,1.09327661 L16.0550422,1.09327653 Z" id="Path"></path>
                <path d="M18.5679223,1.88811189 C18.5679223,2.93100798 17.4477936,3.77622378 16.0659404,3.77622378 C14.6840873,3.77622378 13.564356,2.93099799 13.564356,1.88811189 C13.564356,0.845215791 14.6841866,0 16.0659404,0 C17.4476942,0 18.5679223,0.84522579 18.5679223,1.88811189" id="Path"></path>
                <path d="M33.9616489,14.6502414 C30.9879899,14.6502414 28.5710232,17.0740129 28.5710232,20.0525381 L28.5710232,34.7238409 C28.5710232,38.6973114 25.009095,42.0537949 20.792614,42.0537949 L20.6437331,42.0537949 C16.4538576,42.0537949 13.0451188,38.7664694 13.0451188,34.7238409 L13.0451188,25.0277032 L11.0895613,25.0277032 L11.0895613,34.7238409 C11.0895613,39.7919179 15.3758245,43.9159757 20.643641,43.9159757 L20.7925219,43.9159757 C26.0690842,43.9159757 30.5261204,39.7062812 30.5261204,34.7238409 L30.5261204,20.0525381 C30.5261204,18.1005132 32.0670357,16.5125099 33.9610965,16.5125099 L37.1081062,16.5125099 L37.1081062,14.6502414 L33.9616489,14.6502414 Z" id="Path"></path>
                <path d="M43.1774917,15.223194 C43.1774917,16.5274726 42.057889,17.5819224 40.6753345,17.5819224 C39.2927799,17.5819224 38.1739253,16.5267668 38.1739253,15.223194 C38.1739253,13.9196212 39.293902,12.8616427 40.6753345,12.8616427 C42.057889,12.8619874 43.1774917,13.919533 43.1774917,15.223194 Z" id="Path"></path>
                <path d="M40.6751719,20.4140903 C37.6394592,20.4140903 35.1717855,18.0843844 35.1717855,15.2210653 C35.1717855,12.3580838 37.6405325,10.0294749 40.6751719,10.0294749 C43.7102584,10.0294749 46.1796315,12.3578307 46.1796315,15.2204747 C46.1796315,18.0843844 43.7102584,20.4140903 40.6751719,20.4140903 L40.6751719,20.4140903 Z M40.6751719,11.834343 C38.6962926,11.834343 37.0852836,13.3531661 37.0852836,15.2203903 C37.0852836,17.0882896 38.6959348,18.6077877 40.6751719,18.6077877 C42.6547667,18.6077877 44.2654179,17.0882896 44.2654179,15.2203903 C44.2654179,13.3531661 42.6544089,11.834343 40.6751719,11.834343 Z" id="Shape"></path>
                <path d="M20.3535732,18.1140414 C20.109768,17.965773 19.8287589,17.8875474 19.5422249,17.8875474 C19.0122533,17.8875474 18.5275563,18.1464003 18.2462172,18.5798274 C16.3222878,21.5431009 13.761197,23.4012568 11.5628112,23.4311125 C9.36376538,23.4016009 6.80305176,21.5431009 4.87865097,18.5798274 C4.59727417,18.1460453 4.11260538,17.8875474 3.58302039,17.8875474 C3.29648634,17.8875474 3.01585438,17.9654153 2.77203974,18.1140414 C2.05829268,18.5456935 1.84136742,19.458096 2.28847406,20.1478729 C4.76489909,23.9605786 8.18037816,26.2884164 11.423603,26.3751618 C11.434652,26.3762286 11.445701,26.3776507 11.4563813,26.3797841 C11.4840033,26.3829841 11.5119929,26.384762 11.5418249,26.3829841 L11.5830735,26.3829841 C11.5937538,26.3840508 11.6040664,26.3840508 11.6147467,26.3840508 C11.6331611,26.3840508 11.6504713,26.3819175 11.668517,26.3801397 C11.679566,26.3780063 11.6906149,26.3765841 11.700558,26.3755174 C14.94482,26.288761 18.3600162,23.9619354 20.8363469,20.1482284 C21.2838213,19.4580874 21.0676314,18.5457578 20.3535167,18.1140328 L20.3535732,18.1140414 Z" id="Path"></path>
            </g>
            <g id="Group-15" transform="translate(539.384451, 40.000000)" fill="#173E67" fill-opacity="0.1" fill-rule="nonzero">
                <path d="M12.9108239,5.65714286 C12.5357219,2.49806959 9.75827345,0 6.45541196,0 C3.15255047,0 0.375656915,2.49806959 0,5.65714286 L12.9108239,5.65714286 Z" id="Path"></path>
                <path d="M16.5466571,16.0285714 C14.8368263,17.8732404 13.9039642,20.2343692 13.9039642,22.7432612 C13.9039642,25.473561 14.9920826,28.0562161 17.090785,29.9745295 C19.1894748,31.8933172 21.8321676,33 24.7077013,33 C27.3503941,33 29.8374434,32.1147487 31.7804896,30.4911079 L16.5466571,16.0285714 Z" id="Path"></path>
                <path d="M0,7.54285714 C0.375101995,10.7019304 3.15255047,13.2 6.45541196,13.2 C9.75827345,13.2 12.535167,10.7019304 12.9108239,7.54285714 L0,7.54285714 Z" id="Path"></path>
                <path d="M24.9495115,12.2576172 C22.3067448,12.2576172 19.819626,13.1428686 17.8765254,14.7665093 L33.1102842,29.2285714 C34.8201627,27.3839025 35.7530509,25.0227737 35.7530509,22.5138816 C35.7530509,19.7835819 34.664902,17.2009268 32.566141,15.2826134 C30.4673925,13.3638256 27.8246258,12.2571429 24.9490118,12.2571429 L24.9495115,12.2576172 Z" id="Path"></path>
                <path d="M46.268654,1.88571429 L46.268654,18.8571429 C50.6965102,18.1595047 54.0385164,14.5949193 54.0385164,10.3328203 C54.0385164,6.07059682 50.696913,2.58340228 46.268654,1.886337 L46.268654,1.88571429 Z" id="Path"></path>
                <path d="M44.6913136,1.88571429 C39.7344922,1.96202379 35.7530509,5.70788562 35.7530509,10.3714286 C35.7530509,15.0349715 39.7344922,18.8571429 44.6913136,18.8571429 L44.6913136,1.88571429 Z" id="Path"></path>
            </g>
            <path d="M724.698691,196.017783 L720.302929,200.166667 L711.507133,191.868899 L715.907593,187.715581 C717.079369,186.609615 718.643446,186 720.303356,186 C721.963265,186 723.527001,186.609341 724.699118,187.715581 C727.124069,190.00434 727.124069,193.729024 724.699118,196.01738 L724.698691,196.017783 Z M705.319272,196.763854 C704.14738,197.869775 703.501427,199.345947 703.501427,200.912567 C703.501427,202.479187 704.14709,203.955037 705.319272,205.06128 C707.744461,207.349944 711.691169,207.349944 714.115931,205.06128 L718.512126,200.912567 L709.719737,192.611111 L705.319272,196.763854 Z M731.518967,220 C735.153174,220 738.261148,217.648515 739.527104,214.333663 L723.515692,214.333333 C724.781324,217.648185 727.889217,220 731.519048,220 L731.518967,220 Z M740.404489,210.555556 L722.638307,210.555556 C722.567218,211.018331 722.514979,211.490669 722.514979,211.972222 C722.514979,212.458709 722.567221,212.926054 722.638307,213.388889 L740.404489,213.388889 C740.480207,212.926113 740.527817,212.458751 740.527817,211.972222 C740.527817,211.490677 740.480204,211.01839 740.404489,210.555556 Z M723.516097,208.666667 L739.527104,208.666667 C738.26118,205.351617 735.153366,203 731.51917,203 C727.889106,203 724.781292,205.351617 723.515692,208.666667 L723.516097,208.666667 Z" id="Shape" fill-opacity="0.1" fill="#173E67" fill-rule="nonzero"></path>
        </g>
    </g>
</svg>