<?xml version="1.0" encoding="UTF-8"?>
<svg width="1300px" height="292px" viewBox="0 0 1300 292" version="1.1" xmlns="http://www.w3.org/2000/svg" xmlns:xlink="http://www.w3.org/1999/xlink">
    <title>1 Graph@3x</title>
    <defs>
        <linearGradient x1="50%" y1="48.897959%" x2="49.872449%" y2="51.1020414%" id="linearGradient-1">
            <stop stop-color="#9F5CAB" offset="0%"></stop>
            <stop stop-color="#9F5CAB" stop-opacity="0" offset="100%"></stop>
        </linearGradient>
        <linearGradient x1="50%" y1="47.5650395%" x2="49.872449%" y2="52.4349613%" id="linearGradient-2">
            <stop stop-color="#666FB7" offset="0%"></stop>
            <stop stop-color="#666FB7" stop-opacity="0" offset="100%"></stop>
        </linearGradient>
        <ellipse id="path-3" cx="12.342124" cy="12" rx="12.342124" ry="12"></ellipse>
        <filter x="-97.2%" y="-100.0%" width="294.5%" height="300.0%" filterUnits="objectBoundingBox" id="filter-4">
            <feMorphology radius="2.5" operator="erode" in="SourceAlpha" result="shadowSpreadOuter1"></feMorphology>
            <feOffset dx="0" dy="0" in="shadowSpreadOuter1" result="shadowOffsetOuter1"></feOffset>
            <feGaussianBlur stdDeviation="10.5" in="shadowOffsetOuter1" result="shadowBlurOuter1"></feGaussianBlur>
            <feColorMatrix values="0 0 0 0 0.360784314   0 0 0 0 0.380392157   0 0 0 0 0.670588235  0 0 0 0.828656817 0" type="matrix" in="shadowBlurOuter1"></feColorMatrix>
        </filter>
        <ellipse id="path-5" cx="12.342124" cy="12" rx="12.342124" ry="12"></ellipse>
        <filter x="-97.2%" y="-100.0%" width="294.5%" height="300.0%" filterUnits="objectBoundingBox" id="filter-6">
            <feMorphology radius="2.5" operator="erode" in="SourceAlpha" result="shadowSpreadOuter1"></feMorphology>
            <feOffset dx="0" dy="0" in="shadowSpreadOuter1" result="shadowOffsetOuter1"></feOffset>
            <feGaussianBlur stdDeviation="10.5" in="shadowOffsetOuter1" result="shadowBlurOuter1"></feGaussianBlur>
            <feColorMatrix values="0 0 0 0 0.360784314   0 0 0 0 0.380392157   0 0 0 0 0.670588235  0 0 0 0.828656817 0" type="matrix" in="shadowBlurOuter1"></feColorMatrix>
        </filter>
    </defs>
    <g id="Dashboard" stroke="none" stroke-width="1" fill="none" fill-rule="evenodd">
        <g id="1-Graph" transform="translate(0.000000, 1.000000)">
            <g id="Path-+-Path-Mask" transform="translate(0.000000, 4.500000)" fill-rule="nonzero">
                <path d="M216.2875,80.7458324 C118.343112,79.6263132 25.2060714,132.190958 0,154.109085 L0,194 L1300,194 L1255.22959,20.9249018 C1155.7398,30.5759296 1049.61735,11.273874 1019.27959,10.7926094 C950.863776,10.7926094 848.840306,65.821483 803.227551,94.7346755 C765.779592,120.477184 718.007908,125.980843 698.803061,125.513733 C609.50102,126.633252 541.566071,69.086104 518.759694,40.1729116 C498.596429,7.71457499 475.892857,1 464.746684,1 C446.045918,0.979444399 417.936735,10.513373 389.127806,42.9717097 C360.322194,75.4287595 314.709439,84.4762763 295.507908,84.9420993 C268.645663,85.5945088 236.692857,80.7458324 216.2875,80.7458324 Z" id="Path" fill="url(#linearGradient-1)" opacity="0.381859334"></path>
                <path d="M215.622,118.172581 C117.97898,116.513604 25.1285143,194.407326 0,226.887038 L0,286 L1296,286 L1251.36735,29.5260203 C1152.18367,43.8275433 1046.38776,15.2244973 1016.14335,14.511328 C947.938041,14.511328 846.22849,96.0567054 800.756082,138.902162 C763.423347,177.049091 715.798653,185.204773 696.652898,184.512579 C607.625633,186.171556 539.899714,100.894434 517.16351,58.0489778 C497.062286,9.95009557 474.428571,0 463.316694,0 C444.673469,-0.0304606316 416.650776,14.0975373 387.93049,62.1964195 C359.21351,110.293395 313.741102,123.700596 294.598653,124.390883 C267.819061,125.357666 235.964571,118.172581 215.622,118.172581 Z" id="Path" fill="url(#linearGradient-2)" opacity="0.381859334"></path>
                <path d="M217.545,81.0000357 L217.455,83.0000357 C217.485,83.0000357 217.515,83.0000357 217.545,83.0000357 L217.545,81.0000357 Z M296.5945,84.9980357 L296.4055,83.0020357 L296.5945,84.9980357 Z M464.5045,2.00003569 L464.4955,4.00003569 L464.5045,4.00003569 L464.5045,2.00003569 Z M517.958,40.7070357 L515.042,41.1770357 C515.057,41.2150357 515.072,41.2550357 515.09,41.2930357 L517.958,40.7070357 Z M696.455,124.999693 L696.641,123.003693 C696.548,122.999693 696.452,122.999693 696.359,123.001693 L696.455,124.999693 Z M799.8065,95.5220357 L797.2475,94.4780357 C797.2295,94.4980357 797.2115,94.5200357 797.1935,94.5400357 L799.8065,95.5220357 Z M1014.4385,12.0000357 L1014.5615,10.0020357 C1014.5195,10.0020357 1014.4805,10.0000357 1014.4385,10.0000357 L1014.4385,12.0000357 Z M6.01795614,154.000036 C18.3866617,143.347037 47.5713107,125.142464 85.7403886,109.755643 C124.027097,94.3219651 170.624741,82.0163074 217.805596,82.5507303 L218,80.0179203 C167.870135,79.4505708 119.542626,92.4590833 80.9709014,108.008004 C42.2815457,123.605049 12.6751389,142.051504 0,152.967916 L6.01795614,154.000036 Z M218,83.2608623 C227.707599,83.2608623 240.25524,84.2850168 254.310313,85.2944759 C268.111399,86.2869787 283.139541,87.242178 297,86.9448793 L296.587683,84.6885743 C283.729979,84.9643952 269.509979,84.0770207 255.666013,83.082257 C242.076033,82.1055799 228.588309,81.0000357 218,81.0000357 L218,83.2608623 Z M296.410411,87.0000357 C317.259277,86.4970599 363.241698,77.046942 392,44.8248147 L385.791306,44.0000357 C357.505797,75.6925814 313.178152,84.0569302 296,84.4712201 L296.410411,87.0000357 Z M392.210442,44.0000357 C406.414653,28.0894662 420.362695,17.9000634 432.888674,11.7164907 C445.470484,5.50504693 456.209853,3.52493545 463.980295,3.53380352 L464,1.00003569 C453.250779,0.988669822 440.810189,3.69089489 427.712758,10.1569787 C414.559495,16.6496667 400.322442,27.1317156 386,43.175306 L392.210442,44.0000357 Z M464,3.52552738 C467.847558,3.52552738 475.410568,4.7162967 484.756996,10.2256568 C494.017556,15.6845071 504.57935,25.1399479 514.579698,41.0000357 L521,40.4078079 C510.917087,24.4163946 500.13732,14.6503182 490.298801,8.85178933 C480.54615,3.10377027 471.252564,1.00003569 464,1.00003569 L464,3.52552738 Z M514,40.7526416 C525.447845,55.2888702 548.214425,77.0243852 579.389775,95.0148819 C594.979106,104.01013 612.760013,112.122836 632.401444,117.926263 C652.056116,123.73355 673.736839,127.275301 697,126.983264 L696.788125,124.411539 C675.481494,124.679132 655.254097,121.447429 636.407196,115.878146 C617.547053,110.305003 600.236242,102.43802 584.88196,93.5778549 C554.170086,75.8549515 531.648486,54.3690186 520.329751,40.0000357 L514,40.7526416 Z M696,126.971513 C716.640264,127.464776 765.254125,121.733113 803,96.2369675 L797.250825,95.0000357 C760.462046,119.849403 713.993399,124.878921 696.409241,124.4599 L696,126.971513 Z M801.660732,97.0000357 C824.416479,82.3994664 861.231148,61.2134579 900.839684,43.6961633 C920.64893,34.9355611 941.072029,27.1302582 960.71205,21.523577 C980.438342,15.8947402 998.943561,12.606582 1015,12.606582 L1015,10.0000357 C996.829912,10.0000357 976.90785,13.6791758 956.813245,19.414881 C936.632369,25.1740451 915.850911,33.1318311 895.879078,41.9654166 C855.925456,59.6351941 818.881835,80.9580463 796,95.6394185 L801.660732,97.0000357 Z M1014,13.5051216 C1021.04026,13.6141473 1032.80803,14.8184432 1048.63217,16.5189942 C1064.24905,18.1982414 1083.41238,20.3085788 1104.73055,22.1093834 C1147.3373,25.7084863 1198.92202,28.1032932 1249,23.3349832 L1247.40114,20.9038344 C1198.78385,25.5330425 1148.38347,23.229717 1106.15506,19.6619434 C1085.0573,17.8799363 1066.08807,15.7909027 1050.41855,14.1066429 C1034.95629,12.4449401 1022.27724,11.1253526 1014.26977,11.0000357 L1014,13.5051216 Z" id="Shape" fill="#9F5CAB"></path>
                <path d="M217.545,120.000026 L217.455,122.000026 C217.485,122.000026 217.515,122.000026 217.545,122.000026 L217.545,120.000026 Z M296.5945,125.998024 L296.4055,124.002025 L296.5945,125.998024 Z M464.5045,2.00005349 L464.4955,4.00005349 L464.5045,4.00005349 L464.5045,2.00005349 Z M517.958,59.7070399 L515.042,60.1770398 C515.057,60.2150398 515.072,60.2550398 515.09,60.2930398 L517.958,59.7070399 Z M696.455,185.999667 L696.641,184.003667 C696.548,183.999667 696.452,183.999667 696.359,184.001667 L696.455,185.999667 Z M799.8065,140.522021 L797.2475,139.478021 C797.2295,139.498021 797.2115,139.520021 797.1935,139.540021 L799.8065,140.522021 Z M1014.4385,16.0000507 L1014.5615,14.0020507 C1014.5195,14.0020507 1014.4805,14.0000507 1014.4385,14.0000507 L1014.4385,16.0000507 Z M6.01795614,229 C18.3866617,213.020505 47.5713107,185.713653 85.7403886,162.633427 C124.027097,139.482915 170.624741,121.024433 217.805596,121.826067 L218,118.026853 C167.870135,117.175829 119.542626,136.688593 80.9709014,160.011969 C42.2815457,183.40753 12.6751389,211.077207 0,227.45182 L6.01795614,229 Z M218,121.76807 C227.707599,121.76807 240.25524,123.474993 254.310313,125.157425 C268.111399,126.811596 283.139541,128.403594 297,127.908096 L296.587683,124.147589 C283.729979,124.60729 269.509979,123.128333 255.666013,121.470394 C242.076033,119.842599 228.588309,118.000026 218,118.000026 L218,121.76807 Z M296.410411,128.000024 C317.259277,127.239712 363.241698,112.954653 392,64.2467978 L385.791306,63.0000391 C357.505797,110.907364 313.178152,123.551144 296,124.177397 L296.410411,128.000024 Z M392.210442,65.0000386 C406.414653,40.9491835 420.362695,25.5466014 432.888674,16.1993426 C445.470484,6.80995306 456.209853,3.816762 463.980295,3.8301672 L464,5.39572757e-05 C453.250779,-0.0171270099 440.810189,4.06763086 427.712758,13.8419413 C414.559495,23.6564673 400.322442,39.5014212 386,63.7533545 L392.210442,65.0000386 Z M464,3.78829059 C467.847558,3.78829059 475.410568,5.57444416 484.756996,13.8384824 C494.017556,22.0267558 504.57935,36.2099138 514.579698,60.0000398 L521,59.1116983 C510.917087,35.124584 500.13732,20.4754729 490.298801,11.7776816 C480.54615,3.15565507 471.252564,5.39572757e-05 464,5.39572757e-05 L464,3.78829059 Z M514,59.1246235 C525.447845,80.8454199 548.214425,113.323768 579.389775,140.206113 C594.979106,153.647285 612.760013,165.769716 632.401444,174.441502 C652.056116,183.119055 673.736839,188.411325 697,187.974948 L696.788125,184.132141 C675.481494,184.531993 655.254097,179.703014 636.407196,171.381098 C617.547053,163.053415 600.236242,151.298156 584.88196,138.058832 C554.170086,111.576339 531.648486,79.4709293 520.329751,58.0000403 L514,59.1246235 Z M696,187.957226 C716.640264,188.69712 765.254125,180.099628 803,141.855418 L797.250825,140.000021 C760.462046,177.274064 713.993399,184.818339 696.409241,184.189807 L696,187.957226 Z M801.660732,143.00002 C824.416479,121.350905 861.231148,89.9371761 900.839684,63.9632626 C920.64893,50.9734072 941.072029,39.4000297 960.71205,31.0866768 C980.438342,22.7404725 998.943561,17.8649288 1015,17.8649288 L1015,14.0000507 C996.829912,14.0000507 976.90785,19.4553261 956.813245,27.9599904 C936.632369,36.4994387 915.850911,48.2989116 895.879078,61.3969835 C855.925456,87.5969923 818.881835,119.213628 796,140.982554 L801.660732,143.00002 Z M1014,17.8411814 C1021.04026,18.0083542 1032.80803,19.8549408 1048.63217,22.4624518 C1064.24905,25.0372968 1083.41238,28.2731468 1104.73055,31.0343798 C1147.3373,36.5530029 1198.92202,40.2250393 1249,32.9136324 L1247.40114,29.1858717 C1198.78385,36.2839892 1148.38347,32.7522242 1106.15506,27.2816393 C1085.0573,24.5492291 1066.08807,21.3460451 1050.41855,18.7635139 C1034.95629,16.2155703 1022.27724,14.1922033 1014.26977,14.0000507 L1014,17.8411814 Z" id="Shape" fill="#5C63AB"></path>
            </g>
            <g id="Lines" stroke="#5563AB" stroke-dasharray="4.11" stroke-opacity="0.1" stroke-width="2.05587">
                <line x1="-0.00820516256" y1="0.5" x2="1236.99179" y2="0.5" id="Path"></line>
                <line x1="0" y1="65.5" x2="1237" y2="65.5" id="Path"></line>
                <line x1="0" y1="130.5" x2="1237" y2="130.5" id="Path"></line>
                <line x1="0" y1="195.5" x2="1237" y2="195.5" id="Path"></line>
                <line x1="0" y1="260.5" x2="1237" y2="260.5" id="Path"></line>
            </g>
            <g id="Group-48" transform="translate(496.634216, 23.500000)">
                <g id="Group-13" transform="translate(0.000000, 11.000000)">
                    <line x1="12.8102281" y1="18.5" x2="12.8657836" y2="225.5" id="Path" stroke="#5C63AB" stroke-width="1.5" stroke-linecap="round" stroke-dasharray="4"></line>
                    <g id="Group-10" fill-rule="nonzero">
                        <g id="Oval" opacity="0.80124192">
                            <use fill="black" fill-opacity="1" filter="url(#filter-4)" xlink:href="#path-3"></use>
                            <use fill="#FFFFFF" xlink:href="#path-3"></use>
                        </g>
                        <ellipse id="Oval" fill="#5C63AB" cx="12.342124" cy="12" rx="4.11404134" ry="4"></ellipse>
                    </g>
                </g>
                <g id="Group-31" transform="translate(29.598646, 0.000000)">
                    <path d="M64.25,0 C70.2489209,-6.43009599e-15 75.5985027,2.78015146 79.0805927,7.12230184 L98.670297,22.2586873 C99.1073269,22.5963607 99.1878713,23.2243818 98.850198,23.6614117 C98.798135,23.7287936 98.7376789,23.7892497 98.670297,23.8413127 L78.8602573,39.147379 C75.3750362,43.3346264 70.1237838,46 64.25,46 L15,46 C6.71572875,46 2.79088747e-15,39.2842712 0,31 L0,15 C7.61826213e-16,6.71572875 6.71572875,3.29815278e-15 15,0 L64.25,0 Z" id="Combined-Shape" fill="#5C63AB" transform="translate(49.529467, 23.000000) scale(-1, 1) translate(-49.529467, -23.000000) "></path>
                    <text id="320" font-family="Poppins-SemiBold, Poppins" font-size="18" font-weight="500" line-spacing="20" letter-spacing="0.126" fill="#FFFFFF">
                        <tspan x="41.9893601" y="30">320</tspan>
                    </text>
                </g>
            </g>
            <g id="Group-49" transform="translate(886.634216, 23.500000)">
                <g id="Group-13" transform="translate(0.000000, 11.000000)">
                    <line x1="12.8102281" y1="18.5" x2="12.8657836" y2="225.5" id="Path" stroke="#9F5CAB" stroke-width="1.5" stroke-linecap="round" stroke-dasharray="4"></line>
                    <g id="Group-10" fill-rule="nonzero">
                        <g id="Oval" opacity="0.80124192">
                            <use fill="black" fill-opacity="1" filter="url(#filter-6)" xlink:href="#path-5"></use>
                            <use fill="#FFFFFF" xlink:href="#path-5"></use>
                        </g>
                        <ellipse id="Oval" stroke="#9F5CAB" stroke-width="2" fill="#9F5CAB" cx="12.342124" cy="12" rx="4.11404134" ry="4"></ellipse>
                    </g>
                </g>
                <g id="Group-31" transform="translate(29.598646, 0.000000)">
                    <path d="M64.25,0 C70.2489209,-6.43009599e-15 75.5985027,2.78015146 79.0805927,7.12230184 L98.670297,22.2586873 C99.1073269,22.5963607 99.1878713,23.2243818 98.850198,23.6614117 C98.798135,23.7287936 98.7376789,23.7892497 98.670297,23.8413127 L78.8602573,39.147379 C75.3750362,43.3346264 70.1237838,46 64.25,46 L15,46 C6.71572875,46 2.79088747e-15,39.2842712 0,31 L0,15 C7.61826213e-16,6.71572875 6.71572875,3.29815278e-15 15,0 L64.25,0 Z" id="Combined-Shape" fill="#9F5CAB" transform="translate(49.529467, 23.000000) scale(-1, 1) translate(-49.529467, -23.000000) "></path>
                    <text id="320" font-family="Poppins-SemiBold, Poppins" font-size="18" font-weight="500" line-spacing="20" letter-spacing="0.126" fill="#FFFFFF">
                        <tspan x="39.9893601" y="30">320</tspan>
                    </text>
                </g>
            </g>
        </g>
    </g>
</svg>