<?xml version="1.0" encoding="UTF-8"?>
<svg width="973px" height="263px" viewBox="0 0 973 263" version="1.1" xmlns="http://www.w3.org/2000/svg" xmlns:xlink="http://www.w3.org/1999/xlink">
    <title>2 Graph@3x</title>
    <g id="Dashboard" stroke="none" stroke-width="1" fill="none" fill-rule="evenodd">
        <g id="2-Graph" transform="translate(0.000000, 1.000000)">
            <g id="Group-14" transform="translate(26.024345, 141.500000)" fill="#5C63AB" fill-rule="nonzero">
                <path d="M8,0 L24.1853874,0 C28.6036654,-1.69980292e-15 32.1853874,3.581722 32.1853874,8 L32.1853874,119 L32.1853874,119 L0,119 L0,8 C-1.42926142e-15,3.581722 3.581722,-7.65539184e-17 8,0 Z" id="Rectangle"></path>
            </g>
            <g id="Group-15" transform="translate(104.097378, 69.500000)" fill="#5C63AB" fill-rule="nonzero">
                <path d="M8,0 L24.1853874,0 C28.6036654,-8.11624501e-16 32.1853874,3.581722 32.1853874,8 L32.1853874,191 L32.1853874,191 L0,191 L0,8 C-5.41083001e-16,3.581722 3.581722,8.11624501e-16 8,0 Z" id="Rectangle"></path>
            </g>
            <g id="Group-16" transform="translate(182.170412, 17.500000)" fill="#5C63AB" fill-rule="nonzero">
                <path d="M8,0 L24.1853874,0 C28.6036654,-8.11624501e-16 32.1853874,3.581722 32.1853874,8 L32.1853874,243 L32.1853874,243 L0,243 L0,8 C-5.41083001e-16,3.581722 3.581722,8.11624501e-16 8,0 Z" id="Rectangle"></path>
            </g>
            <g id="Group-25" transform="translate(260.243446, 89.500000)" fill="#5C63AB" fill-rule="nonzero">
                <path d="M8,0 L24.1853874,0 C28.6036654,-8.11624501e-16 32.1853874,3.581722 32.1853874,8 L32.1853874,171 L32.1853874,171 L0,171 L0,8 C-5.41083001e-16,3.581722 3.581722,8.11624501e-16 8,0 Z" id="Rectangle"></path>
            </g>
            <g id="Group-30" transform="translate(339.317416, 141.500000)" fill="#5C63AB" fill-rule="nonzero">
                <path d="M8,0 L24.1853874,0 C28.6036654,-1.69980292e-15 32.1853874,3.581722 32.1853874,8 L32.1853874,119 L32.1853874,119 L0,119 L0,8 C-1.42926142e-15,3.581722 3.581722,-7.65539184e-17 8,0 Z" id="Rectangle-Copy-3"></path>
            </g>
            <g id="Group-32" transform="translate(417.390449, 69.500000)" fill="#5C63AB" fill-rule="nonzero">
                <path d="M8,0 L24.1853874,0 C28.6036654,-8.11624501e-16 32.1853874,3.581722 32.1853874,8 L32.1853874,191 L32.1853874,191 L0,191 L0,8 C-5.41083001e-16,3.581722 3.581722,8.11624501e-16 8,0 Z" id="Rectangle-Copy-5"></path>
            </g>
            <g id="Group-33" transform="translate(495.463483, 17.500000)" fill="#5C63AB" fill-rule="nonzero">
                <path d="M8,0 L24.1853874,0 C28.6036654,-8.11624501e-16 32.1853874,3.581722 32.1853874,8 L32.1853874,243 L32.1853874,243 L0,243 L0,8 C-5.41083001e-16,3.581722 3.581722,8.11624501e-16 8,0 Z" id="Rectangle-Copy-7"></path>
            </g>
            <g id="Group-34" transform="translate(573.536517, 89.500000)" fill="#5C63AB" fill-rule="nonzero">
                <path d="M8,0 L24.1853874,0 C28.6036654,-8.11624501e-16 32.1853874,3.581722 32.1853874,8 L32.1853874,171 L32.1853874,171 L0,171 L0,8 C-5.41083001e-16,3.581722 3.581722,8.11624501e-16 8,0 Z" id="Rectangle-Copy-9"></path>
            </g>
            <g id="Group-35" transform="translate(651.609551, 141.500000)" fill="#5C63AB" fill-rule="nonzero">
                <path d="M8,0 L24.1853874,0 C28.6036654,-8.11624501e-16 32.1853874,3.581722 32.1853874,8 L32.1853874,119 L32.1853874,119 L0,119 L0,8 C-5.41083001e-16,3.581722 3.581722,8.11624501e-16 8,0 Z" id="Rectangle-Copy-10"></path>
            </g>
            <g id="Group-36" transform="translate(729.682584, 69.500000)" fill="#5C63AB" fill-rule="nonzero">
                <path d="M8,0 L24.1853874,0 C28.6036654,-8.11624501e-16 32.1853874,3.581722 32.1853874,8 L32.1853874,191 L32.1853874,191 L0,191 L0,8 C-5.41083001e-16,3.581722 3.581722,8.11624501e-16 8,0 Z" id="Rectangle-Copy-12"></path>
            </g>
            <g id="Group-38" transform="translate(808.756554, 17.500000)" fill="#5C63AB" fill-rule="nonzero">
                <path d="M8,0 L24.1853874,0 C28.6036654,-8.11624501e-16 32.1853874,3.581722 32.1853874,8 L32.1853874,243 L32.1853874,243 L0,243 L0,8 C-5.41083001e-16,3.581722 3.581722,8.11624501e-16 8,0 Z" id="Rectangle-Copy-14"></path>
            </g>
            <g id="Group-39" transform="translate(886.829588, 89.500000)" fill="#5C63AB" fill-rule="nonzero">
                <path d="M8,0 L24.1853874,0 C28.6036654,-8.11624501e-16 32.1853874,3.581722 32.1853874,8 L32.1853874,171 L32.1853874,171 L0,171 L0,8 C-5.41083001e-16,3.581722 3.581722,8.11624501e-16 8,0 Z" id="Rectangle-Copy-18"></path>
            </g>
            <line x1="-7.04237883e-13" y1="0.5" x2="972.910112" y2="0.5" id="Path" stroke-opacity="0.1" stroke="#5563AB" stroke-width="2.05587" stroke-dasharray="4.11"></line>
            <line x1="-8.52651283e-14" y1="65.5" x2="972.910112" y2="65.5" id="Path" stroke-opacity="0.1" stroke="#5563AB" stroke-width="2.05587" stroke-dasharray="4.11"></line>
            <line x1="-8.52651283e-14" y1="130.5" x2="972.910112" y2="130.5" id="Path" stroke-opacity="0.1" stroke="#5563AB" stroke-width="2.05587" stroke-dasharray="4.11"></line>
            <line x1="-8.52651283e-14" y1="195.5" x2="972.910112" y2="195.5" id="Path" stroke-opacity="0.1" stroke="#5563AB" stroke-width="2.05587" stroke-dasharray="4.11"></line>
            <line x1="-8.52651283e-14" y1="260.5" x2="972.910112" y2="260.5" id="Path" stroke-opacity="0.1" stroke="#5563AB" stroke-width="2.05587" stroke-dasharray="4.11"></line>
        </g>
    </g>
</svg>