<?xml version="1.0" encoding="UTF-8"?>
<svg width="724px" height="263px" viewBox="0 0 724 263" version="1.1" xmlns="http://www.w3.org/2000/svg" xmlns:xlink="http://www.w3.org/1999/xlink">
    <title>3 Graph@3x</title>
    <g id="Dashboard" stroke="none" stroke-width="1" fill="none" fill-rule="evenodd">
        <g id="3-Graph" transform="translate(0.000000, 1.000000)">
            <g id="Group-46" transform="translate(7.000000, 29.000000)">
                <polyline id="Path-3" stroke="#5C63AB" stroke-width="4" stroke-linecap="round" stroke-linejoin="round" points="5 138.271358 63 5 107 88 165.23221 25 240 127 291.91071 202.069519 359 181.454453 427.477528 213 485.531835 157 554.5 181.454453 605 127 679.5 53.8977586"></polyline>
                <circle id="Oval" fill="#5C63AB" cx="5" cy="137" r="5"></circle>
                <circle id="Oval-Copy" fill="#5C63AB" cx="63" cy="5" r="5"></circle>
                <circle id="Oval-Copy-9" fill="#5C63AB" cx="165" cy="24" r="5"></circle>
                <circle id="Oval-Copy-10" fill="#5C63AB" cx="107" cy="88" r="5"></circle>
                <circle id="Oval-Copy-11" fill="#5C63AB" cx="249" cy="140" r="5"></circle>
                <circle id="Oval-Copy-12" fill="#5C63AB" cx="292" cy="203" r="5"></circle>
                <circle id="Oval-Copy-13" fill="#5C63AB" cx="427" cy="213" r="5"></circle>
                <circle id="Oval-Copy-14" fill="#5C63AB" cx="486" cy="156" r="5"></circle>
                <circle id="Oval-Copy-15" fill="#5C63AB" cx="359" cy="181" r="5"></circle>
                <circle id="Oval-Copy-16" fill="#5C63AB" cx="555" cy="181" r="5"></circle>
                <circle id="Oval-Copy-17" fill="#5C63AB" cx="611" cy="120" r="5"></circle>
                <circle id="Oval-Copy-18" fill="#5C63AB" cx="679" cy="53" r="5"></circle>
            </g>
            <g id="Horizontal-Lines-Copy" stroke="#5563AB" stroke-dasharray="4.11" stroke-opacity="0.1" stroke-width="2.05587">
                <line x1="-0.00480240671" y1="0.5" x2="724" y2="0.5" id="Path"></line>
                <line x1="0" y1="65.5" x2="724" y2="65.5" id="Path"></line>
                <line x1="0" y1="130.5" x2="724" y2="130.5" id="Path"></line>
                <line x1="0" y1="195.5" x2="724" y2="195.5" id="Path"></line>
                <line x1="0" y1="260.5" x2="724" y2="260.5" id="Path"></line>
            </g>
        </g>
    </g>
</svg>