<?xml version="1.0" encoding="UTF-8"?>
<svg width="23px" height="19px" viewBox="0 0 23 19" version="1.1" xmlns="http://www.w3.org/2000/svg" xmlns:xlink="http://www.w3.org/1999/xlink">
    <title>Icon/Messaging Copy 16</title>
    <g id="Patient" stroke="none" stroke-width="1" fill="none" fill-rule="evenodd" fill-opacity="0.4">
        <g id="Group-36" transform="translate(-27.000000, -695.000000)" fill="#5563AB">
            <g id="Group" transform="translate(26.000000, 693.000000)">
                <g id="iconspace_Search_Zoom_25px-Copy-2" transform="translate(1.500000, 2.000000)">
                    <path d="M20,5 L2,5 L2,8 C2,8.55228475 2.44771525,9 3,9 L19,9 C19.5522847,9 20,8.55228475 20,8 L20,5 Z M6,3 C6,1.34314575 7.34314575,0 9,0 L13,0 C14.6568542,0 16,1.34314575 16,3 L20,3 C21.1045695,3 22,3.8954305 22,5 L22,15 C22,17.209139 20.209139,19 18,19 L4,19 C1.790861,19 0,17.209139 0,15 L0,5 C0,3.8954305 0.8954305,3 2,3 L6,3 Z M8,3 L14,3 C14,2.44771525 13.5522847,2 13,2 L9,2 C8.44771525,2 8,2.44771525 8,3 Z M8,11 L3,11 C2.64936458,11 2.31277893,10.9398458 2,10.8292943 L2,15 C2,16.1045695 2.8954305,17 4,17 L18,17 C19.1045695,17 20,16.1045695 20,15 L20,10.8292943 C19.6872211,10.9398458 19.3506354,11 19,11 L14,11 L14,12.6 C14,13.3731986 13.3731986,14 12.6,14 L9.4,14 C8.62680135,14 8,13.3731986 8,12.6 L8,11 Z M10,12 L12,12 L12,11 L10,11 L10,12 Z" id="Shape"></path>
                </g>
            </g>
        </g>
    </g>
</svg>