<?xml version="1.0" encoding="UTF-8"?>
<svg width="21px" height="21px" viewBox="0 0 21 21" version="1.1" xmlns="http://www.w3.org/2000/svg" xmlns:xlink="http://www.w3.org/1999/xlink">
    <title>Icon/Messaging Copy 23</title>
    <g id="Patient" stroke="none" stroke-width="1" fill="none" fill-rule="evenodd">
        <g id="Group-36" transform="translate(-28.000000, -281.000000)">
            <g id="Group" transform="translate(26.000000, 280.000000)">
                <g id="Group-59" transform="translate(0.500000, 0.000000)">
                    <rect id="Icon-Spacing" opacity="0.2" x="0" y="0" width="24" height="24" rx="5"></rect>
                    <g id="calendar" transform="translate(3.000000, 2.500000)" stroke="#5563AB" stroke-linecap="round" stroke-linejoin="round" stroke-opacity="0.4" stroke-width="2">
                        <path d="M3,3 L3,0 M7,3 L7,0 M11,3 L11,0 M15,3 L15,0 M18,7 L0,7 M2,18 L16,18 C17.1046,18 18,17.1046 18,16 L18,4 C18,2.89543 17.1046,2 16,2 L2,2 C0.89543,2 0,2.89543 0,4 L0,16 C0,17.1046 0.89543,18 2,18 Z" id="Shape"></path>
                    </g>
                </g>
            </g>
        </g>
    </g>
</svg>