<?xml version="1.0" encoding="UTF-8"?>
<svg width="20px" height="20px" viewBox="0 0 20 20" version="1.1" xmlns="http://www.w3.org/2000/svg" xmlns:xlink="http://www.w3.org/1999/xlink">
    <title>Cases@3x</title>
    <g id="Symbols" stroke="none" stroke-width="1" fill="none" fill-rule="evenodd">
        <g id="Side-Panel/FloatLegal/Disabled-Copy" transform="translate(-28.000000, -220.000000)">
            <g id="Group-9-Copy" transform="translate(0.000000, 201.000000)">
                <g id="Cases" transform="translate(26.000000, 17.000000)">
                    <g id="Group-57" transform="translate(0.500000, 0.000000)" opacity="0.2">
                        <rect id="Icon-Spacing" x="0" y="0" width="24" height="24" rx="5"></rect>
                    </g>
                    <g id="medical_services_black_24dp-copy-2">
                        <rect id="Rectangle" x="0" y="0" width="24" height="24"></rect>
                        <g id="Group" transform="translate(2.000000, 2.000000)" fill="#1F3D5A" fill-opacity="0.4" fill-rule="nonzero">
                            <path d="M18,4 L14,4 L14,2 C14,0.9 13.1,0 12,0 L8,0 C6.9,0 6,0.9 6,2 L6,4 L2,4 C0.9,4 0,4.9 0,6 L0,18 C0,19.1 0.9,20 2,20 L18,20 C19.1,20 20,19.1 20,18 L20,6 C20,4.9 19.1,4 18,4 Z M8,2 L12,2 L12,4 L8,4 L8,2 Z M18,18 L2,18 L2,6 L18,6 L18,18 Z" id="Shape"></path>
                        </g>
                    </g>
                </g>
            </g>
        </g>
    </g>
</svg>