<?xml version="1.0" encoding="UTF-8"?>
<svg width="21px" height="23px" viewBox="0 0 21 23" version="1.1" xmlns="http://www.w3.org/2000/svg" xmlns:xlink="http://www.w3.org/1999/xlink">
    <title>Client Schedule Select@3x</title>
    <g id="Symbols" stroke="none" stroke-width="1" fill="none" fill-rule="evenodd">
        <g id="Side-Panel/FloatLegal/Client-Schedule" transform="translate(-28.000000, -451.000000)">
            <g id="Group-43-Copy-4" transform="translate(0.000000, 433.000000)">
                <g id="edit_calendar_black_24dp" transform="translate(26.000000, 16.804348)">
                    <rect id="Rectangle" x="0" y="0" width="24" height="24"></rect>
                    <path d="M18.8034492,15.3089211 L21.1248289,17.6303008 L15.3213797,23.43375 L13,23.43375 L13,21.1123703 L18.8034492,15.3089211 Z M15.7895722,2 C16.2738937,2 16.6527645,2.40819849 16.6527645,2.88080497 L16.6527645,2.88080497 L16.6526176,3.93346683 L18.7368168,3.93347044 C20.5263589,3.93347044 22,5.43717994 22,7.26308276 L22,7.26308276 L22,12 L20.294,12 L20.2947092,11.0654514 L3.70529784,11.0654514 L3.70529784,18.6701191 C3.70529784,19.5509241 4.40003207,20.2598338 5.26322431,20.2598338 L5.26322431,20.2598338 L11,20.259 L11,22 L5.26318322,22 C3.47364108,22 2,20.5176959 2,18.6702342 L2,18.6702342 L2,7.2632326 C2,5.43717633 3.45266371,3.93346683 5.26318322,3.93346683 L5.26318322,3.93346683 L7.32629577,3.93346683 L7.32629577,2.88080497 C7.32629577,2.3866013 7.7053169,2 8.18948801,2 C8.6738095,2 9.05268025,2.40819849 9.05268025,2.88080497 L9.05268025,2.88080497 L9.05268025,3.93346683 L14.9473949,3.93346683 L14.9473949,2.88080497 C14.9473949,2.40819849 15.3054011,2 15.7895722,2 Z M21.9022721,13.7540347 L22.6797153,14.5314779 C23.1067616,14.9585242 23.1067616,15.6483681 22.6797153,16.0754144 L21.9022721,16.8528576 L19.5808924,14.5314779 L20.3583356,13.7540347 C20.7853819,13.3269884 21.4752258,13.3269884 21.9022721,13.7540347 Z M7.3474646,5.67347957 L5.26318672,5.67347957 C4.39999447,5.67347957 3.70526024,6.38238927 3.70526024,7.26319424 L3.70526024,7.26319424 L3.70526024,9.30395654 L20.2946716,9.30395654 L20.2946716,7.26319424 C20.2946716,6.38238927 19.5999373,5.67347957 18.7367451,5.67347957 L18.7367451,5.67347957 L16.6949483,5.67347957 L16.6949483,6.72614143 C16.6949483,7.22034509 16.3159271,7.60694639 15.831756,7.60694639 C15.3474345,7.60694639 14.9685638,7.1987479 14.9685638,6.72614143 L14.9685638,6.72614143 L14.9685638,5.67347957 L9.07384908,5.67347957 L9.07384908,6.72614143 C9.07384908,7.22034509 8.69482795,7.60694639 8.21065684,7.60694639 C7.72633535,7.60694639 7.3474646,7.1987479 7.3474646,6.72614143 L7.3474646,6.72614143 L7.3474646,5.67347957 Z" id="Combined-Shape" fill="#1F3D5A" fill-rule="nonzero"></path>
                </g>
            </g>
        </g>
    </g>
</svg>