<?xml version="1.0" encoding="UTF-8"?>
<svg width="21px" height="21px" viewBox="0 0 21 21" version="1.1" xmlns="http://www.w3.org/2000/svg" xmlns:xlink="http://www.w3.org/1999/xlink">
    <title>Client Schedule@3x</title>
    <g id="Symbols" stroke="none" stroke-width="1" fill="none" fill-rule="evenodd">
        <g id="Side-Panel/FloatLegal/Disabled-Copy" transform="translate(-29.000000, -510.000000)">
            <g id="Group-9-Copy-6" transform="translate(0.000000, 491.000000)">
                <g id="edit_calendar_black_24dp" transform="translate(26.000000, 17.000000)">
                    <rect id="Rectangle" x="0" y="0" width="24" height="24"></rect>
                    <path d="M5,10 L19,10 L19,12 L21,12 L21,6 C21,4.9 20.1,4 19,4 L18,4 L18,2 L16,2 L16,4 L8,4 L8,2 L6,2 L6,4 L5,4 C3.89,4 3.01,4.9 3.01,6 L3,20 C3,21.1 3.89,22 5,22 L12,22 L12,20 L5,20 L5,10 Z M5,6 L19,6 L19,8 L5,8 L5,6 Z M22.84,16.28 L22.13,16.99 L20.01,14.87 L20.72,14.16 C21.11,13.77 21.74,13.77 22.13,14.16 L22.84,14.87 C23.23,15.26 23.23,15.89 22.84,16.28 Z M19.3,15.58 L21.42,17.7 L16.12,23 L14,23 L14,20.88 L19.3,15.58 Z" id="Shape" fill-opacity="0.4" fill="#1F3D5A" fill-rule="nonzero"></path>
                </g>
            </g>
        </g>
    </g>
</svg>