<?xml version="1.0" encoding="UTF-8"?>
<svg width="22px" height="17px" viewBox="0 0 22 17" version="1.1" xmlns="http://www.w3.org/2000/svg" xmlns:xlink="http://www.w3.org/1999/xlink">
    <title>Providers Select@3x</title>
    <g id="Symbols" stroke="none" stroke-width="1" fill="none" fill-rule="evenodd">
        <g id="Side-Panel/FloatLegal/Providers" transform="translate(-27.000000, -337.000000)">
            <g id="Group-43-Copy-4" transform="translate(0.000000, 317.000000)">
                <g id="people_alt_black_24dp" transform="translate(26.000000, 16.804348)">
                    <rect id="Rectangle" x="0" y="0" width="24" height="24"></rect>
                    <g id="Group" transform="translate(1.000000, 4.000000)" fill="#1F3D5A" fill-rule="nonzero">
                        <path d="M15.67,9.13 C17.04,10.06 18,11.32 18,13 L18,16 L22,16 L22,13 C22,10.82 18.43,9.53 15.67,9.13 Z" id="Path"></path>
                        <path d="M14,8 C16.21,8 18,6.21 18,4 C18,1.79 16.21,0 14,0 C13.53,0 13.09,0.1 12.67,0.24 C13.5,1.27 14,2.58 14,4 C14,5.42 13.5,6.73 12.67,7.76 C13.09,7.9 13.53,8 14,8 Z" id="Path"></path>
                        <path d="M8,8 C10.21,8 12,6.21 12,4 C12,1.79 10.21,0 8,0 C5.79,0 4,1.79 4,4 C4,6.21 5.79,8 8,8 Z M8,2 C9.1,2 10,2.9 10,4 C10,5.1 9.1,6 8,6 C6.9,6 6,5.1 6,4 C6,2.9 6.9,2 8,2 Z" id="Shape"></path>
                        <path d="M8,9 C5.33,9 0,10.34 0,13 L0,16 L16,16 L16,13 C16,10.34 10.67,9 8,9 Z M14,14 L2,14 L2,13.01 C2.2,12.29 5.3,11 8,11 C10.7,11 13.8,12.29 14,13 L14,14 Z" id="Shape"></path>
                    </g>
                </g>
            </g>
        </g>
    </g>
</svg>