<?xml version="1.0" encoding="UTF-8"?>
<svg width="29px" height="22px" viewBox="0 0 29 22" version="1.1" xmlns="http://www.w3.org/2000/svg" xmlns:xlink="http://www.w3.org/1999/xlink">
    <title>Icon/Messaging Copy 21@3x</title>
    <g id="Dashboard" stroke="none" stroke-width="1" fill="none" fill-rule="evenodd">
        <g id="Super-Admin-Panel(Dashboard)" transform="translate(-1019.000000, -190.000000)" fill="#5C63AB">
            <g id="First-Section" transform="translate(137.000000, 85.000000)">
                <g id="Group-9" transform="translate(871.000000, 91.000000)">
                    <g id="Group-51" transform="translate(11.750000, 14.500000)">
                        <g id="Group-50-Copy-2" fill-rule="nonzero">
                            <g id="Group-50-Copy">
                                <path d="M8.3706956,11.666274 C10.9626393,11.666274 12.9011569,8.13632892 12.9011569,4.98200318 C12.9011569,2.00284071 11.078092,0 8.3706956,0 C5.65895803,0 3.8402343,2.00284071 3.8402343,4.98200318 C3.8402343,8.13643986 5.7789717,11.666274 8.3706956,11.666274 Z" id="Path"></path>
                                <path d="M0.413195435,20.862069 L16.3281958,20.862069 C16.5555129,20.862069 16.7416165,20.6742205 16.7416165,20.4447721 L16.7416165,16.3933308 C16.7416165,13.8189076 15.009551,11.5991373 12.5294882,10.9942194 C12.380735,10.9567362 12.2195298,11.0067859 12.1203591,11.1276829 C11.3678009,12.0123185 10.1068879,13.0720619 8.370811,13.0720619 C6.63473405,13.0720619 5.37382114,12.012374 4.62148266,11.1276829 C4.51823463,11.0067825 4.35702945,10.9565188 4.20806193,10.9942194 C1.72772435,11.5991373 0,13.8189076 0,16.3933308 L0,20.4447721 C0,20.6742205 0.182026236,20.862069 0.413420736,20.862069 L0.413195435,20.862069 Z M11.351255,17.0149663 L12.1532145,17.0149663 L12.1532145,16.2095924 C12.1532145,15.9760284 12.3393182,15.7922956 12.5666353,15.7922956 C12.7939524,15.7922956 12.980056,15.9758121 12.980056,16.2095924 L12.980056,17.0149663 L13.7820155,17.0149663 C14.0093326,17.0149663 14.1954363,17.2028148 14.1954363,17.4322632 C14.1954363,17.6658272 14.0093326,17.84956 13.7820155,17.84956 L12.980056,17.84956 L12.980056,18.6590385 C12.980056,18.8884868 12.7939524,19.0763353 12.5666353,19.0763353 C12.3393182,19.0763353 12.1532145,18.8884868 12.1532145,18.6590385 L12.1532145,17.84956 L11.351255,17.84956 C11.1239379,17.84956 10.9378343,17.6660435 10.9378343,17.4322632 C10.9378343,17.2028148 11.1239379,17.0149663 11.351255,17.0149663 Z" id="Shape"></path>
                            </g>
                        </g>
                        <g id="Group-50" transform="translate(15.126366, 1.053864)">
                            <path d="M5.15503514,9.42930906 C7.24998322,9.42930906 8.81679724,6.57621793 8.81679724,4.02672248 C8.81679724,1.61880341 7.34329831,0 5.15503514,0 C2.96326322,0 1.49327305,1.61880341 1.49327305,4.02672248 C1.49327305,6.57630759 3.06026472,9.42930906 5.15503514,9.42930906 Z" id="Path"></path>
                            <path d="M8.65969282,9.09666145 L8.73751502,9.10713927 C10.8784286,9.63011897 12.3736337,11.5492137 12.3736337,13.7749224 L12.3736337,13.7749224 L12.3736337,17.277582 C12.3736337,17.4759508 12.2129798,17.6383546 12.0167484,17.6383546 L12.0167484,17.6383546 L2.867,17.6375099 L2.86705596,14.4490295 C2.74205934,12.4278793 1.78644216,10.8783502 0.000204435583,9.80044205 C0.460535646,9.48432416 0.984288892,9.24630338 1.55404588,9.10713927 C1.68264205,9.07454535 1.82180239,9.11800072 1.91093122,9.22252472 C2.56038723,9.98738133 3.64886998,10.9035309 5.14753798,10.9035309 C6.64620597,10.9035309 7.73468873,9.98733337 8.38433448,9.22252472 C8.46994351,9.11800359 8.60910384,9.07473333 8.73751502,9.10713927 Z M8.76958223,13.2552995 C8.57335079,13.2552995 8.41269689,13.4141451 8.41269689,13.616072 L8.41269689,13.616072 L8.41269689,14.3123553 L7.72040553,14.3123553 C7.52417409,14.3123553 7.36352019,14.474759 7.36352019,14.6731278 C7.36352019,14.8752418 7.52417409,15.0339004 7.72040553,15.0339004 L7.72040553,15.0339004 L8.41269689,15.0339004 L8.41269689,15.7337322 C8.41269689,15.932101 8.57335079,16.0945047 8.76958223,16.0945047 C8.96581367,16.0945047 9.12646758,15.932101 9.12646758,15.7337322 L9.12646758,15.7337322 L9.12646758,15.0339004 L9.81875893,15.0339004 C10.0149904,15.0339004 10.1756443,14.8750548 10.1756443,14.6731278 C10.1756443,14.474759 10.0149904,14.3123553 9.81875893,14.3123553 L9.81875893,14.3123553 L9.12646758,14.3123553 L9.12646758,13.616072 C9.12646758,13.4139581 8.96581367,13.2552995 8.76958223,13.2552995 Z" id="Combined-Shape" fill-rule="nonzero"></path>
                        </g>
                    </g>
                </g>
            </g>
        </g>
    </g>
</svg>