<?xml version="1.0" encoding="UTF-8"?>
<svg width="44px" height="44px" viewBox="0 0 44 44" version="1.1" xmlns="http://www.w3.org/2000/svg" xmlns:xlink="http://www.w3.org/1999/xlink">
    <title>Email Sent@3x</title>
    <g id="Login-&amp;-Sign-Up" stroke="none" stroke-width="1" fill="none" fill-rule="evenodd">
        <g id="Email-Sent" transform="translate(-1112.000000, -417.000000)">
            <g id="Group-40" transform="translate(877.000000, 347.000000)">
                <g id="Group-2" transform="translate(215.000000, 50.000000)">
                    <g id="Email-Sent" transform="translate(20.000000, 20.000000)">
                        <rect id="Rectangle" x="0" y="0" width="44" height="44"></rect>
                        <path d="M36.6666667,7.33333333 L7.33333333,7.33333333 C5.31666667,7.33333333 3.685,8.98333333 3.685,11 L3.66666667,33 C3.66666667,35.0166667 5.31666667,36.6666667 7.33333333,36.6666667 L22,36.6666667 L22,33 L7.33333333,33 L7.33333333,14.6666667 L22,23.8333333 L36.6666667,14.6666667 L36.6666667,23.8333333 L40.3333333,23.8333333 L40.3333333,11 C40.3333333,8.98333333 38.6833333,7.33333333 36.6666667,7.33333333 Z M22,20.1666667 L7.33333333,11 L36.6666667,11 L22,20.1666667 Z M31.79,40.3333333 L25.3,33.8433333 L27.885,31.2583333 L31.7716667,35.145 L39.545,27.3716667 L42.1666667,29.9566667 L31.79,40.3333333 Z" id="Shape" fill="#3E8ACC" fill-rule="nonzero"></path>
                    </g>
                </g>
            </g>
        </g>
    </g>
</svg>