<?xml version="1.0" encoding="UTF-8"?>
<svg width="24px" height="24px" viewBox="0 0 24 24" version="1.1" xmlns="http://www.w3.org/2000/svg" xmlns:xlink="http://www.w3.org/1999/xlink">
    <title>Icon/Icons/ic_fiber_smart_record</title>
    <defs>
        <path d="M9,4 C13.418278,4 17,7.581722 17,12 C17,16.418278 13.418278,20 9,20 C4.581722,20 1,16.418278 1,12 C1,7.581722 4.581722,4 9,4 Z M17,4.26 C20.45,5.15 23,8.27 23,12 C23,15.73 20.45,18.85 17,19.74 L17,19.74 L17,17.65 C19.33,16.83 21,14.61 21,12 C21,9.39 19.33,7.17 17,6.35 L17,6.35 Z" id="path-1"></path>
        <rect id="path-3" x="0" y="0" width="50" height="50"></rect>
    </defs>
    <g id="Symbol" stroke="none" stroke-width="1" fill="none" fill-rule="evenodd">
        <g id="Icon/Icons/ic_fiber_smart_record">
            <mask id="mask-2" fill="white">
                <use xlink:href="#path-1"></use>
            </mask>
            <g id="Mask"></g>
            <g id="🎨-Color" mask="url(#mask-2)">
                <g transform="translate(-13.000000, -13.000000)">
                    <mask id="mask-4" fill="white">
                        <use xlink:href="#path-3"></use>
                    </mask>
                    <use id="Color" stroke="none" fill="#0070FF" fill-rule="evenodd" xlink:href="#path-3"></use>
                </g>
            </g>
        </g>
    </g>
</svg>