<?xml version="1.0" encoding="UTF-8"?>
<svg width="20px" height="21px" viewBox="0 0 20 21" version="1.1" xmlns="http://www.w3.org/2000/svg" xmlns:xlink="http://www.w3.org/1999/xlink">
    <title>language@3x</title>
    <defs>
        <polygon id="path-1" points="0 0 6.44512952 0 6.44512952 6.46486361 0 6.46486361"></polygon>
        <polygon id="path-3" points="0 0 5.72003528 0 5.72003528 6.33023578 0 6.33023578"></polygon>
    </defs>
    <g id="FloatLegal" stroke="none" stroke-width="1" fill="none" fill-rule="evenodd">
        <g id="Attorneys/View-profile" transform="translate(-683.000000, -260.000000)">
            <g id="Group-5" transform="translate(673.000000, 250.000000)">
                <g id="Group" transform="translate(6.000000, 6.000000)">
                    <g id="Group-25" transform="translate(4.666667, 4.666667)">
                        <path d="M17.7581654,12.9524889 L16.5992765,12.7347111 C17.759721,9.5956 17.3879432,6.64937778 15.0608321,4.14337778 C12.733721,1.63737778 9.82794318,1.05404444 6.55194318,1.98893333 L6.11949873,0.9296 C8.5881654,-0.0504 12.4132765,0.0460444444 15.4310543,2.90515556 C18.6074987,5.9136 19.019721,9.97982222 17.7581654,12.9524889" id="Fill-1" fill="#173E67"></path>
                        <path d="M10.2774987,17.6454444 C9.89794318,17.9596667 9.6801654,18.3298889 9.59460984,18.7825556 C9.58683206,18.8276667 9.48572095,18.8898889 9.43127651,18.88689 C8.97238762,18.8743333 8.50883206,18.879 8.0561654,18.8198889 C5.93905429,18.5445556 4.10972095,17.6594444 2.62572095,16.1241111 C0.734165398,14.1656667 -0.135390157,11.8074444 0.0170542872,9.08522222 C0.0372765094,8.71811111 0.0963876205,8.35255556 0.149276509,7.98855556 C0.178832065,7.79255556 0.231720954,7.59966667 0.273720954,7.40366667 C0.461943176,7.49077778 0.633054287,7.59188889 0.818165398,7.65255556 C1.00483206,7.71322222 1.19460984,7.73655556 1.39994318,7.78011111 C0.829054287,10.4821111 1.3781654,12.9398889 3.23705429,15.0181111 C5.09594318,17.0963333 7.48060984,17.913 10.2774987,17.6454444" id="Fill-3" fill="#173E67"></path>
                        <g id="Group-7" transform="translate(10.902711, 12.990470)">
                            <mask id="mask-2" fill="white">
                                <use xlink:href="#path-1"></use>
                            </mask>
                            <g id="Clip-6"></g>
                            <path d="M2.67520972,2.11226361 C2.63165417,2.60693028 2.58809861,3.09848583 2.54920972,3.58848583 C2.55076528,3.63048583 2.56787639,3.66781917 2.59743194,3.69581917 C2.7949875,3.87159694 2.99720972,4.04270806 3.2009875,4.22004139 C3.77187639,3.59626361 4.16854305,2.90870806 4.39720972,2.11226361 L2.67520972,2.11226361 Z M2.4029875,4.86093028 C2.16965417,4.63537472 1.94409861,4.4191525 1.72009861,4.20137472 C1.57543194,4.06137472 1.53032083,3.89493028 1.55054305,3.69270806 C1.6049875,3.17159694 1.64387639,2.64893028 1.69054305,2.10759694 C1.36232083,2.10759694 1.05743194,2.11226361 0.749431944,2.10759694 C0.478765277,2.10293028 0.281209722,1.95981917 0.225209722,1.74048583 C0.152098611,1.48537472 0.301431944,1.21937472 0.556543055,1.14626361 C0.600098611,1.13381917 0.643654166,1.12759694 0.688765277,1.12759694 C1.0449875,1.11981917 1.40120972,1.12759694 1.77609861,1.12759694 C1.79943194,0.897374722 1.81809861,0.678041388 1.84609861,0.458708055 C1.8849875,0.149152499 2.09654305,-0.0250697227 2.3889875,0.00293027727 C2.66587639,0.0293747217 2.83854305,0.262708055 2.81209861,0.573819166 C2.79654305,0.748041388 2.78409861,0.922263611 2.7669875,1.12604139 L2.98009861,1.12604139 C3.97254305,1.12604139 4.96343194,1.12604139 5.95587639,1.1291525 C6.20943194,1.11981917 6.42565417,1.31426361 6.44276528,1.56937472 C6.46765417,1.82137472 6.29343194,2.05004139 6.0429875,2.09204139 C5.97143194,2.10448583 5.89832083,2.11070806 5.82520972,2.1091525 C5.69143194,2.11226361 5.55920972,2.1091525 5.4549875,2.1091525 C5.26209861,2.57893028 5.10654305,3.04404139 4.88565417,3.47648583 C4.66476528,3.90893028 4.3769875,4.30870806 4.09387639,4.76448583 C4.51076528,4.92470806 4.94320972,5.10359694 5.38343194,5.25604139 C5.57476528,5.32293028 5.78320972,5.3431525 5.9869875,5.37270806 C6.28409861,5.41470806 6.47232083,5.63870806 6.43654305,5.92337472 C6.40076528,6.20181917 6.15809861,6.38226361 5.86409861,6.34804139 C5.19676528,6.26559694 4.54965417,6.06804139 3.95076528,5.76626361 C3.77809861,5.68226361 3.60387639,5.59826361 3.43743194,5.50026361 C3.33787639,5.4411525 3.2709875,5.4551525 3.18076528,5.51893028 C2.38120972,6.07893028 1.49920972,6.41181917 0.519209722,6.46470806 C0.236098611,6.47870806 0.0276541661,6.30137472 0.00276527717,6.04159694 C-0.0236791673,5.76626361 0.141209722,5.53759694 0.425876388,5.50648583 C1.05276528,5.4411525 1.6469875,5.28093028 2.20232083,4.9791525 C2.27076528,4.94026361 2.33765417,4.89981917 2.4029875,4.86093028 L2.4029875,4.86093028 Z" id="Fill-5" fill="#173E67" mask="url(#mask-2)"></path>
                        </g>
                        <g id="Group-10" transform="translate(0.832668, 0.000000)">
                            <mask id="mask-4" fill="white">
                                <use xlink:href="#path-3"></use>
                            </mask>
                            <g id="Clip-9"></g>
                            <path d="M3.73360852,3.77657778 L2.82205297,1.38257778 C2.51249741,2.21168889 2.22316408,2.98635556 1.92760852,3.77657778 L3.73360852,3.77657778 Z M2.85783074,-0.000367934522 C3.25760852,-0.00342222222 3.50649741,0.121022222 3.63405297,0.421244444 C3.91560852,1.08235556 4.18627519,1.74657778 4.45694186,2.4108 C4.82716408,3.31457778 5.19427519,4.21991111 5.55827519,5.12524444 C5.61894186,5.27613333 5.66716408,5.43168889 5.70449741,5.59035556 C5.7713863,5.88746667 5.6173863,6.16435556 5.3373863,6.27791111 C5.04805297,6.39613333 4.75560852,6.31524444 4.6093863,6.0228 C4.43671963,5.6728 4.29827519,5.30413333 4.15983074,4.93857778 C4.10849741,4.80168889 4.05094186,4.74257778 3.89227519,4.74568889 C3.17827519,4.75502222 2.46427519,4.75346667 1.75183074,4.74568889 C1.61805297,4.74568889 1.56049741,4.78768889 1.52005297,4.91057778 C1.41894186,5.20613333 1.3053863,5.49857778 1.19183074,5.79102222 C1.16227519,5.87035556 1.12494186,5.94657778 1.08294186,6.01968889 C0.938275189,6.27635556 0.670719633,6.38368889 0.406275189,6.29657778 C0.134052967,6.20791111 -0.0479470335,5.96368889 0.0111640777,5.68368889 C0.0811640777,5.38035556 0.176052967,5.0848 0.294275189,4.79702222 C0.613164078,3.98657778 0.944497411,3.18235556 1.26805297,2.37502222 C1.49360852,1.81502222 1.7113863,1.25346667 1.94160852,0.695022222 C2.14227519,0.208133333 2.44716408,0.00124444444 2.85783074,-0.000367934522 L2.85783074,-0.000367934522 Z" id="Fill-8" fill="#173E67" mask="url(#mask-4)"></path>
                        </g>
                        <path d="M7.17323206,7.71944444 L11.244121,7.71944444 C11.5396765,8.94366667 11.5396765,10.2223333 11.244121,11.4465556 L7.17945429,11.4465556 C6.86678762,10.7621111 6.86212095,8.54233333 7.17323206,7.71944444" id="Fill-11" fill="#173E67"></path>
                        <path d="M5.72952095,11.5708444 L3.25774318,11.9006222 C2.66974318,10.3575111 2.67285429,8.8144 3.25618762,7.26817778 L5.7279654,7.59484444 C5.44174318,8.90462222 5.44174318,10.2610667 5.72952095,11.5708444" id="Fill-13" fill="#173E67"></path>
                        <path d="M12.7260987,7.58675556 L15.1434321,7.26786667 C15.7252098,8.80164444 15.7267654,10.3463111 15.1465432,11.9003111 L12.7245432,11.5783111 C12.7805432,10.9140889 12.8785432,10.2498667 12.8800987,9.58564444 C12.8800987,8.92297778 12.7820987,8.26653333 12.7260987,7.58675556" id="Fill-15" fill="#173E67"></path>
                        <path d="M9.19483206,3.64606667 C9.72683206,4.28228889 10.5652765,5.70873333 10.7488321,6.29206667 L7.6361654,6.29206667 C8.04527651,5.3494 8.56949873,4.46117778 9.19483206,3.64606667" id="Fill-17" fill="#173E67"></path>
                        <path d="M7.6319654,12.8670889 L10.769521,12.8670889 C10.3572987,13.8144222 9.8299654,14.7073111 9.1999654,15.5255333 C8.57152095,14.7057556 8.04418762,13.8144222 7.6319654,12.8670889" id="Fill-19" fill="#173E67"></path>
                        <path d="M7.60178762,15.7465778 C6.11312095,15.3934667 4.71623206,14.3434667 4.00223206,13.2436889 C4.13912095,13.2203556 4.2635654,13.1939111 4.39112095,13.1799111 C4.91378762,13.1161333 5.43489873,13.0570222 5.95600984,12.9916889 C6.0975654,12.9745778 6.16600984,13.0150222 6.22045429,13.1565778 C6.54867651,13.9934667 6.96712095,14.7945778 7.46800984,15.5428 L7.60178762,15.7465778 Z" id="Fill-21" fill="#173E67"></path>
                        <path d="M14.4253876,5.929 C13.9633876,5.98966667 13.5480543,6.04877778 13.1296098,6.10011111 C12.8791654,6.13122222 12.6256098,6.15611111 12.3736098,6.17322222 C12.3129432,6.17166667 12.2584987,6.14211111 12.2242765,6.09233333 C12.0049432,5.63655556 11.8151654,5.16677778 11.5802765,4.71877778 C11.3453876,4.27077778 11.0762765,3.857 10.8164987,3.41677778 C12.3004987,3.82277778 13.4920543,4.64877778 14.4253876,5.929" id="Fill-23" fill="#173E67"></path>
                    </g>
                </g>
            </g>
        </g>
    </g>
</svg>