<?xml version="1.0" encoding="UTF-8"?>
<svg width="26px" height="23px" viewBox="0 0 26 23" version="1.1" xmlns="http://www.w3.org/2000/svg" xmlns:xlink="http://www.w3.org/1999/xlink">
    <title>Lawyers@3x</title>
    <defs>
        <path d="M21,8 L3,8 L3,11 C3,11.5522847 3.44771525,12 4,12 L20,12 C20.5522847,12 21,11.5522847 21,11 L21,8 Z M7,6 C7,4.34314575 8.34314575,3 10,3 L14,3 C15.6568542,3 17,4.34314575 17,6 L21,6 C22.1045695,6 23,6.8954305 23,8 L23,18 C23,20.209139 21.209139,22 19,22 L5,22 C2.790861,22 1,20.209139 1,18 L1,8 C1,6.8954305 1.8954305,6 3,6 L7,6 Z M9,6 L15,6 C15,5.44771525 14.5522847,5 14,5 L10,5 C9.44771525,5 9,5.44771525 9,6 Z M9,14 L4,14 C3.64936458,14 3.31277893,13.9398458 3,13.8292943 L3,18 C3,19.1045695 3.8954305,20 5,20 L19,20 C20.1045695,20 21,19.1045695 21,18 L21,13.8292943 C20.6872211,13.9398458 20.3506354,14 20,14 L15,14 L15,15.6 C15,16.3731986 14.3731986,17 13.6,17 L10.4,17 C9.62680135,17 9,16.3731986 9,15.6 L9,14 Z M11,15 L13,15 L13,14 L11,14 L11,15 Z" id="path-1"></path>
        <filter x="-15.9%" y="-13.2%" width="131.8%" height="136.8%" filterUnits="objectBoundingBox" id="filter-2">
            <feOffset dx="0" dy="1" in="SourceAlpha" result="shadowOffsetOuter1"></feOffset>
            <feGaussianBlur stdDeviation="1" in="shadowOffsetOuter1" result="shadowBlurOuter1"></feGaussianBlur>
            <feColorMatrix values="0 0 0 0 0.0784313725   0 0 0 0 0.196078431   0 0 0 0 0.31372549  0 0 0 0.12 0" type="matrix" in="shadowBlurOuter1"></feColorMatrix>
        </filter>
    </defs>
    <g id="FloatLegal" stroke="none" stroke-width="1" fill="none" fill-rule="evenodd">
        <g id="Attorneys/View-profile" transform="translate(-146.000000, -260.000000)">
            <g id="Group-5-Copy" transform="translate(139.000000, 250.000000)">
                <g id="Shape" transform="translate(8.000000, 8.000000)">
                    <use fill="black" fill-opacity="1" filter="url(#filter-2)" xlink:href="#path-1"></use>
                    <use fill="#173E67" fill-rule="evenodd" xlink:href="#path-1"></use>
                </g>
            </g>
        </g>
    </g>
</svg>