<?xml version="1.0" encoding="UTF-8"?>
<svg width="50px" height="50px" viewBox="0 0 50 50" version="1.1" xmlns="http://www.w3.org/2000/svg" xmlns:xlink="http://www.w3.org/1999/xlink">
    <title>Group 9@3x</title>
    <g id="Dashboard" stroke="none" stroke-width="1" fill="none" fill-rule="evenodd">
        <g id="Super-Admin-Panel(Dashboard)" transform="translate(-765.000000, -176.000000)">
            <g id="First-Section" transform="translate(137.000000, 85.000000)">
                <g id="Group-9" transform="translate(628.000000, 91.000000)">
                    <path d="M11.5374834,-4.66128138e-16 L38.4625166,4.66128138e-16 C42.4743509,-2.70833872e-16 43.929139,0.41771525 45.3958057,1.20209717 C46.8624723,1.98647908 48.0135209,3.13752767 48.7979028,4.60419433 C49.5822847,6.070861 50,7.52564907 50,11.5374834 L50,38.4625166 C50,42.4743509 49.5822847,43.929139 48.7979028,45.3958057 C48.0135209,46.8624723 46.8624723,48.0135209 45.3958057,48.7979028 C43.929139,49.5822847 42.4743509,50 38.4625166,50 L11.5374834,50 C7.52564907,50 6.070861,49.5822847 4.60419433,48.7979028 C3.13752767,48.0135209 1.98647908,46.8624723 1.20209717,45.3958057 C0.41771525,43.929139 1.80555915e-16,42.4743509 -3.10752092e-16,38.4625166 L3.10752092e-16,11.5374834 C-1.80555915e-16,7.52564907 0.41771525,6.070861 1.20209717,4.60419433 C1.98647908,3.13752767 3.13752767,1.98647908 4.60419433,1.20209717 C6.070861,0.41771525 7.52564907,2.70833872e-16 11.5374834,-4.66128138e-16 Z" id="Rectangle" fill-opacity="0.1" fill="#5C63AB"></path>
                    <g id="iconspace_Accounts_24px" transform="translate(9.000000, 9.000000)">
                        <polygon id="Path" points="0 0 33 0 33 33 0 33"></polygon>
                        <path d="M12.375,18.90625 C9.1575,18.90625 2.75,20.515 2.75,23.71875 L2.75,26.125 L22,26.125 L22,23.71875 C22,20.515 15.5925,18.90625 12.375,18.90625 Z M5.9675,23.375 C7.1225,22.5775 9.91375,21.65625 12.375,21.65625 C14.83625,21.65625 17.6275,22.5775 18.7825,23.375 L5.9675,23.375 Z M12.375,16.5 C15.02875,16.5 17.1875,14.34125 17.1875,11.6875 C17.1875,9.03375 15.02875,6.875 12.375,6.875 C9.72125,6.875 7.5625,9.03375 7.5625,11.6875 C7.5625,14.34125 9.72125,16.5 12.375,16.5 Z M12.375,9.625 C13.51625,9.625 14.4375,10.54625 14.4375,11.6875 C14.4375,12.82875 13.51625,13.75 12.375,13.75 C11.23375,13.75 10.3125,12.82875 10.3125,11.6875 C10.3125,10.54625 11.23375,9.625 12.375,9.625 Z M22.055,18.98875 C23.65,20.14375 24.75,21.68375 24.75,23.71875 L24.75,26.125 L30.25,26.125 L30.25,23.71875 C30.25,20.94125 25.4375,19.36 22.055,18.98875 L22.055,18.98875 Z M20.625,16.5 C23.27875,16.5 25.4375,14.34125 25.4375,11.6875 C25.4375,9.03375 23.27875,6.875 20.625,6.875 C19.8825,6.875 19.195,7.05375 18.5625,7.35625 C19.42875,8.58 19.9375,10.07875 19.9375,11.6875 C19.9375,13.29625 19.42875,14.795 18.5625,16.01875 C19.195,16.32125 19.8825,16.5 20.625,16.5 Z" id="Shape" fill="#5C63AB" fill-rule="nonzero"></path>
                    </g>
                </g>
            </g>
        </g>
    </g>
</svg>