<?xml version="1.0" encoding="UTF-8"?>
<svg width="50px" height="50px" viewBox="0 0 50 50" version="1.1" xmlns="http://www.w3.org/2000/svg" xmlns:xlink="http://www.w3.org/1999/xlink">
    <title>Group 9 3@3x</title>
    <g id="Dashboard" stroke="none" stroke-width="1" fill="none" fill-rule="evenodd">
        <g id="Super-Admin-Panel(Dashboard)" transform="translate(-1251.000000, -176.000000)">
            <g id="First-Section" transform="translate(137.000000, 85.000000)">
                <g id="Group-9" transform="translate(1114.000000, 91.000000)">
                    <path d="M11.5374834,-4.66128138e-16 L38.4625166,4.66128138e-16 C42.4743509,-2.70833872e-16 43.929139,0.41771525 45.3958057,1.20209717 C46.8624723,1.98647908 48.0135209,3.13752767 48.7979028,4.60419433 C49.5822847,6.070861 50,7.52564907 50,11.5374834 L50,38.4625166 C50,42.4743509 49.5822847,43.929139 48.7979028,45.3958057 C48.0135209,46.8624723 46.8624723,48.0135209 45.3958057,48.7979028 C43.929139,49.5822847 42.4743509,50 38.4625166,50 L11.5374834,50 C7.52564907,50 6.070861,49.5822847 4.60419433,48.7979028 C3.13752767,48.0135209 1.98647908,46.8624723 1.20209717,45.3958057 C0.41771525,43.929139 1.80555915e-16,42.4743509 -3.10752092e-16,38.4625166 L3.10752092e-16,11.5374834 C-1.80555915e-16,7.52564907 0.41771525,6.070861 1.20209717,4.60419433 C1.98647908,3.13752767 3.13752767,1.98647908 4.60419433,1.20209717 C6.070861,0.41771525 7.52564907,2.70833872e-16 11.5374834,-4.66128138e-16 Z" id="Rectangle" fill-opacity="0.1" fill="#5C63AB"></path>
                    <g id="Icon/Messaging-Copy-21" transform="translate(9.660000, 9.000000)">
                        <g id="Group-90" transform="translate(0.000000, 0.000000)">
                            <rect id="Icon-Spacing" opacity="0.2" x="0" y="0" width="31.68" height="33" rx="5"></rect>
                            <g id="location.alt" transform="translate(5.280000, 2.750000)" stroke="#5C63AB" stroke-linecap="round" stroke-linejoin="round" stroke-width="2">
                                <path d="M21.12,11.34375 C21.12,17.6086625 10.56,27.5 10.56,27.5 C10.56,27.5 0,17.6086625 0,11.34375 C0,5.07876875 4.7278704,0 10.56,0 C16.392156,0 21.12,5.07876875 21.12,11.34375 Z" id="Path"></path>
                            </g>
                            <ellipse id="Oval" fill="#5C63AB" cx="15.84" cy="13.75" rx="3.96" ry="4.125"></ellipse>
                        </g>
                    </g>
                </g>
            </g>
        </g>
    </g>
</svg>