<?xml version="1.0" encoding="UTF-8"?>
<svg width="18px" height="18px" viewBox="0 0 18 18" version="1.1" xmlns="http://www.w3.org/2000/svg" xmlns:xlink="http://www.w3.org/1999/xlink">
    <title>Date@3x</title>
    <g id="Symbols" stroke="none" stroke-width="1" fill="none" fill-rule="evenodd">
        <g id="card/matching-Providers" transform="translate(-21.000000, -101.000000)">
            <g id="Group-60-Copy-2" transform="translate(20.000000, 99.000000)">
                <g id="Date" transform="translate(0.400000, 1.000000)">
                    <g id="Group-59" transform="translate(-0.000000, 0.000000)">
                        <rect id="Icon-Spacing" opacity="0.2" x="0" y="0" width="19.2" height="20" rx="5"></rect>
                        <g id="calendar" transform="translate(2.400000, 2.083333)" stroke="#3D6083" stroke-linecap="round" stroke-linejoin="round" stroke-width="2">
                            <path d="M2.4,2.5 L2.4,0 M5.6,2.5 L5.6,0 M8.8,2.5 L8.8,0 M12,2.5 L12,0 M14.4,5.83333333 L0,5.83333333 M1.6,15 L12.8,15 C13.68368,15 14.4,14.2538333 14.4,13.3333333 L14.4,3.33333333 C14.4,2.41285833 13.68368,1.66666667 12.8,1.66666667 L1.6,1.66666667 C0.716344,1.66666667 0,2.41285833 0,3.33333333 L0,13.3333333 C0,14.2538333 0.716344,15 1.6,15 Z" id="Shape"></path>
                        </g>
                    </g>
                </g>
            </g>
        </g>
    </g>
</svg>