<?xml version="1.0" encoding="utf-8"?>
<svg width="44px" height="44px" viewBox="0 0 44 44" version="1.1" xmlns:xlink="http://www.w3.org/1999/xlink" xmlns="http://www.w3.org/2000/svg">
  <g id="Group-20">
    <path d="M22 44C34.1503 44 44 34.1503 44 22C44 9.84974 34.1503 0 22 0C9.84974 0 0 9.84974 0 22C0 34.1503 9.84974 44 22 44Z" id="Oval" fill="#173E67" fill-opacity="0.2" fill-rule="evenodd" stroke="none" />
    <g id="Icon-Close" transform="translate(10 10)">
      <path d="M4.999 0L19.001 0Q19.1237 0 19.2463 0.00602151Q19.3689 0.012043 19.491 0.0240715Q19.6131 0.0361001 19.7345 0.0541066Q19.8559 0.0721132 19.9763 0.0960544Q20.0966 0.119996 20.2157 0.149814Q20.3347 0.179632 20.4521 0.215255Q20.5696 0.250879 20.6851 0.292221Q20.8007 0.333564 20.914 0.380526Q21.0274 0.427489 21.1383 0.479957Q21.2493 0.532426 21.3575 0.590276Q21.4657 0.648125 21.571 0.711215Q21.6763 0.774305 21.7783 0.842483Q21.8803 0.910662 21.9789 0.983765Q22.0775 1.05687 22.1723 1.13472Q22.2672 1.21257 22.3581 1.29499Q22.4491 1.3774 22.5358 1.46417Q22.6226 1.55095 22.705 1.64188Q22.7874 1.73281 22.8653 1.82767Q22.9431 1.92253 23.0162 2.0211Q23.0893 2.11967 23.1575 2.2217Q23.2257 2.32374 23.2888 2.429Q23.3519 2.53426 23.4097 2.64249Q23.4676 2.75072 23.52 2.86165Q23.5725 2.97259 23.6195 3.08597Q23.6664 3.19934 23.7078 3.31489Q23.7491 3.43043 23.7847 3.54787Q23.8204 3.6653 23.8502 3.78434Q23.88 3.90338 23.9039 4.02374Q23.9279 4.1441 23.9459 4.26549Q23.9639 4.38688 23.9759 4.50901Q23.988 4.63114 23.994 4.75371Q24 4.87628 24 4.999L24 19.001Q24 19.1237 23.994 19.2463Q23.988 19.3689 23.9759 19.491Q23.9639 19.6131 23.9459 19.7345Q23.9279 19.8559 23.9039 19.9763Q23.88 20.0966 23.8502 20.2157Q23.8204 20.3347 23.7847 20.4521Q23.7491 20.5696 23.7078 20.6851Q23.6664 20.8007 23.6195 20.914Q23.5725 21.0274 23.52 21.1383Q23.4676 21.2493 23.4097 21.3575Q23.3519 21.4657 23.2888 21.571Q23.2257 21.6763 23.1575 21.7783Q23.0893 21.8803 23.0162 21.9789Q22.9431 22.0775 22.8653 22.1723Q22.7874 22.2672 22.705 22.3581Q22.6226 22.4491 22.5358 22.5358Q22.4491 22.6226 22.3581 22.705Q22.2672 22.7874 22.1723 22.8653Q22.0775 22.9431 21.9789 23.0162Q21.8803 23.0893 21.7783 23.1575Q21.6763 23.2257 21.571 23.2888Q21.4657 23.3519 21.3575 23.4097Q21.2493 23.4676 21.1383 23.52Q21.0274 23.5725 20.914 23.6195Q20.8007 23.6664 20.6851 23.7078Q20.5696 23.7491 20.4521 23.7847Q20.3347 23.8204 20.2157 23.8502Q20.0966 23.88 19.9763 23.9039Q19.8559 23.9279 19.7345 23.9459Q19.6131 23.9639 19.491 23.9759Q19.3689 23.988 19.2463 23.994Q19.1237 24 19.001 24L4.999 24Q4.87628 24 4.75371 23.994Q4.63114 23.988 4.50901 23.9759Q4.38688 23.9639 4.26549 23.9459Q4.1441 23.9279 4.02374 23.9039Q3.90338 23.88 3.78434 23.8502Q3.6653 23.8204 3.54787 23.7847Q3.43043 23.7491 3.31489 23.7078Q3.19934 23.6664 3.08597 23.6195Q2.97259 23.5725 2.86165 23.52Q2.75072 23.4676 2.64249 23.4097Q2.53426 23.3519 2.429 23.2888Q2.32374 23.2257 2.2217 23.1575Q2.11967 23.0893 2.0211 23.0162Q1.92253 22.9431 1.82767 22.8653Q1.73281 22.7874 1.64188 22.705Q1.55095 22.6226 1.46417 22.5358Q1.3774 22.4491 1.29499 22.3581Q1.21257 22.2672 1.13472 22.1723Q1.05687 22.0775 0.983765 21.9789Q0.910662 21.8803 0.842483 21.7783Q0.774305 21.6763 0.711215 21.571Q0.648125 21.4657 0.590276 21.3575Q0.532426 21.2493 0.479957 21.1383Q0.427489 21.0274 0.380526 20.914Q0.333564 20.8007 0.292221 20.6851Q0.250879 20.5696 0.215255 20.4521Q0.179632 20.3347 0.149814 20.2157Q0.119996 20.0966 0.0960544 19.9763Q0.0721132 19.8559 0.0541066 19.7345Q0.0361001 19.6131 0.0240715 19.491Q0.012043 19.3689 0.00602151 19.2463Q0 19.1237 0 19.001L0 4.999Q0 4.87628 0.00602151 4.75371Q0.012043 4.63114 0.0240715 4.50901Q0.0361001 4.38688 0.0541066 4.26549Q0.0721132 4.1441 0.0960544 4.02374Q0.119996 3.90338 0.149814 3.78434Q0.179632 3.6653 0.215255 3.54787Q0.250879 3.43043 0.292221 3.31489Q0.333564 3.19934 0.380526 3.08597Q0.427489 2.97259 0.479957 2.86165Q0.532426 2.75072 0.590276 2.64249Q0.648125 2.53426 0.711215 2.429Q0.774305 2.32374 0.842483 2.2217Q0.910662 2.11967 0.983765 2.0211Q1.05687 1.92253 1.13472 1.82767Q1.21257 1.73281 1.29499 1.64188Q1.3774 1.55095 1.46417 1.46417Q1.55095 1.3774 1.64188 1.29499Q1.73281 1.21257 1.82767 1.13472Q1.92253 1.05687 2.0211 0.983765Q2.11967 0.910662 2.2217 0.842483Q2.32374 0.774305 2.429 0.711215Q2.53426 0.648125 2.64249 0.590276Q2.75072 0.532426 2.86165 0.479957Q2.97259 0.427489 3.08597 0.380526Q3.19934 0.333564 3.31489 0.292221Q3.43043 0.250879 3.54787 0.215255Q3.6653 0.179632 3.78434 0.149814Q3.90338 0.119996 4.02374 0.0960544Q4.1441 0.0721132 4.26549 0.0541066Q4.38688 0.0361001 4.50901 0.0240715Q4.63114 0.012043 4.75371 0.00602151Q4.87628 0 4.999 0Z" id="Icon-Spacing" fill="#4394AD" fill-opacity="0" fill-rule="evenodd" stroke="none" />
      <path d="M9.22952 12L5.07379 7.84427C4.30874 7.07922 4.30874 5.83883 5.07379 5.07379C5.83883 4.30874 7.07922 4.30874 7.84427 5.07379L12 9.22952L16.1557 5.07379C16.9208 4.30874 18.1612 4.30874 18.9262 5.07379C19.6913 5.83883 19.6913 7.07922 18.9262 7.84427L14.7705 12L18.9262 16.1557C19.6913 16.9208 19.6913 18.1612 18.9262 18.9262C18.1612 19.6913 16.9208 19.6913 16.1557 18.9262L12 14.7705L7.84427 18.9262C7.07922 19.6913 5.83883 19.6913 5.07379 18.9262C4.30874 18.1612 4.30874 16.9208 5.07379 16.1557L9.22952 12L9.22952 12Z" id="Path" fill="#173E67" fill-rule="evenodd" stroke="none" />
    </g>
  </g>
</svg>