<?xml version="1.0" encoding="UTF-8"?>
<svg width="16px" height="16px" viewBox="0 0 16 16" version="1.1" xmlns="http://www.w3.org/2000/svg" xmlns:xlink="http://www.w3.org/1999/xlink">
    <title>ic_cardview</title>
    <g id="Staff" stroke="none" stroke-width="1" fill="none" fill-rule="evenodd">
        <g id="Staff/List-view" transform="translate(-1356.000000, -343.000000)">
            <g id="Header" transform="translate(102.000000, 115.000000)">
                <g id="Group-7" transform="translate(1241.000000, 215.000000)">
                    <g id="ic_cardview" transform="translate(9.000000, 9.000000)">
                        <g id="Chat">
                            <circle id="Oval" cx="12" cy="12" r="12"></circle>
                        </g>
                        <path d="M19.9887472,15.2903174 C19.9653266,14.027025 18.9814136,13.0410648 17.7199044,13.0055347 C17.3106597,12.9941848 16.900922,13.0038075 16.4911842,13.0038075 C16.0819395,13.0038075 15.6722017,12.9941848 15.262957,13.0060282 C14.0150072,13.0420517 13.0407089,14.0104936 13.0133438,15.2589818 C12.9953469,16.0783947 12.9960865,16.8987945 13.0123576,17.7182074 C13.0377505,18.9797726 14.0283199,19.9647459 15.2925409,19.9881859 C16.0979641,20.0034835 16.9036338,20.0044705 17.709057,19.9879391 C18.965882,19.9625252 19.9631078,18.9649684 19.9885007,17.7085847 C20.0045254,16.9032358 20.0030462,16.0964065 19.9887472,15.2903174 Z M18.8209206,17.702663 C18.7952812,18.365398 18.3115835,18.8114981 17.6427396,18.8267958 C16.8784875,18.8440674 16.1130026,18.8453011 15.3487505,18.8265491 C14.6404613,18.8092775 14.1833892,18.327894 14.1700764,17.62198 C14.1629269,17.2390445 14.1685972,16.8563558 14.1685972,16.4739138 C14.1690903,16.091225 14.1607081,15.7082895 14.1713091,15.3260942 C14.189306,14.6650863 14.6525414,14.1824692 15.3070864,14.1691454 C16.0987037,14.152614 16.8910606,14.1528608 17.683171,14.1686519 C18.3182399,14.1812355 18.7952812,14.6332573 18.8204276,15.2846424 C18.8519838,16.0897446 18.8522303,16.8975608 18.8209206,17.702663 Z M13.002231,7.47797737 C13.002231,7.87345408 12.9968006,8.26917718 13.0032183,8.66490029 C13.0251868,9.98857684 13.9853816,10.9633468 15.3076858,10.9887263 C16.1002785,11.0037569 16.8938585,11.0040033 17.6862043,10.9879871 C18.9988819,10.9618684 19.9773426,9.96985021 19.9926465,8.65923302 C20.0015326,7.88133897 20.0035073,7.10393772 19.9921528,6.32579727 C19.9731464,5.04893728 18.9793818,4.0418885 17.7010145,4.01355216 C16.8948458,3.99556475 16.0879367,3.99531834 15.281768,4.01379856 C14.0137678,4.04361332 13.0365413,5.02873224 13.0046994,6.29056165 C12.9950727,6.68579195 13.0032183,7.08200786 13.0032183,7.47773097 C13.0027247,7.47797737 13.0027247,7.47797737 13.002231,7.47797737 Z M14.1655724,6.38025231 C14.1791484,5.68909209 14.6167899,5.20540314 15.3049706,5.18174846 C16.0968228,5.15464413 16.8913901,5.15464413 17.6832423,5.18150205 C18.3497014,5.20417112 18.8053619,5.66913345 18.8263431,6.33984223 C18.8507799,7.11699708 18.8517672,7.89612315 18.8263431,8.67303159 C18.8033872,9.37971519 18.3166253,9.82200845 17.6010457,9.82841493 C16.8630039,9.834575 16.1247153,9.83531421 15.3861799,9.82841493 C14.6325874,9.82102284 14.1742117,9.35211806 14.164585,8.59097941 C14.160142,8.23640559 14.1638445,7.88133897 14.1638445,7.52676515 C14.1640914,7.1443478 14.1584141,6.76217686 14.1655724,6.38025231 Z M6.2278431,10.9804797 C7.07366823,11.0065864 7.92146614,11.0058476 8.76729127,10.9822037 C10.0158081,10.9469842 10.9676696,9.96527221 10.995535,8.71313374 C11.004659,8.31808454 10.9970146,7.92205018 10.996768,7.52650841 C10.996768,7.11766697 11.0044124,6.70833295 10.9952884,6.29924523 C10.9671764,5.03799402 9.99361442,4.04741555 8.72882226,4.01589042 C7.91012271,3.99569464 7.08994358,3.99347803 6.27099744,4.01662929 C5.04812664,4.05135619 4.05779611,5.02518694 4.01957369,6.23619498 C3.99318789,7.08096976 3.99392768,7.92746857 4.0190805,8.77248963 C4.05508355,9.97241462 5.02543979,10.9430436 6.2278431,10.9804797 Z M5.18548075,6.27289219 C5.20989378,5.66480213 5.6557398,5.21458397 6.26606552,5.1889698 C7.09758807,5.1544892 7.93305616,5.15178001 8.76383892,5.19118641 C9.40844152,5.22172638 9.82617556,5.71258239 9.83505303,6.36598982 C9.84541007,7.12998147 9.84639646,7.89372683 9.83480643,8.65747219 C9.82420279,9.34092701 9.35172438,9.80961692 8.67087214,9.82562577 C8.27508516,9.83547737 7.87880499,9.82759609 7.48277141,9.82759609 C7.11386342,9.82833496 6.74520203,9.83399963 6.37654064,9.82710351 C5.70505905,9.81380385 5.21038697,9.38624437 5.18449437,8.72717227 C5.15219026,7.91022826 5.15268345,7.08934362 5.18548075,6.27289219 Z M10.995412,15.2807444 C10.9663025,14.0321761 10.0024817,13.0458416 8.75940702,13.015527 C7.92682574,12.9948243 7.09251762,12.9948243 6.25993634,13.015527 C5.02130208,13.0455952 4.04095304,14.0346407 4.01406374,15.2770475 C3.99605532,16.0955424 3.99432848,16.9150232 4.01480382,17.734011 C4.04514678,18.9682846 5.03955719,19.9575766 6.27621793,19.9864125 C7.09547791,20.004897 7.91572466,20.0041576 8.73498464,19.9864125 C9.97805933,19.9590554 10.9601352,18.9744461 10.9941785,17.7377079 C11.0055263,17.3283372 10.9961521,16.9187201 10.9961521,16.5093494 C10.9963988,16.5093494 10.9966454,16.5093494 10.9968921,16.5093494 C10.9968921,16.0994858 11.0047862,15.6898686 10.995412,15.2807444 Z M9.83448532,17.6361663 C9.82461769,18.3200938 9.36725303,18.8043885 8.68293289,18.8245982 C7.90487026,18.847519 7.12532749,18.8457938 6.34677148,18.8255841 C5.66417817,18.8078389 5.19324553,18.334635 5.17523711,17.6497216 C5.15525516,16.8856944 5.15550185,16.1204349 5.17474373,15.3566542 C5.19275215,14.6323071 5.67996638,14.1800523 6.41461144,14.1689616 C6.78341411,14.1637859 7.15246347,14.1682222 7.52151284,14.1682222 C7.8905622,14.1682222 8.25961156,14.1623072 8.62841424,14.169701 C9.35763209,14.1839957 9.82708459,14.651531 9.83547208,15.3835184 C9.84385956,16.1344831 9.84533971,16.8856944 9.83448532,17.6361663 Z" fill="#5C63AB"></path>
                    </g>
                </g>
            </g>
        </g>
    </g>
</svg>