<svg width="40px" height="40px" viewBox="0 0 40 40" version="1.1" xmlns="http://www.w3.org/2000/svg"
                  xmlns:xlink="http://www.w3.org/1999/xlink">
                  <title>Group 69</title>
                  <g id="Float-Legal" stroke="none" stroke-width="1" fill="none" fill-rule="evenodd">
                    <g id="Client-cases/Referraks-/Search-Facility/Provider/Serching"
                      transform="translate(-748.000000, -387.000000)">
                      <g id="Group-6" transform="translate(132.000000, 198.000000)">
                        <g id="Group-71" transform="translate(30.000000, 26.000000)">
                          <g id="Group-69" transform="translate(586.000000, 163.000000)">
                            <rect id="Rectangle" fill="#EFF3F6" x="0" y="0" width="40" height="40" rx="5"></rect>
                            <g id="Group" transform="translate(7.888889, 8.000000)">
                              <polygon id="Path" points="0 0 24 0 24 24 0 24"></polygon>
                              <path
                                d="M12,6 C13.11,6 14,5.1 14,4 C14,3.62 13.9,3.27 13.71,2.97 L12,0 L10.29,2.97 C10.1,3.27 10,3.62 10,4 C10,5.1 10.9,6 12,6 Z M18,9 L13,9 L13,7 L11,7 L11,9 L6,9 C4.34,9 3,10.34 3,12 L3,21 C3,21.55 3.45,22 4,22 L20,22 C20.55,22 21,21.55 21,21 L21,12 C21,10.34 19.66,9 18,9 Z M19,20 L5,20 L5,17 C5.9,16.99 6.76,16.63 7.4,15.99 L8.49,14.92 L9.56,15.99 C10.87,17.3 13.15,17.29 14.45,15.99 L15.53,14.92 L16.6,15.99 C17.24,16.63 18.1,16.99 19,17 L19,20 L19,20 Z M19,15.5 C18.49,15.49 18.01,15.3 17.65,14.93 L15.52,12.8 L13.38,14.93 C12.64,15.67 11.35,15.67 10.61,14.93 L8.48,12.8 L6.34,14.93 C5.99,15.29 5.51,15.49 5,15.5 L5,12 C5,11.45 5.45,11 6,11 L18,11 C18.55,11 19,11.45 19,12 L19,15.5 Z"
                                id="Shape" fill="#173E67" fill-rule="nonzero"></path>
                            </g>
                          </g>
                        </g>
                      </g>
                    </g>
                  </g>
                </svg>