<?xml version="1.0" encoding="utf-8"?>
<svg width="20px" height="26px" viewBox="0 0 20 26" version="1.1" xmlns:xlink="http://www.w3.org/1999/xlink" xmlns="http://www.w3.org/2000/svg">
  <path d="M13.2375 0.766998C12.7625 0.27301 12.125 0 11.4625 0L2.5 0C1.125 0 0 1.17001 0 2.60001L0 23.4C0 24.83 1.11249 26 2.48749 26L17.5 26C18.875 26 20 24.83 20 23.4L20 8.879C20 8.19 19.7375 7.52701 19.2625 7.04599L13.2375 0.766998ZM13.75 21L6.25 21C5.5625 21 5 20.325 5 19.5C5 18.675 5.5625 18 6.25 18L13.75 18C14.4375 18 15 18.675 15 19.5C15 20.325 14.4375 21 13.75 21ZM13.75 16L6.25 16C5.5625 16 5 15.325 5 14.5C5 13.675 5.5625 13 6.25 13L13.75 13C14.4375 13 15 13.675 15 14.5C15 15.325 14.4375 16 13.75 16ZM11 7.72726L11 2L18 9L12.2727 9C11.5728 9 11 8.42728 11 7.72726Z" id="Shape" fill="#5C63AB" stroke="none" />
</svg>