<svg width="14px" height="15px" viewBox="0 0 14 15" version="1.1" xmlns="http://www.w3.org/2000/svg"
                    xmlns:xlink="http://www.w3.org/1999/xlink">
                    <g id="Page-1" stroke="none" stroke-width="1" fill="none" fill-rule="evenodd">
                      <g id="FloatCare---SA-Dashboard" transform="translate(-1052.000000, -203.000000)">
                        <g id="ic-card-view" transform="translate(1051.500000, 203.000000)">
                          <g id="Component/icon/ic_card-view-Copy">
                            <g id="Chat" stroke-width="1" fill-rule="evenodd">
                              <circle id="Oval" cx="7.5" cy="7.5" r="7.5" />
                            </g>
                            <path
                              d="M14.2123345,10.3030543 C14.1928382,9.25230804 13.3737897,8.43223341 12.3236591,8.40268117 C11.9829875,8.39324087 11.6419054,8.4012446 11.3008233,8.4012446 C10.9601517,8.4012446 10.6190696,8.39324087 10.2783979,8.40309162 C9.23955466,8.4330543 8.42850989,9.23855804 8.40573004,10.2769909 C8.39074869,10.9585394 8.39136436,11.6409088 8.40490914,12.3224573 C8.4260472,13.371767 9.25063675,14.1910207 10.3030248,14.210517 C10.9734912,14.2232409 11.6441629,14.2240618 12.3146293,14.2103118 C13.3608606,14.1891737 14.1909912,13.3594536 14.2121293,12.3144536 C14.2254688,11.6446028 14.2242375,10.9735207 14.2123345,10.3030543 Z M13.240189,12.3095282 C13.2188457,12.8607595 12.8161965,13.2318043 12.2594241,13.2445282 C11.62323,13.2588939 10.9860099,13.25992 10.3498159,13.244323 C9.76020765,13.2299573 9.37972257,12.8295655 9.36864048,12.24242 C9.36268899,11.9239125 9.36740914,11.6056103 9.36740914,11.2875133 C9.36781959,10.969211 9.36084198,10.6507036 9.3696666,10.3328118 C9.38464795,9.78301699 9.77026362,9.38159908 10.315133,9.37051699 C10.9741069,9.35676699 11.6336965,9.35697222 12.2930808,9.37010654 C12.8217375,9.38057296 13.2188457,9.75654311 13.2397785,10.2983342 C13.2660472,10.9679797 13.2662524,11.6398827 13.240189,12.3095282 Z"
                              id="Shape" fill="#5563AB" fill-rule="nonzero" />
                            <path
                              d="M8.40142033,3.52245729 C8.40142033,3.85184162 8.39690541,4.18143117 8.40224123,4.51102072 C8.42050616,5.61348341 9.21882705,6.42534908 10.3182114,6.44648714 C10.9771853,6.4590058 11.63698,6.45921102 12.2957487,6.44587147 C13.3871293,6.42411774 14.2006368,5.59788639 14.2133606,4.50630057 C14.2207487,3.85840878 14.2223905,3.21092744 14.2129502,2.56283042 C14.1971479,1.49936027 13.3709166,0.660610275 12.3080621,0.637009529 C11.6378009,0.622028185 10.9669241,0.621822961 10.2966629,0.637214752 C9.2424278,0.662046842 8.42994645,1.48253192 8.40347257,2.53348341 C8.39546884,2.86266251 8.40224123,3.19266251 8.40224123,3.52225207 C8.40183078,3.52245729 8.40183078,3.52245729 8.40142033,3.52245729 Z M9.36864048,2.6081849 C9.3799278,2.03253192 9.74378974,1.62967744 10.3159539,1.60997595 C10.9743121,1.58740132 11.6349278,1.58740132 12.293286,1.60977072 C12.8473905,1.62865132 13.2262338,2.01590878 13.2436778,2.57452819 C13.263995,3.2218043 13.2648159,3.87072222 13.2436778,4.51779311 C13.224592,5.1063752 12.8198905,5.47475207 12.2249465,5.48008789 C11.6113271,5.48521848 10.9975024,5.48583416 10.3834726,5.48008789 C9.75692407,5.47393117 9.37582332,5.08339013 9.36781959,4.44945356 C9.36412556,4.15413639 9.36720392,3.85840878 9.36720392,3.56309162 C9.36740914,3.24458416 9.36268899,2.92628192 9.36864048,2.6081849 Z"
                              id="Shape" fill="#5563AB" fill-rule="nonzero" />
                            <path
                              d="M2.47906959,6.44156177 C3.1829875,6.4633155 3.8885472,6.46269983 4.59246511,6.44299833 C5.63151362,6.41365132 6.4236778,5.59562893 6.4468681,4.55227072 C6.45446138,4.22309162 6.44809944,3.89309162 6.44789422,3.56350207 C6.44789422,3.22283042 6.45425616,2.88174833 6.44666287,2.54087147 C6.42326735,1.48991998 5.61304347,0.664509529 4.56045019,0.638240872 C3.8791069,0.621412514 3.19653227,0.619565499 2.51498377,0.638856544 C1.49727854,0.667793111 0.673099439,1.47924833 0.641289738,2.48833416 C0.619330782,3.19225207 0.619946454,3.89760654 0.64087929,4.60172968 C0.670841976,5.60158042 1.47839795,6.41036774 2.47906959,6.44156177 Z M1.61158825,2.51891251 C1.63190541,2.01221475 2.00295019,1.6370655 2.51087929,1.61572222 C3.20289422,1.58699087 3.89819272,1.58473341 4.58959198,1.61756923 C5.1260472,1.64301699 5.47369645,2.05202819 5.48108451,2.59648714 C5.48970392,3.23309162 5.49052481,3.86949087 5.48087929,4.50589013 C5.47205466,5.07538639 5.07884571,5.46592744 4.51222257,5.47926699 C4.18283825,5.48747595 3.85304347,5.48090878 3.52345392,5.48090878 C3.21643899,5.48152445 2.90962929,5.4862446 2.60281959,5.48049833 C2.04399496,5.46941625 1.63231586,5.11314759 1.61076735,4.56396848 C1.58388302,3.88324087 1.58429347,3.19922968 1.61158825,2.51891251 Z"
                              id="Shape" fill="#5563AB" fill-rule="nonzero" />
                            <path
                              d="M6.4468681,10.291767 C6.42265168,9.25210281 5.62084198,8.43079684 4.58671884,8.4055543 C3.89408825,8.3883155 3.20002108,8.3883155 2.50739048,8.4055543 C1.47696138,8.43059162 0.661401678,9.25415505 0.639032275,10.2886886 C0.624050932,10.9702371 0.622614364,11.6526065 0.639647947,12.3345655 C0.664890484,13.3623267 1.49214795,14.1860953 2.52093526,14.2101065 C3.20248377,14.2254983 3.88485317,14.2248827 4.56640168,14.2101065 C5.60052481,14.1873267 6.41752108,13.3674573 6.44584198,12.3376439 C6.45528227,11.996767 6.44748377,11.6556849 6.44748377,11.314808 C6.44768899,11.314808 6.44789422,11.314808 6.44809944,11.314808 C6.44809944,10.9735207 6.4546666,10.6324386 6.4468681,10.291767 Z M5.48108451,12.2530916 C5.47287556,12.8225879 5.09239048,13.2258528 4.52309944,13.2426812 C3.87582332,13.261767 3.22731586,13.2603304 2.57962929,13.2435021 C2.01177481,13.2287259 1.62000242,12.8346961 1.60502108,12.2643789 C1.58839795,11.6281849 1.58860317,10.9909648 1.60461063,10.3549759 C1.61959198,9.75182296 2.02490914,9.37523714 2.63606586,9.36600207 C2.94287556,9.36169236 3.24989048,9.36538639 3.55690541,9.36538639 C3.86392033,9.36538639 4.17093526,9.36046102 4.47774496,9.36661774 C5.08438675,9.37852072 5.4749278,9.76783042 5.48190541,10.3773453 C5.48888302,11.0026625 5.49011436,11.6281849 5.48108451,12.2530916 Z"
                              id="Shape" fill="#5563AB" fill-rule="nonzero" />
                          </g>
                        </g>
                      </g>
                    </g>
                  </svg>