<svg width="10px" height="11px" viewBox="0 0 10 11" version="1.1" xmlns="http://www.w3.org/2000/svg"
                    xmlns:xlink="http://www.w3.org/1999/xlink">
                    <g id="Page-1" stroke="none" stroke-width="1" fill="none" fill-rule="evenodd">
                      <g id="FloatCare---SA-Dashboard" transform="translate(-1199.000000, -205.000000)" fill="#5563AB">
                        <g id="Component/icon/ic_List" transform="translate(1196.500000, 203.000000)">
                          <path
                            d="M11.875,11.25 C12.220178,11.25 12.5,11.529822 12.5,11.875 C12.5,12.220178 12.220178,12.5 11.875,12.5 L11.875,12.5 L3.125,12.5 C2.77982203,12.5 2.5,12.220178 2.5,11.875 C2.5,11.529822 2.77982203,11.25 3.125,11.25 L3.125,11.25 Z M11.875,6.875 C12.220178,6.875 12.5,7.15482203 12.5,7.5 C12.5,7.84517797 12.220178,8.125 11.875,8.125 L11.875,8.125 L3.125,8.125 C2.77982203,8.125 2.5,7.84517797 2.5,7.5 C2.5,7.15482203 2.77982203,6.875 3.125,6.875 L3.125,6.875 Z M11.875,2.5 C12.220178,2.5 12.5,2.77982203 12.5,3.125 C12.5,3.47017797 12.220178,3.75 11.875,3.75 L11.875,3.75 L3.125,3.75 C2.77982203,3.75 2.5,3.47017797 2.5,3.125 C2.5,2.77982203 2.77982203,2.5 3.125,2.5 L3.125,2.5 Z"
                            id="Shape" />
                        </g>
                      </g>
                    </g>
                  </svg>