<?xml version="1.0" encoding="utf-8"?>
<svg width="25px" height="25px" viewBox="0 0 16 17" version="1.1" xmlns="http://www.w3.org/2000/svg" xmlns:xlink="http://www.w3.org/1999/xlink"><title>Language@3x</title><defs><polygon id="path-1" points="0 0 5.52439673 0 5.52439673 5.54131167 0 5.54131167"></polygon><polygon id="path-3" points="0 0 4.90288738 0 4.90288738 5.42591639 0 5.42591639"></polygon></defs><g id="FloatLegal" stroke="none" stroke-width="1" fill="none" fill-rule="evenodd"><g id="Client-Cases/Patient-Details" transform="translate(-835.000000, -512.000000)"><g id="Group-25" transform="translate(498.000000, 239.000000)"><g id="Group-5" transform="translate(325.000000, 261.000000)"><g id="Group" transform="translate(8.000000, 8.000000)"><g id="Group-25" transform="translate(4.000000, 4.000000)"><path d="M15.2212846,11.1021333 L14.2279513,10.9154667 C15.222618,8.2248 14.9039513,5.69946667 12.9092846,3.55146667 C10.914618,1.40346667 8.42395129,0.903466667 5.61595129,1.7048 L5.24528463,0.7968 C7.36128463,-0.0432 10.6399513,0.0394666667 13.226618,2.49013333 C15.9492846,5.0688 16.302618,8.55413333 15.2212846,11.1021333" id="Fill-1" fill="#173E67"></path><path d="M8.80928463,15.1246667 C8.48395129,15.394 8.29728463,15.7113333 8.22395129,16.0993333 C8.21728463,16.138 8.13061796,16.1913333 8.08395129,16.1887629 C7.69061796,16.178 7.29328463,16.182 6.90528463,16.1313333 C5.09061796,15.8953333 3.52261796,15.1366667 2.25061796,13.8206667 C0.629284627,12.142 -0.116048706,10.1206667 0.0146179604,7.78733333 C0.0319512938,7.47266667 0.0826179604,7.15933333 0.127951294,6.84733333 C0.153284627,6.67933333 0.19861796,6.514 0.23461796,6.346 C0.395951294,6.42066667 0.54261796,6.50733333 0.701284627,6.55933333 C0.861284627,6.61133333 1.02395129,6.63133333 1.19995129,6.66866667 C0.71061796,8.98466667 1.18128463,11.0913333 2.77461796,12.8726667 C4.36795129,14.654 6.41195129,15.354 8.80928463,15.1246667" id="Fill-3" fill="#173E67"></path><g id="Group-7" transform="translate(9.345181, 11.134688)"><mask id="mask-2" fill="white"><use xlink:href="#path-1"></use></mask><g id="Clip-6"></g><path d="M2.2930369,1.81051167 C2.25570357,2.23451167 2.21837024,2.655845 2.1850369,3.075845 C2.18637024,3.111845 2.2010369,3.143845 2.22637024,3.167845 C2.39570357,3.31851167 2.5690369,3.46517833 2.74370357,3.61717833 C3.2330369,3.08251167 3.5730369,2.49317833 3.7690369,1.81051167 L2.2930369,1.81051167 Z M2.05970357,4.16651167 C1.85970357,3.97317833 1.66637024,3.787845 1.47437024,3.60117833 C1.35037024,3.48117833 1.31170357,3.33851167 1.3290369,3.16517833 C1.37570357,2.71851167 1.4090369,2.27051167 1.4490369,1.80651167 C1.16770357,1.80651167 0.906370238,1.81051167 0.642370238,1.80651167 C0.410370238,1.80251167 0.241036904,1.679845 0.193036904,1.491845 C0.130370238,1.27317833 0.258370238,1.04517833 0.477036904,0.982511666 C0.514370238,0.971845 0.551703571,0.966511666 0.590370238,0.966511666 C0.895703571,0.959845 1.2010369,0.966511666 1.52237024,0.966511666 C1.54237024,0.769178333 1.55837024,0.581178333 1.58237024,0.393178333 C1.61570357,0.127845 1.7970369,-0.0214883338 2.04770357,0.00251166623 C2.2850369,0.0251783329 2.4330369,0.225178333 2.41037024,0.491845 C2.3970369,0.641178333 2.38637024,0.790511666 2.37170357,0.965178333 L2.55437024,0.965178333 C3.4050369,0.965178333 4.25437024,0.965178333 5.1050369,0.967845 C5.32237024,0.959845 5.50770357,1.12651167 5.52237024,1.34517833 C5.54370357,1.56117833 5.39437024,1.75717833 5.17970357,1.79317833 C5.11837024,1.803845 5.05570357,1.80917833 4.9930369,1.807845 C4.87837024,1.81051167 4.7650369,1.807845 4.67570357,1.807845 C4.51037024,2.21051167 4.3770369,2.60917833 4.18770357,2.979845 C3.99837024,3.35051167 3.75170357,3.69317833 3.5090369,4.083845 C3.86637024,4.22117833 4.2370369,4.37451167 4.61437024,4.50517833 C4.77837024,4.56251167 4.9570369,4.579845 5.13170357,4.60517833 C5.38637024,4.64117833 5.54770357,4.83317833 5.5170369,5.07717833 C5.48637024,5.315845 5.27837024,5.47051167 5.02637024,5.44117833 C4.45437024,5.37051167 3.89970357,5.20117833 3.38637024,4.94251167 C3.23837024,4.87051167 3.0890369,4.79851167 2.94637024,4.71451167 C2.8610369,4.663845 2.80370357,4.675845 2.72637024,4.73051167 C2.0410369,5.21051167 1.2850369,5.495845 0.445036904,5.54117833 C0.202370238,5.55317833 0.0237035709,5.40117833 0.00237023758,5.17851167 C-0.0202964291,4.94251167 0.121036904,4.74651167 0.365036904,4.719845 C0.902370238,4.663845 1.41170357,4.52651167 1.88770357,4.267845 C1.94637024,4.23451167 2.00370357,4.199845 2.05970357,4.16651167 L2.05970357,4.16651167 Z" id="Fill-5" fill="#173E67" mask="url(#mask-2)"></path></g><g id="Group-10" transform="translate(0.713715, 0.000000)"><mask id="mask-4" fill="white"><use xlink:href="#path-3"></use></mask><g id="Clip-9"></g><path d="M3.20023588,3.23706667 L2.41890254,1.18506667 C2.15356921,1.89573333 1.90556921,2.55973333 1.65223588,3.23706667 L3.20023588,3.23706667 Z M2.44956921,-0.000315372447 C2.79223588,-0.00293333333 3.00556921,0.103733333 3.11490254,0.361066667 C3.35623588,0.927733333 3.58823588,1.49706667 3.82023588,2.0664 C4.13756921,2.84106667 4.45223588,3.61706667 4.76423588,4.39306667 C4.81623588,4.5224 4.85756921,4.65573333 4.88956921,4.79173333 C4.94690254,5.0464 4.81490254,5.28373333 4.57490254,5.38106667 C4.32690254,5.4824 4.07623588,5.41306667 3.95090254,5.1624 C3.80290254,4.8624 3.68423588,4.5464 3.56556921,4.23306667 C3.52156921,4.11573333 3.47223588,4.06506667 3.33623588,4.06773333 C2.72423588,4.07573333 2.11223588,4.0744 1.50156921,4.06773333 C1.38690254,4.06773333 1.33756921,4.10373333 1.30290254,4.20906667 C1.21623588,4.4624 1.11890254,4.71306667 1.02156921,4.96373333 C0.996235876,5.03173333 0.964235876,5.09706667 0.928235876,5.15973333 C0.804235876,5.37973333 0.574902543,5.47173333 0.348235876,5.39706667 C0.114902543,5.32106667 -0.0410974573,5.11173333 0.00956920942,4.87173333 C0.0695692094,4.61173333 0.150902543,4.3584 0.252235876,4.11173333 C0.525569209,3.41706667 0.809569209,2.72773333 1.08690254,2.03573333 C1.28023588,1.55573333 1.46690254,1.0744 1.66423588,0.595733333 C1.83623588,0.1784 2.09756921,0.00106666667 2.44956921,-0.000315372447 L2.44956921,-0.000315372447 Z" id="Fill-8" fill="#173E67" mask="url(#mask-4)"></path></g><path d="M6.14848463,6.61666667 L9.63781796,6.61666667 C9.89115129,7.666 9.89115129,8.762 9.63781796,9.81133333 L6.15381796,9.81133333 C5.88581796,9.22466667 5.88181796,7.322 6.14848463,6.61666667" id="Fill-11" fill="#173E67"></path><path d="M4.91101796,9.91786667 L2.79235129,10.2005333 C2.28835129,8.87786667 2.29101796,7.5552 2.79101796,6.22986667 L4.90968463,6.50986667 C4.66435129,7.63253333 4.66435129,8.7952 4.91101796,9.91786667" id="Fill-13" fill="#173E67"></path><path d="M10.9080846,6.50293333 L12.9800846,6.2296 C13.4787513,7.54426667 13.4800846,8.86826667 12.9827513,10.2002667 L10.9067513,9.92426667 C10.9547513,9.35493333 11.0387513,8.7856 11.0400846,8.21626667 C11.0400846,7.64826667 10.9560846,7.0856 10.9080846,6.50293333" id="Fill-15" fill="#173E67"></path><path d="M7.88128463,3.1252 C8.33728463,3.67053333 9.05595129,4.8932 9.21328463,5.3932 L6.54528463,5.3932 C6.89595129,4.5852 7.34528463,3.82386667 7.88128463,3.1252" id="Fill-17" fill="#173E67"></path><path d="M6.54168463,11.0289333 L9.23101796,11.0289333 C8.87768463,11.8409333 8.42568463,12.6062667 7.88568463,13.3076 C7.34701796,12.6049333 6.89501796,11.8409333 6.54168463,11.0289333" id="Fill-19" fill="#173E67"></path><path d="M6.51581796,13.4970667 C5.23981796,13.1944 4.04248463,12.2944 3.43048463,11.3517333 C3.54781796,11.3317333 3.65448463,11.3090667 3.76381796,11.2970667 C4.21181796,11.2424 4.65848463,11.1917333 5.10515129,11.1357333 C5.22648463,11.1210667 5.28515129,11.1557333 5.33181796,11.2770667 C5.61315129,11.9944 5.97181796,12.6810667 6.40115129,13.3224 L6.51581796,13.4970667 Z" id="Fill-21" fill="#173E67"></path><path d="M12.364618,5.082 C11.968618,5.134 11.612618,5.18466667 11.2539513,5.22866667 C11.0392846,5.25533333 10.8219513,5.27666667 10.6059513,5.29133333 C10.5539513,5.29 10.5072846,5.26466667 10.4779513,5.222 C10.2899513,4.83133333 10.1272846,4.42866667 9.92595129,4.04466667 C9.72461796,3.66066667 9.49395129,3.306 9.27128463,2.92866667 C10.5432846,3.27666667 11.564618,3.98466667 12.364618,5.082" id="Fill-23" fill="#173E67"></path></g></g></g></g></g></g></svg>