<?xml version="1.0" encoding="utf-8"?>
<svg width="33px" height="33px" viewBox="0 0 33 33" version="1.1" xmlns:xlink="http://www.w3.org/1999/xlink" xmlns="http://www.w3.org/2000/svg">
  <g id="IconMessaging-Copy-21" transform="translate(-0.16668701 0.5)">
    <g id="Id_AddFriend" transform="translate(0.6666666 0)">
      <g id="Friends-Request">
        <path d="M16 32C24.8366 32 32 24.8366 32 16C32 7.16344 24.8366 0 16 0C7.16344 0 0 7.16344 0 16C0 24.8366 7.16344 32 16 32Z" id="Oval" fill="none" fill-rule="evenodd" stroke="none" />
        <g id="Group-24" transform="translate(1.3333333 1.3333334)">
          <path d="M10.6667 13.3333C14.3486 13.3333 17.3333 10.3486 17.3333 6.66667C17.3333 2.98477 14.3486 0 10.6667 0C6.98477 0 4 2.98477 4 6.66667C4 10.3486 6.98477 13.3333 10.6667 13.3333ZM10.6667 10.6667C8.45753 10.6667 6.66667 8.87581 6.66667 6.66667C6.66667 4.45753 8.45753 2.66667 10.6667 2.66667C12.8758 2.66667 14.6667 4.45753 14.6667 6.66667C14.6667 8.87581 12.8758 10.6667 10.6667 10.6667ZM25.3327 17.3329C25.3327 19.1106 22.6661 19.1106 22.6661 17.3329L22.6661 14.6667L20 14.6667C18.2222 14.6667 18.2222 12 20 12L22.6661 12L22.6661 9.3331C22.6661 7.55536 25.3327 7.55536 25.3327 9.3331L25.3327 12L28 12C29.7778 12 29.7778 14.6667 28 14.6667L25.3327 14.6667L25.3327 17.3329ZM20 29.3333C20.7364 29.3333 21.3333 28.7364 21.3333 28L21.3333 25.3333C21.3333 19.4423 16.5577 14.6667 10.6667 14.6667C4.77563 14.6667 0 19.4423 0 25.3333L0 28C0 28.7364 0.596954 29.3333 1.33333 29.3333L20 29.3333ZM10.6667 17.3333C15.0849 17.3333 18.6667 20.9151 18.6667 25.3333L18.6667 26.6667L2.66667 26.6667L2.66667 25.3333C2.66667 20.9151 6.24839 17.3333 10.6667 17.3333Z" id="Combined-Shape" fill="#5C63AB" fill-rule="evenodd" stroke="none" />
        </g>
      </g>
    </g>
  </g>
</svg>