<?xml version="1.0" encoding="utf-8"?>
<svg width="29px" height="22px" viewBox="0 0 29 22" version="1.1" xmlns:xlink="http://www.w3.org/1999/xlink" xmlns="http://www.w3.org/2000/svg">
  <g id="Group-52">
    <g id="Group-51">
      <g id="Group-50-Copy-2">
        <g id="Group-50-Copy">
          <path d="M8.82728 12.3026C11.5606 12.3026 13.6049 8.58013 13.6049 5.25375C13.6049 2.11209 11.6824 0 8.82728 0C5.96763 0 4.0497 2.11209 4.0497 5.25375C4.0497 8.58025 6.09419 12.3026 8.82728 12.3026Z" id="Path" fill="#5C63AB" stroke="none" />
          <path d="M0.435733 22L17.2188 22C17.4585 22 17.6548 21.8019 17.6548 21.5599L17.6548 17.2875C17.6548 14.5727 15.8283 12.2318 13.2129 11.5939C13.056 11.5544 12.886 11.6072 12.7815 11.7346C11.9879 12.6675 10.6582 13.7851 8.8274 13.7851C6.99663 13.7851 5.66694 12.6676 4.87356 11.7346C4.76468 11.6072 4.59469 11.5541 4.43759 11.5939C1.82196 12.2318 0 14.5727 0 17.2875L0 21.5599C0 21.8019 0.191955 22 0.435971 22L0.435733 22ZM11.9704 17.9431L12.8161 17.9431L12.8161 17.0938C12.8161 16.8474 13.0124 16.6537 13.2521 16.6537C13.4918 16.6537 13.6881 16.8472 13.6881 17.0938L13.6881 17.9431L14.5338 17.9431C14.7735 17.9431 14.9697 18.1411 14.9697 18.3831C14.9697 18.6294 14.7735 18.8232 14.5338 18.8232L13.6881 18.8232L13.6881 19.6768C13.6881 19.9188 13.4918 20.1169 13.2521 20.1169C13.0124 20.1169 12.8161 19.9188 12.8161 19.6768L12.8161 18.8232L11.9704 18.8232C11.7307 18.8232 11.5344 18.6296 11.5344 18.3831C11.5344 18.1411 11.7307 17.9431 11.9704 17.9431Z" id="Shape" fill="#5C63AB" fill-rule="evenodd" stroke="none" />
        </g>
      </g>
      <g id="Group-50" transform="translate(15.951441 1.1113474)">
        <path d="M5.43622 9.94363C7.64544 9.94363 9.29771 6.93492 9.29771 4.24636C9.29771 1.7071 7.74384 0 5.43622 0C3.1249 0 1.57472 1.7071 1.57472 4.24636C1.57472 6.93502 3.22719 9.94363 5.43622 9.94363Z" id="Path" fill="#5C63AB" fill-rule="evenodd" stroke="none" />
        <path d="M3.02344 18.6004L12.6722 18.6004C12.8791 18.6004 13.0486 18.4292 13.0486 18.22L13.0486 14.5263C13.0486 12.1792 11.4718 10.1554 9.21411 9.60389C9.07869 9.56972 8.93194 9.61535 8.84166 9.72557C8.15658 10.5321 7.00873 11.4983 5.42831 11.4983C3.8479 11.4983 2.70004 10.5321 2.01516 9.72557C1.92117 9.61535 1.77442 9.56952 1.63881 9.60389C0.996327 9.76082 0.409314 10.037 -0.101776 10.4058C1.28506 11.3159 2.87681 12.8663 3.02344 15.2372L3.02344 18.6004ZM8.87157 15.093L8.14152 15.093C7.93458 15.093 7.76517 15.2643 7.76517 15.4735C7.76517 15.6866 7.93458 15.8539 8.14152 15.8539L8.87157 15.8539L8.87157 16.5919C8.87157 16.8011 9.04099 16.9724 9.24792 16.9724C9.45486 16.9724 9.62428 16.8011 9.62428 16.5919L9.62428 15.8539L10.3543 15.8539C10.5613 15.8539 10.7307 15.6864 10.7307 15.4735C10.7307 15.2643 10.5613 15.093 10.3543 15.093L9.62428 15.093L9.62428 14.3588C9.62428 14.1456 9.45486 13.9783 9.24792 13.9783C9.04099 13.9783 8.87157 14.1458 8.87157 14.3588L8.87157 15.093Z" id="Combined-Shape" fill="#5C63AB" fill-rule="evenodd" stroke="none" />
      </g>
    </g>
  </g>
</svg>