<?xml version="1.0" encoding="utf-8"?>
<svg width="29.039978px" height="30.25px" viewBox="0 0 29.039978 30.25" version="1.1" xmlns:xlink="http://www.w3.org/1999/xlink" xmlns="http://www.w3.org/2000/svg">
  <g id="IconMessaging-Copy-21" transform="translate(-1.9799805 -1.375)">
    <g id="IconIcon_blue_greenic_Referrals" transform="translate(1.98 1.375)">
      <g id="ic_Referrals" transform="translate(1.98 0.6875)">
        <g id="Group-2">
          <path d="M5.28 8.25C3.09295 8.25 1.32 6.40317 1.32 4.125C1.32 1.84683 3.09295 0 5.28 0C7.46705 0 9.24 1.84683 9.24 4.125C9.24 6.40317 7.46705 8.25 5.28 8.25ZM5.28 5.5C6.00902 5.5 6.6 4.88439 6.6 4.125C6.6 3.36561 6.00902 2.75 5.28 2.75C4.55098 2.75 3.96 3.36561 3.96 4.125C3.96 4.88439 4.55098 5.5 5.28 5.5ZM3.96 8.25L6.6 8.25C8.78705 8.25 10.56 10.0968 10.56 12.375L10.56 13.75C10.56 16.0282 8.78705 17.875 6.6 17.875L3.96 17.875C1.77295 17.875 2.93099e-16 16.0282 0 13.75L0 12.375C-2.93099e-16 10.0968 1.77295 8.25 3.96 8.25ZM3.96 11C3.23098 11 2.64 11.6156 2.64 12.375L2.64 13.75C2.64 14.5094 3.23098 15.125 3.96 15.125L6.6 15.125C7.32902 15.125 7.92 14.5094 7.92 13.75L7.92 12.375C7.92 11.6156 7.32902 11 6.6 11L3.96 11Z" id="Shape" fill="#4394AD" fill-rule="evenodd" stroke="none" />
          <path d="M15.84 15.125C15.84 17.4032 17.613 19.25 19.8 19.25L18.48 19.25C16.293 19.25 14.52 21.0968 14.52 23.375L14.52 24.75C14.52 27.0282 16.293 28.875 18.48 28.875L21.12 28.875C23.307 28.875 25.08 27.0282 25.08 24.75L25.08 23.375C25.08 21.0968 23.307 19.25 21.12 19.25L19.8 19.25C21.987 19.25 23.76 17.4032 23.76 15.125C23.76 12.8468 21.987 11 19.8 11C17.613 11 15.84 12.8468 15.84 15.125ZM21.12 15.125C21.12 15.8844 20.529 16.5 19.8 16.5C19.071 16.5 18.48 15.8844 18.48 15.125C18.48 14.3656 19.071 13.75 19.8 13.75C20.529 13.75 21.12 14.3656 21.12 15.125ZM18.48 22C17.751 22 17.16 22.6156 17.16 23.375L17.16 24.75C17.16 25.5094 17.751 26.125 18.48 26.125L21.12 26.125C21.849 26.125 22.44 25.5094 22.44 24.75L22.44 23.375C22.44 22.6156 21.849 22 21.12 22L18.48 22Z" id="Shape" fill="#4394AD" fill-rule="evenodd" stroke="none" />
          <g id="Group-3" transform="translate(3.3000002 19.25)">
            <path d="M2.69033 1.34249C2.69033 0.601052 2.08808 0 1.34516 0C0.602251 0 0 0.601052 0 1.34249C0 4.32917 2.42601 6.75035 5.41864 6.75035L6.53215 6.75035L5.94857 7.3342L5.84427 7.45131C5.4271 7.97837 5.46267 8.74686 5.95047 9.23466C6.47579 9.75998 7.32665 9.76083 7.85092 9.23655L9.76736 7.32012L9.92927 7.14321C10.3376 6.65535 10.557 6.04289 10.5564 5.4115C10.5556 4.70119 10.2765 4.01428 9.76356 3.50132L7.8433 1.58106L7.72599 1.47652C7.1981 1.0583 6.42967 1.09234 5.94284 1.57917C5.41857 2.10344 5.41942 2.95431 5.94474 3.47963L6.53021 4.06537L5.41864 4.06537L5.21502 4.0579C3.80331 3.95396 2.69033 2.77794 2.69033 1.34249Z" id="Combined-Shape" fill="#5C63AB" fill-rule="evenodd" stroke="none" />
          </g>
          <g id="Group-4" transform="translate(11.22 0)">
            <path d="M0.00364518 4.2135C0.00435257 4.9238 0.283477 5.61071 0.796446 6.12368L2.7167 8.04394L2.83401 8.14848C3.36191 8.5667 4.13033 8.53266 4.61716 8.04583C5.14143 7.52156 5.14058 6.67069 4.61527 6.14537L4.0298 5.55963L5.14136 5.55963L5.34498 5.5671C6.75669 5.67104 7.86967 6.84706 7.86967 8.28251L7.87872 8.43907C7.95643 9.10675 8.52499 9.625 9.21484 9.625C9.95775 9.625 10.56 9.02395 10.56 8.28251C10.56 5.29583 8.13399 2.87465 5.14136 2.87465L4.02785 2.87465L4.61143 2.2908L4.71573 2.17369C5.13291 1.64663 5.09733 0.878136 4.60954 0.39034C4.08422 -0.134979 3.23335 -0.135826 2.70908 0.388448L0.792644 2.30488L0.630729 2.48178C0.222409 2.96965 0.00301671 3.58211 0.00364518 4.2135Z" id="Combined-Shape" fill="#5C63AB" fill-rule="evenodd" stroke="none" />
          </g>
        </g>
      </g>
    </g>
  </g>
</svg>