<?xml version="1.0" encoding="utf-8"?>
<svg width="34.833313px" height="34.833344px" viewBox="0 0 34.833313 34.833344" version="1.1" xmlns:xlink="http://www.w3.org/1999/xlink" xmlns="http://www.w3.org/2000/svg">
  <g id="IconMessaging-Copy-21" transform="translate(-1.583313 -1.5833435)">
    <g id="admin_panel_settings_black_24dp-(1)" transform="translate(1.5833333 1.5833334)">
      <path d="M0 0L34.8333 0L34.8333 34.8333L0 34.8333L0 0Z" id="Rectangle" fill="none" fill-rule="evenodd" stroke="none" />
      <g id="Group" transform="translate(4.75 4.7500005)">
        <path d="M19.95 19.4085C20.8314 19.4085 21.546 18.6939 21.546 17.8125C21.546 16.9311 20.8314 16.2165 19.95 16.2165C19.0686 16.2165 18.354 16.9311 18.354 17.8125C18.354 18.6939 19.0686 19.4085 19.95 19.4085Z" id="Oval" fill="#5C63AB" fill-rule="evenodd" stroke="none" />
        <path d="M21.375 11.5283L21.375 4.65975L10.6875 0L0 4.65975L0 11.6565C0 18.126 4.56 24.1823 10.6875 25.65C11.4713 25.4648 12.2265 25.194 12.9675 24.8663C14.5065 27.0608 17.0573 28.5 19.95 28.5C24.6667 28.5 28.5 24.6668 28.5 19.95C28.5 15.7178 25.422 12.2123 21.375 11.5283ZM11.4 19.95C11.4 20.748 11.514 21.5318 11.7277 22.2585C11.3857 22.4153 11.0437 22.572 10.6875 22.686C6.17025 21.261 2.85 16.644 2.85 11.6565L2.85 6.5265L10.6875 3.1065L18.525 6.5265L18.525 11.5283C14.478 12.2123 11.4 15.7178 11.4 19.95ZM19.95 25.65C16.8008 25.65 14.25 23.0993 14.25 19.95C14.25 16.8008 16.8008 14.25 19.95 14.25C23.0993 14.25 25.65 16.8008 25.65 19.95C25.65 23.0993 23.0993 25.65 19.95 25.65Z" id="Shape" fill="#5C63AB" stroke="none" />
        <path d="M19.95 20.6625C18.9097 20.6625 16.8293 21.1755 16.758 22.2015C17.4705 23.2133 18.639 23.8688 19.95 23.8688C21.261 23.8688 22.4295 23.2133 23.142 22.2015C23.0708 21.1755 20.9902 20.6625 19.95 20.6625Z" id="Path" fill="#5C63AB" fill-rule="evenodd" stroke="none" />
      </g>
    </g>
    <path d="M18.9076 13.8424L16.5658 15.8074C15.6013 15.227 14.3121 15.3737 13.5496 16.3338C12.9912 17.04 12.9107 18.0582 13.3491 18.8682C14.0943 20.2474 15.8314 20.5566 16.9345 19.631C17.7043 18.9851 17.9342 17.9294 17.5833 17.0201L17.6866 16.9335L18.3952 17.0053C18.6094 17.027 18.7952 16.8711 18.8111 16.6563L18.8663 15.9435L19.575 16.0154C19.7892 16.0371 19.978 15.8787 19.9938 15.6639L20.0937 14.2317C20.1095 14.0169 19.9467 13.8229 19.7295 13.8036L19.1908 13.7546C19.0835 13.7465 18.9843 13.778 18.9076 13.8424ZM15.9669 18.376C15.6334 18.6559 15.1315 18.612 14.8516 18.2785C14.5718 17.9449 14.6157 17.443 14.9492 17.1632C15.2828 16.8833 15.7846 16.9272 16.0645 17.2607C16.3444 17.5943 16.3005 18.0962 15.9669 18.376Z" id="Shape" fill="#5C63AB" stroke="none" />
  </g>
</svg>