<?xml version="1.0" encoding="utf-8"?>
<svg width="40px" height="40px" viewBox="0 0 40 40" version="1.1" xmlns="http://www.w3.org/2000/svg"
                        xmlns:xlink="http://www.w3.org/1999/xlink">
                        <title>Partner</title>
                        <g id="FloatLegal" stroke="none" stroke-width="1" fill="none" fill-rule="evenodd">
                            <g id="Client-Cases/Patient-Details" transform="translate(-533.000000, -500.000000)">
                                <g id="Group-25" transform="translate(498.000000, 239.000000)">
                                    <g id="Partner" transform="translate(35.000000, 261.000000)">
                                        <rect id="Rectangle" fill="#EFF3F6" x="0" y="0" width="40" height="40" rx="5">
                                        </rect>
                                        <g id="Group" transform="translate(8.000000, 8.000000)">
                                            <polygon id="Path" points="0 0 24 0 24 24 0 24"></polygon>
                                            <g id="Group-58" transform="translate(3.000000, 2.500000)" fill="#173E67"
                                                fill-rule="nonzero">
                                                <path
                                                    d="M17.5289013,4.96 C17.3989013,4.43 16.8589013,4.11 16.3289013,4.23 C13.9489013,4.77 11.2789013,5 8.78890131,5 C6.29890131,5 3.62890131,4.77 1.24890131,4.24 C0.708901305,4.12 0.178901305,4.43 0.0489013053,4.97 L0.0289013053,5.02 C-0.101098695,5.56 0.218901305,6.12 0.758901305,6.24 C2.37890131,6.61 4.12890131,6.86 5.78890131,7 L5.78890131,18 C5.78890131,18.55 6.23890131,19 6.78890131,19 L6.78890131,19 C7.33890131,19 7.78890131,18.55 7.78890131,18 L7.78890131,13 L9.78890131,13 L9.78890131,18 C9.78890131,18.55 10.2389013,19 10.7889013,19 L10.7889013,19 C11.3389013,19 11.7889013,18.55 11.7889013,18 L11.7889013,7 C13.4489013,6.86 15.1989013,6.61 16.8189013,6.24 C17.3589013,6.12 17.6789013,5.56 17.5489013,5.02 L17.5289013,4.96 Z"
                                                    id="Path"></path>
                                                <path
                                                    d="M8.78890131,4 C9.88890131,4 10.7889013,3.1 10.7889013,2 C10.7889013,0.9 9.88890131,0 8.78890131,0 C7.68890131,0 6.78890131,0.9 6.78890131,2 C6.78890131,3.1 7.68890131,4 8.78890131,4 Z"
                                                    id="Path"></path>
                                            </g>
                                        </g>
                                    </g>
                                </g>
                            </g>
                        </g>
                    </svg>