<?xml version="1.0" encoding="utf-8"?>
<svg width="22px" height="19px" viewBox="0 0 22 19" version="1.1" xmlns:xlink="http://www.w3.org/1999/xlink" xmlns="http://www.w3.org/2000/svg">
  <g id="Group">
    <path d="M18 17L2 17L2 5C2 4.45 1.55 4 1 4C0.45 4 0 4.45 0 5L0 17C0 18.1 0.9 19 2 19L18 19C18.55 19 19 18.55 19 18C19 17.45 18.55 17 18 17Z" id="Path" fill="#5C63AB" fill-rule="evenodd" stroke="none" />
    <path d="M20 2L13 2L11.59 0.59C11.21 0.21 10.7 0 10.17 0L6 0C4.9 0 4.01 0.9 4.01 2L4 13C4 14.1 4.9 15 6 15L20 15C21.1 15 22 14.1 22 13L22 4C22 2.9 21.1 2 20 2ZM17 11L9 11C8.59 11 8.35 10.53 8.6 10.2L9.98 8.37C10.18 8.1 10.58 8.1 10.78 8.37L12 10L14.22 7.03C14.42 6.76 14.82 6.76 15.02 7.03L17.4 10.2C17.65 10.53 17.41 11 17 11Z" id="Shape" fill="#5C63AB" stroke="none" />
  </g>
</svg>