<?xml version="1.0" encoding="utf-8"?>
<svg width="16px" height="16px" viewBox="0 0 16 16" version="1.1" xmlns:xlink="http://www.w3.org/1999/xlink" xmlns="http://www.w3.org/2000/svg">
  <g id="trending_up_black_24dp">
    <path d="M0 0L16 0L16 16L0 16L0 0Z" id="Path" fill="none" fill-rule="evenodd" stroke="none" />
    <path d="M11.2334 4.56667L12.1934 5.52667L8.94003 8.78L6.74669 6.58667C6.48669 6.32667 6.06669 6.32667 5.80669 6.58667L1.80669 10.5933C1.54669 10.8533 1.54669 11.2733 1.80669 11.5333C2.06669 11.7933 2.48669 11.7933 2.74669 11.5333L6.27336 8L8.46669 10.1933C8.72669 10.4533 9.14669 10.4533 9.40669 10.1933L13.1334 6.47333L14.0934 7.43333C14.3 7.64 14.66 7.49333 14.66 7.2L14.66 4.33333C14.6667 4.14667 14.52 4 14.3334 4L11.4734 4C11.1734 4 11.0267 4.36 11.2334 4.56667L11.2334 4.56667Z" id="Path" fill="#173E67" fill-rule="evenodd" stroke="none" />
  </g>
</svg>