<?xml version="1.0" encoding="UTF-8"?>
<svg width="55px" height="54px" viewBox="0 0 55 54" version="1.1" xmlns="http://www.w3.org/2000/svg" xmlns:xlink="http://www.w3.org/1999/xlink">
    <title>Group</title>
    <g id="Symbols" stroke="none" stroke-width="1" fill="none" fill-rule="evenodd">
        <g id="Card/Care-Center-/Overdue" transform="translate(-20.000000, -36.000000)">
            <g id="Group" transform="translate(20.000000, 36.000000)">
                <rect id="Rectangle" fill-opacity="0.1" fill="#5563AB" x="0" y="0" width="55" height="54" rx="10"></rect>
                <g id="iconspace_Colleague-Hat_25px" transform="translate(10.168227, 11.000000)">
                    <polygon id="Path" points="0 0 34.5719729 0 34.5719729 34 0 34"></polygon>
                    <g transform="translate(2.880998, 2.833333)" fill="#5C63AB" id="Combined-Shape">
                        <path d="M14.9827784,0.249588069 L26.99199,6.86069918 C28.2302543,7.54236782 28.3515011,9.20095617 27.3557302,10.0739383 L27.3551591,21.13295 C28.656999,22.503083 29.3558507,23.6677226 29.3558507,24.7108384 C29.3558507,26.5364464 27.8623209,28.016394 26.0199586,28.016394 C24.1775962,28.016394 22.6840665,26.5364464 22.6840665,24.7108384 C22.6840665,23.6677226 23.3829182,22.503083 24.684758,21.13295 L24.685,11.598 L24.018,11.965 L24.0179684,19.3191358 C24.0179684,19.8017641 23.8403708,20.267832 23.5184519,20.6300124 C21.6016091,22.7865894 18.4141663,23.8 14.0102921,23.8 C9.60641784,23.8 6.41897498,22.7865894 4.50213219,20.6300124 C4.18021332,20.267832 4.00261568,19.8017641 4.00261568,19.3190605 L4.003,11.965 L1.02950382,10.3281897 C-0.343167939,9.57252932 -0.343167939,7.61635957 1.02950382,6.86069918 L13.0387155,0.249588069 C13.6432242,-0.083196023 14.3782696,-0.083196023 14.9827784,0.249588069 Z M26.0199586,23.6362918 C25.8693103,23.8231097 25.7412067,23.9978222 25.6362352,24.1591 C25.4327537,24.4717284 25.3527802,24.6768552 25.3527802,24.7108384 C25.3527802,25.07596 25.6514861,25.3719495 26.0199586,25.3719495 C26.388431,25.3719495 26.687137,25.07596 26.687137,24.7108384 C26.687137,24.6768552 26.6071635,24.4717284 26.4036819,24.1591 C26.2987104,23.9978222 26.1706069,23.8231097 26.0199586,23.6362918 Z M21.3495804,13.6533723 L15.6307994,16.8015804 C15.1327829,17.0757401 14.5750575,17.2176875 14.0099891,17.2175604 C13.4454321,17.2174334 12.8882603,17.075492 12.3906945,16.8015804 L6.67165508,13.6532301 L6.67134429,19.0596619 C8.02929419,20.4318242 10.4500176,21.1555556 14.0102921,21.1555556 C17.5705926,21.1555556 19.9913254,20.4318136 21.3492696,19.0596317 L21.3495804,13.6533723 Z M14.0107469,2.73961728 L3.37533974,8.59444444 L14.0107469,14.4492716 L24.6461541,8.59444444 L14.0107469,2.73961728 Z"></path>
                    </g>
                </g>
            </g>
        </g>
    </g>
</svg>