<?xml version="1.0" encoding="utf-8"?>
<svg width="9.166687px" height="18.333344px" viewBox="0 0 9.166687 18.333344" version="1.1" xmlns:xlink="http://www.w3.org/1999/xlink" xmlns="http://www.w3.org/2000/svg">
  <defs>
    <path d="M13.75 5L13.75 14.5833C13.75 16.425 12.2583 17.9167 10.4167 17.9167C8.575 17.9167 7.08333 16.425 7.08333 14.5833L7.08333 4.16667C7.08333 3.01667 8.01667 2.08333 9.16667 2.08333C10.3167 2.08333 11.25 3.01667 11.25 4.16667L11.25 12.9167C11.25 13.375 10.875 13.75 10.4167 13.75C9.95833 13.75 9.58333 13.375 9.58333 12.9167L9.58333 5L8.33333 5L8.33333 12.9167C8.33333 14.0667 9.26667 15 10.4167 15C11.5667 15 12.5 14.0667 12.5 12.9167L12.5 4.16667C12.5 2.325 11.0083 0.833333 9.16667 0.833333C7.325 0.833333 5.83333 2.325 5.83333 4.16667L5.83333 14.5833C5.83333 17.1167 7.88333 19.1667 10.4167 19.1667C12.95 19.1667 15 17.1167 15 14.5833L15 5L13.75 5L13.75 5Z" id="path_1" />
    <path d="M0 0L41.6667 0L41.6667 41.6667L0 41.6667L0 0Z" id="path_2" />
    <clipPath id="mask_1">
      <use xlink:href="#path_1" />
    </clipPath>
    <clipPath id="mask_2">
      <use xlink:href="#path_2" />
    </clipPath>
  </defs>
  <g id="Material-Iconsic_folder" transform="translate(-5.833313 -0.8333435)">
    <path d="M13.75 5L13.75 14.5833C13.75 16.425 12.2583 17.9167 10.4167 17.9167C8.575 17.9167 7.08333 16.425 7.08333 14.5833L7.08333 4.16667C7.08333 3.01667 8.01667 2.08333 9.16667 2.08333C10.3167 2.08333 11.25 3.01667 11.25 4.16667L11.25 12.9167C11.25 13.375 10.875 13.75 10.4167 13.75C9.95833 13.75 9.58333 13.375 9.58333 12.9167L9.58333 5L8.33333 5L8.33333 12.9167C8.33333 14.0667 9.26667 15 10.4167 15C11.5667 15 12.5 14.0667 12.5 12.9167L12.5 4.16667C12.5 2.325 11.0083 0.833333 9.16667 0.833333C7.325 0.833333 5.83333 2.325 5.83333 4.16667L5.83333 14.5833C5.83333 17.1167 7.88333 19.1667 10.4167 19.1667C12.95 19.1667 15 17.1167 15 14.5833L15 5L13.75 5L13.75 5Z" id="Mask" fill="none" fill-rule="evenodd" stroke="none" />
    <g clip-path="url(#mask_1)">
      <g id="🎨-Color" transform="translate(-10.833333 -10.833333)">
        <path d="M0 0L41.6667 0L41.6667 41.6667L0 41.6667L0 0Z" id="Color" fill="#B5B5BE" fill-rule="evenodd" stroke="none" />
      </g>
    </g>
  </g>
</svg>