<?xml version="1.0" encoding="UTF-8"?>
<svg width="60px" height="60px" viewBox="0 0 60 60" version="1.1" xmlns="http://www.w3.org/2000/svg" xmlns:xlink="http://www.w3.org/1999/xlink">
    <title>Patients</title>
    <g id="E-notify-center" stroke="none" stroke-width="1" fill="none" fill-rule="evenodd">
        <g id="E-notify-center/Patient-Events-/Check-in-patient-" transform="translate(-156.000000, -223.000000)">
            <g id="Patients" transform="translate(156.000000, 223.000000)">
                <rect id="Rectangle" fill="#5C63AB" x="0" y="0" width="60" height="60" rx="30"></rect>
                <g id="Icon/Icons/ic_date_range" transform="translate(21.000000, 19.000000)" fill="#FFFFFF" fill-rule="nonzero">
                    <g id="noun-disability-sign-4432606">
                        <path d="M13.6918106,17.4943814 C12.5455573,18.8423133 10.8854704,19.6647194 9.1031569,19.767224 C7.32084337,19.8697589 5.57468574,19.2436305 4.2765899,18.036495 C2.97874086,16.8291044 2.24414658,15.1479568 2.24655286,13.3898852 C2.23859918,11.4334275 3.15180796,9.58372767 4.71909873,8.38156252 C4.9536062,8.12949975 5.05073356,7.78178024 4.98011848,7.44711229 C4.90974403,7.11245042 4.68005529,6.83165964 4.36287665,6.69233365 C4.04594482,6.55300766 3.68035676,6.57223258 3.38025037,6.74407566 C1.42295705,8.22276614 0.201060096,10.45502 0.0226868334,12.8779433 C-0.155902377,15.3008058 0.726184564,17.6833228 2.446305,19.4249888 C4.16642544,21.1664117 6.56042784,22.1003759 9.02470598,21.9914306 C11.4892926,21.8827223 13.7888331,20.7413247 15.3433521,18.8553503 C15.5518285,18.6431591 15.6612464,18.3550162 15.6455809,18.060226 C15.6296742,17.7651988 15.490129,17.4901135 15.2601996,17.300708 C15.0300296,17.1110654 14.7304539,17.0244318 14.4330561,17.0612228 C14.1354054,17.0977745 13.8669138,17.2548999 13.6914281,17.4943851 L13.6918106,17.4943814 Z" id="Path"></path>
                        <path d="M18.5848428,18.4923211 C18.4053133,18.6272175 18.1866317,18.7 17.9621562,18.7 C17.6355244,18.7 17.3279054,18.5460921 17.1319074,18.2846422 L14.3298178,14.5464223 L7.58404642,14.5464223 C7.30884267,14.5464223 7.04475239,14.4370171 6.8501658,14.2423211 C6.65557921,14.0476251 6.54623544,13.7833864 6.54623544,13.5080279 L6.54623544,6.05235602 C5.61546725,5.72298918 4.89593808,4.97153578 4.60707081,4.02701222 C4.31796632,3.08248866 4.49378929,2.05685166 5.08103612,1.26274695 C5.66804572,0.468404887 6.59677387,0 7.58405828,0 C8.57134268,0 9.50009455,0.468434555 10.0870804,1.26274695 C10.6743213,2.05685166 10.8501384,3.08248866 10.5610457,4.02701222 C10.2721725,4.97153578 9.5526493,5.72297731 8.62188111,6.05235602 L8.62188111,7.27754276 L12.773125,7.27754276 C13.1440031,7.27754276 13.4866052,7.47548447 13.6719286,7.79673997 C13.857252,8.11799546 13.857252,8.51388482 13.6719286,8.83513438 C13.4866052,9.15638394 13.1439912,9.35433159 12.773125,9.35433159 L8.62188111,9.35433159 L8.62188111,12.4695148 L14.848747,12.4695148 C15.1753787,12.4695148 15.4829977,12.6234227 15.6789957,12.8848726 L18.7924287,17.0384503 C18.9576007,17.2588747 19.0284862,17.5356276 18.9895653,17.8084642 C18.9506474,18.0810457 18.8051671,18.3269672 18.5848665,18.4922024 L18.5848428,18.4923211 Z" id="Path"></path>
                    </g>
                </g>
            </g>
        </g>
    </g>
</svg>