<?xml version="1.0" encoding="UTF-8"?>
<svg width="21px" height="18px" viewBox="0 0 21 18" version="1.1" xmlns="http://www.w3.org/2000/svg" xmlns:xlink="http://www.w3.org/1999/xlink">
    <title>Shape@3x</title>
    <g id="Close/Re-open-Case" stroke="none" stroke-width="1" fill="none" fill-rule="evenodd">
        <g id="Client-Cases/Case-Info---Filled-Copy" transform="translate(-1413.000000, -298.000000)" fill="#3E8ACC">
            <g id="Group-7" transform="translate(102.000000, 105.000000)">
                <g id="Group-8" transform="translate(25.000000, 181.000000)">
                    <g id="Group-6" transform="translate(1273.000000, 0.000000)">
                        <g id="Group-5" transform="translate(13.500000, 9.000000)">
                            <path d="M13.0018965,12.9125189 L13.0018965,18 C13.0018965,18.3787721 12.7878941,18.7250352 12.4491101,18.8944272 L8.44911006,20.8944272 C7.78420897,21.2268777 7.00189646,20.743382 7.00189646,20 L7.00189646,12.9125189 L0.227939165,4.63323779 C-0.306277044,3.98030687 0.158269919,3 1.00189646,3 L19.0018965,3 C19.845523,3 20.31007,3.98030687 19.7758538,4.63323779 L13.0018965,12.9125189 Z M11.0018965,17.381966 L11.0018965,12.5555556 C11.0018965,12.3247132 11.0817611,12.1009799 11.2279392,11.9223178 L16.8916537,5 L3.11213923,5 L8.77585376,11.9223178 C8.92203187,12.1009799 9.00189646,12.3247132 9.00189646,12.5555556 L9.00189646,18.381966 L11.0018965,17.381966 Z" id="Shape"></path>
                        </g>
                    </g>
                </g>
            </g>
        </g>
    </g>
</svg>