<?xml version="1.0" encoding="UTF-8"?>
<svg width="60px" height="60px" viewBox="0 0 60 60" version="1.1" xmlns="http://www.w3.org/2000/svg" xmlns:xlink="http://www.w3.org/1999/xlink">
    <title>Visit Info</title>
    <defs>
        <path d="M10,4 L10,0 L0,0 L0,18 L20,18 L20,4 L10,4 L10,4 Z M4,16 L2,16 L2,14 L4,14 L4,16 L4,16 Z M4,12 L2,12 L2,10 L4,10 L4,12 L4,12 Z M4,8 L2,8 L2,6 L4,6 L4,8 L4,8 Z M4,4 L2,4 L2,2 L4,2 L4,4 L4,4 Z M8,16 L6,16 L6,14 L8,14 L8,16 L8,16 Z M8,12 L6,12 L6,10 L8,10 L8,12 L8,12 Z M8,8 L6,8 L6,6 L8,6 L8,8 L8,8 Z M8,4 L6,4 L6,2 L8,2 L8,4 L8,4 Z M18,16 L10,16 L10,14 L12,14 L12,12 L10,12 L10,10 L12,10 L12,8 L10,8 L10,6 L18,6 L18,16 L18,16 Z M16,8 L14,8 L14,10 L16,10 L16,8 L16,8 Z M16,12 L14,12 L14,14 L16,14 L16,12 L16,12 Z" id="path-1"></path>
        <rect id="path-3" x="0" y="0" width="50" height="50"></rect>
    </defs>
    <g id="E-notify-center" stroke="none" stroke-width="1" fill="none" fill-rule="evenodd">
        <g id="E-notify-center/Patient-Events-/Check-in-patient-" transform="translate(-881.000000, -223.000000)">
            <g id="Visit-Info" transform="translate(881.000000, 223.000000)">
                <rect id="Rectangle" fill="#5C63AB" x="0" y="0" width="60" height="60" rx="30"></rect>
                <g id="Icon/Icons/ic_business" transform="translate(20.000000, 21.000000)">
                    <mask id="mask-2" fill="white">
                        <use xlink:href="#path-1"></use>
                    </mask>
                    <g id="Mask"></g>
                    <g id="🎨-Color" mask="url(#mask-2)">
                        <g transform="translate(-15.000000, -16.000000)">
                            <mask id="mask-4" fill="white">
                                <use xlink:href="#path-3"></use>
                            </mask>
                            <use id="Color" stroke="none" fill="#FFFFFF" fill-rule="evenodd" xlink:href="#path-3"></use>
                        </g>
                    </g>
                </g>
            </g>
        </g>
    </g>
</svg>