<?xml version="1.0" encoding="UTF-8"?>
<svg width="23px" height="23px" viewBox="0 0 23 23" version="1.1" xmlns="http://www.w3.org/2000/svg" xmlns:xlink="http://www.w3.org/1999/xlink">
    <title>Group 61 Copy@3x</title>
    <g id="Dashboard" stroke="none" stroke-width="1" fill="none" fill-rule="evenodd">
        <g id="Group-61-Copy">
            <path d="M6.409713,1.94456993e-16 L16.590287,2.58960077e-16 C18.8190838,-1.50463262e-16 19.6272994,0.232064028 20.4421143,0.667831759 C21.2569291,1.10359949 21.8964005,1.74307093 22.3321682,2.55788574 C22.767936,3.37270056 23,4.18091615 23,6.409713 L23,16.590287 C23,18.8190838 22.767936,19.6272994 22.3321682,20.4421143 C21.8964005,21.2569291 21.2569291,21.8964005 20.4421143,22.3321682 C19.6272994,22.767936 18.8190838,23 16.590287,23 L6.409713,23 C4.18091615,23 3.37270056,22.767936 2.55788574,22.3321682 C1.74307093,21.8964005 1.10359949,21.2569291 0.667831759,20.4421143 C0.232064028,19.6272994 -1.63139533e-16,18.8190838 2.80777018e-16,16.590287 L1.72640051e-16,6.409713 C-1.00308841e-16,4.18091615 0.232064028,3.37270056 0.667831759,2.55788574 C1.10359949,1.74307093 1.74307093,1.10359949 2.55788574,0.667831759 C3.37270056,0.232064028 4.18091615,-1.12985113e-16 6.409713,1.94456993e-16 Z" id="Rectangle" fill-opacity="0.1" fill="#5C63AB"></path>
            <g id="grade_black_24dp" transform="translate(4.140000, 4.140000)">
                <polygon id="Path" points="0 0 15.18 0 15.18 15.18 0 15.18"></polygon>
                <path d="M7.59,4.509725 L8.203525,5.95815 L8.5008,6.660225 L9.2598,6.723475 L10.822075,6.8563 L9.632975,7.887275 L9.0574,8.38695 L9.228175,9.1333 L9.582375,10.657625 L8.241475,9.848025 L7.59,9.443225 L6.938525,9.835375 L5.597625,10.644975 L5.951825,9.12065 L6.1226,8.3743 L5.547025,7.874625 L4.357925,6.84365 L5.9202,6.710825 L6.6792,6.647575 L6.976475,5.9455 L7.59,4.509725 M7.59,1.265 L5.812675,5.458475 L1.265,5.8443 L4.71845,8.836025 L3.68115,13.2825 L7.59,10.923275 L11.49885,13.2825 L10.46155,8.836025 L13.915,5.8443 L9.367325,5.458475 L7.59,1.265 Z" id="Shape" fill="#5C63AB" fill-rule="nonzero"></path>
            </g>
        </g>
    </g>
</svg>