<?xml version="1.0" encoding="UTF-8"?>
<svg width="23px" height="23px" viewBox="0 0 23 23" version="1.1" xmlns="http://www.w3.org/2000/svg" xmlns:xlink="http://www.w3.org/1999/xlink">
    <title>Group 60 Copy@3x</title>
    <g id="Dashboard" stroke="none" stroke-width="1" fill="none" fill-rule="evenodd">
        <g id="Group-60-Copy">
            <path d="M6.409713,1.94456993e-16 L16.590287,2.58960077e-16 C18.8190838,-1.50463262e-16 19.6272994,0.232064028 20.4421143,0.667831759 C21.2569291,1.10359949 21.8964005,1.74307093 22.3321682,2.55788574 C22.767936,3.37270056 23,4.18091615 23,6.409713 L23,16.590287 C23,18.8190838 22.767936,19.6272994 22.3321682,20.4421143 C21.8964005,21.2569291 21.2569291,21.8964005 20.4421143,22.3321682 C19.6272994,22.767936 18.8190838,23 16.590287,23 L6.409713,23 C4.18091615,23 3.37270056,22.767936 2.55788574,22.3321682 C1.74307093,21.8964005 1.10359949,21.2569291 0.667831759,20.4421143 C0.232064028,19.6272994 -1.63139533e-16,18.8190838 2.80777018e-16,16.590287 L1.72640051e-16,6.409713 C-1.00308841e-16,4.18091615 0.232064028,3.37270056 0.667831759,2.55788574 C1.10359949,1.74307093 1.74307093,1.10359949 2.55788574,0.667831759 C3.37270056,0.232064028 4.18091615,-1.12985113e-16 6.409713,1.94456993e-16 Z" id="Rectangle-Copy-28" fill-opacity="0.1" fill="#5C63AB"></path>
            <g id="insights_black_24dp" transform="translate(4.140000, 4.140000)">
                <rect id="Rectangle" x="0" y="0" width="15.18" height="15.18"></rect>
                <g id="Group" transform="translate(0.632500, 1.897500)" fill="#5C63AB" fill-rule="nonzero">
                    <path d="M12.65,3.1625 C11.732875,3.1625 11.22055,4.0733 11.429275,4.750075 L9.1839,7.001775 C8.99415,6.94485 8.71585,6.94485 8.5261,7.001775 L6.913225,5.3889 C7.128275,4.712125 6.61595,3.795 5.6925,3.795 C4.775375,3.795 4.256725,4.7058 4.471775,5.3889 L1.587575,8.266775 C0.9108,8.05805 0,8.570375 0,9.4875 C0,10.18325 0.56925,10.7525 1.265,10.7525 C2.182125,10.7525 2.69445,9.8417 2.485725,9.164925 L5.3636,6.280725 C5.55335,6.33765 5.83165,6.33765 6.0214,6.280725 L7.634275,7.8936 C7.419225,8.570375 7.93155,9.4875 8.855,9.4875 C9.772125,9.4875 10.290775,8.5767 10.075725,7.8936 L12.327425,5.648225 C13.0042,5.85695 13.915,5.344625 13.915,4.4275 C13.915,3.73175 13.34575,3.1625 12.65,3.1625 Z" id="Path"></path>
                    <polygon id="Path" points="8.855 3.795 9.44955 2.485725 10.7525 1.8975 9.44955 1.309275 8.855 0 8.2731 1.309275 6.9575 1.8975 8.2731 2.485725"></polygon>
                    <polygon id="Path" points="1.58125 5.06 1.8975 3.795 3.1625 3.47875 1.8975 3.1625 1.58125 1.8975 1.265 3.1625 0 3.47875 1.265 3.795"></polygon>
                </g>
            </g>
        </g>
    </g>
</svg>