<?xml version="1.0" encoding="UTF-8"?>
<svg width="307px" height="310px" viewBox="0 0 307 310" version="1.1" xmlns="http://www.w3.org/2000/svg" xmlns:xlink="http://www.w3.org/1999/xlink">
    <title>Group 47@3x</title>
    <defs>
        <polygon id="path-1" points="0 0 2.24643835 0 2.24643835 2.23354428 0 2.23354428"></polygon>
    </defs>
    <g id="Dashboard" stroke="none" stroke-width="1" fill="none" fill-rule="evenodd">
        <g id="Super-Admin-Panel(Dashboard)" transform="translate(-179.000000, -85.000000)">
            <g id="First-Section" transform="translate(137.000000, 85.000000)">
                <g id="Group-47" transform="translate(42.651841, 0.000000)">
                    <g id="Group-17" transform="translate(22.348159, 165.000000)">
                        <g id="Seat" transform="translate(36.237389, 44.503646)" fill="#B5B5BE">
                            <path d="M107.881306,0 C116.717862,-5.17596268e-15 123.881306,7.163444 123.881306,16 L123.881306,79.4293109 C123.881306,88.2658669 116.717862,95.4293109 107.881306,95.4293109 L16,95.4293109 C7.163444,95.4293109 8.93060434e-15,88.2658669 0,79.4293109 L0,16 C-1.082166e-15,7.163444 7.163444,-1.92946468e-15 16,0 L107.881306,0 Z M96.2848665,21.5485541 L27.5964392,21.5485541 C25.3873002,21.5485541 23.5964392,23.3394151 23.5964392,25.5485541 L23.5964392,25.5485541 L23.5964392,69.8807568 C23.5964392,72.0898958 25.3873002,73.8807568 27.5964392,73.8807568 L27.5964392,73.8807568 L96.2848665,73.8807568 C98.4940055,73.8807568 100.284866,72.0898958 100.284866,69.8807568 L100.284866,69.8807568 L100.284866,25.5485541 C100.284866,23.3394151 98.4940055,21.5485541 96.2848665,21.5485541 L96.2848665,21.5485541 Z"></path>
                        </g>
                        <path d="M243.682925,135.710421 C227.067771,115.378214 215.825562,100.304825 209.956295,90.4902535 C199.906686,73.6853249 191.681562,58.732042 189.085918,53.0199553 C182.896271,39.3987519 203.335485,33.0205595 207.961343,39.3739406 C214.962764,48.9900351 229.915313,79.2491773 252.818991,130.151367 L243.682925,135.710421 Z" id="Legs-[skin]" fill="#FFBC65"></path>
                        <path d="M209.635457,129.798871 L178.713697,51.7974661 C172.100148,37.5783301 204.038205,28.2317464 208.898664,34.8490473 C219.933411,49.8723691 246.160452,109.137194 249.448071,113.613144 L209.635457,129.798871 Z" id="LegLower" fill="#173E67"></path>
                        <path d="M151.088371,130.72257 C150.228388,120.089254 148.613079,83.2803318 150.173777,66.2452244 C150.622259,61.3500177 151.095202,56.6171786 151.572155,52.1773901 C152.989828,38.9807675 177.451607,39.4231759 175.521985,51.9600281 C170.716464,83.1817451 162.246663,126.935386 161.640264,130.716076 C160.790371,136.014874 151.628844,137.405277 151.088371,130.72257 Z" id="Legs-[skin]" fill="#FFBC65" transform="translate(162.575421, 88.823013) rotate(39.000000) translate(-162.575421, -88.823013) "></path>
                        <g id="Left-[shoe]" transform="translate(146.902150, 124.712608) rotate(30.000000) translate(-146.902150, -124.712608) translate(122.462980, 115.845283)" fill="#173E67">
                            <path d="M1.29443865,5.7303957 C0.43147955,8.09075133 0,9.86989712 0,11.0678331 C0,12.5907212 0.253168054,14.8129937 0.759504161,17.7346507 C2.52244348,17.7346507 18.366276,17.7346507 48.2910017,17.7346507 C49.5261768,13.6425973 48.8131621,11.4334293 46.1519575,11.1071468 C43.490753,10.7808643 41.2800451,10.4862573 39.519834,10.2233259 L17.5765284,0.420260982 C17.0722757,0.194988549 16.4808788,0.421146732 16.2556063,0.925399422 C16.2515451,0.934490166 16.2476198,0.943641057 16.2438319,0.952849035 L14.885319,4.25521412 L14.885319,4.25521412 C12.4217397,5.40708569 10.4198256,5.98302148 8.87957698,5.98302148 C7.68453054,5.98302148 6.05467095,5.52114885 3.98999821,4.5974036 L3.99059216,4.59607793 C2.98257437,4.14444323 1.79929223,4.59548085 1.34765753,5.60349864 C1.32890504,5.64535291 1.31159778,5.68783984 1.29576645,5.73088405 Z" id="shoe"></path>
                        </g>
                        <g id="Right-[shoe]" transform="translate(235.121662, 127.265349)" fill="#173E67">
                            <path d="M1.29443865,5.7303957 C0.43147955,8.09075133 0,9.86989712 0,11.0678331 C0,12.5907212 0.253168054,14.8129937 0.759504161,17.7346507 C2.52244348,17.7346507 18.366276,17.7346507 48.2910017,17.7346507 C49.5261768,13.6425973 48.8131621,11.4334293 46.1519575,11.1071468 C43.490753,10.7808643 41.2800451,10.4862573 39.519834,10.2233259 L17.5765284,0.420260982 C17.0722757,0.194988549 16.4808788,0.421146732 16.2556063,0.925399422 C16.2515451,0.934490166 16.2476198,0.943641057 16.2438319,0.952849035 L14.885319,4.25521412 L14.885319,4.25521412 C12.4217397,5.40708569 10.4198256,5.98302148 8.87957698,5.98302148 C7.68453054,5.98302148 6.05467095,5.52114885 3.98999821,4.5974036 L3.99059216,4.59607793 C2.98257437,4.14444323 1.79929223,4.59548085 1.34765753,5.60349864 C1.32890504,5.64535291 1.31159778,5.68783984 1.29576645,5.73088405 Z" id="shoe"></path>
                        </g>
                        <path d="M167.587044,55.6934103 C141.886461,51.4976308 124.671862,48.6285731 115.943246,47.0862369 C91.0632525,42.6899711 83.8080346,29.2732383 88.0977068,0 L133.938666,0 C140.004986,1.75553192 165.352406,12.6129273 209.980927,32.5721862 C218.010478,36.5665735 216.515112,48.3440409 215.047452,52.2241955 C214.987596,52.382443 201.451311,75.6262815 174.438598,121.955711 L136.938755,98.0162573 L167.657469,58.5143474 C168.468721,56.8769323 168.445246,55.9366199 167.587044,55.6934103 Z" id="Leg-and-Butt" fill="#173E67"></path>
                    </g>
                    <g id="Group-6" transform="translate(40.810789, 230.010738) rotate(40.000000) translate(-40.810789, -230.010738) translate(10.881318, 202.188975)" fill-rule="nonzero">
                        <polygon id="Rectangle" fill="#F93D3D" transform="translate(32.931024, 31.635309) rotate(-20.573900) translate(-32.931024, -31.635309) " points="11.6743049 17.2038051 54.220173 17.1559565 54.1877422 46.0668129 11.6418742 46.1146616"></polygon>
                        <path d="M59.3574486,32.4855386 L49.7653238,6.43788442 C48.7646581,3.25806733 45.3171998,1.53596301 42.1974771,2.55590434 L41.8986741,2.67030453 L34.1278009,5.64318437 L33.56661,4.11988217 C32.3324888,0.768719006 28.3343152,-0.829833106 25.0459857,0.428060636 L15.1824939,4.20174186 C11.8951622,5.45963561 9.91577942,9.34568325 11.1499006,12.696338 L11.7105927,14.2196402 L3.93922072,17.1930284 C0.847432815,18.2892366 -0.738866882,21.8498792 0.335626687,25.0017318 L0.447864873,25.3062906 L10.0409873,51.3534363 C11.0690891,54.6095202 14.544981,56.4078913 17.8138559,55.3310041 L17.9635068,55.2740582 L55.923459,40.7508258 C59.1080305,39.4456467 60.6953278,35.8839872 59.4148148,32.6380722 C59.3858823,32.5612969 59.3858823,32.5612969 59.3579475,32.4855386 L59.3574486,32.4855386 Z M15.999791,10.5967298 C15.8143198,9.66003916 16.33354,8.79596777 17.2251903,8.46476494 L27.0308642,4.82300581 C27.9220186,4.49180298 28.8880558,4.80386965 29.3715702,5.63065005 L29.9294716,7.10119062 L16.5576923,12.0672704 L15.999791,10.5967298 Z M37.6854856,28.8684497 L32.9991448,30.6492612 L34.5907228,34.941912 C35.065465,36.2219646 34.4611123,37.5688856 33.1962919,38.0495338 C31.9319681,38.530182 30.6015975,37.9188136 30.1268553,36.6382582 L28.5352772,32.3456074 L23.8489364,34.126419 C22.5846126,34.6070672 21.254242,33.9956988 20.7794999,32.7151434 C20.3047577,31.4345881 20.9091104,30.0876671 22.1734342,29.6070189 L26.8602717,27.8267101 L25.2125787,23.3832282 C24.7378365,22.1031757 25.3421892,20.7562547 26.6070096,20.2756065 C27.87183,19.7949583 29.201704,20.4063267 29.6764462,21.6868821 L31.3241392,26.1303639 L36.01048,24.3495523 C37.2748038,23.8689041 38.6051744,24.4807753 39.0799166,25.7608279 C39.5536655,27.0408805 38.9498094,28.3878015 37.6854856,28.8684497 L37.6854856,28.8684497 Z" id="Shape" fill="#1C1F3F"></path>
                    </g>
                    <path d="M189.136129,147.322542 L214.609922,168.866433 C221.75549,171.334928 227.669218,174.198516 232.351104,177.457196 C233.431813,178.586942 234.677895,180.809117 229.916657,180.10796 C225.155419,179.406803 220.1157,178.882904 219.341016,180.465638 C218.566332,182.048372 221.326613,184.198324 219.837384,186.302876 C218.844564,187.705911 214.896802,183.73881 207.994096,174.401572 L182.173995,161.546669 L189.136129,147.322542 Z M73.7851297,138 C61.6482772,170.701512 54.5308133,188.589859 52.432738,191.665039 C50.8941971,193.920101 40.9966491,200.03879 34.2555118,203.382569 C31.5497108,204.724717 32.2668208,207.028222 33.1181139,207.732663 C40.0423412,213.462428 45.8116483,208.643897 52.8029363,206.518341 C60.4624929,204.189611 58.5278735,213.526224 64.5855582,211.781188 C63.3869004,207.623273 60.3206905,199.768905 62.927863,195.259468 C64.0866064,193.255274 72.6878823,174.890577 88.7316909,140.165375 L73.7851297,138 Z" id="Arms-[skin]-Copy" fill="#FFBC65"></path>
                    <path d="M132.34285,80.1193425 L141.293744,76.2646708 C156.53015,106.405905 177.821983,134.996059 211.211863,157.797275 L204.670171,171.76371 C175.876803,158.029426 148.859989,147.767179 136.224238,124.483804 C131.983353,116.669301 132.904604,89.8576522 132.34285,80.1193425 Z" id="Coat-Back-Copy" fill="#C5CFD6" transform="translate(171.777356, 124.014190) rotate(5.000000) translate(-171.777356, -124.014190) "></path>
                    <g id="Head" transform="translate(125.348159, 22.000000)" fill="#FFBC65">
                        <path d="M31.7861178,7.75758686 C36.6151268,16.9311423 36.041315,40.2006266 29.8002512,41.8401968 C27.3112225,42.4940817 22.008737,40.892234 16.6121526,37.5769519 L20,62 L0,62 L6.88496751,29.2926725 C3.04518598,24.6989959 0.446372158,19.0694241 0.880646945,12.7613444 C2.13194185,-5.41440104 26.9571089,-1.41596862 31.7861178,7.75758686 Z" id="Head-[skin]"></path>
                    </g>
                    <path d="M150.324739,20.5220853 C147.547634,19.6799801 143.516253,19.3943952 141.820371,19.5875909 C142.785066,17.2891317 143.167871,14.7283716 142.855792,12.2350196 C142.552465,9.81226617 141.463821,7.74936187 140.456988,5.58768744 C139.992889,4.59129699 139.466945,3.60033721 138.682794,2.83821188 C137.883992,2.06176319 136.872816,1.5492446 135.812501,1.3047291 C134.727422,1.05444354 133.592814,1.0752837 132.506049,1.30242107 C132.02529,1.40288829 131.593929,1.62147238 131.12244,1.74298341 C130.639607,1.8674813 130.405386,1.56696213 130.054929,1.26494952 C129.210359,0.537241001 127.972223,0.178002805 126.903739,0.0494319164 C125.704953,-0.0947521214 124.461046,0.0850706264 123.317752,0.476960669 C122.204927,0.858464573 121.13586,1.47796718 120.331288,2.38047508 C119.973053,2.78220819 119.647879,3.23946981 119.436542,3.74431759 C119.349868,3.95149729 119.335541,4.07423022 119.12764,4.1501237 C118.935362,4.22038287 118.710476,4.22241937 118.51204,4.28928438 C116.593281,4.93553299 114.952762,6.40982156 114.059506,8.30274618 C113.53836,9.40707101 113.291497,11.3513967 113.359112,13.5306664 C113.426727,15.709936 115.405516,21.3962724 117.25627,23.4703775 C118.908264,25.3216897 121.3365,26.5433846 123.679942,27.0781689 C122.124476,28.8461884 121.089055,31.0555168 120.323379,33.3024526 C119.49171,35.7431951 118.976981,38.2792457 118.786908,40.8632219 C118.606364,43.3182878 118.589638,45.9145508 119.168416,48.3172108 C119.709854,50.5640788 120.867734,52.4073128 122.80069,53.5766698 C123.686101,54.1123366 124.638738,54.5147485 125.596886,54.88254 C126.54116,55.2449687 127.488287,55.5973507 128.477422,55.800729 C130.34944,56.1854913 132.506438,56.1194409 133.948457,54.6376851 C134.468177,54.1035118 135.03976,53.4322821 135.418934,52.7797204 C135.555266,52.545048 135.637467,52.3915639 135.471833,52.1621864 C135.273397,51.8874629 134.952437,51.6769569 134.697536,51.4620385 C133.243914,50.2366778 132.344111,48.6008271 132.11728,46.6567864 C131.887143,44.6843026 132.419959,42.138341 134.348441,41.2775134 C136.728964,40.2148689 139.35058,41.4345953 141.466414,42.571572 C142.365633,39.4155436 144.211979,36.5738826 147.106713,35.1262042 C150.309246,33.5246345 153.984111,33.3372089 157.275199,31.9630481 C158.132799,31.6049639 159.006282,31.198479 159.6377,30.4688697 C159.901547,30.1639381 160.211097,29.7683824 160.316442,29.365088 C160.454848,28.835327 160.111263,28.3911669 159.84586,27.9781651 C158.438589,25.7883192 153.101844,21.3641906 150.324739,20.5220853 Z" id="hair" fill="#1E1E1E"></path>
                    <path d="M128.711365,72 L128.686159,72.436 L135.691618,72.4367807 C137.306332,81.9115099 142.364468,209.025543 157.874938,252.702211 L158.348159,254 L72.4178683,254 C74.2808019,215.163338 88.9761936,168.511066 103.862832,129.471911 C90.6996092,141.489035 79.2265069,161.852421 69.4438384,190.561344 L69.4438384,190.561344 L53.3481586,186.439199 C65.3156209,134.990249 89.9205214,97.174847 127.16286,72.9929928 L127.405563,72.4367807 L128.028159,72.436 L128.711365,72 Z" id="Coat-Front-Copy" fill="#F2F2F2"></path>
                    <path d="M104.348159,164.901575 C130.702722,167.699475 151.446655,167.699475 166.579956,164.901575 C168.454871,164.554933 168.750663,161.411799 167.881174,159.278605 C154.340962,126.059219 145.055974,97.0734373 145.055974,74 C142.571515,75.2541456 138.223479,75.442095 132.011864,74.5638482 C115.318244,98.3417672 107.644782,125.624209 104.348159,164.901575 Z" id="Shirt-Copy" fill="#323337"></path>
                    <g id="Group-10" transform="translate(128.144907, 95.117345) rotate(20.000000) translate(-128.144907, -95.117345) translate(118.870987, 74.040252)">
                        <path d="M11.0064465,41.0374307 C10.659374,40.6789654 2.19052209,32.5789136 3.99685272,26.905261 C4.70053077,24.6937302 5.99631525,23.8247766 7.37154155,23.1798199 C8.65426226,22.7160269 11.646218,22.2315195 13.1926856,23.1987789 C16.0141062,24.9640713 17.4362915,29.8424997 17.8546851,37.9558931 L17.5107903,37.9730966 C17.0147202,28.349655 14.5188345,24.8650633 12.6553058,24.0796697 C10.3115953,23.0920468 6.20074555,23.5017716 4.9074326,27.2289681 C4.01627183,29.7968577 5.76434511,33.3871282 7.38637069,35.8521477 C9.18775827,38.5896148 11.150501,41.0163652 11.1706263,41.0374307 L11.0064465,41.0374307 Z" id="Fill-1" fill="#173E67"></path>
                        <g id="Group-5" transform="translate(9.883157, 39.920641)">
                            <mask id="mask-2" fill="white">
                                <use xlink:href="#path-1"></use>
                            </mask>
                            <g id="Clip-4"></g>
                            <path d="M2.00308155,1.99157142 L2.00308155,1.99157142 C1.67860582,2.31422531 1.14758133,2.31422531 0.823458677,1.99157142 L0.243356799,1.41507777 C-0.0811189328,1.09242388 -0.0811189328,0.564380972 0.243356799,0.241727091 C0.56783253,-0.0805756971 1.09885701,-0.0805756971 1.42333274,0.241727091 L2.00308155,0.818571842 C2.32755728,1.14087463 2.32755728,1.66891754 2.00308155,1.99157142" id="Fill-3" fill="#5C63AB" mask="url(#mask-2)"></path>
                        </g>
                        <path d="M17.7138789,39.5049477 L17.7138789,39.5049477 C17.2548817,39.5049477 16.8795632,39.1317365 16.8795632,38.6753164 L16.8795632,37.86008 C16.8795632,37.4036599 17.2548817,37.0304487 17.7138789,37.0304487 C18.172523,37.0304487 18.5478415,37.4036599 18.5478415,37.86008 L18.5478415,38.6753164 C18.5478415,39.1317365 18.172523,39.5049477 17.7138789,39.5049477" id="Fill-6" fill="#5C63AB"></path>
                        <path d="M7.40985017,24.0796697 C6.47596735,22.0278859 -1.75526521,4.54699718 0.34023366,0.0990080461 L1.14524418,0 C-0.442180073,3.3694334 5.26315545,18.565413 7.74103432,24.0094512 L7.40985017,24.0796697 Z" id="Fill-8" fill="#173E67"></path>
                    </g>
                    <g id="Group-7" transform="translate(144.348159, 73.000000)">
                        <path d="M4.93952231,23.7916875 C4.49295279,14.796695 0.0386148622,0.141211818 0,0 L1.27020182,0.621932899 C1.43011278,1.20731097 4.9704142,14.5838758 5.42652387,23.7716575 L4.93952231,23.7916875 Z" id="Fill-1" fill="#173E67"></path>
                        <path d="M2.17869595,23.7916875 C2.17869595,22.0195293 3.48206113,20.5833751 5.08934798,20.5833751 C6.69708912,20.5833751 8,22.0195293 8,23.7916875 C8,25.5638458 6.69708912,27 5.08934798,27 C3.48206113,27 2.17869595,25.5638458 2.17869595,23.7916875" id="Fill-3" fill="#173E67"></path>
                        <path d="M3.71892923,23.7916875 C3.71892923,22.8908363 4.38128769,22.1607411 5.19855989,22.1607411 C6.01583209,22.1607411 6.67819055,22.8908363 6.67819055,23.7916875 C6.67819055,24.6920381 6.01583209,25.422634 5.19855989,25.422634 C4.38128769,25.422634 3.71892923,24.6920381 3.71892923,23.7916875" id="Fill-5" fill="#5C63AB"></path>
                    </g>
                    <polygon id="Light" fill-opacity="0.4" fill="#173E67" points="109.348159 212 130.348159 202 130.348159 212"></polygon>
                </g>
            </g>
        </g>
    </g>
</svg>