<?xml version="1.0" encoding="UTF-8"?>
<svg width="577px" height="318px" viewBox="0 0 577 318" version="1.1" xmlns="http://www.w3.org/2000/svg" xmlns:xlink="http://www.w3.org/1999/xlink">
    <title>Illustration/Card View/Web@3x</title>
    <g id="Law-Firm-Info" stroke="none" stroke-width="1" fill="none" fill-rule="evenodd">
        <g id="Firm-Info---Blanked" transform="translate(-550.000000, -683.000000)">
            <g id="Group-8" transform="translate(550.651786, 683.000000)">
                <g id="Group-5" transform="translate(133.348214, 26.000000)">
                    <rect id="Container" fill-opacity="0.1" fill="#1F3D5A" x="0" y="0" width="341" height="256" rx="8"></rect>
                    <path d="M8,0 L333,0 C337.418278,-8.11624501e-16 341,3.581722 341,8 L341,24.1758794 L341,24.1758794 L0,24.1758794 L0,8 C-5.41083001e-16,3.581722 3.581722,8.11624501e-16 8,0 Z" id="Header" fill-opacity="0.2" fill="#1F3D5A"></path>
                    <g id="Buttons" transform="translate(12.000000, 6.000000)" fill="#F2F2F2">
                        <circle id="buttons" cx="2" cy="2" r="2"></circle>
                        <circle id="buttons" cx="8" cy="2" r="2"></circle>
                        <circle id="buttons" cx="14" cy="2" r="2"></circle>
                    </g>
                    <rect id="Container" fill="#FFFFFF" x="10" y="38" width="321" height="83" rx="4"></rect>
                    <g id="image_black_24dp" transform="translate(158.000000, 68.000000)">
                        <polygon id="Path" points="0 0 24 0 24 24 0 24"></polygon>
                        <path d="M21,19 L21,5 C21,3.9 20.1,3 19,3 L5,3 C3.9,3 3,3.9 3,5 L3,19 C3,20.1 3.9,21 5,21 L19,21 C20.1,21 21,20.1 21,19 Z M8.9,13.98 L11,16.51 L14.1,12.52 C14.3,12.26 14.7,12.26 14.9,12.53 L18.41,17.21 C18.66,17.54 18.42,18.01 18.01,18.01 L6.02,18.01 C5.6,18.01 5.37,17.53 5.63,17.2 L8.12,14 C8.31,13.74 8.69,13.73 8.9,13.98 Z" id="Shape" fill="#DDE3E9" fill-rule="nonzero"></path>
                    </g>
                    <g id="Group-7" transform="translate(10.579737, 136.000000)">
                        <rect id="Container" fill="#FFFFFF" x="0" y="0" width="99.9473684" height="50" rx="4"></rect>
                        <g id="Text-Stuff" transform="translate(8.052632, 9.414721)" fill="#1F3D5A" fill-opacity="0.1">
                            <rect id="Label" x="0" y="0" width="44.9473684" height="5.88235294" rx="2.94117647"></rect>
                            <rect id="Label" x="0" y="9.80392157" width="30.3394737" height="5.88235294" rx="2.94117647"></rect>
                        </g>
                        <rect id="Label" fill-opacity="0.1" fill="#1F3D5A" x="8.4717608" y="37.8460932" width="42.0819491" height="5.88235294" rx="2.94117647"></rect>
                        <g id="Group-4" transform="translate(83.167220, 39.806878)" fill="#1F3D5A" fill-opacity="0.1">
                            <ellipse id="Oval" cx="4.73421927" cy="0.980392157" rx="1.05204873" ry="1"></ellipse>
                            <ellipse id="Oval-Copy-4" cx="1.05204873" cy="0.980392157" rx="1.05204873" ry="1"></ellipse>
                            <ellipse id="Oval-Copy-3" cx="8.41638981" cy="0.980392157" rx="1.05204873" ry="1"></ellipse>
                        </g>
                        <line x1="50.0276855" y1="-16.9923538" x2="50.0276855" y2="81.9002265" id="Line-9" stroke-opacity="0.1" stroke="#1F3D5A" fill="#D8D8D8" stroke-linecap="square" transform="translate(50.027685, 32.453936) rotate(-90.000000) translate(-50.027685, -32.453936) "></line>
                    </g>
                    <g id="Group-7-Copy-3" transform="translate(10.579737, 196.000000)">
                        <rect id="Container" fill="#FFFFFF" x="0" y="0" width="99.9473684" height="50" rx="4"></rect>
                        <g id="Text-Stuff" transform="translate(8.052632, 9.414721)" fill="#1F3D5A" fill-opacity="0.1">
                            <rect id="Label" x="0" y="0" width="44.9473684" height="5.88235294" rx="2.94117647"></rect>
                            <rect id="Label" x="0" y="9.80392157" width="30.3394737" height="5.88235294" rx="2.94117647"></rect>
                        </g>
                        <rect id="Label" fill-opacity="0.1" fill="#1F3D5A" x="8.4717608" y="37.8460932" width="42.0819491" height="5.88235294" rx="2.94117647"></rect>
                        <g id="Group-4" transform="translate(83.167220, 39.806878)" fill="#1F3D5A" fill-opacity="0.1">
                            <ellipse id="Oval" cx="4.73421927" cy="0.980392157" rx="1.05204873" ry="1"></ellipse>
                            <ellipse id="Oval-Copy-4" cx="1.05204873" cy="0.980392157" rx="1.05204873" ry="1"></ellipse>
                            <ellipse id="Oval-Copy-3" cx="8.41638981" cy="0.980392157" rx="1.05204873" ry="1"></ellipse>
                        </g>
                        <line x1="50.0276855" y1="-16.9923538" x2="50.0276855" y2="81.9002265" id="Line-9" stroke-opacity="0.1" stroke="#1F3D5A" stroke-linecap="square" transform="translate(50.027685, 32.453936) rotate(-90.000000) translate(-50.027685, -32.453936) "></line>
                    </g>
                    <g id="Group-7-Copy" transform="translate(120.579737, 136.000000)">
                        <rect id="Container" fill="#FFFFFF" x="0" y="0" width="99.9473684" height="50" rx="4"></rect>
                        <g id="Text-Stuff" transform="translate(8.052632, 9.414721)" fill="#1F3D5A" fill-opacity="0.1">
                            <rect id="Label" x="0" y="0" width="44.9473684" height="5.88235294" rx="2.94117647"></rect>
                            <rect id="Label" x="0" y="9.80392157" width="30.3394737" height="5.88235294" rx="2.94117647"></rect>
                        </g>
                        <rect id="Label" fill-opacity="0.1" fill="#1F3D5A" x="8.4717608" y="37.8460932" width="42.0819491" height="5.88235294" rx="2.94117647"></rect>
                        <g id="Group-4" transform="translate(83.167220, 39.806878)" fill="#1F3D5A" fill-opacity="0.1">
                            <ellipse id="Oval" cx="4.73421927" cy="0.980392157" rx="1.05204873" ry="1"></ellipse>
                            <ellipse id="Oval-Copy-4" cx="1.05204873" cy="0.980392157" rx="1.05204873" ry="1"></ellipse>
                            <ellipse id="Oval-Copy-3" cx="8.41638981" cy="0.980392157" rx="1.05204873" ry="1"></ellipse>
                        </g>
                        <line x1="50.0276855" y1="-16.9923538" x2="50.0276855" y2="81.9002265" id="Line-9" stroke-opacity="0.1" stroke="#1F3D5A" stroke-linecap="square" transform="translate(50.027685, 32.453936) rotate(-90.000000) translate(-50.027685, -32.453936) "></line>
                    </g>
                    <g id="Group-7-Copy-4" transform="translate(120.579737, 196.000000)">
                        <rect id="Container" fill="#FFFFFF" x="0" y="0" width="99.9473684" height="50" rx="4"></rect>
                        <g id="Text-Stuff" transform="translate(8.052632, 9.414721)" fill="#1F3D5A" fill-opacity="0.1">
                            <rect id="Label" x="0" y="0" width="44.9473684" height="5.88235294" rx="2.94117647"></rect>
                            <rect id="Label" x="0" y="9.80392157" width="30.3394737" height="5.88235294" rx="2.94117647"></rect>
                        </g>
                        <rect id="Label" fill-opacity="0.1" fill="#1F3D5A" x="8.4717608" y="37.8460932" width="42.0819491" height="5.88235294" rx="2.94117647"></rect>
                        <g id="Group-4" transform="translate(83.167220, 39.806878)" fill="#1F3D5A" fill-opacity="0.1">
                            <ellipse id="Oval" cx="4.73421927" cy="0.980392157" rx="1.05204873" ry="1"></ellipse>
                            <ellipse id="Oval-Copy-4" cx="1.05204873" cy="0.980392157" rx="1.05204873" ry="1"></ellipse>
                            <ellipse id="Oval-Copy-3" cx="8.41638981" cy="0.980392157" rx="1.05204873" ry="1"></ellipse>
                        </g>
                        <line x1="50.0276855" y1="-16.9923538" x2="50.0276855" y2="81.9002265" id="Line-9" stroke-opacity="0.1" stroke="#1F3D5A" stroke-linecap="square" transform="translate(50.027685, 32.453936) rotate(-90.000000) translate(-50.027685, -32.453936) "></line>
                    </g>
                    <g id="Group-7-Copy-2" transform="translate(230.579737, 136.000000)">
                        <rect id="Container" fill="#FFFFFF" x="0" y="0" width="99.9473684" height="50" rx="4"></rect>
                        <g id="Text-Stuff" transform="translate(8.052632, 9.414721)" fill="#1F3D5A" fill-opacity="0.1">
                            <rect id="Label" x="0" y="0" width="44.9473684" height="5.88235294" rx="2.94117647"></rect>
                            <rect id="Label" x="0" y="9.80392157" width="30.3394737" height="5.88235294" rx="2.94117647"></rect>
                        </g>
                        <rect id="Label" fill-opacity="0.1" fill="#1F3D5A" x="8.4717608" y="37.8460932" width="42.0819491" height="5.88235294" rx="2.94117647"></rect>
                        <g id="Group-4" transform="translate(83.167220, 39.806878)" fill="#1F3D5A" fill-opacity="0.1">
                            <ellipse id="Oval" cx="4.73421927" cy="0.980392157" rx="1.05204873" ry="1"></ellipse>
                            <ellipse id="Oval-Copy-4" cx="1.05204873" cy="0.980392157" rx="1.05204873" ry="1"></ellipse>
                            <ellipse id="Oval-Copy-3" cx="8.41638981" cy="0.980392157" rx="1.05204873" ry="1"></ellipse>
                        </g>
                        <line x1="50.0276855" y1="-16.9923538" x2="50.0276855" y2="81.9002265" id="Line-9" stroke-opacity="0.1" stroke="#1F3D5A" stroke-linecap="square" transform="translate(50.027685, 32.453936) rotate(-90.000000) translate(-50.027685, -32.453936) "></line>
                    </g>
                    <g id="Group-7-Copy-5" transform="translate(230.579737, 196.000000)">
                        <rect id="Container" fill="#FFFFFF" x="0" y="0" width="99.9473684" height="50" rx="4"></rect>
                        <g id="Text-Stuff" transform="translate(8.052632, 9.414721)" fill="#1F3D5A" fill-opacity="0.1">
                            <rect id="Label" x="0" y="0" width="44.9473684" height="5.88235294" rx="2.94117647"></rect>
                            <rect id="Label" x="0" y="9.80392157" width="30.3394737" height="5.88235294" rx="2.94117647"></rect>
                        </g>
                        <rect id="Label" fill-opacity="0.1" fill="#1F3D5A" x="8.4717608" y="37.8460932" width="42.0819491" height="5.88235294" rx="2.94117647"></rect>
                        <g id="Group-4" transform="translate(83.167220, 39.806878)" fill="#DDE3E9">
                            <ellipse id="Oval" cx="4.73421927" cy="0.980392157" rx="1.05204873" ry="1"></ellipse>
                            <ellipse id="Oval-Copy-4" cx="1.05204873" cy="0.980392157" rx="1.05204873" ry="1"></ellipse>
                            <ellipse id="Oval-Copy-3" cx="8.41638981" cy="0.980392157" rx="1.05204873" ry="1"></ellipse>
                        </g>
                        <line x1="50.0276855" y1="-16.9923538" x2="50.0276855" y2="81.9002265" id="Line-9" stroke-opacity="0.1" stroke="#1F3D5A" stroke-linecap="square" transform="translate(50.027685, 32.453936) rotate(-90.000000) translate(-50.027685, -32.453936) "></line>
                    </g>
                </g>
                <g id="Group-102" transform="translate(0.000000, 62.000000)">
                    <g id="Group-99" transform="translate(34.515450, 144.274914)">
                        <g id="Seat" transform="translate(0.000000, 28.267793)">
                            <g transform="translate(-0.000000, 0.000000)" id="Seat-Stuff">
                                <polygon fill-opacity="0.5" fill="#777777" points="18.6664949 0 70.8726424 0 77.7133106 83.4572931 0 83.4572931"></polygon>
                                <polygon fill-opacity="0.1" fill="#000000" points="18.6664949 0 34.7228485 0 44.3329255 83.4572931 0 83.4572931"></polygon>
                            </g>
                        </g>
                        <path d="M130.391234,13.9693381 L130.58667,13.8570751 C136.173013,10.7401012 145.296441,14.9729749 145.290106,19.6787016 C145.281279,26.2312216 142.514623,43.9753039 139.462876,61.6412866 L139.063408,63.944176 C135.590866,83.8826577 131.891396,103.095193 131.537025,105.302045 C130.855541,109.54599 123.555143,110.666976 123.130017,105.315953 C122.762382,100.688572 122.223343,89.8700788 122.009648,78.7666816 L121.985598,77.4332843 C121.836099,68.5398926 121.907538,59.6153614 122.454249,53.6836697 C122.973334,48.0517064 123.532365,42.6880348 124.082714,37.9029613 C117.234654,50.2208833 106.641837,67.8589179 92.3052401,90.8161874 L84.5227338,87.2749083 C90.6341053,67.2208778 95.6453369,53.0632656 99.5564288,44.8020716 C106.253168,30.6569018 112.532454,18.5434494 115.175203,14.2765838 C119.332108,7.5650285 126.567755,9.9064792 130.391234,13.9693381 Z" id="Legs-[skin]" fill="#FFB30F"></path>
                        <path d="M97.1431573,83.0464444 L100.688723,14.6889193 C103.195458,2.86648759 124.274756,8.32443801 124.257856,14.6583566 C124.219455,29.0383127 115.490054,78.7243587 115.478616,83.0086281 L97.1431573,83.0464444 Z" id="LegLower" fill="#1F3D5A" transform="translate(110.700507, 45.382793) rotate(20.000000) translate(-110.700507, -45.382793) "></path>
                        <g id="Left-[shoe]" transform="translate(98.213503, 94.883020) rotate(30.000000) translate(-98.213503, -94.883020) translate(78.616233, 87.816072)" fill="#0070FF">
                            <path d="M0.884344458,4.99306649 C0.294781486,6.6635781 2.84217094e-14,7.9394479 2.84217094e-14,8.8206759 C2.84217094e-14,10.0343645 0.203010282,11.805438 0.609030845,14.1338964 C2.02269581,14.1338964 14.7275409,14.1338964 38.723566,14.1338964 C39.7140277,10.872673 39.1422758,9.11204335 37.0083103,8.8520076 C34.8743448,8.59197185 33.1016235,8.35718039 31.6901462,8.14763321 L14.2774066,0.416252378 C13.7726405,0.192132635 13.1817618,0.419641436 12.9576421,0.924407506 C12.9542039,0.932150991 12.9508643,0.939937858 12.947624,0.94776622 L11.9362327,3.39125685 L11.9362327,3.39125685 C9.96073884,4.30925821 8.35544496,4.76825889 7.12035108,4.76825889 C6.23081813,4.76825889 5.0408519,4.45108477 3.55045239,3.81673655 L3.55085872,3.81577861 C2.53398849,3.38444497 1.35998729,3.85911617 0.928653654,4.8759864 C0.912351306,4.91441923 0.897256308,4.95335308 0.883390848,4.99273071 Z" id="shoe"></path>
                        </g>
                        <g id="Right-[shoe]" transform="translate(120.286689, 97.591190)" fill="#0070FF">
                            <path d="M0.884344458,4.99306649 C0.294781486,6.6635781 1.42108547e-14,7.9394479 1.42108547e-14,8.8206759 C1.42108547e-14,10.0343645 0.203010282,11.805438 0.609030845,14.1338964 C2.02269581,14.1338964 14.7275409,14.1338964 38.723566,14.1338964 C39.7140277,10.872673 39.1422758,9.11204335 37.0083103,8.8520076 C34.8743448,8.59197185 33.1016235,8.35718039 31.6901462,8.14763321 L14.2774066,0.416252378 C13.7726405,0.192132635 13.1817618,0.419641436 12.9576421,0.924407506 C12.9542039,0.932150991 12.9508643,0.939937858 12.947624,0.94776622 L11.9362327,3.39125685 L11.9362327,3.39125685 C9.96073884,4.30925821 8.35544496,4.76825889 7.12035108,4.76825889 C6.23081813,4.76825889 5.0408519,4.45108477 3.55045239,3.81673655 L3.55085872,3.81577861 C2.53398849,3.38444497 1.35998729,3.85911617 0.928653654,4.8759864 C0.912351306,4.91441923 0.897256308,4.95335308 0.883390848,4.99273071 Z" id="shoe"></path>
                        </g>
                        <path d="M147.162232,24.5209829 C147.162232,42.4016892 138.636221,84.1103419 138.630826,88.0475193 L120.286689,88.0615529 C122.971703,50.8453335 123.923788,32.0367597 123.142946,31.6358316 C121.971683,31.0344395 75.1290643,36.2938474 61.0802009,36.2938474 C40.8216702,36.2938474 32.4411218,23.5702222 31.7610922,0 L71.8924875,0 C80.0636,0.870827677 122.684872,9.43286606 138.513567,12.3761868 C145.290102,13.6362728 147.162232,19.5953086 147.162232,24.5209829 Z" id="Leg-and-Butt" fill="#1F3D5A"></path>
                    </g>
                    <g id="Group-101">
                        <g id="Head" transform="translate(83.025000, 25.599207)" fill="#FFBC65">
                            <path d="M25.7467554,6.15319589 C29.6582527,13.4295158 29.1934651,31.8865047 24.1382034,33.1869861 C22.1220913,33.705637 17.8270819,32.4350783 13.455851,29.8054517 L16.2,49.1774248 L0,49.1774248 L5.57648272,23.2340876 C2.4664468,19.5905287 0.361574302,15.1253844 0.713324025,10.1220977 C1.7268729,-4.29461774 21.8352582,-1.12312404 25.7467554,6.15319589 Z" id="Head-[skin]"></path>
                        </g>
                        <path d="M99.5381663,23.3661864 C97.4030532,23.0167445 91.654167,22.7764934 90.5939697,22.7766485 C89.9164536,22.7766485 89.1822325,22.9311289 88.7809595,22.3102606 C88.4523495,21.8018405 88.5727314,20.941962 88.4746596,20.3519589 C88.3607849,19.6665687 88.1990362,18.9900194 88.0354284,18.3151761 C87.5698588,16.394874 86.8658493,14.5679425 85.8807939,12.8526836 C84.0324593,9.63465365 81.3247188,7.11395662 77.9063068,5.64716904 C74.1313971,4.02760724 69.8597765,3.6567614 65.7993277,3.98526474 C61.4541146,4.33672299 57.5207098,5.76830271 53.4181196,7.11550763 C49.5085743,8.39927635 45.4137307,8.90459453 41.3247746,8.27767738 C37.204987,7.64610722 34.0921002,5.41761996 30.6171382,3.30251133 C27.0597525,1.13715007 22.9943459,-0.279074678 18.7888812,0.0464817502 C14.863223,0.350479177 11.2451041,1.96817977 7.99897608,4.12919821 C4.9618509,6.1510913 2.45583142,8.58369112 1.04099556,12.0073846 C-0.481052991,15.6902514 -0.479658606,19.7327967 2.02326224,22.9875855 C5.65114182,27.7054395 12.3861757,28.9254618 17.9894338,28.804173 C21.2304491,28.7342226 24.4135199,28.1437541 27.47342,27.0696816 C31.5541648,25.6371713 35.0805642,23.2092245 38.898235,21.2392901 C40.6898647,20.3148898 42.5417627,19.5556717 44.4829014,19.0087866 C46.3665604,18.4778768 48.2218669,18.2343686 49.9273546,19.3700161 C51.7315337,20.5714264 53.3482455,21.7515878 55.4122449,22.5036713 C57.3922715,23.2251998 59.4895812,23.6287719 61.5991306,23.6124864 C65.70358,23.5808458 69.7496201,22.3045219 73.7360115,21.4496067 C76.9867874,20.752584 80.465003,20.0578879 83.779146,20.727923 C85.162066,21.0075696 87.1820648,21.5848545 87.6815645,23.0192261 C79.2748181,24.5398336 75.9730774,34.9160723 78.3430669,42.5332242 C79.6221826,46.6444792 87.3111229,51.4504928 90.3006841,49.2891439 C92.1946571,47.9198673 91.0448208,46.122255 90.3006841,44.9355793 C88.8756227,42.6630435 88.3880528,39.7438927 91.0249896,38.1617101 C93.2995411,36.7971339 95.6910754,40.0376403 95.7363155,40.034073 C96.3614647,39.984906 101.763297,36.935982 105.485061,32.4868285 C109.156596,32.7040422 109.713621,30.2879209 108.83693,28.3119878 C107.96024,26.3360547 102.48822,23.8493252 99.5381663,23.3661864 Z" id="hair" fill="#1F3D5A"></path>
                    </g>
                    <g id="Group-100" transform="translate(59.223214, 61.580756)">
                        <path d="M109.000369,31.2890876 C110.182567,31.046212 112.052599,30.0365767 113.943184,28.9900125 L114.483334,28.6906197 C117.091191,27.2447922 119.617051,25.8610932 120.303619,26.461544 C122.124933,28.0544083 120.500937,32.9454249 118.587484,35.3784438 C115.011243,39.925753 112.05027,41.4807955 104.731765,43.5171331 C100.905272,44.5818355 96.7681572,46.7159398 92.3204195,49.919446 L91.7338252,39.6036157 L102.034766,33.9565905 C103.480134,28.4682346 105.207895,25.7068571 107.218049,25.6724581 C108.762266,24.9554437 106.073023,31.890494 109.000369,31.2890876 Z M91.2708875,7.78152291 C91.1290305,8.03278163 90.987471,8.28549493 90.847369,8.53846671 L90.569452,9.04440048 C88.9636141,11.9935565 87.6613943,14.8693588 88.5045511,15.7724448 C89.4681589,16.8045432 91.8710013,15.3627473 93.0205708,17.0775875 C93.7869505,18.2208142 89.6818843,20.0267907 80.7053721,22.4955168 L63.6654965,38.0649109 L55.005495,28.7893807 L78.4563108,15.9721682 C82.3560378,11.3508576 86.1983552,7.76176235 89.983263,5.20488258 C91.1398089,4.72304755 93.162315,4.43140657 91.2708875,7.78152291 Z" id="Arms-[skin]" fill="#FFB30F"></path>
                        <path d="M44.3431476,23.424007 C52.4695511,24.6234298 63.5589016,24.6269928 76.2604625,19.1432 L79.195927,29.9498601 C69.9845926,36.5743206 57.7625734,41.2800381 48.0165708,39.4551913 C40.3361837,38.0171115 37.8682535,28.080518 44.3431476,23.424007 Z" id="Sleeve" fill="#3E8ACC" transform="translate(59.911165, 29.497222) rotate(-9.000000) translate(-59.911165, -29.497222) "></path>
                        <path d="M44.1317815,0 C45.1660902,13.2607371 50.3718884,27.875165 54.6443596,42.3132155 C63.3627755,44.4855455 77.9866098,41.9264124 98.5143583,34.6370237 C103.605697,45.1481904 105.959295,52.6418462 105.575153,57.117991 C87.9647319,66.297866 72.871365,70.3901284 60.4368137,70.659454 C60.8364055,78.0198026 59.938573,85.0263311 56.9214971,91.4283492 C53.448524,98.7977483 40.5321514,98.2183481 27.6938243,96.7030205 L26.3190216,96.5374021 C16.7035658,95.3574761 7.32328968,93.7919746 2.19505283,94.7994527 C-5.45126312,70.0187096 9.33312015,59.9479158 9.34501587,44.0917519 C9.35804295,26.7275629 23.3297166,0 25.3853685,0 L25.3853685,0 Z" id="Clothes" fill="#3E8ACC"></path>
                    </g>
                </g>
                <g id="Group-26" transform="translate(486.848214, 159.000000) scale(-1, 1) translate(-486.848214, -159.000000) translate(397.348214, 0.000000)">
                    <polygon id="Leg-[skin]-Copy" fill="#FFB30F" points="74 139 101.800089 233.812972 114.875863 305 128 305 114.899253 139"></polygon>
                    <polygon id="Shadow-Copy" fill-opacity="0.1" fill="#000000" points="74 139 101.800089 233.812972 114.875863 305 128 305 114.899253 139"></polygon>
                    <path d="M62.5890634,139 C64.4915682,188.107155 63.7412481,214.891531 63.3154447,219.35313 C62.8896414,223.814728 60.4723245,253.695523 44,306 L57.38783,306 C79.2027147,255.822792 86.818082,225.941996 89.3200842,219.35313 C91.8220863,212.764263 99.2116152,185.979886 110,139 L62.5890634,139 Z" id="Leg-[skin]-Copy-2" fill="#FFB30F"></path>
                    <path d="M74,139 C81.1141765,171.576269 93.4186528,223.576269 110.913429,295 L129.798232,295 C131.193091,221.690371 125.259429,173.440371 114.98381,139 L74,139 Z" id="Pant-Copy" fill="#4394AD"></path>
                    <path d="M62.8414461,139 C64.6962059,188.254167 59.8894782,236.778851 45,296 L64.9952714,296 C86.7506229,246.423697 102.343384,198.138464 113,139 L62.8414461,139 Z" id="Pant-Copy-2" fill="#4394AD"></path>
                    <g id="Left-[shoe]-Copy" transform="translate(42.000000, 302.250000)" fill="#3D6083">
                        <path d="M7.10542736e-15,13.5 L0.748384309,1.5 C5.13006924,2.77456883 10.6182208,2.27456883 17.2128391,0 C24.1855508,4.91226196 32.9332213,8.29244027 43.4558505,10.1405349 C44.5442796,10.3286762 45.2730667,11.364273 45.0838323,12.452512 C45.0719021,12.5211196 45.0563968,12.5890573 45.036803,12.6558838 L44.1546742,15.75 L44.1546742,15.75 L17.2128391,15.75 L1.49676862,15.75 L7.10542736e-15,13.5 Z" id="Shoe"></path>
                    </g>
                    <g id="Right-[shoe]-Copy" transform="translate(112.000000, 302.250000)" fill="#3D6083">
                        <path d="M0,13.5 L0.748384309,1.5 C5.13006924,2.77456883 10.6182208,2.27456883 17.2128391,0 C24.1855508,4.91226196 32.9332213,8.29244027 43.4558505,10.1405349 C44.5442796,10.3286762 45.2730667,11.364273 45.0838323,12.452512 C45.0719021,12.5211196 45.0563968,12.5890573 45.036803,12.6558838 L44.1546742,15.75 L44.1546742,15.75 L17.2128391,15.75 L1.49676862,15.75 L0,13.5 Z" id="Shoe"></path>
                    </g>
                    <g id="Head" transform="translate(82.000000, 20.000000)" fill="#FFB30F">
                        <path d="M28.1534186,6.88173028 C32.4305408,15.0195618 31.9223075,35.6618462 26.3945082,37.1163036 C24.1900095,37.6963445 19.4937492,36.2754586 14.7140734,33.3346713 L17.7142857,55 L0,55 L6.09792367,25.9852071 C2.69707881,21.9102132 0.395365375,16.9163202 0.78000158,11.3205475 C1.88829135,-4.80309769 23.8762964,-1.25610119 28.1534186,6.88173028 Z" id="Head-[skin]"></path>
                    </g>
                    <path d="M103.256166,18.3232905 C100.833585,17.5714108 97.3168482,17.3164243 95.8374617,17.4889205 C96.6790042,15.4367248 97.0129406,13.1503318 96.7407018,10.9241247 C96.4760975,8.76095194 95.5264286,6.9190731 94.6481277,4.98900664 C94.2432757,4.09937231 93.7844736,3.21458679 93.100427,2.53411775 C92.4035997,1.84085999 91.5215098,1.3832541 90.5965539,1.1649367 C89.6499954,0.941467443 88.6602315,0.960074728 87.7122026,1.16287596 C87.2928169,1.25257883 86.9165234,1.4477432 86.5052245,1.55623519 C86.0840291,1.66739402 85.8797087,1.39907333 85.5739914,1.12941921 C84.8372388,0.479679465 83.7571622,0.158931076 82.8250808,0.0441356397 C81.779331,-0.0846001084 80.6942213,0.0759559164 79.6968796,0.42585774 C78.726117,0.766486226 77.7935266,1.31961355 77.0916663,2.12542418 C76.7791629,2.48411446 76.4955007,2.89238376 76.3111429,3.34314071 C76.2355336,3.52812258 76.2230357,3.63770556 76.0416751,3.70546759 C75.8739434,3.768199 75.6777664,3.7700173 75.5046623,3.8297182 C73.8308518,4.40672588 72.3997602,5.72305497 71.6205375,7.41316623 C71.1659202,8.39917054 70.9505722,10.1351756 71.0095554,12.0809521 C71.0685386,14.0267286 72.7947157,19.1038147 74.4092037,20.9556942 C75.8503049,22.6086515 77.9685534,23.6994506 80.0128326,24.1769365 C78.6559366,25.7555253 77.7526965,27.72814 77.084767,29.7343327 C76.3592682,31.9135671 75.9102495,34.177898 75.7444406,36.4850196 C75.5869447,38.6770427 75.5723544,40.9951347 76.077246,43.1403668 C76.5495639,45.1464989 77.5596297,46.7922436 79.245825,47.8363123 C80.018205,48.3145862 80.8492289,48.6738826 81.6850597,49.0022679 C82.5087885,49.3258649 83.3350055,49.6404917 84.1978679,49.8220794 C85.8309047,50.1656172 87.7125419,50.1066436 88.9704729,48.7836474 C89.423846,48.3067069 89.9224604,47.7073948 90.2532299,47.1247503 C90.3721577,46.9152214 90.443865,46.7781821 90.2993759,46.5733807 C90.1262719,46.3280918 89.8462855,46.1401401 89.6239251,45.9482486 C88.3558715,44.8541766 87.570937,43.3935956 87.3730634,41.657845 C87.1723057,39.8966987 87.6371022,37.6235188 89.3193955,36.8549227 C91.3960221,35.906133 93.6829637,36.9951744 95.5286907,38.0103321 C96.3131161,35.1924496 97.9237586,32.6552523 100.448952,31.3626823 C103.242651,29.9327094 106.448384,29.7653651 109.319333,28.5384358 C110.067452,28.2187178 110.829427,27.8557848 111.380238,27.204348 C111.610403,26.9320876 111.880436,26.5789129 111.972332,26.2188285 C112.09307,25.7458277 111.793347,25.3492561 111.561825,24.9805046 C110.334206,23.025285 105.678747,19.0751702 103.256166,18.3232905 Z" id="hair" fill="#1F3D5A"></path>
                    <g id="Group-20" transform="translate(0.000000, 58.000000)">
                        <path d="M139.627098,66.807972 L162.312714,85.9906408 C168.676181,88.188588 173.942635,90.7383252 178.112076,93.6398522 C179.074498,94.6457775 180.184193,96.6244005 175.944085,96.000091 C171.703978,95.3757816 167.215871,94.9093017 166.525978,96.3185672 C165.836085,97.7278328 168.294246,99.6421493 166.968017,101.516041 C166.083864,102.765303 162.568195,99.2329977 156.421009,90.9191265 L133.426989,79.4731269 L139.627098,66.807972 Z M36.9015812,58.507185 C26.0931405,87.624595 19.7547025,103.552369 17.8862672,106.290508 C16.5161238,108.298415 7.70188953,113.746492 1.69858822,116.723791 C-0.711055522,117.918839 -0.0724351251,119.969879 0.685681583,120.597113 C6.85203329,125.698892 11.9898739,121.408475 18.2159464,119.51588 C25.0371435,117.44238 23.3142735,125.755696 28.708928,124.201917 C27.6414666,120.499712 24.9108617,113.506186 27.2326721,109.490986 C28.2645878,107.706453 35.9244306,91.3545356 50.2122004,60.435234 L36.9015812,58.507185 Z" id="Arms-[skin]-Copy" fill="#FFB30F"></path>
                        <path d="M88.9999995,7.29992377 L96.9793086,3.87095833 C110.55451,30.6663532 129.527635,56.0814768 159.285726,76.347256 L153.451877,88.7660655 C127.789151,76.5607379 103.709294,67.4420273 92.4508569,46.7434052 C88.6722345,39.7964126 89.4987782,15.9581021 88.9999995,7.29992377 Z" id="Coat-Back-Copy" fill="#1F3D5A" transform="translate(124.142863, 46.318512) rotate(5.000000) translate(-124.142863, -46.318512) "></path>
                        <path d="M64.2061717,82.8412038 C87.8324601,85.339762 106.428941,85.339762 119.995614,82.8412038 C121.676433,82.5316492 121.941605,79.7247934 121.162127,77.8198258 C109.023624,48.1545217 100.699835,22.2698763 100.699835,1.66502436 C98.4725728,2.78499123 94.5746535,2.95283227 89.0060773,2.16854747 C74.0406131,23.4025099 67.1615221,47.7660523 64.2061717,82.8412038 Z" id="Shirt-Copy" fill="#777777"></path>
                        <path d="M85.3076011,-8.8817842e-16 L85.2850742,0.388 L91.5224596,0.388782813 C92.9601182,8.82233299 97.4636219,121.967791 111.273348,160.844825 L111.694679,162 L35.1867638,162 C36.8454197,127.431197 49.9293746,85.905681 63.1836356,51.1566006 C51.4634177,61.8537096 41.2486259,79.9791147 32.5388405,105.532625 L32.5388405,105.532625 L18.2080742,101.863463 C28.8632479,56.0684148 50.7700633,22.4086317 83.9285202,0.884113893 L84.1449821,0.388782813 L84.7000742,0.388 L85.3076011,-8.8817842e-16 Z" id="Coat-Front-Copy" fill="#1F3D5A"></path>
                    </g>
                </g>
            </g>
        </g>
    </g>
</svg>