<?xml version="1.0" encoding="UTF-8"?>
<svg width="22px" height="22px" viewBox="0 0 22 22" version="1.1" xmlns="http://www.w3.org/2000/svg" xmlns:xlink="http://www.w3.org/1999/xlink">
    <title>Icon/Icon_blue_green/ic_Referrals-Outbound</title>
    <g id="Symbol" stroke="none" stroke-width="1" fill="none" fill-rule="evenodd">
        <g id="Group-2" transform="translate(1.500000, 0.500000)">
            <path d="M4,6 C2.34314575,6 1,4.65685425 1,3 C1,1.34314575 2.34314575,0 4,0 C5.65685425,0 7,1.34314575 7,3 C7,4.65685425 5.65685425,6 4,6 Z M4,4 C4.55228475,4 5,3.55228475 5,3 C5,2.44771525 4.55228475,2 4,2 C3.44771525,2 3,2.44771525 3,3 C3,3.55228475 3.44771525,4 4,4 Z M3,6 L5,6 C6.65685425,6 8,7.34314575 8,9 L8,10 C8,11.6568542 6.65685425,13 5,13 L3,13 C1.34314575,13 0,11.6568542 0,10 L0,9 C0,7.34314575 1.34314575,6 3,6 Z M3,8 C2.44771525,8 2,8.44771525 2,9 L2,10 C2,10.5522847 2.44771525,11 3,11 L5,11 C5.55228475,11 6,10.5522847 6,10 L6,9 C6,8.44771525 5.55228475,8 5,8 L3,8 Z" id="Shape" fill="#B5B5BE"></path>
            <path d="M15,14 C13.3431458,14 12,12.6568542 12,11 C12,9.34314575 13.3431458,8 15,8 C16.6568542,8 18,9.34314575 18,11 C18,12.6568542 16.6568542,14 15,14 Z M16,14 C17.6568542,14 19,15.3431458 19,17 L19,18 C19,19.6568542 17.6568542,21 16,21 L14,21 C12.3431458,21 11,19.6568542 11,18 L11,17 C11,15.3431458 12.3431458,14 14,14 L16,14 Z M16,16 L14,16 C13.4477153,16 13,16.4477153 13,17 L13,18 C13,18.5522847 13.4477153,19 14,19 L16,19 C16.5522847,19 17,18.5522847 17,18 L17,17 C17,16.4477153 16.5522847,16 16,16 Z M15,10 C15.5522847,10 16,10.4477153 16,11 C16,11.5522847 15.5522847,12 15,12 C14.4477153,12 14,11.5522847 14,11 C14,10.4477153 14.4477153,10 15,10 Z" id="Shape" fill="#4394AD"></path>
            <g id="Group-4" transform="translate(8.500000, 0.000000)" fill="#5C63AB" fill-rule="nonzero">
                <path d="M3.51120167,4.51300574 C3.90917082,4.91097489 3.92269168,5.54268949 3.54140137,5.92397981 C3.18734608,6.2780351 2.61736372,6.29166646 2.2191077,5.97317102 L2.13042731,5.89378011 L0.675688714,4.43904151 C0.287075838,4.05042863 0.0694391495,3.53622075 0.0581517967,3.00885916 C0.0481185943,2.5400933 0.201721389,2.08871252 0.497475774,1.73269635 L0.615005063,1.6038128 L2.00877576,0.210042107 C2.39006607,-0.171248205 3.02178067,-0.157727338 3.41974982,0.240241807 C3.7892926,0.609784585 3.82734681,1.18087319 3.52561533,1.56585422 L3.44994952,1.65121587 L3.01,2.09 L3.89496968,2.09065604 C6.16211532,2.09065604 8,3.85151522 8,6.02364509 C8,6.56287102 7.54374962,7 6.98093626,7 C6.45832385,7 6.02759483,6.62308776 5.96872851,6.13750869 L5.96187252,6.02364509 C5.96187252,4.97967971 5.11870246,4.12439382 4.04922506,4.04879752 L3.89496968,4.04336587 L3.041,4.043 L3.51120167,4.51300574 Z" id="Combined-Shape"></path>
            </g>
        </g>
    </g>
</svg>