<?xml version="1.0" encoding="UTF-8"?>
<svg width="74px" height="74px" viewBox="0 0 74 74" version="1.1" xmlns="http://www.w3.org/2000/svg" xmlns:xlink="http://www.w3.org/1999/xlink">
    <title>Departments@3x</title>
    <g id="Law-Firm-Info" stroke="none" stroke-width="1" fill="none" fill-rule="evenodd">
        <g id="Firm-Info/Departments---Details" transform="translate(-120.000000, -137.000000)">
            <g id="Departments" transform="translate(120.000000, 137.000000)">
                <circle id="Oval" stroke="#3D6083" stroke-width="3" fill="#FFFFFF" cx="37" cy="37" r="35.5"></circle>
                <g id="icon/Associated-Cases-(Active)" transform="translate(17.000000, 17.000000)" fill="#3D6083">
                    <g id="Group-11-Copy" transform="translate(0.000000, 0.000000)">
                        <path d="M5.45683901,12.0083686 C4.78365924,13.3811797 4.34231224,14.8521531 4.1497601,16.3644218 C4.08616888,16.8910317 4.23762514,17.4213237 4.57062656,17.8387505 C4.90328663,18.2564784 5.39081989,18.5273412 5.92654369,18.5925926 L6.17168007,18.5925926 C6.67323462,18.5962329 7.15868482,18.4181237 7.53547434,18.0921402 C7.91223761,17.7664923 8.15361046,17.31584 8.213783,16.8261808 C8.47020118,14.5903838 9.48357682,12.5044544 11.0907745,10.9024544 C12.6979722,9.30079848 14.8064181,8.27650268 17.0769579,7.99354376 C17.8065467,7.90751186 18.4342754,7.44542592 18.7231911,6.78135429 C19.0120893,6.11695574 18.9187541,5.35176221 18.4780547,4.77371388 C18.0373554,4.19568275 17.3166153,3.89257516 16.5871052,3.97858985 C15.0636677,4.20576569 13.5880182,4.67356414 12.2166969,5.3638755 C12.047461,3.85195089 11.3025118,2.45857824 10.1311822,1.46456567 C8.95985252,0.470122939 7.44936853,-0.051402438 5.90299982,0.00400210553 C4.35663111,0.059452246 2.88859612,0.688222409 1.79454989,1.76395668 C0.700153558,2.83935543 0.0605303693,4.28236849 0.00407758372,5.8023801 C-0.0523340657,7.3223917 0.478280983,8.80713023 1.48996741,9.95849515 C2.50130375,11.1098601 3.91875005,11.8421636 5.45689153,12.0084633 L5.45683901,12.0083686 Z" id="Path"></path>
                        <path d="M12.1060035,34.001273 C13.4899554,34.6638931 14.9728663,35.098317 16.4974077,35.2878487 L16.7403214,35.2878487 C17.4632947,35.3309241 18.1544554,34.987665 18.5535005,34.3873147 C18.9525976,33.7869471 18.9986687,33.0207049 18.6747838,32.3769001 C18.350899,31.7334572 17.7058353,31.3104396 16.9828534,31.2673642 C14.7285651,31.0200167 12.623279,30.0275684 11.0045487,28.4492861 C9.3861654,26.8706593 8.34878687,24.7979577 8.05841455,22.563465 C7.97168447,21.8453207 7.50584852,21.2274387 6.83638768,20.943055 C6.16659727,20.6586885 5.39519389,20.7505597 4.81245447,21.1843461 C4.22973238,21.6181325 3.92416495,22.3275669 4.01087769,23.0456337 C4.23989715,24.5451741 4.71149198,25.9976762 5.40740549,27.3474866 C3.88321101,27.5140678 2.47853058,28.2473315 1.4764512,29.4002874 C0.473938174,30.5532432 -0.0518195893,32.0400333 0.00403458421,33.5621453 C0.0599347246,35.0842572 0.693807608,36.5292642 1.77827189,37.6061489 C2.86239793,38.6833783 4.31712161,39.3129681 5.84946872,39.3685354 C7.38181583,39.4240622 8.8786036,38.9017705 10.0393123,37.9059536 C11.200021,36.9104814 11.9382675,35.5152696 12.1059167,34.0012558 L12.1060035,34.001273 Z" id="Path"></path>
                        <path d="M34.5751537,27.3862712 C35.2443792,26.0160082 35.6831338,24.547765 35.8745549,23.0383032 C35.9615645,22.3224809 35.6549949,21.6154005 35.0703949,21.1830339 C34.4857948,20.7506673 33.7119141,20.659076 33.0402871,20.942523 C32.3686601,21.22597 31.9009835,21.8418627 31.8139739,22.5576935 C31.5641607,24.7896843 30.5618189,26.8741465 28.9678032,28.4768656 C27.3734395,30.0792412 25.2800757,31.1063588 23.023308,31.393859 C22.2980047,31.4367951 21.6509057,31.8584449 21.3259249,32.4998073 C21.0009441,33.1411697 21.0472245,33.9049344 21.4475991,34.5033779 C21.8479824,35.1021391 22.5416577,35.4442798 23.2669696,35.4013437 L23.5106661,35.4013437 L23.5103262,35.4013437 C25.0248152,35.1745895 26.4917969,34.7076593 27.8550631,34.0186292 C28.0233049,35.5277476 28.7638783,36.9185341 29.9283277,37.9107017 C31.092777,38.9032987 32.5943885,39.4238561 34.131674,39.3685543 C35.6689594,39.3132071 37.1283713,38.685604 38.2159912,37.6118664 C39.3039591,36.5384636 39.9398252,35.0981289 39.9959464,33.5809385 C40.0520267,32.0637482 39.5245284,30.5817654 38.5187845,29.4325375 C37.5133887,28.2833096 36.1042684,27.5523653 34.5751619,27.3863743 L34.5751537,27.3862712 Z" id="Path"></path>
                        <path d="M33.6896576,0.0080769256 C32.2022188,0 30.7646038,0.548339817 29.6570932,1.54589776 C28.5494971,2.54381696 27.8509359,3.92001995 27.6970983,5.40674925 C26.3310516,4.74519127 24.8673262,4.31146369 23.3625089,4.12223578 C22.6488893,4.03622309 21.9439845,4.3392802 21.5129483,4.91718224 C21.0819121,5.49508428 20.9906026,6.26009832 21.2731774,6.92403026 C21.5557523,7.58796219 22.1697499,8.05028038 22.8833781,8.13629307 C25.108501,8.3832441 27.1865494,9.37410165 28.7843369,10.9498541 C30.381782,12.5259506 31.4057392,14.5953298 31.6923547,16.8262409 C31.7512102,17.3157735 31.9872999,17.7663595 32.3558167,18.0922616 C32.7243334,18.4178368 33.1991923,18.5959089 33.6897604,18.5925926 L33.9295312,18.5925926 C34.4535463,18.5270282 34.9303742,18.256219 35.2557702,17.8389284 C35.5814829,17.4212938 35.7296276,16.8914127 35.6674248,16.364585 C35.4497237,14.8620293 34.9909248,13.4048884 34.3090828,12.0498445 C36.4499674,11.9386301 38.3694698,10.6884357 39.3438599,8.76992273 C40.3186781,6.85140975 40.2006247,4.55633321 39.0341987,2.74903463 C37.8681323,0.941736044 35.8309189,-0.10314608 33.6896919,0.00806832433 L33.6896576,0.0080769256 Z" id="Path"></path>
                        <g id="noun-law-2625023" transform="translate(15.454545, 12.527629)" fill-rule="nonzero">
                            <path d="M1.79906578,0.65420839 L6.29226559,0.65420839 L6.29226559,4.0529865 L4.54058438,4.0529865 L5.01389429,10.0976025 C5.04203066,10.4572853 4.75066588,10.7542719 4.42917708,10.7542719 L3.66274958,10.7542719 C3.34102861,10.7542719 3.04966711,10.4571681 3.07803236,10.0976025 L3.55113392,4.0529865 L1.79924436,4.0529865 L1.79924436,0.65420839 L1.79906578,0.65420839 Z M0.802323094,12.5881648 L1.29563453,12.5881648 L1.29563453,11.8893659 C1.29563453,11.5659532 1.56397642,11.3018088 1.89255505,11.3018088 L6.19705,11.3018088 C6.52585484,11.3018088 6.79397052,11.5659414 6.79397052,11.8893659 L6.79397052,12.5881648 L7.2883237,12.5881648 C7.729905,12.5881648 8.09079561,12.9433943 8.09079561,13.3780489 L8.09079561,14.3172906 L0,14.3172906 L0,13.3780489 C0,12.9433943 0.360652505,12.5881648 0.802471915,12.5881648 L0.802323094,12.5881648 Z M7.32871369,8.8817842e-16 L7.32836491,8.8817842e-16 C6.93526945,8.8817842e-16 6.61334014,0.316674361 6.61334014,0.703808695 L6.61334014,4.00326901 C6.61334014,4.39019826 6.9351504,4.70707771 7.32836491,4.70707771 L7.32871369,4.70707771 C7.72204725,4.70707771 8.04373845,4.39031545 8.04373845,4.00326901 L8.04373845,0.703808695 C8.04373845,0.316645064 7.72201749,8.8817842e-16 7.32871369,8.8817842e-16 Z M0.761248533,8.8817842e-16 L0.761829887,8.8817842e-16 C1.15492534,8.8817842e-16 1.47685466,0.316674361 1.47685466,0.703808695 L1.47685466,4.00326901 C1.47685466,4.39019826 1.1550444,4.70707771 0.761829887,4.70707771 L0.761248533,4.70707771 C0.368153077,4.70707771 0.0464321126,4.39031545 0.0464321126,4.00326901 L0.0464321126,0.703808695 C0.0464321126,0.316645064 0.368153077,8.8817842e-16 0.761248533,8.8817842e-16 L0.761248533,8.8817842e-16 Z" id="Shape"></path>
                        </g>
                    </g>
                </g>
            </g>
        </g>
    </g>
</svg>