<?xml version="1.0" encoding="UTF-8"?>
<svg width="50px" height="50px" viewBox="0 0 50 50" version="1.1" xmlns="http://www.w3.org/2000/svg" xmlns:xlink="http://www.w3.org/1999/xlink">
    <title>Law offices@3x</title>
    <g id="Law-Firm-Info" stroke="none" stroke-width="1" fill="none" fill-rule="evenodd">
        <g id="Firm-Info---Blanked" transform="translate(-254.000000, -347.000000)" fill="#3D6083">
            <g id="Group" transform="translate(137.000000, 145.000000)">
                <g id="Group-2" transform="translate(42.000000, 171.000000)">
                    <g id="Group-21" transform="translate(22.000000, 31.000000)">
                        <g id="Law-offices" transform="translate(53.000000, 0.000000)">
                            <path d="M11.5374834,-4.66128138e-16 L38.4625166,4.66128138e-16 C42.4743509,-2.70833872e-16 43.929139,0.41771525 45.3958057,1.20209717 C46.8624723,1.98647908 48.0135209,3.13752767 48.7979028,4.60419433 C49.5822847,6.070861 50,7.52564907 50,11.5374834 L50,38.4625166 C50,42.4743509 49.5822847,43.929139 48.7979028,45.3958057 C48.0135209,46.8624723 46.8624723,48.0135209 45.3958057,48.7979028 C43.929139,49.5822847 42.4743509,50 38.4625166,50 L11.5374834,50 C7.52564907,50 6.070861,49.5822847 4.60419433,48.7979028 C3.13752767,48.0135209 1.98647908,46.8624723 1.20209717,45.3958057 C0.41771525,43.929139 1.80555915e-16,42.4743509 -3.10752092e-16,38.4625166 L3.10752092e-16,11.5374834 C-1.80555915e-16,7.52564907 0.41771525,6.070861 1.20209717,4.60419433 C1.98647908,3.13752767 3.13752767,1.98647908 4.60419433,1.20209717 C6.070861,0.41771525 7.52564907,2.70833872e-16 11.5374834,-4.66128138e-16 Z" id="Rectangle" fill-opacity="0.1"></path>
                            <g id="Icon/Messaging-Copy-21" transform="translate(7.583333, 7.583333)" fill-rule="nonzero">
                                <g id="Group-2" transform="translate(0.000000, 0.000000)">
                                    <path d="M33.5892857,14.9285714 L27.3690476,14.9285714 L27.3690476,2.48809524 L28.6130952,2.48809524 C29.0576752,2.48809524 29.4683602,2.25095133 29.6905116,1.86607143 C29.9126629,1.48119153 29.9126629,1.0068966 29.6905116,0.62202381 C29.4683602,0.23715102 29.057661,0 28.6130952,0 L6.2202381,0 C5.77565813,0 5.36497313,0.237143912 5.14282177,0.62202381 C4.92067041,1.00690371 4.92067041,1.48119864 5.14282177,1.86607143 C5.36497313,2.25094422 5.77567235,2.48809524 6.2202381,2.48809524 L7.46428571,2.48809524 L7.46428571,14.9285714 L1.24404762,14.9285714 C0.914154626,14.9285714 0.597583605,15.0596443 0.364328231,15.2928997 C0.131072857,15.526155 0,15.8427261 0,16.172619 L0,33.5892857 C0,33.9191787 0.131072857,34.2357497 0.364328231,34.4690051 C0.597583605,34.7022605 0.914154626,34.8333333 1.24404762,34.8333333 L33.5892857,34.8333333 C33.9191787,34.8333333 34.2357497,34.7022605 34.4690051,34.4690051 C34.7022605,34.2357497 34.8333333,33.9191787 34.8333333,33.5892857 L34.8333333,16.172619 C34.8333333,15.8427261 34.7022605,15.526155 34.4690051,15.2928997 C34.2357497,15.0596443 33.9191787,14.9285714 33.5892857,14.9285714 Z M2.48809524,17.4166667 L7.46428571,17.4166667 L7.46428571,32.3452381 L2.48809524,32.3452381 L2.48809524,17.4166667 Z M14.9285714,32.3452381 L14.9285714,27.3690476 L19.9047619,27.3690476 L19.9047619,32.3452381 L14.9285714,32.3452381 Z M32.3452381,32.3452381 L27.3690476,32.3452381 L27.3690476,21.1488095 C27.3690476,20.7042296 27.1319037,20.2935446 26.7470238,20.0713932 C26.3621439,19.8492418 25.887849,19.8492418 25.5029762,20.0713932 C25.1181034,20.2935446 24.8809524,20.7042438 24.8809524,21.1488095 L24.8809524,32.3452381 L22.3928571,32.3452381 L22.3928571,26.125 C22.3928571,25.795107 22.2617843,25.478536 22.0285289,25.2452806 C21.7952735,25.0120252 21.4787025,24.8809524 21.1488095,24.8809524 L13.6845238,24.8809524 C13.3546308,24.8809524 13.0380598,25.0120252 12.8048044,25.2452806 C12.571549,25.478536 12.4404762,25.795107 12.4404762,26.125 L12.4404762,32.3452381 L9.95238095,32.3452381 L9.95238095,2.48809524 L24.8809524,2.48809524 L24.8809524,16.172619 C24.8809524,16.502512 25.0120252,16.8190831 25.2452806,17.0523384 C25.478536,17.2855938 25.795107,17.4166667 26.125,17.4166667 L32.3452381,17.4166667 L32.3452381,32.3452381 Z" id="Shape"></path>
                                    <g id="Group" transform="translate(13.086615, 3.566538)">
                                        <path d="M2.32222775,11.0916667 L1.16110558,11.0916667 C0.746160329,11.0916667 0.362850678,11.3406678 0.155507433,11.7447917 C-0.0518358111,12.1489156 -0.0518358111,12.6469252 0.155507433,13.0510417 C0.362850678,13.4551581 0.746173598,13.7041667 1.16110558,13.7041667 L2.32222775,13.7041667 C2.737173,13.7041667 3.12048266,13.4551656 3.3278259,13.0510417 C3.53516914,12.6469178 3.53516914,12.1489081 3.3278259,11.7447917 C3.12048266,11.3406752 2.73715973,11.0916667 2.32222775,11.0916667 Z" id="Path"></path>
                                        <path d="M7.27222775,11.0916667 L6.11110558,11.0916667 C5.69616033,11.0916667 5.31285068,11.3406678 5.10550743,11.7447917 C4.89816419,12.1489156 4.89816419,12.6469252 5.10550743,13.0510417 C5.31285068,13.4551581 5.6961736,13.7041667 6.11110558,13.7041667 L7.27222775,13.7041667 C7.687173,13.7041667 8.07048266,13.4551656 8.2778259,13.0510417 C8.48516914,12.6469178 8.48516914,12.1489081 8.2778259,11.7447917 C8.07048266,11.3406752 7.68715973,11.0916667 7.27222775,11.0916667 Z" id="Path"></path>
                                        <path d="M2.32222775,16.6375 L1.16110558,16.6375 C0.746160329,16.6375 0.362850678,16.8865011 0.155507433,17.290625 C-0.0518358111,17.6947489 -0.0518358111,18.1927586 0.155507433,18.596875 C0.362850678,19.0009914 0.746173598,19.25 1.16110558,19.25 L2.32222775,19.25 C2.737173,19.25 3.12048266,19.0009989 3.3278259,18.596875 C3.53516914,18.1927511 3.53516914,17.6947414 3.3278259,17.290625 C3.12048266,16.8865086 2.73715973,16.6375 2.32222775,16.6375 Z" id="Path"></path>
                                        <path d="M7.27222775,16.6375 L6.11110558,16.6375 C5.69616033,16.6375 5.31285068,16.8865011 5.10550743,17.290625 C4.89816419,17.6947489 4.89816419,18.1927586 5.10550743,18.596875 C5.31285068,19.0009914 5.6961736,19.25 6.11110558,19.25 L7.27222775,19.25 C7.687173,19.25 8.07048266,19.0009989 8.2778259,18.596875 C8.48516914,18.1927511 8.48516914,17.6947414 8.2778259,17.290625 C8.07048266,16.8865086 7.68715973,16.6375 7.27222775,16.6375 Z" id="Path"></path>
                                        <path d="M2.32222775,0 L1.16110558,0 C0.746160329,0 0.362850678,0.249001107 0.155507433,0.653125 C-0.0518358111,1.05724889 -0.0518358111,1.55525857 0.155507433,1.959375 C0.362850678,2.36349143 0.746173598,2.6125 1.16110558,2.6125 L2.32222775,2.6125 C2.737173,2.6125 3.12048266,2.36349889 3.3278259,1.959375 C3.53516914,1.55525111 3.53516914,1.05724143 3.3278259,0.653125 C3.12048266,0.249008571 2.73715973,0 2.32222775,0 Z" id="Path-Copy-4"></path>
                                        <path d="M7.27222775,0 L6.11110558,0 C5.69616033,0 5.31285068,0.249001107 5.10550743,0.653125 C4.89816419,1.05724889 4.89816419,1.55525857 5.10550743,1.959375 C5.31285068,2.36349143 5.6961736,2.6125 6.11110558,2.6125 L7.27222775,2.6125 C7.687173,2.6125 8.07048266,2.36349889 8.2778259,1.959375 C8.48516914,1.55525111 8.48516914,1.05724143 8.2778259,0.653125 C8.07048266,0.249008571 7.68715973,0 7.27222775,0 Z" id="Path-Copy-3"></path>
                                        <path d="M2.32222775,5.54583333 L1.16110558,5.54583333 C0.746160329,5.54583333 0.362850678,5.79483444 0.155507433,6.19895833 C-0.0518358111,6.60308223 -0.0518358111,7.1010919 0.155507433,7.50520833 C0.362850678,7.90932476 0.746173598,8.15833333 1.16110558,8.15833333 L2.32222775,8.15833333 C2.737173,8.15833333 3.12048266,7.90933223 3.3278259,7.50520833 C3.53516914,7.10108444 3.53516914,6.60307476 3.3278259,6.19895833 C3.12048266,5.7948419 2.73715973,5.54583333 2.32222775,5.54583333 Z" id="Path-Copy-2"></path>
                                        <path d="M7.27222775,5.54583333 L6.11110558,5.54583333 C5.69616033,5.54583333 5.31285068,5.79483444 5.10550743,6.19895833 C4.89816419,6.60308223 4.89816419,7.1010919 5.10550743,7.50520833 C5.31285068,7.90932476 5.6961736,8.15833333 6.11110558,8.15833333 L7.27222775,8.15833333 C7.687173,8.15833333 8.07048266,7.90933223 8.2778259,7.50520833 C8.48516914,7.10108444 8.48516914,6.60307476 8.2778259,6.19895833 C8.07048266,5.7948419 7.68715973,5.54583333 7.27222775,5.54583333 Z" id="Path-Copy"></path>
                                    </g>
                                </g>
                            </g>
                        </g>
                    </g>
                </g>
            </g>
        </g>
    </g>
</svg>