<?xml version="1.0" encoding="UTF-8"?>
<svg width="50px" height="50px" viewBox="0 0 50 50" version="1.1" xmlns="http://www.w3.org/2000/svg" xmlns:xlink="http://www.w3.org/1999/xlink">
    <title>Group 9 Copy 2@3x</title>
    <g id="Law-Firm-Info" stroke="none" stroke-width="1" fill="none" fill-rule="evenodd">
        <g id="Firm-Info---Blanked" transform="translate(-1374.000000, -347.000000)">
            <g id="Group" transform="translate(137.000000, 145.000000)">
                <g id="Group-2" transform="translate(42.000000, 171.000000)">
                    <g id="Group-22-Copy-4" transform="translate(1120.000000, 0.000000)">
                        <g id="Group-21" transform="translate(27.000000, 31.000000)">
                            <g id="Group-9-Copy-2" transform="translate(48.000000, 0.000000)">
                                <path d="M11.5374834,-4.66128138e-16 L38.4625166,4.66128138e-16 C42.4743509,-2.70833872e-16 43.929139,0.41771525 45.3958057,1.20209717 C46.8624723,1.98647908 48.0135209,3.13752767 48.7979028,4.60419433 C49.5822847,6.070861 50,7.52564907 50,11.5374834 L50,38.4625166 C50,42.4743509 49.5822847,43.929139 48.7979028,45.3958057 C48.0135209,46.8624723 46.8624723,48.0135209 45.3958057,48.7979028 C43.929139,49.5822847 42.4743509,50 38.4625166,50 L11.5374834,50 C7.52564907,50 6.070861,49.5822847 4.60419433,48.7979028 C3.13752767,48.0135209 1.98647908,46.8624723 1.20209717,45.3958057 C0.41771525,43.929139 1.80555915e-16,42.4743509 -3.10752092e-16,38.4625166 L3.10752092e-16,11.5374834 C-1.80555915e-16,7.52564907 0.41771525,6.070861 1.20209717,4.60419433 C1.98647908,3.13752767 3.13752767,1.98647908 4.60419433,1.20209717 C6.070861,0.41771525 7.52564907,2.70833872e-16 11.5374834,-4.66128138e-16 Z" id="Rectangle" fill-opacity="0.1" fill="#3D6083"></path>
                                <g id="Icon/Messaging-Copy-28" transform="translate(7.520000, 7.583333)">
                                    <g id="admin_panel_settings_black_24dp-(1)" transform="translate(0.000000, 0.000000)">
                                        <rect id="Rectangle" x="0" y="0" width="33.44" height="34.8333333"></rect>
                                        <g id="Group" transform="translate(4.560000, 4.750000)" fill="#3D6083" fill-rule="nonzero">
                                            <ellipse id="Oval" cx="19.152" cy="17.8125" rx="1.53216" ry="1.596"></ellipse>
                                            <path d="M20.52,11.52825 L20.52,4.65975 L10.26,0 L0,4.65975 L0,11.6565 C0,18.126 4.3776,24.18225 10.26,25.65 C11.0124,25.46475 11.73744,25.194 12.4488,24.86625 C13.92624,27.06075 16.37496,28.5 19.152,28.5 C23.68008,28.5 27.36,24.66675 27.36,19.95 C27.36,15.71775 24.40512,12.21225 20.52,11.52825 Z M10.944,19.95 C10.944,20.748 11.05344,21.53175 11.25864,22.2585 C10.93032,22.41525 10.602,22.572 10.26,22.686 C5.92344,21.261 2.736,16.644 2.736,11.6565 L2.736,6.5265 L10.26,3.1065 L17.784,6.5265 L17.784,11.52825 C13.89888,12.21225 10.944,15.71775 10.944,19.95 Z M19.152,25.65 C16.12872,25.65 13.68,23.09925 13.68,19.95 C13.68,16.80075 16.12872,14.25 19.152,14.25 C22.17528,14.25 24.624,16.80075 24.624,19.95 C24.624,23.09925 22.17528,25.65 19.152,25.65 Z" id="Shape"></path>
                                            <path d="M19.152,20.6625 C18.15336,20.6625 16.15608,21.1755 16.08768,22.2015 C16.77168,23.21325 17.89344,23.86875 19.152,23.86875 C20.41056,23.86875 21.53232,23.21325 22.21632,22.2015 C22.14792,21.1755 20.15064,20.6625 19.152,20.6625 Z" id="Path"></path>
                                        </g>
                                    </g>
                                    <path d="M17.8802851,14.2505472 L14.9454686,14.2505472 C14.5943255,13.1859396 13.5556814,12.4696051 12.4024537,12.7149793 C11.5560142,12.8970312 10.8685131,13.6252387 10.6910935,14.5275827 C10.3880016,16.0631506 11.4746969,17.4166667 12.8570916,17.4166667 C13.8218108,17.4166667 14.6423767,16.7557392 14.9454686,15.833607 L15.074837,15.833607 L15.5516523,16.3441437 C15.6958058,16.498492 15.9286691,16.498492 16.0728225,16.3441437 L16.553334,15.833607 L17.0301493,16.3441437 C17.1743028,16.498492 17.4108623,16.498492 17.5550157,16.3441437 L18.5123426,15.3111973 C18.656496,15.1568489 18.656496,14.9035594 18.5086463,14.7492111 L18.1427183,14.3653191 C18.0687935,14.2901237 17.9763874,14.2505472 17.8802851,14.2505472 Z M12.92,15.8333333 C12.502,15.8333333 12.16,15.4770833 12.16,15.0416667 C12.16,14.60625 12.502,14.25 12.92,14.25 C13.338,14.25 13.68,14.60625 13.68,15.0416667 C13.68,15.4770833 13.338,15.8333333 12.92,15.8333333 Z" id="Shape" fill="#3D6083" fill-rule="nonzero" transform="translate(14.630000, 15.041667) rotate(-40.000000) translate(-14.630000, -15.041667) "></path>
                                </g>
                            </g>
                        </g>
                    </g>
                </g>
            </g>
        </g>
    </g>
</svg>