<?xml version="1.0" encoding="UTF-8"?>
<svg width="40px" height="40px" viewBox="0 0 40 40" version="1.1" xmlns="http://www.w3.org/2000/svg" xmlns:xlink="http://www.w3.org/1999/xlink">
    <title>Speciality@3x</title>
    <g id="Law-Firm-Info" stroke="none" stroke-width="1" fill="none" fill-rule="evenodd">
        <g id="Firm-Info/Departments---Details" transform="translate(-120.000000, -356.000000)" fill="#3D6083">
            <g id="Speciality" transform="translate(120.000000, 356.000000)">
                <rect id="Rectangle" fill-opacity="0.1" x="0" y="0" width="40" height="40" rx="5"></rect>
                <path d="M30.0004896,24.1454581 L30.0004896,21.0001136 C30.0004896,20.4500824 29.5505602,20.0001786 29.0005572,20.0001786 L21.0002045,20.0001786 L21.0002045,17.8851271 C23.0000694,17.4299642 24.5001914,15.6399831 24.5001914,13.499931 C24.5001914,11.0197813 22.4800581,9 20.000272,9 C17.5201288,9 15.5003527,11.0201385 15.5003527,13.499931 C15.5003527,15.6348044 17.0004746,17.4300267 19.0003395,17.8851271 L19.0003395,20.0001786 L10.9999869,20.0001786 C10.4499571,20.0001786 10.0000544,20.4501092 10.0000544,21.0001136 L10.0000544,24.1451009 C8.55502296,24.5751471 7.5,25.915144 7.5,27.5 C7.5,29.4301403 9.07021274,31 10.9999869,31 C12.9301182,31 14.4999738,29.4297832 14.4999738,27.5 C14.4999738,25.9200549 13.4449508,24.5800222 11.9999194,24.1451009 L11.9999194,22.000138 L18.9998931,22.000138 L18.9998931,24.1451009 C17.5548617,24.5751471 16.4998387,25.915144 16.4998387,27.5 C16.4998387,29.4301403 18.0700514,31 19.9998256,31 C21.9299569,31 23.4998125,29.4297832 23.4998125,27.5 C23.4998125,25.9200549 22.4447895,24.5800222 20.9997581,24.1451009 L21.0001068,22.000138 L28.0000806,22.000138 L28.0000806,24.1451009 C26.5550491,24.5751471 25.5000262,25.915144 25.5000262,27.5 C25.5000262,29.4301403 27.0702389,31 29.000013,31 C30.9301443,31 32.5,29.4297832 32.5,27.5 C32.5003487,25.920412 31.4453341,24.5803794 30.0003027,24.1454581 L30.0004896,24.1454581 Z M17.5,13.5 C17.5,12.1199107 18.6199107,11 20,11 C21.3800893,11 22.5,12.1199107 22.5,13.5 C22.5,14.8800893 21.3800893,16 20,16 C18.6199107,16 17.5,14.8800893 17.5,13.5 Z M12.5,27.5 C12.5,28.3247991 11.8251652,29 11,29 C10.1752009,29 9.5,28.3251652 9.5,27.5 C9.5,26.6752009 10.1748348,26 11,26 C11.8247991,26 12.5,26.675183 12.5,27.5 Z M21.5,27.5 C21.5,28.3247991 20.8251652,29 20,29 C19.1752009,29 18.5,28.3251652 18.5,27.5 C18.5,26.6752009 19.1748348,26 20,26 C20.8247991,26 21.5,26.675183 21.5,27.5 Z M29,29 C28.1752009,29 27.5,28.3251652 27.5,27.5 C27.5,26.6752009 28.1748348,26 29,26 C29.8247991,26 30.5,26.6748348 30.5,27.5 C30.4996513,28.3247991 29.824817,29 29,29 Z" id="Care" fill-rule="nonzero"></path>
            </g>
        </g>
    </g>
</svg>