<?xml version="1.0" encoding="UTF-8"?>
<svg width="50px" height="50px" viewBox="0 0 50 50" version="1.1" xmlns="http://www.w3.org/2000/svg" xmlns:xlink="http://www.w3.org/1999/xlink">
    <title>Staff@3x</title>
    <g id="Law-Firm-Info" stroke="none" stroke-width="1" fill="none" fill-rule="evenodd">
        <g id="Firm-Info---Blanked" transform="translate(-702.000000, -347.000000)" fill="#3D6083">
            <g id="Group" transform="translate(137.000000, 145.000000)">
                <g id="Group-2" transform="translate(42.000000, 171.000000)">
                    <g id="Group-22-Copy-4" transform="translate(448.000000, 0.000000)">
                        <g id="Group-21" transform="translate(27.000000, 31.000000)">
                            <g id="Staff" transform="translate(48.000000, 0.000000)">
                                <path d="M11.5374834,-4.66128138e-16 L38.4625166,4.66128138e-16 C42.4743509,-2.70833872e-16 43.929139,0.41771525 45.3958057,1.20209717 C46.8624723,1.98647908 48.0135209,3.13752767 48.7979028,4.60419433 C49.5822847,6.070861 50,7.52564907 50,11.5374834 L50,38.4625166 C50,42.4743509 49.5822847,43.929139 48.7979028,45.3958057 C48.0135209,46.8624723 46.8624723,48.0135209 45.3958057,48.7979028 C43.929139,49.5822847 42.4743509,50 38.4625166,50 L11.5374834,50 C7.52564907,50 6.070861,49.5822847 4.60419433,48.7979028 C3.13752767,48.0135209 1.98647908,46.8624723 1.20209717,45.3958057 C0.41771525,43.929139 1.80555915e-16,42.4743509 -3.10752092e-16,38.4625166 L3.10752092e-16,11.5374834 C-1.80555915e-16,7.52564907 0.41771525,6.070861 1.20209717,4.60419433 C1.98647908,3.13752767 3.13752767,1.98647908 4.60419433,1.20209717 C6.070861,0.41771525 7.52564907,2.70833872e-16 11.5374834,-4.66128138e-16 Z" id="Rectangle" fill-opacity="0.1"></path>
                                <g id="Component/icon/ic_Notification" transform="translate(8.280000, 7.583333)">
                                    <path d="M16.72,9.5 C14.2015815,9.5 12.16,7.37335256 12.16,4.75 C12.16,2.12664744 14.2015815,1.11022302e-15 16.72,1.11022302e-15 C19.2384185,1.11022302e-15 21.28,2.12664744 21.28,4.75 C21.28,7.37335256 19.2384185,9.5 16.72,9.5 Z M16.72,6.33333333 C17.5594728,6.33333333 18.24,5.62445085 18.24,4.75 C18.24,3.87554915 17.5594728,3.16666667 16.72,3.16666667 C15.8805272,3.16666667 15.2,3.87554915 15.2,4.75 C15.2,5.62445085 15.8805272,6.33333333 16.72,6.33333333 Z M15.2,9.5 L18.24,9.5 C20.7584185,9.5 22.8,11.6266474 22.8,14.25 L22.8,15.8333333 C22.8,18.4566859 20.7584185,20.5833333 18.24,20.5833333 L15.2,20.5833333 C12.6815815,20.5833333 10.64,18.4566859 10.64,15.8333333 L10.64,14.25 C10.64,11.6266474 12.6815815,9.5 15.2,9.5 Z M15.2,12.6666667 C14.3605272,12.6666667 13.68,13.3755491 13.68,14.25 L13.68,15.8333333 C13.68,16.7077842 14.3605272,17.4166667 15.2,17.4166667 L18.24,17.4166667 C19.0794728,17.4166667 19.76,16.7077842 19.76,15.8333333 L19.76,14.25 C19.76,13.3755491 19.0794728,12.6666667 18.24,12.6666667 L15.2,12.6666667 Z M27.36,23.75 C24.8415815,23.75 22.8,21.6233526 22.8,19 C22.8,16.3766474 24.8415815,14.25 27.36,14.25 C29.8784185,14.25 31.92,16.3766474 31.92,19 C31.92,21.6233526 29.8784185,23.75 27.36,23.75 Z M27.36,20.5833333 C28.1994728,20.5833333 28.88,19.8744509 28.88,19 C28.88,18.1255491 28.1994728,17.4166667 27.36,17.4166667 C26.5205272,17.4166667 25.84,18.1255491 25.84,19 C25.84,19.8744509 26.5205272,20.5833333 27.36,20.5833333 Z M25.84,23.75 L28.88,23.75 C31.3984185,23.75 33.44,25.8766474 33.44,28.5 L33.44,30.0833333 C33.44,32.7066859 31.3984185,34.8333333 28.88,34.8333333 L25.84,34.8333333 C23.3215815,34.8333333 21.28,32.7066859 21.28,30.0833333 L21.28,28.5 C21.28,25.8766474 23.3215815,23.75 25.84,23.75 Z M25.84,26.9166667 C25.0005272,26.9166667 24.32,27.6255491 24.32,28.5 L24.32,30.0833333 C24.32,30.9577842 25.0005272,31.6666667 25.84,31.6666667 L28.88,31.6666667 C29.7194728,31.6666667 30.4,30.9577842 30.4,30.0833333 L30.4,28.5 C30.4,27.6255491 29.7194728,26.9166667 28.88,26.9166667 L25.84,26.9166667 Z M6.08,23.75 C3.56158154,23.75 1.52,21.6233526 1.52,19 C1.52,16.3766474 3.56158154,14.25 6.08,14.25 C8.59841846,14.25 10.64,16.3766474 10.64,19 C10.64,21.6233526 8.59841846,23.75 6.08,23.75 Z M6.08,20.5833333 C6.91947282,20.5833333 7.6,19.8744509 7.6,19 C7.6,18.1255491 6.91947282,17.4166667 6.08,17.4166667 C5.24052718,17.4166667 4.56,18.1255491 4.56,19 C4.56,19.8744509 5.24052718,20.5833333 6.08,20.5833333 Z M4.56,23.75 L7.6,23.75 C10.1184185,23.75 12.16,25.8766474 12.16,28.5 L12.16,30.0833333 C12.16,32.7066859 10.1184185,34.8333333 7.6,34.8333333 L4.56,34.8333333 C2.04158154,34.8333333 4.4408921e-16,32.7066859 4.4408921e-16,30.0833333 L4.4408921e-16,28.5 C4.4408921e-16,25.8766474 2.04158154,23.75 4.56,23.75 Z M4.56,26.9166667 C3.72052718,26.9166667 3.04,27.6255491 3.04,28.5 L3.04,30.0833333 C3.04,30.9577842 3.72052718,31.6666667 4.56,31.6666667 L7.6,31.6666667 C8.43947282,31.6666667 9.12,30.9577842 9.12,30.0833333 L9.12,28.5 C9.12,27.6255491 8.43947282,26.9166667 7.6,26.9166667 L4.56,26.9166667 Z" id="Shape"></path>
                                </g>
                            </g>
                        </g>
                    </g>
                </g>
            </g>
        </g>
    </g>
</svg>