<?xml version="1.0" encoding="UTF-8"?>
<svg width="25px" height="24px" viewBox="0 0 25 24" version="1.1" xmlns="http://www.w3.org/2000/svg" xmlns:xlink="http://www.w3.org/1999/xlink">
    <title>Icon/Select/Patient</title>
    <g id="Symbol" stroke="none" stroke-width="1" fill="none" fill-rule="evenodd">
        <g id="Icon/Select/Patient" fill="#5C63AB" fill-rule="nonzero">
            <g id="noun-disability-sign-4432606" transform="translate(4.000000, 2.000000)">
                <path d="M12.2505674,15.9039831 C11.2249723,17.1293757 9.73963144,17.8770176 8.14492986,17.9702036 C6.55022827,18.0634172 4.98787671,17.4942095 3.82642254,16.3968137 C2.66518919,15.2991858 2.00792062,13.7708698 2.01007361,12.1726229 C2.00295716,10.394025 2.82003871,8.7124797 4.2223515,7.61960229 C4.43217397,7.39045432 4.5190774,7.07434568 4.45589548,6.77010208 C4.39292887,6.46586402 4.18741789,6.21059967 3.90362648,6.08393968 C3.62005589,5.95727969 3.29295078,5.97475689 3.02443454,6.13097788 C1.2731721,7.47524194 0.179895875,9.50456366 0.0202987457,11.7072212 C-0.139491601,13.9098235 0.649744083,16.075748 2.18879921,17.6590807 C3.72785434,19.2421925 5.86985649,20.0912508 8.07473693,19.9922096 C10.2798934,19.8933839 12.337377,18.8557497 13.7282624,17.1412275 C13.9147939,16.9483265 14.0126942,16.6863784 13.9986777,16.4183873 C13.9844453,16.1501808 13.8595891,15.9001032 13.6538628,15.7279163 C13.4479213,15.555514 13.1798798,15.4767562 12.913787,15.5102026 C12.647468,15.5434313 12.4072387,15.6862727 12.2502251,15.9039864 L12.2505674,15.9039831 Z" id="Path"></path>
                <path d="M16.6285435,16.811201 C16.4679119,16.933834 16.2722494,17 16.0714029,17 C15.7791534,17 15.5039154,16.8600838 15.3285487,16.622402 L12.8214159,13.2240203 L6.78572574,13.2240203 C6.53949081,13.2240203 6.30319951,13.124561 6.12909571,12.9475647 C5.95499192,12.7705683 5.85715803,12.5303513 5.85715803,12.2800254 L5.85715803,5.50214184 C5.02436544,5.20271744 4.38057618,4.51957798 4.12211599,3.6609202 C3.86344355,2.80226241 4.02075884,1.86986514 4.54619021,1.14795177 C5.07140933,0.425822624 5.90237662,0 6.78573635,0 C7.66909609,0 8.5000846,0.425849595 9.0252825,1.14795177 C9.55070856,1.86986514 9.70801854,2.80226241 9.44935672,3.6609202 C9.19089122,4.51957798 8.54710727,5.20270665 7.71431468,5.50214184 L7.71431468,6.61594796 L11.4285855,6.61594796 C11.7604238,6.61594796 12.0669626,6.79589497 12.2327782,7.08794542 C12.3985939,7.37999587 12.3985939,7.73989529 12.2327782,8.03194035 C12.0669626,8.3239854 11.7604132,8.50393781 11.4285855,8.50393781 L7.71431468,8.50393781 L7.71431468,11.3359226 L13.285721,11.3359226 C13.5779704,11.3359226 13.8532085,11.4758388 14.0285751,11.7135205 L16.8142783,15.4895002 C16.9620638,15.6898861 17.0254876,15.9414796 16.9906637,16.1895129 C16.9558424,16.4373143 16.8256758,16.6608793 16.6285647,16.8110931 L16.6285435,16.811201 Z" id="Path"></path>
            </g>
        </g>
    </g>
</svg>