<?xml version="1.0" encoding="UTF-8"?>
<svg width="25px" height="24px" viewBox="0 0 25 24" version="1.1" xmlns="http://www.w3.org/2000/svg" xmlns:xlink="http://www.w3.org/1999/xlink">
    <title>Icon/Select/Permission</title>
    <g id="Symbol" stroke="none" stroke-width="1" fill="none" fill-rule="evenodd">
        <g id="Icon/Select/Permission">
            <g id="admin_panel_settings_black_24dp-(1)" transform="translate(1.000000, 1.000000)">
                <rect id="Rectangle" x="0" y="0" width="22" height="22"></rect>
                <g id="Group" transform="translate(3.000000, 3.000000)" fill="#5C63AB" fill-rule="nonzero">
                    <circle id="Oval" cx="12.6" cy="11.25" r="1.008"></circle>
                    <path d="M13.5,7.281 L13.5,2.943 L6.75,0 L0,2.943 L0,7.362 C0,11.448 2.88,15.273 6.75,16.2 C7.245,16.083 7.722,15.912 8.19,15.705 C9.162,17.091 10.773,18 12.6,18 C15.579,18 18,15.579 18,12.6 C18,9.927 16.056,7.713 13.5,7.281 Z M7.2,12.6 C7.2,13.104 7.272,13.599 7.407,14.058 C7.191,14.157 6.975,14.256 6.75,14.328 C3.897,13.428 1.8,10.512 1.8,7.362 L1.8,4.122 L6.75,1.962 L11.7,4.122 L11.7,7.281 C9.144,7.713 7.2,9.927 7.2,12.6 Z M12.6,16.2 C10.611,16.2 9,14.589 9,12.6 C9,10.611 10.611,9 12.6,9 C14.589,9 16.2,10.611 16.2,12.6 C16.2,14.589 14.589,16.2 12.6,16.2 Z" id="Shape"></path>
                    <path d="M12.6,13.05 C11.943,13.05 10.629,13.374 10.584,14.022 C11.034,14.661 11.772,15.075 12.6,15.075 C13.428,15.075 14.166,14.661 14.616,14.022 C14.571,13.374 13.257,13.05 12.6,13.05 Z" id="Path"></path>
                </g>
            </g>
            <path d="M12.7633455,10.0003456 L10.8325451,10.0003456 C10.6015299,9.32796185 9.91821143,8.87554005 9.15950903,9.03051326 C8.60264092,9.14549339 8.15033756,9.60541389 8.03361412,10.1753154 C7.83421156,11.1451478 8.54914267,12 9.45861286,12 C10.0932966,12 10.6331425,11.5825722 10.8325451,11.0001728 L10.9176559,11.0001728 L11.2313502,11.3226171 C11.326188,11.4201002 11.4793875,11.4201002 11.5742253,11.3226171 L11.8903513,11.0001728 L12.2040456,11.3226171 C12.2988834,11.4201002 12.4545147,11.4201002 12.5493525,11.3226171 L13.1791727,10.6702298 C13.2740105,10.5727467 13.2740105,10.4127743 13.176741,10.3152912 L12.9359989,10.0728331 C12.8873641,10.0253413 12.8265707,10.0003456 12.7633455,10.0003456 Z M9.5,11 C9.225,11 9,10.775 9,10.5 C9,10.225 9.225,10 9.5,10 C9.775,10 10,10.225 10,10.5 C10,10.775 9.775,11 9.5,11 Z" id="Shape" fill="#5C63AB" fill-rule="nonzero" transform="translate(10.625000, 10.500000) rotate(-40.000000) translate(-10.625000, -10.500000) "></path>
        </g>
    </g>
</svg>