<?xml version="1.0" encoding="UTF-8"?>
<svg width="25px" height="24px" viewBox="0 0 25 24" version="1.1" xmlns="http://www.w3.org/2000/svg" xmlns:xlink="http://www.w3.org/1999/xlink">
    <title>Icon/Select/Practice Calendar</title>
    <g id="Symbol" stroke="none" stroke-width="1" fill="none" fill-rule="evenodd">
        <g id="Group-59" transform="translate(0.500000, 0.000000)">
            <rect id="Icon-Spacing" opacity="0.2" x="0" y="0" width="24" height="24" rx="5"></rect>
            <g id="noun-doctor-1137135" transform="translate(4.500000, 2.000000)" fill="#5C63AB">
                <path d="M10.9,13.4 C12.3,12.3 13.3,10.7 13.3,8.7 L13.3,3.1 C13.3,2.7 13,2.3 12.5,2.3 L10.1,2.3 C9.9,1 8.8,0 7.5,0 C6.2,0 5,1 4.9,2.3 L2.4,2.3 C2,2.3 1.6,2.6 1.6,3.1 L1.6,8.7 C1.6,10.6 2.5,12.3 4,13.4 C1.7,14.3 0,16.5 0,19.1 C0,19.5 0.3,19.9 0.8,19.9 L14.2,19.9 C14.6,19.9 15,19.6 15,19.1 C14.9,16.5 13.2,14.3 10.9,13.4 L10.9,13.4 Z M7.4,1.6 C8,1.6 8.5,2.1 8.5,2.7 C8.5,3.3 8,3.8 7.4,3.8 C6.8,3.8 6.3,3.3 6.3,2.7 C6.3,2.1 6.8,1.6 7.4,1.6 Z M5.1,4 C5.5,4.8 6.4,5.4 7.4,5.4 C8.4,5.4 9.3,4.8 9.7,4 L11.6,4 L11.6,6.5 L3.1,6.5 L3.1,4 L5.1,4 Z M3.1,8.8 L3.1,8 L11.6,8 L11.6,8.7 C11.6,11 9.7,12.9 7.3,12.9 C5.1,13 3.1,11.1 3.1,8.8 L3.1,8.8 Z M1.6,18.4 C2,16.2 3.9,14.6 6.2,14.6 L8.7,14.6 C11,14.6 12.9,16.2 13.3,18.4 L1.6,18.4 Z" id="Shape"></path>
            </g>
        </g>
    </g>
</svg>