<?xml version="1.0" encoding="UTF-8"?>
<svg width="106px" height="42px" viewBox="0 0 106 42" version="1.1" xmlns="http://www.w3.org/2000/svg" xmlns:xlink="http://www.w3.org/1999/xlink">
    <title>Account</title>
    <g id="Side-panel-" stroke="none" stroke-width="1" fill="none" fill-rule="evenodd">
        <g id="Hover/Account" transform="translate(-122.000000, -841.000000)">
            <g id="Business-location" transform="translate(85.000000, 818.000000)">
                <g id="Account" transform="translate(37.000000, 23.000000)">
                    <g id="Group-15" transform="translate(32.000000, 0.000000)">
                        <rect id="Rectangle" fill="#EFF3F6" x="0" y="0" width="42" height="42" rx="10"></rect>
                        <g id="Group" transform="translate(9.000000, 9.000000)">
                            <g id="id_User" transform="translate(0.480000, 0.000000)">
                                <rect id="Icon-Spacing" fill="#4394AD" opacity="0" x="0" y="0" width="23.04" height="24" rx="5"></rect>
                                <g id="Account-Icon" transform="translate(4.320000, 2.500000)" fill="#5C63AB" fill-rule="nonzero">
                                    <path d="M7.2,9.5 C11.0984806,9.5 14.2732968,12.7274744 14.3963006,16.7572689 L14.4,17 C14.4,18.0351791 13.5608216,18.8743575 12.5256425,18.8743575 L1.87435751,18.8743575 C0.83917844,18.8743575 1.26772873e-16,18.0351791 0,17 L0,17 L0,17 C0,12.8578644 3.2235498,9.5 7.2,9.5 Z M7.2,11.5 C4.35506002,11.5 2.03564243,13.84378 1.92419252,16.7787929 L1.92192,16.874 L12.47712,16.874 L12.4758075,16.7787929 C12.3671438,13.9171553 10.1595309,11.6175585 7.41235886,11.5043672 L7.2,11.5 Z" id="Oval"></path>
                                    <path d="M6.96,0 C9.47841846,0 11.52,2.12664744 11.52,4.75 C11.52,7.37335256 9.47841846,9.5 6.96,9.5 C4.44158154,9.5 2.4,7.37335256 2.4,4.75 C2.4,2.12664744 4.44158154,0 6.96,0 Z M6.96,2 C5.50196826,2 4.32,3.23121694 4.32,4.75 C4.32,6.26878306 5.50196826,7.5 6.96,7.5 C8.41803174,7.5 9.6,6.26878306 9.6,4.75 C9.6,3.23121694 8.41803174,2 6.96,2 Z" id="Oval"></path>
                                </g>
                            </g>
                        </g>
                    </g>
                    <g id="Group-15-Copy" opacity="0.497827439" transform="translate(82.000000, 9.000000)">
                        <rect id="Rectangle" fill="#EFF3F6" opacity="0.3" x="0" y="0" width="24" height="24" rx="6"></rect>
                        <g id="id_User" transform="translate(5.000000, 5.000000)">
                            <rect id="Icon-Spacing" fill="#4394AD" opacity="0" x="0" y="0" width="14" height="14" rx="5"></rect>
                            <g id="Account-Icon" transform="translate(2.625000, 1.458333)" fill="#FFFFFF" fill-rule="nonzero">
                                <path d="M4.375,5.54166667 C6.74386841,5.54166667 8.67301022,7.42436007 8.74775209,9.77507355 L8.75,9.91666667 C8.75,10.5205211 8.26047924,11.0100419 7.65662479,11.0100419 L1.09337521,11.0100419 C0.489520757,11.0100419 7.39508426e-17,10.5205211 0,9.91666667 L0,9.91666667 L0,9.91666667 C0,7.50042089 1.95875422,5.54166667 4.375,5.54166667 Z M4.375,6.70833333 C2.64630383,6.70833333 1.2369355,8.07553834 1.1692142,9.78762917 L1.16783333,9.84316667 L7.58158333,9.84316667 L7.5807858,9.78762917 C7.51475753,8.11834061 6.17332606,6.77690914 4.5040375,6.71088087 L4.375,6.70833333 Z" id="Oval"></path>
                                <path d="M4.22916667,0 C5.75945566,0 7,1.24054434 7,2.77083333 C7,4.30112233 5.75945566,5.54166667 4.22916667,5.54166667 C2.69887767,5.54166667 1.45833333,4.30112233 1.45833333,2.77083333 C1.45833333,1.24054434 2.69887767,0 4.22916667,0 Z M4.22916667,1.16666667 C3.34320988,1.16666667 2.625,1.88487655 2.625,2.77083333 C2.625,3.65679012 3.34320988,4.375 4.22916667,4.375 C5.11512345,4.375 5.83333333,3.65679012 5.83333333,2.77083333 C5.83333333,1.88487655 5.11512345,1.16666667 4.22916667,1.16666667 Z" id="Oval"></path>
                            </g>
                        </g>
                    </g>
                    <g id="Group-15-Copy-2" opacity="0.497827439" transform="translate(0.000000, 9.000000)">
                        <rect id="Rectangle" fill="#EFF3F6" opacity="0.3" x="0" y="0" width="24" height="24" rx="6"></rect>
                        <g id="id_User" transform="translate(5.000000, 5.000000)">
                            <rect id="Icon-Spacing" fill="#4394AD" opacity="0" x="0" y="0" width="14" height="14" rx="5"></rect>
                            <g id="Account-Icon" transform="translate(2.625000, 1.458333)" fill="#FFFFFF" fill-rule="nonzero">
                                <path d="M4.375,5.54166667 C6.74386841,5.54166667 8.67301022,7.42436007 8.74775209,9.77507355 L8.75,9.91666667 C8.75,10.5205211 8.26047924,11.0100419 7.65662479,11.0100419 L1.09337521,11.0100419 C0.489520757,11.0100419 7.39508426e-17,10.5205211 0,9.91666667 L0,9.91666667 L0,9.91666667 C0,7.50042089 1.95875422,5.54166667 4.375,5.54166667 Z M4.375,6.70833333 C2.64630383,6.70833333 1.2369355,8.07553834 1.1692142,9.78762917 L1.16783333,9.84316667 L7.58158333,9.84316667 L7.5807858,9.78762917 C7.51475753,8.11834061 6.17332606,6.77690914 4.5040375,6.71088087 L4.375,6.70833333 Z" id="Oval"></path>
                                <path d="M4.22916667,0 C5.75945566,0 7,1.24054434 7,2.77083333 C7,4.30112233 5.75945566,5.54166667 4.22916667,5.54166667 C2.69887767,5.54166667 1.45833333,4.30112233 1.45833333,2.77083333 C1.45833333,1.24054434 2.69887767,0 4.22916667,0 Z M4.22916667,1.16666667 C3.34320988,1.16666667 2.625,1.88487655 2.625,2.77083333 C2.625,3.65679012 3.34320988,4.375 4.22916667,4.375 C5.11512345,4.375 5.83333333,3.65679012 5.83333333,2.77083333 C5.83333333,1.88487655 5.11512345,1.16666667 4.22916667,1.16666667 Z" id="Oval"></path>
                            </g>
                        </g>
                    </g>
                </g>
            </g>
        </g>
    </g>
</svg>