<?xml version="1.0" encoding="UTF-8"?>
<svg width="106px" height="42px" viewBox="0 0 106 42" version="1.1" xmlns="http://www.w3.org/2000/svg" xmlns:xlink="http://www.w3.org/1999/xlink">
    <title>Document Centre</title>
    <g id="Side-panel-" stroke="none" stroke-width="1" fill="none" fill-rule="evenodd">
        <g id="Hover/Document-Centre" transform="translate(-122.000000, -783.000000)">
            <g id="Business-location" transform="translate(85.000000, 760.000000)">
                <g id="Document-Centre" transform="translate(37.000000, 23.000000)">
                    <g id="Group-15" transform="translate(32.000000, 0.000000)">
                        <rect id="Rectangle" fill="#EFF3F6" x="0" y="0" width="42" height="42" rx="10"></rect>
                        <g id="Group" transform="translate(9.000000, 9.000000)">
                            <g id="Group-29" transform="translate(0.480000, 0.000000)">
                                <rect id="Icon-Spacing" opacity="0.2" x="0" y="0" width="23.04" height="24" rx="5"></rect>
                                <g id="document.text" transform="translate(3.840000, 2.000000)" fill="#5C63AB" fill-rule="nonzero">
                                    <path d="M3.84,4 C3.3098112,4 2.88,4.44772 2.88,5 C2.88,5.55228 3.3098112,6 3.84,6 L3.84,4 Z M10.56,6 C11.090208,6 11.52,5.55228 11.52,5 C11.52,4.44772 11.090208,4 10.56,4 L10.56,6 Z M3.84,7 C3.3098112,7 2.88,7.44772 2.88,8 C2.88,8.5523 3.3098112,9 3.84,9 L3.84,7 Z M10.56,9 C11.090208,9 11.52,8.5523 11.52,8 C11.52,7.44772 11.090208,7 10.56,7 L10.56,9 Z M3.84,10 C3.3098112,10 2.88,10.4477 2.88,11 C2.88,11.5523 3.3098112,12 3.84,12 L3.84,10 Z M10.56,12 C11.090208,12 11.52,11.5523 11.52,11 C11.52,10.4477 11.090208,10 10.56,10 L10.56,12 Z M3.84,13 C3.3098112,13 2.88,13.4477 2.88,14 C2.88,14.5523 3.3098112,15 3.84,15 L3.84,13 Z M7.68,15 C8.210208,15 8.64,14.5523 8.64,14 C8.64,13.4477 8.210208,13 7.68,13 L7.68,15 Z M12.48,18 L2.88,18 L2.88,20 L12.48,20 L12.48,18 Z M1.92,17 L1.92,3 L0,3 L0,17 L1.92,17 Z M2.88,2 L12.48,2 L12.48,0 L2.88,0 L2.88,2 Z M13.44,3 L13.44,17 L15.36,17 L15.36,3 L13.44,3 Z M12.48,2 C13.010208,2 13.44,2.44772 13.44,3 L15.36,3 C15.36,1.34315 14.070624,0 12.48,0 L12.48,2 Z M2.88,18 C2.3498016,18 1.92,17.5523 1.92,17 L0,17 C0,18.6569 1.289424,20 2.88,20 L2.88,18 Z M12.48,20 C14.070624,20 15.36,18.6569 15.36,17 L13.44,17 C13.44,17.5523 13.010208,18 12.48,18 L12.48,20 Z M1.92,3 C1.92,2.44772 2.3498112,2 2.88,2 L2.88,0 C1.289424,0 0,1.34315 0,3 L1.92,3 Z M3.84,6 L10.56,6 L10.56,4 L3.84,4 L3.84,6 Z M3.84,9 L10.56,9 L10.56,7 L3.84,7 L3.84,9 Z M3.84,12 L10.56,12 L10.56,10 L3.84,10 L3.84,12 Z M3.84,15 L7.68,15 L7.68,13 L3.84,13 L3.84,15 Z" id="Shape"></path>
                                </g>
                            </g>
                        </g>
                    </g>
                    <g id="Group-15-Copy" opacity="0.497827439" transform="translate(82.000000, 9.000000)">
                        <rect id="Rectangle" fill="#EFF3F6" opacity="0.3" x="0" y="0" width="24" height="24" rx="6"></rect>
                        <g id="Group-29" transform="translate(5.000000, 5.000000)">
                            <rect id="Icon-Spacing" opacity="0.2" x="0" y="0" width="14" height="14" rx="5"></rect>
                            <g id="document.text" transform="translate(2.333333, 1.166667)" fill="#FFFFFF" fill-rule="nonzero">
                                <path d="M2.33333333,2.33333333 C2.01117,2.33333333 1.75,2.59450333 1.75,2.91666667 C1.75,3.23883 2.01117,3.5 2.33333333,3.5 L2.33333333,2.33333333 Z M6.41666667,3.5 C6.73884167,3.5 7,3.23883 7,2.91666667 C7,2.59450333 6.73884167,2.33333333 6.41666667,2.33333333 L6.41666667,3.5 Z M2.33333333,4.08333333 C2.01117,4.08333333 1.75,4.34450333 1.75,4.66666667 C1.75,4.98884167 2.01117,5.25 2.33333333,5.25 L2.33333333,4.08333333 Z M6.41666667,5.25 C6.73884167,5.25 7,4.98884167 7,4.66666667 C7,4.34450333 6.73884167,4.08333333 6.41666667,4.08333333 L6.41666667,5.25 Z M2.33333333,5.83333333 C2.01117,5.83333333 1.75,6.09449167 1.75,6.41666667 C1.75,6.73884167 2.01117,7 2.33333333,7 L2.33333333,5.83333333 Z M6.41666667,7 C6.73884167,7 7,6.73884167 7,6.41666667 C7,6.09449167 6.73884167,5.83333333 6.41666667,5.83333333 L6.41666667,7 Z M2.33333333,7.58333333 C2.01117,7.58333333 1.75,7.84449167 1.75,8.16666667 C1.75,8.48884167 2.01117,8.75 2.33333333,8.75 L2.33333333,7.58333333 Z M4.66666667,8.75 C4.98884167,8.75 5.25,8.48884167 5.25,8.16666667 C5.25,7.84449167 4.98884167,7.58333333 4.66666667,7.58333333 L4.66666667,8.75 Z M7.58333333,10.5 L1.75,10.5 L1.75,11.6666667 L7.58333333,11.6666667 L7.58333333,10.5 Z M1.16666667,9.91666667 L1.16666667,1.75 L0,1.75 L0,9.91666667 L1.16666667,9.91666667 Z M1.75,1.16666667 L7.58333333,1.16666667 L7.58333333,0 L1.75,0 L1.75,1.16666667 Z M8.16666667,1.75 L8.16666667,9.91666667 L9.33333333,9.91666667 L9.33333333,1.75 L8.16666667,1.75 Z M7.58333333,1.16666667 C7.90550833,1.16666667 8.16666667,1.42783667 8.16666667,1.75 L9.33333333,1.75 C9.33333333,0.783504167 8.54985833,0 7.58333333,0 L7.58333333,1.16666667 Z M1.75,10.5 C1.42783083,10.5 1.16666667,10.2388417 1.16666667,9.91666667 L0,9.91666667 C0,10.8831917 0.783504167,11.6666667 1.75,11.6666667 L1.75,10.5 Z M7.58333333,11.6666667 C8.54985833,11.6666667 9.33333333,10.8831917 9.33333333,9.91666667 L8.16666667,9.91666667 C8.16666667,10.2388417 7.90550833,10.5 7.58333333,10.5 L7.58333333,11.6666667 Z M1.16666667,1.75 C1.16666667,1.42783667 1.42783667,1.16666667 1.75,1.16666667 L1.75,0 C0.783504167,0 0,0.783504167 0,1.75 L1.16666667,1.75 Z M2.33333333,3.5 L6.41666667,3.5 L6.41666667,2.33333333 L2.33333333,2.33333333 L2.33333333,3.5 Z M2.33333333,5.25 L6.41666667,5.25 L6.41666667,4.08333333 L2.33333333,4.08333333 L2.33333333,5.25 Z M2.33333333,7 L6.41666667,7 L6.41666667,5.83333333 L2.33333333,5.83333333 L2.33333333,7 Z M2.33333333,8.75 L4.66666667,8.75 L4.66666667,7.58333333 L2.33333333,7.58333333 L2.33333333,8.75 Z" id="Shape"></path>
                            </g>
                        </g>
                    </g>
                    <g id="Group-15-Copy-2" opacity="0.497827439" transform="translate(0.000000, 9.000000)">
                        <rect id="Rectangle" fill="#EFF3F6" opacity="0.3" x="0" y="0" width="24" height="24" rx="6"></rect>
                        <g id="Group-29" transform="translate(5.000000, 5.000000)">
                            <rect id="Icon-Spacing" opacity="0.2" x="0" y="0" width="14" height="14" rx="5"></rect>
                            <g id="document.text" transform="translate(2.333333, 1.166667)" fill="#FFFFFF" fill-rule="nonzero">
                                <path d="M2.33333333,2.33333333 C2.01117,2.33333333 1.75,2.59450333 1.75,2.91666667 C1.75,3.23883 2.01117,3.5 2.33333333,3.5 L2.33333333,2.33333333 Z M6.41666667,3.5 C6.73884167,3.5 7,3.23883 7,2.91666667 C7,2.59450333 6.73884167,2.33333333 6.41666667,2.33333333 L6.41666667,3.5 Z M2.33333333,4.08333333 C2.01117,4.08333333 1.75,4.34450333 1.75,4.66666667 C1.75,4.98884167 2.01117,5.25 2.33333333,5.25 L2.33333333,4.08333333 Z M6.41666667,5.25 C6.73884167,5.25 7,4.98884167 7,4.66666667 C7,4.34450333 6.73884167,4.08333333 6.41666667,4.08333333 L6.41666667,5.25 Z M2.33333333,5.83333333 C2.01117,5.83333333 1.75,6.09449167 1.75,6.41666667 C1.75,6.73884167 2.01117,7 2.33333333,7 L2.33333333,5.83333333 Z M6.41666667,7 C6.73884167,7 7,6.73884167 7,6.41666667 C7,6.09449167 6.73884167,5.83333333 6.41666667,5.83333333 L6.41666667,7 Z M2.33333333,7.58333333 C2.01117,7.58333333 1.75,7.84449167 1.75,8.16666667 C1.75,8.48884167 2.01117,8.75 2.33333333,8.75 L2.33333333,7.58333333 Z M4.66666667,8.75 C4.98884167,8.75 5.25,8.48884167 5.25,8.16666667 C5.25,7.84449167 4.98884167,7.58333333 4.66666667,7.58333333 L4.66666667,8.75 Z M7.58333333,10.5 L1.75,10.5 L1.75,11.6666667 L7.58333333,11.6666667 L7.58333333,10.5 Z M1.16666667,9.91666667 L1.16666667,1.75 L0,1.75 L0,9.91666667 L1.16666667,9.91666667 Z M1.75,1.16666667 L7.58333333,1.16666667 L7.58333333,0 L1.75,0 L1.75,1.16666667 Z M8.16666667,1.75 L8.16666667,9.91666667 L9.33333333,9.91666667 L9.33333333,1.75 L8.16666667,1.75 Z M7.58333333,1.16666667 C7.90550833,1.16666667 8.16666667,1.42783667 8.16666667,1.75 L9.33333333,1.75 C9.33333333,0.783504167 8.54985833,0 7.58333333,0 L7.58333333,1.16666667 Z M1.75,10.5 C1.42783083,10.5 1.16666667,10.2388417 1.16666667,9.91666667 L0,9.91666667 C0,10.8831917 0.783504167,11.6666667 1.75,11.6666667 L1.75,10.5 Z M7.58333333,11.6666667 C8.54985833,11.6666667 9.33333333,10.8831917 9.33333333,9.91666667 L8.16666667,9.91666667 C8.16666667,10.2388417 7.90550833,10.5 7.58333333,10.5 L7.58333333,11.6666667 Z M1.16666667,1.75 C1.16666667,1.42783667 1.42783667,1.16666667 1.75,1.16666667 L1.75,0 C0.783504167,0 0,0.783504167 0,1.75 L1.16666667,1.75 Z M2.33333333,3.5 L6.41666667,3.5 L6.41666667,2.33333333 L2.33333333,2.33333333 L2.33333333,3.5 Z M2.33333333,5.25 L6.41666667,5.25 L6.41666667,4.08333333 L2.33333333,4.08333333 L2.33333333,5.25 Z M2.33333333,7 L6.41666667,7 L6.41666667,5.83333333 L2.33333333,5.83333333 L2.33333333,7 Z M2.33333333,8.75 L4.66666667,8.75 L4.66666667,7.58333333 L2.33333333,7.58333333 L2.33333333,8.75 Z" id="Shape"></path>
                            </g>
                        </g>
                    </g>
                </g>
            </g>
        </g>
    </g>
</svg>