<?xml version="1.0" encoding="UTF-8"?>
<svg width="106px" height="42px" viewBox="0 0 106 42" version="1.1" xmlns="http://www.w3.org/2000/svg" xmlns:xlink="http://www.w3.org/1999/xlink">
    <title>E-Notify Centre</title>
    <g id="Side-panel-" stroke="none" stroke-width="1" fill="none" fill-rule="evenodd">
        <g id="Hover/E-Notify-Centre" transform="translate(-122.000000, -725.000000)">
            <g id="Business-location" transform="translate(85.000000, 702.000000)">
                <g id="E-Notify-Centre" transform="translate(37.000000, 23.000000)">
                    <g id="Group-15" transform="translate(32.000000, 0.000000)">
                        <rect id="Rectangle" fill="#EFF3F6" x="0" y="0" width="42" height="42" rx="10"></rect>
                        <g id="ic_cettings" transform="translate(9.000000, 9.000000)" fill="#5C63AB">
                            <rect id="Icon-Spacing" opacity="0" x="0" y="0" width="24" height="24" rx="5"></rect>
                            <path d="M22,9.98 L22,19 C22,20.1 21.1,21 20,21 L4,21 C2.9,21 2,20.1 2,19 L2.01,7 C2.01,5.9 2.9,5 4,5 L14.1,5 C14.04,5.32 14,5.66 14,6 C14,6.34 14.04,6.68 14.1,7 L4,7 L12,12 L15.67,9.71 C16.14,10.14 16.69,10.47 17.3,10.69 L12,14 L4,9 L4,19 L20,19 L20,10.9 C20.74,10.75 21.42,10.42 22,9.98 Z M16,6 C16,7.66 17.34,9 19,9 C20.66,9 22,7.66 22,6 C22,4.34 20.66,3 19,3 C17.34,3 16,4.34 16,6 Z" id="Shape" fill-rule="nonzero"></path>
                        </g>
                    </g>
                    <g id="Group-15-Copy" opacity="0.497827439" transform="translate(82.000000, 9.000000)">
                        <rect id="Rectangle" fill="#EFF3F6" opacity="0.3" x="0" y="0" width="24" height="24" rx="6"></rect>
                        <g id="ic_cettings" transform="translate(5.000000, 5.000000)">
                            <rect id="Icon-Spacing" fill="#5C63AB" opacity="0" x="0" y="0" width="14" height="14" rx="5"></rect>
                            <path d="M12.8333333,5.82166667 L12.8333333,11.0833333 C12.8333333,11.725 12.3083333,12.25 11.6666667,12.25 L2.33333333,12.25 C1.69166667,12.25 1.16666667,11.725 1.16666667,11.0833333 L1.1725,4.08333333 C1.1725,3.44166667 1.69166667,2.91666667 2.33333333,2.91666667 L8.225,2.91666667 C8.19,3.10333333 8.16666667,3.30166667 8.16666667,3.5 C8.16666667,3.69833333 8.19,3.89666667 8.225,4.08333333 L2.33333333,4.08333333 L7,7 L9.14083333,5.66416667 C9.415,5.915 9.73583333,6.1075 10.0916667,6.23583333 L7,8.16666667 L2.33333333,5.25 L2.33333333,11.0833333 L11.6666667,11.0833333 L11.6666667,6.35833333 C12.0983333,6.27083333 12.495,6.07833333 12.8333333,5.82166667 Z M9.33333333,3.5 C9.33333333,4.46833333 10.115,5.25 11.0833333,5.25 C12.0516667,5.25 12.8333333,4.46833333 12.8333333,3.5 C12.8333333,2.53166667 12.0516667,1.75 11.0833333,1.75 C10.115,1.75 9.33333333,2.53166667 9.33333333,3.5 Z" id="Shape" fill="#FFFFFF" fill-rule="nonzero"></path>
                        </g>
                    </g>
                    <g id="Group-15-Copy-2" opacity="0.497827439" transform="translate(0.000000, 9.000000)">
                        <rect id="Rectangle" fill="#EFF3F6" opacity="0.3" x="0" y="0" width="24" height="24" rx="6"></rect>
                        <g id="ic_cettings" transform="translate(5.000000, 5.000000)">
                            <rect id="Icon-Spacing" fill="#5C63AB" opacity="0" x="0" y="0" width="14" height="14" rx="5"></rect>
                            <path d="M12.8333333,5.82166667 L12.8333333,11.0833333 C12.8333333,11.725 12.3083333,12.25 11.6666667,12.25 L2.33333333,12.25 C1.69166667,12.25 1.16666667,11.725 1.16666667,11.0833333 L1.1725,4.08333333 C1.1725,3.44166667 1.69166667,2.91666667 2.33333333,2.91666667 L8.225,2.91666667 C8.19,3.10333333 8.16666667,3.30166667 8.16666667,3.5 C8.16666667,3.69833333 8.19,3.89666667 8.225,4.08333333 L2.33333333,4.08333333 L7,7 L9.14083333,5.66416667 C9.415,5.915 9.73583333,6.1075 10.0916667,6.23583333 L7,8.16666667 L2.33333333,5.25 L2.33333333,11.0833333 L11.6666667,11.0833333 L11.6666667,6.35833333 C12.0983333,6.27083333 12.495,6.07833333 12.8333333,5.82166667 Z M9.33333333,3.5 C9.33333333,4.46833333 10.115,5.25 11.0833333,5.25 C12.0516667,5.25 12.8333333,4.46833333 12.8333333,3.5 C12.8333333,2.53166667 12.0516667,1.75 11.0833333,1.75 C10.115,1.75 9.33333333,2.53166667 9.33333333,3.5 Z" id="Shape" fill="#FFFFFF" fill-rule="nonzero"></path>
                        </g>
                    </g>
                </g>
            </g>
        </g>
    </g>
</svg>