<?xml version="1.0" encoding="UTF-8"?>
<svg width="106px" height="42px" viewBox="0 0 106 42" version="1.1" xmlns="http://www.w3.org/2000/svg" xmlns:xlink="http://www.w3.org/1999/xlink">
    <title>Float Legal</title>
    <g id="Side-panel-" stroke="none" stroke-width="1" fill="none" fill-rule="evenodd">
        <g id="Hover/Float-Legal" transform="translate(-122.000000, -435.000000)">
            <g id="Business-location" transform="translate(85.000000, 412.000000)">
                <g id="Float-Legal" transform="translate(37.000000, 23.000000)">
                    <g id="Group-15" transform="translate(32.000000, 0.000000)">
                        <rect id="Rectangle" fill="#EFF3F6" x="0" y="0" width="42" height="42" rx="10"></rect>
                        <g id="Group" transform="translate(9.000000, 9.000000)" fill="#5C63AB">
                            <g id="iconspace_Search_Zoom_25px-Copy-2" transform="translate(1.440000, 2.000000)">
                                <path d="M19.2,5 L1.92,5 L1.92,8 C1.92,8.55228475 2.34980664,9 2.88,9 L18.24,9 C18.7701934,9 19.2,8.55228475 19.2,8 L19.2,5 Z M5.76,3 C5.76,1.34314575 7.04941992,0 8.64,0 L12.48,0 C14.0705801,0 15.36,1.34314575 15.36,3 L19.2,3 C20.2603867,3 21.12,3.8954305 21.12,5 L21.12,15 C21.12,17.209139 19.4007734,19 17.28,19 L3.84,19 C1.71922656,19 0,17.209139 0,15 L0,5 C0,3.8954305 0.85961328,3 1.92,3 L5.76,3 Z M7.68,3 L13.44,3 C13.44,2.44771525 13.0101934,2 12.48,2 L8.64,2 C8.10980664,2 7.68,2.44771525 7.68,3 Z M7.68,11 L2.88,11 C2.54338999,11 2.22026777,10.9398458 1.92,10.8292943 L1.92,15 C1.92,16.1045695 2.77961328,17 3.84,17 L17.28,17 C18.3403867,17 19.2,16.1045695 19.2,15 L19.2,10.8292943 C18.8997322,10.9398458 18.57661,11 18.24,11 L13.44,11 L13.44,12.6 C13.44,13.3731986 12.8382707,14 12.096,14 L9.024,14 C8.2817293,14 7.68,13.3731986 7.68,12.6 L7.68,11 Z M9.6,12 L11.52,12 L11.52,11 L9.6,11 L9.6,12 Z" id="Shape"></path>
                            </g>
                        </g>
                    </g>
                    <g id="Group-15-Copy" opacity="0.497827439" transform="translate(82.000000, 9.000000)">
                        <rect id="Rectangle" fill="#EFF3F6" opacity="0.3" x="0" y="0" width="24" height="24" rx="6"></rect>
                        <g id="Group" transform="translate(5.000000, 5.000000)" fill="#FFFFFF">
                            <g id="iconspace_Search_Zoom_25px-Copy-2" transform="translate(0.840000, 1.166667)">
                                <path d="M11.2,2.91666667 L1.12,2.91666667 L1.12,4.66666667 C1.12,4.98883277 1.37072054,5.25 1.68,5.25 L10.64,5.25 C10.9492795,5.25 11.2,4.98883277 11.2,4.66666667 L11.2,2.91666667 Z M3.36,1.75 C3.36,0.783501688 4.11216162,0 5.04,0 L7.28,0 C8.20783838,0 8.96,0.783501688 8.96,1.75 L11.2,1.75 C11.8185589,1.75 12.32,2.27233446 12.32,2.91666667 L12.32,8.75 C12.32,10.0386644 11.3171178,11.0833333 10.08,11.0833333 L2.24,11.0833333 C1.00288216,11.0833333 0,10.0386644 0,8.75 L0,2.91666667 C0,2.27233446 0.50144108,1.75 1.12,1.75 L3.36,1.75 Z M4.48,1.75 L7.84,1.75 C7.84,1.4278339 7.58927946,1.16666667 7.28,1.16666667 L5.04,1.16666667 C4.73072054,1.16666667 4.48,1.4278339 4.48,1.75 Z M4.48,6.41666667 L1.68,6.41666667 C1.48364416,6.41666667 1.2951562,6.3815767 1.12,6.31708834 L1.12,8.75 C1.12,9.39433221 1.62144108,9.91666667 2.24,9.91666667 L10.08,9.91666667 C10.6985589,9.91666667 11.2,9.39433221 11.2,8.75 L11.2,6.31708834 C11.0248438,6.3815767 10.8363558,6.41666667 10.64,6.41666667 L7.84,6.41666667 L7.84,7.35 C7.84,7.80103255 7.48899124,8.16666667 7.056,8.16666667 L5.264,8.16666667 C4.83100876,8.16666667 4.48,7.80103255 4.48,7.35 L4.48,6.41666667 Z M5.6,7 L6.72,7 L6.72,6.41666667 L5.6,6.41666667 L5.6,7 Z" id="Shape"></path>
                            </g>
                        </g>
                    </g>
                    <g id="Group-15-Copy-2" opacity="0.497827439" transform="translate(0.000000, 9.000000)">
                        <rect id="Rectangle" fill="#EFF3F6" opacity="0.3" x="0" y="0" width="24" height="24" rx="6"></rect>
                        <g id="Group" transform="translate(5.000000, 5.000000)" fill="#FFFFFF">
                            <g id="iconspace_Search_Zoom_25px-Copy-2" transform="translate(0.840000, 1.166667)">
                                <path d="M11.2,2.91666667 L1.12,2.91666667 L1.12,4.66666667 C1.12,4.98883277 1.37072054,5.25 1.68,5.25 L10.64,5.25 C10.9492795,5.25 11.2,4.98883277 11.2,4.66666667 L11.2,2.91666667 Z M3.36,1.75 C3.36,0.783501688 4.11216162,0 5.04,0 L7.28,0 C8.20783838,0 8.96,0.783501688 8.96,1.75 L11.2,1.75 C11.8185589,1.75 12.32,2.27233446 12.32,2.91666667 L12.32,8.75 C12.32,10.0386644 11.3171178,11.0833333 10.08,11.0833333 L2.24,11.0833333 C1.00288216,11.0833333 0,10.0386644 0,8.75 L0,2.91666667 C0,2.27233446 0.50144108,1.75 1.12,1.75 L3.36,1.75 Z M4.48,1.75 L7.84,1.75 C7.84,1.4278339 7.58927946,1.16666667 7.28,1.16666667 L5.04,1.16666667 C4.73072054,1.16666667 4.48,1.4278339 4.48,1.75 Z M4.48,6.41666667 L1.68,6.41666667 C1.48364416,6.41666667 1.2951562,6.3815767 1.12,6.31708834 L1.12,8.75 C1.12,9.39433221 1.62144108,9.91666667 2.24,9.91666667 L10.08,9.91666667 C10.6985589,9.91666667 11.2,9.39433221 11.2,8.75 L11.2,6.31708834 C11.0248438,6.3815767 10.8363558,6.41666667 10.64,6.41666667 L7.84,6.41666667 L7.84,7.35 C7.84,7.80103255 7.48899124,8.16666667 7.056,8.16666667 L5.264,8.16666667 C4.83100876,8.16666667 4.48,7.80103255 4.48,7.35 L4.48,6.41666667 Z M5.6,7 L6.72,7 L6.72,6.41666667 L5.6,6.41666667 L5.6,7 Z" id="Shape"></path>
                            </g>
                        </g>
                    </g>
                </g>
            </g>
        </g>
    </g>
</svg>