<?xml version="1.0" encoding="UTF-8"?>
<svg width="106px" height="42px" viewBox="0 0 106 42" version="1.1" xmlns="http://www.w3.org/2000/svg" xmlns:xlink="http://www.w3.org/1999/xlink">
    <title>Manage Credential</title>
    <g id="Side-panel-" stroke="none" stroke-width="1" fill="none" fill-rule="evenodd">
        <g id="Hover/Manage-Credential" transform="translate(-122.000000, -319.000000)">
            <g id="Business-location" transform="translate(85.000000, 296.000000)">
                <g id="Manage-Credential" transform="translate(37.000000, 23.000000)">
                    <g id="Group-15" transform="translate(32.000000, 0.000000)">
                        <rect id="Rectangle" fill="#EFF3F6" x="0" y="0" width="42" height="42" rx="10"></rect>
                        <g id="Group" transform="translate(9.000000, 9.000000)">
                            <g id="Group-13" transform="translate(0.480000, 0.000000)">
                                <rect id="Icon-Spacing" opacity="0.2" x="0" y="0" width="23.04" height="24" rx="5"></rect>
                                <g id="document" transform="translate(3.840000, 2.000000)" fill="#5C63AB" fill-rule="nonzero">
                                    <path d="M14.4,8 L15.36,8 C15.36,7.73478 15.258816,7.48043 15.078816,7.29289 L14.4,8 Z M7.68,1 L8.358816,0.29289 C8.178816,0.10536 7.934592,0 7.68,0 L7.68,1 Z M12.48,18 L2.88,18 L2.88,20 L12.48,20 L12.48,18 Z M1.92,17 L1.92,3 L0,3 L0,17 L1.92,17 Z M13.44,8 L13.44,17 L15.36,17 L15.36,8 L13.44,8 Z M2.88,2 L7.68,2 L7.68,0 L2.88,0 L2.88,2 Z M15.078816,7.29289 L8.358816,0.29289 L7.001184,1.70711 L13.721184,8.7071 L15.078816,7.29289 Z M6.72,1 L6.72,7.5 L8.64,7.5 L8.64,1 L6.72,1 Z M8.16,9 L14.4,9 L14.4,7 L8.16,7 L8.16,9 Z M2.88,18 C2.3498016,18 1.92,17.5523 1.92,17 L0,17 C0,18.6569 1.289424,20 2.88,20 L2.88,18 Z M12.48,20 C14.070624,20 15.36,18.6569 15.36,17 L13.44,17 C13.44,17.5523 13.010208,18 12.48,18 L12.48,20 Z M6.72,7.5 C6.72,8.3284 7.364736,9 8.16,9 L8.16,7 C8.425056,7 8.64,7.22386 8.64,7.5 L6.72,7.5 Z M1.92,3 C1.92,2.44772 2.3498112,2 2.88,2 L2.88,0 C1.289424,0 0,1.34315 0,3 L1.92,3 Z" id="Shape"></path>
                                </g>
                            </g>
                        </g>
                    </g>
                    <g id="Group-15-Copy" opacity="0.497827439" transform="translate(82.000000, 9.000000)">
                        <rect id="Rectangle" fill="#EFF3F6" opacity="0.3" x="0" y="0" width="24" height="24" rx="6"></rect>
                        <g id="Group-13" transform="translate(5.000000, 5.000000)">
                            <rect id="Icon-Spacing" opacity="0.2" x="0" y="0" width="14" height="14" rx="5"></rect>
                            <g id="document" transform="translate(2.333333, 1.166667)" fill="#FFFFFF" fill-rule="nonzero">
                                <path d="M8.75,4.66666667 L9.33333333,4.66666667 C9.33333333,4.511955 9.27185,4.36358417 9.162475,4.25418583 L8.75,4.66666667 Z M4.66666667,0.583333333 L5.07914167,0.1708525 C4.96976667,0.06146 4.82136667,0 4.66666667,0 L4.66666667,0.583333333 Z M7.58333333,10.5 L1.75,10.5 L1.75,11.6666667 L7.58333333,11.6666667 L7.58333333,10.5 Z M1.16666667,9.91666667 L1.16666667,1.75 L0,1.75 L0,9.91666667 L1.16666667,9.91666667 Z M8.16666667,4.66666667 L8.16666667,9.91666667 L9.33333333,9.91666667 L9.33333333,4.66666667 L8.16666667,4.66666667 Z M1.75,1.16666667 L4.66666667,1.16666667 L4.66666667,0 L1.75,0 L1.75,1.16666667 Z M9.162475,4.25418583 L5.07914167,0.1708525 L4.25419167,0.995814167 L8.337525,5.07914167 L9.162475,4.25418583 Z M4.08333333,0.583333333 L4.08333333,4.375 L5.25,4.375 L5.25,0.583333333 L4.08333333,0.583333333 Z M4.95833333,5.25 L8.75,5.25 L8.75,4.08333333 L4.95833333,4.08333333 L4.95833333,5.25 Z M1.75,10.5 C1.42783083,10.5 1.16666667,10.2388417 1.16666667,9.91666667 L0,9.91666667 C0,10.8831917 0.783504167,11.6666667 1.75,11.6666667 L1.75,10.5 Z M7.58333333,11.6666667 C8.54985833,11.6666667 9.33333333,10.8831917 9.33333333,9.91666667 L8.16666667,9.91666667 C8.16666667,10.2388417 7.90550833,10.5 7.58333333,10.5 L7.58333333,11.6666667 Z M4.08333333,4.375 C4.08333333,4.85823333 4.4751,5.25 4.95833333,5.25 L4.95833333,4.08333333 C5.11939167,4.08333333 5.25,4.21391833 5.25,4.375 L4.08333333,4.375 Z M1.16666667,1.75 C1.16666667,1.42783667 1.42783667,1.16666667 1.75,1.16666667 L1.75,0 C0.783504167,0 0,0.783504167 0,1.75 L1.16666667,1.75 Z" id="Shape"></path>
                            </g>
                        </g>
                    </g>
                    <g id="Group-15-Copy-2" opacity="0.497827439" transform="translate(0.000000, 9.000000)">
                        <rect id="Rectangle" fill="#EFF3F6" opacity="0.3" x="0" y="0" width="24" height="24" rx="6"></rect>
                        <g id="Group-13" transform="translate(5.000000, 5.000000)">
                            <rect id="Icon-Spacing" opacity="0.2" x="0" y="0" width="14" height="14" rx="5"></rect>
                            <g id="document" transform="translate(2.333333, 1.166667)" fill="#FFFFFF" fill-rule="nonzero">
                                <path d="M8.75,4.66666667 L9.33333333,4.66666667 C9.33333333,4.511955 9.27185,4.36358417 9.162475,4.25418583 L8.75,4.66666667 Z M4.66666667,0.583333333 L5.07914167,0.1708525 C4.96976667,0.06146 4.82136667,0 4.66666667,0 L4.66666667,0.583333333 Z M7.58333333,10.5 L1.75,10.5 L1.75,11.6666667 L7.58333333,11.6666667 L7.58333333,10.5 Z M1.16666667,9.91666667 L1.16666667,1.75 L0,1.75 L0,9.91666667 L1.16666667,9.91666667 Z M8.16666667,4.66666667 L8.16666667,9.91666667 L9.33333333,9.91666667 L9.33333333,4.66666667 L8.16666667,4.66666667 Z M1.75,1.16666667 L4.66666667,1.16666667 L4.66666667,0 L1.75,0 L1.75,1.16666667 Z M9.162475,4.25418583 L5.07914167,0.1708525 L4.25419167,0.995814167 L8.337525,5.07914167 L9.162475,4.25418583 Z M4.08333333,0.583333333 L4.08333333,4.375 L5.25,4.375 L5.25,0.583333333 L4.08333333,0.583333333 Z M4.95833333,5.25 L8.75,5.25 L8.75,4.08333333 L4.95833333,4.08333333 L4.95833333,5.25 Z M1.75,10.5 C1.42783083,10.5 1.16666667,10.2388417 1.16666667,9.91666667 L0,9.91666667 C0,10.8831917 0.783504167,11.6666667 1.75,11.6666667 L1.75,10.5 Z M7.58333333,11.6666667 C8.54985833,11.6666667 9.33333333,10.8831917 9.33333333,9.91666667 L8.16666667,9.91666667 C8.16666667,10.2388417 7.90550833,10.5 7.58333333,10.5 L7.58333333,11.6666667 Z M4.08333333,4.375 C4.08333333,4.85823333 4.4751,5.25 4.95833333,5.25 L4.95833333,4.08333333 C5.11939167,4.08333333 5.25,4.21391833 5.25,4.375 L4.08333333,4.375 Z M1.16666667,1.75 C1.16666667,1.42783667 1.42783667,1.16666667 1.75,1.16666667 L1.75,0 C0.783504167,0 0,0.783504167 0,1.75 L1.16666667,1.75 Z" id="Shape"></path>
                            </g>
                        </g>
                    </g>
                </g>
            </g>
        </g>
    </g>
</svg>