<?xml version="1.0" encoding="UTF-8"?>
<svg width="106px" height="42px" viewBox="0 0 106 42" version="1.1" xmlns="http://www.w3.org/2000/svg" xmlns:xlink="http://www.w3.org/1999/xlink">
    <title>Manage Referral</title>
    <g id="Side-panel-" stroke="none" stroke-width="1" fill="none" fill-rule="evenodd">
        <g id="Hover/Manage-Referral" transform="translate(-122.000000, -377.000000)">
            <g id="Business-location" transform="translate(85.000000, 354.000000)">
                <g id="Manage-Referral" transform="translate(37.000000, 23.000000)">
                    <g id="Group-15" transform="translate(32.000000, 0.000000)">
                        <rect id="Rectangle" fill="#EFF3F6" x="0" y="0" width="42" height="42" rx="10"></rect>
                        <g id="Group" transform="translate(9.000000, 9.000000)" fill="#5C63AB">
                            <g id="Icon/Icon_blue_green/ic_Referrals" transform="translate(1.440000, 1.000000)">
                                <g id="Group-2" transform="translate(1.440000, 0.500000)">
                                    <path d="M3.84,6 C2.24941992,6 0.96,4.65685425 0.96,3 C0.96,1.34314575 2.24941992,0 3.84,0 C5.43058008,0 6.72,1.34314575 6.72,3 C6.72,4.65685425 5.43058008,6 3.84,6 Z M3.84,4 C4.37019336,4 4.8,3.55228475 4.8,3 C4.8,2.44771525 4.37019336,2 3.84,2 C3.30980664,2 2.88,2.44771525 2.88,3 C2.88,3.55228475 3.30980664,4 3.84,4 Z M2.88,6 L4.8,6 C6.39058008,6 7.68,7.34314575 7.68,9 L7.68,10 C7.68,11.6568542 6.39058008,13 4.8,13 L2.88,13 C1.28941992,13 0,11.6568542 0,10 L0,9 C0,7.34314575 1.28941992,6 2.88,6 Z M2.88,8 C2.34980664,8 1.92,8.44771525 1.92,9 L1.92,10 C1.92,10.5522847 2.34980664,11 2.88,11 L4.8,11 C5.33019336,11 5.76,10.5522847 5.76,10 L5.76,9 C5.76,8.44771525 5.33019336,8 4.8,8 L2.88,8 Z" id="Shape"></path>
                                    <path d="M14.4,14 C12.8094199,14 11.52,12.6568542 11.52,11 C11.52,9.34314575 12.8094199,8 14.4,8 C15.9905801,8 17.28,9.34314575 17.28,11 C17.28,12.6568542 15.9905801,14 14.4,14 Z M14.4,12 C14.9301934,12 15.36,11.5522847 15.36,11 C15.36,10.4477153 14.9301934,10 14.4,10 C13.8698066,10 13.44,10.4477153 13.44,11 C13.44,11.5522847 13.8698066,12 14.4,12 Z M13.44,14 L15.36,14 C16.9505801,14 18.24,15.3431458 18.24,17 L18.24,18 C18.24,19.6568542 16.9505801,21 15.36,21 L13.44,21 C11.8494199,21 10.56,19.6568542 10.56,18 L10.56,17 C10.56,15.3431458 11.8494199,14 13.44,14 Z M13.44,16 C12.9098066,16 12.48,16.4477153 12.48,17 L12.48,18 C12.48,18.5522847 12.9098066,19 13.44,19 L15.36,19 C15.8901934,19 16.32,18.5522847 16.32,18 L16.32,17 C16.32,16.4477153 15.8901934,16 15.36,16 L13.44,16 Z" id="Shape-Copy"></path>
                                    <g id="Group-3" transform="translate(2.400000, 14.000000)" fill-rule="nonzero">
                                        <path d="M0.97830119,0 C1.51860202,0 1.95660238,0.437128985 1.95660238,0.976354914 C1.95660238,2.02032029 2.76604564,2.87560618 3.79274394,2.95120248 L3.94082911,2.95663413 L4.749,2.956 L4.32344403,2.53063641 C3.94139365,2.14858603 3.94077749,1.52977614 4.3220678,1.14848583 C4.67612309,0.794430538 5.23497843,0.769672153 5.61889942,1.07383256 L5.70421839,1.14986205 L7.10076744,2.5464111 C7.4738358,2.91947947 7.6768356,3.41905046 7.67734997,3.93563907 C7.6778072,4.39482894 7.51824884,4.84025417 7.22128922,5.19506511 L7.10353285,5.32372157 L5.70976215,6.71749226 C5.32847184,7.09878257 4.70966195,7.09816641 4.32761157,6.71611603 C3.9728505,6.36135497 3.94697914,5.80244922 4.25037561,5.41913318 L4.32623534,5.33396545 L4.75,4.909 L3.94082911,4.90934396 C1.76436929,4.90934396 0,3.14848478 0,0.976354914 C0,0.437128985 0.438000362,0 0.97830119,0 Z" id="Combined-Shape"></path>
                                    </g>
                                    <g id="Group-4" transform="translate(8.160000, 0.000000)" fill-rule="nonzero">
                                        <path d="M3.35655597,4.46936359 C3.73860635,4.85141397 3.73922251,5.47022386 3.3579322,5.85151417 C3.00387691,6.20556946 2.44502157,6.23032785 2.06110058,5.92616744 L1.97578161,5.85013795 L0.579232557,4.4535889 C0.206164196,4.08052053 0.00316439943,3.58094954 0.00265002544,3.06436093 C0.00219280411,2.60517106 0.161751159,2.15974583 0.45871078,1.80493489 L0.576467153,1.67627843 L1.97023785,0.28250774 C2.35152816,-0.0987825714 2.97033805,-0.0981664143 3.35238843,0.283883965 C3.7071495,0.638645032 3.73302086,1.19755078 3.42962439,1.58086682 L3.35376466,1.66603455 L2.929,2.09 L3.73917089,2.09065604 C5.91563071,2.09065604 7.68,3.85151522 7.68,6.02364509 C7.68,6.56287102 7.24199964,7 6.70169881,7 C6.1999909,7 5.78649104,6.62308776 5.72997937,6.13750869 L5.72339762,6.02364509 C5.72339762,4.97967971 4.91395436,4.12439382 3.88725606,4.04879752 L3.73917089,4.04336587 L2.93,4.043 L3.35655597,4.46936359 Z" id="Combined-Shape"></path>
                                    </g>
                                </g>
                            </g>
                        </g>
                    </g>
                    <g id="Group-15-Copy" opacity="0.497827439" transform="translate(82.000000, 9.000000)">
                        <rect id="Rectangle" fill="#EFF3F6" opacity="0.3" x="0" y="0" width="24" height="24" rx="6"></rect>
                        <g id="Manage-Referral" transform="translate(5.000000, 5.000000)" fill="#FFFFFF">
                            <g id="Group-2" transform="translate(0.954545, 0.318182)">
                                <path d="M2.54545455,3.81818182 C1.49109275,3.81818182 0.636363636,2.9634527 0.636363636,1.90909091 C0.636363636,0.854729114 1.49109275,0 2.54545455,0 C3.59981634,0 4.45454545,0.854729114 4.45454545,1.90909091 C4.45454545,2.9634527 3.59981634,3.81818182 2.54545455,3.81818182 Z M2.54545455,2.54545455 C2.89690848,2.54545455 3.18181818,2.26054484 3.18181818,1.90909091 C3.18181818,1.55763698 2.89690848,1.27272727 2.54545455,1.27272727 C2.19400061,1.27272727 1.90909091,1.55763698 1.90909091,1.90909091 C1.90909091,2.26054484 2.19400061,2.54545455 2.54545455,2.54545455 Z M1.90909091,3.81818182 L3.18181818,3.81818182 C4.23617998,3.81818182 5.09090909,4.67291093 5.09090909,5.72727273 L5.09090909,6.36363636 C5.09090909,7.41799816 4.23617998,8.27272727 3.18181818,8.27272727 L1.90909091,8.27272727 C0.854729114,8.27272727 0,7.41799816 0,6.36363636 L0,5.72727273 C0,4.67291093 0.854729114,3.81818182 1.90909091,3.81818182 Z M1.90909091,5.09090909 C1.55763698,5.09090909 1.27272727,5.3758188 1.27272727,5.72727273 L1.27272727,6.36363636 C1.27272727,6.7150903 1.55763698,7 1.90909091,7 L3.18181818,7 C3.53327211,7 3.81818182,6.7150903 3.81818182,6.36363636 L3.81818182,5.72727273 C3.81818182,5.3758188 3.53327211,5.09090909 3.18181818,5.09090909 L1.90909091,5.09090909 Z" id="Shape"></path>
                                <path d="M9.54545455,8.90909091 C8.49109275,8.90909091 7.63636364,8.0543618 7.63636364,7 C7.63636364,5.9456382 8.49109275,5.09090909 9.54545455,5.09090909 C10.5998163,5.09090909 11.4545455,5.9456382 11.4545455,7 C11.4545455,8.0543618 10.5998163,8.90909091 9.54545455,8.90909091 Z M9.54545455,7.63636364 C9.89690848,7.63636364 10.1818182,7.35145393 10.1818182,7 C10.1818182,6.64854607 9.89690848,6.36363636 9.54545455,6.36363636 C9.19400061,6.36363636 8.90909091,6.64854607 8.90909091,7 C8.90909091,7.35145393 9.19400061,7.63636364 9.54545455,7.63636364 Z M8.90909091,8.90909091 L10.1818182,8.90909091 C11.23618,8.90909091 12.0909091,9.76382002 12.0909091,10.8181818 L12.0909091,11.4545455 C12.0909091,12.5089072 11.23618,13.3636364 10.1818182,13.3636364 L8.90909091,13.3636364 C7.85472911,13.3636364 7,12.5089072 7,11.4545455 L7,10.8181818 C7,9.76382002 7.85472911,8.90909091 8.90909091,8.90909091 Z M8.90909091,10.1818182 C8.55763698,10.1818182 8.27272727,10.4667279 8.27272727,10.8181818 L8.27272727,11.4545455 C8.27272727,11.8059994 8.55763698,12.0909091 8.90909091,12.0909091 L10.1818182,12.0909091 C10.5332721,12.0909091 10.8181818,11.8059994 10.8181818,11.4545455 L10.8181818,10.8181818 C10.8181818,10.4667279 10.5332721,10.1818182 10.1818182,10.1818182 L8.90909091,10.1818182 Z" id="Shape-Copy"></path>
                                <g id="Group-3" transform="translate(1.590909, 8.909091)" fill-rule="nonzero">
                                    <path d="M0.648495107,0 C1.00664907,0 1.29699021,0.27817299 1.29699021,0.621316763 C1.29699021,1.28565837 1.83355298,1.8299312 2.51412951,1.87803794 L2.61229202,1.88149445 L3.155,1.881 L2.85650803,1.58263271 C2.60325493,1.32937962 2.59465075,0.927379412 2.83729004,0.684740123 C3.06259795,0.459432212 3.42531399,0.450757707 3.67874964,0.653436624 L3.73518262,0.703958115 L4.66092536,1.62970086 C4.90822447,1.87699996 5.04672054,2.20422316 5.0539034,2.5398169 C5.06028817,2.83812244 4.96254093,3.12536476 4.7743336,3.35192051 L4.69954223,3.43393731 L3.81259725,4.3208823 C3.56995796,4.56352158 3.16795775,4.5549174 2.91470466,4.3016643 C2.67954107,4.06650072 2.65532476,3.7030807 2.8473357,3.45809277 L2.89548667,3.40377172 L3.174,3.124 L2.61229202,3.12412797 C1.16956298,3.12412797 0,2.00358123 0,0.621316763 C0,0.27817299 0.290341149,0 0.648495107,0 Z" id="Combined-Shape"></path>
                                </g>
                                <g id="Group-4" transform="translate(5.409091, 0.000000)" fill-rule="nonzero">
                                    <path d="M2.23440106,2.87191275 C2.48765416,3.12516584 2.49625834,3.52716604 2.25361905,3.76980533 C2.02831114,3.99511324 1.6655951,4.00378775 1.41215945,3.80110883 L1.35572647,3.75058734 L0.429983727,2.8248446 C0.182684624,2.57754549 0.0441885497,2.25032229 0.0370056888,1.91472856 C0.0306209236,1.61642301 0.128368157,1.32918069 0.316575493,1.10262495 L0.391366858,1.02060815 L1.27831185,0.133663159 C1.52095113,-0.10897613 1.92295134,-0.100371942 2.17620443,0.15288115 C2.41136802,0.388044736 2.43558433,0.751464759 2.24357339,0.996452688 L2.19542242,1.05077373 L1.915,1.33 L2.47861707,1.33041748 C3.92134612,1.33041748 5.09090909,2.45096423 5.09090909,3.83322869 C5.09090909,4.17637246 4.80056794,4.45454545 4.44241398,4.45454545 C4.10984245,4.45454545 3.83574217,4.21469221 3.79828178,3.90568735 L3.79391888,3.83322869 C3.79391888,3.16888709 3.25735611,2.62461425 2.57677959,2.57650751 L2.47861707,2.57305101 L1.936,2.573 L2.23440106,2.87191275 Z" id="Combined-Shape"></path>
                                </g>
                            </g>
                        </g>
                    </g>
                    <g id="Group-15-Copy-2" opacity="0.497827439" transform="translate(0.000000, 9.000000)">
                        <rect id="Rectangle" fill="#EFF3F6" opacity="0.3" x="0" y="0" width="24" height="24" rx="6"></rect>
                        <g id="Manage-Referral-Side" transform="translate(5.000000, 5.000000)" fill="#FFFFFF">
                            <g id="Group-2" transform="translate(0.954545, 0.318182)">
                                <path d="M2.54545455,3.81818182 C1.49109275,3.81818182 0.636363636,2.9634527 0.636363636,1.90909091 C0.636363636,0.854729114 1.49109275,0 2.54545455,0 C3.59981634,0 4.45454545,0.854729114 4.45454545,1.90909091 C4.45454545,2.9634527 3.59981634,3.81818182 2.54545455,3.81818182 Z M2.54545455,2.54545455 C2.89690848,2.54545455 3.18181818,2.26054484 3.18181818,1.90909091 C3.18181818,1.55763698 2.89690848,1.27272727 2.54545455,1.27272727 C2.19400061,1.27272727 1.90909091,1.55763698 1.90909091,1.90909091 C1.90909091,2.26054484 2.19400061,2.54545455 2.54545455,2.54545455 Z M1.90909091,3.81818182 L3.18181818,3.81818182 C4.23617998,3.81818182 5.09090909,4.67291093 5.09090909,5.72727273 L5.09090909,6.36363636 C5.09090909,7.41799816 4.23617998,8.27272727 3.18181818,8.27272727 L1.90909091,8.27272727 C0.854729114,8.27272727 0,7.41799816 0,6.36363636 L0,5.72727273 C0,4.67291093 0.854729114,3.81818182 1.90909091,3.81818182 Z M1.90909091,5.09090909 C1.55763698,5.09090909 1.27272727,5.3758188 1.27272727,5.72727273 L1.27272727,6.36363636 C1.27272727,6.7150903 1.55763698,7 1.90909091,7 L3.18181818,7 C3.53327211,7 3.81818182,6.7150903 3.81818182,6.36363636 L3.81818182,5.72727273 C3.81818182,5.3758188 3.53327211,5.09090909 3.18181818,5.09090909 L1.90909091,5.09090909 Z" id="Shape"></path>
                                <path d="M9.54545455,8.90909091 C8.49109275,8.90909091 7.63636364,8.0543618 7.63636364,7 C7.63636364,5.9456382 8.49109275,5.09090909 9.54545455,5.09090909 C10.5998163,5.09090909 11.4545455,5.9456382 11.4545455,7 C11.4545455,8.0543618 10.5998163,8.90909091 9.54545455,8.90909091 Z M9.54545455,7.63636364 C9.89690848,7.63636364 10.1818182,7.35145393 10.1818182,7 C10.1818182,6.64854607 9.89690848,6.36363636 9.54545455,6.36363636 C9.19400061,6.36363636 8.90909091,6.64854607 8.90909091,7 C8.90909091,7.35145393 9.19400061,7.63636364 9.54545455,7.63636364 Z M8.90909091,8.90909091 L10.1818182,8.90909091 C11.23618,8.90909091 12.0909091,9.76382002 12.0909091,10.8181818 L12.0909091,11.4545455 C12.0909091,12.5089072 11.23618,13.3636364 10.1818182,13.3636364 L8.90909091,13.3636364 C7.85472911,13.3636364 7,12.5089072 7,11.4545455 L7,10.8181818 C7,9.76382002 7.85472911,8.90909091 8.90909091,8.90909091 Z M8.90909091,10.1818182 C8.55763698,10.1818182 8.27272727,10.4667279 8.27272727,10.8181818 L8.27272727,11.4545455 C8.27272727,11.8059994 8.55763698,12.0909091 8.90909091,12.0909091 L10.1818182,12.0909091 C10.5332721,12.0909091 10.8181818,11.8059994 10.8181818,11.4545455 L10.8181818,10.8181818 C10.8181818,10.4667279 10.5332721,10.1818182 10.1818182,10.1818182 L8.90909091,10.1818182 Z" id="Shape-Copy"></path>
                                <g id="Group-3" transform="translate(1.590909, 8.909091)" fill-rule="nonzero">
                                    <path d="M0.648495107,0 C1.00664907,0 1.29699021,0.27817299 1.29699021,0.621316763 C1.29699021,1.28565837 1.83355298,1.8299312 2.51412951,1.87803794 L2.61229202,1.88149445 L3.155,1.881 L2.85650803,1.58263271 C2.60325493,1.32937962 2.59465075,0.927379412 2.83729004,0.684740123 C3.06259795,0.459432212 3.42531399,0.450757707 3.67874964,0.653436624 L3.73518262,0.703958115 L4.66092536,1.62970086 C4.90822447,1.87699996 5.04672054,2.20422316 5.0539034,2.5398169 C5.06028817,2.83812244 4.96254093,3.12536476 4.7743336,3.35192051 L4.69954223,3.43393731 L3.81259725,4.3208823 C3.56995796,4.56352158 3.16795775,4.5549174 2.91470466,4.3016643 C2.67954107,4.06650072 2.65532476,3.7030807 2.8473357,3.45809277 L2.89548667,3.40377172 L3.174,3.124 L2.61229202,3.12412797 C1.16956298,3.12412797 0,2.00358123 0,0.621316763 C0,0.27817299 0.290341149,0 0.648495107,0 Z" id="Combined-Shape"></path>
                                </g>
                                <g id="Group-4" transform="translate(5.409091, 0.000000)" fill-rule="nonzero">
                                    <path d="M2.23440106,2.87191275 C2.48765416,3.12516584 2.49625834,3.52716604 2.25361905,3.76980533 C2.02831114,3.99511324 1.6655951,4.00378775 1.41215945,3.80110883 L1.35572647,3.75058734 L0.429983727,2.8248446 C0.182684624,2.57754549 0.0441885497,2.25032229 0.0370056888,1.91472856 C0.0306209236,1.61642301 0.128368157,1.32918069 0.316575493,1.10262495 L0.391366858,1.02060815 L1.27831185,0.133663159 C1.52095113,-0.10897613 1.92295134,-0.100371942 2.17620443,0.15288115 C2.41136802,0.388044736 2.43558433,0.751464759 2.24357339,0.996452688 L2.19542242,1.05077373 L1.915,1.33 L2.47861707,1.33041748 C3.92134612,1.33041748 5.09090909,2.45096423 5.09090909,3.83322869 C5.09090909,4.17637246 4.80056794,4.45454545 4.44241398,4.45454545 C4.10984245,4.45454545 3.83574217,4.21469221 3.79828178,3.90568735 L3.79391888,3.83322869 C3.79391888,3.16888709 3.25735611,2.62461425 2.57677959,2.57650751 L2.47861707,2.57305101 L1.936,2.573 L2.23440106,2.87191275 Z" id="Combined-Shape"></path>
                                </g>
                            </g>
                        </g>
                    </g>
                </g>
            </g>
        </g>
    </g>
</svg>