<?xml version="1.0" encoding="UTF-8"?>
<svg width="106px" height="42px" viewBox="0 0 106 42" version="1.1" xmlns="http://www.w3.org/2000/svg" xmlns:xlink="http://www.w3.org/1999/xlink">
    <title>Patient Care Center</title>
    <g id="Side-panel-" stroke="none" stroke-width="1" fill="none" fill-rule="evenodd">
        <g id="Hover/My-Patient-Care-Center" transform="translate(-122.000000, -667.000000)">
            <g id="Business-location" transform="translate(85.000000, 644.000000)">
                <g id="Patient-Care-Center" transform="translate(37.000000, 23.000000)">
                    <g id="Group-15" transform="translate(32.000000, 0.000000)">
                        <rect id="Rectangle" fill="#EFF3F6" x="0" y="0" width="42" height="42" rx="10"></rect>
                        <g id="Group" transform="translate(9.000000, 9.000000)">
                            <g id="medical_information_black_24dp" transform="translate(0.480000, 0.000000)">
                                <rect id="Rectangle" x="0" y="0" width="23.04" height="24"></rect>
                                <path d="M19.2,7 L14.4,7 L14.4,4 C14.4,2.9 13.536,2 12.48,2 L10.56,2 C9.504,2 8.64,2.9 8.64,4 L8.64,7 L3.84,7 C2.784,7 1.92,7.9 1.92,9 L1.92,20 C1.92,21.1 2.784,22 3.84,22 L19.2,22 C20.256,22 21.12,21.1 21.12,20 L21.12,9 C21.12,7.9 20.256,7 19.2,7 Z M10.56,4 L12.48,4 L12.48,9 L10.56,9 L10.56,4 Z M19.2,20 L3.84,20 L3.84,9 L8.64,9 C8.64,10.1 9.504,11 10.56,11 L12.48,11 C13.536,11 14.4,10.1 14.4,9 L19.2,9 L19.2,20 Z M10.56,16 L8.64,16 L8.64,18 L6.72,18 L6.72,16 L4.8,16 L4.8,14 L6.72,14 L6.72,12 L8.64,12 L8.64,14 L10.56,14 L10.56,16 Z M12.48,14.5 L12.48,13 L18.24,13 L18.24,14.5 L12.48,14.5 Z M12.48,17.5 L12.48,16 L16.32,16 L16.32,17.5 L12.48,17.5 Z" id="Shape" fill="#5C63AB" fill-rule="nonzero"></path>
                            </g>
                        </g>
                    </g>
                    <g id="Group-15-Copy" opacity="0.497827439" transform="translate(82.000000, 9.000000)">
                        <rect id="Rectangle" fill="#EFF3F6" opacity="0.3" x="0" y="0" width="24" height="24" rx="6"></rect>
                        <g id="medical_information_black_24dp" transform="translate(5.000000, 5.000000)">
                            <rect id="Rectangle" x="0" y="0" width="14" height="14"></rect>
                            <path d="M11.6666667,4.08333333 L8.75,4.08333333 L8.75,2.33333333 C8.75,1.69166667 8.225,1.16666667 7.58333333,1.16666667 L6.41666667,1.16666667 C5.775,1.16666667 5.25,1.69166667 5.25,2.33333333 L5.25,4.08333333 L2.33333333,4.08333333 C1.69166667,4.08333333 1.16666667,4.60833333 1.16666667,5.25 L1.16666667,11.6666667 C1.16666667,12.3083333 1.69166667,12.8333333 2.33333333,12.8333333 L11.6666667,12.8333333 C12.3083333,12.8333333 12.8333333,12.3083333 12.8333333,11.6666667 L12.8333333,5.25 C12.8333333,4.60833333 12.3083333,4.08333333 11.6666667,4.08333333 Z M6.41666667,2.33333333 L7.58333333,2.33333333 L7.58333333,5.25 L6.41666667,5.25 L6.41666667,2.33333333 Z M11.6666667,11.6666667 L2.33333333,11.6666667 L2.33333333,5.25 L5.25,5.25 C5.25,5.89166667 5.775,6.41666667 6.41666667,6.41666667 L7.58333333,6.41666667 C8.225,6.41666667 8.75,5.89166667 8.75,5.25 L11.6666667,5.25 L11.6666667,11.6666667 Z M6.41666667,9.33333333 L5.25,9.33333333 L5.25,10.5 L4.08333333,10.5 L4.08333333,9.33333333 L2.91666667,9.33333333 L2.91666667,8.16666667 L4.08333333,8.16666667 L4.08333333,7 L5.25,7 L5.25,8.16666667 L6.41666667,8.16666667 L6.41666667,9.33333333 Z M7.58333333,8.45833333 L7.58333333,7.58333333 L11.0833333,7.58333333 L11.0833333,8.45833333 L7.58333333,8.45833333 Z M7.58333333,10.2083333 L7.58333333,9.33333333 L9.91666667,9.33333333 L9.91666667,10.2083333 L7.58333333,10.2083333 Z" id="Shape" fill="#FFFFFF" fill-rule="nonzero"></path>
                        </g>
                    </g>
                    <g id="Group-15-Copy-2" opacity="0.497827439" transform="translate(0.000000, 9.000000)">
                        <rect id="Rectangle" fill="#EFF3F6" opacity="0.3" x="0" y="0" width="24" height="24" rx="6"></rect>
                        <g id="medical_information_black_24dp" transform="translate(5.000000, 5.000000)">
                            <rect id="Rectangle" x="0" y="0" width="14" height="14"></rect>
                            <path d="M11.6666667,4.08333333 L8.75,4.08333333 L8.75,2.33333333 C8.75,1.69166667 8.225,1.16666667 7.58333333,1.16666667 L6.41666667,1.16666667 C5.775,1.16666667 5.25,1.69166667 5.25,2.33333333 L5.25,4.08333333 L2.33333333,4.08333333 C1.69166667,4.08333333 1.16666667,4.60833333 1.16666667,5.25 L1.16666667,11.6666667 C1.16666667,12.3083333 1.69166667,12.8333333 2.33333333,12.8333333 L11.6666667,12.8333333 C12.3083333,12.8333333 12.8333333,12.3083333 12.8333333,11.6666667 L12.8333333,5.25 C12.8333333,4.60833333 12.3083333,4.08333333 11.6666667,4.08333333 Z M6.41666667,2.33333333 L7.58333333,2.33333333 L7.58333333,5.25 L6.41666667,5.25 L6.41666667,2.33333333 Z M11.6666667,11.6666667 L2.33333333,11.6666667 L2.33333333,5.25 L5.25,5.25 C5.25,5.89166667 5.775,6.41666667 6.41666667,6.41666667 L7.58333333,6.41666667 C8.225,6.41666667 8.75,5.89166667 8.75,5.25 L11.6666667,5.25 L11.6666667,11.6666667 Z M6.41666667,9.33333333 L5.25,9.33333333 L5.25,10.5 L4.08333333,10.5 L4.08333333,9.33333333 L2.91666667,9.33333333 L2.91666667,8.16666667 L4.08333333,8.16666667 L4.08333333,7 L5.25,7 L5.25,8.16666667 L6.41666667,8.16666667 L6.41666667,9.33333333 Z M7.58333333,8.45833333 L7.58333333,7.58333333 L11.0833333,7.58333333 L11.0833333,8.45833333 L7.58333333,8.45833333 Z M7.58333333,10.2083333 L7.58333333,9.33333333 L9.91666667,9.33333333 L9.91666667,10.2083333 L7.58333333,10.2083333 Z" id="Shape" fill="#FFFFFF" fill-rule="nonzero"></path>
                        </g>
                    </g>
                </g>
            </g>
        </g>
    </g>
</svg>