<?xml version="1.0" encoding="UTF-8"?>
<svg width="106px" height="42px" viewBox="0 0 106 42" version="1.1" xmlns="http://www.w3.org/2000/svg" xmlns:xlink="http://www.w3.org/1999/xlink">
    <title>Practice Management</title>
    <g id="Side-panel-" stroke="none" stroke-width="1" fill="none" fill-rule="evenodd">
        <g id="Hover/Practice-Calendar" transform="translate(-122.000000, -609.000000)">
            <g id="Business-location" transform="translate(85.000000, 586.000000)">
                <g id="Practice-Management" transform="translate(37.000000, 23.000000)">
                    <g id="Group-15" transform="translate(32.000000, 0.000000)">
                        <rect id="Rectangle" fill="#EFF3F6" x="0" y="0" width="42" height="42" rx="10"></rect>
                        <g id="Group" transform="translate(9.000000, 9.000000)">
                            <g id="Group-59" transform="translate(0.480000, 0.000000)">
                                <rect id="Icon-Spacing" opacity="0.2" x="0" y="0" width="23.04" height="24" rx="5"></rect>
                                <g id="noun-doctor-1137135" transform="translate(4.320000, 2.000000)" fill="#5C63AB">
                                    <path d="M10.464,13.4 C11.808,12.3 12.768,10.7 12.768,8.7 L12.768,3.1 C12.768,2.7 12.48,2.3 12,2.3 L9.696,2.3 C9.504,1 8.448,0 7.2,0 C5.952,0 4.8,1 4.704,2.3 L2.304,2.3 C1.92,2.3 1.536,2.6 1.536,3.1 L1.536,8.7 C1.536,10.6 2.4,12.3 3.84,13.4 C1.632,14.3 0,16.5 0,19.1 C0,19.5 0.288,19.9 0.768,19.9 L13.632,19.9 C14.016,19.9 14.4,19.6 14.4,19.1 C14.304,16.5 12.672,14.3 10.464,13.4 L10.464,13.4 Z M7.104,1.6 C7.68,1.6 8.16,2.1 8.16,2.7 C8.16,3.3 7.68,3.8 7.104,3.8 C6.528,3.8 6.048,3.3 6.048,2.7 C6.048,2.1 6.528,1.6 7.104,1.6 Z M4.896,4 C5.28,4.8 6.144,5.4 7.104,5.4 C8.064,5.4 8.928,4.8 9.312,4 L11.136,4 L11.136,6.5 L2.976,6.5 L2.976,4 L4.896,4 Z M2.976,8.8 L2.976,8 L11.136,8 L11.136,8.7 C11.136,11 9.312,12.9 7.008,12.9 C4.896,13 2.976,11.1 2.976,8.8 L2.976,8.8 Z M1.536,18.4 C1.92,16.2 3.744,14.6 5.952,14.6 L8.352,14.6 C10.56,14.6 12.384,16.2 12.768,18.4 L1.536,18.4 Z" id="Shape"></path>
                                </g>
                            </g>
                        </g>
                    </g>
                    <g id="Group-15-Copy" opacity="0.497827439" transform="translate(82.000000, 9.000000)">
                        <rect id="Rectangle" fill="#EFF3F6" opacity="0.3" x="0" y="0" width="24" height="24" rx="6"></rect>
                        <g id="Group" transform="translate(5.000000, 5.000000)">
                            <g id="Group-59" transform="translate(0.280000, 0.000000)">
                                <rect id="Icon-Spacing" opacity="0.2" x="0" y="0" width="13.44" height="14" rx="5"></rect>
                                <g id="noun-doctor-1137135" transform="translate(2.520000, 1.166667)" fill="#FFFFFF">
                                    <path d="M6.104,7.81666667 C6.888,7.175 7.448,6.24166667 7.448,5.075 L7.448,1.80833333 C7.448,1.575 7.28,1.34166667 7,1.34166667 L5.656,1.34166667 C5.544,0.583333333 4.928,0 4.2,0 C3.472,0 2.8,0.583333333 2.744,1.34166667 L1.344,1.34166667 C1.12,1.34166667 0.896,1.51666667 0.896,1.80833333 L0.896,5.075 C0.896,6.18333333 1.4,7.175 2.24,7.81666667 C0.952,8.34166667 0,9.625 0,11.1416667 C0,11.375 0.168,11.6083333 0.448,11.6083333 L7.952,11.6083333 C8.176,11.6083333 8.4,11.4333333 8.4,11.1416667 C8.344,9.625 7.392,8.34166667 6.104,7.81666667 L6.104,7.81666667 Z M4.144,0.933333333 C4.48,0.933333333 4.76,1.225 4.76,1.575 C4.76,1.925 4.48,2.21666667 4.144,2.21666667 C3.808,2.21666667 3.528,1.925 3.528,1.575 C3.528,1.225 3.808,0.933333333 4.144,0.933333333 Z M2.856,2.33333333 C3.08,2.8 3.584,3.15 4.144,3.15 C4.704,3.15 5.208,2.8 5.432,2.33333333 L6.496,2.33333333 L6.496,3.79166667 L1.736,3.79166667 L1.736,2.33333333 L2.856,2.33333333 Z M1.736,5.13333333 L1.736,4.66666667 L6.496,4.66666667 L6.496,5.075 C6.496,6.41666667 5.432,7.525 4.088,7.525 C2.856,7.58333333 1.736,6.475 1.736,5.13333333 L1.736,5.13333333 Z M0.896,10.7333333 C1.12,9.45 2.184,8.51666667 3.472,8.51666667 L4.872,8.51666667 C6.16,8.51666667 7.224,9.45 7.448,10.7333333 L0.896,10.7333333 Z" id="Shape"></path>
                                </g>
                            </g>
                        </g>
                    </g>
                    <g id="Group-15-Copy-2" opacity="0.497827439" transform="translate(0.000000, 9.000000)">
                        <rect id="Rectangle" fill="#EFF3F6" opacity="0.3" x="0" y="0" width="24" height="24" rx="6"></rect>
                        <g id="Group" transform="translate(5.000000, 5.000000)">
                            <g id="Group-59" transform="translate(0.280000, 0.000000)">
                                <rect id="Icon-Spacing" opacity="0.2" x="0" y="0" width="13.44" height="14" rx="5"></rect>
                                <g id="noun-doctor-1137135" transform="translate(2.520000, 1.166667)" fill="#FFFFFF">
                                    <path d="M6.104,7.81666667 C6.888,7.175 7.448,6.24166667 7.448,5.075 L7.448,1.80833333 C7.448,1.575 7.28,1.34166667 7,1.34166667 L5.656,1.34166667 C5.544,0.583333333 4.928,0 4.2,0 C3.472,0 2.8,0.583333333 2.744,1.34166667 L1.344,1.34166667 C1.12,1.34166667 0.896,1.51666667 0.896,1.80833333 L0.896,5.075 C0.896,6.18333333 1.4,7.175 2.24,7.81666667 C0.952,8.34166667 0,9.625 0,11.1416667 C0,11.375 0.168,11.6083333 0.448,11.6083333 L7.952,11.6083333 C8.176,11.6083333 8.4,11.4333333 8.4,11.1416667 C8.344,9.625 7.392,8.34166667 6.104,7.81666667 L6.104,7.81666667 Z M4.144,0.933333333 C4.48,0.933333333 4.76,1.225 4.76,1.575 C4.76,1.925 4.48,2.21666667 4.144,2.21666667 C3.808,2.21666667 3.528,1.925 3.528,1.575 C3.528,1.225 3.808,0.933333333 4.144,0.933333333 Z M2.856,2.33333333 C3.08,2.8 3.584,3.15 4.144,3.15 C4.704,3.15 5.208,2.8 5.432,2.33333333 L6.496,2.33333333 L6.496,3.79166667 L1.736,3.79166667 L1.736,2.33333333 L2.856,2.33333333 Z M1.736,5.13333333 L1.736,4.66666667 L6.496,4.66666667 L6.496,5.075 C6.496,6.41666667 5.432,7.525 4.088,7.525 C2.856,7.58333333 1.736,6.475 1.736,5.13333333 L1.736,5.13333333 Z M0.896,10.7333333 C1.12,9.45 2.184,8.51666667 3.472,8.51666667 L4.872,8.51666667 C6.16,8.51666667 7.224,9.45 7.448,10.7333333 L0.896,10.7333333 Z" id="Shape"></path>
                                </g>
                            </g>
                        </g>
                    </g>
                </g>
            </g>
        </g>
    </g>
</svg>