<?xml version="1.0" encoding="UTF-8"?>
<svg width="106px" height="42px" viewBox="0 0 106 42" version="1.1" xmlns="http://www.w3.org/2000/svg" xmlns:xlink="http://www.w3.org/1999/xlink">
    <title>Scheduling</title>
    <g id="Side-panel-" stroke="none" stroke-width="1" fill="none" fill-rule="evenodd">
        <g id="Hover/Scheduling" transform="translate(-122.000000, -493.000000)">
            <g id="Business-location" transform="translate(85.000000, 470.000000)">
                <g id="Scheduling" transform="translate(37.000000, 23.000000)">
                    <g id="Group-15" transform="translate(32.000000, 0.000000)">
                        <rect id="Rectangle" fill="#EFF3F6" x="0" y="0" width="42" height="42" rx="10"></rect>
                        <g id="Group" transform="translate(9.000000, 9.000000)">
                            <g id="Group-14" transform="translate(0.480000, 0.000000)">
                                <rect id="Icon-Spacing" opacity="0.2" x="0" y="0" width="23.04" height="24" rx="5"></rect>
                                <g id="folder" transform="translate(1.920000, 4.000000)" stroke="#5C63AB" stroke-linecap="round" stroke-width="2">
                                    <path d="M0,6.5 L19.2,6.5 M19.2,5 L19.2,13 C19.2,14.6569 17.910624,16 16.32,16 L2.88,16 C1.289424,16 0,14.6569 0,13 L0,3 C0,1.34315 1.289424,0 2.88,0 L5.5665024,0 C6.0024768,0 6.425472,0.15456 6.7659168,0.43826 L8.114112,1.56174 C8.454528,1.84544 8.877504,2 9.313536,2 L16.32,2 C17.910624,2 19.2,3.34315 19.2,5 Z" id="Shape"></path>
                                </g>
                            </g>
                        </g>
                    </g>
                    <g id="Group-15-Copy" opacity="0.497827439" transform="translate(82.000000, 9.000000)">
                        <rect id="Rectangle" fill="#EFF3F6" opacity="0.3" x="0" y="0" width="24" height="24" rx="6"></rect>
                        <g id="Group-14" transform="translate(5.000000, 5.000000)">
                            <rect id="Icon-Spacing" opacity="0.2" x="0" y="0" width="14" height="14" rx="5"></rect>
                            <g id="folder" transform="translate(1.166667, 2.333333)" stroke="#FFFFFF" stroke-linecap="round" stroke-width="2">
                                <path d="M0,3.79166667 L11.6666667,3.79166667 M11.6666667,2.91666667 L11.6666667,7.58333333 C11.6666667,8.54985833 10.8831917,9.33333333 9.91666667,9.33333333 L1.75,9.33333333 C0.783504167,9.33333333 0,8.54985833 0,7.58333333 L0,1.75 C0,0.783504167 0.783504167,0 1.75,0 L3.38242333,0 C3.64733833,0 3.90436667,0.09016 4.11123417,0.255651667 L4.93045,0.911015 C5.1373,1.07650667 5.39431667,1.16666667 5.65926667,1.16666667 L9.91666667,1.16666667 C10.8831917,1.16666667 11.6666667,1.95017083 11.6666667,2.91666667 Z" id="Shape"></path>
                            </g>
                        </g>
                    </g>
                    <g id="Group-15-Copy-2" opacity="0.497827439" transform="translate(0.000000, 9.000000)">
                        <rect id="Rectangle" fill="#EFF3F6" opacity="0.3" x="0" y="0" width="24" height="24" rx="6"></rect>
                        <g id="Group-14" transform="translate(5.000000, 5.000000)">
                            <rect id="Icon-Spacing" opacity="0.2" x="0" y="0" width="14" height="14" rx="5"></rect>
                            <g id="folder" transform="translate(1.166667, 2.333333)" stroke="#FFFFFF" stroke-linecap="round" stroke-width="2">
                                <path d="M0,3.79166667 L11.6666667,3.79166667 M11.6666667,2.91666667 L11.6666667,7.58333333 C11.6666667,8.54985833 10.8831917,9.33333333 9.91666667,9.33333333 L1.75,9.33333333 C0.783504167,9.33333333 0,8.54985833 0,7.58333333 L0,1.75 C0,0.783504167 0.783504167,0 1.75,0 L3.38242333,0 C3.64733833,0 3.90436667,0.09016 4.11123417,0.255651667 L4.93045,0.911015 C5.1373,1.07650667 5.39431667,1.16666667 5.65926667,1.16666667 L9.91666667,1.16666667 C10.8831917,1.16666667 11.6666667,1.95017083 11.6666667,2.91666667 Z" id="Shape"></path>
                            </g>
                        </g>
                    </g>
                </g>
            </g>
        </g>
    </g>
</svg>