<?xml version="1.0" encoding="UTF-8"?>
<svg width="106px" height="42px" viewBox="0 0 106 42" version="1.1" xmlns="http://www.w3.org/2000/svg" xmlns:xlink="http://www.w3.org/1999/xlink">
    <title>Settings</title>
    <g id="Side-panel-" stroke="none" stroke-width="1" fill="none" fill-rule="evenodd">
        <g id="Hover/Settings" transform="translate(-122.000000, -899.000000)">
            <g id="Business-location" transform="translate(85.000000, 876.000000)">
                <g id="Settings" transform="translate(37.000000, 23.000000)">
                    <g id="Group-15" transform="translate(32.000000, 0.000000)">
                        <rect id="Rectangle" fill="#EFF3F6" x="0" y="0" width="42" height="42" rx="10"></rect>
                        <g id="Group" transform="translate(9.000000, 9.000000)" fill="#5C63AB">
                            <g id="ic_cettings" transform="translate(0.480000, 0.000000)">
                                <rect id="Icon-Spacing" opacity="0" x="0" y="0" width="23.04" height="24" rx="5"></rect>
                                <path d="M11.52,1 C12.8680251,1 14.0317732,1.97583981 14.3094805,3.33906813 L14.3635667,3.60456997 C15.377964,3.97100667 16.3189743,4.53018512 17.1357094,5.25659712 L17.3831026,5.17297607 C18.6643388,4.73990725 20.0639646,5.29353062 20.7379771,6.5 C21.4119897,7.70646938 21.176112,9.23593256 20.1725832,10.1660921 L19.9788123,10.3456961 C20.1791765,11.4398721 20.1772617,12.5616563 19.9771363,13.6527504 L20.1725832,13.8339079 C21.176112,14.7640674 21.4119897,16.2935306 20.7379771,17.5 C20.0639646,18.7064694 18.6643388,19.2600928 17.3831026,18.8270239 L17.1349452,18.7431446 C16.7305313,19.1020768 16.2921667,19.4233955 15.8234367,19.7030681 C15.3547067,19.9827406 14.8662599,20.2144133 14.3632685,20.3968937 L14.3094805,20.6609319 C14.0317732,22.0241602 12.8680251,23 11.52,23 C10.1719749,23 9.00822676,22.0241602 8.73051946,20.6609319 L8.67643329,20.39543 C7.66203599,20.0289933 6.72102574,19.4698149 5.90429064,18.7434029 L5.65689738,18.8270239 C4.37566124,19.2600928 2.97603544,18.7064694 2.30202288,17.5 C1.62801033,16.2935306 1.863888,14.7640674 2.86741684,13.8339079 L3.06118773,13.6543039 C2.86082354,12.5601279 2.86273829,11.4383437 3.06286374,10.3472496 L2.86741684,10.1660921 C1.863888,9.23593256 1.62801033,7.70646938 2.30202288,6.5 C2.97603544,5.29353062 4.37566124,4.73990725 5.65689738,5.17297607 L5.90505478,5.2568554 C6.30946868,4.89792321 6.74783334,4.57660445 7.21656332,4.29693193 C7.6852933,4.01725941 8.17374008,3.78558668 8.67673146,3.60310626 L8.73051946,3.33906813 C9.00822676,1.97583981 10.1719749,1 11.52,1 Z M11.52,3 C11.0871409,3 10.7134542,3.31334814 10.6242807,3.75108909 L10.4537226,4.58833634 C10.3790155,4.95506343 10.1121655,5.24783893 9.76240458,5.34681839 C9.21514112,5.50168945 8.68585865,5.72966298 8.18419997,6.02898274 C7.6825413,6.3283025 7.22685872,6.68801842 6.82344536,7.10037836 C6.56562034,7.36392123 6.18685004,7.45636169 5.84217997,7.33986025 L5.05528945,7.0738845 C4.64387669,6.93482345 4.19444828,7.1125953 3.97801872,7.5 C3.76158917,7.8874047 3.83733093,8.37852469 4.15957018,8.67720459 L4.7774673,9.24992642 C5.04757924,9.50029012 5.15946183,9.88577875 5.0672735,10.2484464 C4.77557608,11.39598 4.77248826,12.6029051 5.06549958,13.7523709 C5.15799202,14.1152132 5.04615491,14.5010301 4.77586369,14.7515599 L4.15957018,15.3227954 C3.83733093,15.6214753 3.76158917,16.1125953 3.97801872,16.5 C4.19444828,16.8874047 4.64387669,17.0651766 5.05528945,16.9261155 L5.84213034,16.6601565 C6.18721945,16.5435134 6.56645176,16.6363288 6.82426662,16.9005297 C7.64101088,17.7375049 8.65395552,18.3382039 9.76143503,18.6509044 C10.1114439,18.7497305 10.3785413,19.0426087 10.4532896,19.4095381 L10.6242807,20.2489109 C10.7134542,20.6866519 11.0871409,21 11.52,21 C11.9528591,21 12.3265458,20.6866519 12.4157193,20.2489109 L12.5862774,19.4116637 C12.6609845,19.0449366 12.9278345,18.7521611 13.2775954,18.6531816 C13.8248589,18.4983105 14.3541414,18.270337 14.8558,17.9710173 C15.3574587,17.6716975 15.8131413,17.3119816 16.2165546,16.8996216 C16.4743797,16.6360788 16.85315,16.5436383 17.19782,16.6601398 L17.9847105,16.9261155 C18.3961233,17.0651766 18.8455517,16.8874047 19.0619813,16.5 C19.2784108,16.1125953 19.2026691,15.6214753 18.8804298,15.3227954 L18.2625327,14.7500736 C17.9924208,14.4997099 17.8805382,14.1142212 17.9727265,13.7515536 C18.2644239,12.60402 18.2675117,11.3970949 17.9745004,10.2476291 C17.882008,9.88478681 17.9938451,9.49896992 18.2641363,9.24844006 L18.8804298,8.67720459 C19.2026691,8.37852469 19.2784108,7.8874047 19.0619813,7.5 C18.8455517,7.1125953 18.3961233,6.93482345 17.9847105,7.0738845 L17.1978697,7.33984347 C16.8527806,7.45648656 16.4735482,7.36367124 16.2157334,7.09947025 C15.3989891,6.26249509 14.3860445,5.6617961 13.278565,5.34909564 C12.9285561,5.25026949 12.6614587,4.95739134 12.5867104,4.59046192 L12.4157193,3.75108909 C12.3265458,3.31334814 11.9528591,3 11.52,3 Z M11.52,8.36842105 C13.4607556,8.36842105 15.0340489,9.99433433 15.0340489,12 C15.0340489,14.0056657 13.4607556,15.6315789 11.52,15.6315789 C9.57924439,15.6315789 8.00595112,14.0056657 8.00595112,12 C8.00595112,9.99433433 9.57924439,8.36842105 11.52,8.36842105 Z M11.52,10.3684211 C10.6480663,10.3684211 9.94122441,11.0989038 9.94122441,12 C9.94122441,12.9010962 10.6480663,13.6315789 11.52,13.6315789 C12.3919337,13.6315789 13.0987756,12.9010962 13.0987756,12 C13.0987756,11.0989038 12.3919337,10.3684211 11.52,10.3684211 Z" id="Combined-Shape"></path>
                            </g>
                        </g>
                    </g>
                    <g id="Group-15-Copy" opacity="0.497827439" transform="translate(82.000000, 9.000000)">
                        <rect id="Rectangle" fill="#EFF3F6" opacity="0.3" x="0" y="0" width="24" height="24" rx="6"></rect>
                        <g id="Group" transform="translate(5.000000, 5.000000)">
                            <g id="ic_cettings" transform="translate(0.280000, 0.000000)">
                                <rect id="Icon-Spacing" fill="#5C63AB" opacity="0" x="0" y="0" width="13.44" height="14" rx="5"></rect>
                                <path d="M6.72,0.583333333 C7.50634798,0.583333333 8.18520106,1.15257322 8.34719698,1.94778974 L8.37874725,2.10266581 C8.97047901,2.31642056 9.51940165,2.64260799 9.99583046,3.06634832 L10.1401432,3.01756937 C10.8875309,2.7649459 11.7039793,3.08789286 12.0971533,3.79166667 C12.4903273,4.49544047 12.352732,5.38762733 11.7673402,5.93022037 L11.6543072,6.03498939 C11.7711863,6.67325872 11.7700693,7.32763287 11.6533295,7.96410441 L11.7673402,8.06977963 C12.352732,8.61237267 12.4903273,9.50455953 12.0971533,10.2083333 C11.7039793,10.9121071 10.8875309,11.2350541 10.1401432,10.9824306 L9.99538471,10.933501 C9.7594766,11.1428781 9.50376388,11.3303141 9.23033806,11.4934564 C8.95691224,11.6565987 8.67198495,11.7917411 8.37857331,11.898188 L8.34719698,12.0522103 C8.18520106,12.8474268 7.50634798,13.4166667 6.72,13.4166667 C5.93365202,13.4166667 5.25479894,12.8474268 5.09280302,12.0522103 L5.06125275,11.8973342 C4.46952099,11.6835794 3.92059835,11.357392 3.44416954,10.9336517 L3.2998568,10.9824306 C2.55246905,11.2350541 1.73602067,10.9121071 1.34284668,10.2083333 C0.949672692,9.50455953 1.087268,8.61237267 1.67265982,8.06977963 L1.78569284,7.96501061 C1.66881373,7.32674128 1.66993067,6.67236713 1.78667052,6.03589559 L1.67265982,5.93022037 C1.087268,5.38762733 0.949672692,4.49544047 1.34284668,3.79166667 C1.73602067,3.08789286 2.55246905,2.7649459 3.2998568,3.01756937 L3.44461529,3.06649899 C3.6805234,2.85712187 3.93623612,2.66968593 4.20966194,2.50654363 C4.48308776,2.34340133 4.76801505,2.20825889 5.06142669,2.10181199 L5.09280302,1.94778974 C5.25479894,1.15257322 5.93365202,0.583333333 6.72,0.583333333 Z M6.72,1.75 C6.46749885,1.75 6.24951497,1.93278641 6.19749709,2.1881353 L6.09800485,2.67652953 C6.05442573,2.89045366 5.89876319,3.06123938 5.694736,3.11897739 C5.37549899,3.20931885 5.06675088,3.34230341 4.77411665,3.5169066 C4.48148242,3.69150979 4.21566759,3.90134408 3.98034313,4.14188738 C3.8299452,4.29562072 3.60899586,4.34954432 3.40793831,4.28158514 L2.94891885,4.12643262 C2.70892807,4.04531368 2.4467615,4.14901392 2.32051092,4.375 C2.19426035,4.60098608 2.23844304,4.88747273 2.42641594,5.06170268 L2.78685592,5.39579041 C2.94442123,5.5418359 3.00968607,5.76670427 2.95590954,5.97826039 C2.78575271,6.64765502 2.78395148,7.35169466 2.95487475,8.02221636 C3.00882868,8.23387436 2.94359036,8.45893421 2.78592049,8.60507663 L2.42641594,8.93829732 C2.23844304,9.11252727 2.19426035,9.39901392 2.32051092,9.625 C2.4467615,9.85098608 2.70892807,9.95468632 2.94891885,9.87356738 L3.40790936,9.71842464 C3.60921135,9.65038284 3.83043019,9.70452511 3.9808222,9.85864235 C4.45725635,10.3468779 5.04814072,10.6972856 5.69417044,10.8796942 C5.89834229,10.9373428 6.05414909,11.1081884 6.09775226,11.3222305 L6.19749709,11.8118647 C6.24951497,12.0672136 6.46749885,12.25 6.72,12.25 C6.97250115,12.25 7.19048503,12.0672136 7.24250291,11.8118647 L7.34199515,11.3234705 C7.38557427,11.1095463 7.54123681,10.9387606 7.745264,10.8810226 C8.06450101,10.7906812 8.37324912,10.6576966 8.66588335,10.4830934 C8.95851758,10.3084902 9.22433241,10.0986559 9.45965687,9.85811262 C9.6100548,9.70437928 9.83100414,9.65045568 10.0320617,9.71841486 L10.4910812,9.87356738 C10.7310719,9.95468632 10.9932385,9.85098608 11.1194891,9.625 C11.2457397,9.39901392 11.201557,9.11252727 11.0135841,8.93829732 L10.6531441,8.60420959 C10.4955788,8.4581641 10.4303139,8.23329573 10.4840905,8.02173961 C10.6542473,7.35234498 10.6560485,6.64830534 10.4851252,5.97778364 C10.4311713,5.76612564 10.4964096,5.54106579 10.6540795,5.39492337 L11.0135841,5.06170268 C11.201557,4.88747273 11.2457397,4.60098608 11.1194891,4.375 C10.9932385,4.14901392 10.7310719,4.04531368 10.4910812,4.12643262 L10.0320906,4.28157536 C9.83078865,4.34961716 9.60956981,4.29547489 9.4591778,4.14135765 C8.98274365,3.65312213 8.39185928,3.30271439 7.74582956,3.12030579 C7.54165771,3.0626572 7.38585091,2.89181161 7.34224774,2.67776945 L7.24250291,2.1881353 C7.19048503,1.93278641 6.97250115,1.75 6.72,1.75 Z M6.72,4.88157895 C7.85210744,4.88157895 8.76986185,5.83002836 8.76986185,7 C8.76986185,8.16997164 7.85210744,9.11842105 6.72,9.11842105 C5.58789256,9.11842105 4.67013815,8.16997164 4.67013815,7 C4.67013815,5.83002836 5.58789256,4.88157895 6.72,4.88157895 Z M6.72,6.04824561 C6.21137202,6.04824561 5.79904758,6.47436057 5.79904758,7 C5.79904758,7.52563943 6.21137202,7.95175439 6.72,7.95175439 C7.22862798,7.95175439 7.64095242,7.52563943 7.64095242,7 C7.64095242,6.47436057 7.22862798,6.04824561 6.72,6.04824561 Z" id="Combined-Shape" fill="#FFFFFF"></path>
                            </g>
                        </g>
                    </g>
                    <g id="Group-15-Copy-2" opacity="0.497827439" transform="translate(0.000000, 9.000000)">
                        <rect id="Rectangle" fill="#EFF3F6" opacity="0.3" x="0" y="0" width="24" height="24" rx="6"></rect>
                        <g id="Group" transform="translate(5.000000, 5.000000)">
                            <g id="ic_cettings" transform="translate(0.280000, 0.000000)">
                                <rect id="Icon-Spacing" fill="#5C63AB" opacity="0" x="0" y="0" width="13.44" height="14" rx="5"></rect>
                                <path d="M6.72,0.583333333 C7.50634798,0.583333333 8.18520106,1.15257322 8.34719698,1.94778974 L8.37874725,2.10266581 C8.97047901,2.31642056 9.51940165,2.64260799 9.99583046,3.06634832 L10.1401432,3.01756937 C10.8875309,2.7649459 11.7039793,3.08789286 12.0971533,3.79166667 C12.4903273,4.49544047 12.352732,5.38762733 11.7673402,5.93022037 L11.6543072,6.03498939 C11.7711863,6.67325872 11.7700693,7.32763287 11.6533295,7.96410441 L11.7673402,8.06977963 C12.352732,8.61237267 12.4903273,9.50455953 12.0971533,10.2083333 C11.7039793,10.9121071 10.8875309,11.2350541 10.1401432,10.9824306 L9.99538471,10.933501 C9.7594766,11.1428781 9.50376388,11.3303141 9.23033806,11.4934564 C8.95691224,11.6565987 8.67198495,11.7917411 8.37857331,11.898188 L8.34719698,12.0522103 C8.18520106,12.8474268 7.50634798,13.4166667 6.72,13.4166667 C5.93365202,13.4166667 5.25479894,12.8474268 5.09280302,12.0522103 L5.06125275,11.8973342 C4.46952099,11.6835794 3.92059835,11.357392 3.44416954,10.9336517 L3.2998568,10.9824306 C2.55246905,11.2350541 1.73602067,10.9121071 1.34284668,10.2083333 C0.949672692,9.50455953 1.087268,8.61237267 1.67265982,8.06977963 L1.78569284,7.96501061 C1.66881373,7.32674128 1.66993067,6.67236713 1.78667052,6.03589559 L1.67265982,5.93022037 C1.087268,5.38762733 0.949672692,4.49544047 1.34284668,3.79166667 C1.73602067,3.08789286 2.55246905,2.7649459 3.2998568,3.01756937 L3.44461529,3.06649899 C3.6805234,2.85712187 3.93623612,2.66968593 4.20966194,2.50654363 C4.48308776,2.34340133 4.76801505,2.20825889 5.06142669,2.10181199 L5.09280302,1.94778974 C5.25479894,1.15257322 5.93365202,0.583333333 6.72,0.583333333 Z M6.72,1.75 C6.46749885,1.75 6.24951497,1.93278641 6.19749709,2.1881353 L6.09800485,2.67652953 C6.05442573,2.89045366 5.89876319,3.06123938 5.694736,3.11897739 C5.37549899,3.20931885 5.06675088,3.34230341 4.77411665,3.5169066 C4.48148242,3.69150979 4.21566759,3.90134408 3.98034313,4.14188738 C3.8299452,4.29562072 3.60899586,4.34954432 3.40793831,4.28158514 L2.94891885,4.12643262 C2.70892807,4.04531368 2.4467615,4.14901392 2.32051092,4.375 C2.19426035,4.60098608 2.23844304,4.88747273 2.42641594,5.06170268 L2.78685592,5.39579041 C2.94442123,5.5418359 3.00968607,5.76670427 2.95590954,5.97826039 C2.78575271,6.64765502 2.78395148,7.35169466 2.95487475,8.02221636 C3.00882868,8.23387436 2.94359036,8.45893421 2.78592049,8.60507663 L2.42641594,8.93829732 C2.23844304,9.11252727 2.19426035,9.39901392 2.32051092,9.625 C2.4467615,9.85098608 2.70892807,9.95468632 2.94891885,9.87356738 L3.40790936,9.71842464 C3.60921135,9.65038284 3.83043019,9.70452511 3.9808222,9.85864235 C4.45725635,10.3468779 5.04814072,10.6972856 5.69417044,10.8796942 C5.89834229,10.9373428 6.05414909,11.1081884 6.09775226,11.3222305 L6.19749709,11.8118647 C6.24951497,12.0672136 6.46749885,12.25 6.72,12.25 C6.97250115,12.25 7.19048503,12.0672136 7.24250291,11.8118647 L7.34199515,11.3234705 C7.38557427,11.1095463 7.54123681,10.9387606 7.745264,10.8810226 C8.06450101,10.7906812 8.37324912,10.6576966 8.66588335,10.4830934 C8.95851758,10.3084902 9.22433241,10.0986559 9.45965687,9.85811262 C9.6100548,9.70437928 9.83100414,9.65045568 10.0320617,9.71841486 L10.4910812,9.87356738 C10.7310719,9.95468632 10.9932385,9.85098608 11.1194891,9.625 C11.2457397,9.39901392 11.201557,9.11252727 11.0135841,8.93829732 L10.6531441,8.60420959 C10.4955788,8.4581641 10.4303139,8.23329573 10.4840905,8.02173961 C10.6542473,7.35234498 10.6560485,6.64830534 10.4851252,5.97778364 C10.4311713,5.76612564 10.4964096,5.54106579 10.6540795,5.39492337 L11.0135841,5.06170268 C11.201557,4.88747273 11.2457397,4.60098608 11.1194891,4.375 C10.9932385,4.14901392 10.7310719,4.04531368 10.4910812,4.12643262 L10.0320906,4.28157536 C9.83078865,4.34961716 9.60956981,4.29547489 9.4591778,4.14135765 C8.98274365,3.65312213 8.39185928,3.30271439 7.74582956,3.12030579 C7.54165771,3.0626572 7.38585091,2.89181161 7.34224774,2.67776945 L7.24250291,2.1881353 C7.19048503,1.93278641 6.97250115,1.75 6.72,1.75 Z M6.72,4.88157895 C7.85210744,4.88157895 8.76986185,5.83002836 8.76986185,7 C8.76986185,8.16997164 7.85210744,9.11842105 6.72,9.11842105 C5.58789256,9.11842105 4.67013815,8.16997164 4.67013815,7 C4.67013815,5.83002836 5.58789256,4.88157895 6.72,4.88157895 Z M6.72,6.04824561 C6.21137202,6.04824561 5.79904758,6.47436057 5.79904758,7 C5.79904758,7.52563943 6.21137202,7.95175439 6.72,7.95175439 C7.22862798,7.95175439 7.64095242,7.52563943 7.64095242,7 C7.64095242,6.47436057 7.22862798,6.04824561 6.72,6.04824561 Z" id="Combined-Shape" fill="#FFFFFF"></path>
                            </g>
                        </g>
                    </g>
                </g>
            </g>
        </g>
    </g>
</svg>