<?xml version="1.0" encoding="UTF-8"?>
<svg width="106px" height="42px" viewBox="0 0 106 42" version="1.1" xmlns="http://www.w3.org/2000/svg" xmlns:xlink="http://www.w3.org/1999/xlink">
    <title>Staff</title>
    <g id="Side-panel-" stroke="none" stroke-width="1" fill="none" fill-rule="evenodd">
        <g id="Hover/Staff" transform="translate(-122.000000, -261.000000)">
            <g id="Business-location" transform="translate(85.000000, 238.000000)">
                <g id="Staff" transform="translate(37.000000, 23.000000)">
                    <g id="Group-15" transform="translate(32.000000, 0.000000)">
                        <rect id="Rectangle" fill="#EFF3F6" x="0" y="0" width="42" height="42" rx="10"></rect>
                        <g id="Group" transform="translate(9.000000, 9.000000)" fill="#5C63AB">
                            <g id="Component/icon/ic_Notification" transform="translate(1.440000, 1.000000)">
                                <path d="M10.56,6 C8.96941992,6 7.68,4.65685425 7.68,3 C7.68,1.34314575 8.96941992,0 10.56,0 C12.1505801,0 13.44,1.34314575 13.44,3 C13.44,4.65685425 12.1505801,6 10.56,6 Z M10.56,4 C11.0901934,4 11.52,3.55228475 11.52,3 C11.52,2.44771525 11.0901934,2 10.56,2 C10.0298066,2 9.6,2.44771525 9.6,3 C9.6,3.55228475 10.0298066,4 10.56,4 Z M9.6,6 L11.52,6 C13.1105801,6 14.4,7.34314575 14.4,9 L14.4,10 C14.4,11.6568542 13.1105801,13 11.52,13 L9.6,13 C8.00941992,13 6.72,11.6568542 6.72,10 L6.72,9 C6.72,7.34314575 8.00941992,6 9.6,6 Z M9.6,8 C9.06980664,8 8.64,8.44771525 8.64,9 L8.64,10 C8.64,10.5522847 9.06980664,11 9.6,11 L11.52,11 C12.0501934,11 12.48,10.5522847 12.48,10 L12.48,9 C12.48,8.44771525 12.0501934,8 11.52,8 L9.6,8 Z M17.28,15 C15.6894199,15 14.4,13.6568542 14.4,12 C14.4,10.3431458 15.6894199,9 17.28,9 C18.8705801,9 20.16,10.3431458 20.16,12 C20.16,13.6568542 18.8705801,15 17.28,15 Z M17.28,13 C17.8101934,13 18.24,12.5522847 18.24,12 C18.24,11.4477153 17.8101934,11 17.28,11 C16.7498066,11 16.32,11.4477153 16.32,12 C16.32,12.5522847 16.7498066,13 17.28,13 Z M16.32,15 L18.24,15 C19.8305801,15 21.12,16.3431458 21.12,18 L21.12,19 C21.12,20.6568542 19.8305801,22 18.24,22 L16.32,22 C14.7294199,22 13.44,20.6568542 13.44,19 L13.44,18 C13.44,16.3431458 14.7294199,15 16.32,15 Z M16.32,17 C15.7898066,17 15.36,17.4477153 15.36,18 L15.36,19 C15.36,19.5522847 15.7898066,20 16.32,20 L18.24,20 C18.7701934,20 19.2,19.5522847 19.2,19 L19.2,18 C19.2,17.4477153 18.7701934,17 18.24,17 L16.32,17 Z M3.84,15 C2.24941992,15 0.96,13.6568542 0.96,12 C0.96,10.3431458 2.24941992,9 3.84,9 C5.43058008,9 6.72,10.3431458 6.72,12 C6.72,13.6568542 5.43058008,15 3.84,15 Z M3.84,13 C4.37019336,13 4.8,12.5522847 4.8,12 C4.8,11.4477153 4.37019336,11 3.84,11 C3.30980664,11 2.88,11.4477153 2.88,12 C2.88,12.5522847 3.30980664,13 3.84,13 Z M2.88,15 L4.8,15 C6.39058008,15 7.68,16.3431458 7.68,18 L7.68,19 C7.68,20.6568542 6.39058008,22 4.8,22 L2.88,22 C1.28941992,22 0,20.6568542 0,19 L0,18 C0,16.3431458 1.28941992,15 2.88,15 Z M2.88,17 C2.34980664,17 1.92,17.4477153 1.92,18 L1.92,19 C1.92,19.5522847 2.34980664,20 2.88,20 L4.8,20 C5.33019336,20 5.76,19.5522847 5.76,19 L5.76,18 C5.76,17.4477153 5.33019336,17 4.8,17 L2.88,17 Z" id="Shape"></path>
                            </g>
                        </g>
                    </g>
                    <g id="Group-15-Copy" opacity="0.497827439" transform="translate(82.000000, 9.000000)">
                        <rect id="Rectangle" fill="#EFF3F6" opacity="0.3" x="0" y="0" width="24" height="24" rx="6"></rect>
                        <g id="Component/icon/ic_Notification" transform="translate(5.000000, 5.000000)" fill="#FFFFFF">
                            <path d="M7,3.81818182 C5.9456382,3.81818182 5.09090909,2.9634527 5.09090909,1.90909091 C5.09090909,0.854729114 5.9456382,0 7,0 C8.0543618,0 8.90909091,0.854729114 8.90909091,1.90909091 C8.90909091,2.9634527 8.0543618,3.81818182 7,3.81818182 Z M7,2.54545455 C7.35145393,2.54545455 7.63636364,2.26054484 7.63636364,1.90909091 C7.63636364,1.55763698 7.35145393,1.27272727 7,1.27272727 C6.64854607,1.27272727 6.36363636,1.55763698 6.36363636,1.90909091 C6.36363636,2.26054484 6.64854607,2.54545455 7,2.54545455 Z M6.36363636,3.81818182 L7.63636364,3.81818182 C8.69072543,3.81818182 9.54545455,4.67291093 9.54545455,5.72727273 L9.54545455,6.36363636 C9.54545455,7.41799816 8.69072543,8.27272727 7.63636364,8.27272727 L6.36363636,8.27272727 C5.30927457,8.27272727 4.45454545,7.41799816 4.45454545,6.36363636 L4.45454545,5.72727273 C4.45454545,4.67291093 5.30927457,3.81818182 6.36363636,3.81818182 Z M6.36363636,5.09090909 C6.01218243,5.09090909 5.72727273,5.3758188 5.72727273,5.72727273 L5.72727273,6.36363636 C5.72727273,6.7150903 6.01218243,7 6.36363636,7 L7.63636364,7 C7.98781757,7 8.27272727,6.7150903 8.27272727,6.36363636 L8.27272727,5.72727273 C8.27272727,5.3758188 7.98781757,5.09090909 7.63636364,5.09090909 L6.36363636,5.09090909 Z M11.4545455,9.54545455 C10.4001837,9.54545455 9.54545455,8.69072543 9.54545455,7.63636364 C9.54545455,6.58200184 10.4001837,5.72727273 11.4545455,5.72727273 C12.5089072,5.72727273 13.3636364,6.58200184 13.3636364,7.63636364 C13.3636364,8.69072543 12.5089072,9.54545455 11.4545455,9.54545455 Z M11.4545455,8.27272727 C11.8059994,8.27272727 12.0909091,7.98781757 12.0909091,7.63636364 C12.0909091,7.2849097 11.8059994,7 11.4545455,7 C11.1030915,7 10.8181818,7.2849097 10.8181818,7.63636364 C10.8181818,7.98781757 11.1030915,8.27272727 11.4545455,8.27272727 Z M10.8181818,9.54545455 L12.0909091,9.54545455 C13.1452709,9.54545455 14,10.4001837 14,11.4545455 L14,12.0909091 C14,13.1452709 13.1452709,14 12.0909091,14 L10.8181818,14 C9.76382002,14 8.90909091,13.1452709 8.90909091,12.0909091 L8.90909091,11.4545455 C8.90909091,10.4001837 9.76382002,9.54545455 10.8181818,9.54545455 Z M10.8181818,10.8181818 C10.4667279,10.8181818 10.1818182,11.1030915 10.1818182,11.4545455 L10.1818182,12.0909091 C10.1818182,12.442363 10.4667279,12.7272727 10.8181818,12.7272727 L12.0909091,12.7272727 C12.442363,12.7272727 12.7272727,12.442363 12.7272727,12.0909091 L12.7272727,11.4545455 C12.7272727,11.1030915 12.442363,10.8181818 12.0909091,10.8181818 L10.8181818,10.8181818 Z M2.54545455,9.54545455 C1.49109275,9.54545455 0.636363636,8.69072543 0.636363636,7.63636364 C0.636363636,6.58200184 1.49109275,5.72727273 2.54545455,5.72727273 C3.59981634,5.72727273 4.45454545,6.58200184 4.45454545,7.63636364 C4.45454545,8.69072543 3.59981634,9.54545455 2.54545455,9.54545455 Z M2.54545455,8.27272727 C2.89690848,8.27272727 3.18181818,7.98781757 3.18181818,7.63636364 C3.18181818,7.2849097 2.89690848,7 2.54545455,7 C2.19400061,7 1.90909091,7.2849097 1.90909091,7.63636364 C1.90909091,7.98781757 2.19400061,8.27272727 2.54545455,8.27272727 Z M1.90909091,9.54545455 L3.18181818,9.54545455 C4.23617998,9.54545455 5.09090909,10.4001837 5.09090909,11.4545455 L5.09090909,12.0909091 C5.09090909,13.1452709 4.23617998,14 3.18181818,14 L1.90909091,14 C0.854729114,14 0,13.1452709 0,12.0909091 L0,11.4545455 C0,10.4001837 0.854729114,9.54545455 1.90909091,9.54545455 Z M1.90909091,10.8181818 C1.55763698,10.8181818 1.27272727,11.1030915 1.27272727,11.4545455 L1.27272727,12.0909091 C1.27272727,12.442363 1.55763698,12.7272727 1.90909091,12.7272727 L3.18181818,12.7272727 C3.53327211,12.7272727 3.81818182,12.442363 3.81818182,12.0909091 L3.81818182,11.4545455 C3.81818182,11.1030915 3.53327211,10.8181818 3.18181818,10.8181818 L1.90909091,10.8181818 Z" id="Shape"></path>
                        </g>
                    </g>
                    <g id="Group-15-Copy-2" opacity="0.497827439" transform="translate(0.000000, 9.000000)">
                        <rect id="Rectangle" fill="#EFF3F6" opacity="0.3" x="0" y="0" width="24" height="24" rx="6"></rect>
                        <g id="Component/icon/ic_Notification" transform="translate(5.000000, 5.000000)" fill="#FFFFFF">
                            <path d="M7,3.81818182 C5.9456382,3.81818182 5.09090909,2.9634527 5.09090909,1.90909091 C5.09090909,0.854729114 5.9456382,0 7,0 C8.0543618,0 8.90909091,0.854729114 8.90909091,1.90909091 C8.90909091,2.9634527 8.0543618,3.81818182 7,3.81818182 Z M7,2.54545455 C7.35145393,2.54545455 7.63636364,2.26054484 7.63636364,1.90909091 C7.63636364,1.55763698 7.35145393,1.27272727 7,1.27272727 C6.64854607,1.27272727 6.36363636,1.55763698 6.36363636,1.90909091 C6.36363636,2.26054484 6.64854607,2.54545455 7,2.54545455 Z M6.36363636,3.81818182 L7.63636364,3.81818182 C8.69072543,3.81818182 9.54545455,4.67291093 9.54545455,5.72727273 L9.54545455,6.36363636 C9.54545455,7.41799816 8.69072543,8.27272727 7.63636364,8.27272727 L6.36363636,8.27272727 C5.30927457,8.27272727 4.45454545,7.41799816 4.45454545,6.36363636 L4.45454545,5.72727273 C4.45454545,4.67291093 5.30927457,3.81818182 6.36363636,3.81818182 Z M6.36363636,5.09090909 C6.01218243,5.09090909 5.72727273,5.3758188 5.72727273,5.72727273 L5.72727273,6.36363636 C5.72727273,6.7150903 6.01218243,7 6.36363636,7 L7.63636364,7 C7.98781757,7 8.27272727,6.7150903 8.27272727,6.36363636 L8.27272727,5.72727273 C8.27272727,5.3758188 7.98781757,5.09090909 7.63636364,5.09090909 L6.36363636,5.09090909 Z M11.4545455,9.54545455 C10.4001837,9.54545455 9.54545455,8.69072543 9.54545455,7.63636364 C9.54545455,6.58200184 10.4001837,5.72727273 11.4545455,5.72727273 C12.5089072,5.72727273 13.3636364,6.58200184 13.3636364,7.63636364 C13.3636364,8.69072543 12.5089072,9.54545455 11.4545455,9.54545455 Z M11.4545455,8.27272727 C11.8059994,8.27272727 12.0909091,7.98781757 12.0909091,7.63636364 C12.0909091,7.2849097 11.8059994,7 11.4545455,7 C11.1030915,7 10.8181818,7.2849097 10.8181818,7.63636364 C10.8181818,7.98781757 11.1030915,8.27272727 11.4545455,8.27272727 Z M10.8181818,9.54545455 L12.0909091,9.54545455 C13.1452709,9.54545455 14,10.4001837 14,11.4545455 L14,12.0909091 C14,13.1452709 13.1452709,14 12.0909091,14 L10.8181818,14 C9.76382002,14 8.90909091,13.1452709 8.90909091,12.0909091 L8.90909091,11.4545455 C8.90909091,10.4001837 9.76382002,9.54545455 10.8181818,9.54545455 Z M10.8181818,10.8181818 C10.4667279,10.8181818 10.1818182,11.1030915 10.1818182,11.4545455 L10.1818182,12.0909091 C10.1818182,12.442363 10.4667279,12.7272727 10.8181818,12.7272727 L12.0909091,12.7272727 C12.442363,12.7272727 12.7272727,12.442363 12.7272727,12.0909091 L12.7272727,11.4545455 C12.7272727,11.1030915 12.442363,10.8181818 12.0909091,10.8181818 L10.8181818,10.8181818 Z M2.54545455,9.54545455 C1.49109275,9.54545455 0.636363636,8.69072543 0.636363636,7.63636364 C0.636363636,6.58200184 1.49109275,5.72727273 2.54545455,5.72727273 C3.59981634,5.72727273 4.45454545,6.58200184 4.45454545,7.63636364 C4.45454545,8.69072543 3.59981634,9.54545455 2.54545455,9.54545455 Z M2.54545455,8.27272727 C2.89690848,8.27272727 3.18181818,7.98781757 3.18181818,7.63636364 C3.18181818,7.2849097 2.89690848,7 2.54545455,7 C2.19400061,7 1.90909091,7.2849097 1.90909091,7.63636364 C1.90909091,7.98781757 2.19400061,8.27272727 2.54545455,8.27272727 Z M1.90909091,9.54545455 L3.18181818,9.54545455 C4.23617998,9.54545455 5.09090909,10.4001837 5.09090909,11.4545455 L5.09090909,12.0909091 C5.09090909,13.1452709 4.23617998,14 3.18181818,14 L1.90909091,14 C0.854729114,14 0,13.1452709 0,12.0909091 L0,11.4545455 C0,10.4001837 0.854729114,9.54545455 1.90909091,9.54545455 Z M1.90909091,10.8181818 C1.55763698,10.8181818 1.27272727,11.1030915 1.27272727,11.4545455 L1.27272727,12.0909091 C1.27272727,12.442363 1.55763698,12.7272727 1.90909091,12.7272727 L3.18181818,12.7272727 C3.53327211,12.7272727 3.81818182,12.442363 3.81818182,12.0909091 L3.81818182,11.4545455 C3.81818182,11.1030915 3.53327211,10.8181818 3.18181818,10.8181818 L1.90909091,10.8181818 Z" id="Shape"></path>
                        </g>
                    </g>
                </g>
            </g>
        </g>
    </g>
</svg>