<?xml version="1.0" encoding="UTF-8"?>
<svg width="106px" height="42px" viewBox="0 0 106 42" version="1.1" xmlns="http://www.w3.org/2000/svg" xmlns:xlink="http://www.w3.org/1999/xlink">
    <title>Work Calendar</title>
    <g id="Side-panel-" stroke="none" stroke-width="1" fill="none" fill-rule="evenodd">
        <g id="Hover/Work-Calendar" transform="translate(-122.000000, -551.000000)">
            <g id="Business-location" transform="translate(85.000000, 528.000000)">
                <g id="Work-Calendar" transform="translate(37.000000, 23.000000)">
                    <g id="Group-15" transform="translate(32.000000, 0.000000)">
                        <rect id="Rectangle" fill="#EFF3F6" x="0" y="0" width="42" height="42" rx="10"></rect>
                        <g id="Group" transform="translate(9.000000, 9.000000)">
                            <g id="Group-59" transform="translate(0.480000, 0.000000)">
                                <rect id="Icon-Spacing" opacity="0.2" x="0" y="0" width="23.04" height="24" rx="5"></rect>
                                <g id="calendar" transform="translate(2.880000, 2.500000)" stroke="#5C63AB" stroke-linecap="round" stroke-linejoin="round" stroke-width="2">
                                    <path d="M2.88,3 L2.88,0 M6.72,3 L6.72,0 M10.56,3 L10.56,0 M14.4,3 L14.4,0 M17.28,7 L0,7 M1.92,18 L15.36,18 C16.420416,18 17.28,17.1046 17.28,16 L17.28,4 C17.28,2.89543 16.420416,2 15.36,2 L1.92,2 C0.8596128,2 0,2.89543 0,4 L0,16 C0,17.1046 0.8596128,18 1.92,18 Z" id="Shape"></path>
                                </g>
                            </g>
                        </g>
                    </g>
                    <g id="Group-15-Copy" opacity="0.497827439" transform="translate(82.000000, 9.000000)">
                        <rect id="Rectangle" fill="#EFF3F6" opacity="0.3" x="0" y="0" width="24" height="24" rx="6"></rect>
                        <g id="Group-59" transform="translate(5.000000, 5.000000)">
                            <rect id="Icon-Spacing" opacity="0.2" x="0" y="0" width="14" height="14" rx="5"></rect>
                            <g id="calendar" transform="translate(1.750000, 1.458333)" stroke="#FFFFFF" stroke-linecap="round" stroke-linejoin="round" stroke-width="2">
                                <path d="M1.75,1.75 L1.75,0 M4.08333333,1.75 L4.08333333,0 M6.41666667,1.75 L6.41666667,0 M8.75,1.75 L8.75,0 M10.5,4.08333333 L0,4.08333333 M1.16666667,10.5 L9.33333333,10.5 C9.97768333,10.5 10.5,9.97768333 10.5,9.33333333 L10.5,2.33333333 C10.5,1.68900083 9.97768333,1.16666667 9.33333333,1.16666667 L1.16666667,1.16666667 C0.522334167,1.16666667 0,1.68900083 0,2.33333333 L0,9.33333333 C0,9.97768333 0.522334167,10.5 1.16666667,10.5 Z" id="Shape"></path>
                            </g>
                        </g>
                    </g>
                    <g id="Group-15-Copy-2" opacity="0.497827439" transform="translate(0.000000, 9.000000)">
                        <rect id="Rectangle" fill="#EFF3F6" opacity="0.3" x="0" y="0" width="24" height="24" rx="6"></rect>
                        <g id="Group-59" transform="translate(5.000000, 5.000000)">
                            <rect id="Icon-Spacing" opacity="0.2" x="0" y="0" width="14" height="14" rx="5"></rect>
                            <g id="calendar" transform="translate(1.750000, 1.458333)" stroke="#FFFFFF" stroke-linecap="round" stroke-linejoin="round" stroke-width="2">
                                <path d="M1.75,1.75 L1.75,0 M4.08333333,1.75 L4.08333333,0 M6.41666667,1.75 L6.41666667,0 M8.75,1.75 L8.75,0 M10.5,4.08333333 L0,4.08333333 M1.16666667,10.5 L9.33333333,10.5 C9.97768333,10.5 10.5,9.97768333 10.5,9.33333333 L10.5,2.33333333 C10.5,1.68900083 9.97768333,1.16666667 9.33333333,1.16666667 L1.16666667,1.16666667 C0.522334167,1.16666667 0,1.68900083 0,2.33333333 L0,9.33333333 C0,9.97768333 0.522334167,10.5 1.16666667,10.5 Z" id="Shape"></path>
                            </g>
                        </g>
                    </g>
                </g>
            </g>
        </g>
    </g>
</svg>