<?xml version="1.0" encoding="UTF-8"?>
<svg width="14px" height="14px" viewBox="0 0 14 14" version="1.1" xmlns="http://www.w3.org/2000/svg" xmlns:xlink="http://www.w3.org/1999/xlink">
    <title>24H@3x</title>
    <g id="Scheduling-Rulesets-&amp;-Layouts" stroke="none" stroke-width="1" fill="none" fill-rule="evenodd">
        <g id="24H" fill="#4394AD" fill-rule="nonzero">
            <g id="Group-5">
                <path d="M7.00013125,4.30769231 L7.00770705,4.30769231 C7.74694786,4.30955299 8.41769824,4.61058671 8.90349381,5.09651134 C9.39126278,5.58241217 9.69230769,6.2569096 9.69230769,7 C9.69230769,7.7430904 9.39127299,8.41758783 8.90349381,8.90348866 C8.41759617,9.38938948 7.74694786,9.69043636 7.00770705,9.69230769 L6.92955718,9.69230769 L6.92198138,9.69044701 L6.88769193,9.69044701 L6.86097759,9.68858629 L6.8534018,9.68858629 L6.82668746,9.6867256 L6.81911166,9.6867256 L6.79239733,9.68486488 L6.78482153,9.68486488 L6.7581072,9.68300419 L6.7505314,9.68114347 L6.72381707,9.67928279 L6.71810205,9.67742207 L6.69138771,9.67556138 L6.68381192,9.67370066 L6.65709758,9.67183998 L6.64952178,9.66997925 L6.62280745,9.66612498 L6.61709243,9.66612498 L6.5903781,9.66227071 L6.5828023,9.66040999 L6.55608796,9.65655572 L6.55037294,9.65469504 L6.52365861,9.65084076 L6.51794359,9.64898008 L6.48936882,9.64512581 L6.4836538,9.64326509 L6.45693946,9.63755003 L6.45122444,9.63755003 L6.42451011,9.63183497 L6.41879509,9.62997428 L6.39208075,9.62425922 L6.38636573,9.62239854 L6.3596514,9.61668348 L6.35393638,9.61482276 L6.32722204,9.6091077 L6.32150702,9.60724698 L6.29479269,9.59967113 L6.28907767,9.59781041 L6.26236333,9.59023456 L6.25664831,9.59023456 L6.22993398,9.58265872 L6.22607973,9.580798 L6.1993654,9.57322215 L6.19365038,9.57136146 L6.16693604,9.56179213 L6.1630818,9.56179213 L6.13636746,9.5522228 L6.13065244,9.55036208 L6.10393811,9.54079275 L6.10008386,9.53893207 L6.07336953,9.52936273 L6.06951528,9.52936273 L6.04280095,9.51793262 L6.0389467,9.51607193 L6.01223237,9.5065026 L6.00837812,9.50464188 L5.98166379,9.49507255 L5.97780954,9.49321186 L5.95109521,9.48178174 L5.94724097,9.47992106 L5.92052663,9.46849094 L5.91667239,9.46663025 L5.88995805,9.45520014 L5.88809735,9.45333945 L5.86138301,9.44190933 L5.85752877,9.44004865 L5.83081443,9.42861853 L5.82895376,9.42675784 L5.80223943,9.41346727 L5.79838518,9.41160655 L5.77366466,9.39831599 L5.76981041,9.39831599 L5.74309608,9.38502542 L5.74123537,9.38316473 L5.71452104,9.36987417 L5.71266033,9.36801345 L5.68594599,9.35272906 L5.68408529,9.35272906 L5.65936476,9.33744467 L5.65551052,9.33558395 L5.63078999,9.32029956 L5.62892932,9.32029956 L5.60221499,9.30501517 L5.60035431,9.30315445 L5.57563379,9.28787006 L5.57377312,9.28600934 L5.54705878,9.26886416 L5.54519807,9.26886416 L5.52047755,9.25171898 L5.51861684,9.25171898 L5.49389632,9.23457381 L5.49203561,9.23271312 L5.46731509,9.21556794 L5.46545438,9.21556794 L5.44073386,9.19656232 L5.43887315,9.19656232 L5.41415263,9.17755669 L5.41229192,9.17755669 L5.36285155,9.13954476 L5.36099088,9.13954476 L5.33627036,9.12053913 L5.33627036,9.11867841 L5.31154983,9.09967279 L5.28682931,9.07867334 L5.26210879,9.05966771 L5.26210879,9.05780703 L5.21266842,9.01580745 L5.18980833,8.994808 L5.16508781,8.97380855 L5.16508781,8.97194783 L5.14222772,8.95094838 L5.09650619,8.90522655 C4.60873722,8.41932573 4.30769231,7.74482829 4.30769231,7.00173789 C4.30769231,6.2586475 4.60872701,5.58415006 5.09650619,5.09824924 C5.58240383,4.61047708 6.25689686,4.3094302 6.99998239,4.3094302 L7.00013125,4.30769231 Z M7.28587894,4.89831988 L7.28587894,9.10168012 C7.75649978,9.03881345 8.17955498,8.81964941 8.49958532,8.49962039 C8.88262822,8.11657498 9.12079666,7.58508161 9.12079666,7.00017012 C9.12079666,6.41525863 8.88262822,5.88362917 8.49958532,5.50071986 C8.17954817,5.18068062 7.75649978,4.96150298 7.28587894,4.89866012 L7.28587894,4.89831988 Z" id="Shape"></path>
                <path d="M6.46153846,0.437719879 C6.46153846,0.195447888 6.70221892,0 7,0 C7.29803113,0 7.53846154,0.195651154 7.53846154,0.437719879 L7.53846154,2.79304935 C7.53846154,3.03532134 7.29778108,3.23076923 7,3.23076923 C6.70196887,3.23076923 6.46153846,3.03511808 6.46153846,2.79304935 L6.46153846,0.437719879 Z" id="Path"></path>
                <path d="M6.46153846,11.2069506 C6.46153846,10.9646787 6.70221892,10.7692308 7,10.7692308 C7.29803113,10.7692308 7.53846154,10.9648819 7.53846154,11.2069506 L7.53846154,13.5622801 C7.53846154,13.8045521 7.29778108,14 7,14 C6.70196887,14 6.46153846,13.8043488 6.46153846,13.5622801 L6.46153846,11.2069506 Z" id="Path"></path>
                <path d="M13.5622801,6.46153846 C13.8045521,6.46153846 14,6.70221892 14,7 C14,7.29803113 13.8043488,7.53846154 13.5622801,7.53846154 L11.2069506,7.53846154 C10.9646787,7.53846154 10.7692308,7.29778108 10.7692308,7 C10.7692308,6.70196887 10.9648819,6.46153846 11.2069506,6.46153846 L13.5622801,6.46153846 Z" id="Path"></path>
                <path d="M2.79304935,6.46153846 C3.03532134,6.46153846 3.23076923,6.70221892 3.23076923,7 C3.23076923,7.29803113 3.03511808,7.53846154 2.79304935,7.53846154 L0.437719879,7.53846154 C0.195447888,7.53846154 0,7.29778108 0,7 C0,6.70196887 0.195651154,6.46153846 0.437719879,6.46153846 L2.79304935,6.46153846 Z" id="Path"></path>
                <path d="M11.7366739,11.2123152 C11.8826472,11.3557 11.8826472,11.5932936 11.7366739,11.7366739 C11.5932891,11.8826472 11.3556956,11.8826472 11.2123152,11.7366739 L9.79984628,10.324205 C9.6564615,10.1808202 9.6564615,9.9458151 9.79984628,9.79984628 C9.94581952,9.6564615 10.1808246,9.6564615 10.324205,9.79984628 L11.7366739,11.2123152 Z" id="Path"></path>
                <path d="M4.20015372,3.675795 C4.3435385,3.81917979 4.3435385,4.0541849 4.20015372,4.20015372 C4.05418048,4.3435385 3.81917537,4.3435385 3.675795,4.20015372 L2.26332608,2.78768479 C2.11735285,2.64171156 2.11735285,2.40670645 2.26332608,2.26332608 C2.40671087,2.11735285 2.64171598,2.11735285 2.78768479,2.26332608 L4.20015372,3.675795 Z" id="Path"></path>
                <path d="M11.2123152,2.26332608 C11.3557,2.11735285 11.5932936,2.11735285 11.7366739,2.26332608 C11.8826472,2.40671087 11.8826472,2.64430442 11.7366739,2.78768479 L10.324205,4.20015372 C10.1808202,4.3435385 9.9458151,4.3435385 9.79984628,4.20015372 C9.6564615,4.05418048 9.6564615,3.81917537 9.79984628,3.675795 L11.2123152,2.26332608 Z" id="Path"></path>
                <path d="M3.675795,9.79984628 C3.81917979,9.6564615 4.0541849,9.6564615 4.20015372,9.79984628 C4.3435385,9.94581952 4.3435385,10.1808246 4.20015372,10.324205 L2.78768479,11.7366739 C2.64171156,11.8826472 2.40670645,11.8826472 2.26332608,11.7366739 C2.11735285,11.5932891 2.11735285,11.358284 2.26332608,11.2123152 L3.675795,9.79984628 Z" id="Path"></path>
            </g>
        </g>
    </g>
</svg>