<?xml version="1.0" encoding="UTF-8"?>
<svg width="24px" height="24px" viewBox="0 0 24 24" version="1.1" xmlns="http://www.w3.org/2000/svg" xmlns:xlink="http://www.w3.org/1999/xlink">
    <title>Appointment Services</title>
    <g id="Create-Appointments" stroke="none" stroke-width="1" fill="none" fill-rule="evenodd">
        <g id="Practice-Calender-Schedule/Create-Appointment-/Appointment-Services" transform="translate(-520.000000, -235.000000)">
            <g id="Group-10" transform="translate(476.000000, 199.000000)">
                <g id="Group-4" transform="translate(26.000000, 18.000000)">
                    <g id="Appointment-Services" transform="translate(18.000000, 18.000000)">
                        <rect id="Rectangle" x="0" y="0" width="24" height="24"></rect>
                        <path d="M19,3 L4.99,3 C3.89,3 3,3.9 3,5 L3.01,19 C3.01,20.1 3.9,21 5,21 L15,21 L21,15 L21,5 C21,3.9 20.1,3 19,3 Z M8,8 L16,8 C16.55,8 17,8.45 17,9 L17,9 C17,9.55 16.55,10 16,10 L8,10 C7.45,10 7,9.55 7,9 L7,9 C7,8.45 7.45,8 8,8 Z M11,14 L8,14 C7.45,14 7,13.55 7,13 L7,13 C7,12.45 7.45,12 8,12 L11,12 C11.55,12 12,12.45 12,13 L12,13 C12,13.55 11.55,14 11,14 Z M14,19.5 L14,15 C14,14.45 14.45,14 15,14 L19.5,14 L14,19.5 Z" id="Shape" fill="#FFFFFF" fill-rule="nonzero"></path>
                    </g>
                </g>
            </g>
        </g>
    </g>
</svg>