<?xml version="1.0" encoding="UTF-8"?>
<svg width="14px" height="14px" viewBox="0 0 14 14" version="1.1" xmlns="http://www.w3.org/2000/svg" xmlns:xlink="http://www.w3.org/1999/xlink">
    <title>Day Shift@3x</title>
    <g id="Scheduling-Rulesets-&amp;-Layouts" stroke="none" stroke-width="1" fill="none" fill-rule="evenodd">
        <g id="Shift-Rulesets/Selection/add-staff" transform="translate(-152.000000, -293.000000)">
            <g id="Group-9-Copy" transform="translate(152.000000, 291.000000)">
                <g id="Day-Shift" transform="translate(0.000000, 2.000000)">
                    <g fill="#5C63AB" id="Icon-Spacing" opacity="0">
                        <rect x="0" y="0" width="14" height="14" rx="3.75"></rect>
                    </g>
                    <path d="M7,11.0833333 C7.3221661,11.0833333 7.58333333,11.3445006 7.58333333,11.6666667 L7.58333333,13.4166667 C7.58333333,13.7388328 7.3221661,14 7,14 C6.6778339,14 6.41666667,13.7388328 6.41666667,13.4166667 L6.41666667,11.6666667 C6.41666667,11.3445006 6.6778339,11.0833333 7,11.0833333 Z M3.94786406,9.76046928 C4.17566989,9.98827511 4.17566989,10.3576214 3.94786406,10.5854272 L2.71042719,11.8228641 C2.48262135,12.0506699 2.11327511,12.0506699 1.88546928,11.8228641 C1.65766344,11.5950582 1.65766344,11.225712 1.88546928,10.9979061 L3.12290614,9.76046928 C3.35071198,9.53266344 3.72005822,9.53266344 3.94786406,9.76046928 Z M10.7963047,9.69297125 L10.8770939,9.76046928 L12.1145307,10.9979061 C12.3423366,11.225712 12.3423366,11.5950582 12.1145307,11.8228641 C11.9120366,12.0253581 11.5977082,12.0478575 11.370362,11.8903621 L11.2895728,11.8228641 L10.0521359,10.5854272 C9.82433011,10.3576214 9.82433011,9.98827511 10.0521359,9.76046928 C10.25463,9.5579752 10.5689585,9.53547586 10.7963047,9.69297125 Z M7,3.20833333 C9.09407968,3.20833333 10.7916667,4.90592032 10.7916667,7 C10.7916667,9.09407968 9.09407968,10.7916667 7,10.7916667 C4.90592032,10.7916667 3.20833333,9.09407968 3.20833333,7 C3.20833333,4.90592032 4.90592032,3.20833333 7,3.20833333 Z M7,4.375 C5.55025253,4.375 4.375,5.55025253 4.375,7 C4.375,8.44974747 5.55025253,9.625 7,9.625 C8.44974747,9.625 9.625,8.44974747 9.625,7 C9.625,5.55025253 8.44974747,4.375 7,4.375 Z M2.33333333,6.41666667 C2.65549944,6.41666667 2.91666667,6.6778339 2.91666667,7 C2.91666667,7.3221661 2.65549944,7.58333333 2.33333333,7.58333333 L0.583333333,7.58333333 C0.261167229,7.58333333 -1.47393209e-12,7.3221661 -1.47393209e-12,7 C-1.47393209e-12,6.6778339 0.261167229,6.41666667 0.583333333,6.41666667 L2.33333333,6.41666667 Z M13.4166667,6.41666667 C13.7388328,6.41666667 14,6.6778339 14,7 C14,7.3221661 13.7388328,7.58333333 13.4166667,7.58333333 L11.6666667,7.58333333 C11.3445006,7.58333333 11.0833333,7.3221661 11.0833333,7 C11.0833333,6.6778339 11.3445006,6.41666667 11.6666667,6.41666667 L13.4166667,6.41666667 Z M12.1145307,2.17713594 C12.3423366,2.40494178 12.3423366,2.77428802 12.1145307,3.00209386 L10.8770939,4.23953072 C10.649288,4.46733656 10.2799418,4.46733656 10.0521359,4.23953072 C9.82433011,4.01172489 9.82433011,3.64237865 10.0521359,3.41457281 L11.2895728,2.17713594 C11.5173786,1.94933011 11.8867249,1.94933011 12.1145307,2.17713594 Z M2.62963799,2.10963792 L2.71042719,2.17713594 L3.94786406,3.41457281 C4.17566989,3.64237865 4.17566989,4.01172489 3.94786406,4.23953072 C3.74536998,4.4420248 3.43104151,4.46452414 3.20369535,4.30702875 L3.12290614,4.23953072 L1.88546928,3.00209386 C1.65766344,2.77428802 1.65766344,2.40494178 1.88546928,2.17713594 C2.08796335,1.97464187 2.40229182,1.95214252 2.62963799,2.10963792 Z M7,0 C7.3221661,-5.91809532e-17 7.58333333,0.261167229 7.58333333,0.583333333 L7.58333333,2.33333333 C7.58333333,2.65549944 7.3221661,2.91666667 7,2.91666667 C6.6778339,2.91666667 6.41666667,2.65549944 6.41666667,2.33333333 L6.41666667,0.583333333 C6.41666667,0.261167229 6.6778339,5.91809532e-17 7,0 Z" id="Combined-Shape" fill="#FFD764"></path>
                </g>
            </g>
        </g>
    </g>
</svg>