<?xml version="1.0" encoding="UTF-8"?>
<svg width="14px" height="14px" viewBox="0 0 14 14" version="1.1" xmlns="http://www.w3.org/2000/svg" xmlns:xlink="http://www.w3.org/1999/xlink">
    <title>Night Shift@3x</title>
    <g id="Scheduling-Rulesets-&amp;-Layouts" stroke="none" stroke-width="1" fill="none" fill-rule="evenodd">
        <g id="Shift-Rulesets/Selection/add-staff" transform="translate(-152.000000, -484.000000)">
            <g id="Group-9-Copy-4" transform="translate(152.000000, 482.000000)">
                <g id="ic_NightShift" transform="translate(0.000000, 2.000000)">
                    <rect id="Icon-Spacing" fill="#5C63AB" opacity="0" x="0" y="0" width="14" height="14" rx="3.75"></rect>
                    <path d="M4.8184432,0.0539496036 C1.95705182,1.04543768 0,3.7506466 0,6.83027697 C0,10.7898681 3.20633554,14 7.16208739,14 C10.2657979,14 12.9859906,12.0054053 13.9544379,9.10454277 C14.2250577,8.29362417 13.3523074,7.63324789 12.6372489,8.01350333 C11.929527,8.38988246 11.1407612,8.58930181 10.321757,8.58930181 C7.58838005,8.58930181 5.3720463,6.37036201 5.3720463,3.63295239 C5.3720463,2.83000418 5.56300021,2.0561973 5.9240822,1.35891237 C6.28371796,0.664427494 5.67132963,-0.166480631 4.9014837,0.0290249162 L4.8184432,0.0539496036 Z M4.19748009,1.89751319 L4.13906405,2.12065341 C4.019522,2.61076035 3.9580392,3.11758981 3.9580392,3.63295239 C3.9580392,7.15092484 6.80707328,10.0033089 10.321757,10.0033089 L10.5840078,9.99797182 C11.1068636,9.97665777 11.6193572,9.89171047 12.1173339,9.74525262 L12.047364,9.86398702 C11.0210986,11.520539 9.19379056,12.5859929 7.16208739,12.5859929 C3.98764491,12.5859929 1.41400711,10.0093079 1.41400711,6.83027697 C1.41400711,4.8130421 2.45967445,2.99603295 4.09155309,1.96309519 L4.19748009,1.89751319 Z" id="Path" fill="#173E67"></path>
                </g>
            </g>
        </g>
    </g>
</svg>