<?xml version="1.0" encoding="UTF-8"?>
<svg width="41px" height="40px" viewBox="0 0 41 40" version="1.1" xmlns="http://www.w3.org/2000/svg" xmlns:xlink="http://www.w3.org/1999/xlink">
    <title>Notifications@3x</title>
    <g id="Scheduling-Rulesets-&amp;-Layouts" stroke="none" stroke-width="1" fill="none" fill-rule="evenodd">
        <g id="Shift-Rulesets/Selection/add-staff" transform="translate(-1182.000000, -669.000000)">
            <g id="Group-27" transform="translate(1166.000000, 653.000000)">
                <g id="Notifications" transform="translate(16.000000, 16.000000)">
                    <rect id="Rectangle" fill="#5C63AB" x="0" y="0" width="40.7207207" height="40" rx="20"></rect>
                    <g id="Group-23" transform="translate(10.981982, 13.000000)" fill="#FFFFFF" fill-rule="nonzero">
                        <path d="M15,7 L15,7 C15,7.55 15.45,8 16,8 L18,8 C18.55,8 19,7.55 19,7 L19,7 C19,6.45 18.55,6 18,6 L16,6 C15.45,6 15,6.45 15,7 Z" id="Path"></path>
                        <path d="M14.2205535,10.5309882 C13.854686,11.0802515 13.9544681,11.8417301 14.4422914,12.2411943 C15.0298968,12.7280413 15.6507628,13.2523381 16.2383682,13.7516684 C16.7261916,14.1636159 17.413579,14.0512665 17.7683596,13.5020033 C17.7683596,13.48952 17.7794465,13.48952 17.7794465,13.4770367 C18.145314,12.9277734 18.0455319,12.1538115 17.5577086,11.7543473 C16.9701032,11.2550171 16.3492372,10.7307203 15.7727187,10.2438733 C15.2848953,9.83192581 14.5975079,9.95675838 14.2316404,10.5060217 C14.2316404,10.5185049 14.2205535,10.5309882 14.2205535,10.5309882 Z" id="Path"></path>
                        <path d="M17.7828452,0.520757644 C17.7828452,0.508327036 17.7717276,0.508327036 17.7717276,0.495896428 C17.4048489,-0.0510503254 16.7155615,-0.162925798 16.2375073,0.247284267 C15.6482778,0.744508589 15.0145781,1.26659413 14.4364661,1.76381845 C13.9472944,2.17402851 13.8583541,2.94472621 14.2252329,3.47924236 C14.2252329,3.49167296 14.2363504,3.49167296 14.2363504,3.50410357 C14.6032292,4.05105033 15.281399,4.1629258 15.7705707,3.75271573 C16.3598002,3.26792202 16.9823824,2.73340587 17.5716119,2.23618155 C18.0496661,1.8384021 18.1386064,1.0677044 17.7828452,0.520757644 Z" id="Path"></path>
                        <path d="M6,4.53846154 L2,4.53846154 C0.9,4.53846154 0,5.3 0,6.23076923 L0,7.92307692 C0,8.85384615 0.9,9.61538462 2,9.61538462 L3,9.61538462 L3,12.1538462 C3,12.6192308 3.45,13 4,13 L4,13 C4.55,13 5,12.6192308 5,12.1538462 L5,9.61538462 L6,9.61538462 L11,12.1538462 L11,2 L6,4.53846154 Z" id="Path"></path>
                        <path d="M14,7.0044843 C14,5.81165919 13.2266667,4.73542601 12,4 L12,10 C13.2266667,9.2735426 14,8.19730942 14,7.0044843 Z" id="Path"></path>
                    </g>
                </g>
            </g>
        </g>
    </g>
</svg>