<?xml version="1.0" encoding="UTF-8"?>
<svg width="24px" height="24px" viewBox="0 0 24 24" version="1.1" xmlns="http://www.w3.org/2000/svg" xmlns:xlink="http://www.w3.org/1999/xlink">
    <title>Patient</title>
    <g id="Create-Appointments" stroke="none" stroke-width="1" fill="none" fill-rule="evenodd">
        <g id="Practice-Calender-Schedule/Create-Appointment-/Search-&amp;-select-patient" transform="translate(-520.000000, -235.000000)">
            <g id="Group-4" transform="translate(502.000000, 217.000000)">
                <g id="id_User" transform="translate(18.000000, 18.000000)">
                    <rect id="Icon-Spacing" fill="#4394AD" opacity="0" x="0" y="0" width="24" height="24" rx="5"></rect>
                    <g id="Account-Icon" transform="translate(3.000000, 1.000000)" fill="#FFFFFF" fill-rule="nonzero">
                        <path d="M8.75,11.0833333 C13.4877368,11.0833333 17.3460204,14.8487201 17.4955042,19.5501471 L17.5,19.8333333 L17.5,20.0200838 C17.5,21.1246533 16.6045695,22.0200838 15.5,22.0200838 L2,22.0200838 C0.8954305,22.0200838 1.11632554e-15,21.1246533 0,20.0200838 L0,19.8333333 L0,19.8333333 C0,15.0008418 3.91750844,11.0833333 8.75,11.0833333 Z M8.75,13.4166667 C5.29260766,13.4166667 2.47387101,16.1510767 2.3384284,19.5752583 L2.33566667,19.6863333 L15.1631667,19.6863333 L15.1615716,19.5752583 C15.0295151,16.2366812 12.3466521,13.5538183 9.008075,13.4217617 L8.75,13.4166667 Z" id="Oval"></path>
                        <path d="M8.45833333,0 C11.5189113,0 14,2.48108868 14,5.54166667 C14,8.60224466 11.5189113,11.0833333 8.45833333,11.0833333 C5.39775534,11.0833333 2.91666667,8.60224466 2.91666667,5.54166667 C2.91666667,2.48108868 5.39775534,0 8.45833333,0 Z M8.45833333,2.33333333 C6.68641976,2.33333333 5.25,3.76975309 5.25,5.54166667 C5.25,7.31358024 6.68641976,8.75 8.45833333,8.75 C10.2302469,8.75 11.6666667,7.31358024 11.6666667,5.54166667 C11.6666667,3.76975309 10.2302469,2.33333333 8.45833333,2.33333333 Z" id="Oval"></path>
                    </g>
                </g>
            </g>
        </g>
    </g>
</svg>