<?xml version="1.0" encoding="UTF-8"?>
<svg width="14px" height="12px" viewBox="0 0 14 12" version="1.1" xmlns="http://www.w3.org/2000/svg" xmlns:xlink="http://www.w3.org/1999/xlink">
    <title>Swing Shift@3x</title>
    <g id="Scheduling-Rulesets-&amp;-Layouts" stroke="none" stroke-width="1" fill="none" fill-rule="evenodd">
        <g id="Shift-Rulesets/Selection/add-staff" transform="translate(-152.000000, -390.000000)" fill="#7954DA">
            <g id="Group-9-Copy-3" transform="translate(152.000000, 387.000000)">
                <g id="ic_SwingShift" transform="translate(0.000000, 2.000000)">
                    <rect id="Icon-Spacing" opacity="0" x="0" y="0" width="14" height="14" rx="3.75"></rect>
                    <path d="M9.33333333,11.6666667 C9.65549944,11.6666667 9.91666667,11.9278339 9.91666667,12.25 C9.91666667,12.5721661 9.65549944,12.8333333 9.33333333,12.8333333 L4.66666667,12.8333333 C4.34450056,12.8333333 4.08333333,12.5721661 4.08333333,12.25 C4.08333333,11.9278339 4.34450056,11.6666667 4.66666667,11.6666667 L9.33333333,11.6666667 Z M11.0833333,9.91666667 C11.4054994,9.91666667 11.6666667,10.1778339 11.6666667,10.5 C11.6666667,10.8221661 11.4054994,11.0833333 11.0833333,11.0833333 L2.91666667,11.0833333 C2.59450056,11.0833333 2.33333333,10.8221661 2.33333333,10.5 C2.33333333,10.1778339 2.59450056,9.91666667 2.91666667,9.91666667 L11.0833333,9.91666667 Z M7,4.66666667 C8.88906488,4.66666667 10.4285835,6.16325202 10.4975859,8.03545268 L10.5,8.16566667 L12.5416667,8.16666667 C12.8638328,8.16666667 13.125,8.4278339 13.125,8.75 C13.125,9.0721661 12.8638328,9.33333333 12.5416667,9.33333333 L1.45833333,9.33333333 C1.13616723,9.33333333 0.875,9.0721661 0.875,8.75 C0.875,8.4278339 1.13616723,8.16666667 1.45833333,8.16666667 L3.5,8.16566667 L3.50517886,7.97463146 C3.60487355,6.13094427 5.1314366,4.66666667 7,4.66666667 Z M7,5.83333333 C5.75038602,5.83333333 4.73020399,6.81564827 4.66952226,8.0502098 L4.666,8.16566667 L9.333,8.16566667 L9.32795027,8.00691234 C9.24585399,6.79276017 8.23497007,5.83333333 7,5.83333333 Z M2.33333333,6.41666667 C2.65549944,6.41666667 2.91666667,6.6778339 2.91666667,7 C2.91666667,7.3221661 2.65549944,7.58333333 2.33333333,7.58333333 L0.583333333,7.58333333 C0.261167229,7.58333333 -1.92912353e-12,7.3221661 -1.92912353e-12,7 C-1.92912353e-12,6.6778339 0.261167229,6.41666667 0.583333333,6.41666667 L2.33333333,6.41666667 Z M13.4166667,6.41666667 C13.7388328,6.41666667 14,6.6778339 14,7 C14,7.3221661 13.7388328,7.58333333 13.4166667,7.58333333 L11.6666667,7.58333333 C11.3445006,7.58333333 11.0833333,7.3221661 11.0833333,7 C11.0833333,6.6778339 11.3445006,6.41666667 11.6666667,6.41666667 L13.4166667,6.41666667 Z M11.5311974,3.05213594 C11.7590032,3.27994178 11.7590032,3.64928802 11.5311974,3.87709386 L10.2937605,5.11453072 C10.0659547,5.34233656 9.69660845,5.34233656 9.46880261,5.11453072 C9.24099677,4.88672489 9.24099677,4.51737865 9.46880261,4.28957281 L10.7062395,3.05213594 C10.9340453,2.82433011 11.3033916,2.82433011 11.5311974,3.05213594 Z M2.46880261,3.05213594 C2.69660845,2.82433011 3.06595469,2.82433011 3.29376052,3.05213594 L3.29376052,3.05213594 L4.53119739,4.28957281 C4.75900323,4.51737865 4.75900323,4.88672489 4.53119739,5.11453072 C4.30339155,5.34233656 3.93404531,5.34233656 3.70623948,5.11453072 L3.70623948,5.11453072 L2.46880261,3.87709386 C2.24099677,3.64928802 2.24099677,3.27994178 2.46880261,3.05213594 Z M7,1.16666667 C7.3221661,1.16666667 7.58333333,1.4278339 7.58333333,1.75 L7.58333333,3.5 C7.58333333,3.8221661 7.3221661,4.08333333 7,4.08333333 C6.6778339,4.08333333 6.41666667,3.8221661 6.41666667,3.5 L6.41666667,1.75 C6.41666667,1.4278339 6.6778339,1.16666667 7,1.16666667 Z" id="Combined-Shape"></path>
                </g>
            </g>
        </g>
    </g>
</svg>