<?xml version="1.0" encoding="UTF-8"?>
<svg width="100px" height="100px" viewBox="0 0 100 100" version="1.1" xmlns="http://www.w3.org/2000/svg" xmlns:xlink="http://www.w3.org/1999/xlink">
    <title>Comfirm@3x</title>
    <g id="Cases" stroke="none" stroke-width="1" fill="none" fill-rule="evenodd">
        <g id="Client-Cases/Case-Info/William-Carnes/Evaluations-Copy-12" transform="translate(-751.000000, -430.000000)">
            <g id="Group-49" transform="translate(525.000000, 380.000000)">
                <g id="Group-11-Copy" transform="translate(83.000000, 50.000000)">
                    <g id="Comfirm" transform="translate(143.000000, 0.000000)">
                        <circle id="Oval" fill-opacity="0.1" fill="#3D6083" cx="50" cy="50" r="50"></circle>
                        <g id="announcement_black_24dp" transform="translate(25.000000, 25.000000)">
                            <polygon id="Path" points="0 0 50 0 50 50 0 50"></polygon>
                            <path d="M41.6666667,4.16666667 L8.33333333,4.16666667 C6.04166667,4.16666667 4.1875,6.04166667 4.1875,8.33333333 L4.16666667,45.8333333 L12.5,37.5 L41.6666667,37.5 C43.9583333,37.5 45.8333333,35.625 45.8333333,33.3333333 L45.8333333,8.33333333 C45.8333333,6.04166667 43.9583333,4.16666667 41.6666667,4.16666667 Z M27.0833333,22.9166667 L22.9166667,22.9166667 L22.9166667,10.4166667 L27.0833333,10.4166667 L27.0833333,22.9166667 Z M27.0833333,31.25 L22.9166667,31.25 L22.9166667,27.0833333 L27.0833333,27.0833333 L27.0833333,31.25 Z" id="Shape" fill="#3D6083" fill-rule="nonzero"></path>
                        </g>
                    </g>
                </g>
            </g>
        </g>
    </g>
</svg>