<?xml version="1.0" encoding="UTF-8"?>
<svg width="14px" height="15px" viewBox="0 0 14 15" version="1.1" xmlns="http://www.w3.org/2000/svg" xmlns:xlink="http://www.w3.org/1999/xlink">
    <title>Date@3x</title>
    <g id="Cases" stroke="none" stroke-width="1" fill="none" fill-rule="evenodd">
        <g id="Client-Cases/Case-Info/Create-Case/Treatment-Plan-Copy-4" transform="translate(-804.000000, -581.000000)">
            <g id="Group-3" transform="translate(476.000000, 200.000000)">
                <g id="Group-23" transform="translate(25.000000, 243.000000)">
                    <g id="Group-32-Copy-3" transform="translate(0.000000, 73.000000)">
                        <g id="Group-7-Copy-7" transform="translate(20.000000, 20.000000)">
                            <g id="Dropdowns/1.-Simple/1.-Default" transform="translate(0.000000, 33.000000)">
                                <g id="Group-59" transform="translate(282.320000, 12.000000)">
                                    <rect id="Icon-Spacing" opacity="0.2" x="0" y="0" width="15.36" height="16" rx="5"></rect>
                                    <g id="calendar" transform="translate(1.920000, 1.666667)" stroke="#1F3D5A" stroke-linecap="round" stroke-linejoin="round" stroke-opacity="0.4" stroke-width="2">
                                        <path d="M1.92,2 L1.92,0 M4.48,2 L4.48,0 M7.04,2 L7.04,0 M9.6,2 L9.6,0 M11.52,4.66666667 L0,4.66666667 M1.28,12 L10.24,12 C10.946944,12 11.52,11.4030667 11.52,10.6666667 L11.52,2.66666667 C11.52,1.93028667 10.946944,1.33333333 10.24,1.33333333 L1.28,1.33333333 C0.5730752,1.33333333 0,1.93028667 0,2.66666667 L0,10.6666667 C0,11.4030667 0.5730752,12 1.28,12 Z" id="Shape"></path>
                                    </g>
                                </g>
                            </g>
                        </g>
                    </g>
                </g>
            </g>
        </g>
    </g>
</svg>