<?xml version="1.0" encoding="UTF-8"?>
<svg width="38px" height="38px" viewBox="0 0 38 38" version="1.1" xmlns="http://www.w3.org/2000/svg" xmlns:xlink="http://www.w3.org/1999/xlink">
    <title>Delete@3x</title>
    <defs>
        <path d="M6.409713,-2.58960077e-16 L25.590287,2.58960077e-16 C27.8190838,-1.50463262e-16 28.6272994,0.232064028 29.4421143,0.667831759 C30.2569291,1.10359949 30.8964005,1.74307093 31.3321682,2.55788574 C31.767936,3.37270056 32,4.18091615 32,6.409713 L32,25.590287 C32,27.8190838 31.767936,28.6272994 31.3321682,29.4421143 C30.8964005,30.2569291 30.2569291,30.8964005 29.4421143,31.3321682 C28.6272994,31.767936 27.8190838,32 25.590287,32 L6.409713,32 C4.18091615,32 3.37270056,31.767936 2.55788574,31.3321682 C1.74307093,30.8964005 1.10359949,30.2569291 0.667831759,29.4421143 C0.232064028,28.6272994 1.00308841e-16,27.8190838 -1.72640051e-16,25.590287 L1.72640051e-16,6.409713 C-1.00308841e-16,4.18091615 0.232064028,3.37270056 0.667831759,2.55788574 C1.10359949,1.74307093 1.74307093,1.10359949 2.55788574,0.667831759 C3.37270056,0.232064028 4.18091615,1.50463262e-16 6.409713,-2.58960077e-16 Z" id="path-1"></path>
        <filter x="-17.2%" y="-10.9%" width="134.4%" height="134.4%" filterUnits="objectBoundingBox" id="filter-2">
            <feOffset dx="0" dy="2" in="SourceAlpha" result="shadowOffsetOuter1"></feOffset>
            <feGaussianBlur stdDeviation="1.5" in="shadowOffsetOuter1" result="shadowBlurOuter1"></feGaussianBlur>
            <feComposite in="shadowBlurOuter1" in2="SourceAlpha" operator="out" result="shadowBlurOuter1"></feComposite>
            <feColorMatrix values="0 0 0 0 0.0784313725   0 0 0 0 0.196078431   0 0 0 0 0.31372549  0 0 0 0.05 0" type="matrix" in="shadowBlurOuter1"></feColorMatrix>
        </filter>
        <path d="M0.666666667,10.6666667 C0.666666667,11.4 1.26666667,12 2,12 L7.33333333,12 C8.06666667,12 8.66666667,11.4 8.66666667,10.6666667 L8.66666667,2.66666667 L0.666666667,2.66666667 L0.666666667,10.6666667 L0.666666667,10.6666667 Z M9.33333333,0.666666667 L7,0.666666667 L6.33333333,0 L3,0 L2.33333333,0.666666667 L-1.77635684e-15,0.666666667 L-1.77635684e-15,2 L9.33333333,2 L9.33333333,0.666666667 L9.33333333,0.666666667 Z" id="path-3"></path>
    </defs>
    <g id="Cases" stroke="none" stroke-width="1" fill="none" fill-rule="evenodd">
        <g id="Client-Cases/Case-Info/William-Carnes/Evaluations-Copy-9" transform="translate(-738.000000, -720.000000)">
            <g id="Group-3" transform="translate(438.000000, 29.000000)">
                <g id="Group-250-Copy-5" transform="translate(25.000000, 673.000000)">
                    <g id="Group-249" transform="translate(15.000000, 15.000000)">
                        <g id="Delete" transform="translate(263.000000, 4.000000)">
                            <g id="button-container">
                                <use fill="black" fill-opacity="1" filter="url(#filter-2)" xlink:href="#path-1"></use>
                                <path stroke-opacity="0.2" stroke="#1F3D5A" stroke-width="1" d="M6.409713,0.5 L25.590287,0.5 C27.6774852,0.5 28.441381,0.69964726 29.2063148,1.10873836 C29.9327066,1.49721692 30.5027831,2.06729342 30.8912616,2.79368517 C31.3003527,3.55861902 31.5,4.32251476 31.5,6.409713 L31.5,6.409713 L31.5,25.590287 C31.5,27.6774852 31.3003527,28.441381 30.8912616,29.2063148 C30.5027831,29.9327066 29.9327066,30.5027831 29.2063148,30.8912616 C28.441381,31.3003527 27.6774852,31.5 25.590287,31.5 L25.590287,31.5 L6.409713,31.5 C4.32251476,31.5 3.55861902,31.3003527 2.79368517,30.8912616 C2.06729342,30.5027831 1.49721692,29.9327066 1.10873836,29.2063148 C0.69964726,28.441381 0.5,27.6774852 0.5,25.590287 L0.5,25.590287 L0.5,6.409713 C0.5,4.32251476 0.69964726,3.55861902 1.10873836,2.79368517 C1.49721692,2.06729342 2.06729342,1.49721692 2.79368517,1.10873836 C3.55861902,0.69964726 4.32251476,0.5 6.409713,0.5 L6.409713,0.5 Z" stroke-linejoin="square" fill="#FFFFFF" fill-rule="evenodd"></path>
                            </g>
                            <g id="Material-Icons/ic_folder" transform="translate(11.333333, 10.000000)">
                                <mask id="mask-4" fill="white">
                                    <use xlink:href="#path-3"></use>
                                </mask>
                                <use id="Mask" fill="#F93D3D" xlink:href="#path-3"></use>
                            </g>
                        </g>
                    </g>
                </g>
            </g>
        </g>
    </g>
</svg>