<?xml version="1.0" encoding="UTF-8"?>
<svg width="40px" height="40px" viewBox="0 0 40 40" version="1.1" xmlns="http://www.w3.org/2000/svg" xmlns:xlink="http://www.w3.org/1999/xlink">
    <title>Doc@3x</title>
    <g id="Cases" stroke="none" stroke-width="1" fill="none" fill-rule="evenodd">
        <g id="Client-Cases/Case-Info/William-Carnes/Evaluations-Copy-7" transform="translate(-891.000000, -734.000000)" fill="#F93D3D">
            <g id="Group-11" transform="translate(851.000000, 305.000000)">
                <g id="Group-250-Copy-5" transform="translate(25.000000, 414.000000)">
                    <g id="Doc" transform="translate(15.000000, 15.000000)">
                        <path d="M5.1277704,-2.07168062e-16 L34.8722296,2.07168062e-16 C36.6552671,-1.2037061e-16 37.3018396,0.185651222 37.9536914,0.534265408 C38.6055433,0.882879593 39.1171204,1.39445674 39.4657346,2.04630859 C39.8143488,2.69816044 40,3.34473292 40,5.1277704 L40,34.8722296 C40,36.6552671 39.8143488,37.3018396 39.4657346,37.9536914 C39.1171204,38.6055433 38.6055433,39.1171204 37.9536914,39.4657346 C37.3018396,39.8143488 36.6552671,40 34.8722296,40 L5.1277704,40 C3.34473292,40 2.69816044,39.8143488 2.04630859,39.4657346 C1.39445674,39.1171204 0.882879593,38.6055433 0.534265408,37.9536914 C0.185651222,37.3018396 8.02470732e-17,36.6552671 -1.38112041e-16,34.8722296 L1.38112041e-16,5.1277704 C-8.02470732e-17,3.34473292 0.185651222,2.69816044 0.534265408,2.04630859 C0.882879593,1.39445674 1.39445674,0.882879593 2.04630859,0.534265408 C2.69816044,0.185651222 3.34473292,1.2037061e-16 5.1277704,-2.07168062e-16 Z" id="dropdown-field" fill-opacity="0.1"></path>
                        <g id="Material-Icons/ic_folder-Copy-2" transform="translate(15.333333, 14.000000)" fill-rule="nonzero">
                            <g id="noun-pdf-2956524">
                                <path d="M0.275637272,0 C0.202623501,0 0.132491734,0.0288289922 0.0807878063,0.0804457219 C0.0291710765,0.132062452 0,0.20210702 0,0.275120792 L0,11.7248857 C0,11.7978995 0.0291710765,11.8679441 0.0807878063,11.9195608 C0.132491734,11.9711775 0.202623501,12 0.275637272,12 L9.11549972,12 C9.18851349,12 9.25864526,11.9711775 9.31034918,11.9195608 C9.36196591,11.8679441 9.39113699,11.7978995 9.39113699,11.7248857 L9.39113699,3.93765934 L5.7306107,3.93765934 C5.57855532,3.93765934 5.45497566,3.81460064 5.45497566,3.66253855 L5.4620501,0 L0.275637272,0 Z M6.01371122,0.169702911 L6.00550142,3.38686104 L9.22891991,3.38686104 L6.01371122,0.169702911 Z M4.05786064,4.77084941 C4.26301735,4.7803692 4.45682491,4.88098269 4.56834889,5.03680324 C4.71708404,5.24458036 4.76913899,5.50536939 4.78896423,5.80405599 C4.80686844,6.0734083 4.70354823,6.43802999 4.66415934,6.76032712 C4.85988302,7.006449 4.97429347,7.23247062 5.21238866,7.47056581 C5.45046149,7.70863864 5.67641604,7.82297978 5.92262735,8.01879513 C6.24454439,7.97949344 6.6093673,7.87355237 6.87836188,7.89145702 C7.17704848,7.91128271 7.43627241,7.96490902 7.64413897,8.11355697 C7.85191609,8.26229212 7.96178554,8.55688042 7.88869575,8.82989952 C7.81559478,9.10282918 7.57236833,9.30579924 7.31810797,9.3306842 C7.06378055,9.35557587 6.81329877,9.26980883 6.54472901,9.13758093 C6.30254222,9.01836565 6.03851122,8.74595023 5.77895192,8.55067148 C5.4679458,8.59713459 5.21466922,8.58324775 4.88942077,8.67041219 C4.56399346,8.75739999 4.35194587,8.89583013 4.05936312,9.01111033 C3.93228661,9.3099758 3.8406706,9.67889031 3.69053805,9.90316797 C3.52398544,10.1519058 3.35001877,10.3508513 3.11733433,10.4564503 C2.88464989,10.5620493 2.57183274,10.508067 2.37199287,10.3082383 C2.17215299,10.1084097 2.11862685,9.79757123 2.22421689,9.56490914 C2.32989637,9.33224706 2.53077367,9.15773931 2.77960092,8.99128061 C3.00378915,8.84114806 3.3714963,8.74936213 3.67009347,8.6223661 C3.78546758,8.32978336 3.92381722,8.1178252 4.01097048,7.79248732 C4.09804549,7.4673283 4.08424585,7.21378342 4.13071119,6.90295618 C3.9355107,6.64364281 3.66292759,6.38023785 3.54380174,6.13822993 C3.4115716,5.86966017 3.32685541,5.6176133 3.35174708,5.36328587 C3.37663875,5.10895845 3.57857361,4.86632449 3.85157035,4.7932347 C3.91978152,4.77498103 3.9895645,4.76764545 4.05786287,4.77078905 L4.05786064,4.77084941 Z M4.05532787,5.27523381 C4.03812237,5.27802861 4.01576458,5.28388027 3.98554489,5.29200265 C3.86458118,5.32440452 3.87331663,5.32728653 3.86484501,5.41427657 C3.85637317,5.50126437 3.8966365,5.68729566 4.00650595,5.91052248 C4.04650746,5.99183348 4.17052534,6.10563578 4.2255495,6.19532448 C4.22843173,6.08964501 4.28048422,5.92849868 4.27445862,5.83767863 C4.25795182,5.58945506 4.20100662,5.40841865 4.15017691,5.3374082 C4.11201103,5.28413247 4.1068574,5.26684044 4.05541507,5.27522486 L4.05532787,5.27523381 Z M4.56939347,7.47203252 C4.53471998,7.63248127 4.55236259,7.76375223 4.50930512,7.92444245 C4.46607281,8.08584367 4.38502341,8.19187193 4.33454249,8.34880593 C4.49105168,8.2985866 4.59551038,8.2161398 4.75637947,8.17299469 C4.91742966,8.12984958 5.04956589,8.14810302 5.21027847,8.11342953 C5.08826838,8.00286026 4.96493914,7.95316412 4.84695357,7.83526799 C4.72922289,7.71745011 4.67970115,7.59368488 4.56930627,7.47203252 L4.56939347,7.47203252 Z M6.84369554,8.40637895 C6.75295151,8.40035268 6.59207348,8.45144466 6.48656393,8.45423946 C6.57695917,8.50978681 6.69093363,8.63555312 6.77286395,8.67590342 C6.99609971,8.78577511 7.18063746,8.82551279 7.26754477,8.81704117 C7.35453258,8.80856933 7.35741459,8.81878793 7.38981869,8.69782589 C7.42222057,8.57686217 7.41602057,8.58306441 7.34501459,8.5322347 C7.27392141,8.48140499 7.09191687,8.42288844 6.8436933,8.40638119 L6.84369554,8.40637895 Z M3.40026985,9.28166776 C3.307167,9.33206148 3.14227563,9.36900436 3.06654755,9.41974911 C2.85981903,9.55809205 2.73177439,9.69931923 2.69562077,9.77887061 C2.65954988,9.85843541 2.64933206,9.85485359 2.73789167,9.94341543 C2.82645127,10.031975 2.8239203,10.0223676 2.90348286,9.98621175 C2.98304766,9.95014085 3.12479579,9.82254115 3.26314097,9.61582158 C3.31379629,9.5401002 3.34977998,9.37468564 3.40017371,9.28158503 L3.40026985,9.28166776 Z" id="Shape"></path>
                            </g>
                        </g>
                    </g>
                </g>
            </g>
        </g>
    </g>
</svg>