<?xml version="1.0" encoding="UTF-8"?>
<svg width="40px" height="40px" viewBox="0 0 40 40" version="1.1" xmlns="http://www.w3.org/2000/svg" xmlns:xlink="http://www.w3.org/1999/xlink">
    <title>Phone@3x</title>
    <g id="Cases" stroke="none" stroke-width="1" fill="none" fill-rule="evenodd">
        <g id="Client-Cases/Case-Info/William-Carnes/Evaluations-Copy-7" transform="translate(-152.000000, -530.000000)">
            <g id="Group-10" transform="translate(127.000000, 305.000000)">
                <g id="Group-15" transform="translate(25.000000, 225.000000)">
                    <rect id="Rectangle" fill-opacity="0.1" fill="#3D6083" x="0" y="0" width="40" height="40" rx="5"></rect>
                    <g id="phone-copy-2" transform="translate(7.000000, 8.000000)">
                        <rect id="Icon-Spacing" opacity="0.2" x="0" y="0" width="25" height="24" rx="5"></rect>
                        <g id="phone" transform="translate(6.250000, 2.000000)" stroke="#3D6083" stroke-linecap="round" stroke-width="2">
                            <path d="M4.16666667,1 L8.33333333,1 M2.08333333,20 L10.4166667,20 C11.5672917,20 12.5,19.1046 12.5,18 L12.5,2 C12.5,0.89543 11.5672917,0 10.4166667,0 L2.08333333,0 C0.932739583,0 0,0.89543 0,2 L0,18 C0,19.1046 0.932739583,20 2.08333333,20 Z" id="Shape"></path>
                        </g>
                    </g>
                </g>
            </g>
        </g>
    </g>
</svg>