<?xml version="1.0" encoding="UTF-8"?>
<svg width="26px" height="26px" viewBox="0 0 26 26" version="1.1" xmlns="http://www.w3.org/2000/svg" xmlns:xlink="http://www.w3.org/1999/xlink">
    <title>Primary@3x</title>
    <g id="Cases" stroke="none" stroke-width="1" fill="none" fill-rule="evenodd">
        <g id="Client-Cases/Case-Info/William-Carnes/Evaluations-Copy-7" transform="translate(-423.000000, -334.000000)" fill="#3E8ACC">
            <g id="Group-10" transform="translate(127.000000, 305.000000)">
                <g id="Primary" transform="translate(296.000000, 29.000000)">
                    <circle id="Oval" fill-opacity="0.2" cx="13" cy="13" r="13"></circle>
                    <path d="M18.1853176,8.03566604 L13.185188,6.03549307 C13.066322,5.98816898 12.9339529,5.98816898 12.8150927,6.03549307 L7.81496307,8.03566604 C7.72199208,8.07272353 7.64219002,8.13679193 7.58605142,8.21972196 C7.52991282,8.30265199 7.49988918,8.40054045 7.50000031,8.50066054 L7.50000031,14.5011795 C7.50000031,17.2314441 12.2352662,19.6764842 12.7749945,19.9465075 C12.9165153,20.0178308 13.0834882,20.0178308 13.2250061,19.9465075 C13.764963,19.676507 18.5000003,17.2313299 18.5000003,14.5011795 L18.5000003,8.50066054 C18.5001116,8.40054045 18.4700878,8.30265199 18.4139492,8.21972196 C18.3578106,8.13679193 18.2780085,8.07272353 18.1850375,8.03566604 L18.1853176,8.03566604 Z M14.9376021,11.6687391 L13.0657048,14.7820789 C12.9923745,14.9021064 12.8642031,14.9827177 12.7193236,15 L12.6585297,15 C12.5341207,15.0006872 12.4146188,14.9543241 12.3262412,14.8710314 L11.1376131,13.7635974 C11.0189482,13.6507192 10.9725679,13.4863196 11.0160227,13.3322283 C11.0594775,13.1780506 11.1860819,13.0577207 11.3483112,13.0164213 C11.5104309,12.9751219 11.6834076,13.0192012 11.8021928,13.1319808 L12.5415388,13.8347569 L14.1232385,11.2238721 C14.2069096,11.085678 14.3617182,11.0002987 14.529467,11 C14.6972264,10.9996043 14.8524495,11.0843869 14.9366581,11.2223828 C15.0207464,11.3602796 15.0211662,11.5304382 14.9375982,11.6686451 L14.9376021,11.6687391 Z" id="Shape" fill-rule="nonzero"></path>
                </g>
            </g>
        </g>
    </g>
</svg>