<?xml version="1.0" encoding="UTF-8"?>
<svg width="20px" height="20px" viewBox="0 0 20 20" version="1.1" xmlns="http://www.w3.org/2000/svg" xmlns:xlink="http://www.w3.org/1999/xlink">
    <title>Remove@3x</title>
    <g id="Cases" stroke="none" stroke-width="1" fill="none" fill-rule="evenodd">
        <g id="Client-Cases/Case-Info/Create-Case/Treatment-Plan-Copy-4" transform="translate(-1136.000000, -669.000000)" fill="#F93D3D" fill-rule="nonzero">
            <g id="Group-3" transform="translate(476.000000, 200.000000)">
                <g id="Group-23" transform="translate(25.000000, 243.000000)">
                    <g id="Group-32-Copy-4" transform="translate(0.000000, 206.000000)">
                        <path d="M645,20 C639.48,20 635,24.48 635,30 C635,35.52 639.48,40 645,40 C650.52,40 655,35.52 655,30 C655,24.48 650.52,20 645,20 Z M649,31 L641,31 C640.45,31 640,30.55 640,30 C640,29.45 640.45,29 641,29 L649,29 C649.55,29 650,29.45 650,30 C650,30.55 649.55,31 649,31 Z" id="Remove"></path>
                    </g>
                </g>
            </g>
        </g>
    </g>
</svg>