<?xml version="1.0" encoding="UTF-8"?>
<svg width="70px" height="70px" viewBox="0 0 70 70" version="1.1" xmlns="http://www.w3.org/2000/svg" xmlns:xlink="http://www.w3.org/1999/xlink">
    <title>Treatment detail@3x</title>
    <g id="Cases" stroke="none" stroke-width="1" fill="none" fill-rule="evenodd">
        <g id="Client-Cases/Case-Info/William-Carnes/Evaluations-Copy-7" transform="translate(-876.000000, -330.000000)" fill="#3D6083">
            <g id="Group-11" transform="translate(851.000000, 305.000000)">
                <g id="Treatment-detail" transform="translate(25.000000, 25.000000)">
                    <rect id="Rectangle" fill-opacity="0.1" x="0" y="0" width="70" height="70" rx="9"></rect>
                    <path d="M49,19.0158163 C48.7905556,19.0158163 48.5811111,19.094898 48.4361111,19.2530612 L47.1633333,20.502551 C46.8411111,20.8188776 46.3416667,20.8188776 46.0194444,20.502551 L44.7466667,19.2530612 C44.4244444,18.9367347 43.925,18.9367347 43.6027778,19.2530612 L42.33,20.502551 C42.0077778,20.8188776 41.5083333,20.8188776 41.1861111,20.502551 L39.9133333,19.2530612 C39.5911111,18.9367347 39.0916667,18.9367347 38.7694444,19.2530612 L37.4966667,20.502551 C37.1744444,20.8188776 36.675,20.8188776 36.3527778,20.502551 L35.08,19.2530612 C34.7577778,18.9367347 34.2583333,18.9367347 33.9361111,19.2530612 L32.6633333,20.502551 C32.3411111,20.8188776 31.8416667,20.8188776 31.5194444,20.502551 L30.2305556,19.2372449 C29.9083333,18.9209184 29.4088889,18.9209184 29.0866667,19.2372449 L27.8138889,20.502551 C27.4916667,20.8188776 26.9922222,20.8188776 26.67,20.502551 L25.3972222,19.2372449 C25.075,18.9209184 24.5755556,18.9209184 24.2533333,19.2372449 L22.9805556,20.502551 C22.6583333,20.8188776 22.1588889,20.8188776 21.8366667,20.502551 L20.5638889,19.2372449 C20.4188889,19.094898 20.2094444,19.0158163 20,19.0158163 L20,50 C20.2094444,50 20.4188889,49.9209184 20.5638889,49.7627551 L21.8366667,48.5132653 C22.1588889,48.1969388 22.6583333,48.1969388 22.9805556,48.5132653 L24.2533333,49.7627551 C24.5755556,50.0790816 25.075,50.0790816 25.3972222,49.7627551 L26.67,48.5132653 C26.9922222,48.1969388 27.4916667,48.1969388 27.8138889,48.5132653 L29.0866667,49.7627551 C29.4088889,50.0790816 29.9083333,50.0790816 30.2305556,49.7627551 L31.5033333,48.5132653 C31.8255556,48.1969388 32.325,48.1969388 32.6472222,48.5132653 L33.92,49.7627551 C34.2422222,50.0790816 34.7416667,50.0790816 35.0638889,49.7627551 L36.3366667,48.5132653 C36.6588889,48.1969388 37.1583333,48.1969388 37.4805556,48.5132653 L38.7533333,49.7627551 C39.0755556,50.0790816 39.575,50.0790816 39.8972222,49.7627551 L41.17,48.5132653 C41.4922222,48.1969388 41.9916667,48.1969388 42.3138889,48.5132653 L43.5866667,49.7627551 C43.9088889,50.0790816 44.4083333,50.0790816 44.7305556,49.7627551 L46.0033333,48.5132653 C46.3255556,48.1969388 46.825,48.1969388 47.1472222,48.5132653 L48.42,49.7627551 C48.5811111,49.9209184 48.7905556,50 48.9838889,50 L48.9838889,19.0158163 L49,19.0158163 Z M42.5555556,42.4081633 L26.4444444,42.4081633 C25.5583333,42.4081633 24.8333333,41.6964286 24.8333333,40.8265306 C24.8333333,39.9566327 25.5583333,39.244898 26.4444444,39.244898 L42.5555556,39.244898 C43.4416667,39.244898 44.1666667,39.9566327 44.1666667,40.8265306 C44.1666667,41.6964286 43.4416667,42.4081633 42.5555556,42.4081633 Z M42.5555556,36.0816327 L26.4444444,36.0816327 C25.5583333,36.0816327 24.8333333,35.369898 24.8333333,34.5 C24.8333333,33.630102 25.5583333,32.9183673 26.4444444,32.9183673 L42.5555556,32.9183673 C43.4416667,32.9183673 44.1666667,33.630102 44.1666667,34.5 C44.1666667,35.369898 43.4416667,36.0816327 42.5555556,36.0816327 Z M42.5555556,29.755102 L26.4444444,29.755102 C25.5583333,29.755102 24.8333333,29.0433673 24.8333333,28.1734694 C24.8333333,27.3035714 25.5583333,26.5918367 26.4444444,26.5918367 L42.5555556,26.5918367 C43.4416667,26.5918367 44.1666667,27.3035714 44.1666667,28.1734694 C44.1666667,29.0433673 43.4416667,29.755102 42.5555556,29.755102 Z" id="Shape-Copy" fill-rule="nonzero"></path>
                </g>
            </g>
        </g>
    </g>
</svg>